<?xml version="1.0" encoding="UTF-8" standalone="no"?>
<svg
   width="24"
   height="24"
   version="1.1"
   id="svg7"
   sodipodi:docname="network-server.svg"
   inkscape:version="1.2.1 (9c6d41e410, 2022-07-14)"
   xmlns:inkscape="http://www.inkscape.org/namespaces/inkscape"
   xmlns:sodipodi="http://sodipodi.sourceforge.net/DTD/sodipodi-0.dtd"
   xmlns="http://www.w3.org/2000/svg"
   xmlns:svg="http://www.w3.org/2000/svg">
  <sodipodi:namedview
     id="namedview9"
     pagecolor="#ffffff"
     bordercolor="#666666"
     borderopacity="1.0"
     inkscape:showpageshadow="2"
     inkscape:pageopacity="0.0"
     inkscape:pagecheckerboard="0"
     inkscape:deskcolor="#d1d1d1"
     showgrid="false"
     inkscape:zoom="18.694136"
     inkscape:cx="-2.9153527"
     inkscape:cy="12.570787"
     inkscape:window-width="1920"
     inkscape:window-height="1052"
     inkscape:window-x="0"
     inkscape:window-y="28"
     inkscape:window-maximized="1"
     inkscape:current-layer="svg7" />
  <defs
     id="defs3">
    <style
       id="current-color-scheme"
       type="text/css">.ColorScheme-Text { color:#222222; } .ColorScheme-Highlight { color:#5294e2; }</style>
  </defs>
  <path
     d="M 4.800006,3 C 4.135204,3 3.600005,3.535199 3.600005,4.200001 v 3.6 c 0,0.664799 0.535199,1.199998 1.200001,1.199998 h 14.400009 c 0.66479,0 1.19998,-0.535199 1.19998,-1.199998 v -3.6 C 20.399995,3.535199 19.864805,3 19.200015,3 Z m 0,1.200001 h 14.400009 v 3.6 H 4.800006 Z m 7.200009,1.199998 V 6.6 h 1.19998 V 5.399999 Z m 2.39999,0 V 6.6 h 1.20001 V 5.399999 Z m 2.39999,0 V 6.6 h 1.20001 V 5.399999 Z M 4.800006,10.2 c -0.664802,0 -1.200001,0.535191 -1.200001,1.20001 v 3.6 c 0,0.66479 0.535199,1.19998 1.200001,1.19998 h 14.400009 c 0.66479,0 1.19998,-0.53519 1.19998,-1.19998 v -3.6 c 0,-0.664819 -0.53519,-1.20001 -1.19998,-1.20001 z m 0,1.20001 h 14.400009 v 3.6 H 4.800006 Z m 7.200009,1.19998 V 13.8 h 1.19998 v -1.20001 z m 2.39999,0 V 13.8 h 1.20001 v -1.20001 z m 2.39999,0 V 13.8 h 1.20001 V 12.59999 Z M 4.200004,17.4 c -0.332398,0 -0.599999,0.26761 -0.599999,0.59999 0,0.33241 0.267601,0.60002 0.599999,0.60002 h 1.8 v 1.8 c 0,0.33238 0.267601,0.59999 0.600002,0.59999 0.08311,0 0.16254,-0.01653 0.23437,-0.04686 0.215496,-0.09086 0.365629,-0.303832 0.365629,-0.553132 v -1.8 h 9.59999 v 1.8 c 0,0.33238 0.26761,0.59999 0.60002,0.59999 0.33238,0 0.59999,-0.26761 0.59999,-0.59999 v -1.8 h 1.8 c 0.33241,0 0.59999,-0.26761 0.59999,-0.60002 0,-0.33238 -0.26758,-0.59999 -0.59999,-0.59999 H 4.200004 Z"
     style="fill:currentColor;stroke-width:1.2001"
     class="ColorScheme-Text"
     id="path5" />
</svg>
