<svg viewBox="0 0 22 22" xmlns="http://www.w3.org/2000/svg">
    <path transform="translate(0-.002)" d="m11 3.089844a7.910653 7.910654 0 0 0-7.910156 7.910156 7.910653 7.910654 0 0 0 7.910156 7.910156 7.910653 7.910654 0 0 0 7.910156-7.910156 7.910653 7.910654 0 0 0-7.910156-7.910156zm0 0.873156c0.414 0 0.75 0.336 0.75 0.75 0 0.413-0.336 0.75-0.75 0.75s-0.75-0.337-0.75-0.75c0-0.414 0.336-0.75 0.75-0.75zm-2e-3 2.037c2.757 0 5.002 2.244 5.002 5 0 2.757-2.245 5-5.002 5s-4.998-2.243-4.998-5c0-2.756 2.241-5 4.998-5zm2e-3 1.5c-1.93 0-3.5 1.57-3.5 3.5s1.57 3.5 3.5 3.5 3.5-1.57 3.5-3.5-1.57-3.5-3.5-3.5z" fill="#222222" fill-rule="evenodd" stroke="#222222" stroke-linecap="round" stroke-width=".179"/>
</svg>
