<svg id="svg7" version="1.1" viewBox="0 0 16 16" xmlns="http://www.w3.org/2000/svg">
    <defs id="defs3">
        <style id="current-color-scheme" type="text/css">.ColorScheme-Text { color:#222222; } .ColorScheme-Highlight { color:#4285f4; }</style>
    </defs>
    <path id="path240" d="m0.25311035 15.749989 1.0478-3.850197a7.7143445 7.7143445 0 0 1-1.0509-3.8997969c0-4.2803221 3.469673-7.7499943 7.7499948-7.7499943 4.2803219 0 7.7499949 3.4696722 7.7499949 7.7499943 0 4.2803219-3.469673 7.7499939-7.7499949 7.7499939a7.7143445 7.7143445 0 0 1-3.8982468-1.050124zm4.9499218-11.386291a0.74477446 0.74477446 0 0 0-0.287525 0.0775 1.0020743 1.0020743 0 0 0-0.22785 0.1766999c-0.093 0.087575-0.1456999 0.1635249-0.2022748 0.2371498a2.1149735 2.1149735 0 0 0-0.437874 1.3004491c0.00155 0.3797498 0.10075 0.7494245 0.2557498 1.0950743 0.316974 0.6990495 0.838549 1.4391738 1.527523 2.1250483 0.16585 0.1650749 0.327825 0.3309248 0.5022 0.4851497a7.3221947 7.3221947 0 0 0 2.975998 1.5856493l0.4409748 0.06742c0.143375 0.0077 0.2867501-0.0032 0.4308991-0.01008a1.5422489 1.5422489 0 0 0 0.645575-0.179025c0.12865-0.0682 0.1891-0.1023 0.296825-0.1705 0 0 0.03334-0.0217 0.09689-0.06975 0.104625-0.0775 0.16895-0.132525 0.25575-0.2232 0.06431-0.06665 0.120124-0.144925 0.162749-0.23405 0.06045-0.126325 0.1209-0.36735 0.1457-0.568074 0.0186-0.1534502 0.01315-0.2371502 0.01085-0.2890752-0.0032-0.082925-0.07208-0.1689498-0.14725-0.2053748l-0.451064-0.2022651s-0.67425-0.2937248-1.085775-0.4812746a0.38594971 0.38594971 0 0 0-0.1371742-0.031775 0.37354972 0.37354972 0 0 0-0.2929499 0.098425v-0.00155c-0.00387 0-0.0558 0.044175-0.6161248 0.7230745a0.27124979 0.27124979 0 0 1-0.2852 0.1007499 1.0973992 1.0973992 0 0 1-0.148024-0.05115c-0.0961-0.0403-0.129425-0.0558-0.1953-0.084475l-0.00387-0.00155a4.6577466 4.6577466 0 0 1-1.216755-0.7749995c-0.097649-0.08525-0.188324-0.1782499-0.281324-0.2681498a4.8793964 4.8793964 0 0 1-0.7905-0.9826992l-0.045725-0.073625a0.71532448 0.71532448 0 0 1-0.07905-0.1588749c-0.02945-0.1139249 0.047275-0.2053749 0.047275-0.2053749s0.188325-0.2061498 0.2759-0.3177497a3.3944974 3.3944974 0 0 0 0.203825-0.2890748c0.09145-0.1472499 0.120125-0.2983748 0.072075-0.4153997-0.217-0.5300997-0.44175-1.0578743-0.6727-1.581774-0.045725-0.1038499-0.18135-0.1782498-0.304574-0.1929748-0.04185-0.00465-0.0837-0.0093-0.12555-0.0124a2.623373 2.623373 0 0 0-0.312325 0.0031z" fill="#222" stroke-width=".774999"/>
</svg>
