<svg id="svg187" version="1.1" viewBox="0 0 16 16" xmlns="http://www.w3.org/2000/svg">
    <defs id="defs181">
        <style id="current-color-scheme" type="text/css">.ColorScheme-Text { color:#222222; } .ColorScheme-Highlight { color:#4285f4; }</style>
    </defs>
    <path id="path240" d="m0.25311035 15.749989 1.0478-3.850197a7.7143445 7.7143445 0 0 1-1.0509-3.8997967c0-4.2803223 3.4696726-7.7499945 7.7499946-7.7499945s7.749995 3.4696722 7.749995 7.7499945c0 4.2803217-3.469673 7.7499937-7.749995 7.7499937a7.7143445 7.7143445 0 0 1-3.898247-1.050124zm4.9499216-11.386291a0.74477446 0.74477446 0 0 0-0.287525 0.0775 1.0020743 1.0020743 0 0 0-0.22785 0.1766999c-0.093 0.087575-0.1457 0.1635249-0.202275 0.2371498a2.1149735 2.1149735 0 0 0-0.437874 1.300449c0.0015 0.37975 0.10075 0.749425 0.25575 1.095074 0.316974 0.69905 0.838549 1.439174 1.527523 2.125049 0.16585 0.165075 0.327825 0.330925 0.5022 0.485149a7.3221947 7.3221947 0 0 0 2.975998 1.5856497l0.440975 0.06742c0.143375 0.0077 0.28675-0.0032 0.430899-0.01008a1.5422489 1.5422489 0 0 0 0.645575-0.179025c0.12865-0.0682 0.1891-0.1023 0.296825-0.1705 0 0 0.03334-0.0217 0.09689-0.06975 0.104625-0.0775 0.16895-0.132525 0.25575-0.2232 0.06431-0.06665 0.120124-0.144925 0.162749-0.23405 0.06045-0.126325 0.1209-0.36735 0.1457-0.568074 0.0186-0.1534497 0.01315-0.2371497 0.01085-0.2890747-0.0032-0.08292-0.07208-0.16895-0.14725-0.205375l-0.451064-0.202265s-0.67425-0.293725-1.085775-0.481275a0.38594971 0.38594971 0 0 0-0.137174-0.03177 0.37354972 0.37354972 0 0 0-0.29295 0.09843v-0.0015c-0.0039 0-0.0558 0.04417-0.616125 0.723074a0.27124979 0.27124979 0 0 1-0.2852 0.10075 1.0973992 1.0973992 0 0 1-0.148024-0.05115c-0.0961-0.0403-0.129425-0.0558-0.1953-0.08448l-0.0039-0.0015a4.6577466 4.6577466 0 0 1-1.216755-0.774999c-0.09765-0.08525-0.188324-0.17825-0.281324-0.26815a4.8793964 4.8793964 0 0 1-0.7905-0.982699l-0.04572-0.07362a0.71532448 0.71532448 0 0 1-0.07905-0.158875c-0.02945-0.113925 0.04728-0.205375 0.04728-0.205375s0.188325-0.20615 0.2759-0.31775a3.3944974 3.3944974 0 0 0 0.203825-0.289074c0.09145-0.14725 0.120125-0.298375 0.07207-0.4154-0.217-0.5301-0.44175-1.0578744-0.6727-1.5817741-0.04572-0.1038499-0.18135-0.1782498-0.304574-0.1929748-0.04185-0.00465-0.0837-0.0093-0.12555-0.0124a2.623373 2.623373 0 0 0-0.312325 0.0031z" fill="#222" stroke-width=".774999"/>
    <circle id="circle185" class="ColorScheme-Highlight" cx="13.416841" cy="13.542678" r="2" color="#4285f4" fill="#25d366"/>
</svg>
