<svg version="1.1" viewBox="0 0 16 16" xmlns="http://www.w3.org/2000/svg">
    <defs>
        <style id="current-color-scheme" type="text/css">.ColorScheme-Text { color:#222222; } .ColorScheme-Highlight { color:#4285f4; } .ColorScheme-NeutralText { color:#ff9800; } .ColorScheme-PositiveText { color:#4caf50; } .ColorScheme-NegativeText { color:#f44336; }</style>
    </defs>
    <path class="ColorScheme-Text" d="m4.4472656 1 0.0019532 0.0039062-4.4414063 2.5039063 3.9921875 2.4785156-4 3.0175781 4.4492188 2.4960938 3.5507812-2.4902344-4-3.0097656 4-2.4921875 4 2.5058594-1.736328 1.3007812a5 5 0 0 1 1.736328-0.3144531 5 5 0 0 1 1.792969 0.3378906l-1.792969-1.3417968 3.990234-2.4902344-4.439453-2.5058594-3.550781 2.4921875-3.5527344-2.4921875zm7.5527344 7c-2.209 0-4 1.7909998-4 4 0 2.209 1.791 4 4 4s4-1.791 4-4c0-2.2090002-1.791-4-4-4zm3.970703 0.9667969a5 5 0 0 1 0.019531 0.0292969l0.009766-0.0058594-0.029297-0.0234375zm-5.613281 0.6660156-0.003906 0.0136719 1.646484 1.6464846 1.646484-1.6464846 0.707032 0.7070316-1.646485 1.646484 1.646485 1.646484-0.707032 0.707032-1.642578-1.660157-1.646484 1.646485-0.7070314-0.707032 1.6464844-1.646484-1.6464844-1.646484 0.7070314-0.7070315zm-3.1445314 0.9296875-2.7636718 1.939453-0.8886719-0.498047v0.371094l4.4394531 2.625 0.0058594-0.001953a5 5 0 0 1-1.0058594-2.998047 5 5 0 0 1 0.2128906-1.4375z" fill="currentColor"/>
</svg>
