<svg version="1.1" viewBox="0 0 16 16" xmlns="http://www.w3.org/2000/svg">
    <defs>
        <style id="current-color-scheme" type="text/css">.ColorScheme-Text { color:#222222; } .ColorScheme-Highlight { color:#4285f4; } .ColorScheme-NeutralText { color:#ff9800; } .ColorScheme-PositiveText { color:#4caf50; } .ColorScheme-NegativeText { color:#f44336; }</style>
    </defs>
    <path class="ColorScheme-Text" d="m4.4472656 1 0.0019532 0.0039062-4.4414063 2.5039063 3.9921875 2.4785156-4 3.0175781 4.4492188 2.4960938 3.5507812-2.4902344-4-3.0097656 4-2.4921875 4 2.5058594-1.736328 1.3007812c0.555557-0.2069257 1.143487-0.3134011 1.736328-0.3144531 0.613322 0.00171 1.221095 0.1162466 1.792969 0.3378906l-1.792969-1.3417968 3.990234-2.4902344-4.439453-2.5058594-3.550781 2.4921875-3.5527344-2.4921875zm7.5527344 7c-2.209 0-4 1.7909999-4 4 0 2.209 1.791 4 4 4s4-1.791 4-4c0-2.2090001-1.791-4-4-4zm0 1v1a2 2 0 0 0-2 2h-1a3 3 0 0 1 3-3zm-4.7871094 1.5625-2.7636718 1.939453-0.8886719-0.498047v0.371094l4.4394531 2.625 0.0058594-0.001953c-0.6508023-0.864166-1.0037471-1.916196-1.0058594-2.998047 5.819e-4 -0.486977 0.072303-0.971257 0.2128906-1.4375zm6.7871094 1.4375h1a3 3 0 0 1-3 3v-1a2 2 0 0 0 2-2z" fill="currentColor"/>
</svg>
