<svg version="1.1" viewBox="0 0 16 16" xmlns="http://www.w3.org/2000/svg">
    <defs>
        <style id="current-color-scheme" type="text/css">.ColorScheme-Text { color:#ffffff; } .ColorScheme-Highlight { color:#4285f4; } .ColorScheme-NeutralText { color:#ff9800; } .ColorScheme-PositiveText { color:#4caf50; } .ColorScheme-NegativeText { color:#f44336; }</style>
    </defs>
    <path class="ColorScheme-Text" d="m14 0c-4.9046625 0-9.0707466 3.2299795-10.484375 7.6738281a5 5 0 0 1 2.4140625-0.6679687c1.4681304-2.9693823 4.5243985-5.0058594 8.0703125-5.0058594v-2zm0 4c-2.546131 0-4.782678 1.372955-6.0078125 3.4160156a5 5 0 0 1 1.6367187 1.1464844c0.8518378-1.5318325 2.4846338-2.5625 4.3710938-2.5625v-2zm-8.0097656 4c-0.6764894 0.001344-1.3625724 0.1747482-1.9902344 0.5371094-1.912976 1.10434-2.5672606 3.5501416-1.4628906 5.4628906 1.104371 1.912649 3.5500146 2.567231 5.4628906 1.462891 1.912976-1.104339 2.567262-3.548188 1.4628906-5.460938-0.690232-1.1954057-1.9028547-1.9016714-3.1835937-1.9921874-0.0960553-0.0067887-0.1924212-0.0099576-0.2890625-0.0097656zm6.5097656 0a1.5 1.5 0 0 0-1.5 1.5 1.5 1.5 0 0 0 1.5 1.5 1.5 1.5 0 0 0 1.5-1.5 1.5 1.5 0 0 0-1.5-1.5zm-6.5 0.4003906 1 1-0.5 0.5-0.5 0.5000004v-0.400391a2 2 0 0 0-2 2v2.230469a3 3 0 0 1-1-2.230469 3 3 0 0 1 3-3v-0.5996094zm2 1.3691406a3 3 0 0 1 1 2.2304688 3 3 0 0 1-3 3v0.5l-1-1 1-1v0.5a2 2 0 0 0 2-2v-2.2304688zm3 2.2304688v4h3v-4h-3z" fill="currentColor"/>
</svg>
