<svg version="1.1" viewBox="0 0 16 16" xmlns="http://www.w3.org/2000/svg">
    <defs>
        <style id="current-color-scheme" type="text/css">.ColorScheme-Text { color:#ffffff; } .ColorScheme-Highlight { color:#4285f4; } .ColorScheme-NeutralText { color:#ff9800; } .ColorScheme-PositiveText { color:#4caf50; } .ColorScheme-NegativeText { color:#f44336; }</style>
    </defs>
    <path class="ColorScheme-Text" d="m14 0c-4.9046625 0-9.0707466 3.2299795-10.484375 7.6738281 0.7349805-0.4238703 1.5657348-0.6537392 2.4140625-0.6679687 1.4681304-2.9693823 4.5243985-5.0058594 8.0703125-5.0058594v-2zm0 4c-2.546131 0-4.782678 1.372955-6.0078125 3.4160156 0.6171608 0.2681347 1.17385 0.6580828 1.6367187 1.1464844 0.8518378-1.5318325 2.4846338-2.5625 4.3710938-2.5625v-2zm-8.0097656 4c-0.6764894 0.001344-1.3625724 0.1747483-1.9902344 0.5371094-1.912976 1.10434-2.5672606 3.5501416-1.4628906 5.4628906 1.104371 1.912649 3.5500146 2.567231 5.4628906 1.462891 1.912976-1.104339 2.567262-3.548188 1.4628906-5.460938-0.690232-1.1954058-1.9028547-1.9016714-3.1835937-1.9921874-0.0960553-0.0067887-0.1924212-0.0099576-0.2890625-0.0097656zm6.5097656 0c-0.828427 0-1.5 0.6715729-1.5 1.5 0 0.828427 0.671573 1.5 1.5 1.5s1.5-0.671573 1.5-1.5c0-0.8284271-0.671573-1.5-1.5-1.5zm-4.5136719 2.177734 0.765625 0.644532-2.6894531 3.201172-2.0507812-1.708985 0.640625-0.767578 1.2851562 1.070313 2.0488281-2.439454zm3.0136719 1.822266v4h3v-4h-3z" fill="currentColor"/>
</svg>
