<svg version="1.1" viewBox="0 0 16 16" xmlns="http://www.w3.org/2000/svg">
    <defs>
        <style id="current-color-scheme" type="text/css">.ColorScheme-Text { color:#ffffff; } .ColorScheme-Highlight { color:#4285f4; } .ColorScheme-NeutralText { color:#ff9800; } .ColorScheme-PositiveText { color:#4caf50; } .ColorScheme-NegativeText { color:#f44336; }</style>
    </defs>
    <path class="ColorScheme-Text" d="m2.5996094-2e-7c-0.7111104 0-1.4241891 0.1097359-1.9570313 0.6425781s-0.6425781 1.2459209-0.6425781 1.9570313v5.4003906a1 1 0 0 0 1 1 1 1 0 0 0 1-1v-5.4003906c0-0.3607309 0.050152-0.5007032 0.0625-0.5371094 0.036406-0.012348 0.1763785-0.0625 0.5371094-0.0625h10.800782c0.36073 0 0.500703 0.050151 0.537109 0.0625 0.012349 0.036406 0.0625 0.1763785 0.0625 0.5371094v1.4003906a1 1 0 0 0 1 1 1 1 0 0 0 1-1v-1.4003906c0-0.7111104-0.109736-1.4241891-0.642578-1.9570313s-1.245921-0.6425781-1.957031-0.6425781zm-0.5996094 6a2 2 0 0 0 2 2 2 2 0 0 0 2-2 2 2 0 0 0-2-2 2 2 0 0 0-2 2zm6-3a1 1 0 0 0-1 1v3.1816406a3 3 0 0 1 1-0.1816406 3 3 0 0 1 1 0.1738281v-3.1738281a1 1 0 0 0-1-1zm4 0a1 1 0 0 0-1 1v0.1835938a3 3 0 0 1 1-0.1835938 3 3 0 0 1 1 0.1796875v-0.1796875a1 1 0 0 0-1-1zm0 2a2 2 0 0 0-2 2 2 2 0 0 0 2 2 2 2 0 0 0 2-2 2 2 0 0 0-2-2zm3 2a1 1 0 0 0-1 1v5.4003912c0 0.36073-0.05015 0.500703-0.0625 0.537109-0.03641 0.012349-0.176379 0.0625-0.537109 0.0625h-10.800782c-0.3607309 0-0.5007032-0.050151-0.5371094-0.0625-0.012348-0.036406-0.0625-0.176379-0.0625-0.537109v-1.400391a1 1 0 0 0-1-1 1 1 0 0 0-1 1v1.400391c0 0.71111 0.1097359 1.424189 0.6425781 1.957031s1.2459209 0.642578 1.9570313 0.642578h10.800782c0.71111 0 1.424189-0.109736 1.957031-0.642578s0.642578-1.245921 0.642578-1.957031v-5.4003912a1 1 0 0 0-1-1zm-7 1a2 2 0 0 0-2 2 2 2 0 0 0 2 2.0000002 2 2 0 0 0 2-2.0000002 2 2 0 0 0-2-2zm-5 0.8164062v3.183594a1 1 0 0 0 1 1 1 1 0 0 0 1-1v-3.1816408a3 3 0 0 1-1 0.1816406 3 3 0 0 1-1-0.1835938zm10 1a3 3 0 0 1-1 0.1835938 3 3 0 0 1-1-0.1796875v2.1796877a1 1 0 0 0 1 1 1 1 0 0 0 1-1z" fill="currentColor"/>
</svg>
