<svg id="svg184" version="1.1" viewBox="0 0 16 16" xmlns="http://www.w3.org/2000/svg">
    <path id="path447" d="m4.495065 11.504134-3.495065-3.495865 3.503938-3.504135 3.503938-3.504134 3.496063 3.496258 3.496061 3.496257-3.504935 3.503743-3.504936 3.503742zm6.972722-0.0928 3.430477-3.413838-1.105123-1.105185-2.892574 2.892574-2.892574 2.892572-1.189116-1.188785-1.189116-1.188786 2.315797-2.316128 2.315797-2.316129-1.11772-1.118205-1.11772-1.118206-2.866294 2.866268-2.866293 2.866269 2.830654 2.83059c1.55686 1.556826 2.849256 2.830644 2.87199 2.830709 0.02274 7.1e-5 1.585052-1.53611 3.471815-3.41372zm-3.859823-5.345091-0.380955-0.382161 0.390434-0.389245 0.390433-0.389245 0.390434 0.389245 0.390432 0.389245-0.380954 0.382161c-0.209525 0.210189-0.389485 0.382161-0.399912 0.382161-0.01043 0-0.190387-0.171972-0.399912-0.382161zm0.825839 4.588277 0.371421-0.37271-0.389399-0.390631-0.3894-0.390633-0.390405 0.390429-0.390407 0.390427 0.371625 0.372914c0.204393 0.205103 0.388166 0.372914 0.408384 0.372914 0.02022 0 0.2039-0.167719 0.408181-0.37271z" fill="#222222" stroke-width=".0354938"/>
</svg>
