<?xml version="1.0" encoding="UTF-8" standalone="no"?>
<svg
   width="16"
   height="16"
   version="1.1"
   id="svg184"
   sodipodi:docname="koi_tray.svg"
   inkscape:version="1.2 (dc2aedaf03, 2022-05-15)"
   xml:space="preserve"
   xmlns:inkscape="http://www.inkscape.org/namespaces/inkscape"
   xmlns:sodipodi="http://sodipodi.sourceforge.net/DTD/sodipodi-0.dtd"
   xmlns="http://www.w3.org/2000/svg"
   xmlns:svg="http://www.w3.org/2000/svg"><defs
     id="defs188" /><sodipodi:namedview
     id="namedview186"
     pagecolor="#d7d7d7"
     bordercolor="#666666"
     borderopacity="1.0"
     inkscape:showpageshadow="2"
     inkscape:pageopacity="0"
     inkscape:pagecheckerboard="0"
     inkscape:deskcolor="#d1d1d1"
     showgrid="false"
     inkscape:zoom="19.312854"
     inkscape:cx="2.6925073"
     inkscape:cy="11.909167"
     inkscape:window-width="1920"
     inkscape:window-height="1052"
     inkscape:window-x="0"
     inkscape:window-y="28"
     inkscape:window-maximized="1"
     inkscape:current-layer="svg184" /><path
     style="fill:#ffffff;fill-opacity:1;stroke-width:0.0354938"
     d="M 4.495065,11.504134 1,8.008269 4.503938,4.504134 8.007876,1 11.503939,4.496258 15,7.992515 11.495065,11.496258 7.990129,15 Z m 6.972722,-0.0928 L 14.898264,7.997496 14.345703,7.444904 13.793141,6.892311 10.900567,9.784885 8.007993,12.677457 6.818877,11.488672 5.629761,10.299886 7.945558,7.983758 10.261355,5.667629 9.143635,4.549424 8.025915,3.431218 5.159621,6.297486 2.293328,9.163755 l 2.830654,2.83059 c 1.55686,1.556826 2.849256,2.830644 2.87199,2.830709 0.02274,7.1e-5 1.585052,-1.53611 3.471815,-3.41372 z M 7.607964,6.066243 7.227009,5.684082 7.617443,5.294837 8.007876,4.905592 8.39831,5.294837 8.788742,5.684082 8.407788,6.066243 C 8.198263,6.276432 8.018303,6.448404 8.007876,6.448404 c -0.01043,0 -0.190387,-0.171972 -0.399912,-0.382161 z M 8.433803,10.65452 8.805224,10.28181 8.415825,9.891179 8.026425,9.500546 7.63602,9.890975 7.245613,10.281402 7.617238,10.654316 c 0.204393,0.205103 0.388166,0.372914 0.408384,0.372914 0.02022,0 0.2039,-0.167719 0.408181,-0.37271 z"
     id="path447" /></svg>
