<svg id="svg184" version="1.1" viewBox="0 0 16 16" xmlns="http://www.w3.org/2000/svg">
    <path id="path395" d="m7.3070312 1.7007812-5.6080078 5.6080079a0.98884466 0.98884466 90.008003 0 0-1.953e-4 1.3982421l2.7953125 2.7968748 2.7269567 2.726957a1.0877242 1.0877242 3.2722215e-6 0 0 1.5382743 0l2.7347694-2.734769 2.806445-2.8048825a0.98856923 0.98856923 90.007978 0 0 1.95e-4 -1.3982427l-2.796875-2.796875-2.7953123-2.7953125a0.99105432 0.99105432 1.6379378e-6 0 0-1.4015625-1e-7zm0.9421874 1.9542969 0.8953125 0.89375 0.8857499 0.8872979a0.32787549 0.32787549 90.025018 0 1-2.03e-4 0.4634834l-4.1634765 4.1634766a0.33587593 0.33587593 89.976461 0 0 1.952e-4 0.475195l0.9515626 0.95 0.9001953 0.900195a0.40907241 0.40907241 2.7573253e-6 0 0 0.5785157 0l2.6033207-2.6033198 2.892578-2.8925781 0.421092 0.4210921a0.96564754 0.96564754 90.065407 0 1-0.001561 1.3671891l-2.74375 2.7312497c-1.12392 1.118467-2.1330098 2.115211-2.7700667 2.738353-0.3843248 0.375931-1.0214989 0.375431-1.4057311-0.002002-0.5294742-0.520106-1.3094607-1.293893-2.1699053-2.154319l-2.8300781-2.8300785 5.5087888-5.508789a0.316541 0.316541 179.97498 0 1 0.447461-1.954e-4zm-0.3195311 1.3289063-0.3125 0.3109375-0.3140664 0.3124961a0.10800538 0.10800538 90.145062 0 0-3.867e-4 0.1527383l0.3046875 0.3062499c0.1471334 0.1475997 0.2799225 0.2766754 0.3495705 0.3404588 0.026945 0.024676 0.075001 0.024413 0.1023026-6.08e-4 0.069826-0.063993 0.2022407-0.1927186 0.3489081-0.3398508l0.303129-0.3046834a0.11021521 0.11021521 89.854938 0 0-3.946e-4 -0.1558634l-0.625-0.621875a0.11076338 0.11076338 0 0 0-0.15625 0zm0.1753907 4.5941406 0.3109374 0.3125 0.3144443 0.316024a0.10577913 0.10577913 89.9966 0 1 8.9e-6 0.14921l-0.296875 0.298438c-0.1437415 0.144241-0.2772942 0.270195-0.3508721 0.332181-0.029738 0.02505-0.085459 0.02466-0.1157889-9.48e-4 -0.073788-0.0623-0.2066703-0.187661-0.3497453-0.331233l-0.293174-0.294717a0.11077583 0.11077583 90.075198 0 1 2.053e-4 -0.156455l0.6251951-0.6251951a0.10993368 0.10993368 0.07180184 0 1 0.1556643 1.951e-4z" fill="#222"/>
</svg>
