<svg version="1.1" viewBox="0 0 16 16" xmlns="http://www.w3.org/2000/svg">
    <defs>
        <style id="current-color-scheme" type="text/css">.ColorScheme-Text { color:#222222; } .ColorScheme-Highlight { color:#4285f4; }</style>
    </defs>
    <path class="ColorScheme-Text" d="m3.4628906 0c0.7998917-0.010607 1.5915351 0.3626686 2.0839844 1.0664062 0.2007601 0.286871 0.3332111 0.6064948 0.4003906 0.9394532h1.7324219c2.0928256 0 3.7910155 1.3954526 3.7910155 3.4882812 0 0.9393169-0.347348 1.7332481-0.916015 2.3261719a2.50025 2.50025 0 0 1 0.193359 0.2460937l0.796875 1.1386719c0.899064-0.9737024 1.455078-2.2662078 1.455078-3.6933593 0-3.0241716-2.462434-5.4765626-5.5-5.4765626h-3.5957031c-0.1458061-0.0246412-0.2935207-0.03650935-0.4414063-0.03515625zm-2.4589844 2.5195312-0.0039062 0.0039063v0.0351563c-2.756e-4 -0.0129691 0.0039763-0.0260746 0.0039062-0.0390626zm-0.0039062 0.0390626v9.9160152c-0.047813 3.365899 5.047813 3.365899 5 0v-1.488281h0.6796875l-0.0488281-0.070312c-0.0243002-0.033778-0.0380681-0.07265-0.0605469-0.107422a2.50025 2.50025 0 0 1-0.0664063-0.115235c-0.2959734-0.516437-0.4121471-1.1188896-0.2988281-1.708984h-2.4121093v3.6875c0.0076299 0.53942-0.8064582 0.53942-0.7988282 0v-7.7304688c-0.6022332-0.1250878-1.1611847-0.4650127-1.5410156-1.0078124-0.287176-0.4103529-0.4427261-0.8855805-0.453125-1.375zm4.9707031 0.2441406c-0.00539 0.043712-0.0020556 0.087156-0.0097656 0.1308594-0.1160001 0.6579845-0.4805534 1.2320756-1.0273437 1.6152343-0.3505168 0.2456102-0.7427818 0.3776501-1.140625 0.4238281v3.2128907h0.796875 1.9140624c0.0113747-0.0192938 0.0468357-0.0344581 0.0644532-0.0527344a2.50025 2.50025 0 0 1 2.046875-1.1621094 2.50025 2.50025 0 0 1 1.3300781 0.3476563c0.4520975-0.4541065 0.7265625-1.0737651 0.7265625-1.8242188 0-1.6616825-1.3305069-2.6914062-2.9921875-2.6914062h-1.0957031-0.6132813zm0.0292969 1.2148437h1.5c0.875806 0 1.5 0.622197 1.5 1.4941407 0 0.727228-0.4394856 1.3059314-1.0917969 1.4707031-0.0145566-0.0076334-0.0356154-0.0073744-0.0449219-0.0214844l-1.8632812 0.0429687v-2.9863281z" fill="currentColor" opacity=".3"/>
    <path class="ColorScheme-Text" d="m3.4550781 0c-0.4815269 0.0078845193-0.9653338 0.15474079-1.3886719 0.45117188-0.5469387 0.38274464-0.911483 0.95590132-1.0273437 1.6132812-0.11600821 0.65738 0.031161 1.3204302 0.4140625 1.8671875 0.7904825 1.12886 2.351567 1.405717 3.4804688 0.6152344 0.5467902-0.3828928 0.9113354-0.9577062 1.0273437-1.6152344 0.1158605-0.6570839-0.0311612-1.3184772-0.4140625-1.8652344-0.4940515-0.70553724-1.289252-1.0795461-2.0917969-1.0664062zm5.1601563 6.9707031a2.50025 2.50025 0 0 0-1.9628906 3.9628909l2.0996093 3a2.50025 2.50025 0 1 0 4.0957029-2.867188l-2.099609-2.9999998a2.50025 2.50025 0 0 0-2.1328126-1.0957031z" fill="currentColor"/>
</svg>
