<svg id="svg4" version="1.1" viewBox="0 0 22 22" xmlns="http://www.w3.org/2000/svg">
    <g id="g416" transform="translate(2.8726113 .32229294)" fill="currentColor">
        <path id="path5" class="ColorScheme-Text" d="m8.1273887 2.6776336c-0.419066 0-0.839081 0.155495-1.152343 0.46875l-6.3789064 6.3808594c-0.3134475 0.313439-0.4691604 0.731399-0.46875 1.150391h6.9999994v-3.0000004l4.0000003 3.0000004h5c0-0.418969-0.157441-0.837136-0.470703-1.150391l-6.3769533-6.3808594c-0.313262-0.3132549-0.733277-0.46875-1.152344-0.46875z" color="#222222" opacity=".35"/>
        <path id="path7" class="ColorScheme-Text" d="m0.1273893 10.677634c4.114e-4 0.418498 0.1576125 0.83732 0.4707031 1.15039l6.3789063 6.378907c0.626525 0.62651 1.676208 0.628419 2.302734 2e-3l6.3769533-6.380907c0.313262-0.313254 0.470703-0.731421 0.470703-1.15039h-5l-4.0000003 3v-3z" color="#222222"/>
    </g>
</svg>
