<?xml version="1.0" encoding="UTF-8" standalone="no"?>
<svg
   viewBox="0 0 22 22"
   version="1.1"
   id="svg4"
   sodipodi:docname="smartcode-stremio-tray.svg"
   inkscape:version="1.2 (dc2aedaf03, 2022-05-15)"
   xmlns:inkscape="http://www.inkscape.org/namespaces/inkscape"
   xmlns:sodipodi="http://sodipodi.sourceforge.net/DTD/sodipodi-0.dtd"
   xmlns="http://www.w3.org/2000/svg"
   xmlns:svg="http://www.w3.org/2000/svg">
  <defs
     id="defs8" />
  <sodipodi:namedview
     id="namedview6"
     pagecolor="#ffffff"
     bordercolor="#666666"
     borderopacity="1.0"
     inkscape:showpageshadow="2"
     inkscape:pageopacity="0.0"
     inkscape:pagecheckerboard="0"
     inkscape:deskcolor="#d1d1d1"
     showgrid="false"
     inkscape:zoom="35.681818"
     inkscape:cx="6.0254777"
     inkscape:cy="11.042038"
     inkscape:window-width="1920"
     inkscape:window-height="1016"
     inkscape:window-x="0"
     inkscape:window-y="0"
     inkscape:window-maximized="1"
     inkscape:current-layer="svg4" />
  <g
     id="g416"
     transform="translate(2.8726113,0.32229294)">
    <path
       style="color:#ffffff;opacity:0.35;fill:currentColor"
       class="ColorScheme-Text"
       d="m 8.1273887,2.6776336 c -0.419066,0 -0.839081,0.155495 -1.152343,0.46875 L 0.5961393,9.527243 c -0.3134475,0.313439 -0.4691604,0.731399 -0.46875,1.150391 H 7.1273887 V 7.6776336 l 4.0000003,3.0000004 h 5 c 0,-0.418969 -0.157441,-0.837136 -0.470703,-1.150391 L 9.2797327,3.1463836 c -0.313262,-0.3132549 -0.733277,-0.46875 -1.152344,-0.46875 z"
       id="path5" />
    <path
       style="color:#ffffff;fill:currentColor"
       class="ColorScheme-Text"
       d="m 0.1273893,10.677634 c 4.114e-4,0.418498 0.1576125,0.83732 0.4707031,1.15039 l 6.3789063,6.378907 c 0.626525,0.62651 1.676208,0.628419 2.302734,0.002 l 6.3769533,-6.380907 c 0.313262,-0.313254 0.470703,-0.731421 0.470703,-1.15039 h -5 l -4.0000003,3 v -3 z"
       id="path7" />
  </g>
</svg>
