<svg version="1.1" viewBox="0 0 16 16" xmlns="http://www.w3.org/2000/svg">
  <path d="m8 1a7 7 0 0 0-7 7 7 7 0 0 0 7 7 7 7 0 0 0 7-7 7 7 0 0 0-7-7zm-1.4844 3.002c0.1356-0.0025 0.2731-0.0013 0.4063 0 3.1971 0.0437 5.6851 1.371 5.6851 1.371 0.324 0.1721 0.479 0.6869 0.344 1.0997-0.135 0.4127-0.551 0.6423-0.875 0.4707 0 0-4.055-2.1407-8.1834-0.8243-0.3477 0.1454-0.7859-0.1355-0.875-0.5879-0.0891-0.4522 0.1709-0.9774 0.5312-1.0585 1.0178-0.3246 2.0178-0.4509 2.9668-0.4707zm0.4356 3c0.1128-1e-3 0.2122-0.0042 0.3222 0 2.639 0.092 4.4666 1.5507 4.4666 1.5507 0.234 0.185 0.328 0.6616 0.207 1.0196s-0.441 0.5387-0.676 0.3535c0 0-2.907-2.3446-6.6421-0.9746-0.2625 0.124-0.5534-0.1223-0.6172-0.5313s0.1413-0.8587 0.4121-0.9297c0.8974-0.329 1.7382-0.4812 2.5274-0.4882zm0.3144 2.998c1.291 0.025 2.442 0.504 3.5434 1.154 0.164 0.108 0.243 0.412 0.152 0.629-0.091 0.218-0.337 0.285-0.486 0.141 0 0-2.036-1.659-5.057-0.735-0.1734 0.075-0.372-0.069-0.4121-0.314s0.1033-0.525 0.2832-0.561c0.7102-0.217 1.3713-0.318 1.9765-0.314z" fill="#222222"/>
</svg>
