<?xml version="1.0" encoding="UTF-8" standalone="no"?>
<svg
   viewBox="0 0 16 16"
   version="1.1"
   id="svg4"
   sodipodi:docname="steam_tray_mono.svg"
   inkscape:version="1.2.1 (9c6d41e410, 2022-07-14)"
   width="16"
   height="16"
   xmlns:inkscape="http://www.inkscape.org/namespaces/inkscape"
   xmlns:sodipodi="http://sodipodi.sourceforge.net/DTD/sodipodi-0.dtd"
   xmlns="http://www.w3.org/2000/svg"
   xmlns:svg="http://www.w3.org/2000/svg">
  <defs
     id="defs8" />
  <sodipodi:namedview
     id="namedview6"
     pagecolor="#ffffff"
     bordercolor="#666666"
     borderopacity="1.0"
     inkscape:showpageshadow="2"
     inkscape:pageopacity="0.0"
     inkscape:pagecheckerboard="0"
     inkscape:deskcolor="#d1d1d1"
     showgrid="false"
     inkscape:zoom="35.681818"
     inkscape:cx="6.4318472"
     inkscape:cy="11.042038"
     inkscape:window-width="1920"
     inkscape:window-height="1052"
     inkscape:window-x="0"
     inkscape:window-y="28"
     inkscape:window-maximized="1"
     inkscape:current-layer="svg4" />
  <path
     style="color:#5c616c;fill:#ffffff;fill-opacity:1;stroke-width:0.875"
     d="m 11.919139,3.6251172 c -1.170052,0 -2.18864,0.6340171 -2.710491,1.5757019 0,0 -0.8444901,1.665127 -1.4868023,2.3310903 C 7.4301907,7.8342658 6.918157,8.1454866 6.5922199,8.3385547 l 1.2082887,0.704106 c 0.05908,0.03422 0.1094978,0.07485 0.1606414,0.116208 0.012281,0.0099 0.027494,0.01533 0.039301,0.02564 0.3730829,0.253925 0.6237793,0.679727 0.6237793,1.1586763 0,0.776652 -0.6415678,1.406478 -1.4338644,1.406478 -0.4259329,0 -0.800258,-0.192973 -1.0629509,-0.481933 L 5.1584427,10.708881 c 0.1771002,0.945001 1.0161389,1.666002 2.031315,1.666002 0.5040444,0 0.9549766,-0.188641 1.3142516,-0.481933 l 0.013673,0.01367 0.1332979,-0.129885 c 0,0 0.9985508,-1.212227 1.6730898,-1.589352 0.626072,-0.3500093 2.084952,-0.5605443 2.084952,-0.5605443 0.248063,-0.03874 0.479518,-0.1016999 0.704105,-0.194827 l 0.107669,-0.02563 -0.01367,-0.01367 C 14.264999,8.9149557 15,7.8640796 15,6.6470408 15,4.9786762 13.620998,3.6255745 11.919121,3.6255745 Z m 0,0.9382637 c 1.173727,0 2.12424,0.9326636 2.12424,2.0832901 0,1.1506263 -0.950513,2.0832897 -2.12424,2.0832897 -1.173727,0 -2.12599,-0.9326634 -2.12599,-2.0832897 0,-1.1506265 0.952263,-2.0832901 2.12599,-2.0832901 z m 0,0.3896467 A 1.7267272,1.6926896 0 0 0 10.191362,6.6465922 1.7267272,1.6926896 0 0 0 11.919139,8.3384937 1.7267272,1.6926896 0 0 0 13.645253,6.6465922 1.7267272,1.6926896 0 0 0 11.919139,4.9530276 Z M 1.3990005,5.4999033 C 1.1461252,6.2663168 1.006825,7.0881175 1,7.9353808 L 6.5132069,11.255923 C 7.0993084,11.595415 7.8394464,11.417291 8.1726464,10.86457 8.5058122,10.311849 8.3075808,9.6027307 7.7214786,9.2632307 L 1.6235083,5.6037134 C 1.5502707,5.5612759 1.4749331,5.5261883 1.397933,5.4995008 Z"
     id="path4"
     class="ColorScheme-ButtonBackground" />
</svg>
