<svg id="svg4" version="1.1" viewBox="0 0 16 16" xmlns="http://www.w3.org/2000/svg">
    <path id="path4" class="ColorScheme-ButtonBackground" d="m11.919139 3.6251172c-1.170052 0-2.18864 0.6340171-2.710491 1.5757019 0 0-0.8444901 1.665127-1.4868023 2.3310903-0.291655 0.3023564-0.8036887 0.6135772-1.1296258 0.8066453l1.2082887 0.704106c0.05908 0.03422 0.1094978 0.07485 0.1606414 0.116208 0.012281 0.0099 0.027494 0.01533 0.039301 0.02564 0.3730829 0.253925 0.6237793 0.679727 0.6237793 1.1586763 0 0.776652-0.6415678 1.406478-1.4338644 1.406478-0.4259329 0-0.800258-0.192973-1.0629509-0.481933l-0.9689723-0.558849c0.1771002 0.945001 1.0161389 1.666002 2.031315 1.666002 0.5040444 0 0.9549766-0.188641 1.3142516-0.481933l0.013673 0.01367 0.1332979-0.129885s0.9985508-1.212227 1.6730898-1.589352c0.626072-0.3500093 2.084952-0.5605443 2.084952-0.5605443 0.248063-0.03874 0.479518-0.1016999 0.704105-0.194827l0.107669-0.02563-0.01367-0.01367c1.057873-0.477756 1.792874-1.5286321 1.792874-2.7456709 0-1.6683646-1.379002-3.0214663-3.080879-3.0214663zm0 0.9382637c1.173727 0 2.12424 0.9326636 2.12424 2.0832901 0 1.1506263-0.950513 2.0832897-2.12424 2.0832897s-2.12599-0.9326634-2.12599-2.0832897c0-1.1506265 0.952263-2.0832901 2.12599-2.0832901zm0 0.3896467a1.7267272 1.6926896 0 0 0-1.727777 1.6935646 1.7267272 1.6926896 0 0 0 1.727777 1.6919015 1.7267272 1.6926896 0 0 0 1.726114-1.6919015 1.7267272 1.6926896 0 0 0-1.726114-1.6935646zm-10.520138 0.5468757c-0.2528753 0.7664135-0.3921755 1.5882142-0.3990005 2.4354775l5.5132069 3.3205422c0.5861015 0.339492 1.3262395 0.161368 1.6594395-0.391353 0.3331658-0.552721 0.1349344-1.2618393-0.4511678-1.6013393l-6.0979703-3.6595173c-0.0732376-0.0424375-0.1485752-0.0775251-0.2255753-0.1042126z" color="#5c616c" fill="#222222" stroke-width=".875"/>
</svg>
