<svg id="svg7" version="1.1" viewBox="0 0 16 16" xmlns="http://www.w3.org/2000/svg">
  <defs id="defs3">
    <style id="current-color-scheme" type="text/css">.ColorScheme-Text { color:#444444; } .ColorScheme-Highlight { color:#4285f4; } .ColorScheme-NeutralText { color:#ff9800; } .ColorScheme-PositiveText { color:#4caf50; } .ColorScheme-NegativeText { color:#f44336; }</style>
  </defs>
  <g id="g1971" transform="matrix(.74999933 0 0 .74999933 -1.521759 -1.2300918)" fill="#222222" opacity=".7">
    <path id="path544" d="m20.1376 9.05555c1.1559 0 2.093-0.93707 2.093-2.09302 0-1.15594-0.9371-2.09302-2.093-2.09302-1.156 0-2.093 0.93708-2.093 2.09302 0 1.15595 0.937 2.09302 2.093 2.09302z"/>
    <path id="path546" d="m19.0215 18.7972c0.1346 0.017 0.2717 0.0257 0.411 0.0257h0.0153c1.7938 0 3.2479-1.4541 3.2479-3.2479v-4.7056c0-0.488-0.3956-0.88368-0.8837-0.88368h-2.5181c0.1425 0.26968 0.221 0.57788 0.2157 0.90388v5.3464c0.0195 0.908-0.156 1.7751-0.4881 2.5612z"/>
    <path id="path548" d="m17.2096 17.9435c-0.6311-0.5924-1.0254-1.4341-1.0255-2.368v-4.5898h1.3255v5.2731l3e-4 0.0116c0.0138 0.591-0.0939 1.1567-0.3003 1.6731z"/>
    <path id="path550" d="m13.9281 9.03159c1.5278-0.15167 2.721-1.44066 2.721-3.00833 0-1.6697-1.3536-3.02326-3.0233-3.02326s-3.0233 1.35356-3.0233 3.02326c0 0.05766 0.0017 0.11494 0.0048 0.17181h1.4682c1.0232 0 1.8526 0.82943 1.8526 1.85255z"/>
    <path id="path552" d="m11.9281 8.5252v-0.33013h-0.4055c0.1252 0.12127 0.2609 0.23181 0.4055 0.33013z"/>
    <path id="path554" d="m8.27593 16.4276c-6.3e-4 -0.0599-2.5e-4 -0.1201 0.00115-0.1805v-1.0712h0.47292v-4.5h1.75v-0.69018h1.4281v6.44188z"/>
    <path id="path556" d="m8.695 18.4276h3.3805c1.0232 0 1.8526-0.8294 1.8526-1.8525v-6.58938h3.729c0.4822 0.01193 0.8637 0.41218 0.8525 0.89438v5.367c0.0674 2.8941-2.2223 5.2957-5.1162 5.3665-2.1203-0.0519-3.91617-1.3548-4.6984-3.186z"/>
    <path id="path558" d="m12.0757 7.19507h-8.52747c-0.47084 0-0.85255 0.3817-0.85255 0.85255v8.52748c0 0.4708 0.3817 0.8525 0.85255 0.8525h8.52747c0.4708 0 0.8525-0.3817 0.8525-0.8525v-8.52748c0-0.47085-0.3817-0.85255-0.8525-0.85255zm-6.5757 3.48083h1.75v4.5h1v-4.5h1.75v-1h-4.5z" clip-rule="evenodd" fill-rule="evenodd"/>
  </g>
</svg>
