<svg id="svg569" version="1.1" viewBox="0 0 16 16" xmlns="http://www.w3.org/2000/svg">
  <defs id="defs565">
    <style id="current-color-scheme" type="text/css">.ColorScheme-Text { color:#444444; } .ColorScheme-Highlight { color:#4285f4; } .ColorScheme-NeutralText { color:#ff9800; } .ColorScheme-PositiveText { color:#4caf50; } .ColorScheme-NegativeText { color:#f44336; }</style>
  </defs>
  <g id="g2827" fill="#222222" stroke-width=".749999">
    <path id="path544" d="m13.581428 5.5615646c0.866924 0 1.569748-0.7028018 1.569748-1.5697636 0-0.8669542-0.702824-1.5697636-1.569748-1.5697636-0.867 0-1.569749 0.7028094-1.569749 1.5697636 0 0.8669618 0.702749 1.5697636 1.569749 1.5697636z"/>
    <path id="path2452" d="m12.949219 6.2597656c0.106875 0.2022596 0.166084 0.4332348 0.162109 0.6777344v2.1171875c0.031343 0.0055255 0.0627 0.0092713 0.09375 0.015625 0.05696 0.0116558 0.114006 0.024676 0.169922 0.0390625s0.111218 0.0317843 0.166016 0.0488281c0.054797 0.0170439 0.108503 0.0350596 0.162109 0.0546875 0.053606 0.019628 0.107815 0.0403613 0.160156 0.0625 0.052342 0.0221387 0.103293 0.0457364 0.154297 0.0703125 0.051004 0.0245762 0.100798 0.0492316 0.150391 0.0761719 0.049592 0.0269403 0.098376 0.0547532 0.146484 0.0839844s0.096028 0.0603481 0.142578 0.0917968c0.046551 0.0314488 0.0918 0.0640633 0.136719 0.0976563s0.089598 0.0678517 0.132812 0.1035156c0.043215 0.035664 0.085517 0.0736666 0.126954 0.1113281 0.041437 0.0376616 0.081507 0.0756485 0.121093 0.1152348 0.039586 0.039586 0.077573 0.079656 0.115235 0.121093 0.037661 0.041437 0.075664 0.083739 0.111328 0.126954 0.035664 0.043214 0.069922 0.087893 0.103516 0.132812 0.033593 0.044919 0.066207 0.090168 0.097656 0.136719 0.029838 0.044166 0.060047 0.089195 0.08789 0.134765 0.006844-0.074405 0.009766-0.150371 0.009766-0.226562v-3.529297c0-0.3659993-0.296035-0.6621094-0.662109-0.6621094h-1.888672z"/>
    <path id="path550" d="m8.9243067 5.5435946c1.1458493-0.1137523 2.0407483-1.080494 2.0407483-2.2562454 0-1.2522739-1.0151992-2.267443-2.2674731-2.267443s-2.267473 1.0151691-2.267473 2.267443c0 0.043245 0.00128 0.086205 0.0036 0.1288573h1.101149c0.7673993 0 1.3894488 0.622072 1.3894488 1.3894113z"/>
    <path id="path552" d="m7.424308 5.1638025v-0.2475973h-0.3041247c0.0939 0.090952 0.1956748 0.1738574 0.3041247 0.2475973z"/>
    <path id="path554" d="m4.685183 11.090597c-4.725e-4 -0.04493-1.875e-4 -0.09008 8.625e-4 -0.135375v-0.803399h0.3546896v-3.374997h1.3124989v-0.5176345h1.071074v4.8314055z"/>
    <path id="path2447" d="m8.9238281 6.2597656v4.9414064c0 0.767323-0.6212733 1.388672-1.3886719 1.388672h-2.5351562c0.5866714 1.373397 1.9332155 2.351705 3.5234375 2.390625 0.4507276-0.011027 0.8813816-0.09859 1.28125-0.248047-0.0017513-0.002112-0.0041129-0.003743-0.0058594-0.00586-0.0356639-0.043214-0.0699226-0.087893-0.1035156-0.132812s-0.0662075-0.090168-0.0976563-0.136719c-0.0314487-0.04655-0.0625656-0.09447-0.0917968-0.142578s-0.0570441-0.096892-0.0839844-0.146484c-0.0269403-0.049593-0.0515957-0.099387-0.0761719-0.150391-0.0245761-0.051004-0.0481738-0.101955-0.0703125-0.154297-0.0221387-0.052341-0.042872-0.10655-0.0625-0.160156-0.0196279-0.053606-0.0376436-0.107312-0.0546875-0.162109-0.0170438-0.054798-0.0344416-0.1101-0.0488281-0.166016s-0.0274067-0.112962-0.0390625-0.169922-0.0204451-0.113943-0.0292969-0.171875-0.017463-0.116951-0.0234375-0.175781-0.0106479-0.11808-0.0136719-0.177734c-0.0030239-0.059655-0.0039062-0.119282-0.0039062-0.179688s8.823e-4 -0.120033 0.0039062-0.179688c0.003024-0.059654 0.0076974-0.118904 0.0136719-0.177734s0.0145857-0.117849 0.0234375-0.175781 0.0176411-0.114915 0.0292969-0.171875 0.024676-0.114006 0.0390625-0.169922 0.0317843-0.111218 0.0488281-0.166016c0.0170439-0.054797 0.0350596-0.108503 0.0546875-0.162109 0.019628-0.053606 0.0403613-0.107815 0.0625-0.160156 0.0221387-0.052342 0.0457364-0.103293 0.0703125-0.154297 0.0245762-0.051004 0.0492316-0.100798 0.0761719-0.150391 0.0269403-0.049592 0.0547532-0.098376 0.0839844-0.146484s0.0603481-0.096028 0.0917968-0.142578c0.0314488-0.046551 0.0640633-0.0918 0.0976563-0.136719s0.0678517-0.089598 0.1035156-0.132812c0.035664-0.043215 0.0736666-0.085517 0.1113281-0.126954 0.0376616-0.041437 0.0756485-0.081507 0.1152348-0.121093 0.039586-0.0395863 0.079656-0.0775732 0.121093-0.1152348 0.041437-0.0376615 0.083739-0.0756641 0.126954-0.1113281 0.043214-0.0356639 0.087893-0.0699226 0.132812-0.1035156s0.090168-0.0662075 0.136719-0.0976563c0.04655-0.0314487 0.09447-0.0625656 0.142578-0.0917968s0.096892-0.0570441 0.146484-0.0839844c0.049593-0.0269403 0.099387-0.0515957 0.150391-0.0761719 0.051004-0.0245761 0.101955-0.0481738 0.154297-0.0703125 0.052341-0.0221387 0.10655-0.042872 0.160156-0.0625 0.053606-0.0196279 0.107312-0.0376436 0.162109-0.0546875 0.054798-0.0170438 0.1101-0.0344416 0.166016-0.0488281s0.112962-0.0274067 0.169922-0.0390625 0.113943-0.0204451 0.171875-0.0292969 0.116951-0.017463 0.175781-0.0234375 0.11808-0.0106479 0.177734-0.0136719c0.013611-6.899e-4 0.027365 5.34e-4 0.041016 0v-2.0742187c0.0084-0.3616493-0.278975-0.6609719-0.640625-0.6699219h-2.7968749z"/>
    <path id="path558" d="m7.5350079 4.1662059h-6.3955968c-0.35312966 0-0.63941191 0.2862747-0.63941191 0.6394119v6.3956042c0 0.3531 0.28627475 0.639375 0.63941191 0.639375h6.3955968c0.3530997 0 0.6393744-0.286275 0.6393744-0.639375v-6.3956042c0-0.3531372-0.2862747-0.6394119-0.6393744-0.6394119zm-4.9317706 2.6106201h1.3124988v3.374997h0.7499994v-3.374997h1.3124988v-0.7499993h-3.374997z" clip-rule="evenodd" fill-rule="evenodd"/>
  </g>
  <path id="path2385" d="m12.5 9c-1.932995 0-3.5 1.567005-3.5 3.5s1.567005 3.5 3.5 3.5 3.5-1.567005 3.5-3.5-1.567005-3.5-3.5-3.5zm-0.5 1h1v2h2v1h-3v-3z" fill="#f6d32d"/>
</svg>
