<svg id="svg315" version="1.1" viewBox="0 0 16 16" xmlns="http://www.w3.org/2000/svg">
  <defs id="defs311">
    <style id="current-color-scheme" type="text/css">.ColorScheme-Text { color:#444444; } .ColorScheme-Highlight { color:#4285f4; } .ColorScheme-NeutralText { color:#ff9800; } .ColorScheme-PositiveText { color:#4caf50; } .ColorScheme-NegativeText { color:#f44336; }</style>
  </defs>
  <g fill="#222222" stroke-width=".749999">
    <path id="path544" d="m13.581428 5.5615646c0.866924 0 1.569748-0.7028018 1.569748-1.5697636 0-0.8669542-0.702824-1.5697636-1.569748-1.5697636-0.867 0-1.569749 0.7028094-1.569749 1.5697636 0 0.8669618 0.702749 1.5697636 1.569749 1.5697636z"/>
    <path id="path546" d="m12.949219 6.2597656c0.106875 0.2022596 0.166084 0.4332348 0.162109 0.6777344v3.964844c0.738539 0.137317 1.335638 0.6798 1.548828 1.388672 0.514368-0.446616 0.839844-1.105139 0.839844-1.839844v-3.529297c0-0.3659993-0.296035-0.6621094-0.662109-0.6621094h-1.888672z"/>
    <path id="path550" d="m8.9243067 5.5435946c1.1458493-0.1137523 2.0407483-1.080494 2.0407483-2.2562454 0-1.2522739-1.0151992-2.267443-2.2674731-2.267443s-2.267473 1.0151691-2.267473 2.267443c0 0.043245 0.00128 0.086205 0.0036 0.1288573h1.101149c0.7673993 0 1.3894488 0.622072 1.3894488 1.3894113z"/>
    <path id="path552" d="m7.424308 5.1638025v-0.2475973h-0.3041247c0.0939 0.090952 0.1956748 0.1738574 0.3041247 0.2475973z"/>
    <path id="path554" d="m4.685183 11.090597c-4.725e-4 -0.04493-1.875e-4 -0.09008 8.625e-4 -0.135375v-0.803399h0.3546896v-3.374997h1.3124989v-0.5176345h1.071074v4.8314055z"/>
    <path id="path556" d="m8.9238281 6.2597656v4.9414064c0 0.767323-0.6212733 1.388672-1.3886719 1.388672h-2.5351562c0.5866714 1.373397 1.9332155 2.351705 3.5234375 2.390625 0.9819787-0.024025 1.8702185-0.407527 2.5449215-1.019531-0.205328-0.314128-0.324218-0.690462-0.324218-1.09375 0-0.973425 0.696052-1.784036 1.617187-1.962891v-3.9746095c0.0084-0.3616493-0.278975-0.6609719-0.640625-0.6699219h-2.7968749z"/>
    <path id="path558" d="m7.5350079 4.1662059h-6.3955968c-0.35312966 0-0.63941191 0.2862747-0.63941191 0.6394119v6.3956042c0 0.3531 0.28627475 0.639375 0.63941191 0.639375h6.3955968c0.3530997 0 0.6393744-0.286275 0.6393744-0.639375v-6.3956042c0-0.3531372-0.2862747-0.6394119-0.6393744-0.6394119zm-4.9317706 2.6106201h1.3124988v3.374997h0.7499994v-3.374997h1.3124988v-0.7499993h-3.374997z" clip-rule="evenodd" fill-rule="evenodd"/>
  </g>
  <path id="path2871" d="m12.744354 11.38754c-0.817524 0-1.480257 0.662733-1.480257 1.480255 0 0.817524 0.662733 1.480257 1.480257 1.480257s1.480256-0.662733 1.480256-1.480257c0-0.817522-0.662732-1.480255-1.480256-1.480255z" fill="#33d17a" stroke-width=".422929"/>
</svg>
