<svg id="svg2" version="1.1" viewBox="0 0 22 22" xmlns="http://www.w3.org/2000/svg">
  <defs id="defs3051">
    <style id="current-color-scheme" type="text/css">.ColorScheme-Text {
    color:#222222;
    }</style>
  </defs>
  <g id="g292" transform="matrix(1.1111111,0,0,1.1111111,-1.2222221,-1.222202)" stroke-width=".818182">
    <circle id="path822" cx="11" cy="10.999982" r="9" fill="#222222" opacity=".15" style="paint-order:normal"/>
    <path id="path2" d="M 11,6.0908932 A 4.9090909,4.9090909 0 0 0 6.0909089,10.999984 4.9090909,4.9090909 0 0 0 11,15.909075 4.9090909,4.9090909 0 0 0 15.909091,10.999984 4.9090909,4.9090909 0 0 0 11,6.0908932 Z m 0,1.6363637 A 3.2727273,3.2727273 0 0 1 14.272727,10.999984 3.2727273,3.2727273 0 0 1 11,14.272711 3.2727273,3.2727273 0 0 1 7.7272726,10.999984 3.2727273,3.2727273 0 0 1 11,7.7272569 Z" fill="#ffffff" opacity=".85" style="paint-order:fill markers stroke"/>
  </g>
</svg>
