<svg id="svg32" width="64" height="64" version="1.1" viewBox="0 0 16.933 16.933" xmlns="http://www.w3.org/2000/svg" xmlns:xlink="http://www.w3.org/1999/xlink">
    <defs id="defs36">
        <style id="current-color-scheme" type="text/css">.ColorScheme-Text { color:#727272; } .ColorScheme-Highlight { color:#5294e2; }</style>
        <linearGradient id="linearGradient3824" x1="8.224041" x2="8.224041" y1="14.987754" y2="15.417529" gradientUnits="userSpaceOnUse">
            <stop id="stop3818" stop-color="#f5f5f5" offset="0"/>
            <stop id="stop3820" stop-color="#646464" offset="1"/>
        </linearGradient>
    </defs>
    <path id="rect2719" d="m3.3402992 1.7094227c-0.28399 0-0.416499 0.2455451-0.51262 0.5126201l-0.461462 1.2815504c-0.09612 0.2673311 0.228628 0.5126201 0.512621 0.5126201h11.175324c0.283993 0 0.608742-0.245289 0.51262-0.5126201l-0.461461-1.2815504c-0.09612-0.267075-0.22863-0.5126201-0.51262-0.5126201z" fill="#ccc" stroke="#f5f5f6" stroke-linecap="round" stroke-width=".264578"/>
    <path id="rect2747" d="m3.3402989 1.8375777 1.6148579 11.032184c0.04024 0.275021 0.2286272 0.501768 0.5126201 0.501768h5.9974491c0.28399 0 0.47238-0.226747 0.51262-0.501768l1.614855-11.032184z" fill="#646464" fill-opacity=".29803923"/>
    <g id="g3105" transform="matrix(.88944322 0 0 .88944322 .93602893 -.21532518)" stroke="#fff" stroke-linecap="round" stroke-width=".271506">
        <rect id="rect2751" transform="rotate(-15)" x="1.9290435" y="3.1688247" width="5.9237165" height="7.1637039" fill="#9c420d"/>
        <rect id="rect2759" transform="rotate(15)" x="8.6321125" y="-.73288178" width="5.9237165" height="7.1637039" fill="#6b97ff"/>
        <rect id="rect2755" transform="rotate(-15)" x="3.9313705" y="3.7053461" width="5.9237165" height="7.1637039" fill="#3cd0f2"/>
        <rect id="rect2757" transform="rotate(30)" x="6.5698514" y="-3.1022584" width="5.9237165" height="7.1637039" fill="#1c609c"/>
    </g>
    <path id="rect2677" d="m2.3664721 3.76042 1.101719 11.032184c0.02768 0.276559 0.22863 0.501252 0.51262 0.501252h8.9708519c0.28399 0 0.48494-0.224437 0.51262-0.501252l1.102238-11.032184z" fill="#f5f5f5" stroke="url(#linearGradient3824)" stroke-linecap="round" stroke-width=".264578"/>
    <path id="rect1679" transform="scale(.26457812)" d="m30.041016 24.382812c0.595778 0.248001 1.091854 0.695626 1.46289 1.339844l2.652344 4.609375-1.660156 0.941407 5.376953 0.076171 2.626953-4.710937-1.634766 0.966797-1.511718-2.576172c-0.24897-0.422374-0.66944-0.646485-1.214844-0.646485h-6.097656zm-1.414063 0.22461c-0.940656 0-1.708877 0.447031-2.179687 1.265625l-2.25586 3.890625 4.734375 3.332031 2.925781-5.638672-0.84375-1.412109c-0.568656-0.965843-1.36367-1.4375-2.380859-1.4375zm12.394531 7.371094-4.732422 2.703125 2.923829 5.05664h1.636718a2.7677181 2.7677181 0 0 0 1.41211-0.322265c0.791467-0.445623 1.363281-1.388047 1.363281-2.279297 0-0.446594-0.124849-0.868438-0.347656-1.265625l-2.25586-3.892578zm-15.242187 1.142578-5.404297 0.099609 1.660156 0.939453-1.486328 2.603516c-0.099781 0.172437-0.173828 0.444186-0.173828 0.667969a1.3824059 1.3824059 0 0 0 0.173828 0.646484l3.097656 5.328125c-0.024189-0.173408-0.023437-0.29863-0.023437-0.396484 0-0.421407 0.197333-1.091487 0.445312-1.53711l2.652344-4.583984 1.685547 0.964844-2.626953-4.732422zm9.814453 5.277344-2.775391 4.636718 2.775391 4.634766v-1.910156h2.900391a1.3388122 1.3388122 0 0 0 1.214843-0.667969l3.072266-5.353516c-0.520217 0.396208-1.139784 0.59375-1.882812 0.59375h-5.304688v-1.933593zm-10.162109 1.884765-0.792969 1.412109c-0.247999 0.421407-0.421875 1.091095-0.421875 1.488282a2.5914057 2.5914057 0 0 0 2.578125 2.576172h4.509766v-5.476563h-5.873047z" fill="#0078d7" style="paint-order:stroke fill markers"/>
</svg>
