<svg id="svg16" width="64" height="64" version="1.1" viewBox="0 0 16.933 16.933" xmlns="http://www.w3.org/2000/svg" xmlns:xlink="http://www.w3.org/1999/xlink">
    <defs id="defs20">
        <linearGradient id="linearGradient3824" x1="8.224041" x2="8.224041" y1="14.987754" y2="15.417529" gradientTransform="translate(0 .5470028)" gradientUnits="userSpaceOnUse">
            <stop id="stop3818" stop-color="#f5f5f5" offset="0"/>
            <stop id="stop3820" stop-color="#646464" offset="1"/>
        </linearGradient>
    </defs>
    <g id="g905">
        <path id="rect2719-3" d="m3.340299 2.2564255c-0.28399 0-0.416499 0.2455451-0.51262 0.5126201l-0.461462 1.2815504c-0.09612 0.2673311 0.228628 0.5126202 0.512621 0.5126202h11.175324c0.283993 0 0.608742-0.2452891 0.51262-0.5126202l-0.461461-1.2815504c-0.09612-0.267075-0.22863-0.5126201-0.51262-0.5126201z" fill="#ccc" stroke="#f5f5f6" stroke-linecap="round" stroke-width=".264578"/>
        <path id="rect2747-6" d="m3.340299 2.3845805 1.614857 11.032184c0.04024 0.275021 0.228628 0.501768 0.512621 0.501768h5.997449c0.28399 0 0.47238-0.226747 0.51262-0.501768l1.614855-11.032184z" fill="#646464" fill-opacity=".298039"/>
        <path id="rect2677-7" d="m2.366472 4.3074228 1.101719 11.032184c0.02768 0.276559 0.22863 0.501252 0.51262 0.501252h8.970852c0.28399 0 0.48494-0.224437 0.51262-0.501252l1.102238-11.032184z" fill="#f5f5f5" stroke="url(#linearGradient3824)" stroke-linecap="round" stroke-width=".264578"/>
        <path id="rect1679" d="m7.948195 6.9981615c0.15763 0.065616 0.288881 0.1840474 0.387049 0.3544934l0.701752 1.2195398-0.439241 0.2490757 1.422624 0.020153 0.695035-1.2464107-0.432524 0.2557933-0.399967-0.6815988c-0.06587-0.1117509-0.177119-0.1710457-0.321421-0.1710457zm-0.37413 0.059427c-0.248877 0-0.452131 0.1182747-0.576697 0.3348567l-0.596851 1.0293741 1.252612 0.8815829 0.774097-1.4918696-0.223238-0.3736132c-0.150453-0.2555409-0.360797-0.3803311-0.629923-0.3803309zm3.279322 1.9502297-1.252095 0.715188 0.773581 1.3378768h0.43304a0.73227767 0.73227767 0 0 0 0.373613-0.08526c0.209405-0.117907 0.360694-0.367252 0.360694-0.603057 0-0.118159-0.03303-0.22977-0.09198-0.334857zm-4.032749 0.302302-1.429859 0.02635 0.439241 0.248559-0.39325 0.6888328c-0.0264 0.04562-0.04599 0.117522-0.04599 0.17673a0.36575436 0.36575436 0 0 0 0.04599 0.171046l0.819572 1.409705c-0.0064-0.04588-0.0062-0.07901-0.0062-0.104901 0-0.111495 0.05221-0.288783 0.11782-0.406685l0.70175-1.212823 0.445959 0.255277zm2.596689 1.3962688-0.734307 1.226775 0.734307 1.226258v-0.505386h0.76738a0.35422042 0.35422042 0 0 0 0.321421-0.17673l0.812855-1.416423c-0.137638 0.104828-0.301562 0.157093-0.498151 0.157093h-1.403505zm-2.688671 0.498668-0.209803 0.373613c-0.06562 0.111496-0.111619 0.28868-0.111619 0.393767a0.68562926 0.68562926 0 0 0 0.682116 0.681599h1.193185v-1.448979z" fill="#0078d7" style="paint-order:stroke fill markers"/>
    </g>
</svg>
