<svg version="1.1" viewBox="0 0 24 24" xmlns="http://www.w3.org/2000/svg">
  <defs>
    <style id="current-color-scheme" type="text/css">.ColorScheme-Text { color:#222222; } .ColorScheme-Highlight { color:#4285f4; } .ColorScheme-NeutralText { color:#ff9800; } .ColorScheme-PositiveText { color:#4caf50; } .ColorScheme-NegativeText { color:#f44336; }</style>
  </defs>
  <path class="ColorScheme-Text" d="m12.999843 4.0196875v2.9804687h3v-2.1328125a7.5 7.5 0 0 0-3-0.8476562zm-0.999999 0.015625a7.5 7.5 0 0 0-3.0000002 0.8535156v2.1113281h3.0000002zm4.999999 1.4667968v1.4980469h1.498047a7.5 7.5 0 0 0-1.498047-1.4980469zm-8.9999992 0.0214844a7.5 7.5 0 0 0-1.4765625 1.4765625h1.4765625zm-2.1113281 2.4765628a7.5 7.5 0 0 0-0.8535157 3.0000005h2.9648438v-3.0000005zm3.1113281 0v3.0000005h3.0000002v-3.0000005zm3.9999992 0v3.0000005h3v-3.0000005zm4 0v3.0000005h2.980469a7.5 7.5 0 0 0-0.847657-3.0000005zm-11.964843 4.0000005a7.5 7.5 0 0 0 0.8535157 3h2.1113281v-3zm3.9648438 0v3h3.0000002v-3zm3.9999992 0v3h3v-3zm4 0v3h2.111329a7.5 7.5 0 0 0 0.853515-3zm-10.476562 4a7.5 7.5 0 0 0 1.4765625 1.476562v-1.476562zm2.4765625 0v2.111327a7.5 7.5 0 0 0 3.0000002 0.853516v-2.964843zm3.9999992 0v2.964843a7.5 7.5 0 0 0 3-0.853516v-2.111327zm4 0v1.476562a7.5 7.5 0 0 0 1.476562-1.476562z" fill="currentColor"/>
</svg>
