<svg version="1.1" viewBox="0 0 24 24" xmlns="http://www.w3.org/2000/svg">
    <defs>
        <style id="current-color-scheme" type="text/css">.ColorScheme-Text { color:#222222; } .ColorScheme-Highlight { color:#4285f4; } .ColorScheme-NeutralText { color:#ff9800; } .ColorScheme-PositiveText { color:#4caf50; } .ColorScheme-NegativeText { color:#f44336; }</style>
    </defs>
    <path class="ColorScheme-Text" d="m5.7322049 5.0005007c-0.041776-9.827e-4 -0.082228 2.326e-4 -0.1230469 0.00195-1.2245812 0.051968-2.0369213 1.3188941-1.3691406 2.3691407l0.064453 0.064453 10.750001 1.1816404c0.325127 0.0284 0.566809 0.200803 0.699218 0.4316409 0.0012 2e-3 0.0028 0.0038 0.0039 0.0059 0.15448 0.274125 0.153098 0.629265-0.05664 0.93164l-4.273432 6.4726593-0.582031 0.808594c-0.259018 0.311185-0.778393 0.310925-0.9726562-0.0625l0.5839842 0.996094c0.129509 0.18671 0.259163 0.311073 0.388672 0.435547 0.7123 0.560131 1.878147 0.498269 2.460938-0.373047l6.410156-9.3965252c0.362248-0.506419 0.353066-1.1089623 0.09766-1.5957027l2e-3 -0.00195c-6e-3 -0.011379-0.01329-0.021953-0.01953-0.033203-0.0061-0.011004-0.01121-0.022328-0.01758-0.033203-0.0052-0.00888-0.01175-0.016946-0.01758-0.025391-0.258964-0.4243241-0.711474-0.7437272-1.275439-0.8007843l-12.626953-1.3691406c-0.042495-0.00389-0.085177-0.00683-0.1269531-0.00781zm-0.84375 3.5058591 4.6601562 8.1328132c0.5841279-0.09439 0.6931899-0.245292 1.0546879-0.748047l4.160156-6.2988283z" fill="currentColor"/>
</svg>
