<?xml version="1.0" encoding="UTF-8" standalone="no"?>
<svg
   width="24"
   height="24"
   version="1.1"
   viewBox="0 0 24 24"
   id="svg1446"
   sodipodi:docname="steam_tray_mono.svg"
   inkscape:version="1.2 (dc2aedaf03, 2022-05-15)"
   xmlns:inkscape="http://www.inkscape.org/namespaces/inkscape"
   xmlns:sodipodi="http://sodipodi.sourceforge.net/DTD/sodipodi-0.dtd"
   xmlns="http://www.w3.org/2000/svg"
   xmlns:svg="http://www.w3.org/2000/svg">
  <defs
     id="defs1450" />
  <sodipodi:namedview
     id="namedview1448"
     pagecolor="#ffffff"
     bordercolor="#666666"
     borderopacity="1.0"
     inkscape:showpageshadow="2"
     inkscape:pageopacity="0.0"
     inkscape:pagecheckerboard="0"
     inkscape:deskcolor="#d1d1d1"
     showgrid="false"
     inkscape:zoom="32.708333"
     inkscape:cx="11.694268"
     inkscape:cy="12.015287"
     inkscape:window-width="1920"
     inkscape:window-height="1016"
     inkscape:window-x="0"
     inkscape:window-y="0"
     inkscape:window-maximized="1"
     inkscape:current-layer="svg1446" />
  <path
     style="color:#5c616c;fill:#ffffff;fill-opacity:1"
     d="m 16.47901,7.0001392 c -1.3372,0 -2.5013,0.72459 -3.0977,1.8008 0,0 -0.96513,1.9029998 -1.6992,2.6640998 -0.33332,0.34555 -0.9185,0.70123 -1.291,0.92188 l 1.3809,0.804691 c 0.06752,0.03911 0.12514,0.08555 0.18359,0.13281 0.01404,0.01135 0.03142,0.01752 0.04492,0.0293 0.42638,0.290201 0.71289,0.776831 0.71289,1.3242 0,0.8876 -0.73322,1.6074 -1.6387,1.6074 -0.48678,0 -0.91458,-0.22054 -1.2147998,-0.55078 l -1.1074,-0.638679 c 0.2024,1.08 1.1613,1.904 2.3214998,1.904 0.57605,0 1.0914,-0.21559 1.502,-0.55078 l 0.01563,0.01563 0.15234,-0.14844 c 0,0 1.1412,-1.385401 1.9121,-1.8164 0.71551,-0.40001 2.3828,-0.64062 2.3828,-0.64062 0.2835,-0.04428 0.54802,-0.11623 0.80469,-0.22266 l 0.12305,-0.0293 -0.01563,-0.01563 c 1.209,-0.546 2.049,-1.747001 2.049,-3.137901 0,-1.9066998 -1.576,-3.4530998 -3.521,-3.4530998 z m 0,1.0723001 c 1.3414,0 2.4277,1.0659 2.4277,2.3808997 0,1.315 -1.0863,2.3809 -2.4277,2.3809 -1.3414,0 -2.4297,-1.0659 -2.4297,-2.3809 0,-1.3149997 1.0883,-2.3808997 2.4297,-2.3808997 z m 0,0.44531 a 1.9734,1.9345 0 0 0 -1.9746,1.9354997 1.9734,1.9345 0 0 0 1.9746,1.9336 1.9734,1.9345 0 0 0 1.9727,-1.9336 1.9734,1.9345 0 0 0 -1.9727,-1.9354997 z m -12.0230001,0.625 c -0.289,0.8758997 -0.4482,1.8150997 -0.456,2.7833997 L 10.30081,15.72105 c 0.66983,0.38799 1.5157,0.18442 1.8965,-0.44726 0.38076,-0.63168 0.15421,-1.4421 -0.51562,-1.8301 L 4.7125899,9.2613893 c -0.0837,-0.0485 -0.1698001,-0.0886 -0.2578,-0.1191001 z"
     id="path4"
     class="ColorScheme-ButtonBackground" />
</svg>
