<?xml version="1.0" encoding="UTF-8" standalone="no"?>
<svg
   width="24"
   height="24"
   version="1.1"
   viewBox="0 0 24 24"
   id="svg1446"
   sodipodi:docname="steam_tray_mono.svg"
   inkscape:version="1.2.1 (9c6d41e410, 2022-07-14)"
   xmlns:inkscape="http://www.inkscape.org/namespaces/inkscape"
   xmlns:sodipodi="http://sodipodi.sourceforge.net/DTD/sodipodi-0.dtd"
   xmlns="http://www.w3.org/2000/svg"
   xmlns:svg="http://www.w3.org/2000/svg">
  <defs
     id="defs1450" />
  <sodipodi:namedview
     id="namedview1448"
     pagecolor="#ffffff"
     bordercolor="#666666"
     borderopacity="1.0"
     inkscape:showpageshadow="2"
     inkscape:pageopacity="0.0"
     inkscape:pagecheckerboard="0"
     inkscape:deskcolor="#d1d1d1"
     showgrid="false"
     inkscape:zoom="32.708333"
     inkscape:cx="9.3401275"
     inkscape:cy="12.015287"
     inkscape:window-width="1920"
     inkscape:window-height="1052"
     inkscape:window-x="0"
     inkscape:window-y="28"
     inkscape:window-maximized="1"
     inkscape:current-layer="svg1446" />
  <path
     style="color:#5c616c;fill:#ffffff;fill-opacity:1;stroke-width:1.125"
     d="m 17.038892,6.3751496 c -1.504351,0 -2.813966,0.8151648 -3.484916,2.0259025 0,0 -1.085773,2.1408769 -1.911603,2.9971159 -0.374985,0.388744 -1.033314,0.788884 -1.452377,1.037116 l 1.553515,0.905279 c 0.07596,0.044 0.140783,0.09624 0.206539,0.149411 0.01579,0.01277 0.03535,0.01971 0.05053,0.03296 0.479678,0.326477 0.802002,0.873936 0.802002,1.489727 0,0.998552 -0.824873,1.808328 -1.84354,1.808328 -0.547628,0 -1.028903,-0.248108 -1.366651,-0.619629 L 8.3465694,15.482848 c 0.2277003,1.215001 1.3064646,2.142002 2.6116906,2.142002 0.648057,0 1.227826,-0.242539 1.689752,-0.619628 l 0.01758,0.01758 0.171382,-0.166995 c 0,0 1.283852,-1.558579 2.151116,-2.043453 0.804949,-0.450012 2.680653,-0.720698 2.680653,-0.720698 0.318938,-0.04981 0.616523,-0.130759 0.905277,-0.250493 l 0.138432,-0.03296 -0.01758,-0.01758 C 20.054999,13.176373 21,11.825245 21,10.26048 21,8.1154409 19.226998,6.3757387 17.03887,6.3757387 Z m 0,1.2063391 c 1.509077,0 2.731166,1.199139 2.731166,2.6785153 0,1.479377 -1.222089,2.678516 -2.731166,2.678516 -1.509076,0 -2.733415,-1.199139 -2.733415,-2.678516 0,-1.4793763 1.224339,-2.6785153 2.733415,-2.6785153 z m 0,0.5009744 a 2.2200778,2.1763152 0 0 0 -2.221427,2.1774399 2.2200778,2.1763152 0 0 0 2.221427,2.175302 2.2200778,2.1763152 0 0 0 2.219291,-2.175302 2.2200778,2.1763152 0 0 0 -2.219291,-2.1774399 z M 3.5130005,8.785589 C 3.1878751,9.7709774 3.0087749,10.827578 2.9999999,11.916917 l 7.0884091,4.269269 c 0.75356,0.436489 1.705164,0.207473 2.133565,-0.503168 0.428356,-0.710641 0.173486,-1.622365 -0.580073,-2.058865 L 3.8016534,8.9190591 C 3.7074908,8.8644966 3.610628,8.819384 3.511628,8.7850713 Z"
     id="path4"
     class="ColorScheme-ButtonBackground" />
</svg>
