<svg id="svg7" version="1.1" viewBox="0 0 24 24" xmlns="http://www.w3.org/2000/svg">
  <defs id="defs3">
    <style id="current-color-scheme" type="text/css">.ColorScheme-Text { color:#444444; } .ColorScheme-Highlight { color:#4285f4; } .ColorScheme-NeutralText { color:#ff9800; } .ColorScheme-PositiveText { color:#4caf50; } .ColorScheme-NegativeText { color:#f44336; }</style>
  </defs>
  <g fill="#222222" stroke-width=".749999">
    <path id="path544" d="m17.581428 9.5615646c0.866924 0 1.569748-0.7028018 1.569748-1.5697636 0-0.8669542-0.702824-1.5697636-1.569748-1.5697636-0.867 0-1.569749 0.7028094-1.569749 1.5697636 0 0.8669618 0.702749 1.5697636 1.569749 1.5697636z"/>
    <path id="path546" d="m16.949219 10.259766c0.106875 0.202258 0.166084 0.433234 0.162109 0.677734v3.984375c0.732328 0.136163 1.325205 0.670963 1.542969 1.371094 0.516876-0.446674 0.845703-1.105029 0.845703-1.841797v-3.529297c0-0.366-0.296035-0.662109-0.662109-0.662109h-1.888672z"/>
    <path id="path550" d="m12.924307 9.5435946c1.145849-0.1137523 2.040748-1.080494 2.040748-2.2562454 0-1.2522739-1.015199-2.267443-2.267473-2.267443s-2.267473 1.0151691-2.267473 2.267443c0 0.043245 0.0013 0.086205 0.0036 0.1288573h1.101149c0.767399 0 1.389449 0.622072 1.389449 1.3894113z"/>
    <path id="path552" d="m11.424308 9.1638025v-0.2475973h-0.304125c0.0939 0.090952 0.195675 0.1738574 0.304125 0.2475973z"/>
    <path id="path554" d="m8.685183 15.090597c-4.725e-4 -0.04493-1.875e-4 -0.09008 8.625e-4 -0.135375v-0.803399h0.3546896v-3.374997h1.3124989v-0.517634h1.071074v4.831405z"/>
    <path id="path556" d="m12.923828 10.259766v4.941406c0 0.767323-0.621274 1.388672-1.388672 1.388672h-2.535156c0.5866714 1.373397 1.933215 2.351695 3.523438 2.390625 0.978472-0.023939 1.863289-0.405492 2.537109-1.013672-0.200148-0.311454-0.316406-0.682356-0.316406-1.080078 0-0.973424 0.696054-1.784035 1.617187-1.962891v-3.99414c0.0084-0.36165-0.278975-0.661022-0.640625-0.669922h-2.796875z"/>
    <path id="path558" d="m11.535008 8.1662059h-6.3955969c-0.3531297 0-0.6394119 0.2862747-0.6394119 0.6394119v6.3956042c0 0.3531 0.2862747 0.639375 0.6394119 0.639375h6.3955969c0.3531 0 0.639374-0.286275 0.639374-0.639375v-6.3956042c0-0.3531372-0.286274-0.6394119-0.639374-0.6394119zm-4.9317707 2.6106201h1.3124988v3.374997h0.7499994v-3.374997h1.3124988v-0.749999h-3.374997z" clip-rule="evenodd" fill-rule="evenodd"/>
  </g>
  <path id="path1278" d="m16.744348 15.406815c-0.817526 0-1.480262 0.662735-1.480262 1.480261 0 0.817527 0.662736 1.480262 1.480262 1.480262 0.817527 0 1.480261-0.662735 1.480261-1.480262 0-0.817526-0.662734-1.480261-1.480261-1.480261z" fill="#33d17a" stroke-width=".42293"/>
</svg>
