<svg id="svg3924" version="1.1" viewBox="0 0 24 24" xmlns="http://www.w3.org/2000/svg">
  <defs id="defs3920">
    <style id="current-color-scheme" type="text/css">.ColorScheme-Text { color:#444444; } .ColorScheme-Highlight { color:#4285f4; } .ColorScheme-NeutralText { color:#ff9800; } .ColorScheme-PositiveText { color:#4caf50; } .ColorScheme-NegativeText { color:#f44336; }</style>
  </defs>
  <g id="g5047" fill="#222222" stroke-width=".749999">
    <path id="path544" d="m17.581409 9.561377c0.866924 0 1.569748-0.7028018 1.569748-1.5697636 0-0.8669542-0.702824-1.5697636-1.569748-1.5697636-0.867 0-1.569749 0.7028094-1.569749 1.5697636 0 0.8669618 0.702749 1.5697636 1.569749 1.5697636z"/>
    <path id="path2363" d="m16.9492 10.259578c0.106875 0.20226 0.166084 0.433235 0.162109 0.677734v2.117188c0.03134 0.0055 0.0627 0.0093 0.09375 0.01563 0.05696 0.01166 0.114006 0.02468 0.169922 0.03906 0.05592 0.01439 0.111218 0.03178 0.166016 0.04883 0.0548 0.01704 0.108503 0.03506 0.162109 0.05469 0.05361 0.01963 0.107815 0.04036 0.160156 0.0625 0.05234 0.02214 0.103293 0.04574 0.154297 0.07031 0.051 0.02458 0.100798 0.04923 0.150391 0.07617 0.04959 0.02694 0.09838 0.05475 0.146484 0.08398 0.04811 0.02923 0.09603 0.06035 0.142578 0.0918 0.04655 0.03145 0.0918 0.06406 0.136719 0.09766 0.04492 0.03359 0.0896 0.06785 0.132812 0.103515 0.04322 0.03566 0.08552 0.07367 0.126954 0.111329 0.04144 0.03766 0.08151 0.07565 0.121093 0.115234 0.03959 0.03959 0.07757 0.07966 0.115235 0.121093 0.03766 0.04144 0.07566 0.08374 0.111328 0.126954 0.03566 0.04321 0.06992 0.08789 0.103516 0.132812 0.03359 0.04492 0.06621 0.09017 0.09766 0.136719 0.02984 0.04417 0.06005 0.0892 0.08789 0.134765 0.0068-0.0744 0.0098-0.150371 0.0098-0.226562v-3.529296c0-0.365999-0.296035-0.662109-0.662109-0.662109z"/>
    <path id="path550" d="m12.924288 9.543407c1.145849-0.1137523 2.040748-1.080494 2.040748-2.2562454 0-1.2522739-1.015199-2.267443-2.267473-2.267443s-2.267473 1.0151691-2.267473 2.267443c0 0.043245 0.0013 0.086205 0.0036 0.1288573h1.101149c0.7674 0 1.389449 0.622072 1.389449 1.3894113z"/>
    <path id="path552" d="m11.424289 9.1636149v-0.2475973h-0.304124c0.0939 0.090952 0.195674 0.1738574 0.304124 0.2475973z"/>
    <path id="path554" d="m8.6851644 15.090409c-4.725e-4 -0.04493-1.875e-4 -0.09008 8.625e-4 -0.135375v-0.803399h0.3546896v-3.374997h1.3124985v-0.517634h1.071074v4.831405z"/>
    <path id="path2358" d="m12.923809 10.259578v4.941406c0 0.767323-0.621273 1.388672-1.388671 1.388672h-2.5351566c0.5866714 1.373397 1.9332156 2.351705 3.5234376 2.390625 0.450728-0.01103 0.881381-0.09859 1.28125-0.248047-0.0018-0.0021-0.0041-0.0037-0.0059-0.0059-0.03566-0.04321-0.06992-0.08789-0.103516-0.132812-0.03359-0.04492-0.06621-0.09017-0.09766-0.136719-0.03145-0.04655-0.06257-0.09447-0.0918-0.142578-0.02923-0.04811-0.05704-0.09689-0.08398-0.146484-0.02694-0.04959-0.0516-0.09939-0.07617-0.150391-0.02458-0.051-0.04817-0.101955-0.07031-0.154297-0.02214-0.05234-0.04287-0.10655-0.0625-0.160156-0.01963-0.05361-0.03764-0.107312-0.05469-0.162109-0.01704-0.0548-0.03444-0.1101-0.04883-0.166016-0.01439-0.05592-0.02741-0.112962-0.03906-0.169922-0.01166-0.05696-0.02045-0.113943-0.0293-0.171875-0.0089-0.05793-0.01746-0.116951-0.02344-0.175781-6e-3 -0.05883-0.01065-0.11808-0.01367-0.177734-3e-3 -0.05961-0.0039-0.119242-0.0039-0.179648 0-0.06041 8.83e-4 -0.120033 0.0039-0.179688 3e-3 -0.05965 0.0077-0.118904 0.01367-0.177734 6e-3 -0.05883 0.01459-0.117849 0.02344-0.175781 0.0088-0.05793 0.01764-0.114915 0.0293-0.171875s0.02468-0.114006 0.03906-0.169922c0.01439-0.05592 0.03178-0.111218 0.04883-0.166016 0.01704-0.0548 0.03506-0.108503 0.05469-0.162109 0.01963-0.05361 0.04036-0.107815 0.0625-0.160156 0.02214-0.05234 0.04574-0.103293 0.07031-0.154297 0.02458-0.051 0.04923-0.100798 0.07617-0.150391 0.02694-0.04959 0.05475-0.09838 0.08398-0.146484 0.02923-0.04811 0.06035-0.09603 0.0918-0.142578 0.03145-0.04655 0.06406-0.0918 0.09766-0.136719 0.03359-0.04492 0.06785-0.0896 0.103516-0.132812 0.03566-0.04322 0.07367-0.08552 0.111328-0.126954 0.03766-0.04144 0.07565-0.08151 0.115234-0.121093 0.03959-0.03959 0.07966-0.07757 0.121093-0.115234 0.04144-0.03766 0.08374-0.07566 0.126954-0.111328 0.04321-0.03566 0.08789-0.06992 0.132812-0.103516 0.04492-0.03359 0.09017-0.06621 0.136719-0.09766 0.04655-0.03145 0.09447-0.06257 0.142578-0.0918 0.04811-0.02923 0.09689-0.05704 0.146484-0.08398 0.04959-0.02694 0.09939-0.0516 0.150391-0.07617 0.051-0.02458 0.101955-0.04817 0.154297-0.07031 0.05234-0.02214 0.10655-0.04287 0.160156-0.0625 0.05361-0.01963 0.107312-0.03764 0.162109-0.05469 0.0548-0.01704 0.1101-0.03444 0.166016-0.04883 0.05592-0.01439 0.112962-0.02741 0.169922-0.03906 0.05696-0.01166 0.113943-0.02045 0.171875-0.0293 0.05793-0.0089 0.116951-0.01746 0.175781-0.02344 0.05883-6e-3 0.11808-0.01065 0.177734-0.01367 0.01361-6.9e-4 0.02736 5.34e-4 0.04102 0v-2.074215c0.0084-0.361649-0.278975-0.660972-0.640625-0.669922z"/>
    <path id="path558" d="m11.534989 8.1660183h-6.3955965c-0.3531297 0-0.6394119 0.2862747-0.6394119 0.6394119v6.3956038c0 0.3531 0.2862747 0.639375 0.6394119 0.639375h6.3955965c0.3531 0 0.639375-0.286275 0.639375-0.639375v-6.3956038c0-0.3531372-0.286275-0.6394119-0.639375-0.6394119zm-4.9317703 2.6106197h1.3124988v3.374997h0.7499994v-3.374997h1.3124988v-0.749999h-3.374997z" clip-rule="evenodd" fill-rule="evenodd"/>
  </g>
  <path id="path1909" d="m16.499943 12.999812c-1.932995 0-3.5 1.567005-3.5 3.5s1.567005 3.5 3.5 3.5 3.5-1.567005 3.5-3.5-1.567005-3.5-3.5-3.5zm1.794922 2h0.705078v0.708984l-3 2.998047-2-2v-0.707031h0.707031l1.292969 1.292969z" fill="#2ec27e"/>
</svg>
