<svg id="svg3546" version="1.1" viewBox="0 0 24 24" xmlns="http://www.w3.org/2000/svg">
  <defs id="defs3542">
    <style id="current-color-scheme" type="text/css">.ColorScheme-Text { color:#444444; } .ColorScheme-Highlight { color:#4285f4; } .ColorScheme-NeutralText { color:#ff9800; } .ColorScheme-PositiveText { color:#4caf50; } .ColorScheme-NegativeText { color:#f44336; }</style>
  </defs>
  <g id="g3176" transform="translate(4.0000004,3.9998124)" fill="#222222" stroke-width=".749999">
    <path id="path550" d="m8.9243067 5.5435946c1.1458493-0.1137523 2.0407483-1.080494 2.0407483-2.2562454 0-1.2522739-1.0151992-2.267443-2.2674731-2.267443s-2.267473 1.0151691-2.267473 2.267443c0 0.043245 0.00128 0.086205 0.0036 0.1288573h1.101149c0.7673993 0 1.3894488 0.622072 1.3894488 1.3894113z"/>
    <path id="path544" d="m13.581428 5.5615646c0.866924 0 1.569748-0.7028018 1.569748-1.5697636 0-0.8669542-0.702824-1.5697636-1.569748-1.5697636-0.867 0-1.569749 0.7028094-1.569749 1.5697636 0 0.8669618 0.702749 1.5697636 1.569749 1.5697636z"/>
    <path id="path4416" d="m12.949219 6.2597656c0.106875 0.2022596 0.166084 0.4332348 0.162109 0.6777344v2.1171875a3.5 3.5 0 0 1 0.126953 0.023437 3.5 3.5 0 0 1 0.144531 0.035156 3.5 3.5 0 0 1 0.142579 0.041016 3.5 3.5 0 0 1 0.140625 0.044922 3.5 3.5 0 0 1 0.138672 0.052734 3.5 3.5 0 0 1 0.136718 0.058594 3.5 3.5 0 0 1 0.134766 0.064453 3.5 3.5 0 0 1 0.130859 0.070312 3.5 3.5 0 0 1 0.128907 0.074219 3.5 3.5 0 0 1 0.123046 0.080078 3.5 3.5 0 0 1 0.123047 0.085937 3.5 3.5 0 0 1 0.117188 0.091797 3.5 3.5 0 0 1 0.113281 0.095703 3.5 3.5 0 0 1 0.109375 0.099609 3.5 3.5 0 0 1 0.105469 0.1054685 3.5 3.5 0 0 1 0.09961 0.109375 3.5 3.5 0 0 1 0.0957 0.113281 3.5 3.5 0 0 1 0.0918 0.117188 3.5 3.5 0 0 1 0.08594 0.123047 3.5 3.5 0 0 1 0.08008 0.123046 3.5 3.5 0 0 1 0.0098 0.01563c0.006921-0.07503 0.009726-0.151673 0.009726-0.228518v-3.529297c0-0.3659993-0.296035-0.6621094-0.662109-0.6621094z"/>
    <path id="path552" d="m7.424308 5.1638025v-0.2475973h-0.3041247c0.0939 0.090952 0.1956748 0.1738574 0.3041247 0.2475973z"/>
    <path id="path554" d="m4.685183 11.090597c-4.725e-4 -0.04493-1.875e-4 -0.09008 8.625e-4 -0.135375v-0.803399h0.3546896v-3.374997h1.3124989v-0.5176345h1.071074v4.8314055z"/>
    <path id="path4411" d="m8.9238281 6.2597656v4.9414064c0 0.767323-0.6212733 1.388672-1.3886719 1.388672h-2.5351562c0.5866714 1.373397 1.9332155 2.351705 3.5234375 2.390625 0.4544146-0.01112 0.8883936-0.100235 1.2910156-0.251953a3.5 3.5 0 0 1-0.1464843-0.171875 3.5 3.5 0 0 1-0.2871094-0.466797 3.5 3.5 0 0 1-0.2089844-0.507813 3.5 3.5 0 0 1-0.1289062-0.535156 3.5 3.5 0 0 1-0.0429688-0.546875 3.5 3.5 0 0 1 0.0429688-0.546875 3.5 3.5 0 0 1 0.1289062-0.535156 3.5 3.5 0 0 1 0.2089844-0.507813 3.5 3.5 0 0 1 0.2871094-0.466797 3.5 3.5 0 0 1 0.3574222-0.417968 3.5 3.5 0 0 1 0.417968-0.3574222 3.5 3.5 0 0 1 0.466797-0.2871094 3.5 3.5 0 0 1 0.507813-0.2089844 3.5 3.5 0 0 1 0.535156-0.1289062 3.5 3.5 0 0 1 0.408203-0.03125v-2.0820313c0.0084-0.3616493-0.278975-0.6609719-0.640625-0.6699219z"/>
    <path id="path558" d="m7.5350079 4.1662059h-6.3955968c-0.35312966 0-0.63941191 0.2862747-0.63941191 0.6394119v6.3956042c0 0.3531 0.28627475 0.639375 0.63941191 0.639375h6.3955968c0.3530997 0 0.6393744-0.286275 0.6393744-0.639375v-6.3956042c0-0.3531372-0.2862747-0.6394119-0.6393744-0.6394119zm-4.9317706 2.6106201h1.3124988v3.374997h0.7499994v-3.374997h1.3124988v-0.7499993h-3.374997z" clip-rule="evenodd" fill-rule="evenodd"/>
  </g>
  <path id="path4321" d="m16.5 12.999812a3.5 3.5 0 0 0-3.5 3.5 3.5 3.5 0 0 0 3.5 3.5 3.5 3.5 0 0 0 3.5-3.5 3.5 3.5 0 0 0-3.5-3.5zm-2.5 3h5v1h-5z" fill="#e01b24"/>
</svg>
