<svg id="svg331" version="1.1" viewBox="0 0 16 16" xmlns="http://www.w3.org/2000/svg">
    <path id="path478" d="m4.6147 11.546928c-0.0695-0.0172-0.17285-0.0981-0.213-0.16656-0.0459-0.0783-0.0897-0.27459-0.11116-0.49822l-8e-3 -0.0878-0.10593-0.0498c-0.50519-0.23736-0.9932-0.57734-1.41107-0.9830298-0.31534-0.30616-0.47519-0.56789-0.47519-0.77804 0-0.34817 0.32981-0.6153 1.08354-0.87757 0.15129-0.0526 0.48071-0.13954 0.61916-0.16333 0.0899-0.0154 0.19822-0.0375 0.24079-0.0491l0.0774-0.021 3e-3 -0.0852c7e-3 -0.184 0.0238-0.46701 0.0314-0.53234 4e-3 -0.0378 0.0158-0.13845 0.0252-0.22359 0.0537-0.48143 0.11449-0.70292 0.19886-0.7241 0.0631-0.0158 0.11468 8e-3 0.18542 0.0848 0.16921 0.18429 0.26447 0.5285 0.30376 1.09755 0.01 0.13855 0.0174 0.26432 0.0174 0.27949 0 0.0243 0.0374 0.0276 0.31531 0.0276 0.17342 0 0.35724 7e-3 0.40848 0.0159 0.0512 9e-3 0.15508 0.0248 0.23075 0.0358 0.14134 0.0204 0.56156 0.10909 0.65357 0.1379 0.36501 0.11427 0.53819 0.19701 0.69106 0.33014 0.1975 0.17201 0.28068 0.33575 0.28068 0.55255 0 0.17258-0.0526 0.29069-0.18932 0.42508-0.15767 0.155-0.32799 0.21719-0.52021 0.18997-0.16644-0.0236-0.24754-0.0529-0.2719-0.0985-0.0265-0.0495-2e-3 -0.0832 0.0989-0.13476 0.25882-0.13262 0.32604-0.27403 0.17433-0.36675-0.0906-0.0554-0.34391-0.13468-0.59032-0.18481-0.0757-0.0154-0.16855-0.0346-0.20639-0.0428-0.23519-0.0504-0.48209-0.0827-0.73096-0.0954-0.0899-5e-3 -0.20517-0.0109-0.25623-0.0139l-0.0928-6e-3 0.0113 0.37141c6e-3 0.20427 0.0163 0.64373 0.0224 0.97658l0.0111 0.6051898 0.0791 0.0172c0.26423 0.0576 0.33334 0.0623 0.90462 0.0623 0.62966 0 0.72355-9e-3 1.14374-0.10558 0.4829-0.11137 0.92895-0.34686 1.20251-0.6348398 0.11907-0.12535 0.23792-0.31741 0.28151-0.45491 0.0135-0.0426 0.0353-0.11223 0.0485-0.15479 0.0157-0.0507 0.024-0.16051 0.0239-0.31818-9e-5 -0.21684-5e-3 -0.25619-0.0491-0.39558-0.19121-0.60435-0.62676-1.19075-1.26657-1.70528-0.47378-0.38101-1.05638-0.73147-1.7113-1.02942-0.40426-0.18392-1.13483-0.42318-1.65971-0.54357-0.18441-0.0423-0.22174-0.0497-0.34398-0.0687-0.0709-0.011-0.16769-0.0263-0.21498-0.0341-0.0473-8e-3 -0.17113-0.0224-0.27519-0.0325-0.10405-0.0101-0.26033-0.0259-0.34727-0.0352-0.32262-0.0343-0.80802-0.0205-1.23504 0.0351-0.12994 0.0169-0.36978 0.0836-0.36978 0.10275 0 6e-3 0.0677 0.0222 0.15049 0.0349 0.13079 0.0201 0.15782 0.0304 0.20639 0.0785 0.0708 0.0701 0.0709 0.11453 2.7e-4 0.16483-0.0503 0.0358-0.0737 0.0395-0.24508 0.0383-0.20532-1e-3 -0.33053-0.0318-0.40015-0.0969-0.0321-0.03-0.0387-0.0545-0.0387-0.14271 0-0.14014 0.081-0.30668 0.20987-0.4316 0.11353-0.11003 0.21283-0.1649 0.39556-0.2186 0.23899-0.0702 0.26758-0.0763 0.6243-0.13233 0.0568-9e-3 0.14576-0.0235 0.19779-0.0323 0.122-0.0208 1.0234-0.02 1.16953 1e-3 0.0615 9e-3 0.1621 0.0231 0.22359 0.0317 0.17219 0.024 0.32841 0.0503 0.40418 0.0681 0.0378 9e-3 0.1578 0.0366 0.26658 0.0615 0.10879 0.0249 0.22101 0.0524 0.24939 0.061 0.0284 9e-3 0.13286 0.0396 0.23218 0.0689 0.18846 0.0555 0.26045 0.0787 0.31819 0.10231 0.0189 8e-3 0.0924 0.0349 0.16339 0.0604 0.16014 0.0575 0.50126 0.1908 0.59336 0.23192 0.42743 0.19083 0.441 0.19746 0.73096 0.35706 0.0426 0.0234 0.13544 0.0739 0.20639 0.11215 0.16951 0.0914 0.42024 0.25051 0.60197 0.38201 0.25674 0.18579 0.4366 0.32214 0.50843 0.38546 0.0384 0.0339 0.10807 0.0939 0.15479 0.1333 0.25559 0.21586 0.58274 0.56985 0.80378 0.86973 0.12972 0.176 0.2873 0.41528 0.2873 0.43626 0 5e-3 0.0384 0.0853 0.0854 0.17923 0.0953 0.1907 0.15562 0.35772 0.19855 0.54994 0.0339 0.15168 0.0387 0.50199 9e-3 0.67076-0.0189 0.10823-0.0791 0.32574-0.10471 0.37838-7e-3 0.0142-0.0347 0.0722-0.0618 0.12899-0.25532 0.5347598-0.71596 0.9539098-1.3134 1.1950898-0.052 0.021-0.11007 0.0448-0.12899 0.053-0.0906 0.039-0.41203 0.13839-0.55037 0.17021-0.39172 0.0901-0.59117 0.10976-1.10933 0.10942-0.53847-3.5e-4 -0.76215-0.0251-1.21684-0.13453-0.0349-8e-3 -0.0387-3e-3 -0.0389 0.0555-2.1e-4 0.0721-0.0363 0.20402-0.0715 0.2615-0.0397 0.0647-0.11909 0.10019-0.24653 0.11001-0.0662 5e-3 -0.14617 3e-3 -0.17768-5e-3zm-0.33816-2.1326898c-1.4e-4 -0.83275-5.1e-4 -0.84191-0.0345-0.83517-0.0189 4e-3 -0.12341 0.0117-0.23219 0.0176-0.24086 0.0131-0.53644 0.0564-0.82555 0.12103-0.0709 0.0159-0.15608 0.0346-0.18919 0.0417-0.15561 0.0334-0.36248 0.12176-0.43428 0.1855-0.0333 0.0296-0.039 0.0991-0.0135 0.16604 0.0242 0.0637 0.26137 0.30571 0.42128 0.42989 0.35518 0.27582 0.8137 0.5390298 1.15511 0.6630798 0.0745 0.0271 0.13944 0.0499 0.14424 0.0508 5e-3 8.5e-4 9e-3 -0.3773498 9e-3 -0.8404398zm7.90333 1.0435598c-0.0234-0.0118-0.0589-0.0459-0.079-0.0757-0.0311-0.0461-0.0344-0.0666-0.0225-0.13734 0.0356-0.21088 0.0709-0.7857698 0.0792-1.2909598l9e-3 -0.55426-1.99886-0.01-0.0954-0.0954v-0.54881l0.0954-0.0954 0.98195-5e-3 0.98194-5e-3 -0.0127-0.13288c-0.0102-0.10639-0.033-0.38829-0.0436-0.53706-2e-3 -0.0263-0.0441-0.33779-0.0607-0.44717-5e-3 -0.0331-0.0161-0.11633-0.0246-0.18493-9e-3 -0.0686-0.0272-0.1847-0.0414-0.25799-0.0815-0.42033-0.0827-0.42953-0.0634-0.46562 0.0427-0.0798 0.0795-0.089 0.3569-0.089 0.1439 0 0.28112 7e-3 0.30493 0.0165 0.0525 0.02 0.0882 0.0859 0.10355 0.19151 0.0164 0.11271 0.0224 0.14975 0.0699 0.42839 0.0496 0.29104 0.096 0.69149 0.15684 1.35442l0.0114 0.1247h1.00009c0.9112 0 1.00388 3e-3 1.04262 0.0291 0.0234 0.016 0.0482 0.0373 0.0552 0.0473s0.0128 0.14714 0.0129 0.30475l2.6e-4 0.28655-0.1058 0.089h-1.98687l-0.0115 0.67507c-8e-3 0.48348-0.0211 0.76418-0.0453 0.9890898-0.0362 0.3368-0.045 0.36108-0.1437 0.39861-0.0685 0.026-0.47385 0.0232-0.527-4e-3z" fill="#222" stroke-width=".017199"/>
</svg>
