<svg id="svg331" version="1.1" viewBox="0 0 16 16" xmlns="http://www.w3.org/2000/svg">
    <path id="path298" d="m4.2417871 2.2501278c-0.4187763-3.64e-4 -0.8334114 0.00845-0.932093 0.025277-0.084171 0.014236-0.2272362 0.039154-0.3191234 0.053714-0.5770778 0.0906416-0.6244622 0.0981309-1.011084 0.2116957-0.2956085 0.0868722-0.4545857 0.1758803-0.6382469 0.3538794-0.2084773 0.2020872-0.34124089 0.4715709-0.34124089 0.6982799 0 0.1427002 0.011264 0.1821216 0.063193 0.2306537 0.1126265 0.1053143 0.3155727 0.156364 0.6477256 0.1579818 0.2772472 0.00194 0.3135828-0.00528 0.3949549-0.063193 0.1142604-0.081372 0.1145354-0.1520065 0-0.2654095-0.07857361-0.0778129-0.12333861-0.0938689-0.33492191-0.1263854-0.1339321-0.0205452-0.2432921-0.0471671-0.2432921-0.0568733 0-0.03098 0.390123-0.1401213 0.6003311-0.167461 0.6908043-0.089946 1.474978-0.1123617 1.996891-0.056873 0.1406457 0.015045 0.3940905 0.040534 0.5624156 0.056873 0.1683413 0.016339 0.36899 0.040772 0.4455089 0.053714 0.076503 0.012618 0.2328628 0.035919 0.34756 0.053714 0.1977517 0.030737 0.2577702 0.045317 0.5560962 0.113747 0.8491157 0.1947588 2.0317074 0.5808457 2.6856921 0.8783791 1.0594856 0.4820035 2.0013937 1.0487568 2.7678427 1.6651291 1.035042 0.8323721 1.738119 1.7806869 2.047445 2.7583639 0.07134 0.225495 0.082 0.290617 0.08215 0.641406 1.61e-4 0.255068-0.01568 0.433002-0.04108 0.515021-0.02135 0.06885-0.05715 0.1806958-0.07899 0.2496108-0.07052 0.222439-0.262365 0.533413-0.454988 0.736196-0.442547 0.465874-1.161974 0.846715-1.943177 1.026882-0.679756 0.156241-0.832926 0.170621-1.8515481 0.170621-0.9241786 0-1.0354588-0.0079-1.4629123-0.101108l-0.1295451-0.02844-0.015798-0.979488c-0.00987-0.538463-0.028209-1.2493648-0.037916-1.5798188l-0.018958-0.600331 0.1516626 0.0095c0.082601 0.0049 0.2684784 0.01403 0.4139126 0.02212 0.4026051 0.02055 0.8012299 0.07329 1.1817044 0.154822 0.061215 0.01327 0.2124593 0.0446 0.3349216 0.06951 0.3986263 0.0811 0.8076443 0.210543 0.9542113 0.300165 0.245426 0.149996 0.137493 0.376308-0.281208 0.5908518-0.163229 0.08341-0.204011 0.137938-0.161142 0.218015 0.03941 0.07377 0.173094 0.122963 0.44235 0.161142 0.31096 0.04403 0.585395-0.05574 0.840463-0.306485 0.221177-0.2174068 0.306485-0.4096128 0.306485-0.6888008 0-0.350725-0.135485-0.615911-0.454988-0.894178-0.247297-0.215386-0.528018-0.349138-1.118506-0.533996-0.148848-0.046607-0.8266691-0.1913329-1.0553195-0.2243346-0.1224138-0.017795-0.2900093-0.0423138-0.3728373-0.0568734-0.0828926-0.0143979-0.3829767-0.0252771-0.6635238-0.0252771-0.4495842 0-0.5087017-0.00492-0.5087017-0.044235 0-0.024541-0.012259-0.2276912-0.028437-0.451828-0.0635605-0.9205711-0.216007-1.4775846-0.4897435-1.7757166-0.1144386-0.1242418-0.1980868-0.1645842-0.3001657-0.139024-0.1364881 0.0342636-0.2354107 0.3934005-0.3222829 1.1722256-0.0152067 0.1377337-0.0346045 0.302208-0.0410754 0.3633584-0.0122948 0.1056864-0.0392301 0.5617586-0.0505542 0.8594214l-0.00632 0.1390241-0.1232259 0.031596c-0.068867 0.01877-0.2463609 0.05724-0.3917951 0.08215-0.2239752 0.03849-0.7568584 0.177157-1.0016051 0.26225-1.2193339 0.424282-1.7504393 0.85859-1.7504393 1.421837 0 0.339966 0.257656 0.76225 0.7677919 1.257535 0.6760021 0.656298 1.463996 1.205313 2.2812583 1.589299l0.1737802 0.08215 0.012639 0.142183c0.034717 0.361774 0.1058455 0.679039 0.1800995 0.805707 0.064952 0.11075 0.2319679 0.240745 0.3444004 0.26857 0.050975 0.01294 0.1804331 0.01441 0.2875271 0.0063 0.2061638-0.01589 0.3338902-0.07227 0.3981143-0.17694 0.056944-0.09299 0.1134072-0.306753 0.1137469-0.42339 3.236e-4 -0.09464 0.00673-0.101412 0.063193-0.08847 0.7355669 0.177029 1.0973536 0.21745 1.9684543 0.218016 0.8382445 5.5e-4 1.1609765-0.03118 1.7946745-0.17694 0.223797-0.05148 0.744451-0.214956 0.891018-0.278048 0.03061-0.01327 0.124414-0.05134 0.208536-0.08531 0.966498-0.390165 1.713396-1.068599 2.126436-1.933698 0.04384-0.09187 0.08662-0.185564 0.09795-0.208536 0.04143-0.08516 0.140045-0.434723 0.17062-0.60981 0.04805-0.273025 0.03904-0.841538-0.0158-1.086915-0.06945-0.310961-0.164954-0.579357-0.319123-0.887859-0.07603-0.151953-0.139025-0.2825976-0.139025-0.2906861 0-0.03394-0.254614-0.4230379-0.464466-0.7077589-0.357583-0.4851077-0.888294-1.0568168-1.30177-1.4060207-0.075581-0.0637385-0.18749-0.1600141-0.249611-0.2148553-0.116202-0.1024348-0.406169-0.32189-0.821506-0.6224486-0.293991-0.2127319-0.698947-0.4714282-0.973169-0.619289-0.114778-0.0618783-0.266006-0.1422443-0.334921-0.1800993-0.469078-0.2581902-0.4902372-0.2695018-1.1817048-0.5782137-0.1489932-0.0665212-0.701466-0.2829772-0.9605298-0.3759969-0.1148429-0.0412521-0.2348344-0.085007-0.2654096-0.0979487-0.0934078-0.0381947-0.2101429-0.074517-0.515021-0.1643013-0.1606732-0.0473995-0.3300532-0.0991873-0.3759967-0.1137468-0.0459114-0.0139125-0.2252809-0.0576672-0.4012741-0.0979488-0.175977-0.0402816-0.3717201-0.0833892-0.4328703-0.0979488-0.1225756-0.0287957-0.3754876-0.0717617-0.654045-0.1105874-0.0994744-0.0139125-0.2607081-0.0359946-0.3601988-0.0505542-0.1181996-0.0169862-0.5417534-0.0280727-0.9605298-0.0284367zm2.0032103 6.6857934c0.054987-0.0109 0.056647 0.0052 0.056874 1.3523248 0 0.749156-0.00771 1.360019-0.015798 1.358644-0.00777-0.0015-0.1132921-0.03831-0.2338131-0.08215-0.552311-0.200681-1.2927604-0.624915-1.8673466-1.071118-0.2586916-0.20089-0.6433326-0.5920698-0.6824818-0.6951198-0.041252-0.108291-0.031753-0.220684 0.022118-0.268569 0.1161532-0.103114 0.4497042-0.246133 0.7014395-0.300166 0.053563-0.01149 0.1917876-0.04379 0.306485-0.06951 0.4677027-0.104554 0.9468795-0.174705 1.3365266-0.195897 0.175977-0.0095 0.3454217-0.02197 0.3759969-0.02844z" stroke-width="1.61773"/>
</svg>
