<svg id="svg331" version="1.1" viewBox="0 0 16 16" xmlns="http://www.w3.org/2000/svg">
    <path id="path516" d="m4.1429935 1.0026285 2.771014 7.8531747v-0.00438l0.218776 0.6173852c1.219018 3.4479066 1.873158 5.2961236 1.875345 5.2983116 0.0022 0 0.186835 0.01138 0.410424 0.02494 0.6747035 0.02757 1.5108655 0.105012 2.1444405 0.179834 0.145703 0.01838 0.271281 0.02275 0.28047 0.01838l-3.0011665-8.5116923-1.415041-3.9970332c-0.266469-0.758714-0.494434-1.403665-0.50581-1.429043l-0.01838-0.05251h-2.75745zm4.963147 0.0048-7e-3 3.094802-0.0044 3.0969897-0.255093-0.7202098-0.328164 6.8892486c0.323789 0.914046 0.496621 1.401478 0.499247 1.403666 0.0026 0.0022 0.186834 0.01575 0.407798 0.02494 0.6768915 0.02975 1.5108655 0.105012 2.1466265 0.182459 0.145705 0.01575 0.27347 0.02275 0.280471 0.01575 0.0092-0.0044 0.01138-3.160873 0.01138-7.0052005l-0.0044-6.982447zm-4.963147-0.0048v6.9938235c0 3.846953 0.0044 6.998637 0.0092 7.003012 0.0048 0.0044 0.241528-0.01838 0.528562-0.05032 0.284846-0.03632 0.681268-0.07745 0.879478-0.09364 0.303224-0.02975 1.207643-0.08882 1.312655-0.08882 0.02975 0 0.03194-0.157081 0.03632-2.962661l0.0044-2.9648493 0.220964 0.6200105 0.07745 0.2187757 0.33254-6.8844364-0.111576-0.318975-0.531188-1.47236z" fill="#222" stroke-width=".437552"/>
</svg>
