<svg id="svg189" version="1.1" viewBox="0 0 22 22" xmlns="http://www.w3.org/2000/svg">
  <defs id="defs185">
    <style id="current-color-scheme" type="text/css">.ColorScheme-Text { color:#222222; } .ColorScheme-Highlight { color:#eedd82; }</style>
  </defs>
  <g class="ColorScheme-Text" fill="currentColor">
    <path id="path424" d="m10 18v1h2v-1z"/>
    <path id="path422" d="m9 16v1h4v-1z"/>
    <path id="path187" d="m11 3a5.15 5.15 0 0 0-5.143 5.156c0 1.688 0.795 3.161 2.041 4.101 0.574 0.434 1.048 0.993 1.048 1.765l0.054 0.978h4l0.057-0.978c0.045-0.77 0.472-1.33 1.045-1.765a5.095 5.095 0 0 0 2.04-4.101 5.15 5.15 0 0 0-5.142-5.156z"/>
  </g>
  <path id="path420" class="ColorScheme-Highlight" d="m11 5.06a3.093 3.093 0 0 1 3.086 3.096c0 0.974-0.444 1.871-1.222 2.455-1.16 0.878-1.6 1.86-1.761 2.675h-0.206c-0.16-0.816-0.6-1.797-1.761-2.674a3.052 3.052 0 0 1-1.222-2.456 3.094 3.094 0 0 1 3.086-3.096z" fill="currentColor"/>
</svg>
