<svg version="1.1" viewBox="0 0 22 22" xmlns="http://www.w3.org/2000/svg">
  <path d="m11 3.0000001c-4.4182998 0-7.9999998 3.5816996-7.9999998 7.9999999 0 4.4183 3.5817 8 7.9999998 8 4.4183 0 8-3.5817 8-8 0-4.4183003-3.5817-7.9999999-8-7.9999999zm-1.4843748 4.0019529c0.135577-0.0025 0.273043-0.00125 0.40625 0 3.1969338 0.043793 5.6855468 1.3710938 5.6855468 1.3710938 0.32387 0.172043 0.478757 0.6868991 0.34375 1.0996093-0.135016 0.4127103-0.551129 0.6427459-0.875 0.4707032 0 0-4.055029-2.1406736-8.1835938-0.8242188-0.347652 0.1453665-0.785915-0.135667-0.875-0.5878906-0.08907-0.4522235 0.170933-0.9774966 0.53125-1.0585938 1.017797-0.3245494 2.017773-0.4508521 2.966797-0.4707031zm0.435547 3c0.1127308-1e-3 0.2123258-0.0042 0.3222658 0 2.638513 0.09188 4.466796 1.550781 4.466796 1.550781 0.234052 0.185402 0.328171 0.661373 0.207032 1.019532-0.121139 0.358115-0.441752 0.53892-0.675782 0.353515 0 0-2.907877-2.344468-6.6425778-0.974609-0.262497 0.124051-0.553359-0.122359-0.617187-0.53125-0.06386-0.40893 0.141317-0.858788 0.412109-0.929688 0.897365-0.329138 1.738215-0.481181 2.527344-0.488281zm0.3144528 2.998047c1.291618 0.02495 2.442203 0.50401 3.542969 1.154297 0.164454 0.107427 0.243604 0.411344 0.152344 0.628906-0.09126 0.217545-0.337279 0.284734-0.486329 0.140625 0 0-2.036051-1.658526-5.0566398-0.734375-0.17338 0.07498-0.372018-0.06945-0.41211-0.314453-0.04008-0.245057 0.10336-0.525057 0.283204-0.560547 0.710274-0.217313 1.371689-0.318453 1.9765618-0.314453z" fill="#222222"/>
</svg>
