<?xml version="1.0" encoding="UTF-8" standalone="no"?>
<svg
   version="1.1"
   viewBox="0 0 22 22"
   id="svg912"
   sodipodi:docname="steam_tray_mono.svg"
   inkscape:version="1.2.1 (9c6d41e410, 2022-07-14)"
   xmlns:inkscape="http://www.inkscape.org/namespaces/inkscape"
   xmlns:sodipodi="http://sodipodi.sourceforge.net/DTD/sodipodi-0.dtd"
   xmlns="http://www.w3.org/2000/svg"
   xmlns:svg="http://www.w3.org/2000/svg">
  <sodipodi:namedview
     id="namedview914"
     pagecolor="#222222"
     bordercolor="#666666"
     borderopacity="1.0"
     inkscape:showpageshadow="2"
     inkscape:pageopacity="0.0"
     inkscape:pagecheckerboard="0"
     inkscape:deskcolor="#d1d1d1"
     showgrid="false"
     inkscape:zoom="35.681818"
     inkscape:cx="8.533758"
     inkscape:cy="11.014013"
     inkscape:window-width="1920"
     inkscape:window-height="1052"
     inkscape:window-x="0"
     inkscape:window-y="28"
     inkscape:window-maximized="1"
     inkscape:current-layer="svg912" />
  <defs
     id="defs908">
    <style
       id="current-color-scheme"
       type="text/css">
   .ColorScheme-Text { color:#222222; } .ColorScheme-Highlight { color:#4285f4; }
  </style>
  </defs>
  <path
     style="color:#5c616c;fill:#222222;fill-opacity:1;stroke-width:1.125"
     d="m 16.038892,5.3751504 c -1.504351,0 -2.813966,0.8151649 -3.484916,2.0259025 0,0 -1.085773,2.1408776 -1.911603,2.9971171 -0.374985,0.388744 -1.0333139,0.788884 -1.4523769,1.037116 l 1.5535149,0.905277 c 0.07596,0.044 0.140783,0.09624 0.206539,0.149412 0.01579,0.01277 0.03535,0.01971 0.05053,0.03296 0.479678,0.326476 0.802002,0.873935 0.802002,1.489727 0,0.998551 -0.824873,1.808327 -1.8435399,1.808327 -0.547628,0 -1.0289036,-0.248107 -1.3666515,-0.619628 L 7.346569,14.482847 c 0.2277003,1.215002 1.3064641,2.142003 2.6116911,2.142003 0.6480569,0 1.2278259,-0.242539 1.6897519,-0.619628 l 0.01758,0.01758 0.171382,-0.166995 c 0,0 1.283852,-1.558577 2.151116,-2.043452 0.804949,-0.450012 2.680653,-0.720699 2.680653,-0.720699 0.318938,-0.04981 0.616523,-0.130759 0.905277,-0.250492 l 0.138432,-0.03296 -0.01758,-0.01758 C 19.054999,12.176373 20,10.825247 20,9.2604817 20,7.1154416 18.226998,5.3757394 16.03887,5.3757394 Z m 0,1.206339 c 1.509077,0 2.731166,1.199139 2.731166,2.6785159 0,1.4793777 -1.222089,2.6785167 -2.731166,2.6785167 -1.509076,0 -2.733415,-1.199139 -2.733415,-2.6785167 0,-1.4793768 1.224339,-2.6785159 2.733415,-2.6785159 z m 0,0.5009744 A 2.2200777,2.1763152 0 0 0 13.817465,9.2599041 2.2200777,2.1763152 0 0 0 16.038892,11.435207 2.2200777,2.1763152 0 0 0 18.258183,9.2599041 2.2200777,2.1763152 0 0 0 16.038892,7.0824638 Z M 2.5130005,7.7855896 C 2.1878751,8.7709785 2.0087749,9.8275795 1.9999999,10.916919 l 7.0884092,4.269268 c 0.75356,0.436489 1.7051639,0.207473 2.1335649,-0.503168 0.428355,-0.710641 0.173486,-1.622365 -0.580073,-2.058865 L 2.8016534,7.9190599 C 2.7074908,7.8644973 2.6106282,7.8193848 2.511628,7.7850721 Z"
     id="path4"
     class="ColorScheme-ButtonBackground" />
</svg>
