<svg id="svg1507" version="1.1" viewBox="0 0 22 22" xmlns="http://www.w3.org/2000/svg">
  <defs id="defs1503">
    <style id="current-color-scheme" type="text/css">.ColorScheme-Text { color:#444444; } .ColorScheme-Highlight { color:#4285f4; } .ColorScheme-NeutralText { color:#ff9800; } .ColorScheme-PositiveText { color:#4caf50; } .ColorScheme-NegativeText { color:#f44336; }</style>
  </defs>
  <g id="g2827" transform="translate(2.9999814,2.9998124)" fill="#222222" stroke-width=".749999">
    <path id="path544" d="m13.581428 5.5615646c0.866924 0 1.569748-0.7028018 1.569748-1.5697636 0-0.8669542-0.702824-1.5697636-1.569748-1.5697636-0.867 0-1.569749 0.7028094-1.569749 1.5697636 0 0.8669618 0.702749 1.5697636 1.569749 1.5697636z"/>
    <path id="path2452" d="m12.949219 6.2597656c0.106875 0.2022596 0.166084 0.4332348 0.162109 0.6777344v2.1171875c0.03134 0.00553 0.0627 0.00927 0.09375 0.015625 0.05696 0.011656 0.114006 0.024676 0.169922 0.039063 0.05592 0.014387 0.111218 0.031784 0.166016 0.048828 0.0548 0.017044 0.108503 0.03506 0.162109 0.054687 0.05361 0.019628 0.107815 0.040361 0.160156 0.0625 0.05234 0.022139 0.103293 0.045736 0.154297 0.070312 0.051 0.024576 0.100798 0.049232 0.150391 0.076172 0.04959 0.02694 0.09838 0.054753 0.146484 0.083984 0.04811 0.029231 0.09603 0.060348 0.142578 0.091797 0.04655 0.031449 0.0918 0.064063 0.136719 0.097656 0.04492 0.033593 0.0896 0.067852 0.132812 0.1035156 0.04322 0.035664 0.08552 0.073667 0.126954 0.1113281 0.04144 0.037662 0.08151 0.075648 0.121093 0.1152348 0.03959 0.03959 0.07757 0.07966 0.115235 0.121093 0.03766 0.04144 0.07566 0.08374 0.111328 0.126954 0.03566 0.04321 0.06992 0.08789 0.103516 0.132812 0.03359 0.04492 0.06621 0.09017 0.09766 0.136719 0.02984 0.04417 0.06005 0.0892 0.08789 0.134765 0.0068-0.0744 0.0098-0.150371 0.0098-0.226562v-3.529296c0-0.3659993-0.296035-0.6621094-0.662109-0.6621094z"/>
    <path id="path550" d="m8.9243067 5.5435946c1.1458493-0.1137523 2.0407483-1.080494 2.0407483-2.2562454 0-1.2522739-1.0151992-2.267443-2.2674731-2.267443s-2.267473 1.0151691-2.267473 2.267443c0 0.043245 0.00128 0.086205 0.0036 0.1288573h1.101149c0.7673993 0 1.3894488 0.622072 1.3894488 1.3894113z"/>
    <path id="path552" d="m7.424308 5.1638025v-0.2475973h-0.3041247c0.0939 0.090952 0.1956748 0.1738574 0.3041247 0.2475973z"/>
    <path id="path554" d="m4.685183 11.090597c-4.725e-4 -0.04493-1.875e-4 -0.09008 8.625e-4 -0.135375v-0.803399h0.3546896v-3.374997h1.3124989v-0.5176345h1.071074v4.8314055z"/>
    <path id="path2447" d="m8.9238281 6.2597656v4.9414064c0 0.767323-0.6212733 1.388672-1.3886719 1.388672h-2.5351562c0.5866714 1.373397 1.9332155 2.351705 3.5234375 2.390625 0.4507276-0.01103 0.8813816-0.09859 1.28125-0.248047-0.00175-0.0021-0.00411-0.0037-0.00586-0.0059-0.035664-0.04321-0.069923-0.08789-0.1035156-0.132812-0.033593-0.04492-0.066208-0.09017-0.097656-0.136719-0.031449-0.04655-0.062566-0.09447-0.091797-0.142578-0.029231-0.04811-0.057044-0.09689-0.083984-0.146484-0.02694-0.04959-0.051596-0.09939-0.076172-0.150391-0.024576-0.051-0.048174-0.101955-0.070312-0.154297-0.022139-0.05234-0.042872-0.10655-0.0625-0.160156-0.019628-0.05361-0.037644-0.107312-0.054687-0.162109-0.017044-0.0548-0.034442-0.1101-0.048828-0.166016-0.014387-0.05592-0.027407-0.112962-0.039063-0.169922s-0.020445-0.113943-0.029297-0.171875c-0.00885-0.05793-0.017463-0.116951-0.023437-0.175781-0.00597-0.05883-0.010648-0.11808-0.013672-0.177734-0.0030246-0.059615-0.0039069-0.119242-0.0039069-0.179648 0-0.06041 8.823e-4 -0.120033 0.00391-0.179688 0.00302-0.05965 0.0077-0.118904 0.013672-0.177734 0.00597-0.05883 0.014586-0.117849 0.023437-0.175781 0.00885-0.05793 0.017641-0.114915 0.029297-0.171875s0.024676-0.114006 0.039063-0.169922c0.014387-0.05592 0.031784-0.111218 0.048828-0.166016 0.017044-0.0548 0.03506-0.108503 0.054687-0.162109 0.019628-0.05361 0.040361-0.107815 0.0625-0.160156 0.022139-0.05234 0.045736-0.103293 0.070312-0.154297 0.024576-0.051 0.049232-0.100798 0.076172-0.150391 0.02694-0.04959 0.054753-0.09838 0.083984-0.146484 0.029231-0.04811 0.060348-0.09603 0.091797-0.142578 0.031449-0.04655 0.064063-0.0918 0.097656-0.136719 0.033593-0.04492 0.067852-0.0896 0.1035156-0.132812 0.035664-0.04322 0.073667-0.08552 0.1113281-0.126954 0.037662-0.04144 0.075648-0.08151 0.1152343-0.121093 0.03959-0.039586 0.07966-0.077573 0.121093-0.1152348 0.04144-0.037661 0.08374-0.075664 0.126954-0.1113281 0.04321-0.035664 0.08789-0.069923 0.132812-0.1035156 0.04492-0.033593 0.09017-0.066208 0.136719-0.097656 0.04655-0.031449 0.09447-0.062566 0.142578-0.091797 0.04811-0.029231 0.09689-0.057044 0.146484-0.083984 0.04959-0.02694 0.09939-0.051596 0.150391-0.076172 0.051-0.024576 0.101955-0.048174 0.154297-0.070312 0.05234-0.022139 0.10655-0.042872 0.160156-0.0625 0.05361-0.019628 0.107312-0.037644 0.162109-0.054687 0.0548-0.017044 0.1101-0.034442 0.166016-0.048828 0.05592-0.014387 0.112962-0.027407 0.169922-0.039063s0.113943-0.020445 0.171875-0.029297c0.05793-0.00885 0.116951-0.017463 0.175781-0.023437 0.05883-0.00597 0.11808-0.010648 0.177734-0.013672 0.01361-6.899e-4 0.02736 5.34e-4 0.04102 0v-2.07422c0.0084-0.3616493-0.278975-0.6609719-0.640625-0.6699219z"/>
    <path id="path558" d="m7.5350079 4.1662059h-6.3955968c-0.35312966 0-0.63941191 0.2862747-0.63941191 0.6394119v6.3956042c0 0.3531 0.28627475 0.639375 0.63941191 0.639375h6.3955968c0.3530997 0 0.6393744-0.286275 0.6393744-0.639375v-6.3956042c0-0.3531372-0.2862747-0.6394119-0.6393744-0.6394119zm-4.9317706 2.6106201h1.3124988v3.374997h0.7499994v-3.374997h1.3124988v-0.7499993h-3.374997z" clip-rule="evenodd" fill-rule="evenodd"/>
  </g>
  <path id="path2385" d="m15.499981 11.999812c-1.932995 0-3.5 1.567005-3.5 3.5s1.567005 3.5 3.5 3.5 3.5-1.567005 3.5-3.5-1.567005-3.5-3.5-3.5zm-0.5 1h1v2h2v1h-3v-1z" fill="#f6d32d"/>
</svg>
