<?xml version="1.0" encoding="UTF-8" standalone="no"?>
<svg
   fill="none"
   viewBox="0 0 64 64"
   version="1.1"
   id="svg36"
   sodipodi:docname="folder-publicshare.svg"
   inkscape:version="1.2.1 (9c6d41e410, 2022-07-14)"
   width="64"
   height="64"
   xml:space="preserve"
   xmlns:inkscape="http://www.inkscape.org/namespaces/inkscape"
   xmlns:sodipodi="http://sodipodi.sourceforge.net/DTD/sodipodi-0.dtd"
   xmlns="http://www.w3.org/2000/svg"
   xmlns:svg="http://www.w3.org/2000/svg"><sodipodi:namedview
     id="namedview38"
     pagecolor="#bfbfbf"
     bordercolor="#666666"
     borderopacity="1.0"
     inkscape:showpageshadow="2"
     inkscape:pageopacity="0"
     inkscape:pagecheckerboard="0"
     inkscape:deskcolor="#d1d1d1"
     showgrid="false"
     inkscape:zoom="8"
     inkscape:cx="38.5625"
     inkscape:cy="45.75"
     inkscape:window-width="1920"
     inkscape:window-height="1052"
     inkscape:window-x="0"
     inkscape:window-y="28"
     inkscape:window-maximized="1"
     inkscape:current-layer="svg36" /><path
     id="shadow"
     style="opacity:0.1;fill:black;fill-opacity:1;stroke-width:0.100567;filter:url(#blur)"
     d="M 6.652344,7.9981976 C 4.081354,7.9691037 2,10.063413 2,12.652494 V 29.396635 50.810697 51.3439 c 0,2.400026 1.829189,4.391375 4.152344,4.63086 0.154877,0.01781 0.31182,0.02734 0.470703,0.02734 h 50.755859 c 0.158883,0 0.315826,-0.0095 0.470703,-0.02734 C 60.172764,55.735275 62,53.743926 62,51.3439 V 50.810697 20.304838 16.191557 c 0,-2.855101 -2.078968,-5.189454 -4.621094,-5.189454 H 39.121094 c -1.068824,0 -2.136455,0.420561 -2.945313,1.199219 l -3.298828,3.082031 c -0.705147,-0.296614 -1.343522,-0.761421 -1.84375,-1.378906 L 27.796875,9.8595257 C 26.930291,8.7831596 25.630755,8.144469 24.244141,8.1153851 Z"
     transform="matrix(0.94622736,0,0,0.94622736,1.7207244,1.7207237)" /><path
     d="m 3.6131793,13.69362 v 36.610374 c 0,2.422371 1.9680807,4.404249 4.3735127,4.404249 h 48.026613 c 2.405432,0 4.373512,-1.981878 4.373512,-4.404249 V 20.933135 c 0,-2.42237 -1.96808,-4.404249 -4.373512,-4.404249 h -21.51224 c -1.312054,0 -2.569391,-0.605593 -3.416783,-1.65162 L 28.022823,11.051071 C 27.202837,10.032583 25.972715,9.4269997 24.660662,9.3994797 L 8.0140027,9.2893711 C 5.58126,9.2618415 3.6131793,11.243758 3.6131793,13.69362 Z"
     fill="#444444"
     id="back"
     style="stroke-width:0.0951591" /><path
     d="m 3.6131793,29.537327 v 20.261658 c 0,2.701567 1.9680807,4.911923 4.3735127,4.911923 h 48.026613 c 2.405432,0 4.373512,-2.210356 4.373512,-4.911923 V 17.04265 c 0,-2.701577 -1.96808,-4.911942 -4.373512,-4.911942 H 38.737929 c -1.011351,0 -2.022797,0.399097 -2.788162,1.135886 L 24.879337,23.61234 c -0.792675,0.736817 -1.804026,1.135914 -2.842783,1.135914 L 8.0140027,24.594667 c -2.4327427,0 -4.4008234,2.210451 -4.4008234,4.94266 z"
     fill="#888888"
     fill-opacity="0.31"
     id="front"
     style="stroke-width:0.0951591" /><defs
     id="defs"><filter
       inkscape:collect="always"
       style="color-interpolation-filters:sRGB"
       id="blur"
       x="-0.01080042"
       y="-0.013499343"
       width="1.0216008"
       height="1.0269987"><feGaussianBlur
         inkscape:collect="always"
         stdDeviation="0.2700105"
         id="feGaussianBlur925" /></filter><filter
       inkscape:collect="always"
       style="color-interpolation-filters:sRGB"
       id="filter2869"
       x="-0.012409122"
       y="-0.011616995"
       width="1.0248182"
       height="1.023234"><feGaussianBlur
         inkscape:collect="always"
         stdDeviation="2.31275"
         id="feGaussianBlur2871" /></filter></defs><g
     id="g2291"
     style="fill:#7d5517;fill-opacity:1"
     transform="matrix(0.05326714,0,0,0.05326714,-60.187664,41.688238)">
</g><g
     id="g2293"
     style="fill:#7d5517;fill-opacity:1"
     transform="matrix(0.05326714,0,0,0.05326714,-60.187664,41.688238)">
</g><g
     id="g2295"
     style="fill:#7d5517;fill-opacity:1"
     transform="matrix(0.05326714,0,0,0.05326714,-60.187664,41.688238)">
</g><g
     id="g2297"
     style="fill:#7d5517;fill-opacity:1"
     transform="matrix(0.05326714,0,0,0.05326714,-60.187664,41.688238)">
</g><g
     id="g2299"
     style="fill:#7d5517;fill-opacity:1"
     transform="matrix(0.05326714,0,0,0.05326714,-60.187664,41.688238)">
</g><g
     id="g2301"
     style="fill:#7d5517;fill-opacity:1"
     transform="matrix(0.05326714,0,0,0.05326714,-60.187664,41.688238)">
</g><g
     id="g2303"
     style="fill:#7d5517;fill-opacity:1"
     transform="matrix(0.05326714,0,0,0.05326714,-60.187664,41.688238)">
</g><g
     id="g2305"
     style="fill:#7d5517;fill-opacity:1"
     transform="matrix(0.05326714,0,0,0.05326714,-60.187664,41.688238)">
</g><g
     id="g2307"
     style="fill:#7d5517;fill-opacity:1"
     transform="matrix(0.05326714,0,0,0.05326714,-60.187664,41.688238)">
</g><g
     id="g2309"
     style="fill:#7d5517;fill-opacity:1"
     transform="matrix(0.05326714,0,0,0.05326714,-60.187664,41.688238)">
</g><g
     id="g2311"
     style="fill:#7d5517;fill-opacity:1"
     transform="matrix(0.05326714,0,0,0.05326714,-60.187664,41.688238)">
</g><g
     id="g2313"
     style="fill:#7d5517;fill-opacity:1"
     transform="matrix(0.05326714,0,0,0.05326714,-60.187664,41.688238)">
</g><g
     id="g2315"
     style="fill:#7d5517;fill-opacity:1"
     transform="matrix(0.05326714,0,0,0.05326714,-60.187664,41.688238)">
</g><g
     id="g2317"
     style="fill:#7d5517;fill-opacity:1"
     transform="matrix(0.05326714,0,0,0.05326714,-60.187664,41.688238)">
</g><g
     id="g2319"
     style="fill:#7d5517;fill-opacity:1"
     transform="matrix(0.05326714,0,0,0.05326714,-60.187664,41.688238)">
</g><g
     id="g2909"
     transform="matrix(0.97729351,0,0,0.97729351,80.788215,5.6591182)"><g
       id="g2867"
       transform="matrix(0.04185852,0,0,0.04185852,-59.921763,24.115525)"
       style="opacity:0.2;fill:black;fill-opacity:1;filter:url(#filter2869)"><g
         id="g2835"
         style="fill:black;fill-opacity:1">
	<path
   id="path2833"
   d="m 367.75,288.5 c -25,0 -47.8,9.7 -64.7,25.5 l -65.2,-39.4 c 3.7,-11.2 5.7,-23.1 5.7,-35.6 0,-12.4 -2,-24.4 -5.7,-35.6 l 65.3,-39.5 c 16.9,15.8 39.7,25.5 64.7,25.5 52.3,0 94.7,-42.4 94.7,-94.7 0,-52.3 -42.4,-94.7 -94.7,-94.7 -52.3,0 -94.7,42.4 -94.7,94.7 0,8.7 1.2,17.2 3.4,25.2 l -65.3,39.5 c -20.7,-21.3 -49.8,-34.6 -81.9,-34.6 -63,0 -114.1,51.1 -114.1,114.1 0,63 51.1,114.1 114.1,114.1 32.1,0 61.1,-13.3 81.9,-34.6 l 65.3,39.5 c -2.2,8 -3.4,16.5 -3.4,25.2 0,52.3 42.4,94.7 94.7,94.7 52.3,0 94.7,-42.4 94.7,-94.7 0,-52.3 -42.5,-94.6 -94.8,-94.6 z M 92.15,239 c 0,9.4 -7.6,17 -17,17 -9.4,0 -17,-7.6 -17,-17 0,-39.3 32,-71.3 71.3,-71.3 9.4,0 17,7.6 17,17 0,9.4 -7.6,17 -17,17 -20.6,0.1 -37.3,16.8 -37.3,37.3 z"
   style="fill:black;fill-opacity:1" />
</g><g
         id="g2837"
         style="fill:black;fill-opacity:1">
</g><g
         id="g2839"
         style="fill:black;fill-opacity:1">
</g><g
         id="g2841"
         style="fill:black;fill-opacity:1">
</g><g
         id="g2843"
         style="fill:black;fill-opacity:1">
</g><g
         id="g2845"
         style="fill:black;fill-opacity:1">
</g><g
         id="g2847"
         style="fill:black;fill-opacity:1">
</g><g
         id="g2849"
         style="fill:black;fill-opacity:1">
</g><g
         id="g2851"
         style="fill:black;fill-opacity:1">
</g><g
         id="g2853"
         style="fill:black;fill-opacity:1">
</g><g
         id="g2855"
         style="fill:black;fill-opacity:1">
</g><g
         id="g2857"
         style="fill:black;fill-opacity:1">
</g><g
         id="g2859"
         style="fill:black;fill-opacity:1">
</g><g
         id="g2861"
         style="fill:black;fill-opacity:1">
</g><g
         id="g2863"
         style="fill:black;fill-opacity:1">
</g><g
         id="g2865"
         style="fill:black;fill-opacity:1">
</g></g><g
       id="g2762"
       transform="matrix(0.04185852,0,0,0.04185852,-59.921763,24.115525)"
       style="fill:#444444;fill-opacity:1"><g
         id="g2708"
         style="fill:#444444;fill-opacity:1">
	<path
   id="XMLID_2074_"
   d="m 367.75,288.5 c -25,0 -47.8,9.7 -64.7,25.5 l -65.2,-39.4 c 3.7,-11.2 5.7,-23.1 5.7,-35.6 0,-12.4 -2,-24.4 -5.7,-35.6 l 65.3,-39.5 c 16.9,15.8 39.7,25.5 64.7,25.5 52.3,0 94.7,-42.4 94.7,-94.7 0,-52.3 -42.4,-94.7 -94.7,-94.7 -52.3,0 -94.7,42.4 -94.7,94.7 0,8.7 1.2,17.2 3.4,25.2 l -65.3,39.5 c -20.7,-21.3 -49.8,-34.6 -81.9,-34.6 -63,0 -114.1,51.1 -114.1,114.1 0,63 51.1,114.1 114.1,114.1 32.1,0 61.1,-13.3 81.9,-34.6 l 65.3,39.5 c -2.2,8 -3.4,16.5 -3.4,25.2 0,52.3 42.4,94.7 94.7,94.7 52.3,0 94.7,-42.4 94.7,-94.7 0,-52.3 -42.5,-94.6 -94.8,-94.6 z M 92.15,239 c 0,9.4 -7.6,17 -17,17 -9.4,0 -17,-7.6 -17,-17 0,-39.3 32,-71.3 71.3,-71.3 9.4,0 17,7.6 17,17 0,9.4 -7.6,17 -17,17 -20.6,0.1 -37.3,16.8 -37.3,37.3 z"
   style="fill:#444444;fill-opacity:1" />
</g><g
         id="g2710"
         style="fill:#444444;fill-opacity:1">
</g><g
         id="g2712"
         style="fill:#444444;fill-opacity:1">
</g><g
         id="g2714"
         style="fill:#444444;fill-opacity:1">
</g><g
         id="g2716"
         style="fill:#444444;fill-opacity:1">
</g><g
         id="g2718"
         style="fill:#444444;fill-opacity:1">
</g><g
         id="g2720"
         style="fill:#444444;fill-opacity:1">
</g><g
         id="g2722"
         style="fill:#444444;fill-opacity:1">
</g><g
         id="g2724"
         style="fill:#444444;fill-opacity:1">
</g><g
         id="g2726"
         style="fill:#444444;fill-opacity:1">
</g><g
         id="g2728"
         style="fill:#444444;fill-opacity:1">
</g><g
         id="g2730"
         style="fill:#444444;fill-opacity:1">
</g><g
         id="g2732"
         style="fill:#444444;fill-opacity:1">
</g><g
         id="g2734"
         style="fill:#444444;fill-opacity:1">
</g><g
         id="g2736"
         style="fill:#444444;fill-opacity:1">
</g><g
         id="g2738"
         style="fill:#444444;fill-opacity:1">
</g></g></g></svg>
