<?xml version="1.0" encoding="UTF-8" standalone="no"?>
<svg
   fill="none"
   viewBox="0 0 64 64"
   version="1.1"
   id="svg36"
   sodipodi:docname="folder-download.svg"
   inkscape:version="1.2.1 (9c6d41e410, 2022-07-14)"
   width="64"
   height="64"
   xml:space="preserve"
   xmlns:inkscape="http://www.inkscape.org/namespaces/inkscape"
   xmlns:sodipodi="http://sodipodi.sourceforge.net/DTD/sodipodi-0.dtd"
   xmlns="http://www.w3.org/2000/svg"
   xmlns:svg="http://www.w3.org/2000/svg"><sodipodi:namedview
     id="namedview38"
     pagecolor="#bfbfbf"
     bordercolor="#666666"
     borderopacity="1.0"
     inkscape:showpageshadow="2"
     inkscape:pageopacity="0"
     inkscape:pagecheckerboard="0"
     inkscape:deskcolor="#d1d1d1"
     showgrid="false"
     inkscape:zoom="4"
     inkscape:cx="-22.125"
     inkscape:cy="46.75"
     inkscape:window-width="1920"
     inkscape:window-height="1052"
     inkscape:window-x="0"
     inkscape:window-y="28"
     inkscape:window-maximized="1"
     inkscape:current-layer="svg36" /><path
     id="shadow"
     style="opacity:0.1;fill:black;fill-opacity:1;stroke-width:0.100567;filter:url(#blur)"
     d="M 6.652344,7.9981976 C 4.081354,7.9691037 2,10.063413 2,12.652494 V 29.396635 50.810697 51.3439 c 0,2.400026 1.829189,4.391375 4.152344,4.63086 0.154877,0.01781 0.31182,0.02734 0.470703,0.02734 h 50.755859 c 0.158883,0 0.315826,-0.0095 0.470703,-0.02734 C 60.172764,55.735275 62,53.743926 62,51.3439 V 50.810697 20.304838 16.191557 c 0,-2.855101 -2.078968,-5.189454 -4.621094,-5.189454 H 39.121094 c -1.068824,0 -2.136455,0.420561 -2.945313,1.199219 l -3.298828,3.082031 c -0.705147,-0.296614 -1.343522,-0.761421 -1.84375,-1.378906 L 27.796875,9.8595257 C 26.930291,8.7831596 25.630755,8.144469 24.244141,8.1153851 Z"
     transform="matrix(0.94622736,0,0,0.94622736,1.7207244,1.7207237)" /><path
     d="m 3.6131793,13.69362 v 36.610374 c 0,2.422371 1.9680807,4.404249 4.3735127,4.404249 h 48.026613 c 2.405432,0 4.373512,-1.981878 4.373512,-4.404249 V 20.933135 c 0,-2.42237 -1.96808,-4.404249 -4.373512,-4.404249 h -21.51224 c -1.312054,0 -2.569391,-0.605593 -3.416783,-1.65162 L 28.022823,11.051071 C 27.202837,10.032583 25.972715,9.4269997 24.660662,9.3994797 L 8.0140027,9.2893711 C 5.58126,9.2618415 3.6131793,11.243758 3.6131793,13.69362 Z"
     fill="#444444"
     id="back"
     style="stroke-width:0.0951591" /><path
     d="m 3.6131793,29.537327 v 20.261658 c 0,2.701567 1.9680807,4.911923 4.3735127,4.911923 h 48.026613 c 2.405432,0 4.373512,-2.210356 4.373512,-4.911923 V 17.04265 c 0,-2.701577 -1.96808,-4.911942 -4.373512,-4.911942 H 38.737929 c -1.011351,0 -2.022797,0.399097 -2.788162,1.135886 L 24.879337,23.61234 c -0.792675,0.736817 -1.804026,1.135914 -2.842783,1.135914 L 8.0140027,24.594667 c -2.4327427,0 -4.4008234,2.210451 -4.4008234,4.94266 z"
     fill="#888888"
     fill-opacity="0.31"
     id="front"
     style="stroke-width:0.0951591" /><defs
     id="defs"><filter
       inkscape:collect="always"
       style="color-interpolation-filters:sRGB"
       id="blur"
       x="-0.01080042"
       y="-0.013499343"
       width="1.0216008"
       height="1.0269987"><feGaussianBlur
         inkscape:collect="always"
         stdDeviation="0.2700105"
         id="feGaussianBlur925" /></filter><filter
       inkscape:collect="always"
       style="color-interpolation-filters:sRGB"
       id="filter3638"
       x="-0.012191774"
       y="-0.011814166"
       width="1.0243835"
       height="1.0236283"><feGaussianBlur
         inkscape:collect="always"
         stdDeviation="0.21329"
         id="feGaussianBlur3640" /></filter></defs><g
     id="g3682"
     transform="matrix(0.45092989,0,0,0.45092989,80.573464,15.13935)"><g
       id="g3636"
       transform="translate(-129.38294,31.249822)"
       style="opacity:0.2;fill:black;fill-opacity:1;filter:url(#filter3638)"><g
         id="g3604"
         style="fill:black;fill-opacity:1">
	<g
   id="g3602"
   style="fill:black;fill-opacity:1">
		<path
   d="m 18.689,30.359 c 1.645,1.639 4.305,1.639 5.951,0 L 38.722,16.345 c 0.91,-0.906 1.186,-2.287 0.695,-3.474 -0.491,-1.187 -1.646,-1.976 -2.932,-1.976 H 30.606 V 3.196 C 30.606,1.445 29.17,0 27.419,0 H 15.908 C 14.156,0 12.7,1.444 12.7,3.196 v 7.698 H 6.842 c -1.284,0 -2.441,0.79 -2.931,1.976 -0.49,1.187 -0.216,2.561 0.694,3.466 z"
   id="path3598"
   style="fill:black;fill-opacity:1" />
		<path
   d="m 42.657,37.547 c 0,-1.75 -1.419,-3.171 -3.172,-3.171 H 3.842 c -1.751,0 -3.171,1.419 -3.171,3.171 v 2.611 c 0,1.751 1.42,3.171 3.171,3.171 h 35.645 c 1.751,0 3.171,-1.42 3.171,-3.171 z"
   id="path3600"
   style="fill:black;fill-opacity:1" />
	</g>
</g><g
         id="g3606"
         style="fill:black;fill-opacity:1">
</g><g
         id="g3608"
         style="fill:black;fill-opacity:1">
</g><g
         id="g3610"
         style="fill:black;fill-opacity:1">
</g><g
         id="g3612"
         style="fill:black;fill-opacity:1">
</g><g
         id="g3614"
         style="fill:black;fill-opacity:1">
</g><g
         id="g3616"
         style="fill:black;fill-opacity:1">
</g><g
         id="g3618"
         style="fill:black;fill-opacity:1">
</g><g
         id="g3620"
         style="fill:black;fill-opacity:1">
</g><g
         id="g3622"
         style="fill:black;fill-opacity:1">
</g><g
         id="g3624"
         style="fill:black;fill-opacity:1">
</g><g
         id="g3626"
         style="fill:black;fill-opacity:1">
</g><g
         id="g3628"
         style="fill:black;fill-opacity:1">
</g><g
         id="g3630"
         style="fill:black;fill-opacity:1">
</g><g
         id="g3632"
         style="fill:black;fill-opacity:1">
</g><g
         id="g3634"
         style="fill:black;fill-opacity:1">
</g></g><g
       id="g3458"
       transform="translate(-129.38294,31.249822)"
       style="fill:#444444;fill-opacity:1"><g
         id="g3402"
         style="fill:#444444;fill-opacity:1">
	<g
   id="g3400"
   style="fill:#444444;fill-opacity:1">
		<path
   d="m 18.689,30.359 c 1.645,1.639 4.305,1.639 5.951,0 L 38.722,16.345 c 0.91,-0.906 1.186,-2.287 0.695,-3.474 -0.491,-1.187 -1.646,-1.976 -2.932,-1.976 H 30.606 V 3.196 C 30.606,1.445 29.17,0 27.419,0 H 15.908 C 14.156,0 12.7,1.444 12.7,3.196 v 7.698 H 6.842 c -1.284,0 -2.441,0.79 -2.931,1.976 -0.49,1.187 -0.216,2.561 0.694,3.466 z"
   id="path3396"
   style="fill:#444444;fill-opacity:1" />
		<path
   d="m 42.657,37.547 c 0,-1.75 -1.419,-3.171 -3.172,-3.171 H 3.842 c -1.751,0 -3.171,1.419 -3.171,3.171 v 2.611 c 0,1.751 1.42,3.171 3.171,3.171 h 35.645 c 1.751,0 3.171,-1.42 3.171,-3.171 z"
   id="path3398"
   style="fill:#444444;fill-opacity:1" />
	</g>
</g><g
         id="g3404"
         style="fill:#444444;fill-opacity:1">
</g><g
         id="g3406"
         style="fill:#444444;fill-opacity:1">
</g><g
         id="g3408"
         style="fill:#444444;fill-opacity:1">
</g><g
         id="g3410"
         style="fill:#444444;fill-opacity:1">
</g><g
         id="g3412"
         style="fill:#444444;fill-opacity:1">
</g><g
         id="g3414"
         style="fill:#444444;fill-opacity:1">
</g><g
         id="g3416"
         style="fill:#444444;fill-opacity:1">
</g><g
         id="g3418"
         style="fill:#444444;fill-opacity:1">
</g><g
         id="g3420"
         style="fill:#444444;fill-opacity:1">
</g><g
         id="g3422"
         style="fill:#444444;fill-opacity:1">
</g><g
         id="g3424"
         style="fill:#444444;fill-opacity:1">
</g><g
         id="g3426"
         style="fill:#444444;fill-opacity:1">
</g><g
         id="g3428"
         style="fill:#444444;fill-opacity:1">
</g><g
         id="g3430"
         style="fill:#444444;fill-opacity:1">
</g><g
         id="g3432"
         style="fill:#444444;fill-opacity:1">
</g></g></g></svg>
