<?xml version="1.0" encoding="UTF-8" standalone="no"?>
<svg
   fill="none"
   viewBox="0 0 64 64"
   version="1.1"
   id="svg36"
   sodipodi:docname="folder-bookmark.svg"
   inkscape:version="1.2.1 (9c6d41e410, 2022-07-14)"
   width="64"
   height="64"
   xml:space="preserve"
   xmlns:inkscape="http://www.inkscape.org/namespaces/inkscape"
   xmlns:sodipodi="http://sodipodi.sourceforge.net/DTD/sodipodi-0.dtd"
   xmlns="http://www.w3.org/2000/svg"
   xmlns:svg="http://www.w3.org/2000/svg"><sodipodi:namedview
     id="namedview38"
     pagecolor="#bfbfbf"
     bordercolor="#666666"
     borderopacity="1.0"
     inkscape:showpageshadow="2"
     inkscape:pageopacity="0"
     inkscape:pagecheckerboard="0"
     inkscape:deskcolor="#d1d1d1"
     showgrid="false"
     inkscape:zoom="7.4082023"
     inkscape:cx="39.41577"
     inkscape:cy="33.341422"
     inkscape:window-width="1920"
     inkscape:window-height="1052"
     inkscape:window-x="0"
     inkscape:window-y="28"
     inkscape:window-maximized="1"
     inkscape:current-layer="svg36" /><path
     id="shadow"
     style="opacity:0.1;fill:black;fill-opacity:1;stroke-width:0.100567;filter:url(#blur)"
     d="M 6.652344,7.9981976 C 4.081354,7.9691037 2,10.063413 2,12.652494 V 29.396635 50.810697 51.3439 c 0,2.400026 1.829189,4.391375 4.152344,4.63086 0.154877,0.01781 0.31182,0.02734 0.470703,0.02734 h 50.755859 c 0.158883,0 0.315826,-0.0095 0.470703,-0.02734 C 60.172764,55.735275 62,53.743926 62,51.3439 V 50.810697 20.304838 16.191557 c 0,-2.855101 -2.078968,-5.189454 -4.621094,-5.189454 H 39.121094 c -1.068824,0 -2.136455,0.420561 -2.945313,1.199219 l -3.298828,3.082031 c -0.705147,-0.296614 -1.343522,-0.761421 -1.84375,-1.378906 L 27.796875,9.8595257 C 26.930291,8.7831596 25.630755,8.144469 24.244141,8.1153851 Z"
     transform="matrix(0.94622736,0,0,0.94622736,1.7207244,1.7207237)" /><path
     d="m 3.6131793,13.69362 v 36.610374 c 0,2.422371 1.9680807,4.404249 4.3735127,4.404249 h 48.026613 c 2.405432,0 4.373512,-1.981878 4.373512,-4.404249 V 20.933135 c 0,-2.42237 -1.96808,-4.404249 -4.373512,-4.404249 h -21.51224 c -1.312054,0 -2.569391,-0.605593 -3.416783,-1.65162 L 28.022823,11.051071 C 27.202837,10.032583 25.972715,9.4269997 24.660662,9.3994797 L 8.0140027,9.2893711 C 5.58126,9.2618415 3.6131793,11.243758 3.6131793,13.69362 Z"
     fill="#444444"
     id="back"
     style="stroke-width:0.0951591" /><path
     d="m 3.6131793,29.537327 v 20.261658 c 0,2.701567 1.9680807,4.911923 4.3735127,4.911923 h 48.026613 c 2.405432,0 4.373512,-2.210356 4.373512,-4.911923 V 17.04265 c 0,-2.701577 -1.96808,-4.911942 -4.373512,-4.911942 H 38.737929 c -1.011351,0 -2.022797,0.399097 -2.788162,1.135886 L 24.879337,23.61234 c -0.792675,0.736817 -1.804026,1.135914 -2.842783,1.135914 L 8.0140027,24.594667 c -2.4327427,0 -4.4008234,2.210451 -4.4008234,4.94266 z"
     fill="#888888"
     fill-opacity="0.31"
     id="front"
     style="stroke-width:0.0951591" /><defs
     id="defs"><filter
       inkscape:collect="always"
       style="color-interpolation-filters:sRGB"
       id="blur"
       x="-0.01080042"
       y="-0.013499343"
       width="1.0216008"
       height="1.0269987"><feGaussianBlur
         inkscape:collect="always"
         stdDeviation="0.2700105"
         id="feGaussianBlur925" /></filter><filter
       inkscape:collect="always"
       style="color-interpolation-filters:sRGB"
       id="filter1786"
       x="-0.012212025"
       y="-0.011795213"
       width="1.024424"
       height="1.0235904"><feGaussianBlur
         inkscape:collect="always"
         stdDeviation="0.11795213"
         id="feGaussianBlur1788" /></filter></defs><g
     id="g1792"
     transform="translate(-166.44856,-5.1293993)"><g
       id="g1907"
       transform="matrix(0.81412768,0,0,0.81412768,36.886091,8.8569068)"><path
         d="M 208.44893,31.325504 H 188.4482 a 1.6000586,1.6000586 0 0 0 -1.59006,1.590058 v 20.820762 a 1.5950584,1.5950584 0 0 0 2.43509,1.35005 l 9.15533,-5.705209 9.15534,5.705209 a 1.5950584,1.5950584 0 0 0 2.43509,-1.35005 V 32.915562 a 1.6000586,1.6000586 0 0 0 -1.59006,-1.590058 z m -3.50013,7.745284 -3.73513,2.7551 1.42505,4.405162 a 0.28501043,0.28501043 0 0 1 -0.17501,0.360013 0.27000988,0.27000988 0 0 1 -0.26001,-0.035 l -3.75514,-2.7301 -3.75513,2.7301 a 0.29001062,0.29001062 0 0 1 -0.40002,-0.065 0.30001098,0.30001098 0 0 1 -0.035,-0.260009 l 1.42505,-4.405162 -3.73513,-2.7551 a 0.29001062,0.29001062 0 0 1 0,-0.410015 0.27501007,0.27501007 0 0 1 0.19,-0.09 h 4.62517 l 1.43506,-4.410161 a 0.28001025,0.28001025 0 0 1 0.34501,-0.195007 0.27501007,0.27501007 0 0 1 0.195,0.195007 l 1.44506,4.410161 h 4.62517 a 0.29001062,0.29001062 0 0 1 0.23001,0.340013 0.28501043,0.28501043 0 0 1 -0.09,0.160006 z"
         id="path1784"
         style="opacity:0.2;fill:black;fill-opacity:1;stroke-width:0.500018;filter:url(#filter1786)" /><path
         d="M 208.44893,31.325504 H 188.4482 a 1.6000586,1.6000586 0 0 0 -1.59006,1.590058 v 20.820762 a 1.5950584,1.5950584 0 0 0 2.43509,1.35005 l 9.15533,-5.705209 9.15534,5.705209 a 1.5950584,1.5950584 0 0 0 2.43509,-1.35005 V 32.915562 a 1.6000586,1.6000586 0 0 0 -1.59006,-1.590058 z m -3.50013,7.745284 -3.73513,2.7551 1.42505,4.405162 a 0.28501043,0.28501043 0 0 1 -0.17501,0.360013 0.27000988,0.27000988 0 0 1 -0.26001,-0.035 l -3.75514,-2.7301 -3.75513,2.7301 a 0.29001062,0.29001062 0 0 1 -0.40002,-0.065 0.30001098,0.30001098 0 0 1 -0.035,-0.260009 l 1.42505,-4.405162 -3.73513,-2.7551 a 0.29001062,0.29001062 0 0 1 0,-0.410015 0.27501007,0.27501007 0 0 1 0.19,-0.09 h 4.62517 l 1.43506,-4.410161 a 0.28001025,0.28001025 0 0 1 0.34501,-0.195007 0.27501007,0.27501007 0 0 1 0.195,0.195007 l 1.44506,4.410161 h 4.62517 a 0.29001062,0.29001062 0 0 1 0.23001,0.340013 0.28501043,0.28501043 0 0 1 -0.09,0.160006 z"
         id="path1412"
         style="fill:#444444;fill-opacity:1;stroke-width:0.500018" /></g></g></svg>
