<?xml version="1.0" encoding="UTF-8" standalone="no"?>
<svg
   fill="none"
   viewBox="0 0 64 64"
   version="1.1"
   id="svg36"
   sodipodi:docname="folder-open.svg"
   inkscape:version="1.2.1 (9c6d41e410, 2022-07-14)"
   width="64"
   height="64"
   xmlns:inkscape="http://www.inkscape.org/namespaces/inkscape"
   xmlns:sodipodi="http://sodipodi.sourceforge.net/DTD/sodipodi-0.dtd"
   xmlns="http://www.w3.org/2000/svg"
   xmlns:svg="http://www.w3.org/2000/svg">
  <path
     id="path838"
     style="opacity:0.1;fill:black;fill-opacity:1;stroke-width:0.0951591;filter:url(#filter897)"
     d="M 8.014737,9.2906047 C 5.581997,9.2630748 3.612393,11.245042 3.612393,13.694902 v 36.105469 c -0.635803,1.817532 0.63778,3.533751 2.291016,4.373047 0.014038,0.0077 0.028839,0.01391 0.042969,0.02148 0.079808,0.03962 0.158886,0.07982 0.240234,0.115234 0.397049,0.182372 0.82466,0.308239 1.273438,0.363282 0.027225,0.0037 0.054849,0.0086 0.082031,0.01172 0.149564,0.01718 0.298188,0.02734 0.445312,0.02734 h 48.025391 c 0.143009,0 0.28277,-0.01 0.419922,-0.02539 0.0083,-9.37e-4 0.01709,-9.6e-4 0.02539,-0.002 2.198232,-0.226606 3.929687,-2.109888 3.929687,-4.380859 v -0.503906 l 2.982422,-21.023438 c 0.304885,-2.148521 -1.151523,-4.01095 -2.982422,-4.662109 v -3.181641 c 0,-2.422368 -1.96957,-4.404297 -4.375,-4.404297 H 34.501065 c -1.312052,0 -2.568624,-0.604365 -3.416015,-1.650391 l -3.0625,-3.826171 C 27.202564,10.033837 25.973273,9.4274997 24.661221,9.3999797 Z" />
  <sodipodi:namedview
     id="namedview38"
     pagecolor="#bfbfbf"
     bordercolor="#666666"
     borderopacity="1.0"
     inkscape:showpageshadow="2"
     inkscape:pageopacity="0"
     inkscape:pagecheckerboard="0"
     inkscape:deskcolor="#d1d1d1"
     showgrid="false"
     inkscape:zoom="7.4082023"
     inkscape:cx="2.8346958"
     inkscape:cy="22.677566"
     inkscape:window-width="1920"
     inkscape:window-height="1052"
     inkscape:window-x="0"
     inkscape:window-y="28"
     inkscape:window-maximized="1"
     inkscape:current-layer="svg36" />
  <path
     d="m 3.6131793,13.69362 v 36.610374 c 0,2.422371 1.9680807,4.404249 4.3735127,4.404249 h 48.026613 c 2.405432,0 4.373512,-1.981878 4.373512,-4.404249 V 20.933135 c 0,-2.42237 -1.96808,-4.404249 -4.373512,-4.404249 h -21.51224 c -1.312054,0 -2.569391,-0.605593 -3.416783,-1.65162 L 28.022823,11.051071 C 27.202837,10.032583 25.972715,9.4269997 24.660662,9.3994797 L 8.0140027,9.2893711 C 5.58126,9.2618415 3.6131793,11.243758 3.6131793,13.69362 Z"
     fill="#444444"
     id="back"
     style="stroke-width:0.0951591" />
  <path
     d="M 6.5963737,41.271103 3.6131793,49.798985 C 2.7211322,52.349027 5.58126,54.710908 7.986692,54.710908 h 48.026613 c 2.405432,0 3.99395,-2.237153 4.373512,-4.911923 l 2.983194,-21.022559 c 0.379564,-2.674781 -1.96808,-4.911942 -4.373512,-4.911942 H 41.721123 c -1.011351,0 -2.022797,0.399097 -2.788162,1.135886 l -11.07043,10.345746 c -0.792675,0.736817 -1.804026,1.135914 -2.842783,1.135914 L 10.997197,36.328443 c -2.4327426,0 -3.4986583,2.363694 -4.4008233,4.94266 z"
     fill="#888888"
     fill-opacity="0.31"
     id="front"
     style="stroke-width:0.0951591"
     sodipodi:nodetypes="ssssssssccccs" />
  <defs
     id="defs">
    <filter
       inkscape:collect="always"
       style="color-interpolation-filters:sRGB"
       id="filter897"
       x="-0.010544866"
       y="-0.013921026"
       width="1.0210897"
       height="1.0278421">
      <feGaussianBlur
         inkscape:collect="always"
         stdDeviation="0.26346792"
         id="feGaussianBlur899" />
    </filter>
  </defs>
</svg>
