<?xml version="1.0" encoding="UTF-8" standalone="no"?>
<svg
   fill="none"
   viewBox="0 0 64 64"
   version="1.1"
   id="svg36"
   sodipodi:docname="folder-templates.svg"
   inkscape:version="1.2.1 (9c6d41e410, 2022-07-14)"
   width="64"
   height="64"
   xml:space="preserve"
   xmlns:inkscape="http://www.inkscape.org/namespaces/inkscape"
   xmlns:sodipodi="http://sodipodi.sourceforge.net/DTD/sodipodi-0.dtd"
   xmlns="http://www.w3.org/2000/svg"
   xmlns:svg="http://www.w3.org/2000/svg"><sodipodi:namedview
     id="namedview38"
     pagecolor="#bfbfbf"
     bordercolor="#666666"
     borderopacity="1.0"
     inkscape:showpageshadow="2"
     inkscape:pageopacity="0"
     inkscape:pagecheckerboard="0"
     inkscape:deskcolor="#d1d1d1"
     showgrid="false"
     inkscape:zoom="5.6568542"
     inkscape:cx="-17.235728"
     inkscape:cy="44.901281"
     inkscape:window-width="1920"
     inkscape:window-height="1052"
     inkscape:window-x="0"
     inkscape:window-y="28"
     inkscape:window-maximized="1"
     inkscape:current-layer="svg36" /><path
     id="shadow"
     style="opacity:0.1;fill:black;fill-opacity:1;stroke-width:0.100567;filter:url(#blur)"
     d="M 6.652344,7.9981976 C 4.081354,7.9691037 2,10.063413 2,12.652494 V 29.396635 50.810697 51.3439 c 0,2.400026 1.829189,4.391375 4.152344,4.63086 0.154877,0.01781 0.31182,0.02734 0.470703,0.02734 h 50.755859 c 0.158883,0 0.315826,-0.0095 0.470703,-0.02734 C 60.172764,55.735275 62,53.743926 62,51.3439 V 50.810697 20.304838 16.191557 c 0,-2.855101 -2.078968,-5.189454 -4.621094,-5.189454 H 39.121094 c -1.068824,0 -2.136455,0.420561 -2.945313,1.199219 l -3.298828,3.082031 c -0.705147,-0.296614 -1.343522,-0.761421 -1.84375,-1.378906 L 27.796875,9.8595257 C 26.930291,8.7831596 25.630755,8.144469 24.244141,8.1153851 Z"
     transform="matrix(0.94622736,0,0,0.94622736,1.7207244,1.7207237)" /><path
     d="m 3.6131793,13.69362 v 36.610374 c 0,2.422371 1.9680807,4.404249 4.3735127,4.404249 h 48.026613 c 2.405432,0 4.373512,-1.981878 4.373512,-4.404249 V 20.933135 c 0,-2.42237 -1.96808,-4.404249 -4.373512,-4.404249 h -21.51224 c -1.312054,0 -2.569391,-0.605593 -3.416783,-1.65162 L 28.022823,11.051071 C 27.202837,10.032583 25.972715,9.4269997 24.660662,9.3994797 L 8.0140027,9.2893711 C 5.58126,9.2618415 3.6131793,11.243758 3.6131793,13.69362 Z"
     fill="#444444"
     id="back"
     style="stroke-width:0.0951591" /><path
     d="m 3.6131793,29.537327 v 20.261658 c 0,2.701567 1.9680807,4.911923 4.3735127,4.911923 h 48.026613 c 2.405432,0 4.373512,-2.210356 4.373512,-4.911923 V 17.04265 c 0,-2.701577 -1.96808,-4.911942 -4.373512,-4.911942 H 38.737929 c -1.011351,0 -2.022797,0.399097 -2.788162,1.135886 L 24.879337,23.61234 c -0.792675,0.736817 -1.804026,1.135914 -2.842783,1.135914 L 8.0140027,24.594667 c -2.4327427,0 -4.4008234,2.210451 -4.4008234,4.94266 z"
     fill="#888888"
     fill-opacity="0.31"
     id="front"
     style="stroke-width:0.0951591" /><defs
     id="defs"><filter
       inkscape:collect="always"
       style="color-interpolation-filters:sRGB"
       id="blur"
       x="-0.01080042"
       y="-0.013499343"
       width="1.0216008"
       height="1.0269987"><feGaussianBlur
         inkscape:collect="always"
         stdDeviation="0.2700105"
         id="feGaussianBlur925" /></filter><filter
       inkscape:collect="always"
       style="color-interpolation-filters:sRGB"
       id="filter4861"
       x="-0.012004048"
       y="-0.011995954"
       width="1.0240081"
       height="1.0239919"><feGaussianBlur
         inkscape:collect="always"
         stdDeviation="0.15851425"
         id="feGaussianBlur4863" /></filter></defs><g
     id="g2291"
     style="fill:#7d5517;fill-opacity:1"
     transform="matrix(0.05326714,0,0,0.05326714,-60.187664,41.688238)">
</g><g
     id="g2293"
     style="fill:#7d5517;fill-opacity:1"
     transform="matrix(0.05326714,0,0,0.05326714,-60.187664,41.688238)">
</g><g
     id="g2295"
     style="fill:#7d5517;fill-opacity:1"
     transform="matrix(0.05326714,0,0,0.05326714,-60.187664,41.688238)">
</g><g
     id="g2297"
     style="fill:#7d5517;fill-opacity:1"
     transform="matrix(0.05326714,0,0,0.05326714,-60.187664,41.688238)">
</g><g
     id="g2299"
     style="fill:#7d5517;fill-opacity:1"
     transform="matrix(0.05326714,0,0,0.05326714,-60.187664,41.688238)">
</g><g
     id="g2301"
     style="fill:#7d5517;fill-opacity:1"
     transform="matrix(0.05326714,0,0,0.05326714,-60.187664,41.688238)">
</g><g
     id="g2303"
     style="fill:#7d5517;fill-opacity:1"
     transform="matrix(0.05326714,0,0,0.05326714,-60.187664,41.688238)">
</g><g
     id="g2305"
     style="fill:#7d5517;fill-opacity:1"
     transform="matrix(0.05326714,0,0,0.05326714,-60.187664,41.688238)">
</g><g
     id="g2307"
     style="fill:#7d5517;fill-opacity:1"
     transform="matrix(0.05326714,0,0,0.05326714,-60.187664,41.688238)">
</g><g
     id="g2309"
     style="fill:#7d5517;fill-opacity:1"
     transform="matrix(0.05326714,0,0,0.05326714,-60.187664,41.688238)">
</g><g
     id="g2311"
     style="fill:#7d5517;fill-opacity:1"
     transform="matrix(0.05326714,0,0,0.05326714,-60.187664,41.688238)">
</g><g
     id="g2313"
     style="fill:#7d5517;fill-opacity:1"
     transform="matrix(0.05326714,0,0,0.05326714,-60.187664,41.688238)">
</g><g
     id="g2315"
     style="fill:#7d5517;fill-opacity:1"
     transform="matrix(0.05326714,0,0,0.05326714,-60.187664,41.688238)">
</g><g
     id="g2317"
     style="fill:#7d5517;fill-opacity:1"
     transform="matrix(0.05326714,0,0,0.05326714,-60.187664,41.688238)">
</g><g
     id="g2319"
     style="fill:#7d5517;fill-opacity:1"
     transform="matrix(0.05326714,0,0,0.05326714,-60.187664,41.688238)">
</g><g
     id="g4901"
     transform="matrix(0.61586952,0,0,0.61586952,77.617107,18.749923)"><g
       id="g4859"
       transform="translate(-89.925869,17.023515)"
       style="opacity:0.2;fill:black;fill-opacity:1;filter:url(#filter4861)"><g
         id="g4827"
         style="fill:black;fill-opacity:1">
	<path
   d="m 31.414,9.898 -6.517,6.284 -1.337,-1.417 4.932,-4.756 c 0.477,-0.46 0.49,-1.219 0.03,-1.696 L 24.119,3.747 C 23.896,3.517 23.596,3.386 23.276,3.381 22.959,3.374 22.652,3.495 22.422,3.716 l -3.887,3.747 3.375,3.495 c 0.276,0.289 0.254,0.765 -0.035,1.046 -0.203,0.194 -0.5,0.255 -0.752,0.173 L 16.227,6.986 22.633,0.803 c 0.389,-0.371 1.013,-0.35 1.386,0.037 l 7.405,7.676 c 0.373,0.386 0.373,1.009 -0.01,1.382 z M 9.29,28.528 C 9.063,28.749 8.755,28.87 8.438,28.862 8.119,28.856 7.816,28.725 7.594,28.498 L 3.191,23.93 C 2.732,23.453 2.744,22.701 3.221,22.237 l 2.025,2.104 c 0.279,0.289 0.737,0.297 1.026,0.021 0.289,-0.276 0.295,-0.733 0.015,-1.023 l -2.022,-2.107 0.539,-0.521 2.025,2.104 c 0.277,0.287 0.735,0.297 1.026,0.021 C 8.143,22.555 8.15,22.1 7.87,21.809 l -2.024,-2.101 0.54,-0.521 2.023,2.102 c 0.279,0.287 0.739,0.297 1.026,0.021 0.291,-0.278 0.296,-0.734 0.018,-1.025 l -2.025,-2.102 0.539,-0.521 2.025,2.1 c 0.278,0.291 0.736,0.3 1.026,0.021 0.107,-0.104 0.177,-0.234 0.205,-0.368 L 7.474,15.435 0.3,22.348 c -0.384,0.373 -0.384,0.998 -0.013,1.383 l 7.405,7.681 c 0.372,0.386 0.998,0.407 1.382,0.032 l 7.067,-6.812 -1.336,-1.417 z M 22.229,9.655 C 21.295,8.69 21.323,7.144 22.291,6.213 23.254,5.28 24.799,5.308 25.73,6.274 c 0.934,0.967 0.901,2.513 -0.062,3.442 -0.961,0.933 -2.506,0.905 -3.439,-0.061 z M 23.274,8.647 C 23.65,9.033 24.27,9.044 24.662,8.67 25.049,8.295 25.06,7.673 24.684,7.285 24.309,6.897 23.687,6.884 23.299,7.259 22.911,7.634 22.899,8.256 23.274,8.647 Z M 27.207,21.116 20.834,27.121 6.631,12.051 13.006,6.046 Z M 14.075,10.248 C 14.078,10.104 14.026,9.962 13.924,9.856 L 13.23,9.122 C 13.024,8.903 12.677,8.892 12.456,9.099 L 12.08,9.452 c -0.221,0.206 -0.23,0.556 -0.024,0.774 l 0.69,0.739 c 0.103,0.106 0.239,0.17 0.386,0.171 0.145,0.006 0.769,-0.503 0.769,-0.503 0.106,-0.101 0.168,-0.239 0.174,-0.385 z m 9.866,11.039 c 0.223,-0.208 0.231,-0.556 0.022,-0.776 l -7.979,-8.465 c -0.1,-0.108 -0.236,-0.17 -0.384,-0.173 -0.143,-0.005 -0.286,0.05 -0.391,0.148 l -0.377,0.356 c -0.221,0.207 -0.231,0.553 -0.023,0.774 l 7.978,8.466 c 0.104,0.106 0.238,0.17 0.387,0.174 0.146,0.005 0.287,-0.05 0.394,-0.15 z M 5.986,11.364 12.359,5.357 10.713,3.611 4.341,9.619 Z M 1.5,6.601 C 1.153,6.233 0.969,5.748 0.983,5.244 0.999,4.741 1.212,4.267 1.579,3.922 L 5.191,0.519 c 0.76,-0.722 1.96,-0.685 2.679,0.077 L 10.109,2.971 3.736,8.976 Z M 2.637,5.294 3.807,6.538 7.67,2.898 6.497,1.656 Z m 27.803,24.4 c 0.109,0.346 0.01,0.723 -0.252,0.971 -0.264,0.249 -0.646,0.322 -0.983,0.193 l -7.564,-2.886 6.366,-6.007 z m -2.021,-2.594 -0.957,-3.039 -3.701,3.491 2.978,1.136 z"
   id="path4825"
   style="fill:black;fill-opacity:1" />
</g><g
         id="g4829"
         style="fill:black;fill-opacity:1">
</g><g
         id="g4831"
         style="fill:black;fill-opacity:1">
</g><g
         id="g4833"
         style="fill:black;fill-opacity:1">
</g><g
         id="g4835"
         style="fill:black;fill-opacity:1">
</g><g
         id="g4837"
         style="fill:black;fill-opacity:1">
</g><g
         id="g4839"
         style="fill:black;fill-opacity:1">
</g><g
         id="g4841"
         style="fill:black;fill-opacity:1">
</g><g
         id="g4843"
         style="fill:black;fill-opacity:1">
</g><g
         id="g4845"
         style="fill:black;fill-opacity:1">
</g><g
         id="g4847"
         style="fill:black;fill-opacity:1">
</g><g
         id="g4849"
         style="fill:black;fill-opacity:1">
</g><g
         id="g4851"
         style="fill:black;fill-opacity:1">
</g><g
         id="g4853"
         style="fill:black;fill-opacity:1">
</g><g
         id="g4855"
         style="fill:black;fill-opacity:1">
</g><g
         id="g4857"
         style="fill:black;fill-opacity:1">
</g></g><g
       id="g4685"
       transform="translate(-89.925869,17.023515)"
       style="fill:#444444;fill-opacity:1"><g
         id="g4631"
         style="fill:#444444;fill-opacity:1">
	<path
   d="m 31.414,9.898 -6.517,6.284 -1.337,-1.417 4.932,-4.756 c 0.477,-0.46 0.49,-1.219 0.03,-1.696 L 24.119,3.747 C 23.896,3.517 23.596,3.386 23.276,3.381 22.959,3.374 22.652,3.495 22.422,3.716 l -3.887,3.747 3.375,3.495 c 0.276,0.289 0.254,0.765 -0.035,1.046 -0.203,0.194 -0.5,0.255 -0.752,0.173 L 16.227,6.986 22.633,0.803 c 0.389,-0.371 1.013,-0.35 1.386,0.037 l 7.405,7.676 c 0.373,0.386 0.373,1.009 -0.01,1.382 z M 9.29,28.528 C 9.063,28.749 8.755,28.87 8.438,28.862 8.119,28.856 7.816,28.725 7.594,28.498 L 3.191,23.93 C 2.732,23.453 2.744,22.701 3.221,22.237 l 2.025,2.104 c 0.279,0.289 0.737,0.297 1.026,0.021 0.289,-0.276 0.295,-0.733 0.015,-1.023 l -2.022,-2.107 0.539,-0.521 2.025,2.104 c 0.277,0.287 0.735,0.297 1.026,0.021 C 8.143,22.555 8.15,22.1 7.87,21.809 l -2.024,-2.101 0.54,-0.521 2.023,2.102 c 0.279,0.287 0.739,0.297 1.026,0.021 0.291,-0.278 0.296,-0.734 0.018,-1.025 l -2.025,-2.102 0.539,-0.521 2.025,2.1 c 0.278,0.291 0.736,0.3 1.026,0.021 0.107,-0.104 0.177,-0.234 0.205,-0.368 L 7.474,15.435 0.3,22.348 c -0.384,0.373 -0.384,0.998 -0.013,1.383 l 7.405,7.681 c 0.372,0.386 0.998,0.407 1.382,0.032 l 7.067,-6.812 -1.336,-1.417 z M 22.229,9.655 C 21.295,8.69 21.323,7.144 22.291,6.213 23.254,5.28 24.799,5.308 25.73,6.274 c 0.934,0.967 0.901,2.513 -0.062,3.442 -0.961,0.933 -2.506,0.905 -3.439,-0.061 z M 23.274,8.647 C 23.65,9.033 24.27,9.044 24.662,8.67 25.049,8.295 25.06,7.673 24.684,7.285 24.309,6.897 23.687,6.884 23.299,7.259 22.911,7.634 22.899,8.256 23.274,8.647 Z M 27.207,21.116 20.834,27.121 6.631,12.051 13.006,6.046 Z M 14.075,10.248 C 14.078,10.104 14.026,9.962 13.924,9.856 L 13.23,9.122 C 13.024,8.903 12.677,8.892 12.456,9.099 L 12.08,9.452 c -0.221,0.206 -0.23,0.556 -0.024,0.774 l 0.69,0.739 c 0.103,0.106 0.239,0.17 0.386,0.171 0.145,0.006 0.769,-0.503 0.769,-0.503 0.106,-0.101 0.168,-0.239 0.174,-0.385 z m 9.866,11.039 c 0.223,-0.208 0.231,-0.556 0.022,-0.776 l -7.979,-8.465 c -0.1,-0.108 -0.236,-0.17 -0.384,-0.173 -0.143,-0.005 -0.286,0.05 -0.391,0.148 l -0.377,0.356 c -0.221,0.207 -0.231,0.553 -0.023,0.774 l 7.978,8.466 c 0.104,0.106 0.238,0.17 0.387,0.174 0.146,0.005 0.287,-0.05 0.394,-0.15 z M 5.986,11.364 12.359,5.357 10.713,3.611 4.341,9.619 Z M 1.5,6.601 C 1.153,6.233 0.969,5.748 0.983,5.244 0.999,4.741 1.212,4.267 1.579,3.922 L 5.191,0.519 c 0.76,-0.722 1.96,-0.685 2.679,0.077 L 10.109,2.971 3.736,8.976 Z M 2.637,5.294 3.807,6.538 7.67,2.898 6.497,1.656 Z m 27.803,24.4 c 0.109,0.346 0.01,0.723 -0.252,0.971 -0.264,0.249 -0.646,0.322 -0.983,0.193 l -7.564,-2.886 6.366,-6.007 z m -2.021,-2.594 -0.957,-3.039 -3.701,3.491 2.978,1.136 z"
   id="path4629"
   style="fill:#444444;fill-opacity:1" />
</g><g
         id="g4633"
         style="fill:#444444;fill-opacity:1">
</g><g
         id="g4635"
         style="fill:#444444;fill-opacity:1">
</g><g
         id="g4637"
         style="fill:#444444;fill-opacity:1">
</g><g
         id="g4639"
         style="fill:#444444;fill-opacity:1">
</g><g
         id="g4641"
         style="fill:#444444;fill-opacity:1">
</g><g
         id="g4643"
         style="fill:#444444;fill-opacity:1">
</g><g
         id="g4645"
         style="fill:#444444;fill-opacity:1">
</g><g
         id="g4647"
         style="fill:#444444;fill-opacity:1">
</g><g
         id="g4649"
         style="fill:#444444;fill-opacity:1">
</g><g
         id="g4651"
         style="fill:#444444;fill-opacity:1">
</g><g
         id="g4653"
         style="fill:#444444;fill-opacity:1">
</g><g
         id="g4655"
         style="fill:#444444;fill-opacity:1">
</g><g
         id="g4657"
         style="fill:#444444;fill-opacity:1">
</g><g
         id="g4659"
         style="fill:#444444;fill-opacity:1">
</g><g
         id="g4661"
         style="fill:#444444;fill-opacity:1">
</g></g></g></svg>
