<?xml version="1.0" encoding="UTF-8" standalone="no"?>
<svg
   fill="none"
   viewBox="0 0 64 64"
   version="1.1"
   id="svg36"
   sodipodi:docname="user-home.svg"
   inkscape:version="1.2.1 (9c6d41e410, 2022-07-14)"
   width="64"
   height="64"
   xml:space="preserve"
   xmlns:inkscape="http://www.inkscape.org/namespaces/inkscape"
   xmlns:sodipodi="http://sodipodi.sourceforge.net/DTD/sodipodi-0.dtd"
   xmlns="http://www.w3.org/2000/svg"
   xmlns:svg="http://www.w3.org/2000/svg"><sodipodi:namedview
     id="namedview38"
     pagecolor="#bfbfbf"
     bordercolor="#666666"
     borderopacity="1.0"
     inkscape:showpageshadow="2"
     inkscape:pageopacity="0"
     inkscape:pagecheckerboard="0"
     inkscape:deskcolor="#d1d1d1"
     showgrid="false"
     inkscape:zoom="5.6568542"
     inkscape:cx="8.5736697"
     inkscape:cy="46.669048"
     inkscape:window-width="1920"
     inkscape:window-height="1052"
     inkscape:window-x="0"
     inkscape:window-y="28"
     inkscape:window-maximized="1"
     inkscape:current-layer="svg36" /><path
     id="shadow"
     style="opacity:0.1;fill:black;fill-opacity:1;stroke-width:0.100567;filter:url(#blur)"
     d="M 6.652344,7.9981976 C 4.081354,7.9691037 2,10.063413 2,12.652494 V 29.396635 50.810697 51.3439 c 0,2.400026 1.829189,4.391375 4.152344,4.63086 0.154877,0.01781 0.31182,0.02734 0.470703,0.02734 h 50.755859 c 0.158883,0 0.315826,-0.0095 0.470703,-0.02734 C 60.172764,55.735275 62,53.743926 62,51.3439 V 50.810697 20.304838 16.191557 c 0,-2.855101 -2.078968,-5.189454 -4.621094,-5.189454 H 39.121094 c -1.068824,0 -2.136455,0.420561 -2.945313,1.199219 l -3.298828,3.082031 c -0.705147,-0.296614 -1.343522,-0.761421 -1.84375,-1.378906 L 27.796875,9.8595257 C 26.930291,8.7831596 25.630755,8.144469 24.244141,8.1153851 Z"
     transform="matrix(0.94622736,0,0,0.94622736,1.7207244,1.7207237)" /><path
     d="m 3.6131793,13.69362 v 36.610374 c 0,2.422371 1.9680807,4.404249 4.3735127,4.404249 h 48.026613 c 2.405432,0 4.373512,-1.981878 4.373512,-4.404249 V 20.933135 c 0,-2.42237 -1.96808,-4.404249 -4.373512,-4.404249 h -21.51224 c -1.312054,0 -2.569391,-0.605593 -3.416783,-1.65162 L 28.022823,11.051071 C 27.202837,10.032583 25.972715,9.4269997 24.660662,9.3994797 L 8.0140027,9.2893711 C 5.58126,9.2618415 3.6131793,11.243758 3.6131793,13.69362 Z"
     fill="#444444"
     id="back"
     style="stroke-width:0.0951591" /><path
     d="m 3.6131793,29.537327 v 20.261658 c 0,2.701567 1.9680807,4.911923 4.3735127,4.911923 h 48.026613 c 2.405432,0 4.373512,-2.210356 4.373512,-4.911923 V 17.04265 c 0,-2.701577 -1.96808,-4.911942 -4.373512,-4.911942 H 38.737929 c -1.011351,0 -2.022797,0.399097 -2.788162,1.135886 L 24.879337,23.61234 c -0.792675,0.736817 -1.804026,1.135914 -2.842783,1.135914 L 8.0140027,24.594667 c -2.4327427,0 -4.4008234,2.210451 -4.4008234,4.94266 z"
     fill="#888888"
     fill-opacity="0.31"
     id="front"
     style="stroke-width:0.0951591" /><defs
     id="defs"><filter
       inkscape:collect="always"
       style="color-interpolation-filters:sRGB"
       id="blur"
       x="-0.01080042"
       y="-0.013499343"
       width="1.0216008"
       height="1.0269987"><feGaussianBlur
         inkscape:collect="always"
         stdDeviation="0.2700105"
         id="feGaussianBlur925" /></filter><filter
       inkscape:collect="always"
       style="color-interpolation-filters:sRGB"
       id="filter8916"
       x="-0.011181215"
       y="-0.012948177"
       width="1.0223624"
       height="1.0258964"><feGaussianBlur
         inkscape:collect="always"
         stdDeviation="2.58089"
         id="feGaussianBlur8918" /></filter></defs><g
     id="g2291"
     style="fill:#7d5517;fill-opacity:1"
     transform="matrix(0.05326714,0,0,0.05326714,-60.187664,41.688238)">
</g><g
     id="g2293"
     style="fill:#7d5517;fill-opacity:1"
     transform="matrix(0.05326714,0,0,0.05326714,-60.187664,41.688238)">
</g><g
     id="g2295"
     style="fill:#7d5517;fill-opacity:1"
     transform="matrix(0.05326714,0,0,0.05326714,-60.187664,41.688238)">
</g><g
     id="g2297"
     style="fill:#7d5517;fill-opacity:1"
     transform="matrix(0.05326714,0,0,0.05326714,-60.187664,41.688238)">
</g><g
     id="g2299"
     style="fill:#7d5517;fill-opacity:1"
     transform="matrix(0.05326714,0,0,0.05326714,-60.187664,41.688238)">
</g><g
     id="g2301"
     style="fill:#7d5517;fill-opacity:1"
     transform="matrix(0.05326714,0,0,0.05326714,-60.187664,41.688238)">
</g><g
     id="g2303"
     style="fill:#7d5517;fill-opacity:1"
     transform="matrix(0.05326714,0,0,0.05326714,-60.187664,41.688238)">
</g><g
     id="g2305"
     style="fill:#7d5517;fill-opacity:1"
     transform="matrix(0.05326714,0,0,0.05326714,-60.187664,41.688238)">
</g><g
     id="g2307"
     style="fill:#7d5517;fill-opacity:1"
     transform="matrix(0.05326714,0,0,0.05326714,-60.187664,41.688238)">
</g><g
     id="g2309"
     style="fill:#7d5517;fill-opacity:1"
     transform="matrix(0.05326714,0,0,0.05326714,-60.187664,41.688238)">
</g><g
     id="g2311"
     style="fill:#7d5517;fill-opacity:1"
     transform="matrix(0.05326714,0,0,0.05326714,-60.187664,41.688238)">
</g><g
     id="g2313"
     style="fill:#7d5517;fill-opacity:1"
     transform="matrix(0.05326714,0,0,0.05326714,-60.187664,41.688238)">
</g><g
     id="g2315"
     style="fill:#7d5517;fill-opacity:1"
     transform="matrix(0.05326714,0,0,0.05326714,-60.187664,41.688238)">
</g><g
     id="g2317"
     style="fill:#7d5517;fill-opacity:1"
     transform="matrix(0.05326714,0,0,0.05326714,-60.187664,41.688238)">
</g><g
     id="g2319"
     style="fill:#7d5517;fill-opacity:1"
     transform="matrix(0.05326714,0,0,0.05326714,-60.187664,41.688238)">
</g><g
     id="g8962"
     transform="matrix(0.97475716,0,0,0.97475716,75.523229,-0.18475646)"><g
       id="g8914"
       transform="matrix(0.04180786,0,0,0.04180786,-56.230626,28.619209)"
       style="opacity:0.2;fill:black;fill-opacity:1;filter:url(#filter8916)"><g
         id="g8882"
         style="fill:black;fill-opacity:1">
	<g
   id="g8880"
   style="fill:black;fill-opacity:1">
		<polygon
   points="464.667,170.756 464.667,58.2 373.89,58.2 373.89,96.906 "
   id="polygon8874"
   style="fill:black;fill-opacity:1" />
		<polygon
   points="207.627,310.65 346.35,310.65 346.35,516.178 464.667,516.178 464.667,345.84 464.667,307.458 373.89,233.486 276.988,154.522 89.309,307.458 89.309,516.178 207.627,516.178 "
   id="polygon8876"
   style="fill:black;fill-opacity:1" />
		<polygon
   points="373.89,116.628 276.988,37.799 0,263.131 47.681,321.645 89.309,287.722 276.988,134.786 373.89,213.749 464.667,287.722 506.296,321.645 553.977,263.131 464.667,190.478 "
   id="polygon8878"
   style="fill:black;fill-opacity:1" />
	</g>
</g><g
         id="g8884"
         style="fill:black;fill-opacity:1">
</g><g
         id="g8886"
         style="fill:black;fill-opacity:1">
</g><g
         id="g8888"
         style="fill:black;fill-opacity:1">
</g><g
         id="g8890"
         style="fill:black;fill-opacity:1">
</g><g
         id="g8892"
         style="fill:black;fill-opacity:1">
</g><g
         id="g8894"
         style="fill:black;fill-opacity:1">
</g><g
         id="g8896"
         style="fill:black;fill-opacity:1">
</g><g
         id="g8898"
         style="fill:black;fill-opacity:1">
</g><g
         id="g8900"
         style="fill:black;fill-opacity:1">
</g><g
         id="g8902"
         style="fill:black;fill-opacity:1">
</g><g
         id="g8904"
         style="fill:black;fill-opacity:1">
</g><g
         id="g8906"
         style="fill:black;fill-opacity:1">
</g><g
         id="g8908"
         style="fill:black;fill-opacity:1">
</g><g
         id="g8910"
         style="fill:black;fill-opacity:1">
</g><g
         id="g8912"
         style="fill:black;fill-opacity:1">
</g></g><g
       id="g8872"
       transform="matrix(0.04180786,0,0,0.04180786,-56.230626,28.619209)"
       style="fill:#444444;fill-opacity:1"><g
         id="g8815"
         style="fill:#444444;fill-opacity:1">
	<g
   id="g8813"
   style="fill:#444444;fill-opacity:1">
		<polygon
   points="464.667,170.756 464.667,58.2 373.89,58.2 373.89,96.906 "
   id="polygon8807"
   style="fill:#444444;fill-opacity:1" />
		<polygon
   points="207.627,310.65 346.35,310.65 346.35,516.178 464.667,516.178 464.667,345.84 464.667,307.458 373.89,233.486 276.988,154.522 89.309,307.458 89.309,516.178 207.627,516.178 "
   id="polygon8809"
   style="fill:#444444;fill-opacity:1" />
		<polygon
   points="373.89,116.628 276.988,37.799 0,263.131 47.681,321.645 89.309,287.722 276.988,134.786 373.89,213.749 464.667,287.722 506.296,321.645 553.977,263.131 464.667,190.478 "
   id="polygon8811"
   style="fill:#444444;fill-opacity:1" />
	</g>
</g><g
         id="g8817"
         style="fill:#444444;fill-opacity:1">
</g><g
         id="g8819"
         style="fill:#444444;fill-opacity:1">
</g><g
         id="g8821"
         style="fill:#444444;fill-opacity:1">
</g><g
         id="g8823"
         style="fill:#444444;fill-opacity:1">
</g><g
         id="g8825"
         style="fill:#444444;fill-opacity:1">
</g><g
         id="g8827"
         style="fill:#444444;fill-opacity:1">
</g><g
         id="g8829"
         style="fill:#444444;fill-opacity:1">
</g><g
         id="g8831"
         style="fill:#444444;fill-opacity:1">
</g><g
         id="g8833"
         style="fill:#444444;fill-opacity:1">
</g><g
         id="g8835"
         style="fill:#444444;fill-opacity:1">
</g><g
         id="g8837"
         style="fill:#444444;fill-opacity:1">
</g><g
         id="g8839"
         style="fill:#444444;fill-opacity:1">
</g><g
         id="g8841"
         style="fill:#444444;fill-opacity:1">
</g><g
         id="g8843"
         style="fill:#444444;fill-opacity:1">
</g><g
         id="g8845"
         style="fill:#444444;fill-opacity:1">
</g></g></g></svg>
