<svg id="svg5" version="1.1" viewBox="0 0 64 64" xmlns="http://www.w3.org/2000/svg">
  <defs id="defs3">
    <style id="style1" type="text/css"/>
    <style id="style2" type="text/css"/>
    <filter id="filter1057" x="-.026999999" y="-.026999999" width="1.054" height="1.054" color-interpolation-filters="sRGB">
      <feGaussianBlur id="feGaussianBlur2" stdDeviation="0.61875"/>
    </filter>
    <linearGradient id="linearGradient1053" x1="-127" x2="-72" y1="60" y2="5" gradientTransform="translate(131.5 -.51)" gradientUnits="userSpaceOnUse">
      <stop id="stop2" stop-color="#fad21e" offset="0"/>
      <stop id="stop3" stop-color="#faeb1e" stop-opacity=".99608" offset="1"/>
    </linearGradient>
  </defs>
  <rect id="rect3" x="4.5" y="4.5" width="55" height="55" ry="15" fill="#141414" filter="url(#filter1057)" opacity=".3" stroke-linecap="round" stroke-width="2.7444"/>
  <rect id="rect4" x="4.5" y="4.5" width="55" height="55" ry="15" fill="url(#linearGradient1053)" stroke-linecap="round" stroke-width="2.7444"/>
  <circle id="circle4" cx="-1326.3" cy="-1241.6" r="0" fill="#5e4aa6"/>
  <circle id="circle5" cx="-226.72" cy="23.855" r="0" fill="#5e4aa6" fill-rule="evenodd"/>
  <path id="path5" d="m16.648 21.582v5.375h3.5859v16.133h5.375v-21.508h-8.9609zm23.301 0c-5.9414 0-10.754 4.8164-10.754 10.754 0 5.9414 4.8125 10.754 10.754 10.754h19.551v-5.375h-19.555c-2.9688-0.0039-5.375-2.4102-5.375-5.3789s2.4062-5.375 5.375-5.3789c1.5274 0.0039 2.9805 0.65625 4 1.793h6.125c-1.5156-4.2891-5.5703-7.1602-10.121-7.168z" fill="#ee514f"/>
</svg>
