<svg id="svg5" version="1.1" viewBox="0 0 64 64" xmlns="http://www.w3.org/2000/svg">
  <defs id="defs3">
    <style id="style1" type="text/css"/>
    <style id="style2" type="text/css"/>
    <filter id="filter1057" x="-.026999999" y="-.026999999" width="1.054" height="1.054" color-interpolation-filters="sRGB">
      <feGaussianBlur id="feGaussianBlur2" stdDeviation="0.61875"/>
    </filter>
    <linearGradient id="linearGradient1053" x1="-127" x2="-72" y1="60" y2="5" gradientTransform="translate(131.5 -.51)" gradientUnits="userSpaceOnUse">
      <stop id="stop2" stop-color="#e5e5e5" offset="0"/>
      <stop id="stop3" stop-color="#ffffff" stop-opacity=".99607998" offset="1"/>
    </linearGradient>
    <filter id="filter1" x="-.027000001" y="-.027000001" width="1.054" height="1.054" color-interpolation-filters="sRGB">
      <feGaussianBlur id="feGaussianBlur1" stdDeviation="0.4275"/>
    </filter>
  </defs>
  <rect id="rect3" x="4.5" y="4.5" width="55" height="55" ry="15" fill="#141414" filter="url(#filter1057)" opacity=".3" stroke-linecap="round" stroke-width="2.7444"/>
  <rect id="rect4" x="4.5" y="4.5" width="55" height="55" ry="15" fill="url(#linearGradient1053)" stroke-linecap="round" stroke-width="2.7444"/>
  <circle id="circle4" cx="-1326.3" cy="-1241.6" r="0" fill="#5e4aa6"/>
  <g fill-rule="evenodd">
    <circle id="circle5" cx="-226.72" cy="23.855" r="0" fill="#5e4aa6"/>
    <path id="path1" class="st0" d="m32 13c-10.4918 0-19 8.5082-19 19s8.5082 19 19 19 19-8.5082 19-19-8.5082-19-19-19zm-10.1232 5.8748h11.8484c0.4104-0.6536 1.1362-1.0868 1.9646-1.0868 1.2806 0 2.318 1.0374 2.318 2.318s-1.0374 2.318-2.318 2.318c-0.8436 0-1.5808-0.4484-1.9874-1.1248h-13.1024v22.6632c0 0.0228 0 0.0418-0.0038 0.0646 1.1666 1.1058 2.4928 2.0444 3.9368 2.774v-9.8458c0-0.019 0.0038-0.038 0.0038-0.057s0.0038-0.038 0.0076-0.057l0.0228-0.114c0.0038-0.019 0.0114-0.038 0.0152-0.057s0.0114-0.038 0.019-0.057 0.0152-0.038 0.019-0.0532c0.0076-0.019 0.0152-0.038 0.0228-0.0532s0.019-0.0342 0.0266-0.0532 0.019-0.0342 0.0304-0.0494 0.019-0.0342 0.0304-0.0494 0.0228-0.0304 0.0342-0.0494c0.0114-0.0152 0.0228-0.0304 0.0342-0.0456s0.0228-0.0304 0.038-0.0456c0.0114-0.0152 0.0266-0.0304 0.038-0.0418l0.0418-0.0418c0.0152-0.0114 0.0304-0.0266 0.0456-0.038s0.0304-0.0266 0.0456-0.038l0.0456-0.0342c0.0152-0.0114 0.0342-0.0228 0.0494-0.0304 0.0152-0.0114 0.0342-0.019 0.0494-0.0304 0.019-0.0076 0.0342-0.019 0.0532-0.0266s0.0342-0.0152 0.0532-0.0266c0.019-0.0076 0.038-0.0152 0.0532-0.0228 0.019-0.0076 0.038-0.0114 0.057-0.019s0.038-0.0114 0.057-0.0152 0.038-0.0114 0.057-0.0152l0.057-0.0114c0.019-0.0038 0.038-0.0076 0.057-0.0076s0.038-0.0038 0.057-0.0076c0.019 0 0.038-0.0038 0.057-0.0038h4.0964c0.4104-0.6536 1.1362-1.0868 1.9646-1.0868 1.2806 0 2.318 1.0374 2.318 2.318s-1.0374 2.318-2.318 2.318c-0.8436 0-1.5808-0.4484-1.9874-1.121h-2.8348v9.405c0 0.0532-0.0038 0.1064-0.0114 0.1596 1.6036 0.5054 3.3022 0.779 5.0616 0.779 1.577 0 3.1046-0.2204 4.5486-0.6308v-12.559c-0.646-0.4104-1.0754-1.1324-1.0754-1.957 0-1.2806 1.0374-2.318 2.318-2.318s2.318 1.0374 2.318 2.318c0 0.8474-0.456 1.5884-1.1362 1.995v11.6166c1.1134-0.5168 2.1622-1.1552 3.1274-1.9v-11.7534c0-0.019 0.0038-0.038 0.0038-0.057s0.0038-0.038 0.0076-0.057l0.0228-0.114c0.0038-0.019 0.0114-0.038 0.0152-0.057 0.0076-0.019 0.0114-0.038 0.019-0.057s0.0114-0.038 0.019-0.057 0.0152-0.038 0.0228-0.0532 0.019-0.0342 0.0266-0.0532 0.019-0.0342 0.0304-0.0494 0.019-0.0342 0.0304-0.0494 0.0228-0.0342 0.0342-0.0494 0.0228-0.0304 0.0342-0.0456 0.0266-0.0304 0.038-0.0456 0.0266-0.0304 0.0418-0.0418 0.0266-0.0266 0.0418-0.0418c0.0152-0.0114 0.0304-0.0266 0.0456-0.038s0.0304-0.0266 0.0456-0.038 0.0304-0.0228 0.0494-0.0342c0.0152-0.0114 0.0342-0.0228 0.0494-0.0304s0.0342-0.019 0.0494-0.0304 0.0342-0.019 0.0532-0.0266 0.0342-0.0152 0.0532-0.0228 0.038-0.0152 0.0532-0.0228c0.019-0.0076 0.038-0.0152 0.057-0.019 0.019-0.0076 0.038-0.0114 0.057-0.0152s0.038-0.0076 0.057-0.0152l0.057-0.0114c0.019-0.0038 0.038-0.0038 0.057-0.0076s0.038-0.0038 0.057-0.0038 0.038-0.0038 0.057-0.0038h5.282v-0.2318c0-4.1496-1.5238-7.942-4.0432-10.849v5.2174c0 0.019-0.0038 0.038-0.0038 0.0608s-0.0038 0.038-0.0076 0.057l-0.0228 0.114c-0.0038 0.019-0.0114 0.038-0.0152 0.057-0.0076 0.019-0.0114 0.038-0.019 0.057l-0.0228 0.057c-0.0076 0.019-0.0152 0.038-0.0228 0.0532-0.0076 0.019-0.019 0.0342-0.0266 0.0532s-0.019 0.0342-0.0304 0.0532-0.019 0.0342-0.0304 0.0494-0.0228 0.0342-0.0342 0.0494-0.0228 0.0304-0.038 0.0456c-0.0114 0.0152-0.0266 0.0304-0.038 0.0456s-0.0266 0.0304-0.0418 0.0418-0.0304 0.0266-0.0418 0.0418c-0.0152 0.0152-0.0304 0.0266-0.0456 0.038s-0.0304 0.0228-0.0456 0.038c-0.0152 0.0114-0.0304 0.0228-0.0494 0.0342-0.0152 0.0114-0.0342 0.0228-0.0494 0.0304-0.019 0.0114-0.0342 0.019-0.0532 0.0304-0.019 0.0076-0.0342 0.019-0.0532 0.0266s-0.038 0.0152-0.0532 0.0228l-0.057 0.0228c-0.019 0.0076-0.038 0.0114-0.057 0.019s-0.038 0.0114-0.057 0.0152l-0.114 0.0228c-0.019 0.0038-0.038 0.0038-0.0608 0.0076s-0.038 0.0038-0.0608 0.0038h-16.4122v2.4624c0.6764 0.4028 1.1286 1.1438 1.1286 1.9912 0 1.2806-1.0374 2.318-2.318 2.318s-2.318-1.0374-2.318-2.318c0-0.8246 0.4294-1.5504 1.0792-1.9608v-3.762c0-0.019 0.0038-0.038 0.0038-0.057s0.0038-0.038 0.0076-0.057l0.0228-0.114c0.0038-0.019 0.0114-0.038 0.0152-0.057s0.0114-0.038 0.019-0.057 0.0152-0.038 0.019-0.0532c0.0076-0.019 0.0152-0.038 0.0228-0.0532s0.019-0.0342 0.0266-0.0532 0.019-0.0342 0.0304-0.0532 0.019-0.0342 0.0304-0.0494 0.0228-0.0342 0.0342-0.0494 0.0228-0.0304 0.0342-0.0456 0.0228-0.0304 0.038-0.0456c0.0114-0.0152 0.0266-0.0304 0.038-0.0418l0.0418-0.0418c0.0152-0.0152 0.0304-0.0266 0.0456-0.038s0.0304-0.0228 0.0456-0.038l0.0456-0.0342c0.0152-0.0114 0.0342-0.0228 0.0494-0.0304 0.0152-0.0114 0.0342-0.019 0.0494-0.0304 0.019-0.0076 0.0342-0.019 0.0532-0.0266s0.0342-0.0152 0.0532-0.0228 0.038-0.0152 0.0532-0.0228c0.019-0.0076 0.038-0.0152 0.057-0.019s0.038-0.0114 0.057-0.0152 0.038-0.0114 0.057-0.0152l0.057-0.0114c0.019-0.0038 0.038-0.0076 0.057-0.0076s0.038-0.0038 0.057-0.0038 0.038-0.0038 0.057-0.0038h16.397v-6.118c0-0.038 0-0.076 0.0038-0.1102-2.7968-2.1698-6.3042-3.4542-10.1118-3.4542s-7.3226 1.2882-10.1232 3.4504zm-6.4524 13.1252c0-3.382 1.0108-6.5246 2.7474-9.1428v18.2894c-1.7366-2.622-2.7474-5.7646-2.7474-9.1466zm32.9384 2.6562h-3.838v8.1966c1.976-2.2724 3.3364-5.0882 3.838-8.1966z" clip-rule="evenodd" filter="url(#filter1)" opacity=".5" stroke-width=".038"/>
    <path id="Ellipse-Copy-Difference-Union-2" class="st0" d="m32 13c-10.4918 0-19 8.5082-19 19s8.5082 19 19 19 19-8.5082 19-19-8.5082-19-19-19zm-10.1232 5.8748h11.8484c0.4104-0.6536 1.1362-1.0868 1.9646-1.0868 1.2806 0 2.318 1.0374 2.318 2.318s-1.0374 2.318-2.318 2.318c-0.8436 0-1.5808-0.4484-1.9874-1.1248h-13.1024v22.6632c0 0.0228 0 0.0418-0.0038 0.0646 1.1666 1.1058 2.4928 2.0444 3.9368 2.774v-9.8458c0-0.019 0.0038-0.038 0.0038-0.057s0.0038-0.038 0.0076-0.057l0.0228-0.114c0.0038-0.019 0.0114-0.038 0.0152-0.057s0.0114-0.038 0.019-0.057 0.0152-0.038 0.019-0.0532c0.0076-0.019 0.0152-0.038 0.0228-0.0532s0.019-0.0342 0.0266-0.0532 0.019-0.0342 0.0304-0.0494 0.019-0.0342 0.0304-0.0494 0.0228-0.0304 0.0342-0.0494c0.0114-0.0152 0.0228-0.0304 0.0342-0.0456s0.0228-0.0304 0.038-0.0456c0.0114-0.0152 0.0266-0.0304 0.038-0.0418l0.0418-0.0418c0.0152-0.0114 0.0304-0.0266 0.0456-0.038s0.0304-0.0266 0.0456-0.038l0.0456-0.0342c0.0152-0.0114 0.0342-0.0228 0.0494-0.0304 0.0152-0.0114 0.0342-0.019 0.0494-0.0304 0.019-0.0076 0.0342-0.019 0.0532-0.0266s0.0342-0.0152 0.0532-0.0266c0.019-0.0076 0.038-0.0152 0.0532-0.0228 0.019-0.0076 0.038-0.0114 0.057-0.019s0.038-0.0114 0.057-0.0152 0.038-0.0114 0.057-0.0152l0.057-0.0114c0.019-0.0038 0.038-0.0076 0.057-0.0076s0.038-0.0038 0.057-0.0076c0.019 0 0.038-0.0038 0.057-0.0038h4.0964c0.4104-0.6536 1.1362-1.0868 1.9646-1.0868 1.2806 0 2.318 1.0374 2.318 2.318s-1.0374 2.318-2.318 2.318c-0.8436 0-1.5808-0.4484-1.9874-1.121h-2.8348v9.405c0 0.0532-0.0038 0.1064-0.0114 0.1596 1.6036 0.5054 3.3022 0.779 5.0616 0.779 1.577 0 3.1046-0.2204 4.5486-0.6308v-12.559c-0.646-0.4104-1.0754-1.1324-1.0754-1.957 0-1.2806 1.0374-2.318 2.318-2.318s2.318 1.0374 2.318 2.318c0 0.8474-0.456 1.5884-1.1362 1.995v11.6166c1.1134-0.5168 2.1622-1.1552 3.1274-1.9v-11.7534c0-0.019 0.0038-0.038 0.0038-0.057s0.0038-0.038 0.0076-0.057l0.0228-0.114c0.0038-0.019 0.0114-0.038 0.0152-0.057 0.0076-0.019 0.0114-0.038 0.019-0.057s0.0114-0.038 0.019-0.057 0.0152-0.038 0.0228-0.0532 0.019-0.0342 0.0266-0.0532 0.019-0.0342 0.0304-0.0494 0.019-0.0342 0.0304-0.0494 0.0228-0.0342 0.0342-0.0494 0.0228-0.0304 0.0342-0.0456 0.0266-0.0304 0.038-0.0456 0.0266-0.0304 0.0418-0.0418 0.0266-0.0266 0.0418-0.0418c0.0152-0.0114 0.0304-0.0266 0.0456-0.038s0.0304-0.0266 0.0456-0.038 0.0304-0.0228 0.0494-0.0342c0.0152-0.0114 0.0342-0.0228 0.0494-0.0304s0.0342-0.019 0.0494-0.0304 0.0342-0.019 0.0532-0.0266 0.0342-0.0152 0.0532-0.0228 0.038-0.0152 0.0532-0.0228c0.019-0.0076 0.038-0.0152 0.057-0.019 0.019-0.0076 0.038-0.0114 0.057-0.0152s0.038-0.0076 0.057-0.0152l0.057-0.0114c0.019-0.0038 0.038-0.0038 0.057-0.0076s0.038-0.0038 0.057-0.0038 0.038-0.0038 0.057-0.0038h5.282v-0.2318c0-4.1496-1.5238-7.942-4.0432-10.849v5.2174c0 0.019-0.0038 0.038-0.0038 0.0608s-0.0038 0.038-0.0076 0.057l-0.0228 0.114c-0.0038 0.019-0.0114 0.038-0.0152 0.057-0.0076 0.019-0.0114 0.038-0.019 0.057l-0.0228 0.057c-0.0076 0.019-0.0152 0.038-0.0228 0.0532-0.0076 0.019-0.019 0.0342-0.0266 0.0532s-0.019 0.0342-0.0304 0.0532-0.019 0.0342-0.0304 0.0494-0.0228 0.0342-0.0342 0.0494-0.0228 0.0304-0.038 0.0456c-0.0114 0.0152-0.0266 0.0304-0.038 0.0456s-0.0266 0.0304-0.0418 0.0418-0.0304 0.0266-0.0418 0.0418c-0.0152 0.0152-0.0304 0.0266-0.0456 0.038s-0.0304 0.0228-0.0456 0.038c-0.0152 0.0114-0.0304 0.0228-0.0494 0.0342-0.0152 0.0114-0.0342 0.0228-0.0494 0.0304-0.019 0.0114-0.0342 0.019-0.0532 0.0304-0.019 0.0076-0.0342 0.019-0.0532 0.0266s-0.038 0.0152-0.0532 0.0228l-0.057 0.0228c-0.019 0.0076-0.038 0.0114-0.057 0.019s-0.038 0.0114-0.057 0.0152l-0.114 0.0228c-0.019 0.0038-0.038 0.0038-0.0608 0.0076s-0.038 0.0038-0.0608 0.0038h-16.4122v2.4624c0.6764 0.4028 1.1286 1.1438 1.1286 1.9912 0 1.2806-1.0374 2.318-2.318 2.318s-2.318-1.0374-2.318-2.318c0-0.8246 0.4294-1.5504 1.0792-1.9608v-3.762c0-0.019 0.0038-0.038 0.0038-0.057s0.0038-0.038 0.0076-0.057l0.0228-0.114c0.0038-0.019 0.0114-0.038 0.0152-0.057s0.0114-0.038 0.019-0.057 0.0152-0.038 0.019-0.0532c0.0076-0.019 0.0152-0.038 0.0228-0.0532s0.019-0.0342 0.0266-0.0532 0.019-0.0342 0.0304-0.0532 0.019-0.0342 0.0304-0.0494 0.0228-0.0342 0.0342-0.0494 0.0228-0.0304 0.0342-0.0456 0.0228-0.0304 0.038-0.0456c0.0114-0.0152 0.0266-0.0304 0.038-0.0418l0.0418-0.0418c0.0152-0.0152 0.0304-0.0266 0.0456-0.038s0.0304-0.0228 0.0456-0.038l0.0456-0.0342c0.0152-0.0114 0.0342-0.0228 0.0494-0.0304 0.0152-0.0114 0.0342-0.019 0.0494-0.0304 0.019-0.0076 0.0342-0.019 0.0532-0.0266s0.0342-0.0152 0.0532-0.0228 0.038-0.0152 0.0532-0.0228c0.019-0.0076 0.038-0.0152 0.057-0.019s0.038-0.0114 0.057-0.0152 0.038-0.0114 0.057-0.0152l0.057-0.0114c0.019-0.0038 0.038-0.0076 0.057-0.0076s0.038-0.0038 0.057-0.0038 0.038-0.0038 0.057-0.0038h16.397v-6.118c0-0.038 0-0.076 0.0038-0.1102-2.7968-2.1698-6.3042-3.4542-10.1118-3.4542s-7.3226 1.2882-10.1232 3.4504zm-6.4524 13.1252c0-3.382 1.0108-6.5246 2.7474-9.1428v18.2894c-1.7366-2.622-2.7474-5.7646-2.7474-9.1466zm32.9384 2.6562h-3.838v8.1966c1.976-2.2724 3.3364-5.0882 3.838-8.1966z" clip-rule="evenodd" stroke-width=".038"/>
  </g>
</svg>
