<?xml version="1.0" encoding="utf-8"?>
<svg width="64" height="64" viewBox="0 0 64 64" xmlns="http://www.w3.org/2000/svg">
  <defs>
    <filter id="shadow" x="-0.03" y="-0.03" width="1.06" height="1.06">
      <feGaussianBlur stdDeviation="0.65"/>
    </filter>
    <linearGradient id="bgGradient" x1="0" y1="0" x2="0" y2="1">
      <stop offset="0" stop-color="#171826"/>
      <stop offset="1" stop-color="#170f22"/>
    </linearGradient>
    <linearGradient id="icon" x1="1" y1="1" x2="0" y2="0">
      <stop stop-color="#C631FF"/>
      <stop offset="1" stop-color="#4DC4FE"/>
    </linearGradient>
  </defs>
  <rect x="4.5" y="4.5" width="55" height="55" ry="15" fill="#000" opacity="0.35" filter="url(#shadow)"/>
  <rect x="4" y="4" width="56" height="56" ry="15" fill="url(#bgGradient)"/>
  <path fill-rule="evenodd" clip-rule="evenodd" d="M 34.959 13.273 C 34.959 12.864 34.643 12.532 34.252 12.532 L 30.86 12.532 C 30.47 12.532 30.153 12.864 30.153 13.273 L 30.153 27.362 C 30.153 27.772 29.837 28.105 29.447 28.105 L 28.276 28.105 C 27.702 28.105 27.366 28.786 27.7 29.277 L 31.98 35.565 C 32.262 35.979 32.849 35.979 33.131 35.565 L 37.411 29.277 C 37.745 28.786 37.411 28.105 36.836 28.105 L 35.664 28.105 C 35.275 28.105 34.959 27.772 34.959 27.362 L 34.959 13.273 Z M 14.123 40.119 C 13.121 37.698 12.604 35.104 12.604 32.483 L 18.59 32.483 C 20.755 32.483 22.439 34.302 23.268 36.301 C 23.769 37.512 24.504 38.612 25.43 39.538 C 26.356 40.464 27.456 41.198 28.665 41.7 C 29.877 42.201 31.173 42.46 32.483 42.46 C 33.794 42.46 35.091 42.201 36.302 41.7 C 37.511 41.198 38.611 40.464 39.538 39.538 C 40.465 38.612 41.199 37.512 41.7 36.301 C 42.528 34.302 44.215 32.483 46.377 32.483 L 52.507 32.483 C 52.507 35.104 51.991 37.698 50.989 40.119 C 49.986 42.539 48.516 44.738 46.663 46.591 C 44.81 48.445 42.611 49.914 40.191 50.917 C 37.77 51.919 35.176 52.435 32.555 52.435 C 29.935 52.435 27.341 51.919 24.92 50.917 C 22.5 49.914 20.3 48.445 18.448 46.591 C 16.595 44.738 15.125 42.539 14.123 40.119 Z M 22.389 16.865 C 21.854 17.297 21.763 18.09 22.185 18.638 C 22.608 19.186 23.387 19.279 23.924 18.847 L 25.746 17.38 C 26.283 16.947 26.374 16.155 25.95 15.607 C 25.527 15.059 24.748 14.964 24.211 15.396 L 22.389 16.865 Z M 42.922 16.865 C 43.457 17.297 43.548 18.09 43.126 18.638 C 42.702 19.186 41.924 19.279 41.387 18.847 L 39.565 17.38 C 39.028 16.947 38.937 16.155 39.36 15.607 C 39.784 15.059 40.563 14.964 41.098 15.396 L 42.922 16.865 Z M 16.381 27.208 C 15.745 26.952 15.433 26.219 15.684 25.569 L 16.535 23.367 C 16.786 22.718 17.504 22.4 18.14 22.656 C 18.776 22.911 19.088 23.645 18.837 24.293 L 17.987 26.497 C 17.735 27.145 17.016 27.463 16.381 27.208 Z M 49.627 25.569 C 49.878 26.219 49.566 26.952 48.93 27.208 C 48.295 27.463 47.575 27.145 47.324 26.497 L 46.473 24.293 C 46.223 23.645 46.535 22.911 47.17 22.656 C 47.807 22.4 48.525 22.718 48.776 23.367 L 49.627 25.569 Z" fill="url(#icon)" style=""/>
  <path d="M 47.294 46.591 C 43.47 50.334 38.281 52.435 32.871 52.435 C 27.461 52.435 22.273 50.334 18.448 46.591 C 20.597 44.488 24.074 44.61 26.854 45.81 C 28.732 46.621 30.779 47.051 32.871 47.051 C 34.963 47.051 37.01 46.621 38.888 45.81 C 41.668 44.61 45.144 44.488 47.294 46.591 Z" fill="black" fill-opacity="0.25" style=""/>
</svg>