<svg id="svg44" version="1.1" viewBox="0 0 64 64" xmlns="http://www.w3.org/2000/svg">
  <defs id="defs22">
    <filter id="filter1057" x="-.026999999" y="-.026999999" width="1.054" height="1.054" color-interpolation-filters="sRGB">
      <feGaussianBlur id="feGaussianBlur1059" stdDeviation="0.61875"/>
    </filter>
    <linearGradient id="linearGradient1053" x1="-127" x2="-72" y1="60" y2="5" gradientTransform="translate(131.5 -.50999746)" gradientUnits="userSpaceOnUse">
      <stop id="stop1047" stop-color="#263a4f" offset="0"/>
      <stop id="stop1049" stop-color="#365066" offset="1"/>
    </linearGradient>
    <filter id="filter1" x="-.028989113" y="-.025266328" width="1.0579782" height="1.0505327" color-interpolation-filters="sRGB">
      <feGaussianBlur id="feGaussianBlur1" stdDeviation="0.39542407"/>
    </filter>
  </defs>
  <g fill="#5e4aa6">
    <g id="g30">
      <circle id="circle24" cx="-1248.7" cy="-1241.6" r="0"/>
      <circle id="circle26" cx="-1140.3" cy="-1301.8" r="0"/>
      <circle id="circle28" cx="-1158.1" cy="-1246" r="0"/>
    </g>
    <circle id="circle36" cx="-1157.3" cy="-1267.7" r="0"/>
    <circle id="circle38" cx="-57.756" cy="-2.1829" r="0" fill-rule="evenodd"/>
  </g>
  <rect id="rect1055" x="4.5" y="4.5" width="55" height="55" ry="15" fill="#141414" filter="url(#filter1057)" opacity=".3" stroke-linecap="round" stroke-width="2.74436"/>
  <rect id="rect1045" x="4.5000019" y="4.5000019" width="54.999996" height="54.999996" ry="14.999999" fill="url(#linearGradient1053)" stroke-linecap="round" stroke-width="2.74436"/>
  <path id="path1" d="m33.875058 13.481497c0.863281 0.516406 1.310547 1.447852 1.776172 2.307031 0.120117 0.21836 0.240625 0.436524 0.36123 0.654688l0.183985 0.333203c0.277246 0.496777 0.564257 0.9875 0.852441 1.478027a231.15498 231.15498 0 0 1 1.477051 2.557324 247.20918 247.20918 0 0 0 1.464844 2.539063 248.25215 248.25215 0 0 1 1.464843 2.539062 289.27734 289.27734 0 0 0 1.638965 2.838575c0.601074 1.027734 1.195313 2.059277 1.789649 3.09082 0.244628 0.424707 0.48955 0.849219 0.734472 1.273633 0.121094 0.209961 0.242188 0.419824 0.363086 0.629785 0.284668 0.493848 0.569727 0.987305 0.856641 1.479883 0.134765 0.231445 0.269336 0.463086 0.403808 0.694726 0.09443 0.1625 0.189453 0.324707 0.284278 0.487012 0.949902 1.637109 0.949902 1.637109 0.704394 2.645313-0.214453 0.627929-0.54375 1.061523-1.11123 1.411035-0.566114 0.245996-1.016407 0.336035-1.630078 0.332422l-0.245215 2e-3c-0.265137 0.0019-0.530274 0.0015-0.79541 9.76e-4l-0.556641 0.0015c-0.387793 9.77e-4 -0.775684 6.84e-4 -1.163477-2.93e-4 -0.496093-0.0011-0.992089 8.79e-4 -1.488183 0.0037-0.382813 0.0018-0.765527 0.0018-1.14834 0.0012-0.182812 0-0.365723 5.86e-4 -0.548633 0.0019-0.255859 0.0015-0.511719 3.91e-4 -0.767578-0.0013l-0.226758 0.0028c-0.614648-0.0084-1.02666-0.195801-1.484375-0.619824l-0.138183-0.170606-0.142578-0.171191c-0.296485-0.428711-0.252344-0.935742-0.211426-1.433984 0.199414-0.675977 0.557031-0.995508 1.165625-1.329004 0.512207-0.211524 1.049804-0.182618 1.595801-0.18584l0.345214-0.0053c0.362207-0.0053 0.724317-0.0086 1.086426-0.01191 0.246289-0.0032 0.492481-0.0065 0.73877-0.01006 0.602148-0.0083 1.204297-0.01494 1.806445-0.02041-0.533594-0.966016-1.069727-1.929688-1.629688-2.88086l-0.352441-0.601953-0.180273-0.30791c-0.304395-0.52168-0.606055-1.044922-0.907715-1.568164l-0.184082-0.319434-0.369727-0.641797c-0.305469-0.530175-0.611328-1.060058-0.91709-1.590039l-0.366211-0.634765-0.183105-0.317383-2.01416-3.491211-0.183301-0.317676-0.364551-0.631836a4726.9167 4726.9167 0 0 0-1.511621-2.61875c-0.25625-0.44375-0.512109-0.887695-0.762695-1.334765l-0.110938-0.197461a125.42871 125.42871 0 0 1-0.273144-0.490723c-0.119238-0.230819-0.119238-0.230819-0.333789-0.317049l-0.07969 0.212011c-0.116601 0.278516-0.251855 0.529297-0.403613 0.79004l-0.175488 0.302734-0.189649 0.324902-0.197558 0.34043c-0.136719 0.235644-0.273633 0.471289-0.410645 0.706836-0.313379 0.539062-0.624512 1.07959-0.935937 1.619922l-0.366211 0.634765-0.183106 0.317383-3.479004 6.030274-0.183203 0.317578-0.365039 0.632617c-0.311523 0.539844-0.622754 1.079687-0.933789 1.619726-0.559863 0.972071-1.120215 1.943653-1.690332 2.909766-0.45918 0.778223-0.914844 1.558496-1.369043 2.339649a184.92871 184.92871 0 0 1-0.664355 1.133789 184.89912 184.89912 0 0 0-0.300293 0.510937 113.47451 113.47451 0 0 1-0.380274 0.644141c-0.710937 1.218066-1.111035 2.3125-0.808496 3.736816 0.378711 1.237793 1.018457 2.168262 2.166016 2.78711 1.250976 0.582324 2.464453 0.49121 3.741797 0.04043 1.027246-0.452441 1.68916-1.320312 2.227441-2.268261l0.250977-0.435254a209.57324 209.57324 0 0 0 0.592089-1.037207c0.347071-0.611329 0.697657-1.220704 1.049024-1.82959l0.187109-0.324219c0.411817-0.712891 0.825781-1.424512 1.241114-2.135449a637.5543 637.5543 0 0 0 1.385449-2.382422c0.09521-0.164551 0.190625-0.329102 0.285937-0.493457l0.176074-0.304785 0.154981-0.267871c0.41748-0.722266 0.41748-0.722266 0.341309-1.531934-0.184668-0.226367-0.325977-0.358398-0.585938-0.488281-0.545508-0.07256-0.545508-0.07256-1.008984 0.175097-0.391602 0.425293-0.650977 0.953614-0.931934 1.454493l-0.193359 0.340039c-0.133985 0.235351-0.267578 0.470703-0.400782 0.706445-0.309375 0.546191-0.623828 1.089453-0.937793 1.633008l-0.183593 0.318359a437.1417 437.1417 0 0 1-1.393653 2.396582 166.17637 166.17637 0 0 0-0.906933 1.569727l-0.197559 0.345703c-0.125097 0.218848-0.249707 0.438086-0.373926 0.657519-1.023242 1.789747-1.023242 1.789747-1.772265 2.024122-0.613965 0.08613-1.115039 0.01699-1.660156-0.292969-0.462598-0.378516-0.705567-0.779297-0.819336-1.369824-0.0835-1.048047 0.739843-2.074219 1.252636-2.939258 0.121094-0.205664 0.241992-0.411426 0.362793-0.617188l0.187696-0.319043c0.30957-0.528613 0.614941-1.05957 0.920507-1.590625 0.524805-0.911133 1.051758-1.820996 1.58418-2.727734 0.269727-0.460254 0.536816-0.921582 0.79668-1.387402 0.09551-0.17129 0.191699-0.342188 0.28789-0.513086a66.092773 66.092773 0 0 0 0.358594-0.646192c0.854297-1.513281 1.985352-2.533398 3.66211-3.026367 1.129296-0.282324 2.290625-0.0749 3.322265 0.440234 1.197559 0.720215 1.994629 1.68545 2.455078 3.010938 0.529199 2.30625-0.640527 4.084961-1.776562 5.991406-0.292969 0.492481-0.58125 0.987598-0.869727 1.482715l-0.167969 0.287402c-0.43916 0.751953-0.871777 1.507422-1.302929 2.263868a356.22969 356.22969 0 0 1-1.519824 2.642871l-0.161915 0.279296c-1.408886 2.416211-3.059667 4.238868-5.837792 4.987989-2.253907 0.437793-4.448047 0.105176-6.364258-1.144141-0.49834-0.349707-0.925977-0.765527-1.350586-1.199609l-0.214844-0.205274c-0.97207-0.989258-1.547852-2.362109-1.835937-3.700976l-0.05606-0.258301c-0.272461-2.146875 0.116601-3.827051 1.130273-5.69873l0.109082-0.202735c0.598926-1.10791 1.236621-2.193457 1.873047-3.280078 0.365235-0.623926 0.726953-1.249707 1.087891-1.876074l0.183984-0.319043 0.55459-0.962696c0.769141-1.335351 1.539941-2.669628 2.317383-4.000097a415.83242 415.83242 0 0 0 1.24707-2.152246c0.469629-0.815235 0.941406-1.629102 1.416016-2.441407 0.721093-1.234082 1.435058-2.472363 2.148437-3.710937 0.426953-0.741406 0.854297-1.482422 1.28252-2.223242 0.123535-0.213965 0.246875-0.428125 0.370019-0.642383 0.183106-0.318652 0.366895-0.636914 0.550782-0.955176l0.165625-0.28916c0.849414-1.465527 1.867773-2.663281 3.722363-1.853223z" fill="#000000" filter="url(#filter1)" opacity=".3" stroke-width=".0976562"/>
  <path id="path2" d="m33.875058 13.481497c0.863281 0.516406 1.310547 1.447852 1.776172 2.307031 0.120117 0.21836 0.240625 0.436524 0.36123 0.654688l0.183985 0.333203c0.277246 0.496777 0.564257 0.9875 0.852441 1.478027a231.15498 231.15498 0 0 1 1.477051 2.557324 247.20918 247.20918 0 0 0 1.464844 2.539063 248.25215 248.25215 0 0 1 1.464843 2.539062 289.27734 289.27734 0 0 0 1.638965 2.838575c0.601074 1.027734 1.195313 2.059277 1.789649 3.09082 0.244628 0.424707 0.48955 0.849219 0.734472 1.273633 0.121094 0.209961 0.242188 0.419824 0.363086 0.629785 0.284668 0.493848 0.569727 0.987305 0.856641 1.479883 0.134765 0.231445 0.269336 0.463086 0.403808 0.694726 0.09443 0.1625 0.189453 0.324707 0.284278 0.487012 0.949902 1.637109 0.949902 1.637109 0.704394 2.645313-0.214453 0.627929-0.54375 1.061523-1.11123 1.411035-0.566114 0.245996-1.016407 0.336035-1.630078 0.332422l-0.245215 2e-3c-0.265137 0.0019-0.530274 0.0015-0.79541 9.76e-4l-0.556641 0.0015c-0.387793 9.77e-4 -0.775684 6.84e-4 -1.163477-2.93e-4 -0.496093-0.0011-0.992089 8.79e-4 -1.488183 0.0037-0.382813 0.0018-0.765527 0.0018-1.14834 0.0012-0.182812 0-0.365723 5.86e-4 -0.548633 0.0019-0.255859 0.0015-0.511719 3.91e-4 -0.767578-0.0013l-0.226758 0.0028c-0.614648-0.0084-1.02666-0.195801-1.484375-0.619824l-0.138183-0.170606-0.142578-0.171191c-0.296485-0.428711-0.252344-0.935742-0.211426-1.433984 0.199414-0.675977 0.557031-0.995508 1.165625-1.329004 0.512207-0.211524 1.049804-0.182618 1.595801-0.18584l0.345214-0.0053c0.362207-0.0053 0.724317-0.0086 1.086426-0.01191 0.246289-0.0032 0.492481-0.0065 0.73877-0.01006 0.602148-0.0083 1.204297-0.01494 1.806445-0.02041-0.533594-0.966016-1.069727-1.929688-1.629688-2.88086l-0.352441-0.601953-0.180273-0.30791c-0.304395-0.52168-0.606055-1.044922-0.907715-1.568164l-0.184082-0.319434-0.369727-0.641797c-0.305469-0.530175-0.611328-1.060058-0.91709-1.590039l-0.366211-0.634765-0.183105-0.317383-2.01416-3.491211-0.183301-0.317676-0.364551-0.631836a4726.9167 4726.9167 0 0 0-1.511621-2.61875c-0.25625-0.44375-0.512109-0.887695-0.762695-1.334765l-0.110938-0.197461a125.42871 125.42871 0 0 1-0.273144-0.490723c-0.119238-0.230819-0.119238-0.230819-0.333789-0.317049l-0.07969 0.212011c-0.116601 0.278516-0.251855 0.529297-0.403613 0.79004l-0.175488 0.302734-0.189649 0.324902-0.197558 0.34043c-0.136719 0.235644-0.273633 0.471289-0.410645 0.706836-0.313379 0.539062-0.624512 1.07959-0.935937 1.619922l-0.366211 0.634765-0.183106 0.317383-3.479004 6.030274-0.183203 0.317578-0.365039 0.632617c-0.311523 0.539844-0.622754 1.079687-0.933789 1.619726-0.559863 0.972071-1.120215 1.943653-1.690332 2.909766-0.45918 0.778223-0.914844 1.558496-1.369043 2.339649a184.92871 184.92871 0 0 1-0.664355 1.133789 184.89912 184.89912 0 0 0-0.300293 0.510937 113.47451 113.47451 0 0 1-0.380274 0.644141c-0.710937 1.218066-1.111035 2.3125-0.808496 3.736816 0.378711 1.237793 1.018457 2.168262 2.166016 2.78711 1.250976 0.582324 2.464453 0.49121 3.741797 0.04043 1.027246-0.452441 1.68916-1.320312 2.227441-2.268261l0.250977-0.435254a209.57324 209.57324 0 0 0 0.592089-1.037207c0.347071-0.611329 0.697657-1.220704 1.049024-1.82959l0.187109-0.324219c0.411817-0.712891 0.825781-1.424512 1.241114-2.135449a637.5543 637.5543 0 0 0 1.385449-2.382422c0.09521-0.164551 0.190625-0.329102 0.285937-0.493457l0.176074-0.304785 0.154981-0.267871c0.41748-0.722266 0.41748-0.722266 0.341309-1.531934-0.184668-0.226367-0.325977-0.358398-0.585938-0.488281-0.545508-0.07256-0.545508-0.07256-1.008984 0.175097-0.391602 0.425293-0.650977 0.953614-0.931934 1.454493l-0.193359 0.340039c-0.133985 0.235351-0.267578 0.470703-0.400782 0.706445-0.309375 0.546191-0.623828 1.089453-0.937793 1.633008l-0.183593 0.318359a437.1417 437.1417 0 0 1-1.393653 2.396582 166.17637 166.17637 0 0 0-0.906933 1.569727l-0.197559 0.345703c-0.125097 0.218848-0.249707 0.438086-0.373926 0.657519-1.023242 1.789747-1.023242 1.789747-1.772265 2.024122-0.613965 0.08613-1.115039 0.01699-1.660156-0.292969-0.462598-0.378516-0.705567-0.779297-0.819336-1.369824-0.0835-1.048047 0.739843-2.074219 1.252636-2.939258 0.121094-0.205664 0.241992-0.411426 0.362793-0.617188l0.187696-0.319043c0.30957-0.528613 0.614941-1.05957 0.920507-1.590625 0.524805-0.911133 1.051758-1.820996 1.58418-2.727734 0.269727-0.460254 0.536816-0.921582 0.79668-1.387402 0.09551-0.17129 0.191699-0.342188 0.28789-0.513086a66.092773 66.092773 0 0 0 0.358594-0.646192c0.854297-1.513281 1.985352-2.533398 3.66211-3.026367 1.129296-0.282324 2.290625-0.0749 3.322265 0.440234 1.197559 0.720215 1.994629 1.68545 2.455078 3.010938 0.529199 2.30625-0.640527 4.084961-1.776562 5.991406-0.292969 0.492481-0.58125 0.987598-0.869727 1.482715l-0.167969 0.287402c-0.43916 0.751953-0.871777 1.507422-1.302929 2.263868a356.22969 356.22969 0 0 1-1.519824 2.642871l-0.161915 0.279296c-1.408886 2.416211-3.059667 4.238868-5.837792 4.987989-2.253907 0.437793-4.448047 0.105176-6.364258-1.144141-0.49834-0.349707-0.925977-0.765527-1.350586-1.199609l-0.214844-0.205274c-0.97207-0.989258-1.547852-2.362109-1.835937-3.700976l-0.05606-0.258301c-0.272461-2.146875 0.116601-3.827051 1.130273-5.69873l0.109082-0.202735c0.598926-1.10791 1.236621-2.193457 1.873047-3.280078 0.365235-0.623926 0.726953-1.249707 1.087891-1.876074l0.183984-0.319043 0.55459-0.962696c0.769141-1.335351 1.539941-2.669628 2.317383-4.000097a415.83242 415.83242 0 0 0 1.24707-2.152246c0.469629-0.815235 0.941406-1.629102 1.416016-2.441407 0.721093-1.234082 1.435058-2.472363 2.148437-3.710937 0.426953-0.741406 0.854297-1.482422 1.28252-2.223242 0.123535-0.213965 0.246875-0.428125 0.370019-0.642383 0.183106-0.318652 0.366895-0.636914 0.550782-0.955176l0.165625-0.28916c0.849414-1.465527 1.867773-2.663281 3.722363-1.853223z" fill="#fdfdfd" stroke-width=".0976562"/>
</svg>
