<svg id="svg290" version="1.1" viewBox="0 0 64 64" xmlns="http://www.w3.org/2000/svg" xmlns:xlink="http://www.w3.org/1999/xlink">
  <defs id="defs278">
    <style id="style266" type="text/css"/>
    <style id="style268" type="text/css"/>
    <style id="style880" type="text/css"/>
    <filter id="filter1057" x="-.026999999" y="-.026999999" width="1.054" height="1.054" color-interpolation-filters="sRGB">
      <feGaussianBlur id="feGaussianBlur882" stdDeviation="0.61875"/>
    </filter>
    <style id="style890" type="text/css"/>
    <style id="style892" type="text/css"/>
    <style id="style894" type="text/css"/>
    <style id="style896" type="text/css"/>
    <style id="style898" type="text/css"/>
    <style id="style900" type="text/css"/>
    <style id="style902" type="text/css"/>
    <linearGradient id="linearGradient4018">
      <stop id="stop4020" stop-color="#d27a57" offset="0"/>
      <stop id="stop4022" stop-color="#cb663e" offset="1"/>
    </linearGradient>
    <linearGradient id="linearGradient5071" x1="59.370815" x2="137.34044" y1="131.39505" y2="131.39505" gradientTransform="translate(-91.569329,-34.07373)" gradientUnits="userSpaceOnUse" xlink:href="#linearGradient4018"/>
    <linearGradient id="linearGradient5073" x1="60.014919" x2="137.01839" y1="109.33472" y2="109.33472" gradientTransform="translate(-91.569329,-34.07373)" gradientUnits="userSpaceOnUse" xlink:href="#linearGradient4018"/>
    <linearGradient id="linearGradient5075" x1="80.171501" x2="158.86281" y1="171.39314" y2="171.39314" gradientTransform="translate(-95.039328,-22.660257)" gradientUnits="userSpaceOnUse" xlink:href="#linearGradient4018"/>
    <linearGradient id="linearGradient5077" x1="59.370815" x2="138.30658" y1="163.27788" y2="163.27788" gradientTransform="translate(-91.569329,-34.07373)" gradientUnits="userSpaceOnUse" xlink:href="#linearGradient4018"/>
    <linearGradient id="linearGradient5079" x1="52.6078" x2="143.7814" y1="145.5652" y2="145.5652" gradientTransform="translate(-91.569329,-34.07373)" gradientUnits="userSpaceOnUse" xlink:href="#linearGradient4018"/>
    <filter id="filter4118" x="-.16975115" y="-.17439762" width="1.3395023" height="1.3487952" color-interpolation-filters="sRGB">
      <feGaussianBlur id="feGaussianBlur4120" stdDeviation="12.82423"/>
    </filter>
    <radialGradient id="radialGradient4638" cx="134.47063" cy="170.31812" r="91.156685" gradientTransform="matrix(1 0 0 .97350313 364.29162 -349.0684)" gradientUnits="userSpaceOnUse">
      <stop id="stop4086" stop-color="#0e8165" offset="0"/>
      <stop id="stop4092" stop-color="#07c99a" offset=".5"/>
      <stop id="stop4088" stop-color="#114438" offset="1"/>
    </radialGradient>
    <linearGradient id="linearGradient3644" x1="-83.239243" x2="-25.269241" y1="35.911671" y2="-22.058332" gradientUnits="userSpaceOnUse">
      <stop id="stop3431" stop-color="#114438" offset="0"/>
      <stop id="stop3437" stop-color="#07c99a" offset=".5"/>
      <stop id="stop3429" stop-color="#0e8165" offset="1"/>
    </linearGradient>
  </defs>
  <g id="g2402" transform="translate(86.254241,25.073331)" fill="url(#linearGradient3644)" stroke-linecap="round" stroke-width="2.7444">
    <rect id="rect918" x="-81.754242" y="-20.573332" width="55" height="55" ry="15" filter="url(#filter1057)" opacity=".3"/>
    <rect id="rect920" x="-81.754242" y="-20.57333" width="55" height="55" ry="15"/>
  </g>
  <g id="g3642" transform="matrix(.29242678 0 0 .29242678 69.763406 40.754716)" opacity=".5" stroke-width="3.41966">
    <rect id="rect19243" transform="rotate(-6.9905144)" x="-211.96007" y="-51.214157" width="183.16861" height="11.691613" fill="none"/>
    <path id="path19245" d="m-180.5984-23.21142s-27.23225-0.7271-31.96282 0.84194-3.45453 5.75173 1.02752 6.16855c4.48205 0.41681 30.9353-7.01049 30.9353-7.01049z" fill="#d4d4d4"/>
    <g stroke-width="3.41966">
      <g id="use19067-8" transform="matrix(.25132952 -.01370606 .01370606 .25132952 -165.95092 -48.68972)">
        <rect id="rect19213-7" x="47.019096" y="74.071182" width="151.36285" height="9.661458" fill="none"/>
        <path id="path19215-9" d="m76.37887 79.190926s-22.263181-3.335175-26.301066-2.523987c-4.037886 0.811188-3.41192 4.370224 0.222407 5.162873 3.634328 0.792649 26.078659-2.638886 26.078659-2.638886z" fill="#d4d4d4"/>
      </g>
      <g id="use19069-2" transform="matrix(.43270303 -9.8496855e-5 9.8496855e-5 .43270303 -190.70508 -64.341065)">
        <rect id="rect19219-0" x="47.019096" y="74.071182" width="151.36285" height="9.661458" fill="none"/>
        <path id="path19221-2" d="m76.37887 79.190926s-22.263181-3.335175-26.301066-2.523987c-4.037886 0.811188-3.41192 4.370224 0.222407 5.162873 3.634328 0.792649 26.078659-2.638886 26.078659-2.638886z" fill="#d4d4d4"/>
      </g>
      <g id="use19071-3" transform="matrix(.63319016 .0432812 -.0432812 .63319016 -199.30742 -85.571285)">
        <rect id="rect19225-7" x="47.019096" y="74.071182" width="151.36285" height="9.661458" fill="none"/>
        <path id="path19227-5" d="m76.37887 79.190926s-22.263181-3.335175-26.301066-2.523987c-4.037886 0.811188-3.41192 4.370224 0.222407 5.162873 3.634328 0.792649 26.078659-2.638886 26.078659-2.638886z" fill="#d4d4d4"/>
      </g>
      <g id="use19073" transform="matrix(.83638768 .03132599 -.03132599 .83638768 -234.45013 -100.02696)">
        <rect id="rect19231" x="47.019096" y="74.071182" width="151.36285" height="9.661458" fill="none"/>
        <path id="path19233" d="m76.37887 79.190926s-22.263181-3.335175-26.301066-2.523987c-4.037886 0.811188-3.41192 4.370224 0.222407 5.162873 3.634328 0.792649 26.078659-2.638886 26.078659-2.638886z" fill="#d4d4d4"/>
      </g>
      <g id="use19075" transform="matrix(1.0329068 .09879986 -.09879986 1.0329068 -257.86527 -124.00069)">
        <rect id="rect19237" x="47.019096" y="74.071182" width="151.36285" height="9.661458" fill="none"/>
        <path id="path19239" d="m76.37887 79.190926s-22.263181-3.335175-26.301066-2.523987c-4.037886 0.811188-3.41192 4.370224 0.222407 5.162873 3.634328 0.792649 26.078659-2.638886 26.078659-2.638886z" fill="#d4d4d4"/>
      </g>
      <g id="use19079-9" transform="matrix(.20230364 .13307621 -.13307621 .20230364 -142.55303 -62.145005)">
        <rect id="rect19249-2" x="47.019096" y="74.071182" width="151.36285" height="9.661458" fill="none"/>
        <path id="path19251-2" d="m76.37887 79.190926s-22.263181-3.335175-26.301066-2.523987c-4.037886 0.811188-3.41192 4.370224 0.222407 5.162873 3.634328 0.792649 26.078659-2.638886 26.078659-2.638886z" fill="#d4d4d4"/>
      </g>
      <g id="use19081-8" transform="matrix(.37686493 .18589121 -.18589121 .37686493 -159.63888 -83.081895)">
        <rect id="rect19255-9" x="47.019096" y="74.071182" width="151.36285" height="9.661458" fill="none"/>
        <path id="path19257-7" d="m76.37887 79.190926s-22.263181-3.335175-26.301066-2.523987c-4.037886 0.811188-3.41192 4.370224 0.222407 5.162873 3.634328 0.792649 26.078659-2.638886 26.078659-2.638886z" fill="#d4d4d4"/>
      </g>
      <g id="use19083-3" transform="matrix(.53259055 .31108575 -.31108575 .53259055 -176.80314 -110.64681)">
        <rect id="rect19261-6" x="47.019096" y="74.071182" width="151.36285" height="9.661458" fill="none"/>
        <path id="path19263-1" d="m76.37887 79.190926s-22.263181-3.335175-26.301066-2.523987c-4.037886 0.811188-3.41192 4.370224 0.222407 5.162873 3.634328 0.792649 26.078659-2.638886 26.078659-2.638886z" fill="#d4d4d4"/>
      </g>
      <g id="use19085" transform="matrix(.76043616 .37120147 -.37120147 .76043616 -192.11889 -135.91335)">
        <rect id="rect19267" x="47.019096" y="74.071182" width="151.36285" height="9.661458" fill="none"/>
        <path id="path19269" d="m76.37887 79.190926s-22.263181-3.335175-26.301066-2.523987c-4.037886 0.811188-3.41192 4.370224 0.222407 5.162873 3.634328 0.792649 26.078659-2.638886 26.078659-2.638886z" fill="#d4d4d4"/>
      </g>
      <g id="use19087" transform="matrix(.91962064 .42486144 -.42486144 .91962064 -209.54511 -154.98943)">
        <rect id="rect19273" x="47.019096" y="74.071182" width="151.36285" height="9.661458" fill="none"/>
        <path id="path19275" d="m76.37887 79.190926s-22.263181-3.335175-26.301066-2.523987c-4.037886 0.811188-3.41192 4.370224 0.222407 5.162873 3.634328 0.792649 26.078659-2.638886 26.078659-2.638886z" fill="#d4d4d4"/>
      </g>
      <g id="use19091-2" transform="matrix(.10931014 .20425354 -.20425354 .10931014 -125.86306 -63.921145)">
        <rect id="rect19285-9" x="47.019096" y="74.071182" width="151.36285" height="9.661458" fill="none"/>
        <path id="path19287-3" d="m76.37887 79.190926s-22.263181-3.335175-26.301066-2.523987c-4.037886 0.811188-3.41192 4.370224 0.222407 5.162873 3.634328 0.792649 26.078659-2.638886 26.078659-2.638886z" fill="#d4d4d4"/>
      </g>
      <g id="use19093-1" transform="matrix(.25611373 .3813573 -.3813573 .25611373 -129.08472 -96.895365)">
        <rect id="rect19291-9" x="47.019096" y="74.071182" width="151.36285" height="9.661458" fill="none"/>
        <path id="path19293-4" d="m76.37887 79.190926s-22.263181-3.335175-26.301066-2.523987c-4.037886 0.811188-3.41192 4.370224 0.222407 5.162873 3.634328 0.792649 26.078659-2.638886 26.078659-2.638886z" fill="#d4d4d4"/>
      </g>
      <g id="use19095-7" transform="matrix(.28846172 .59061642 -.59061642 .28846172 -121.74917 -125.07828)">
        <rect id="rect19297-8" x="47.019096" y="74.071182" width="151.36285" height="9.661458" fill="none"/>
        <path id="path19299-4" d="m76.37887 79.190926s-22.263181-3.335175-26.301066-2.523987c-4.037886 0.811188-3.41192 4.370224 0.222407 5.162873 3.634328 0.792649 26.078659-2.638886 26.078659-2.638886z" fill="#d4d4d4"/>
      </g>
      <g id="use19097" transform="matrix(.48483153 .66318486 -.66318486 .48483153 -144.336 -149.61167)">
        <rect id="rect19303" x="47.019096" y="74.071182" width="151.36285" height="9.661458" fill="none"/>
        <path id="path19305" d="m76.37887 79.190926s-22.263181-3.335175-26.301066-2.523987c-4.037886 0.811188-3.41192 4.370224 0.222407 5.162873 3.634328 0.792649 26.078659-2.638886 26.078659-2.638886z" fill="#d4d4d4"/>
      </g>
      <g id="use19099" transform="matrix(.41218394 .92931099 -.92931099 .41218394 -113.24645 -177.25737)">
        <rect id="rect19309" x="47.019096" y="74.071182" width="151.36285" height="9.661458" fill="none"/>
        <path id="path19311" d="m76.37887 79.190926s-22.263181-3.335175-26.301066-2.523987c-4.037886 0.811188-3.41192 4.370224 0.222407 5.162873 3.634328 0.792649 26.078659-2.638886 26.078659-2.638886z" fill="#d4d4d4"/>
      </g>
      <g id="use19101" transform="matrix(.61585048 1.0810286 -1.0810286 .61585048 -128.18927 -211.46039)">
        <rect id="rect19315" x="47.019096" y="74.071182" width="151.36285" height="9.661458" fill="none"/>
        <path id="path19317" d="m76.37887 79.190926s-22.263181-3.335175-26.301066-2.523987c-4.037886 0.811188-3.41192 4.370224 0.222407 5.162873 3.634328 0.792649 26.078659-2.638886 26.078659-2.638886z" fill="#d4d4d4"/>
      </g>
      <g id="use19103-5" transform="matrix(-.01142324 .26829054 -.26829054 -.01142324 -112.12612 -62.251385)">
        <rect id="rect19321-0" x="47.019096" y="74.071182" width="151.36285" height="9.661458" fill="none"/>
        <path id="path19323-3" d="m76.37887 79.190926s-22.263181-3.335175-26.301066-2.523987c-4.037886 0.811188-3.41192 4.370224 0.222407 5.162873 3.634328 0.792649 26.078659-2.638886 26.078659-2.638886z" fill="#d4d4d4"/>
      </g>
      <g id="use19105-6" transform="matrix(-.04824191 .44226501 -.44226501 -.04824191 -87.77467 -80.608555)">
        <rect id="rect19327-1" x="47.019096" y="74.071182" width="151.36285" height="9.661458" fill="none"/>
        <path id="path19329-0" d="m76.37887 79.190926s-22.263181-3.335175-26.301066-2.523987c-4.037886 0.811188-3.41192 4.370224 0.222407 5.162873 3.634328 0.792649 26.078659-2.638886 26.078659-2.638886z" fill="#d4d4d4"/>
      </g>
      <g id="use19107" transform="matrix(.07545617 .64604414 -.64604414 .07545617 -83.17979 -115.87066)">
        <rect id="rect19333" x="47.019096" y="74.071182" width="151.36285" height="9.661458" fill="none"/>
        <path id="path19335" d="m76.37887 79.190926s-22.263181-3.335175-26.301066-2.523987c-4.037886 0.811188-3.41192 4.370224 0.222407 5.162873 3.634328 0.792649 26.078659-2.638886 26.078659-2.638886z" fill="#d4d4d4"/>
      </g>
      <g id="use19111" transform="matrix(.09070051 1.0136112 -1.0136112 .09070051 -69.96344 -161.53693)">
        <rect id="rect19345" x="47.019096" y="74.071182" width="151.36285" height="9.661458" fill="none"/>
        <path id="path19347" d="m76.37887 79.190926s-22.263181-3.335175-26.301066-2.523987c-4.037886 0.811188-3.41192 4.370224 0.222407 5.162873 3.634328 0.792649 26.078659-2.638886 26.078659-2.638886z" fill="#d4d4d4"/>
      </g>
      <g id="use19113" transform="matrix(.05541368 1.2243774 -1.2243774 .05541368 -46.5093 -184.54214)">
        <rect id="rect19351" x="47.019096" y="74.071182" width="151.36285" height="9.661458" fill="none"/>
        <path id="path19353" d="m76.37887 79.190926s-22.263181-3.335175-26.301066-2.523987c-4.037886 0.811188-3.41192 4.370224 0.222407 5.162873 3.634328 0.792649 26.078659-2.638886 26.078659-2.638886z" fill="#d4d4d4"/>
      </g>
      <g id="use19115-6" transform="matrix(-.11661885 .22838881 -.22838881 -.11661885 -103.61049 -49.56611)">
        <rect id="rect19357-3" x="47.019096" y="74.071182" width="151.36285" height="9.661458" fill="none"/>
        <path id="path19359-2" d="m76.37887 79.190926s-22.263181-3.335175-26.301066-2.523987c-4.037886 0.811188-3.41192 4.370224 0.222407 5.162873 3.634328 0.792649 26.078659-2.638886 26.078659-2.638886z" fill="#d4d4d4"/>
      </g>
      <g id="use19117-0" transform="matrix(-.21926001 .38069147 -.38069147 -.21926001 -79.04021 -59.447715)">
        <rect id="rect19363-6" x="47.019096" y="74.071182" width="151.36285" height="9.661458" fill="none"/>
        <path id="path19365-1" d="m76.37887 79.190926s-22.263181-3.335175-26.301066-2.523987c-4.037886 0.811188-3.41192 4.370224 0.222407 5.162873 3.634328 0.792649 26.078659-2.638886 26.078659-2.638886z" fill="#d4d4d4"/>
      </g>
      <g id="use19119-5" transform="matrix(-.32447267 .53255338 -.53255338 -.32447267 -43.93527 -69.931445)">
        <rect id="rect19369-5" x="47.019096" y="74.071182" width="151.36285" height="9.661458" fill="none"/>
        <path id="path19371-4" d="m76.37887 79.190926s-22.263181-3.335175-26.301066-2.523987c-4.037886 0.811188-3.41192 4.370224 0.222407 5.162873 3.634328 0.792649 26.078659-2.638886 26.078659-2.638886z" fill="#d4d4d4"/>
      </g>
      <g id="use19121" transform="matrix(-.39543407 .71945753 -.71945753 -.39543407 -31.52375 -87.448875)">
        <rect id="rect19375" x="47.019096" y="74.071182" width="151.36285" height="9.661458" fill="none"/>
        <path id="path19377" d="m76.37887 79.190926s-22.263181-3.335175-26.301066-2.523987c-4.037886 0.811188-3.41192 4.370224 0.222407 5.162873 3.634328 0.792649 26.078659-2.638886 26.078659-2.638886z" fill="#d4d4d4"/>
      </g>
      <g id="use19123" transform="matrix(-.56784212 .83764137 -.83764137 -.56784212 11.44362 -87.890785)">
        <rect id="rect19381" x="47.019096" y="74.071182" width="151.36285" height="9.661458" fill="none"/>
        <path id="path19383" d="m76.37887 79.190926s-22.263181-3.335175-26.301066-2.523987c-4.037886 0.811188-3.41192 4.370224 0.222407 5.162873 3.634328 0.792649 26.078659-2.638886 26.078659-2.638886z" fill="#d4d4d4"/>
      </g>
      <g id="use19125" transform="matrix(-.54021511 1.0815441 -1.0815441 -.54021511 25.65348 -120.62156)">
        <rect id="rect19387" x="47.019096" y="74.071182" width="151.36285" height="9.661458" fill="none"/>
        <path id="path19389" d="m76.37887 79.190926s-22.263181-3.335175-26.301066-2.523987c-4.037886 0.811188-3.41192 4.370224 0.222407 5.162873 3.634328 0.792649 26.078659-2.638886 26.078659-2.638886z" fill="#d4d4d4"/>
      </g>
      <g id="use19127-7" transform="matrix(-.21429807 .10300035 -.10300035 -.21429807 -89.77638 -25.83879)">
        <rect id="rect19393-6" x="47.019096" y="74.071182" width="151.36285" height="9.661458" fill="none"/>
        <path id="path19395-5" d="m76.37887 79.190926s-22.263181-3.335175-26.301066-2.523987c-4.037886 0.811188-3.41192 4.370224 0.222407 5.162873 3.634328 0.792649 26.078659-2.638886 26.078659-2.638886z" fill="#d4d4d4"/>
      </g>
      <g id="use19129-6" transform="matrix(-.36822306 .2328045 -.2328045 -.36822306 -73.19846 -29.77013)">
        <rect id="rect19399-9" x="47.019096" y="74.071182" width="151.36285" height="9.661458" fill="none"/>
        <path id="path19401-3" d="m76.37887 79.190926s-22.263181-3.335175-26.301066-2.523987c-4.037886 0.811188-3.41192 4.370224 0.222407 5.162873 3.634328 0.792649 26.078659-2.638886 26.078659-2.638886z" fill="#d4d4d4"/>
      </g>
      <g id="use19131-7" transform="matrix(-.566502 .30269742 -.30269742 -.566502 -31.51968 -22.63292)">
        <rect id="rect19405-4" x="47.019096" y="74.071182" width="151.36285" height="9.661458" fill="none"/>
        <path id="path19407-5" d="m76.37887 79.190926s-22.263181-3.335175-26.301066-2.523987c-4.037886 0.811188-3.41192 4.370224 0.222407 5.162873 3.634328 0.792649 26.078659-2.638886 26.078659-2.638886z" fill="#d4d4d4"/>
      </g>
      <g id="use19133" transform="matrix(-.66709753 .46269862 -.46269862 -.66709753 -19.67578 -34.53407)">
        <rect id="rect19411" x="47.019096" y="74.071182" width="151.36285" height="9.661458" fill="none"/>
        <path id="path19413" d="m76.37887 79.190926s-22.263181-3.335175-26.301066-2.523987c-4.037886 0.811188-3.41192 4.370224 0.222407 5.162873 3.634328 0.792649 26.078659-2.638886 26.078659-2.638886z" fill="#d4d4d4"/>
      </g>
      <g id="use19137" transform="matrix(-1.1073959 .5792062 -.5792062 -1.1073959 43.29737 -14.17225)">
        <rect id="rect19423" x="47.019096" y="74.071182" width="151.36285" height="9.661458" fill="none"/>
        <path id="path19425" d="m76.37887 79.190926s-22.263181-3.335175-26.301066-2.523987c-4.037886 0.811188-3.41192 4.370224 0.222407 5.162873 3.634328 0.792649 26.078659-2.638886 26.078659-2.638886z" fill="#d4d4d4"/>
      </g>
      <g id="use19139-2" transform="matrix(-.23178581 -.02149098 .02149098 -.23178581 -98.44689 -9.6433)">
        <rect id="rect19429-5" x="47.019096" y="74.071182" width="151.36285" height="9.661458" fill="none"/>
        <path id="path19431-4" d="m76.37887 79.190926s-22.263181-3.335175-26.301066-2.523987c-4.037886 0.811188-3.41192 4.370224 0.222407 5.162873 3.634328 0.792649 26.078659-2.638886 26.078659-2.638886z" fill="#d4d4d4"/>
      </g>
      <g id="use19141-7" transform="matrix(-.43197852 .00016276044 -.00016276044 -.43197852 -80.1153 4.1301)">
        <rect id="rect19435-4" x="47.019096" y="74.071182" width="151.36285" height="9.661458" fill="none"/>
        <path id="path19437-4" d="m76.37887 79.190926s-22.263181-3.335175-26.301066-2.523987c-4.037886 0.811188-3.41192 4.370224 0.222407 5.162873 3.634328 0.792649 26.078659-2.638886 26.078659-2.638886z" fill="#d4d4d4"/>
      </g>
      <g id="use19143-3" transform="matrix(-.65485199 -.00051134151 .00051134151 -.65485199 -53.25463 21.669)">
        <rect id="rect19441-0" x="47.019096" y="74.071182" width="151.36285" height="9.661458" fill="none"/>
        <path id="path19443-7" d="m76.37887 79.190926s-22.263181-3.335175-26.301066-2.523987c-4.037886 0.811188-3.41192 4.370224 0.222407 5.162873 3.634328 0.792649 26.078659-2.638886 26.078659-2.638886z" fill="#d4d4d4"/>
      </g>
      <g id="use19145" transform="matrix(-.83434342 -.04629409 .04629409 -.83434342 -29.10481 36.74608)">
        <rect id="rect19447" x="47.019096" y="74.071182" width="151.36285" height="9.661458" fill="none"/>
        <path id="path19449" d="m76.37887 79.190926s-22.263181-3.335175-26.301066-2.523987c-4.037886 0.811188-3.41192 4.370224 0.222407 5.162873 3.634328 0.792649 26.078659-2.638886 26.078659-2.638886z" fill="#d4d4d4"/>
      </g>
      <g id="use19147" transform="matrix(-1.0416233 -.08347752 .08347752 -1.0416233 -5.11022 62.57288)">
        <rect id="rect19453" x="47.019096" y="74.071182" width="151.36285" height="9.661458" fill="none"/>
        <path id="path19455" d="m76.37887 79.190926s-22.263181-3.335175-26.301066-2.523987c-4.037886 0.811188-3.41192 4.370224 0.222407 5.162873 3.634328 0.792649 26.078659-2.638886 26.078659-2.638886z" fill="#d4d4d4"/>
      </g>
      <g id="use19151-8" transform="matrix(-.20130418 -.14150908 .14150908 -.20130418 -122.09813 2.85837)">
        <rect id="rect19465-6" x="47.019096" y="74.071182" width="151.36285" height="9.661458" fill="none"/>
        <path id="path19467-8" d="m76.37887 79.190926s-22.263181-3.335175-26.301066-2.523987c-4.037886 0.811188-3.41192 4.370224 0.222407 5.162873 3.634328 0.792649 26.078659-2.638886 26.078659-2.638886z" fill="#d4d4d4"/>
      </g>
      <g id="use19153-8" transform="matrix(-.37798519 -.20321248 .20321248 -.37798519 -105.00922 24.27134)">
        <rect id="rect19471-4" x="47.019096" y="74.071182" width="151.36285" height="9.661458" fill="none"/>
        <path id="path19473-3" d="m76.37887 79.190926s-22.263181-3.335175-26.301066-2.523987c-4.037886 0.811188-3.41192 4.370224 0.222407 5.162873 3.634328 0.792649 26.078659-2.638886 26.078659-2.638886z" fill="#d4d4d4"/>
      </g>
      <g id="use19155-1" transform="matrix(-.55174853 -.35508747 .35508747 -.55174853 -97.69871 56.5181)">
        <rect id="rect19477-4" x="47.019096" y="74.071182" width="151.36285" height="9.661458" fill="none"/>
        <path id="path19479-9" d="m76.37887 79.190926s-22.263181-3.335175-26.301066-2.523987c-4.037886 0.811188-3.41192 4.370224 0.222407 5.162873 3.634328 0.792649 26.078659-2.638886 26.078659-2.638886z" fill="#d4d4d4"/>
      </g>
      <g id="use19157-2" transform="matrix(-.66230811 -.49101715 .49101715 -.66230811 -95.74056 82.07979)">
        <rect id="rect19483-0" x="47.019096" y="74.071182" width="151.36285" height="9.661458" fill="none"/>
        <path id="path19485-6" d="m76.37887 79.190926s-22.263181-3.335175-26.301066-2.523987c-4.037886 0.811188-3.41192 4.370224 0.222407 5.162873 3.634328 0.792649 26.078659-2.638886 26.078659-2.638886z" fill="#d4d4d4"/>
      </g>
      <g id="use19159" transform="matrix(-.88929357 -.5338423 .5338423 -.88929357 -65.1662 105.15785)">
        <rect id="rect19489" x="47.019096" y="74.071182" width="151.36285" height="9.661458" fill="none"/>
        <path id="path19491" d="m76.37887 79.190926s-22.263181-3.335175-26.301066-2.523987c-4.037886 0.811188-3.41192 4.370224 0.222407 5.162873 3.634328 0.792649 26.078659-2.638886 26.078659-2.638886z" fill="#d4d4d4"/>
      </g>
      <g id="use19161" transform="matrix(-1.053715 -.58518343 .58518343 -1.053715 -52.43128 124.67907)">
        <rect id="rect19495" x="47.019096" y="74.071182" width="151.36285" height="9.661458" fill="none"/>
        <path id="path19497" d="m76.37887 79.190926s-22.263181-3.335175-26.301066-2.523987c-4.037886 0.811188-3.41192 4.370224 0.222407 5.162873 3.634328 0.792649 26.078659-2.638886 26.078659-2.638886z" fill="#d4d4d4"/>
      </g>
      <g id="use19163-8" transform="matrix(-.09528372 -.20182886 .20182886 -.09528372 -139.64336 1.80307)">
        <rect id="rect19501-9" x="47.019096" y="74.071182" width="151.36285" height="9.661458" fill="none"/>
        <path id="path19503-2" d="m76.37887 79.190926s-22.263181-3.335175-26.301066-2.523987c-4.037886 0.811188-3.41192 4.370224 0.222407 5.162873 3.634328 0.792649 26.078659-2.638886 26.078659-2.638886z" fill="#d4d4d4"/>
      </g>
      <g id="use19165-6" transform="matrix(-.24934981 -.33648279 .33648279 -.24934981 -123.20193 30.76463)">
        <rect id="rect19507-6" x="47.019096" y="74.071182" width="151.36285" height="9.661458" fill="none"/>
        <path id="path19509-4" d="m76.37887 79.190926s-22.263181-3.335175-26.301066-2.523987c-4.037886 0.811188-3.41192 4.370224 0.222407 5.162873 3.634328 0.792649 26.078659-2.638886 26.078659-2.638886z" fill="#d4d4d4"/>
      </g>
      <g id="use19167-9" transform="matrix(-.2691354 -.58522598 .58522598 -.2691354 -144.0935 63.17507)">
        <rect id="rect19513-5" x="47.019096" y="74.071182" width="151.36285" height="9.661458" fill="none"/>
        <path id="path19515-0" d="m76.37887 79.190926s-22.263181-3.335175-26.301066-2.523987c-4.037886 0.811188-3.41192 4.370224 0.222407 5.162873 3.634328 0.792649 26.078659-2.638886 26.078659-2.638886z" fill="#d4d4d4"/>
      </g>
      <g id="use19169" transform="matrix(-.39040394 -.75569396 .75569396 -.39040394 -143.73298 92.85791)">
        <rect id="rect19519" x="47.019096" y="74.071182" width="151.36285" height="9.661458" fill="none"/>
        <path id="path19521" d="m76.37887 79.190926s-22.263181-3.335175-26.301066-2.523987c-4.037886 0.811188-3.41192 4.370224 0.222407 5.162873 3.634328 0.792649 26.078659-2.638886 26.078659-2.638886z" fill="#d4d4d4"/>
      </g>
      <g id="use19171" transform="matrix(-.4512532 -.90319187 .90319187 -.4512532 -151.57523 116.14899)">
        <rect id="rect19525" x="47.019096" y="74.071182" width="151.36285" height="9.661458" fill="none"/>
        <path id="path19527" d="m76.37887 79.190926s-22.263181-3.335175-26.301066-2.523987c-4.037886 0.811188-3.41192 4.370224 0.222407 5.162873 3.634328 0.792649 26.078659-2.638886 26.078659-2.638886z" fill="#d4d4d4"/>
      </g>
      <g id="use19173" transform="matrix(-.73861116 -.98037441 .98037441 -.73861116 -114.42284 147.80072)">
        <rect id="rect19531" x="47.019096" y="74.071182" width="151.36285" height="9.661458" fill="none"/>
        <path id="path19533" d="m76.37887 79.190926s-22.263181-3.335175-26.301066-2.523987c-4.037886 0.811188-3.41192 4.370224 0.222407 5.162873 3.634328 0.792649 26.078659-2.638886 26.078659-2.638886z" fill="#d4d4d4"/>
      </g>
      <g id="use19175-4" transform="matrix(-.02022226 -.24960761 .24960761 -.02022226 -145.24487 2.24457)">
        <rect id="rect19537-8" x="47.019096" y="74.071182" width="151.36285" height="9.661458" fill="none"/>
        <path id="path19539-7" d="m76.37887 79.190926s-22.263181-3.335175-26.301066-2.523987c-4.037886 0.811188-3.41192 4.370224 0.222407 5.162873 3.634328 0.792649 26.078659-2.638886 26.078659-2.638886z" fill="#d4d4d4"/>
      </g>
      <g id="use19177-1" transform="matrix(.0484876 -.42054584 .42054584 .0484876 -170.26486 17.52094)">
        <rect id="rect19543-7" x="47.019096" y="74.071182" width="151.36285" height="9.661458" fill="none"/>
        <path id="path19545-2" d="m76.37887 79.190926s-22.263181-3.335175-26.301066-2.523987c-4.037886 0.811188-3.41192 4.370224 0.222407 5.162873 3.634328 0.792649 26.078659-2.638886 26.078659-2.638886z" fill="#d4d4d4"/>
      </g>
      <g id="use19179-7" transform="matrix(.02183949 -.66145199 .66145199 .02183949 -188.72851 49.4223)">
        <rect id="rect19549-2" x="47.019096" y="74.071182" width="151.36285" height="9.661458" fill="none"/>
        <path id="path19551-2" d="m76.37887 79.190926s-22.263181-3.335175-26.301066-2.523987c-4.037886 0.811188-3.41192 4.370224 0.222407 5.162873 3.634328 0.792649 26.078659-2.638886 26.078659-2.638886z" fill="#d4d4d4"/>
      </g>
      <g id="use19181" transform="matrix(-.09340275 -.84138858 .84138858 -.09340275 -181.58815 80.27862)">
        <rect id="rect19555" x="47.019096" y="74.071182" width="151.36285" height="9.661458" fill="none"/>
        <path id="path19557" d="m76.37887 79.190926s-22.263181-3.335175-26.301066-2.523987c-4.037886 0.811188-3.41192 4.370224 0.222407 5.162873 3.634328 0.792649 26.078659-2.638886 26.078659-2.638886z" fill="#d4d4d4"/>
      </g>
      <g id="use19183" transform="matrix(.04542146 -1.0304989 1.0304989 .04542146 -224.61894 92.61766)">
        <rect id="rect19561" x="47.019096" y="74.071182" width="151.36285" height="9.661458" fill="none"/>
        <path id="path19563" d="m76.37887 79.190926s-22.263181-3.335175-26.301066-2.523987c-4.037886 0.811188-3.41192 4.370224 0.222407 5.162873 3.634328 0.792649 26.078659-2.638886 26.078659-2.638886z" fill="#d4d4d4"/>
      </g>
      <g id="use19185" transform="matrix(.14920836 -1.1982367 1.1982367 .14920836 -240.30619 105.2962)">
        <rect id="rect19567" x="47.019096" y="74.071182" width="151.36285" height="9.661458" fill="none"/>
        <path id="path19569" d="m76.37887 79.190926s-22.263181-3.335175-26.301066-2.523987c-4.037886 0.811188-3.41192 4.370224 0.222407 5.162873 3.634328 0.792649 26.078659-2.638886 26.078659-2.638886z" fill="#d4d4d4"/>
      </g>
      <g id="use19187-6" transform="matrix(.1146449 -.19269425 .19269425 .1146449 -157.61293 -16.0725)">
        <rect id="rect19573-1" x="47.019096" y="74.071182" width="151.36285" height="9.661458" fill="none"/>
        <path id="path19575-0" d="m76.37887 79.190926s-22.263181-3.335175-26.301066-2.523987c-4.037886 0.811188-3.41192 4.370224 0.222407 5.162873 3.634328 0.792649 26.078659-2.638886 26.078659-2.638886z" fill="#d4d4d4"/>
      </g>
      <g id="use19189-6" transform="matrix(.1820425 -.4141511 .4141511 .1820425 -189.6068 6.32837)">
        <rect id="rect19579-1" x="47.019096" y="74.071182" width="151.36285" height="9.661458" fill="none"/>
        <path id="path19581-5" d="m76.37887 79.190926s-22.263181-3.335175-26.301066-2.523987c-4.037886 0.811188-3.41192 4.370224 0.222407 5.162873 3.634328 0.792649 26.078659-2.638886 26.078659-2.638886z" fill="#d4d4d4"/>
      </g>
      <g id="use19191-9" transform="matrix(.3448662 -.53553857 .53553857 .3448662 -213.44445 7.95533)">
        <rect id="rect19585-4" x="47.019096" y="74.071182" width="151.36285" height="9.661458" fill="none"/>
        <path id="path19587-9" d="m76.37887 79.190926s-22.263181-3.335175-26.301066-2.523987c-4.037886 0.811188-3.41192 4.370224 0.222407 5.162873 3.634328 0.792649 26.078659-2.638886 26.078659-2.638886z" fill="#d4d4d4"/>
      </g>
      <g id="use19193" transform="matrix(.36718609 -.74666617 .74666617 .36718609 -235.71559 31.93924)">
        <rect id="rect19591" x="47.019096" y="74.071182" width="151.36285" height="9.661458" fill="none"/>
        <path id="path19593" d="m76.37887 79.190926s-22.263181-3.335175-26.301066-2.523987c-4.037886 0.811188-3.41192 4.370224 0.222407 5.162873 3.634328 0.792649 26.078659-2.638886 26.078659-2.638886z" fill="#d4d4d4"/>
      </g>
      <g id="use19195" transform="matrix(.40737672 -.96747611 .96747611 .40737672 -263.36342 56.15106)">
        <rect id="rect19597" x="47.019096" y="74.071182" width="151.36285" height="9.661458" fill="none"/>
        <path id="path19599" d="m76.37887 79.190926s-22.263181-3.335175-26.301066-2.523987c-4.037886 0.811188-3.41192 4.370224 0.222407 5.162873 3.634328 0.792649 26.078659-2.638886 26.078659-2.638886z" fill="#d4d4d4"/>
      </g>
      <g id="use19197" transform="matrix(.64981606 -1.0630071 1.0630071 .64981606 -301.93152 48.39073)">
        <rect id="rect19603" x="47.019096" y="74.071182" width="151.36285" height="9.661458" fill="none"/>
        <path id="path19605" d="m76.37887 79.190926s-22.263181-3.335175-26.301066-2.523987c-4.037886 0.811188-3.41192 4.370224 0.222407 5.162873 3.634328 0.792649 26.078659-2.638886 26.078659-2.638886z" fill="#d4d4d4"/>
      </g>
      <g id="use19199-0" transform="matrix(.1988965 -.14874282 .14874282 .1988965 -162.43603 -27.33247)">
        <rect id="rect19609-9" x="47.019096" y="74.071182" width="151.36285" height="9.661458" fill="none"/>
        <path id="path19611-1" d="m76.37887 79.190926s-22.263181-3.335175-26.301066-2.523987c-4.037886 0.811188-3.41192 4.370224 0.222407 5.162873 3.634328 0.792649 26.078659-2.638886 26.078659-2.638886z" fill="#d4d4d4"/>
      </g>
      <g id="use19201-7" transform="matrix(.38121731 -.19913805 .19913805 .38121731 -199.20473 -36.31378)">
        <rect id="rect19615-7" x="47.019096" y="74.071182" width="151.36285" height="9.661458" fill="none"/>
        <path id="path19617-1" d="m76.37887 79.190926s-22.263181-3.335175-26.301066-2.523987c-4.037886 0.811188-3.41192 4.370224 0.222407 5.162873 3.634328 0.792649 26.078659-2.638886 26.078659-2.638886z" fill="#d4d4d4"/>
      </g>
      <g id="use19203-1" transform="matrix(.54586402 -.37735985 .37735985 .54586402 -223.77151 -26.68814)">
        <rect id="rect19621-5" x="47.019096" y="74.071182" width="151.36285" height="9.661458" fill="none"/>
        <path id="path19623-9" d="m76.37887 79.190926s-22.263181-3.335175-26.301066-2.523987c-4.037886 0.811188-3.41192 4.370224 0.222407 5.162873 3.634328 0.792649 26.078659-2.638886 26.078659-2.638886z" fill="#d4d4d4"/>
      </g>
      <g id="use19205" transform="matrix(.74973054 -.32982976 .32982976 .74973054 -246.56831 -49.35195)">
        <rect id="rect19627" x="47.019096" y="74.071182" width="151.36285" height="9.661458" fill="none"/>
        <path id="path19629" d="m76.37887 79.190926s-22.263181-3.335175-26.301066-2.523987c-4.037886 0.811188-3.41192 4.370224 0.222407 5.162873 3.634328 0.792649 26.078659-2.638886 26.078659-2.638886z" fill="#d4d4d4"/>
      </g>
      <g id="use19207" transform="matrix(.90192793 -.45257483 .45257483 .90192793 -284.34738 -48.7234)">
        <rect id="rect19633" x="47.019096" y="74.071182" width="151.36285" height="9.661458" fill="none"/>
        <path id="path19635" d="m76.37887 79.190926s-22.263181-3.335175-26.301066-2.523987c-4.037886 0.811188-3.41192 4.370224 0.222407 5.162873 3.634328 0.792649 26.078659-2.638886 26.078659-2.638886z" fill="#d4d4d4"/>
      </g>
      <g id="use19209" transform="matrix(1.0788061 -.55872469 .55872469 1.0788061 -305.92606 -46.92303)">
        <rect id="rect19639" x="47.019096" y="74.071182" width="151.36285" height="9.661458" fill="none"/>
        <path id="path19641" d="m76.37887 79.190926s-22.263181-3.335175-26.301066-2.523987c-4.037886 0.811188-3.41192 4.370224 0.222407 5.162873 3.634328 0.792649 26.078659-2.638886 26.078659-2.638886z" fill="#d4d4d4"/>
      </g>
    </g>
  </g>
  <g fill="#5e4aa6">
    <circle id="circle284" cx="-1326.3" cy="-1241.6" r="0"/>
    <circle id="circle286" cx="-226.72" cy="23.855" r="0" fill-rule="evenodd"/>
    <g id="g401">
      <g id="g37" transform="matrix(3.779602,0,0,3.779602,-86.254239,-25.073331)" stroke-width=".26458">
        <circle id="circle17" cx="-330.35001" cy="-328.38" r="0"/>
        <circle id="circle19" cx="-39.433998" cy="6.4400001" r="0" fill-rule="evenodd"/>
        <g id="g35" transform="translate(3.0032e-4,-9.9674e-5)">
          <circle id="circle21" cx="-347.64001" cy="-328.38" r="0"/>
          <circle id="circle23" cx="-56.726002" cy="6.4400001" r="0" fill-rule="evenodd"/>
          <g id="g33" transform="translate(-.0272 .0065001)">
            <circle id="circle25" cx="-330.35001" cy="-328.38" r="0"/>
            <circle id="circle27" cx="-312.10999" cy="-326.25" r="0"/>
            <circle id="circle29" cx="-306.01999" cy="-333.07001" r="0"/>
            <circle id="circle31" cx="-308.84" cy="-326.01001" r="0"/>
          </g>
        </g>
      </g>
      <circle id="circle906" cx="-1317.1176" cy="-1308.7085" r="0"/>
      <g id="g399" stroke-width="1.00001">
        <circle id="circle908" cx="-1198.6641" cy="-1348.0082" r="0"/>
        <circle id="circle910" cx="-99.125717" cy="-82.517036" r="0" fill-rule="evenodd"/>
        <circle id="circle912" cx="-1120.1617" cy="-1419.5183" r="0"/>
        <circle id="circle914" cx="-20.626404" cy="-153.99043" r="0" fill-rule="evenodd"/>
      </g>
    </g>
  </g>
  <g id="g3786" transform="matrix(.9196437 0 0 .9211146 -22.705206 35.844999)">
    <path id="path1756" d="m35.055079-19.121795 4.208599 15.706671 15.706654-4.208591-5.974564-3.4494243c3.810119-6.599335 12.248653-8.860434 18.847998-5.050307 6.599346 3.810129 8.860444 12.24867 5.050302 18.848003-3.810119 6.599337-12.248653 8.8604377-18.847999 5.05031-2.154394-1.250222-3.930088-3.060462-5.138767-5.238453l-9.043609 2.423229c1.95541 4.52856 5.315148 8.3083587 9.583145 10.781326 10.998903 6.350215 25.063125 2.581715 31.413329-8.4171787 6.350229-10.998891 2.581734-25.063126-8.417168-31.413339-10.998903-6.350213-25.063125-2.581712-31.41333 8.417178z" fill="#234567" fill-opacity=".752941" opacity=".7" stroke-width="1.08651"/>
    <g id="g4934" transform="matrix(.33114957 0 0 .32426926 53.996356 -34.739281)" stroke-width="3.31565">
      <g stroke-width="3.31565">
        <g id="use19067" transform="matrix(.25132952 -.01370606 .01370606 .25132952 -7.206371 79.902883)">
          <rect id="rect19213" x="47.019096" y="74.071182" width="151.36285" height="9.661458" fill="none"/>
          <path id="path19215" d="m76.37887 79.190926s-22.263181-3.335175-26.301066-2.523987c-4.037886 0.811188-3.41192 4.370224 0.222407 5.162873 3.634328 0.792649 26.078659-2.638886 26.078659-2.638886z" fill="#d4d4d4"/>
        </g>
        <g id="use19069" transform="matrix(.43270303 -9.8496855e-5 9.8496855e-5 .43270303 -31.960524 64.251538)">
          <rect id="rect19219" x="47.019096" y="74.071182" width="151.36285" height="9.661458" fill="none"/>
          <path id="path19221" d="m76.37887 79.190926s-22.263181-3.335175-26.301066-2.523987c-4.037886 0.811188-3.41192 4.370224 0.222407 5.162873 3.634328 0.792649 26.078659-2.638886 26.078659-2.638886z" fill="#d4d4d4"/>
        </g>
        <g id="use19071" transform="matrix(.63319016 .0432812 -.0432812 .63319016 -40.562864 43.021318)">
          <rect id="rect19225" x="47.019096" y="74.071182" width="151.36285" height="9.661458" fill="none"/>
          <path id="path19227" d="m76.37887 79.190926s-22.263181-3.335175-26.301066-2.523987c-4.037886 0.811188-3.41192 4.370224 0.222407 5.162873 3.634328 0.792649 26.078659-2.638886 26.078659-2.638886z" fill="#d4d4d4"/>
        </g>
        <g id="use19079" transform="matrix(.20230364 .13307621 -.13307621 .20230364 16.191523 66.447598)">
          <rect id="rect19249" x="47.019096" y="74.071182" width="151.36285" height="9.661458" fill="none"/>
          <path id="path19251" d="m76.37887 79.190926s-22.263181-3.335175-26.301066-2.523987c-4.037886 0.811188-3.41192 4.370224 0.222407 5.162873 3.634328 0.792649 26.078659-2.638886 26.078659-2.638886z" fill="#d4d4d4"/>
        </g>
        <g id="use19081" transform="matrix(.37686493 .18589121 -.18589121 .37686493 -.894322 45.510708)">
          <rect id="rect19255" x="47.019096" y="74.071182" width="151.36285" height="9.661458" fill="none"/>
          <path id="path19257" d="m76.37887 79.190926s-22.263181-3.335175-26.301066-2.523987c-4.037886 0.811188-3.41192 4.370224 0.222407 5.162873 3.634328 0.792649 26.078659-2.638886 26.078659-2.638886z" fill="#d4d4d4"/>
        </g>
        <g id="use19083" transform="matrix(.53259055 .31108575 -.31108575 .53259055 -18.058587 17.945798)">
          <rect id="rect19261" x="47.019096" y="74.071182" width="151.36285" height="9.661458" fill="none"/>
          <path id="path19263" d="m76.37887 79.190926s-22.263181-3.335175-26.301066-2.523987c-4.037886 0.811188-3.41192 4.370224 0.222407 5.162873 3.634328 0.792649 26.078659-2.638886 26.078659-2.638886z" fill="#d4d4d4"/>
        </g>
        <g id="use19091" transform="matrix(.10931014 .20425354 -.20425354 .10931014 32.881493 64.671458)">
          <rect id="rect19285" x="47.019096" y="74.071182" width="151.36285" height="9.661458" fill="none"/>
          <path id="path19287" d="m76.37887 79.190926s-22.263181-3.335175-26.301066-2.523987c-4.037886 0.811188-3.41192 4.370224 0.222407 5.162873 3.634328 0.792649 26.078659-2.638886 26.078659-2.638886z" fill="#d4d4d4"/>
        </g>
        <g id="use19093" transform="matrix(.25611373 .3813573 -.3813573 .25611373 29.659833 31.697238)">
          <rect id="rect19291" x="47.019096" y="74.071182" width="151.36285" height="9.661458" fill="none"/>
          <path id="path19293" d="m76.37887 79.190926s-22.263181-3.335175-26.301066-2.523987c-4.037886 0.811188-3.41192 4.370224 0.222407 5.162873 3.634328 0.792649 26.078659-2.638886 26.078659-2.638886z" fill="#d4d4d4"/>
        </g>
        <g id="use19095" transform="matrix(.28846172 .59061642 -.59061642 .28846172 36.995383 3.5143177)">
          <rect id="rect19297" x="47.019096" y="74.071182" width="151.36285" height="9.661458" fill="none"/>
          <path id="path19299" d="m76.37887 79.190926s-22.263181-3.335175-26.301066-2.523987c-4.037886 0.811188-3.41192 4.370224 0.222407 5.162873 3.634328 0.792649 26.078659-2.638886 26.078659-2.638886z" fill="#d4d4d4"/>
        </g>
        <g id="use19103" transform="matrix(-.01142324 .26829054 -.26829054 -.01142324 46.618433 66.341218)">
          <rect id="rect19321" x="47.019096" y="74.071182" width="151.36285" height="9.661458" fill="none"/>
          <path id="path19323" d="m76.37887 79.190926s-22.263181-3.335175-26.301066-2.523987c-4.037886 0.811188-3.41192 4.370224 0.222407 5.162873 3.634328 0.792649 26.078659-2.638886 26.078659-2.638886z" fill="#d4d4d4"/>
        </g>
        <g id="use19105" transform="matrix(-.04824191 .44226501 -.44226501 -.04824191 70.969883 47.984048)">
          <rect id="rect19327" x="47.019096" y="74.071182" width="151.36285" height="9.661458" fill="none"/>
          <path id="path19329" d="m76.37887 79.190926s-22.263181-3.335175-26.301066-2.523987c-4.037886 0.811188-3.41192 4.370224 0.222407 5.162873 3.634328 0.792649 26.078659-2.638886 26.078659-2.638886z" fill="#d4d4d4"/>
        </g>
        <g id="use19115" transform="matrix(-.11661885 .22838881 -.22838881 -.11661885 55.134063 79.026493)">
          <rect id="rect19357" x="47.019096" y="74.071182" width="151.36285" height="9.661458" fill="none"/>
          <path id="path19359" d="m76.37887 79.190926s-22.263181-3.335175-26.301066-2.523987c-4.037886 0.811188-3.41192 4.370224 0.222407 5.162873 3.634328 0.792649 26.078659-2.638886 26.078659-2.638886z" fill="#d4d4d4"/>
        </g>
        <g id="use19117" transform="matrix(-.21926001 .38069147 -.38069147 -.21926001 79.704343 69.144888)">
          <rect id="rect19363" x="47.019096" y="74.071182" width="151.36285" height="9.661458" fill="none"/>
          <path id="path19365" d="m76.37887 79.190926s-22.263181-3.335175-26.301066-2.523987c-4.037886 0.811188-3.41192 4.370224 0.222407 5.162873 3.634328 0.792649 26.078659-2.638886 26.078659-2.638886z" fill="#d4d4d4"/>
        </g>
        <g id="use19119" transform="matrix(-.32447267 .53255338 -.53255338 -.32447267 114.80928 58.661158)">
          <rect id="rect19369" x="47.019096" y="74.071182" width="151.36285" height="9.661458" fill="none"/>
          <path id="path19371" d="m76.37887 79.190926s-22.263181-3.335175-26.301066-2.523987c-4.037886 0.811188-3.41192 4.370224 0.222407 5.162873 3.634328 0.792649 26.078659-2.638886 26.078659-2.638886z" fill="#d4d4d4"/>
        </g>
        <g id="use19127" transform="matrix(-.21429807 .10300035 -.10300035 -.21429807 68.968173 102.75381)">
          <rect id="rect19393" x="47.019096" y="74.071182" width="151.36285" height="9.661458" fill="none"/>
          <path id="path19395" d="m76.37887 79.190926s-22.263181-3.335175-26.301066-2.523987c-4.037886 0.811188-3.41192 4.370224 0.222407 5.162873 3.634328 0.792649 26.078659-2.638886 26.078659-2.638886z" fill="#d4d4d4"/>
        </g>
        <g id="use19129" transform="matrix(-.36822306 .2328045 -.2328045 -.36822306 85.546093 98.822473)">
          <rect id="rect19399" x="47.019096" y="74.071182" width="151.36285" height="9.661458" fill="none"/>
          <path id="path19401" d="m76.37887 79.190926s-22.263181-3.335175-26.301066-2.523987c-4.037886 0.811188-3.41192 4.370224 0.222407 5.162873 3.634328 0.792649 26.078659-2.638886 26.078659-2.638886z" fill="#d4d4d4"/>
        </g>
        <g id="use19131" transform="matrix(-.566502 .30269742 -.30269742 -.566502 127.22487 105.95968)">
          <rect id="rect19405" x="47.019096" y="74.071182" width="151.36285" height="9.661458" fill="none"/>
          <path id="path19407" d="m76.37887 79.190926s-22.263181-3.335175-26.301066-2.523987c-4.037886 0.811188-3.41192 4.370224 0.222407 5.162873 3.634328 0.792649 26.078659-2.638886 26.078659-2.638886z" fill="#d4d4d4"/>
        </g>
        <g id="use19139" transform="matrix(-.23178581 -.02149098 .02149098 -.23178581 60.297663 118.9493)">
          <rect id="rect19429" x="47.019096" y="74.071182" width="151.36285" height="9.661458" fill="none"/>
          <path id="path19431" d="m76.37887 79.190926s-22.263181-3.335175-26.301066-2.523987c-4.037886 0.811188-3.41192 4.370224 0.222407 5.162873 3.634328 0.792649 26.078659-2.638886 26.078659-2.638886z" fill="#d4d4d4"/>
        </g>
        <g id="use19141" transform="matrix(-.43197852 .00016276044 -.00016276044 -.43197852 78.629253 132.7227)">
          <rect id="rect19435" x="47.019096" y="74.071182" width="151.36285" height="9.661458" fill="none"/>
          <path id="path19437" d="m76.37887 79.190926s-22.263181-3.335175-26.301066-2.523987c-4.037886 0.811188-3.41192 4.370224 0.222407 5.162873 3.634328 0.792649 26.078659-2.638886 26.078659-2.638886z" fill="#d4d4d4"/>
        </g>
        <g id="use19143" transform="matrix(-.65485199 -.00051134151 .00051134151 -.65485199 105.48992 150.2616)">
          <rect id="rect19441" x="47.019096" y="74.071182" width="151.36285" height="9.661458" fill="none"/>
          <path id="path19443" d="m76.37887 79.190926s-22.263181-3.335175-26.301066-2.523987c-4.037886 0.811188-3.41192 4.370224 0.222407 5.162873 3.634328 0.792649 26.078659-2.638886 26.078659-2.638886z" fill="#d4d4d4"/>
        </g>
        <g id="use19151" transform="matrix(-.20130418 -.14150908 .14150908 -.20130418 36.646423 131.45097)">
          <rect id="rect19465" x="47.019096" y="74.071182" width="151.36285" height="9.661458" fill="none"/>
          <path id="path19467" d="m76.37887 79.190926s-22.263181-3.335175-26.301066-2.523987c-4.037886 0.811188-3.41192 4.370224 0.222407 5.162873 3.634328 0.792649 26.078659-2.638886 26.078659-2.638886z" fill="#d4d4d4"/>
        </g>
        <g id="use19153" transform="matrix(-.37798519 -.20321248 .20321248 -.37798519 53.735333 152.86394)">
          <rect id="rect19471" x="47.019096" y="74.071182" width="151.36285" height="9.661458" fill="none"/>
          <path id="path19473" d="m76.37887 79.190926s-22.263181-3.335175-26.301066-2.523987c-4.037886 0.811188-3.41192 4.370224 0.222407 5.162873 3.634328 0.792649 26.078659-2.638886 26.078659-2.638886z" fill="#d4d4d4"/>
        </g>
        <g id="use19155" transform="matrix(-.55174853 -.35508747 .35508747 -.55174853 61.045843 185.1107)">
          <rect id="rect19477" x="47.019096" y="74.071182" width="151.36285" height="9.661458" fill="none"/>
          <path id="path19479" d="m76.37887 79.190926s-22.263181-3.335175-26.301066-2.523987c-4.037886 0.811188-3.41192 4.370224 0.222407 5.162873 3.634328 0.792649 26.078659-2.638886 26.078659-2.638886z" fill="#d4d4d4"/>
        </g>
        <g id="use19157" transform="matrix(-.66230811 -.49101715 .49101715 -.66230811 63.003993 210.67239)">
          <rect id="rect19483" x="47.019096" y="74.071182" width="151.36285" height="9.661458" fill="none"/>
          <path id="path19485" d="m76.37887 79.190926s-22.263181-3.335175-26.301066-2.523987c-4.037886 0.811188-3.41192 4.370224 0.222407 5.162873 3.634328 0.792649 26.078659-2.638886 26.078659-2.638886z" fill="#d4d4d4"/>
        </g>
        <g id="use19163" transform="matrix(-.09528372 -.20182886 .20182886 -.09528372 19.101193 130.39567)">
          <rect id="rect19501" x="47.019096" y="74.071182" width="151.36285" height="9.661458" fill="none"/>
          <path id="path19503" d="m76.37887 79.190926s-22.263181-3.335175-26.301066-2.523987c-4.037886 0.811188-3.41192 4.370224 0.222407 5.162873 3.634328 0.792649 26.078659-2.638886 26.078659-2.638886z" fill="#d4d4d4"/>
        </g>
        <g id="use19165" transform="matrix(-.24934981 -.33648279 .33648279 -.24934981 35.542623 159.35723)">
          <rect id="rect19507" x="47.019096" y="74.071182" width="151.36285" height="9.661458" fill="none"/>
          <path id="path19509" d="m76.37887 79.190926s-22.263181-3.335175-26.301066-2.523987c-4.037886 0.811188-3.41192 4.370224 0.222407 5.162873 3.634328 0.792649 26.078659-2.638886 26.078659-2.638886z" fill="#d4d4d4"/>
        </g>
        <g id="use19167" transform="matrix(-.2691354 -.58522598 .58522598 -.2691354 14.651053 191.76767)">
          <rect id="rect19513" x="47.019096" y="74.071182" width="151.36285" height="9.661458" fill="none"/>
          <path id="path19515" d="m76.37887 79.190926s-22.263181-3.335175-26.301066-2.523987c-4.037886 0.811188-3.41192 4.370224 0.222407 5.162873 3.634328 0.792649 26.078659-2.638886 26.078659-2.638886z" fill="#d4d4d4"/>
        </g>
        <g id="use19175" transform="matrix(-.02022226 -.24960761 .24960761 -.02022226 13.499683 130.83717)">
          <rect id="rect19537" x="47.019096" y="74.071182" width="151.36285" height="9.661458" fill="none"/>
          <path id="path19539" d="m76.37887 79.190926s-22.263181-3.335175-26.301066-2.523987c-4.037886 0.811188-3.41192 4.370224 0.222407 5.162873 3.634328 0.792649 26.078659-2.638886 26.078659-2.638886z" fill="#d4d4d4"/>
        </g>
        <g id="use19177" transform="matrix(.0484876 -.42054584 .42054584 .0484876 -11.520303 146.11354)">
          <rect id="rect19543" x="47.019096" y="74.071182" width="151.36285" height="9.661458" fill="none"/>
          <path id="path19545" d="m76.37887 79.190926s-22.263181-3.335175-26.301066-2.523987c-4.037886 0.811188-3.41192 4.370224 0.222407 5.162873 3.634328 0.792649 26.078659-2.638886 26.078659-2.638886z" fill="#d4d4d4"/>
        </g>
        <g id="use19179" transform="matrix(.02183949 -.66145199 .66145199 .02183949 -29.983958 178.0149)">
          <rect id="rect19549" x="47.019096" y="74.071182" width="151.36285" height="9.661458" fill="none"/>
          <path id="path19551" d="m76.37887 79.190926s-22.263181-3.335175-26.301066-2.523987c-4.037886 0.811188-3.41192 4.370224 0.222407 5.162873 3.634328 0.792649 26.078659-2.638886 26.078659-2.638886z" fill="#d4d4d4"/>
        </g>
        <g id="use19187" transform="matrix(.1146449 -.19269425 .19269425 .1146449 1.131618 112.5201)">
          <rect id="rect19573" x="47.019096" y="74.071182" width="151.36285" height="9.661458" fill="none"/>
          <path id="path19575" d="m76.37887 79.190926s-22.263181-3.335175-26.301066-2.523987c-4.037886 0.811188-3.41192 4.370224 0.222407 5.162873 3.634328 0.792649 26.078659-2.638886 26.078659-2.638886z" fill="#d4d4d4"/>
        </g>
        <g id="use19189" transform="matrix(.1820425 -.4141511 .4141511 .1820425 -30.86225 134.92097)">
          <rect id="rect19579" x="47.019096" y="74.071182" width="151.36285" height="9.661458" fill="none"/>
          <path id="path19581" d="m76.37887 79.190926s-22.263181-3.335175-26.301066-2.523987c-4.037886 0.811188-3.41192 4.370224 0.222407 5.162873 3.634328 0.792649 26.078659-2.638886 26.078659-2.638886z" fill="#d4d4d4"/>
        </g>
        <g id="use19191" transform="matrix(.3448662 -.53553857 .53553857 .3448662 -54.6999 136.54793)">
          <rect id="rect19585" x="47.019096" y="74.071182" width="151.36285" height="9.661458" fill="none"/>
          <path id="path19587" d="m76.37887 79.190926s-22.263181-3.335175-26.301066-2.523987c-4.037886 0.811188-3.41192 4.370224 0.222407 5.162873 3.634328 0.792649 26.078659-2.638886 26.078659-2.638886z" fill="#d4d4d4"/>
        </g>
        <g id="use19199" transform="matrix(.1988965 -.14874282 .14874282 .1988965 -3.691482 101.26013)">
          <rect id="rect19609" x="47.019096" y="74.071182" width="151.36285" height="9.661458" fill="none"/>
          <path id="path19611" d="m76.37887 79.190926s-22.263181-3.335175-26.301066-2.523987c-4.037886 0.811188-3.41192 4.370224 0.222407 5.162873 3.634328 0.792649 26.078659-2.638886 26.078659-2.638886z" fill="#d4d4d4"/>
        </g>
        <g id="use19201" transform="matrix(.38121731 -.19913805 .19913805 .38121731 -40.46018 92.278823)">
          <rect id="rect19615" x="47.019096" y="74.071182" width="151.36285" height="9.661458" fill="none"/>
          <path id="path19617" d="m76.37887 79.190926s-22.263181-3.335175-26.301066-2.523987c-4.037886 0.811188-3.41192 4.370224 0.222407 5.162873 3.634328 0.792649 26.078659-2.638886 26.078659-2.638886z" fill="#d4d4d4"/>
        </g>
        <g id="use19203" transform="matrix(.54586402 -.37735985 .37735985 .54586402 -65.026959 101.90446)">
          <rect id="rect19621" x="47.019096" y="74.071182" width="151.36285" height="9.661458" fill="none"/>
          <path id="path19623" d="m76.37887 79.190926s-22.263181-3.335175-26.301066-2.523987c-4.037886 0.811188-3.41192 4.370224 0.222407 5.162873 3.634328 0.792649 26.078659-2.638886 26.078659-2.638886z" fill="#d4d4d4"/>
        </g>
      </g>
      <g stroke="#242424">
        <g fill="#242424">
          <path id="path3916" d="m-17.737271 106.39492c-3.05141-4.04688-6.332494-5.71027-8.596507-14.518897-2.403162-9.35001-1.109739-34.3677-3.473231-37.53619-6.606901-8.85719-12.848113-3.26115-14.358876-0.67047-1.26034 2.16125 0.246613 5.97237 0.246613 5.97237-6.028402-1.53109-11.546375-8.15406-12.656645-11.91134 3.174025 0.74591 6.173905 1.37971 8.829571-0.75967 4.590844-3.69835 13.134018-8.84129 20.729381 1.02389 6.049679 7.85758 2.30903 35.63073 4.698411 43.55064 2.389381 7.9199 4.338617 6.01344 4.954342 8.638997 0.615725 2.62555 1.944319 9.28406-0.373059 6.21067z" stroke-width="3.31565px"/>
          <path id="path3916-2" d="m13.618963 95.854513c-2.191-2.90579-4.54694-4.10016-6.17256-10.42504-1.72555-6.7136-0.79683-24.6771-2.493895-26.95217-4.74396-6.35974-9.22535-2.34161-10.310124-0.48141-0.904965 1.55184 0.177075 4.28834 0.177075 4.28834-4.328582-1.09936-8.290663-5.85487-9.087871-8.55272 2.279049 0.53559 4.433059 0.99068 6.339911-0.54546 3.296373-2.65553 9.430639-6.34833 14.884344 0.73518 4.34387 5.64199 1.65797 25.584 3.37362 31.27074s3.11527 4.31785 3.55737 6.20308c0.44211 1.88522 1.39608 6.66624-0.26787 4.45946z" stroke-width="2.38074px"/>
          <path id="path3916-2-0" d="m73.978933 90.795633c1.42294-3.34952 3.41996-5.07837 3.46717-11.60864 0.0501-6.93163-5.19677-24.13686-4.10052-26.75491 3.06449-7.31849 8.38484-4.50387 9.88741-2.96136 1.25351 1.28682 0.86563 4.2038 0.86563 4.2038 3.93404-2.11388 6.62797-7.68665 6.74883-10.49722-2.08178 1.07103-4.06171 2.03371-6.28355 1.0045-3.84088-1.77918-10.6863-3.87827-14.26435 4.3142-2.84991 6.52527 4.58061 25.22513 4.29166 31.15801-0.28893 5.93288-1.97814 4.94324-1.95104 6.87943 0.0271 1.93618 0.2581 6.80597 1.33876 4.26219z" stroke-width="2.38074px"/>
        </g>
        <path id="path3914" d="m81.755193 132.80275c-11.67282 4.02898-15.83833 15.39771-15.83833 15.39771l-17.53594 9.12919-5.06601-30.68905z" fill="#a04c2b" stroke-linejoin="round" stroke-width="3.31565px"/>
        <path id="path3912" d="m85.411053 106.66042-6.11307 5.17907 2.57073 20.93694-18.48491 3.71168-6.80309-29.97097z" fill="#a04c2b" stroke-linejoin="bevel" stroke-width="3.31565px"/>
        <rect id="rect3910" transform="rotate(-6.9999998)" x="38.830132" y="74.616898" width="23.670572" height="13.687066" ry="0" fill="#d27a57" stroke-width="3.31565"/>
        <path id="path3908" d="m13.544363 58.588723 29.28401 7.27403 11.38676-1.07365 18.02896 12.06288-3.25557 9.16034-45.69551-0.87864z" fill="#a04c2b" stroke-width="3.31565px"/>
        <rect id="rect3906" transform="rotate(-6.9999998)" x="38.347076" y="85.244522" width="24.153646" height="23.670572" fill="#a04c2b" stroke-width="3.31565"/>
        <path id="path3916-1" d="m56.616253 93.745713c1.98173-4.66488 4.76294-7.07263 4.82871-16.16732 0.0698-9.65365-7.23753-33.61531-5.71077-37.26146 4.2679-10.19244 11.67753-6.27252 13.77016-4.12427 1.74575 1.79214 1.20556 5.85462 1.20556 5.85462 5.47892-2.94401 9.23075-10.70517 9.39907-14.61944-2.89929 1.49162-5.65674 2.83233-8.75108 1.39896-5.34918-2.47786-14.88278-5.40126-19.86593 6.00837-3.96906 9.08772 6.37942 35.13095 5.97701 43.39364s-2.75496 6.88443-2.71721 9.58095c0.0377 2.69652 0.35945 9.47866 1.86448 5.93595z" fill="#242424" stroke-width="3.31565px"/>
        <path id="path3826" d="m-15.255341 85.648753 28.460424-27.1806 37.50484 20.0545z" fill="#d27a57" stroke-width="3.31565px"/>
        <g stroke-width="3.31565">
          <rect id="rect3775" transform="rotate(-6.9999998)" x="-31.698509" y="82.99015" width="76.96962" height="28.662321" ry="4.5086803" fill="url(#linearGradient5071)"/>
          <g fill="#d27a57">
            <rect id="rect3781" transform="rotate(-6.9999998)" x="-28.800076" y="87.176796" width="8.6953125" height="20.611111" ry="0"/>
            <rect id="rect3781-1" transform="rotate(-6.9999998)" x="-17.367348" y="87.176796" width="8.6953125" height="20.611111" ry="0"/>
            <rect id="rect3781-6" transform="rotate(-6.9999998)" x="19.024139" y="87.176796" width="8.6953125" height="20.611111" ry="0"/>
          </g>
          <rect id="rect3777" transform="rotate(-6.9999998)" x="-31.054405" y="66.887726" width="76.003471" height="16.746529" ry="4.5086803" fill="url(#linearGradient5073)"/>
          <rect id="rect3781-0" transform="rotate(-6.9999998)" x="31.906105" y="87.176796" width="8.6953125" height="20.611111" ry="0" fill="#d27a57"/>
          <rect id="rect2987-2" transform="rotate(-6.9999998)" x="-18.494522" y="106.82176" width="90.173607" height="9.339406" fill="#a04c2b"/>
        </g>
        <path id="path3830" d="m-14.367827 145.72843c23.08184 3.00632 25.04989 16.39229 25.04989 16.39229l37.71848-4.63125s1.29582-18.34954 14.92294-20.99615c-6.34238-4.08826-66.374555 3.62751-77.69131 9.23511z" fill="url(#linearGradient5075)" stroke-linecap="round" stroke-linejoin="round" stroke-width="3.31565px"/>
        <rect id="rect3828" transform="rotate(-6.9999998)" x="-31.698509" y="115.19502" width="77.93576" height="28.018229" ry="0" fill="url(#linearGradient5077)" stroke-width="3.31565"/>
        <rect id="rect2987" transform="rotate(-6.9999998)" x="-38.461525" y="106.82176" width="90.173607" height="9.339406" fill="url(#linearGradient5079)" stroke-width="3.31565"/>
        <g fill="#d27a57">
          <circle id="path3779" transform="rotate(-6.9999998,-529.00269,955.74337)" cx="117.54774" cy="167.14323" r="10.627604" stroke-width="3.31565"/>
          <path id="path3832" d="m17.134413 138.69689-2.08855-17.67036c-0.77797-5.01484 9.99053-6.49928 10.45868-1.36527l2.24834 17.65074z" stroke-width="3.31565px"/>
          <g stroke-width="2.24882px">
            <path id="path3832-5" d="m32.076883 131.89842-1.16848-10.0507c-0.48081-2.84698 8.23515-4.00943 8.46295-1.08526l1.29771 10.03483z"/>
            <path id="path3832-5-7" d="m43.960183 130.43933-1.16848-10.05069c-0.48081-2.84699 8.23514-4.00943 8.46295-1.08527l1.29771 10.03483z"/>
            <path id="path3832-5-0" d="m4.323808 135.30606-1.16848-10.05069c-0.48081-2.84699 8.235155-4.00943 8.462955-1.08526l1.29771 10.03482z"/>
            <path id="path3832-5-8" d="m-7.503168 136.75823-1.168482-10.05069c-0.480804-2.84699 8.235148-4.00943 8.462948-1.08526l1.29772 10.03482z"/>
          </g>
        </g>
        <path id="path20591" d="m17.210513 138.70873-4.09326 12.90952 10.54802-1.49562 4.09327-12.90951z" fill="#a04c2b" stroke-linejoin="round" stroke-width="3.31565px"/>
      </g>
    </g>
  </g>
  <ellipse id="path4082" cx="493.59415" cy="-181.02419" rx="90.656685" ry="88.241318" fill="url(#radialGradient4638)" filter="url(#filter4118)"/>
</svg>
