<svg version="1.1" viewBox="0 0 64 64" xmlns="http://www.w3.org/2000/svg">
  <defs>
    <style type="text/css"/>
    <style type="text/css"/>
    <filter id="filter1057" x="-.027" y="-.027" width="1.054" height="1.054" color-interpolation-filters="sRGB">
      <feGaussianBlur stdDeviation="0.61875"/>
    </filter>
    <linearGradient id="h" x1="83.499" x2="298.11" y1="259.59" y2="469.1" gradientTransform="matrix(.3914 0 0 .3914 3.3187 -73.603)" gradientUnits="userSpaceOnUse">
      <stop stop-color="#002fe8" offset="0"/>
      <stop stop-color="#982ae9" offset=".58974"/>
      <stop stop-color="#c500ee" offset="1"/>
    </linearGradient>
    <clipPath id="clipPath1200">
      <path d="m4 4h120v120h-120z"/>
    </clipPath>
    <linearGradient id="g" x1="-32.208" x2="290.45" y1="409.03" y2="376.75" gradientTransform="matrix(.30992 0 0 .30974 15.982 -44.693)" gradientUnits="userSpaceOnUse">
      <stop stop-color="#003ba2" offset="0"/>
      <stop stop-color="#0d00ad" offset=".30347"/>
      <stop stop-color="#b1006f" offset="1"/>
    </linearGradient>
    <clipPath id="clipPath1210">
      <path d="m4 4h120v120h-120z"/>
    </clipPath>
    <linearGradient id="f" x1="68" x2="116" y1="26" y2="42" gradientTransform="translate(-8,-12)" gradientUnits="userSpaceOnUse">
      <stop stop-color="#0011d5" offset="0"/>
      <stop stop-color="#5a00c4" offset="1"/>
    </linearGradient>
    <clipPath id="clipPath1220">
      <path d="m4 4h120v120h-120z"/>
    </clipPath>
    <linearGradient id="e" x1="383.59" x2="-30.721" y1="564.14" y2="226.69" gradientTransform="matrix(.2124 0 0 .22522 32.525 -15.054)" gradientUnits="userSpaceOnUse">
      <stop stop-color="#2a00d7" offset="0"/>
      <stop stop-color="#a500a6" offset="1"/>
    </linearGradient>
    <clipPath id="clipPath1230">
      <path d="m4 4h120v120h-120z"/>
    </clipPath>
    <linearGradient id="d" x1="97" x2="11" y1="102" y2="48" gradientTransform="translate(-2.9996 -6)" gradientUnits="userSpaceOnUse">
      <stop stop-color="#0000dc" offset="0"/>
      <stop stop-color="#b700d8" offset="1"/>
    </linearGradient>
    <clipPath id="clipPath1240">
      <path d="m4 4h120v120h-120z"/>
    </clipPath>
    <radialGradient id="c" cx="67.395" cy="78.078" r="66.149" gradientTransform="matrix(.99346 .11414 -.06961 .60588 3.0301 16.08)" gradientUnits="userSpaceOnUse">
      <stop stop-color="#0092dc" offset="0"/>
      <stop stop-color="#7300ee" offset="1"/>
    </radialGradient>
    <clipPath id="clipPath1250">
      <path d="m4 4h120v120h-120z"/>
    </clipPath>
    <clipPath id="clipPath1178">
      <path d="m4 4h120v120h-120z"/>
    </clipPath>
  </defs>
  <rect x="4.5" y="4.5" width="55" height="55" ry="15" fill="#141414" filter="url(#filter1057)" opacity=".3" stroke-linecap="round" stroke-width="2.7444"/>
  <circle cx="-1326.3" cy="-1241.6" r="0" fill="#5e4aa6"/>
  <circle cx="-226.72" cy="23.855" r="0" fill="#5e4aa6" fill-rule="evenodd"/>
  <g transform="matrix(.5 0 0 .5 118.51 3.0195)">
    <g stroke-width="2">
      <path transform="translate(-237.02 -6.0392)" d="m39 9.0001c-16.62 0-30 13.38-30 30v50c0 16.62 13.38 30 30 30h50c16.62 0 30-13.38 30-30v-50c0-16.62-13.38-30-30-30z" clip-path="url(#clipPath1178)" fill="#5c009d"/>
      <path transform="translate(-237.02 -6.0392)" d="m83.388 13.065c-8.226 0.11189-16.31 2.7952-22.91 7.6172-7.5434 5.5108-13.17 14.167-13.693 24.602-0.33238 6.632 1.6882 13.206 5.6953 18.48 4.0071 5.2744 10.392 9.2572 17.943 9.3906 4.6568 0.083 9.1555-1.4157 12.834-4.3438 3.6785-2.928 6.5297-7.7312 6.4004-13.256-0.07774-3.3131-1.2015-6.3797-3.3945-8.9766-2.192-2.5956-5.9711-4.6959-10.139-4.3809h-2e-3c-2.4465 0.18492-4.5526 1.0508-6.4473 2.7754-1.8952 1.7251-3.5251 4.9329-3.0371 8.2656v4e-3c0.28221 1.9208 0.9786 3.3815 2.4336 4.832 0.71558 0.71338 1.8163 1.3922 3.082 1.8242-0.5108 0.111-1.0342 0.26612-1.5 0.25781-3.2811-0.05798-5.7805-1.5703-7.8223-4.2578-2.0417-2.6875-3.234-6.5422-3.0625-9.9648 0.31299-6.2451 3.4585-11.161 8.3789-14.756s11.596-5.5147 17.777-5.041c20.496 1.5709 33.542 22.809 31.578 42.721-3.0602 31.034-35.02 50.337-64.953 46.826h-2e-3c-16.399-1.9208-31.504-9.9376-43.096-21.641 2.3893 14.197 14.65 24.957 29.547 24.957h50c5.1735 0 10.032-1.2988 14.271-3.5859 3.285-2.302 6.361-4.8762 9.1855-7.6992 4.0891-5.1256 6.543-11.619 6.543-18.715v-50c0-3.7632-0.71644-7.3449-1.9707-10.658-7.4744-8.4059-17.733-14.217-30.111-15.166-1.1771-0.090205-2.3542-0.12731-3.5293-0.11133zm-8.2324 33.438 0.125 0.04297c-0.04169 4.42e-4 -0.08293 0.0046-0.125 0.0059zm0 1.1523c1.3131 0.19628 2.533 0.6539 3.0938 1.2129 0.82218 0.81964 1.0908 1.3877 1.252 2.4844v0.0039c0.19116 1.3054-0.57355 2.773-1.0762 3.2305-0.502 0.45694-0.68933 0.52634-1.3223 0.57422-0.32289 0.02105-0.86898-0.3088-0.77148-0.19336 0.09796 0.11599 0.32578 0.7096 0.33008 0.89258 0.02694 1.1511-0.3631 1.8763-1.5 2.7812-0.0017 0.0013-0.0042 0.0026-0.0059 0.0039z" clip-path="url(#clipPath1250)" color="#000000" fill="url(#c)" style="-inkscape-stroke:none"/>
      <path transform="translate(-237.02 -6.0392)" d="m39 9.0001c-7.1309 0-13.654 2.4763-18.791 6.6016-4.3945 5.4468-8.0139 11.467-10.68 17.859-0.33322 1.7967-0.5293 3.643-0.5293 5.5391v42.924c0.039067 0.0955 0.069787 0.19165 0.10938 0.28711 10.532 25.4 40.226 42.32 67.395 30.463h2e-3c18.485-8.0688 30.829-30.121 21.557-50.162h-2e-3v-2e-3c-3.0761-6.6454-8.4447-11.978-15.035-15-6.5904-3.0223-14.733-3.5714-22.082 0.06836-4.7502 2.3512-8.4894 6.2617-10.607 11.115-2.1182 4.8541-2.4226 11.014 0.47461 16.418 1.8291 3.4115 4.6832 6.0126 8.3047 7.4941 3.6214 1.4815 8.4142 1.6103 12.453-0.77344h2e-3c2.4965-1.4735 4.3039-3.5817 5.3496-6.3652s1.0435-6.7007-1.0234-9.8223l-4e-3 -4e-3c-1.2554-1.8933-2.8543-3.1631-5.1055-3.9141-1.8157-0.6057-4.3873-0.58087-6.6484 0.45117 0.82178-0.98973 1.7761-1.8867 2.8379-2.4121h2e-3c3.4168-1.6923 6.8756-1.5002 10.377 0.10547 3.5014 1.6057 6.7128 4.788 8.3633 8.3535 5.64 12.193-2.4449 26.655-14.654 31.985-19.339 8.4398-41.503-4.178-49.393-23.207v-2e-3c-10.726-25.864 3.3804-54.542 26.82-68zm23.588 54.037c-4e-3 3e-3 -0.0058 0.0067-0.0098 0.0098-0.0043 0.0033-0.0094 0.0045-0.01367 0.0078zm1.6562 6.9629h8.4883c-0.02056 0.34952 0.06602 0.80577-0.0078 1.0684-0.36834 1.3099-0.84798 1.9831-1.8809 2.7734-1.3602 1.0374-3.3963 1.1064-4.3594 0.78516-0.96598-0.32224-1.393-0.66725-1.9258-1.4707l-2e-3 -0.0039c-0.53574-0.80908-0.51442-2.0768-0.36719-2.4688 0.13288-0.35371 0.16463-0.37796 0.4082-0.52148-0.02742-0.0096-0.09936-0.04855-0.33398-0.14453-0.0063-0.0026-0.01311-0.01483-0.01953-0.01758zm0.35352 0.16211c0.02835 0.0099 0.0089-0.01169 0.05859-0.04102-0.03241 0.01913-0.03228 0.02551-0.05859 0.04102z" clip-path="url(#clipPath1240)" color="#000000" fill="url(#d)" style="-inkscape-stroke:none"/>
    </g>
    <path transform="translate(-237.02 -6.0392)" d="m43 9.0001c-19.046 11.616-31.344 34.42-27.209 58.902 4.3546 25.779 27.484 45.725 52.848 40.738v-2e-3c20.41-4.0083 36.193-24.695 32.08-47.377-3.2842-18.107-19.693-32.107-37.695-28.293h-2e-3c-14.25 3.0266-25.274 17.635-22.119 33.686l2e-3 2e-3v2e-3c2.4804 12.596 14.051 22.345 26.783 19.396v-2e-3c9.9137-2.2969 17.592-12.619 15.129-24.006v-2e-3l-2e-3 -2e-3c-1.9067-8.7917-10.132-15.617-19.242-13.273-4.2817 1.0996-7.9693 4.3252-9.7266 8.5566 1.5678-5.3679 6.1757-9.792 11.701-10.967 10.427-2.2092 20.511 6.3841 22.523 17.48 2.6598 14.668-8.009 28.668-21.777 31.371h-2e-3v2e-3c-17.823 3.5046-34.661-11.004-37.822-29.717-4.0213-23.811 13.166-46.136 35.326-50.209 23.94-4.4015 46.47 11.704 55.205 34.799v-11.086c0-16.62-13.38-30-30-30zm24.158 52.988c1.3079 0.06505 2.7361 1.4148 3.1055 3.1133 0.01032 0.04784 0.0048 0.09658 0.01367 0.14453-0.12355 0.46724-0.27691 0.90259-0.47461 1.2383-0.60874 1.0336-1.3473 1.6351-2.4219 1.998l-0.0039 2e-3c-0.66088 0.22272-1.276 0.27318-1.8379 0.20508v-6.041c0.03849 0.06854 0.08336 0.13584 0.10156 0.21094-0.02113-0.08726 0.39258-0.67014 0.96289-0.81641h0.0059c0.17862-0.04594 0.36189-0.06398 0.54883-0.05469zm-9.0742 4.5332 2e-3 2e-3c6.37e-4 0.0018-6.63e-4 0.0042 0 0.0059zm60.156 29.133c-2.0858 5.2257-4.8227 10.146-8.0977 14.66 3.9717-3.9397 6.822-8.9942 8.0977-14.66z" clip-path="url(#clipPath1230)" color="#000000" fill="url(#e)" stroke-width=".43743" style="-inkscape-stroke:none"/>
    <path transform="translate(-237.02 -6.0392)" d="m81.871 9.3341c-9.411-0.24359-18.901 1.6511-27.756 6.1328h-2e-3c-10.271 5.2017-18.785 14.097-23.447 24.711-4.6626 10.614-5.2731 23.315 1.0625 34.645v2e-3c3.4683 6.1988 9.0689 11.241 15.797 13.965 6.728 2.7239 15.003 2.8818 22.061-1.5742v-2e-3c3.6607-2.3116 6.5182-5.7437 8.0547-9.9883 1.5361-4.2434 1.4347-9.7934-1.7969-14.189-1.6053-2.1883-3.6859-3.7438-6.4531-4.5957-2.7692-0.85252-6.8371-0.57895-9.6934 1.9746l-0.0078 0.0059-0.0059 0.0039c-1.3822 1.2425-2.1896 2.5044-2.6602 4.4746-0.47053 1.9702 7.18e-4 5.4654 2.3652 7.4707 1.1665 0.99003 1.9033 1.3315 3.4629 1.5605 0.78037 0.11463 1.8175 0.16292 3.1113-0.29297 0.05059-0.01783 0.10133-0.06986 0.15234-0.08984-0.611 1.3372-1.7942 2.8008-2.9355 3.5215v-2e-3c-3.5281 2.2275-7.1977 2.2019-11.15 0.60156-3.9522-1.6001-7.7689-5.0216-9.8281-8.7012v-2e-3c-4.3585-7.7952-4.006-16.091-0.54875-23.961 3.4572-7.8704 10.219-14.95 17.881-18.83 18.558-9.3923 41.785-4.3079 57.617 9.2363l1.373-1.6055c-1.3197-7.6033-5.4727-14.192-11.352-18.668-7.9899-3.5221-16.609-5.5778-25.301-5.8027zm-18.686 52.734c0.34822-0.0183 0.65162 0.0113 0.93945 0.03711v11.549l-1.3633-0.1582c-1.7132-0.40311-3.4876-2.0601-4.0703-3.3652-0.58266-1.3052-0.53834-2.1459-0.50586-2.7305 0.0597-1.0747-0.01087-1.2466 0.75-2.5098 0.64754-1.1368 1.9198-2.1779 3.0391-2.5723 0.46967-0.1655 0.86272-0.2317 1.2109-0.25zm6.2422 8.6113-0.1875 0.32031c0.07836-0.12537 0.05991-0.13803 0.125-0.24609 0.01542-0.02718 0.04769-0.0469 0.0625-0.07422z" clip-path="url(#clipPath1220)" color="#000000" fill="url(#f)" stroke-width="2" style="-inkscape-stroke:none"/>
    <path transform="translate(-237.02 -6.0392)" d="m70.136 23.262c-2.9844-0.07081-6.0314 0.18492-9.1113 0.80078-19.387 3.8726-34.381 22.612-30.111 43.055 3.3251 15.924 18.844 28.243 35.787 24.543 13.07-2.8526 23.188-15.68 19.967-29.699-2.4595-10.713-13.088-19.012-24.73-16.197h-2e-3c-8.813 2.1314-15.651 10.967-13.162 20.678v2e-3l2e-3 2e-3c1.8718 7.2815 9.2871 12.955 17.477 10.715h2e-3c1.443-0.39414 2.8008-1.0669 4.0215-1.9297-1.7403 1.6844-3.9596 2.943-6.4043 3.4766h-2e-3c-9.0954 1.9864-18.051-5.114-19.969-14.299v-2e-3c-2.6361-12.62 7.1194-24.826 19.725-27.344 16.84-3.3679 32.911 9.5461 36.119 26.221 4.1965 21.801-12.474 42.403-33.988 46.391v-2e-3c-25.324 4.69-49.2-12.614-56.756-36.447v15.775c0 6.2079 1.8691 11.961 5.0742 16.736 5.3799 5.1852 11.585 9.4523 18.361 12.527 2.1141 0.46904 4.3051 0.73633 6.5645 0.73633h41.25c22.152-9.6188 37.374-33.011 32.521-58.221-3.9536-20.546-21.74-37.022-42.635-37.518zm-8.1445 31.662c-0.0042 0.0012-0.0075 0.0046-0.01172 0.0059-0.0039 0.0012-0.0078 6.53e-4 -0.01172 2e-3zm8.9473 6.6797 0.01172 0.02734c-0.0028-0.0063-0.0071-0.01133-0.0098-0.01758-0.0015-0.0033-3.53e-4 -0.0064-2e-3 -0.0098zm-8.2988 2.709h5.9531c-0.09044 0.65402-0.30019 1.2472-0.55859 1.6621-0.51979 0.83466-1.1172 1.2943-2.0391 1.5879-1.9569 0.61901-3.3152-0.39152-3.6797-1.6289-0.29329-1.0028 0.0403-1.4498 0.43359-1.5605-0.02039 0.0056-0.08064-0.05552-0.10938-0.06055zm-6.75 2.2852c9.3e-4 0.0025 3e-3 0.0035 0.0039 0.0059 3.1e-4 9.29e-4 -3.62e-4 3e-3 0 0.0039z" clip-path="url(#clipPath1210)" color="#000000" fill="url(#g)" stroke-width=".61966" style="-inkscape-stroke:none"/>
    <path transform="translate(-237.02 -6.0392)" d="m71.675 14.014c-3.6477-0.08853-7.3707 0.2237-11.133 0.97656-23.587 4.7173-41.834 27.53-36.658 52.332v2e-3c4.016 19.237 22.751 34.116 43.111 29.67 15.624-3.4113 27.718-18.754 23.889-35.434v-2e-3c-2.9045-12.659-15.454-22.468-29.119-19.16-10.26 2.483-18.221 12.776-15.34 24.004 2.1414 8.345 10.628 14.834 19.92 12.289h2e-3l0.0039-2e-3c6.827-1.8754 12.174-8.9417 9.8809-16.729-0.38416-1.3074-1.0194-2.5362-1.8184-3.6484 1.7013 1.6626 2.9951 3.8159 3.5449 6.2129v2e-3c2.0216 8.8045-4.8692 17.562-13.791 19.51-12.514 2.733-24.694-6.9267-27.303-19.424h2e-3c-3.5431-16.978 9.4668-33.258 26.277-36.619h2e-3c22.294-4.4614 43.446 12.549 47.67 34.516 4.6012 23.929-9.9118 46.672-31.24 56.49h9.4238c16.62 0 30-13.38 30-30v-43.373c-8.8727-18.085-26.895-31.117-47.324-31.613z" clip-path="url(#clipPath1200)" color="#000000" fill="url(#h)" stroke-linecap="round" stroke-width=".78279" style="-inkscape-stroke:none"/>
  </g>
</svg>
