<svg id="svg855" width="64" height="64" version="1.1" viewBox="0 0 16.933 16.933" xmlns="http://www.w3.org/2000/svg" xmlns:xlink="http://www.w3.org/1999/xlink">
    <defs id="defs845">
        <filter id="filter1057" x="-.026999999" y="-.026999999" width="1.054" height="1.054" color-interpolation-filters="sRGB">
            <feGaussianBlur id="feGaussianBlur833" stdDeviation="0.61875"/>
        </filter>
    </defs>
    <g id="g851" fill="#f0f0f0" stroke-linecap="round">
        <rect id="rect847" transform="scale(.26458)" x="4.5" y="4.5" width="55" height="55" ry="15" filter="url(#filter1057)" opacity=".3" stroke-width="2.7444"/>
        <rect id="rect849" x="1.1906" y="1.1906" width="14.552" height="14.552" ry="3.9687" stroke-width=".72611"/>
    </g>
    <path id="path4" d="m8.7310461 3.2076417c-0.8248796 0-0.8785764 0.00409-0.9772755 0.074664-0.065459 0.046537-0.1176209 0.08796-0.1385882 0.1462586-0.016363 0.044492-0.018412 0.088983-0.022499 0.1232464-0.00356 0.027104-0.016363 0.7082821-0.016363 1.9668251v1.9458576h-0.6014042c-0.6740186 0-0.7333403 0.019433-0.7333403 0.2362646 0 0.1912616 0.019433 0.2188767 0.6944743 0.9905719 0.1534184 0.1754082 0.279733 0.3303608 0.279733 0.3436574 0 0.024035 0.052674 0.086937 0.6121398 0.7272031 0.1590438 0.182057 0.2894497 0.3416126 0.2894497 0.3538856 0 0.01279 0.1007447 0.136031 0.2239906 0.273596 0.2152978 0.239844 0.2296167 0.249561 0.3891717 0.249561 0.1595549 0 0.174386-0.0092 0.3896827-0.249561 0.123246-0.137565 0.22348-0.260811 0.22348-0.273596 0-0.01227 0.1304054-0.1718286 0.2894487-0.3538856 0.5599786-0.6402663 0.6126516-0.7031678 0.6126516-0.7272031 0-0.013297 0.125803-0.1682492 0.279733-0.3436574 0.671973-0.7676042 0.694475-0.8003332 0.694475-0.9844354 0-0.2255251-0.05114-0.2424011-0.727204-0.2424011h-0.6085604v-1.9458576c0-1.258543-0.031193-1.9412555-0.035285-1.9683596-0.00767-0.037843-0.019431-0.074664-0.034776-0.1099498-0.020965-0.051139-0.04347-0.1043244-0.1063703-0.1580207-0.092563-0.078755-0.1529071-0.074664-0.977276-0.074664zm1.7177759 7.3093683c-0.0133 0.0026 0.02046 0.02506 0.103813 0.06904 0.497587 0.259788 0.579922 0.610605 0.06648 0.862723-1.1808097 0.580433-4.0870668 0.375364-4.3279338-0.308371-0.048582-0.137565-0.00972-0.276665 0.1559754-0.483268 0.1687604-0.211206 0.097677-0.204558-0.2587658-0.01381-0.2214342 0.119667-0.2787101 0.319622-0.2971207 0.486848-0.012273 0.112507 0.050628 0.455142 0.2531408 0.557932 0.2920065 0.218366 0.9977315 0.466392 1.6436236 0.525714 0.089494 0.0082 0.6832231 0.04091 1.0606325 0.03426 0.957332-0.01739 1.678399-0.243423 2.165758-0.482756 0.253652-0.124781 0.344168-0.571228 0.328827-0.712373-0.02352-0.215807-0.166715-0.36718-0.561-0.513439-0.173875-0.06392-0.315019-0.02557-0.33343-0.0225zm-5.0188297 0.01994c-0.040912 0.0036-0.2066036-0.07517-0.4009339-0.01892-1.4313943 0.411672-1.8476699 1.431905-1.2585429 2.008758 0.4796883 0.468438 1.7019226 1.002846 3.3000315 1.176209 0.6484485 0.07006 3.254517-0.04807 3.872283-0.130405 2.209737-0.295075 2.574361-1.240134 2.457252-1.976031-0.05625-0.349283-0.437754-0.658676-1.181833-0.901077-0.484292-0.158533-0.665837-0.253141-0.335987-0.0583 0.872951 0.515997 0.969604 0.808004 0.969604 1.145013 0 0.559466-1.033016 0.871416-2.793237 1.092339-0.5855481 0.07364-2.5718063 0.06137-3.1461031-0.01892-1.4861134-0.208138-2.4219663-0.677087-2.656185-1.13632-0.088983-0.174386-0.088983-0.253652-5.106e-4 -0.427526 0.1227348-0.240867 0.4479822-0.408605 0.9665366-0.606003 0.2112062-0.07978 0.2081376-0.148816 0.2081376-0.148816z" fill="#1478bd" stroke="#fff" stroke-opacity=".196078" stroke-width=".148836"/>
</svg>
