<svg id="svg5" version="1.1" viewBox="0 0 64 64" xmlns="http://www.w3.org/2000/svg">
  <defs id="defs3">
    <style id="style1" type="text/css"/>
    <style id="style2" type="text/css"/>
    <filter id="filter1057" x="-.026999999" y="-.026999999" width="1.054" height="1.054" color-interpolation-filters="sRGB">
      <feGaussianBlur id="feGaussianBlur2" stdDeviation="0.61875"/>
    </filter>
    <filter id="filter10" x="-.047999997" y="-.047999997" width="1.096" height="1.096" color-interpolation-filters="sRGB">
      <feGaussianBlur id="feGaussianBlur10" stdDeviation="0.1138607"/>
    </filter>
    <filter id="filter11" x="-.044999999" y="-.05142857" width="1.09" height="1.1028571" color-interpolation-filters="sRGB">
      <feGaussianBlur id="feGaussianBlur11" stdDeviation="0.9"/>
    </filter>
    <filter id="filter13" x="-.072949051" y="-.072949051" width="1.1458981" height="1.1458981" color-interpolation-filters="sRGB">
      <feGaussianBlur id="feGaussianBlur13" stdDeviation="0.10844861"/>
    </filter>
  </defs>
  <rect id="rect3" x="4.5" y="4.5" width="55" height="55" ry="15" fill="#141414" filter="url(#filter1057)" opacity=".3" stroke-linecap="round" stroke-width="2.7444"/>
  <rect id="rect4" x="4.5" y="4.5" width="55" height="55" ry="15" fill="#e4e4e4" stroke-linecap="round" stroke-width="2.7444"/>
  <circle id="circle4" cx="-1326.3" cy="-1241.6" r="0" fill="#5e4aa6"/>
  <circle id="circle5" cx="-226.72" cy="23.855" r="0" fill="#5e4aa6" fill-rule="evenodd"/>
  <path id="rect1" d="M 19.5,4.5 C 12.214798,4.5 6.1738765,9.6404916 4.7949225,16.507813 H 59.20313 C 57.824169,9.6404916 51.7852,4.5 44.5,4.5 Z" fill="#3f3f3f" stroke-width="1.0015748"/>
  <rect id="rect9" x="47.152512" y="8.5573883" width="5.6930351" height="5.6930351" ry="1.552646" fill="#222222" filter="url(#filter10)" opacity=".5" stroke-linecap="round" stroke-width=".284072"/>
  <rect id="rect10" x="47.152512" y="8.5573883" width="5.6930351" height="5.6930351" ry="1.552646" fill="#50beee" stroke-linecap="round" stroke-width=".284072"/>
  <g id="g11" transform="matrix(.64612064 0 0 .64612064 2.1033792 20.544901)">
    <path id="path6" d="M 2,20 V 58.500004 C 2,62 5.428571,62 5.428571,62 H 50 Z m 8,19 18,14 H 10 Z" fill="#222222" filter="url(#filter11)" opacity=".5"/>
    <path id="path10" d="M 2,20 V 58.500004 C 2,62 5.428571,62 5.428571,62 H 50 Z m 8,19 18,14 H 10 Z" fill="#689f38"/>
  </g>
  <rect id="rect12" x="11.945764" y="8.5506372" width="5.4224305" height="5.4224305" ry="1.4788448" fill="#3f3f3f" filter="url(#filter13)" opacity=".5" stroke="#222222" stroke-linecap="round" stroke-width=".270569"/>
  <rect id="rect13" x="11.945764" y="8.5506372" width="5.4224305" height="5.4224305" ry="1.4788448" fill="#3f3f3f" stroke="#e4e4e4" stroke-linecap="round" stroke-width=".270569"/>
  <path id="path37" d="m18.192109 21.180302c1.482678 0.458761 2.694953 1.456068 3.426335 2.814608 0.729168 1.360753 0.864313 2.932108 0.4233 4.405879-0.751296 2.413486-3.291133 3.791998-5.735427 3.122684-0.03767-0.01995-0.09529-0.01995-0.13519-0.03989-0.4233-0.152921-0.633853-0.591756-0.498657-1.015062 0.115241-0.343518 0.498657-0.536329 0.864314-0.421088 0.308058 0.09752 0.463197 0.44103 0.36568 0.72917-0.05763 0.190598-0.23049 0.325788-0.403358 0.343518 2.194089 0.556279 4.463523-0.689226 5.13726-2.852281 0.4233-1.360753 0.288111-2.816822-0.383409-4.080102-0.673738-1.263276-1.810668-2.202935-3.175903-2.624028-1.733109-0.53633-3.579237-0.363461-5.177146 0.478708-1.595695 0.842187-2.790269 2.260583-3.3288048 3.984785-1.365178 4.385966 1.1170158 9.057879 5.6381238 10.628893 1.98133 0.689227 4.060132 0.61167 6.216547 0.152921 0.07535-0.01995 0.15292-0.01995 0.210542-0.03768l0.09752-0.01995c1.249946-0.363459 2.11653-1.205635 2.384664-2.183023 0 0 2.136444 0.766841 4.676281-0.210542 3.328805-1.283195 6.850286-2.624032 10.622653-3.045127h-0.30806c-0.866526-0.152919-1.693224-0.421086-2.444521-0.899772-0.556277-0.345738-1.09483-0.709199-1.558023-1.170177-0.480926-0.438818-0.904255-0.937447-1.327505-1.453857-0.01997-0.01995-0.03767-0.0399-0.03767-0.07757-0.09751-0.172869 0-0.40114 0.172869-0.478709 0.172868-0.09529 0.403357 0 0.480926 0.172868 0.268169 0.55406 0.576209 1.090407 0.961843 1.589058 0.385628 0.478709 0.826641 0.93966 1.385149 1.26328 1.019486 0.613883 2.214004 0.882072 3.406364 0.977388-1.385149-0.554053-2.559751-1.626724-3.155931-3.120465-0.443249-1.112534-0.423301-2.338141 0.05761-3.428548 0.480928-1.092619 1.367448-1.95472 2.482194-2.395784 0.904256-0.363461 1.905983-0.343518 2.810182 0.05761 0.904256 0.383409 1.577938 1.092618 1.943657 2.012363l0.05763 0.172869c0.210542 0.359031 0.09529 0.842187-0.27038 1.070436-0.308058 0.19281-0.731382 0.09751-0.941929-0.228271-0.172868-0.268169-0.07757-0.631641 0.192812-0.804515 0.210541-0.135191 0.460978-0.09529 0.616094 0.05763-0.01997-0.03768-0.01997-0.09529-0.03988-0.135189-0.30807-0.804522-0.924181-1.436105-1.71315-1.779641-0.788968-0.345736-1.673252-0.365679-2.482191-0.03989-1.019487 0.403358-1.828427 1.167965-2.269434 2.165267-0.443249 0.995091-0.463198 2.105412-0.05761 3.120472 0.711409 1.801817 2.346991 2.989696 4.175416 3.218 0.36568 0 0.751296 0 1.117015 0.01995h0.115242v0.01995c1.212274 0.05763 2.462222 0.228271 3.73214 0.554059-0.05761-0.01773-0.115241-0.03768-0.172868-0.05763 0.230489 0.07757 0.443249 0.13519 0.653766 0.210541 0.03767 0.01995 0.09752 0.01995 0.135191 0.0399 0.03767 0.01773 0.07758 0.03768 0.115242 0.03768 0.115241 0.03768 0.23049 0.07535 0.328001 0.115241 0.01771 0.01773 0.03767 0.01773 0.05763 0.03768 5.888613 2.240613 9.024403 8.752072 7.02333 14.746781-1.059372 3.160356-3.24461 6.582494-5.744505 8.189252l-1.382936-0.0023c0.567359-0.536331 3.027368-3.282283 3.393088-4.452459 0.19281-0.591753 0.212758-1.243307 0.17508-1.85719-0.03988-0.611668-0.17508-1.225608-0.36568-1.819519-0.05761-0.190598 0.05763-0.401139 0.250439-0.45876 0.190598-0.05763 0.403357 0.05761 0.460979 0.24822 0 0.01995 0.01997 0.05761 0.01997 0.07757 0.03767 0.651554 0.05761 1.320867 0.0177 1.972478-0.03767 0.651554-0.19281 1.283194-0.365679 1.914833-0.230489 0.842186-0.673738 1.608971-1.212275 2.298255l-0.538548 0.478709c2.251733-1.551385 3.944901-3.811966 4.906744-6.722062 2.001243-5.957263-1.269919-12.430822-7.273536-14.403528-0.460979-0.15292-0.92417-0.268167-1.385149-0.345736-2.346991-0.24822-3.599208 0.383409-4.215303 1.724258 0 0-3.481707 0.441031-5.059701 2.508803-0.345737 0.576208-0.653767 1.207849-0.866527 1.877161-0.616094 1.83949-0.460979 3.791998 0.403358 5.516256 0.866527 1.72426 2.366963 3.007454 4.215303 3.619124 1.462706 0.478708 3.020729 0.36568 4.405877-0.30584 1.387362-0.689228 2.406849-1.857193 2.887742-3.31326 0.769054-2.318171-0.443249-4.807059-2.694953-5.669159 0.13519 0.135189 0.192812 0.325787 0.115241 0.536328-0.09529 0.305841-0.4233 0.478709-0.731381 0.38341-0.365679-0.115241-0.556279-0.498657-0.460978-0.842187 0.13519-0.421088 0.558495-0.651554 0.981812-0.536329h0.01771c1.252161 0.421087 2.291618 1.300953 2.867827 2.468917 0.59618 1.187935 0.69371 2.528716 0.270381 3.79421-0.520819 1.551385-1.61788 2.814608-3.098288 3.561479-1.482678 0.726899-3.155931 0.862101-4.713953 0.345736-1.943673-0.651571-3.52161-1.992409-4.44578-3.831898-0.924171-1.819519-1.077073-3.887314-0.4233-5.822233 0.866527-2.604061 2.790268-4.57654 5.117289-5.631486l0.01997-0.01773h0.01997c0.691496-0.308059 1.422821-0.53633 2.174117-0.671525-0.135191 0-0.27038-0.01773-0.385628-0.01773-0.538548 0.01773-1.114745 0.07535-1.730897 0.132978 0.558497-0.07757 1.114746-0.132978 1.713138-0.132978h-0.01997c-4.811486-0.03988-9.275178 1.684379-13.392498 3.293351-0.385628 0.15292-0.788969 0.305841-1.174603 0.45876h-0.01997c-4.155447 1.591271-8.100177 2.912138-11.777226 1.917048l-0.57621-0.172869c-4.753839-1.646644-7.3314048-6.53143-5.9084708-11.127601 0.9640558-3.065041 3.7919968-5.037519 5.7070588-5.123928 1.914834-0.08643 2.626245 0.0089 3.357627 0.239351z" fill="#002447" stroke-width=".567359"/>
</svg>
