<svg id="svg5" version="1.1" viewBox="0 0 64 64" xmlns="http://www.w3.org/2000/svg">
  <defs id="defs3">
    <style id="style1" type="text/css"/>
    <style id="style2" type="text/css"/>
    <filter id="filter1057" x="-.026999999" y="-.026999999" width="1.054" height="1.054" color-interpolation-filters="sRGB">
      <feGaussianBlur id="feGaussianBlur2" stdDeviation="0.61875"/>
    </filter>
    <linearGradient id="linearGradient1053" x1="-99.5" x2="-99.5" y1="60.009998" y2="5.0100002" gradientTransform="translate(131.5 -.51)" gradientUnits="userSpaceOnUse">
      <stop id="stop2" stop-color="#a0a0a0" offset="0"/>
      <stop id="stop3" stop-color="#fff2f2" offset="1"/>
    </linearGradient>
    <linearGradient id="b" x1="500" x2="500" y2="1e3" gradientTransform="matrix(.05966891 0 0 .05966708 2.1655587 2.1669024)" gradientUnits="userSpaceOnUse">
      <stop id="stop3-6" stop-color="#ffc000" offset="0"/>
      <stop id="stop4" stop-color="#ff0000" offset=".75"/>
      <stop id="stop5" stop-color="#d80000" offset="1"/>
    </linearGradient>
  </defs>
  <rect id="rect3" x="4.5" y="4.5" width="55" height="55" ry="15" fill="#141414" filter="url(#filter1057)" opacity=".3" stroke-linecap="round" stroke-width="2.7444"/>
  <rect id="rect4" x="4.5" y="4.5" width="55" height="55" ry="15" fill="url(#linearGradient1053)" stroke-linecap="round" stroke-width="2.7444"/>
  <circle id="circle4" cx="-1326.3" cy="-1241.6" r="0" fill="#5e4aa6"/>
  <circle id="circle5" cx="-226.72" cy="23.855" r="0" fill="#5e4aa6" fill-rule="evenodd"/>
  <path id="path6" d="m19.5 4.5c-2.974882 0-5.735445 0.8674894-8.0625 2.3496094-1.13e-4 5.85e-4 1.13e-4 0.0013679 0 0.0019531-0.973108 5.0537205-0.253966 16.227076 0.542969 19.597656-1.513961-3.255422-4.1155321-12.893865-4.3144534-16.167969-1.9794378 2.541277-3.1660156 5.733573-3.1660156 9.21875v6.828125c1.4346993 2.43422 3.7152145 5.015257 5.1328125 6.689453-1.32788-0.833307-3.4992408-2.575789-5.1328125-4.4375v8.458984c2.0676788 1.555924 4.7783693 3.050383 6.306641 3.876954-1.2637052 0.09269-4.2031335-0.587057-6.306641-1.298828v4.882812c0 8.309992 6.690008 15 15 15h6.376953c1.417956-1.773002 2.647658-4.541581 3.941406-6.787109 0.072825 1.411425-0.983049 4.334927-2.02539 6.787109h8.283203c-1.062518-2.483323-1.970447-5.316635-1.894531-6.789062 1.308408 2.271027 2.639633 5.026076 4.09375 6.789062h6.224609c8.309992 0 15-6.690008 15-15v-5.337891c-1.977912 0.835583-4.912339 1.856176-6.306641 1.753907 1.974562-1.067981 3.948595-2.34409 5.925782-4.333985 0.103893-0.621019 0.242394-1.272737 0.380859-1.93164v-6.080079c-1.602193 1.903582-3.740613 3.574981-5.132812 4.447266 1.456421-1.717614 3.738615-4.527118 5.132812-7.070312v-6.447266c0-0.076071-0.004742-0.150767-0.005859-0.226562-0.234199-1.477072-0.481692-2.998707-0.771485-4.53125-0.513323-1.543926-1.271774-2.969355-2.226562-4.242188-0.842478 4.624361-3.202792 13.208315-4.476563 15.947266 0.980956-4.148947 1.4531-8.041029 1.41211-11.677735 0.018253-2.752629-0.115293-5.2798308-0.363282-7.5878904-2.426933-1.6875245-5.375622-2.6816406-8.568359-2.6816406h-12.5c10.016491 0 18.138672 8.120476 18.138672 18.136719 0 7.260521-4.428802 15.696347-12.701172 15.02539-9.578581-0.778535-12.134442-14.349115-1.234375-14.359375 3.467775-0.005072 6.722914 1.73882 5.923828 4.591797 6.912458-6.991661-12.134355-18.64711-20.552734-8.285156 1.954154-1.365062 3.518502-1.849253 5.472656-1.908203-0.998856 0.473815-2.405808 1.076526-3.271484 2.375 1.58021-0.980926 3.332494-1.382516 5.453125-1.169922-6.105675 1.293283-10.394871 8.218845-9.833985 16.767578-3.411387-3.296007-5.533203-7.920184-5.533203-13.037109 0-10.016243 8.122122-18.136719 18.138672-18.136719h-12.5zm14.488281 13.986328c2.138532 0.804132 4.084841 0.221647 3.167969 1.476563-1.152504-0.34577-2.187073-0.86963-3.167969-1.476563z" clip-rule="evenodd" fill="url(#b)" fill-rule="evenodd" image-rendering="optimizeQuality" shape-rendering="geometricPrecision" stroke-width=".059668"/>
</svg>
