<svg id="svg18" version="1" viewBox="0 0 64 64" xmlns="http://www.w3.org/2000/svg">
  <defs id="defs22">
    <style id="style950" type="text/css"/>
    <filter id="filter1057" x="-.026999999" y="-.026999999" width="1.054" height="1.054" color-interpolation-filters="sRGB">
      <feGaussianBlur id="feGaussianBlur904" stdDeviation="0.61875"/>
    </filter>
    <linearGradient id="linearGradient1079" x1="148.23561" x2="93.894279" y1="4.8554082" y2="59.433609" gradientTransform="translate(-88.964842)" gradientUnits="userSpaceOnUse">
      <stop id="stop1073" stop-color="#fff" offset="0"/>
      <stop id="stop1075" stop-color="#ededed" offset="1"/>
    </linearGradient>
    <filter id="filter7374" x="-.031621445" y="-.099576201" width="1.0632429" height="1.1991524" color-interpolation-filters="sRGB">
      <feGaussianBlur id="feGaussianBlur7376" stdDeviation="2.1163312"/>
    </filter>
    <filter id="filter7506" x="-.036891767" y="-.068679672" width="1.0737835" height="1.1373593" color-interpolation-filters="sRGB">
      <feGaussianBlur id="feGaussianBlur7508" stdDeviation="2.5209375"/>
    </filter>
    <filter id="filter7548" x="-.032048781" y="-.095563627" width="1.0640976" height="1.1911273" color-interpolation-filters="sRGB">
      <feGaussianBlur id="feGaussianBlur7550" stdDeviation="2.1900001"/>
    </filter>
    <filter id="filter8282" x="-.087531481" y="-.065712782" width="1.175063" height="1.1314256" color-interpolation-filters="sRGB">
      <feGaussianBlur id="feGaussianBlur8284" stdDeviation="1.0941435"/>
    </filter>
  </defs>
  <g id="g349" fill="#5e4aa6">
    <circle id="circle994" cx="-1465.1672" cy="-1305.7003" r="0"/>
    <circle id="circle996" cx="-365.65726" cy="-40.192348" r="0" fill-rule="evenodd"/>
    <circle id="circle998" cx="-1405.7672" cy="-1241.6003" r="0"/>
    <circle id="circle1000" cx="-1330.2672" cy="-1243.8004" r="0"/>
    <circle id="circle1002" cx="-230.73026" cy="21.657656" r="0" fill-rule="evenodd"/>
    <g id="g1018" transform="matrix(3.7796,0,0,3.7796,-81.685261,-2.6826449)" stroke-width=".26458">
      <circle id="circle1004" cx="-305.04999" cy="-323.78" r="0"/>
      <circle id="circle1006" cx="-312.62" cy="-328.60999" r="0"/>
      <circle id="circle1008" cx="-312.62" cy="-328.60999" r="0"/>
      <circle id="circle1010" cx="-294.38" cy="-326.48001" r="0"/>
      <circle id="circle1012" cx="-288.29001" cy="-333.29999" r="0"/>
      <circle id="circle1014" cx="-291.10999" cy="-326.23999" r="0"/>
      <circle id="circle1016" cx="-311.07001" cy="-330.67999" r="0"/>
    </g>
    <circle id="circle1020" cx="-1465.1672" cy="-1305.7003" r="0"/>
    <circle id="circle1022" cx="-365.65726" cy="-40.192348" r="0" fill-rule="evenodd"/>
    <circle id="circle1026" cx="-1405.7672" cy="-1241.6003" r="0"/>
    <circle id="circle1028" cx="-1405.7714" cy="-1241.6371" r="0" stroke-width="1.00001"/>
    <circle id="circle1030" cx="-306.21387" cy="23.854336" r="0" fill-rule="evenodd" stroke-width="1.00001"/>
    <g id="g924">
      <circle id="circle914" cx="-1248.7" cy="-1241.6" r="0"/>
      <circle id="circle916" cx="-1140.3" cy="-1301.8" r="0"/>
      <circle id="circle918" cx="-1158.1" cy="-1246" r="0"/>
      <circle id="circle920" cx="-1157.3" cy="-1267.7" r="0"/>
      <circle id="circle922" cx="-57.756001" cy="-2.1829" r="0" fill-rule="evenodd"/>
    </g>
  </g>
  <rect id="rect926" x="4.5" y="4.5" width="55" height="55" ry="15" fill="#141414" filter="url(#filter1057)" opacity=".3" stroke-linecap="round" stroke-width="2.7444"/>
  <path id="rect1070" d="m19.499998 4.5c-8.31 0-14.999996 6.69-14.999996 15v25c0 8.31 6.689996 15 14.999996 15h25c8.31 0 15-6.69 15-15v-25c0-8.31-6.69-15-15-15z" fill="url(#linearGradient1079)" stroke-linecap="round" stroke-linejoin="round" stroke-width="2" style="paint-order:stroke fill markers"/>
  <g id="g4982" transform="matrix(.22500229 0 0 .25359465 10.39978 7.0433466)">
    <path id="path7510" d="m95.041221 25.001652c-4.930595 0.133188-7.984942 3.405915-10.167096 4.935498l-70.874125 50.06285h164l-70.87413-50.06285c-2.18216-1.529583-5.23649-4.80231-10.167091-4.935498-0.307757-0.0088-0.636164 0.01945-0.958779 0.03677-0.322615-0.01732-0.651022-0.04504-0.958779-0.03677z" filter="url(#filter7548)" opacity=".2" stroke-linecap="round" stroke-linejoin="round" stroke-width="47.6709"/>
    <path id="rect1437" d="m14 76v68.7704l8.995885 9.35694c4.607475 4.7924 6.824185 3.66083 13.471256 3.77198l121.99241 2.03997c6.64707 0.11115 2.50845-8.9713 8.01882-12.69041l11.52163-7.77626v-63.47262c-26.6454 0-53.29079-36.79397-79.936184-36.79397-28.021271 0-56.042543 36.79397-84.063816 36.79397z" fill="#2e49a4" stroke-width="4.45285"/>
    <path id="path3119" d="m95.041221 21.001652c-4.930595 0.133188-7.984942 3.405915-10.167096 4.935498l-70.874125 50.06285h164l-70.87413-50.06285c-2.18216-1.529583-5.23649-4.80231-10.167091-4.935498-0.307757-0.0088-0.636164 0.01945-0.958779 0.03677-0.322615-0.01732-0.651022-0.04504-0.958779-0.03677z" fill="#3c60d8" stroke-linecap="round" stroke-linejoin="round" stroke-width="47.6709"/>
    <g stroke-width="4.45285">
      <rect id="rect3380" x="59" y="67" width="74" height="74" rx="8" ry="8" fill="#fff"/>
      <path id="path7462" d="m14 80.00025v80c0 3.07222 1.143629 5.86796 3.029297 7.98633 0.03911 0.0439 0.09858 0.0683 0.142578 0.10742-0.553744-0.60541-1.062632-1.2529-1.484375-1.96289l60.140625-35.62891zm164 0-61.82812 50.50195 60.14062 35.62891c-0.42174 0.70999-0.93063 1.35748-1.48438 1.96289 0.044-0.0392 0.10348-0.0635 0.14258-0.10742 1.88567-2.11837 3.0293-4.91411 3.0293-7.98633v-68z" filter="url(#filter7506)" opacity=".2"/>
      <path id="path4380" d="m14 76v80c0 3.07222 1.142982 5.86767 3.02865 7.98604 2.194738 2.46559 12.225375-2.68872 15.800719-2.74438l59.4952-0.92619c114.76576 5.95522 0.178118-20.19493 0.178118-20.19493z" fill="#3052c3"/>
    </g>
    <path id="path7332" d="m95.072266 120.9932c-4.770945 0.10615-7.726394 2.71452-9.837891 3.9336l-69.546875 41.20406c2.088091 3.51525 5.91077 5.86914 10.3125 5.86914h140c4.40173 0 8.22441-2.35389 10.3125-5.86914l-69.54688-41.20406c-2.1115-1.21908-5.06694-3.82745-9.837886-3.9336-0.297792-7e-3 -0.615565 0.0155-0.927734 0.0293-0.312169-0.0138-0.629942-0.0359-0.927734-0.0293z" filter="url(#filter7374)" opacity=".2" stroke-linecap="round" stroke-linejoin="round" stroke-width="41.8637"/>
    <g stroke-width="4.45285">
      <path id="path5105" d="m178 76v80c0 3.07222-1.14298 5.86767-3.02865 7.98604-2.19474 2.46559-12.22538-2.68872-15.80072-2.74438l-59.495199-0.92619c-114.76576 5.95522-0.178118-20.19493-0.178118-20.19493z" fill="#4971f3"/>
      <path id="path8244" d="m91 74.039062c-5.34776 0.289244-7.999969 2.439305-10 4.351563v20.609375a15 15 0 0 0 15 15 15 15 0 0 0 15-15 15 15 0 0 0-15-15 15 15 0 0 0-2 0.142578v10.292969a5 5 0 0 1 2-0.435547 5 5 0 0 1 5 5 5 5 0 0 1-5 5 5 5 0 0 1-5-5v-14.103516z" filter="url(#filter8282)" opacity=".2"/>
      <path id="path3608" d="m91 72.039062c-5.34776 0.289244-7.999969 2.439305-10 4.351563v20.609375a15 15 0 0 0 15 15 15 15 0 0 0 15-15 15 15 0 0 0-15-15 15 15 0 0 0-2 0.142578v10.292969a5 5 0 0 1 2-0.435547 5 5 0 0 1 5 5 5 5 0 0 1-5 5 5 5 0 0 1-5-5v-14.103516z" fill="#3d62dd"/>
    </g>
    <path id="rect2254" d="m95.072266 116.9932c-4.770945 0.10615-7.726394 2.71452-9.837891 3.9336l-69.546875 41.20406c2.088091 3.51525 5.91077 5.86914 10.3125 5.86914h140c4.40173 0 8.22441-2.35389 10.3125-5.86914l-69.54688-41.20406c-2.1115-1.21908-5.06694-3.82745-9.837886-3.9336-0.297792-7e-3 -0.615565 0.0155-0.927734 0.0293-0.312169-0.0138-0.629942-0.0359-0.927734-0.0293z" fill="#3c60d8" stroke-linecap="round" stroke-linejoin="round" stroke-width="41.8637"/>
    <path id="path7552" d="m95.041016 21.001953c-4.930595 0.133188-7.983862 3.405964-10.166016 4.935547l-70.875 50.0625h1.416016l69.458984-49.0625c2.182154-1.529583 5.235421-4.802359 10.166016-4.935547 0.307757-0.0083 0.636369 0.01979 0.958984 0.03711 0.322615-0.01732 0.651227-0.04591 0.958984-0.03711 4.930606 0.133188 7.983856 3.405964 10.166016 4.935547l69.45898 49.0625h1.41602l-70.875-50.0625c-2.18216-1.529583-5.23541-4.802359-10.166016-4.935547-0.307757-0.0088-0.636369 0.01979-0.958984 0.03711-0.322615-0.01732-0.651227-0.04538-0.958984-0.03711z" fill="#fff" opacity=".1" stroke-linecap="round" stroke-linejoin="round" stroke-width="47.6709"/>
    <path id="path7652" d="m14 76v1l61.117188 49.92188-59.429688 35.20898c0.147443 0.24822 0.321995 0.47667 0.486328 0.71289l69.060547-40.91602c2.111497-1.21908 5.066946-3.82744 9.837891-3.93359 0.297792-7e-3 0.615565 0.0155 0.927734 0.0293 0.312169-0.0138 0.629942-0.0363 0.927734-0.0293 4.770946 0.10615 7.726396 2.71451 9.837886 3.93359l8.94571 5.30003 0.64765 0.38371 0.52383-0.68959 61.11719-49.92188v-1l-61.82617 50.50195-9.40821-5.57422c-2.11149-1.21908-5.06694-3.82744-9.837886-3.93359-0.297792-7e-3 -0.615565 0.0155-0.927734 0.0293-0.312169-0.0138-0.629942-0.0359-0.927734-0.0293-4.770945 0.10615-7.726394 2.71451-9.837891 3.93359l-9.40625 5.57422h-2e-3z" fill="#fff" opacity=".1" stroke-width="4.45285"/>
  </g>
</svg>
