<svg id="svg338" version="1.1" viewBox="0 0 64 64" xmlns="http://www.w3.org/2000/svg">
  <defs id="defs310">
    <style id="style298" type="text/css"/>
    <filter id="filter2076" x="-.048000001" y="-.048000001" width="1.096" height="1.096" color-interpolation-filters="sRGB">
      <feGaussianBlur id="feGaussianBlur300" stdDeviation="1.1"/>
    </filter>
    <linearGradient id="linearGradient1428" x1="-94.734001" x2="-13.458" y1="73.934898" y2="-13.593101" gradientTransform="matrix(.40602392 0 0 .40602392 53.96427 20.750124)" gradientUnits="userSpaceOnUse">
      <stop id="stop1422" stop-color="#f76f31" offset="0"/>
      <stop id="stop1424" stop-color="#ff2d0e" offset="1"/>
    </linearGradient>
    <filter id="filter1639" x="-.021818182" y="-.021818182" width="1.0436364" height="1.0436364" color-interpolation-filters="sRGB">
      <feFlood id="feFlood1629" flood-color="rgb(0,0,0)" flood-opacity=".301961" result="flood"/>
      <feComposite id="feComposite1631" in="flood" in2="SourceGraphic" operator="out" result="composite1"/>
      <feGaussianBlur id="feGaussianBlur1633" in="composite1" result="blur" stdDeviation="0.4"/>
      <feOffset id="feOffset1635" dx="2.77556e-17" dy="2.77556e-17" result="offset"/>
      <feComposite id="feComposite1637" in="offset" in2="SourceGraphic" operator="in" result="composite2"/>
    </filter>
  </defs>
  <rect id="rect312" x="4.5" y="4.5" width="55" height="55" rx="13.002" ry="13.002" filter="url(#filter2076)" opacity=".3"/>
  <rect id="rect314" x="4.5" y="4.5" width="55" height="55" rx="13.002" ry="13.002" fill="#fff"/>
  <circle id="circle316" cx="-1266.3" cy="-1269.2" r="0" fill="#5e4aa6"/>
  <circle id="circle318" cx="-166.78" cy="-3.6702" r="0" fill="#5e4aa6" fill-rule="evenodd"/>
  <circle id="path1185" cx="32" cy="32" r="22" fill="#eeeded" fill-rule="evenodd" stroke-width="4.88304"/>
  <circle id="circle326" cx="-78.227" cy="4.7821" r="0" fill="url(#a)" stroke-width="1.501"/>
  <circle id="circle328" cx="-1425.6" cy="-1280.9" r="0" fill="#5e4aa6"/>
  <g id="g336" transform="translate(-176.87 -39.286)" fill="#5e4aa6">
    <circle id="circle330" cx="-149.15" cy="23.855" r="0" fill-rule="evenodd"/>
    <circle id="circle332" cx="-1150.9" cy="-1256.6" r="0"/>
    <circle id="circle334" cx="-51.327" cy="8.8744" r="0" fill-rule="evenodd"/>
  </g>
  <circle id="circle1435" cx="32" cy="32" r="22" fill="#eeeded" fill-rule="evenodd" filter="url(#filter1639)" stroke-width="4.88304"/>
  <path id="path1652" d="m25.653846 15.631h12.692308l2.961538 3.384616 2.115385-0.423077 2.115385 2.115384v2.115385l2.961538 4.230769-3.807692 14.807693a4.2307692 4.2307692 0 0 1-1.692308 2.115384l-8.461538 6.346154a4.2307692 4.2307692 0 0 1-5.076924 0l-8.461538-6.346154a4.2307692 4.2307692 0 0 1-1.692308-2.115384l-3.807692-14.807693 2.961538-4.230769v-2.115385l2.115385-2.115384 2.115385 0.423077z" fill-opacity=".2"/>
  <path id="path1656" d="m25.653846 14.831h12.692308l2.961538 3.384616 2.115385-0.423077 2.115385 2.115384v2.115385l2.961538 4.230769-3.807692 14.807693a4.2307692 4.2307692 0 0 1-1.692308 2.115384l-8.461538 6.346154a4.2307692 4.2307692 0 0 1-5.076924 0l-8.461538-6.346154a4.2307692 4.2307692 0 0 1-1.692308-2.115384l-3.807692-14.807693 2.961538-4.230769v-2.115385l2.115385-2.115384 2.115385 0.423077z" fill="#fd9a80"/>
  <path id="path1399" d="m25.653846 15.231h12.692308l2.961538 3.384616 2.115385-0.423077 2.115385 2.115384v2.115385l2.961538 4.230769-3.807692 14.807693a4.2307692 4.2307692 0 0 1-1.692308 2.115384l-8.461538 6.346154a4.2307692 4.2307692 0 0 1-5.076924 0l-8.461538-6.346154a4.2307692 4.2307692 0 0 1-1.692308-2.115384l-3.807692-14.807693 2.961538-4.230769v-2.115385l2.115385-2.115384 2.115385 0.423077z" fill="url(#linearGradient1428)"/>
  <path id="path2496" d="m23.538404 21.554017 2.961558 0.84616a4.2307984 4.2307984 0 0 0 1.692319 0l2.961559-0.84616a4.2307984 4.2307984 0 0 1 1.69232 0l2.961559 0.84616a4.2307984 4.2307984 0 0 0 1.69232 0l2.961559-0.84616 4.230798 5.923117a2.1153992 2.1153992 0 0 1 0 1.69232l-4.653878 4.653878 0.634618 1.69232a4.2307984 3.1730988 0 0 1 0 1.692318 5.288498 5.288498 0 0 1-1.692319 1.69232 1.6923193 1.6923193 0 0 1-1.269239 0 8.4615969 8.4615969 0 0 1-4.230799-2.961558 0.84615969 0.84615969 0 0 1 0-0.84616l2.53848-2.538479a0.84615969 0.84615969 0 0 0 0-0.84616l-0.84616-2.538479a2.1153992 2.1153992 0 0 1 0.42308-1.480779 8.4615969 8.4615969 0 0 1 5.076957-2.1154 12.692396 12.692396 0 0 0-6.346197 1.26924l0.84616 5.076958a8.4615969 8.4615969 0 0 1-6.346198 0l0.846159-5.076958a12.692396 12.692396 0 0 0-6.346197-1.26924 8.4615969 8.4615969 0 0 1 5.076958 2.1154 2.1153992 2.1153992 0 0 1 0.42308 1.480779l-0.84616 2.538479a0.84615969 0.84615969 0 0 0 0 0.84616l2.538479 2.538479a0.84615969 0.84615969 0 0 1 0 0.84616 8.4615969 8.4615969 0 0 1-4.230798 2.961558 1.6923193 1.6923193 0 0 1-1.269239 0 5.288498 5.288498 0 0 1-1.69232-1.69232 4.2307984 3.1730988 0 0 1 0-1.692318l0.63462-1.69232-4.653879-4.653878a2.1153992 2.1153992 0 0 1 0-1.69232z" fill-opacity=".2"/>
  <path id="path1401" d="m23.538462 21.154077 2.961538 0.846154a4.2307692 4.2307692 0 0 0 1.692308 0l2.961538-0.846154a4.2307692 4.2307692 0 0 1 1.692308 0l2.961538 0.846154a4.2307692 4.2307692 0 0 0 1.692308 0l2.961539-0.846154 4.230769 5.923077a2.1153846 2.1153846 0 0 1 0 1.692308l-4.653846 4.653846 0.634615 1.692308a4.2307692 3.1730769 0 0 1 0 1.692307 5.2884616 5.2884616 0 0 1-1.692308 1.692308 1.6923077 1.6923077 0 0 1-1.26923 0 8.4615385 8.4615385 0 0 1-4.23077-2.961538 0.84615385 0.84615385 0 0 1 0-0.846154l2.538462-2.538462a0.84615385 0.84615385 0 0 0 0-0.846154l-0.846154-2.538461a2.1153846 2.1153846 0 0 1 0.423077-1.480769 8.4615385 8.4615385 0 0 1 5.076923-2.115385 12.692308 12.692308 0 0 0-6.346154 1.269231l0.846154 5.076923a8.4615385 8.4615385 0 0 1-6.346154 0l0.846154-5.076923a12.692308 12.692308 0 0 0-6.346154-1.269231 8.4615385 8.4615385 0 0 1 5.076923 2.115385 2.1153846 2.1153846 0 0 1 0.423077 1.480769l-0.846154 2.538461a0.84615385 0.84615385 0 0 0 0 0.846154l2.538462 2.538462a0.84615385 0.84615385 0 0 1 0 0.846154 8.4615385 8.4615385 0 0 1-4.230769 2.961538 1.6923077 1.6923077 0 0 1-1.269231 0 5.2884616 5.2884616 0 0 1-1.692308-1.692308 4.2307692 3.1730769 0 0 1 0-1.692307l0.634615-1.692308-4.653846-4.653846a2.1153846 2.1153846 0 0 1 0-1.692308z" fill="#fff"/>
  <path id="path2498" d="m31.153833 38.05403a2.1154167 2.1154167 0 0 1 1.692334 0l4.230833 2.115418-5.077 4.230833-5.077-4.230833z" fill-opacity=".2"/>
  <path id="path1403" d="m31.153846 37.654077a2.1153846 2.1153846 0 0 1 1.692308 0l4.230769 2.115385-5.076923 4.230769-5.076923-4.230769z" fill="#fff"/>
</svg>
