<svg id="svg5" version="1.1" viewBox="0 0 64 64" xmlns="http://www.w3.org/2000/svg">
  <defs id="defs3">
    <style id="style1" type="text/css"/>
    <style id="style2" type="text/css"/>
    <filter id="filter1057" x="-.026999999" y="-.026999999" width="1.054" height="1.054" color-interpolation-filters="sRGB">
      <feGaussianBlur id="feGaussianBlur2" stdDeviation="0.61875"/>
    </filter>
    <linearGradient id="linearGradient1053" x1="-127" x2="-72" y1="60" y2="5" gradientTransform="translate(131.5 -.51)" gradientUnits="userSpaceOnUse">
      <stop id="stop2" stop-color="#f4aa41" offset="0"/>
      <stop id="stop3" stop-color="#f2b55d" offset="1"/>
    </linearGradient>
  </defs>
  <rect id="rect3" x="4.5" y="4.5" width="55" height="55" ry="15" fill="#141414" filter="url(#filter1057)" opacity=".3" stroke-linecap="round" stroke-width="2.7444"/>
  <rect id="rect4" x="4.5" y="4.5" width="55" height="55" ry="15" fill="url(#linearGradient1053)" stroke-linecap="round" stroke-width="2.7444"/>
  <circle id="circle4" cx="-1326.3" cy="-1241.6" r="0" fill="#5e4aa6"/>
  <circle id="circle5" cx="-226.72" cy="23.855" r="0" fill="#5e4aa6" fill-rule="evenodd"/>
  <g id="g11">
    <g id="color" transform="matrix(.7186508 0 0 .7186508 6.2368827 6.1317234)">
      <path id="path1" d="m24.473 15.1583-5.0799 1.9352-7.2963 7.901-4.1377 10.5005 1.291 5.3405c1.2554 3.7911 3.3357 6.4338 7.0626 9.2506l2.6874-2.5839s3.8218 7.7098 10.7384 8.9598c0 0 10.2616 1.936 15.5949-0.8765 1.4899-0.7857 2.5141-1.8291 3.2921-2.5939 2.0702-2.0351 3.033-3.5201 4.5413-5.2395l1.6701 1.8077 1.838-0.0557 5.0169-7.2292 2.0032-5.0703-0.0215-4.255-2.1735-5.6141-4.8333-7.4167s-2.6368-4.2558-8.1667-3.9167c0 0-6.5-4.8333-11.8333-4.0833s-3.6104-0.6772-12.1937 3.2395z" fill="#f4aa41"/>
      <polygon id="polygon1" points="39.5833 59.3158 40.4429 57.1116 41.1441 52.9335 41.9167 49.3158 39.9167 49.5658 36 46.7324 32.9167 49.1491 30.4167 49.1491 30.9413 53.0386 31.362 56.0539 32.1667 58.3991 35 59.8991" fill="#ea5a47"/>
      <polygon id="polygon2" points="41.5833 40.3355 39.8333 37.0855 32.5 36.9188 30.9167 40.6688 33.0833 41.9188 34.3333 42.4188 38.6667 42.5855" fill="#3f3f3f"/>
    </g>
    <g id="line" transform="matrix(.7186508 0 0 .7186508 6.2368827 6.1317234)" fill="#2b2b2b">
      <path id="path2" d="m29.5059 30.1088s-1.8051 1.2424-2.7484 0.6679c-0.9434-0.5745-1.2424-1.8051-0.6679-2.7484s1.805-1.2424 2.7484-0.6679 0.6679 2.7484 0.6679 2.7484z"/>
      <g stroke-linecap="round" stroke-linejoin="round">
        <path id="path3" d="m33.109375 36.005859a1 1 0 0 0-1 1 1 1 0 0 0 1 1h6.144531l0.798828 1.876953-1.365234 0.716797a1 1 0 0 0-1.121094-0.859375 1 1 0 0 0-0.861328 1.121094c0.178416 1.347403 1.710959 2.142197 2.914063 1.509766l2.179687-1.146485a1.0001 1.0001 0 0 0 0.455078-1.27539l-1.158203-2.72461c-0.312694-0.735797-1.042292-1.21875-1.841797-1.21875z" stop-color="#000000"/>
        <path id="path4" d="m33.109375 36.005859c-0.830267 0-1.581258 0.5199-1.873047 1.296875l-1.089844 2.904297a1.0001 1.0001 0 0 0 0.554688 1.275391l2.314453 0.953125c1.157693 0.476443 2.506031-0.262219 2.728516-1.494141a1 1 0 0 0-0.806641-1.162109 1 1 0 0 0-1.160156 0.80664l-1.417969-0.583984 0.75-1.996094a1 1 0 0 0 1-1 1 1 0 0 0-1-1z" stop-color="#000000"/>
        <path id="path5" d="m30.517578 49.029297a1 1 0 0 0-1.078125 0.916015s-0.189986 2.275995 0.111328 4.742188c0.150657 1.233097 0.416617 2.525425 0.94336 3.662109 0.526742 1.136685 1.372533 2.176126 2.65625 2.570313 1.438391 0.4417 2.83461 0.590038 4.037109 0.515625 1.202499-0.07441 2.214098-0.316046 2.96875-0.962891 0.8073-0.691971 1.376958-1.864681 1.859375-3.669922 0.482417-1.80524 0.729734-4.177069 0.304687-6.927734a1 1 0 0 0-1.140625-0.835938 1 1 0 0 0-0.835937 1.140625c0.380554 2.462736 0.153818 4.559763-0.259766 6.107422-0.413583 1.54766-1.160815 2.609941-1.228515 2.667969-0.158148 0.135555-0.853893 0.426263-1.792969 0.484375-0.939076 0.05811-2.118664-0.06084-3.326172-0.431641-0.579233-0.177863-1.041324-0.666144-1.427734-1.5-0.386411-0.833855-0.638032-1.954234-0.773438-3.0625-0.270811-2.216531-0.101562-4.33789-0.101562-4.33789a1 1 0 0 0-0.916016-1.078125z" stop-color="#000000"/>
      </g>
      <path id="path6" d="m44.2636 30.1088s1.805 1.2424 2.7484 0.6679 1.2424-1.8051 0.6679-2.7484c-0.5745-0.9434-1.805-1.2424-2.7484-0.6679s-0.6679 2.7484-0.6679 2.7484z"/>
      <g stroke-linecap="round" stroke-linejoin="round">
        <path id="path7" d="m25.755859 41.847656a1 1 0 0 0-1.123047 0.861328c-0.273079 2.071035 0.397118 3.82041 1.398438 5.107422 1.00132 1.287013 2.30396 2.160543 3.408203 2.748047 1.538712 0.818598 3.426775 0.666129 4.804688-0.414062l1.96289-1.541016 1.964844 1.541016c1.377984 1.080146 3.266041 1.232693 4.804687 0.414062 1.104243-0.587504 2.406884-1.461034 3.408204-2.748047 1.00132-1.287012 1.671517-3.036387 1.398437-5.107422a1 1 0 0 0-1.123047-0.861328 1 1 0 0 0-0.861328 1.123047c0.201921 1.531365-0.245007 2.656825-0.992187 3.617188-0.74718 0.960362-1.823374 1.707541-2.769532 2.210937-0.854754 0.454769-1.875043 0.369797-2.630859-0.222656l-2.582031-2.023438a1.0001 1.0001 0 0 0-1.232422 0l-2.582031 2.023438c-0.755688 0.592408-1.775971 0.677458-2.63086 0.222656-0.946157-0.503396-2.022351-1.250575-2.769531-2.210937-0.74718-0.960363-1.196061-2.085823-0.994141-3.617188a1 1 0 0 0-0.859375-1.123047z" stop-color="#000000"/>
        <path id="path8" d="m36.556641 10.560547c-1.280062-0.05818-2.500277-0.0041-3.646485 0.130859-4.441773 0.522923-7.687668 2.200689-9.302734 3.265625-0.237054 3e-3 -0.583382-0.02132-1.404297 0.195313-1.048173 0.276603-2.486546 0.854127-4.126953 2.029297-3.280814 2.350339-7.354399 7.071126-10.935547 16.507812-1.1659665 3.072483-0.185932 6.550952 1.3613281 9.705078 1.5472599 3.154126 3.7268139 6.04592 5.3574219 7.980469 1.382813 1.640616 4.083087 1.27854 5-0.65625l1.986328-4.193359a1.0001 1.0001 0 0 0 0-2e-3c0.300824-0.634908 0.372608-1.362598 0.189453-2.048828-0.607555-2.276591-2.253305-10.071073-0.171875-14.706985a1 1 0 0 0-0.501953-1.322266 1 1 0 0 0-1.322266 0.501954c-2.55177 5.683488-0.582791 13.617605 0.06445 16.042968 0.06085 0.227971 0.03992 0.457443-0.06445 0.677735l-1.988281 4.193359c-0.329086 0.69441-1.169723 0.808793-1.662109 0.224609-1.561493-1.852551-3.660332-4.654191-5.091797-7.572265-1.4314648-2.918074-2.1289897-5.889664-1.2851562-8.113281 3.4813522-9.173715 7.3411042-13.52524 10.228515-15.59375 1.443706-1.034256 2.649151-1.503388 3.472657-1.720704 0.823505-0.217315 1.177734-0.185546 1.177734-0.185546a1.0001 1.0001 0 0 0 0.615234-0.171875c1.292216-0.87816 4.453699-2.558321 8.636719-3.050782 4.18302-0.49246 9.398607 0.154949 15.058594 3.931641a1.0001 1.0001 0 0 0 0.75 0.148437s0.333252-0.08029 1.109375 0.03125c0.776123 0.111545 1.906975 0.42849 3.257812 1.300782 2.701676 1.744584 6.32244 5.757774 9.427735 14.945312 0.762167 2.254977 0.03663 5.240443-1.38086 8.148438-1.417489 2.907995-3.46671 5.688375-4.99414 7.537109-0.48838 0.591069-1.335432 0.480752-1.666016-0.216797l-1.974609-4.166015c-0.104288-0.220054-0.125289-0.449799-0.06445-0.677735 0.647384-2.425397 2.616209-10.359402 0.06445-16.042969a1 1 0 0 0-1.322266-0.501953 1 1 0 0 0-0.501953 1.320313c2.081444 4.636033 0.433787 12.432581-0.173828 14.708984-0.183164 0.686265-0.111459 1.413882 0.189453 2.048828l1.974609 4.166016c0.921616 1.944652 3.643558 2.29965 5.017578 0.636719 1.59347-1.928666 3.721515-4.801795 5.25-7.9375 1.528486-3.135705 2.517996-6.582839 1.476563-9.664063-3.199906-9.467461-7.047507-13.923959-10.238281-15.984375-1.595388-1.030208-3.01717-1.450216-4.056641-1.599609-0.757425-0.108857-1.030289-0.040742-1.300781-0.009766-4.440208-2.895724-8.724099-4.069158-12.488281-4.240234z" stop-color="#000000"/>
        <path id="path9" d="m52.283203 45.525391a1 1 0 0 0-0.560547 0.521484s-0.732494 1.593601-2.03125 3.382812c-1.298756 1.789212-3.159985 3.692032-5.177734 4.353516a1 1 0 0 0-0.638672 1.261719 1 1 0 0 0 1.261719 0.638672c2.70905-0.888116 4.751834-3.119137 6.173828-5.078125 1.421994-1.958989 2.230469-3.726563 2.230469-3.726563a1 1 0 0 0-0.494141-1.326172 1 1 0 0 0-0.763672-0.02734z" stop-color="#000000"/>
        <path id="path10" d="m18.986328 46.076172a1 1 0 0 0-0.441406 1.34375s3.044049 6.379884 8.384765 8.130859a1 1 0 0 0 1.261719-0.638672 1 1 0 0 0-0.638672-1.261718c-4.112883-1.348426-7.222656-7.132813-7.222656-7.132813a1 1 0 0 0-1.34375-0.441406z" stop-color="#000000"/>
        <path id="line10" d="m36.207031 43.308594a1 1 0 0 0-1 1v3.03125a1 1 0 0 0 1 1 1 1 0 0 0 1-1v-3.03125a1 1 0 0 0-1-1z" stop-color="#000000"/>
      </g>
    </g>
  </g>
</svg>
