<svg id="svg193" version="1.1" viewBox="0 0 64 64" xmlns="http://www.w3.org/2000/svg">
    <defs id="defs45">
        <style id="style4" type="text/css"/>
        <style id="style6" type="text/css"/>
        <style id="style11" type="text/css"/>
        <style id="style13" type="text/css"/>
        <style id="style15" type="text/css"/>
        <style id="style17" type="text/css"/>
        <style id="style19" type="text/css"/>
        <style id="style21" type="text/css"/>
        <style id="style23" type="text/css"/>
        <style id="style25" type="text/css"/>
        <style id="style27" type="text/css"/>
        <style id="style29" type="text/css"/>
        <style id="style39" type="text/css"/>
        <style id="style41" type="text/css"/>
        <style id="style43" type="text/css"/>
        <style id="style2528" type="text/css"/>
        <filter id="filter1057-3" x="-.026999999" y="-.026999999" width="1.054" height="1.054" color-interpolation-filters="sRGB">
            <feGaussianBlur id="feGaussianBlur2530" stdDeviation="0.61875"/>
        </filter>
        <linearGradient id="linearGradient5706" x1="4.5" x2="59.5" y1="32" y2="32" gradientTransform="translate(-66.306503,-18.315412)" gradientUnits="userSpaceOnUse">
            <stop id="stop5700" stop-color="#dbb97e" offset="0"/>
            <stop id="stop5702" stop-color="#dbb97e" offset="1"/>
        </linearGradient>
        <filter id="filter18553" x="-.041212086" y="-.020076552" width="1.0824242" height="1.0401531" color-interpolation-filters="sRGB">
            <feGaussianBlur id="feGaussianBlur18555" stdDeviation="0.13734009"/>
        </filter>
        <filter id="filter2179" x="-.025803666" y="-.028312658" width="1.0516073" height="1.0566253" color-interpolation-filters="sRGB">
            <feGaussianBlur id="feGaussianBlur2181" stdDeviation="0.32254574"/>
        </filter>
        <style id="style2528-6" type="text/css"/>
    </defs>
    <g id="g59" fill="#5e4aa6">
        <circle id="circle51" cx="-1248.7" cy="-1241.6" r="0"/>
        <circle id="circle53" cx="-1413.1" cy="-1298.3" r="0"/>
        <circle id="circle55" cx="-1223.9" cy="-1350" r="0"/>
        <circle id="circle57" cx="-124.34" cy="-84.463" r="0" fill-rule="evenodd"/>
    </g>
    <g id="g191" fill="#5e4aa6">
        <g id="g77" transform="matrix(3.7796 0 0 3.7796 -.10224 .024379)" stroke-width=".26458">
            <circle id="circle69" cx="-330.35" cy="-328.38" r="0"/>
            <circle id="circle71" cx="-312.11" cy="-326.25" r="0"/>
            <circle id="circle73" cx="-306.02" cy="-333.07" r="0"/>
            <circle id="circle75" cx="-308.84" cy="-326.01" r="0"/>
        </g>
        <g id="g107" transform="matrix(3.7796 0 0 3.7796 73.099 -.0001887)" stroke-width=".26458">
            <g id="g95" transform="translate(-.0272 .0065001)">
                <circle id="circle79" cx="-330.35" cy="-328.38" r="0"/>
                <circle id="circle81" cx="-312.11" cy="-326.25" r="0"/>
                <circle id="circle83" cx="-306.02" cy="-333.07" r="0"/>
                <circle id="circle85" cx="-308.84" cy="-326.01" r="0"/>
                <circle id="circle87" cx="-330.35" cy="-328.38" r="0"/>
                <circle id="circle89" cx="-312.11" cy="-326.25" r="0"/>
                <circle id="circle91" cx="-306.02" cy="-333.07" r="0"/>
                <circle id="circle93" cx="-308.84" cy="-326.01" r="0"/>
            </g>
            <g id="g105" transform="translate(-.02705 .0064503)">
                <circle id="circle97" cx="-330.35" cy="-328.38" r="0"/>
                <circle id="circle99" cx="-312.11" cy="-326.25" r="0"/>
                <circle id="circle101" cx="-306.02" cy="-333.07" r="0"/>
                <circle id="circle103" cx="-308.84" cy="-326.01" r="0"/>
            </g>
        </g>
        <g id="g189" transform="translate(135.23)">
            <circle id="circle109" cx="-1248.7" cy="-1241.6" r="0"/>
            <circle id="circle111" cx="-149.15" cy="23.855" r="0" fill-rule="evenodd"/>
            <circle id="circle113" cx="-1150.9" cy="-1256.6" r="0"/>
            <circle id="circle115" cx="-51.327" cy="8.8744" r="0" fill-rule="evenodd"/>
            <g id="g145" transform="matrix(3.7796,0,0,3.7796,167.86,4.61)" stroke-width=".26458">
                <g id="g133" transform="translate(-.0272 .0065001)">
                    <circle id="circle117" cx="-330.35" cy="-328.38" r="0"/>
                    <circle id="circle119" cx="-312.11" cy="-326.25" r="0"/>
                    <circle id="circle121" cx="-306.02" cy="-333.07" r="0"/>
                    <circle id="circle123" cx="-308.84" cy="-326.01" r="0"/>
                    <circle id="circle125" cx="-330.35" cy="-328.38" r="0"/>
                    <circle id="circle127" cx="-312.11" cy="-326.25" r="0"/>
                    <circle id="circle129" cx="-306.02" cy="-333.07" r="0"/>
                    <circle id="circle131" cx="-308.84" cy="-326.01" r="0"/>
                </g>
                <g id="g143" transform="translate(-.02705 .0064503)">
                    <circle id="circle135" cx="-330.35" cy="-328.38" r="0"/>
                    <circle id="circle137" cx="-312.11" cy="-326.25" r="0"/>
                    <circle id="circle139" cx="-306.02" cy="-333.07" r="0"/>
                    <circle id="circle141" cx="-308.84" cy="-326.01" r="0"/>
                </g>
            </g>
            <circle id="circle147" cx="-1248.7" cy="-1241.6" r="0"/>
            <circle id="circle149" cx="-149.15" cy="23.855" r="0" fill-rule="evenodd"/>
            <circle id="circle151" cx="-1248.7" cy="-1241.6" r="0"/>
            <circle id="circle153" cx="-149.15" cy="23.855" r="0" fill-rule="evenodd"/>
            <circle id="circle155" cx="-1150.9" cy="-1256.6" r="0"/>
            <circle id="circle157" cx="-51.327" cy="8.8744" r="0" fill-rule="evenodd"/>
            <g id="g187" transform="matrix(3.7796,0,0,3.7796,167.86,4.61)" stroke-width=".26458">
                <g id="g175" transform="translate(-.0272 .0065001)">
                    <circle id="circle159" cx="-330.35" cy="-328.38" r="0"/>
                    <circle id="circle161" cx="-312.11" cy="-326.25" r="0"/>
                    <circle id="circle163" cx="-306.02" cy="-333.07" r="0"/>
                    <circle id="circle165" cx="-308.84" cy="-326.01" r="0"/>
                    <circle id="circle167" cx="-330.35" cy="-328.38" r="0"/>
                    <circle id="circle169" cx="-312.11" cy="-326.25" r="0"/>
                    <circle id="circle171" cx="-306.02" cy="-333.07" r="0"/>
                    <circle id="circle173" cx="-308.84" cy="-326.01" r="0"/>
                </g>
                <g id="g185" transform="translate(-.02705 .0064503)">
                    <circle id="circle177" cx="-330.35" cy="-328.38" r="0"/>
                    <circle id="circle179" cx="-312.11" cy="-326.25" r="0"/>
                    <circle id="circle181" cx="-306.02" cy="-333.07" r="0"/>
                    <circle id="circle183" cx="-308.84" cy="-326.01" r="0"/>
                </g>
            </g>
        </g>
    </g>
    <style id="style2560" type="text/css">.st0{opacity:0.15;fill:#45413C;}
	.st1{fill:#FFE500;}
	.st2{fill:#EBCB00;}
	.st3{fill:none;stroke:#45413C;stroke-linecap:round;stroke-linejoin:round;stroke-miterlimit:10;}
	.st4{fill:#FFAA54;}
	.st5{fill:#FF8A14;}
	.st6{fill:#FFB0CA;stroke:#45413C;stroke-linecap:round;stroke-linejoin:round;stroke-miterlimit:10;}
	.st7{fill:#FF87AF;stroke:#45413C;stroke-linecap:round;stroke-linejoin:round;stroke-miterlimit:10;}
	.st8{fill:#FFCC99;}
	.st9{fill:#FFFFFF;}
	.st10{fill:#F0F0F0;}
	.st11{fill:#BF8256;}
	.st12{fill:#915E3A;}
	.st13{fill:#DEA47A;}
	.st14{fill:#F0D5A8;}
	.st15{fill:#DEBB7E;}
	.st16{fill:#F7E5C6;}
	.st17{fill:#FF8A14;stroke:#45413C;stroke-linecap:round;stroke-linejoin:round;stroke-miterlimit:10;}
	.st18{fill:#FFF5E3;}
	.st19{fill:#FFF48C;}
	.st20{fill:#FFFACF;}
	.st21{fill:#FFFCE5;}
	.st22{fill:#FF87AF;}
	.st23{fill:#FFB0CA;}
	.st24{fill:#FFE500;stroke:#45413C;stroke-linecap:round;stroke-linejoin:round;stroke-miterlimit:10;}
	.st25{fill:#9CEB60;stroke:#45413C;stroke-linecap:round;stroke-linejoin:round;stroke-miterlimit:10;}
	.st26{fill:#FFFACF;stroke:#45413C;stroke-linecap:round;stroke-linejoin:round;stroke-miterlimit:10;}
	.st27{fill:#00F5BC;stroke:#45413C;stroke-linecap:round;stroke-linejoin:round;stroke-miterlimit:10;}
	.st28{fill:#BF8256;stroke:#45413C;stroke-linecap:round;stroke-linejoin:round;stroke-miterlimit:10;}
	.st29{fill:#FFE3CF;stroke:#45413C;stroke-linecap:round;stroke-linejoin:round;stroke-miterlimit:10;}
	.st30{fill:#FF6242;}
	.st31{fill:#FF866E;}
	.st32{fill:none;stroke:#E04122;stroke-linecap:round;stroke-linejoin:round;stroke-miterlimit:10;}
	.st33{fill:#FFFEF2;stroke:#45413C;stroke-linecap:round;stroke-linejoin:round;stroke-miterlimit:10;}
	.st34{fill:#FF6242;stroke:#45413C;stroke-linecap:round;stroke-linejoin:round;stroke-miterlimit:10;}
	.st35{fill:#FFA694;}
	.st36{fill:#FFFFFF;stroke:#45413C;stroke-linecap:round;stroke-linejoin:round;stroke-miterlimit:10;}
	.st37{fill:#FFFEF2;}
	.st38{fill:#FF6196;}
	.st39{fill:#B89558;}
	.st40{fill:none;stroke:#915E3A;stroke-linecap:round;stroke-linejoin:round;stroke-miterlimit:10;}
	.st41{fill:#DEBB7E;stroke:#45413C;stroke-linecap:round;stroke-linejoin:round;stroke-miterlimit:10;}
	.st42{fill:#6DD627;stroke:#45413C;stroke-linecap:round;stroke-linejoin:round;stroke-miterlimit:10;}
	.st43{fill:#E5F8FF;}
	.st44{fill:#E8F4FA;}
	.st45{fill:#E8F4FA;stroke:#45413C;stroke-linecap:round;stroke-linejoin:round;stroke-miterlimit:10;}
	.st46{fill:#FFCCDD;}
	.st47{fill:#E5F8FF;stroke:#45413C;stroke-linecap:round;stroke-linejoin:round;stroke-miterlimit:10;}
	.st48{fill:#00B8F0;stroke:#45413C;stroke-linecap:round;stroke-linejoin:round;stroke-miterlimit:10;}
	.st49{fill:#00B8F0;}
	.st50{fill:#4ACFFF;}
	.st51{fill:#E04122;}
	.st52{fill:#E04122;stroke:#45413C;stroke-linecap:round;stroke-linejoin:round;stroke-miterlimit:10;}
	.st53{fill:#87898C;}
	.st54{fill:#BDBEC0;}
	.st55{fill:#656769;}
	.st56{fill:#525252;}
	.st57{fill:#FFF48C;stroke:#45413C;stroke-linecap:round;stroke-linejoin:round;stroke-miterlimit:10;}
	.st58{fill:#6DD627;}
	.st59{fill:#EB6D00;}
	.st60{fill:#46B000;}
	.st61{fill:#80DDFF;}
	.st62{fill:#DAEDF7;}
	.st63{fill:#BF8DF2;stroke:#45413C;stroke-linecap:round;stroke-linejoin:round;stroke-miterlimit:10;}
	.st64{fill:#9F5AE5;stroke:#45413C;stroke-linecap:round;stroke-linejoin:round;stroke-miterlimit:10;}
	.st65{fill:#C8FFA1;}
	.st66{fill:#E4FFD1;}
	.st67{fill:#9CEB60;}
	.st68{fill:#E5FEFF;}
	.st69{fill:#B8ECFF;}
	.st70{fill:#E0E0E0;stroke:#45413C;stroke-linecap:round;stroke-linejoin:round;stroke-miterlimit:10;}
	.st71{fill:#E0E0E0;}
	.st72{fill:none;stroke:#4F4B45;stroke-linejoin:round;stroke-miterlimit:10;}
	.st73{fill:none;stroke:#4F4B45;stroke-linecap:round;stroke-linejoin:round;stroke-miterlimit:10;}
	.st74{fill:#E0366F;stroke:#45413C;stroke-linecap:round;stroke-linejoin:round;stroke-miterlimit:10;}
	.st75{fill:none;stroke:#45413C;stroke-miterlimit:10;}
	.st76{fill:#FF866E;stroke:#45413C;stroke-linecap:round;stroke-linejoin:round;stroke-miterlimit:10;}
	.st77{fill:#45413C;stroke:#45413C;stroke-linecap:round;stroke-linejoin:round;stroke-miterlimit:10;}
	.st78{fill:#9F5AE5;}
	.st79{fill:#803EC2;}
	.st80{fill:#803EC2;stroke:#45413C;stroke-linecap:round;stroke-linejoin:round;stroke-miterlimit:10;}
	.st81{fill:#BF8DF2;}
	.st82{fill:#FFAA54;stroke:#45413C;stroke-linecap:round;stroke-linejoin:round;stroke-miterlimit:10;}
	.st83{fill:none;stroke:#45413C;stroke-linejoin:round;stroke-miterlimit:10;}
	.st84{fill:#FFCCDD;stroke:#45413C;stroke-linecap:round;stroke-linejoin:round;stroke-miterlimit:10;}
	.st85{fill:#FF6196;stroke:#45413C;stroke-linecap:round;stroke-linejoin:round;stroke-miterlimit:10;}
	.st86{fill:#FFE5EE;}
	.st87{fill:#F7E5C6;stroke:#45413C;stroke-linecap:round;stroke-linejoin:round;stroke-miterlimit:10;}
	.st88{fill:#E5FFF9;}
	.st89{fill:none;stroke:#45413C;stroke-width:1.0064;stroke-linecap:round;stroke-linejoin:round;stroke-miterlimit:10;}
	.st90{fill:#4AEFF7;}
	.st91{fill:#A6FBFF;}
	.st92{fill:#E5FEFF;stroke:#45413C;stroke-linecap:round;stroke-linejoin:round;stroke-miterlimit:10;}
	.st93{fill:#46B000;stroke:#45413C;stroke-linecap:round;stroke-linejoin:round;stroke-miterlimit:10;}
	.st94{fill:#FFFFFF;stroke:#45413C;stroke-linejoin:round;stroke-miterlimit:10;}
	.st95{fill:#FFFFFF;stroke:#45413C;stroke-miterlimit:10;}
	.st96{fill:#009FD9;}
	.st97{fill:#00DFEB;}
	.st98{fill:#C0DCEB;stroke:#45413C;stroke-linecap:round;stroke-linejoin:round;stroke-miterlimit:10;}
	.st99{fill:#00DFEB;stroke:#45413C;stroke-linecap:round;stroke-linejoin:round;stroke-miterlimit:10;}
	.st100{fill:#FFE5EE;stroke:#45413C;stroke-linecap:round;stroke-linejoin:round;stroke-miterlimit:10;}
	.st101{fill:#8CA4B8;}
	.st102{fill:#ADC4D9;}
	.st103{fill:#656769;stroke:#45413C;stroke-linecap:round;stroke-linejoin:round;stroke-miterlimit:10;}
	.st104{fill:#F0F0F0;stroke:#45413C;stroke-linecap:round;stroke-linejoin:round;stroke-miterlimit:10;}
	.st105{fill:#C0DCEB;}
	.st106{fill:#45413C;}
	.st107{fill:#FFCABF;}
	.st108{fill:#87898C;stroke:#45413C;stroke-linecap:round;stroke-linejoin:round;stroke-miterlimit:10;}
	.st109{fill:#EBCB00;stroke:#45413C;stroke-linecap:round;stroke-linejoin:round;stroke-miterlimit:10;}</style>
    <g id="g2552" transform="translate(-66.306503,-18.315412)" fill="#5e4aa6">
        <circle id="circle2546" cx="-1248.7" cy="-1241.6" r="0"/>
        <circle id="circle2548" cx="-1059.5" cy="-1293.3" r="0"/>
        <circle id="circle2550" cx="40.034" cy="-27.737" r="0" fill-rule="evenodd"/>
    </g>
    <g id="g2600" transform="translate(-66.306503,-18.315412)" fill="#5e4aa6">
        <circle id="circle2562" cx="-1084.9" cy="-1267.7" r="0"/>
        <circle id="circle2564" cx="14.693" cy="-2.1826999" r="0" fill-rule="evenodd"/>
        <circle id="circle2566" cx="-1269.8" cy="-1283" r="0"/>
        <circle id="circle2568" cx="-170.22" cy="-17.475" r="0" fill-rule="evenodd"/>
        <circle id="circle2570" cx="-1230.6" cy="-1370.4" r="0"/>
        <circle id="circle2572" cx="-1122.3" cy="-1430.5" r="0"/>
        <g id="g2586" transform="matrix(3.7796,0,0,3.7796,-16.748,-103.66)" stroke-width=".26458">
            <circle id="circle2574" cx="-330.38" cy="-328.51001" r="0"/>
            <circle id="circle2576" cx="-301.70999" cy="-344.42999" r="0"/>
            <circle id="circle2578" cx="-259.01001" cy="-348.26001" r="0"/>
            <circle id="circle2580" cx="31.886" cy="-13.442" r="0" fill-rule="evenodd"/>
            <circle id="circle2582" cx="-257.29001" cy="-350.64999" r="0"/>
            <circle id="circle2584" cx="33.611" cy="-15.826" r="0" fill-rule="evenodd"/>
        </g>
        <g id="g2594" transform="translate(-186.89,-74.879)">
            <circle id="circle2588" cx="-1248.7" cy="-1241.6" r="0"/>
            <circle id="circle2590" cx="-1140.3" cy="-1301.8" r="0"/>
            <circle id="circle2592" cx="-1158.1" cy="-1246" r="0"/>
        </g>
        <circle id="circle2596" cx="-1344.2" cy="-1342.6" r="0"/>
        <circle id="circle2598" cx="-244.64" cy="-77.061996" r="0" fill-rule="evenodd"/>
    </g>
    <g id="g2097" transform="translate(66.306503,18.315411)">
        <rect id="rect2542" x="-61.806503" y="-13.815412" width="55" height="55" ry="15" fill="#141414" filter="url(#filter1057-3)" opacity=".3" stroke-linecap="round" stroke-width="2.7444"/>
        <rect id="rect2544" x="-61.806503" y="-13.815412" width="55" height="55" ry="15" fill="url(#linearGradient5706)" stroke-linecap="round" stroke-width="2.7444"/>
        <path id="rect3828" d="m-46.806503-13.815412c-8.309992 0-15 6.690008-15 15v25c0 8.309992 6.690008 15 15 15h0.220703v-55z" fill="#a77358"/>
        <path id="path18551" d="m-44.749862-13.815412v16.417969l4-4 3.998047 3.998047v-16.416016z" fill="#2a0304" filter="url(#filter18553)" opacity=".3"/>
        <path id="path2558" d="m-44.749862-13.815412v16.417969l4-4 3.998047 3.998047v-16.416016z" fill="#ef3133"/>
        <path id="path13512" d="m-46.589706-13.815412v55h1.007812v-55z" color="#000000" fill="#fff" opacity=".15"/>
        <path id="path13514" d="m-46.806503-13.815412c-0.26568 0-0.528813 8e-3 -0.791016 0.02148v54.957032c0.262203 0.01351 0.525336 0.02148 0.791016 0.02148h0.216797v-55z" color="#000000" opacity=".3" style="-inkscape-stroke:none"/>
    </g>
    <path id="path2177" transform="matrix(1.3153481,0,0,1.3153481,-9.140876,1.763388)" d="m36.685136 29.313713q-1.156327-0.336942-2.208627-0.574333a9.3118631 9.3118631 0 0 1-0.43267-2.828913c0-4.186892 2.691067-7.581204 6.010717-7.581204s6.00817 3.391121 6.00817 7.578652a9.3361128 9.3361128 0 0 1-0.3931 2.700644q-1.30948 0.274404-2.78998 0.705154c-1.40393 0.409691-2.5392 0.815554-3.09885 1.024228-0.55647-0.208674-1.69173-0.614537-3.09566-1.024228zm-8.165107 5.420434a3.5200272 3.5200272 0 1 0 3.52003 3.519389 3.5200272 3.5200272 0 0 0-3.52003-3.519389zm22.959937 0a3.5200272 3.5200272 0 1 0 3.52003 3.519389 3.5200272 3.5200272 0 0 0-3.51939-3.519389zm-4.54042 3.519389a4.54617 4.54617 0 0 1 2.69681-4.147966v-4.948841c-4.11542 0-9.85556 2.274361-9.85556 2.274361s-5.740147-2.274361-9.855567-2.274361v4.781008a4.5397885 4.5397885 0 0 1 0 8.632873v0.446704c4.11542 0 9.855567 2.653422 9.855567 2.653422s5.7427-2.651507 9.85556-2.651507v-0.617728a4.54617 4.54617 0 0 1-2.69681-4.147965z" filter="url(#filter2179)" opacity=".3" stroke-width=".0638148"/>
    <path id="path2099" d="m39.112848 40.321125q-1.520973-0.443196-2.905113-0.755448a12.248341 12.248341 0 0 1-0.569112-3.721005c0-5.507221 3.53969-9.971923 7.906185-9.971923s7.902835 4.460505 7.902835 9.968566a12.280238 12.280238 0 0 1-0.517063 3.552287q-1.722422 0.360937-3.669795 0.927523c-1.846657 0.538886-3.339932 1.072737-4.076067 1.347216-0.731951-0.274479-2.225213-0.80833-4.07187-1.347216zm-10.739958 7.129757a4.6300611 4.6300611 0 1 0 4.630065 4.629222 4.6300611 4.6300611 0 0 0-4.630065-4.629222zm30.200309 0a4.6300611 4.6300611 0 1 0 4.630065 4.629222 4.6300611 4.6300611 0 0 0-4.629223-4.629222zm-5.972232 4.629222a5.9797961 5.9797961 0 0 1 3.547244-5.456019v-6.509449c-5.41321 0-12.963493 2.991577-12.963493 2.991577s-7.550291-2.991577-12.963501-2.991577v6.28869a5.9714022 5.9714022 0 0 1 0 11.355233v0.587571c5.41321 0 12.963501 3.490174 12.963501 3.490174s7.55365-3.487655 12.963493-3.487655v-0.812527a5.9797961 5.9797961 0 0 1-3.547244-5.456018z" fill="#75513e" stroke-width=".0839387"/>
    <style id="style2560-6" type="text/css">.st0{opacity:0.15;fill:#45413C;}
	.st1{fill:#FFE500;}
	.st2{fill:#EBCB00;}
	.st3{fill:none;stroke:#45413C;stroke-linecap:round;stroke-linejoin:round;stroke-miterlimit:10;}
	.st4{fill:#FFAA54;}
	.st5{fill:#FF8A14;}
	.st6{fill:#FFB0CA;stroke:#45413C;stroke-linecap:round;stroke-linejoin:round;stroke-miterlimit:10;}
	.st7{fill:#FF87AF;stroke:#45413C;stroke-linecap:round;stroke-linejoin:round;stroke-miterlimit:10;}
	.st8{fill:#FFCC99;}
	.st9{fill:#FFFFFF;}
	.st10{fill:#F0F0F0;}
	.st11{fill:#BF8256;}
	.st12{fill:#915E3A;}
	.st13{fill:#DEA47A;}
	.st14{fill:#F0D5A8;}
	.st15{fill:#DEBB7E;}
	.st16{fill:#F7E5C6;}
	.st17{fill:#FF8A14;stroke:#45413C;stroke-linecap:round;stroke-linejoin:round;stroke-miterlimit:10;}
	.st18{fill:#FFF5E3;}
	.st19{fill:#FFF48C;}
	.st20{fill:#FFFACF;}
	.st21{fill:#FFFCE5;}
	.st22{fill:#FF87AF;}
	.st23{fill:#FFB0CA;}
	.st24{fill:#FFE500;stroke:#45413C;stroke-linecap:round;stroke-linejoin:round;stroke-miterlimit:10;}
	.st25{fill:#9CEB60;stroke:#45413C;stroke-linecap:round;stroke-linejoin:round;stroke-miterlimit:10;}
	.st26{fill:#FFFACF;stroke:#45413C;stroke-linecap:round;stroke-linejoin:round;stroke-miterlimit:10;}
	.st27{fill:#00F5BC;stroke:#45413C;stroke-linecap:round;stroke-linejoin:round;stroke-miterlimit:10;}
	.st28{fill:#BF8256;stroke:#45413C;stroke-linecap:round;stroke-linejoin:round;stroke-miterlimit:10;}
	.st29{fill:#FFE3CF;stroke:#45413C;stroke-linecap:round;stroke-linejoin:round;stroke-miterlimit:10;}
	.st30{fill:#FF6242;}
	.st31{fill:#FF866E;}
	.st32{fill:none;stroke:#E04122;stroke-linecap:round;stroke-linejoin:round;stroke-miterlimit:10;}
	.st33{fill:#FFFEF2;stroke:#45413C;stroke-linecap:round;stroke-linejoin:round;stroke-miterlimit:10;}
	.st34{fill:#FF6242;stroke:#45413C;stroke-linecap:round;stroke-linejoin:round;stroke-miterlimit:10;}
	.st35{fill:#FFA694;}
	.st36{fill:#FFFFFF;stroke:#45413C;stroke-linecap:round;stroke-linejoin:round;stroke-miterlimit:10;}
	.st37{fill:#FFFEF2;}
	.st38{fill:#FF6196;}
	.st39{fill:#B89558;}
	.st40{fill:none;stroke:#915E3A;stroke-linecap:round;stroke-linejoin:round;stroke-miterlimit:10;}
	.st41{fill:#DEBB7E;stroke:#45413C;stroke-linecap:round;stroke-linejoin:round;stroke-miterlimit:10;}
	.st42{fill:#6DD627;stroke:#45413C;stroke-linecap:round;stroke-linejoin:round;stroke-miterlimit:10;}
	.st43{fill:#E5F8FF;}
	.st44{fill:#E8F4FA;}
	.st45{fill:#E8F4FA;stroke:#45413C;stroke-linecap:round;stroke-linejoin:round;stroke-miterlimit:10;}
	.st46{fill:#FFCCDD;}
	.st47{fill:#E5F8FF;stroke:#45413C;stroke-linecap:round;stroke-linejoin:round;stroke-miterlimit:10;}
	.st48{fill:#00B8F0;stroke:#45413C;stroke-linecap:round;stroke-linejoin:round;stroke-miterlimit:10;}
	.st49{fill:#00B8F0;}
	.st50{fill:#4ACFFF;}
	.st51{fill:#E04122;}
	.st52{fill:#E04122;stroke:#45413C;stroke-linecap:round;stroke-linejoin:round;stroke-miterlimit:10;}
	.st53{fill:#87898C;}
	.st54{fill:#BDBEC0;}
	.st55{fill:#656769;}
	.st56{fill:#525252;}
	.st57{fill:#FFF48C;stroke:#45413C;stroke-linecap:round;stroke-linejoin:round;stroke-miterlimit:10;}
	.st58{fill:#6DD627;}
	.st59{fill:#EB6D00;}
	.st60{fill:#46B000;}
	.st61{fill:#80DDFF;}
	.st62{fill:#DAEDF7;}
	.st63{fill:#BF8DF2;stroke:#45413C;stroke-linecap:round;stroke-linejoin:round;stroke-miterlimit:10;}
	.st64{fill:#9F5AE5;stroke:#45413C;stroke-linecap:round;stroke-linejoin:round;stroke-miterlimit:10;}
	.st65{fill:#C8FFA1;}
	.st66{fill:#E4FFD1;}
	.st67{fill:#9CEB60;}
	.st68{fill:#E5FEFF;}
	.st69{fill:#B8ECFF;}
	.st70{fill:#E0E0E0;stroke:#45413C;stroke-linecap:round;stroke-linejoin:round;stroke-miterlimit:10;}
	.st71{fill:#E0E0E0;}
	.st72{fill:none;stroke:#4F4B45;stroke-linejoin:round;stroke-miterlimit:10;}
	.st73{fill:none;stroke:#4F4B45;stroke-linecap:round;stroke-linejoin:round;stroke-miterlimit:10;}
	.st74{fill:#E0366F;stroke:#45413C;stroke-linecap:round;stroke-linejoin:round;stroke-miterlimit:10;}
	.st75{fill:none;stroke:#45413C;stroke-miterlimit:10;}
	.st76{fill:#FF866E;stroke:#45413C;stroke-linecap:round;stroke-linejoin:round;stroke-miterlimit:10;}
	.st77{fill:#45413C;stroke:#45413C;stroke-linecap:round;stroke-linejoin:round;stroke-miterlimit:10;}
	.st78{fill:#9F5AE5;}
	.st79{fill:#803EC2;}
	.st80{fill:#803EC2;stroke:#45413C;stroke-linecap:round;stroke-linejoin:round;stroke-miterlimit:10;}
	.st81{fill:#BF8DF2;}
	.st82{fill:#FFAA54;stroke:#45413C;stroke-linecap:round;stroke-linejoin:round;stroke-miterlimit:10;}
	.st83{fill:none;stroke:#45413C;stroke-linejoin:round;stroke-miterlimit:10;}
	.st84{fill:#FFCCDD;stroke:#45413C;stroke-linecap:round;stroke-linejoin:round;stroke-miterlimit:10;}
	.st85{fill:#FF6196;stroke:#45413C;stroke-linecap:round;stroke-linejoin:round;stroke-miterlimit:10;}
	.st86{fill:#FFE5EE;}
	.st87{fill:#F7E5C6;stroke:#45413C;stroke-linecap:round;stroke-linejoin:round;stroke-miterlimit:10;}
	.st88{fill:#E5FFF9;}
	.st89{fill:none;stroke:#45413C;stroke-width:1.0064;stroke-linecap:round;stroke-linejoin:round;stroke-miterlimit:10;}
	.st90{fill:#4AEFF7;}
	.st91{fill:#A6FBFF;}
	.st92{fill:#E5FEFF;stroke:#45413C;stroke-linecap:round;stroke-linejoin:round;stroke-miterlimit:10;}
	.st93{fill:#46B000;stroke:#45413C;stroke-linecap:round;stroke-linejoin:round;stroke-miterlimit:10;}
	.st94{fill:#FFFFFF;stroke:#45413C;stroke-linejoin:round;stroke-miterlimit:10;}
	.st95{fill:#FFFFFF;stroke:#45413C;stroke-miterlimit:10;}
	.st96{fill:#009FD9;}
	.st97{fill:#00DFEB;}
	.st98{fill:#C0DCEB;stroke:#45413C;stroke-linecap:round;stroke-linejoin:round;stroke-miterlimit:10;}
	.st99{fill:#00DFEB;stroke:#45413C;stroke-linecap:round;stroke-linejoin:round;stroke-miterlimit:10;}
	.st100{fill:#FFE5EE;stroke:#45413C;stroke-linecap:round;stroke-linejoin:round;stroke-miterlimit:10;}
	.st101{fill:#8CA4B8;}
	.st102{fill:#ADC4D9;}
	.st103{fill:#656769;stroke:#45413C;stroke-linecap:round;stroke-linejoin:round;stroke-miterlimit:10;}
	.st104{fill:#F0F0F0;stroke:#45413C;stroke-linecap:round;stroke-linejoin:round;stroke-miterlimit:10;}
	.st105{fill:#C0DCEB;}
	.st106{fill:#45413C;}
	.st107{fill:#FFCABF;}
	.st108{fill:#87898C;stroke:#45413C;stroke-linecap:round;stroke-linejoin:round;stroke-miterlimit:10;}
	.st109{fill:#EBCB00;stroke:#45413C;stroke-linecap:round;stroke-linejoin:round;stroke-miterlimit:10;}</style>
    <g id="g154" fill="#5e4aa6">
        <circle id="circle2546-3" cx="-1358.613" cy="-1282.9583" r="0"/>
        <circle id="circle2548-6" cx="-1169.4131" cy="-1334.6583" r="0"/>
        <circle id="circle2550-0" cx="-69.879036" cy="-69.095253" r="0" fill-rule="evenodd"/>
        <circle id="circle2562-6" cx="-1194.8131" cy="-1309.0582" r="0"/>
        <circle id="circle2564-1" cx="-95.220039" cy="-43.540951" r="0" fill-rule="evenodd"/>
        <circle id="circle2566-8" cx="-1379.7131" cy="-1324.3583" r="0"/>
        <circle id="circle2568-7" cx="-280.13303" cy="-58.833252" r="0" fill-rule="evenodd"/>
        <circle id="circle2570-9" cx="-1340.5131" cy="-1411.7583" r="0"/>
        <circle id="circle2572-2" cx="-1232.2131" cy="-1471.8583" r="0"/>
        <g id="g147" stroke-width="1.00001">
            <circle id="circle2574-2" cx="-1375.3654" cy="-1386.6547" r="0"/>
            <circle id="circle2576-3" cx="-1267.0042" cy="-1446.8258" r="0"/>
            <circle id="circle2578-7" cx="-1105.6152" cy="-1461.3018" r="0"/>
            <circle id="circle2580-5" cx="-6.1447158" cy="-195.82364" r="0" fill-rule="evenodd"/>
            <circle id="circle2582-9" cx="-1099.1144" cy="-1470.335" r="0"/>
            <circle id="circle2584-2" cx=".37509584" cy="-204.8342" r="0" fill-rule="evenodd"/>
        </g>
        <circle id="circle2588-8" cx="-1545.5031" cy="-1357.8373" r="0"/>
        <circle id="circle2590-9" cx="-1437.1031" cy="-1418.0374" r="0"/>
        <circle id="circle2592-7" cx="-1454.9031" cy="-1362.2373" r="0"/>
        <circle id="circle2596-3" cx="-1454.113" cy="-1383.9583" r="0"/>
        <circle id="circle2598-6" cx="-354.55304" cy="-118.42025" r="0" fill-rule="evenodd"/>
    </g>
</svg>
