<svg id="svg2602" version="1.1" viewBox="0 0 64 64" xmlns="http://www.w3.org/2000/svg" xmlns:xlink="http://www.w3.org/1999/xlink">
    <defs id="defs2540">
        <style id="style2528" type="text/css"/>
        <filter id="filter1057" x="-.026999999" y="-.026999999" width="1.054" height="1.054" color-interpolation-filters="sRGB">
            <feGaussianBlur id="feGaussianBlur2530" stdDeviation="0.61875"/>
        </filter>
        <filter id="filter9387" x="-.046153846" y="-.046153846" width="1.0923077" height="1.0923077" color-interpolation-filters="sRGB">
            <feFlood id="feFlood9377" flood-color="rgb(0,0,0)" result="flood"/>
            <feComposite id="feComposite9379" in="flood" in2="SourceGraphic" operator="out" result="composite1"/>
            <feGaussianBlur id="feGaussianBlur9381" in="composite1" result="blur" stdDeviation="1"/>
            <feOffset id="feOffset9383" dx="2.77556e-17" dy="0" result="offset"/>
            <feComposite id="feComposite9385" in="offset" in2="SourceGraphic" operator="in" result="composite2"/>
        </filter>
        <linearGradient id="linearGradient14605" x1="-77.166695" x2="-28.828667" y1="10.58291" y2="58.920937" gradientTransform="translate(84.997681,-2.7519236)" gradientUnits="userSpaceOnUse">
            <stop id="stop14601" stop-color="#40a1ca" offset="0"/>
            <stop id="stop14599" stop-color="#2e7ba9" offset="1"/>
        </linearGradient>
        <filter id="filter1585" x="-.1393081" y="-.07218714" width="1.2786162" height="1.1443743" color-interpolation-filters="sRGB">
            <feFlood id="feFlood1575" flood-color="rgb(0,0,0)" flood-opacity=".301961" result="flood"/>
            <feComposite id="feComposite1577" in="flood" in2="SourceGraphic" operator="in" result="composite1"/>
            <feGaussianBlur id="feGaussianBlur1579" in="composite1" result="blur" stdDeviation="1"/>
            <feOffset id="feOffset1581" dx="2.77556e-17" dy="0" result="offset"/>
            <feComposite id="feComposite1583" in="offset" in2="SourceGraphic" operator="out" result="composite2"/>
        </filter>
        <filter id="filter1597" x="-.2732872" y="-.097765767" width="1.5465744" height="1.1955315" color-interpolation-filters="sRGB">
            <feFlood id="feFlood1587" flood-color="rgb(0,0,0)" flood-opacity=".301961" result="flood"/>
            <feComposite id="feComposite1589" in="flood" in2="SourceGraphic" operator="in" result="composite1"/>
            <feGaussianBlur id="feGaussianBlur1591" in="composite1" result="blur" stdDeviation="1"/>
            <feOffset id="feOffset1593" dx="2.77556e-17" dy="0" result="offset"/>
            <feComposite id="feComposite1595" in="offset" in2="SourceGraphic" operator="out" result="composite2"/>
        </filter>
        <filter id="filter1609" x="-.61426162" y="-.051048108" width="2.2285232" height="1.1020962" color-interpolation-filters="sRGB">
            <feFlood id="feFlood1599" flood-color="rgb(0,0,0)" flood-opacity=".301961" result="flood"/>
            <feComposite id="feComposite1601" in="flood" in2="SourceGraphic" operator="in" result="composite1"/>
            <feGaussianBlur id="feGaussianBlur1603" in="composite1" result="blur" stdDeviation="1"/>
            <feOffset id="feOffset1605" dx="2.77556e-17" dy="0" result="offset"/>
            <feComposite id="feComposite1607" in="offset" in2="SourceGraphic" operator="out" result="composite2"/>
        </filter>
        <filter id="filter1621" x="-.29110139" y="-.058607439" width="1.5822028" height="1.1172149" color-interpolation-filters="sRGB">
            <feFlood id="feFlood1611" flood-color="rgb(0,0,0)" flood-opacity=".301961" result="flood"/>
            <feComposite id="feComposite1613" in="flood" in2="SourceGraphic" operator="in" result="composite1"/>
            <feGaussianBlur id="feGaussianBlur1615" in="composite1" result="blur" stdDeviation="1"/>
            <feOffset id="feOffset1617" dx="2.77556e-17" dy="0" result="offset"/>
            <feComposite id="feComposite1619" in="offset" in2="SourceGraphic" operator="out" result="composite2"/>
        </filter>
        <filter id="filter1633" x="-.17156239" y="-.051048032" width="1.3431248" height="1.1020961" color-interpolation-filters="sRGB">
            <feFlood id="feFlood1623" flood-color="rgb(0,0,0)" flood-opacity=".301961" result="flood"/>
            <feComposite id="feComposite1625" in="flood" in2="SourceGraphic" operator="in" result="composite1"/>
            <feGaussianBlur id="feGaussianBlur1627" in="composite1" result="blur" stdDeviation="1"/>
            <feOffset id="feOffset1629" dx="2.77556e-17" dy="0" result="offset"/>
            <feComposite id="feComposite1631" in="offset" in2="SourceGraphic" operator="out" result="composite2"/>
        </filter>
        <filter id="filter2061" x="-.027017977" y="-.026982045" width="1.054036" height="1.0539641" color-interpolation-filters="sRGB">
            <feGaussianBlur id="feGaussianBlur2063" stdDeviation="0.52856972"/>
        </filter>
        <linearGradient id="linearGradient2126" x1="69.82589" x2="118.16392" y1="-31.119696" y2="17.218332" gradientTransform="translate(-61.994904,38.950682)" gradientUnits="userSpaceOnUse">
            <stop id="stop2120" stop-color="#307c9e" stop-opacity=".30000001" offset="0"/>
            <stop id="stop2122" stop-color="#2e7ba8" offset="1"/>
        </linearGradient>
        <filter id="filter22632" x="-.084749928" y="-.079994792" width="1.1694999" height="1.1599896" color-interpolation-filters="sRGB">
            <feFlood id="feFlood22622" flood-color="rgb(0,0,0)" flood-opacity=".4" result="flood"/>
            <feComposite id="feComposite22624" in="flood" in2="SourceGraphic" operator="in" result="composite1"/>
            <feGaussianBlur id="feGaussianBlur22626" in="composite1" result="blur" stdDeviation="1"/>
            <feOffset id="feOffset22628" dx="2.77556e-17" dy="0" result="offset"/>
            <feComposite id="feComposite22630" in="offset" in2="SourceGraphic" operator="out" result="composite2"/>
        </filter>
    </defs>
    <rect id="rect2542" x="4.4999995" y="4.4999995" width="55" height="55" ry="15" fill="#141414" filter="url(#filter1057)" opacity=".3" stroke-linecap="round" stroke-width="2.7444"/>
    <g id="g2552" fill="#5e4aa6">
        <circle id="circle2546" cx="-1248.7" cy="-1241.6" r="0"/>
        <circle id="circle2548" cx="-1059.5" cy="-1293.3" r="0"/>
        <circle id="circle2550" cx="40.034" cy="-27.737" r="0" fill-rule="evenodd"/>
    </g>
    <style id="style2560" type="text/css">.st0{opacity:0.15;fill:#45413C;}
	.st1{fill:#FFE500;}
	.st2{fill:#EBCB00;}
	.st3{fill:none;stroke:#45413C;stroke-linecap:round;stroke-linejoin:round;stroke-miterlimit:10;}
	.st4{fill:#FFAA54;}
	.st5{fill:#FF8A14;}
	.st6{fill:#FFB0CA;stroke:#45413C;stroke-linecap:round;stroke-linejoin:round;stroke-miterlimit:10;}
	.st7{fill:#FF87AF;stroke:#45413C;stroke-linecap:round;stroke-linejoin:round;stroke-miterlimit:10;}
	.st8{fill:#FFCC99;}
	.st9{fill:#FFFFFF;}
	.st10{fill:#F0F0F0;}
	.st11{fill:#BF8256;}
	.st12{fill:#915E3A;}
	.st13{fill:#DEA47A;}
	.st14{fill:#F0D5A8;}
	.st15{fill:#DEBB7E;}
	.st16{fill:#F7E5C6;}
	.st17{fill:#FF8A14;stroke:#45413C;stroke-linecap:round;stroke-linejoin:round;stroke-miterlimit:10;}
	.st18{fill:#FFF5E3;}
	.st19{fill:#FFF48C;}
	.st20{fill:#FFFACF;}
	.st21{fill:#FFFCE5;}
	.st22{fill:#FF87AF;}
	.st23{fill:#FFB0CA;}
	.st24{fill:#FFE500;stroke:#45413C;stroke-linecap:round;stroke-linejoin:round;stroke-miterlimit:10;}
	.st25{fill:#9CEB60;stroke:#45413C;stroke-linecap:round;stroke-linejoin:round;stroke-miterlimit:10;}
	.st26{fill:#FFFACF;stroke:#45413C;stroke-linecap:round;stroke-linejoin:round;stroke-miterlimit:10;}
	.st27{fill:#00F5BC;stroke:#45413C;stroke-linecap:round;stroke-linejoin:round;stroke-miterlimit:10;}
	.st28{fill:#BF8256;stroke:#45413C;stroke-linecap:round;stroke-linejoin:round;stroke-miterlimit:10;}
	.st29{fill:#FFE3CF;stroke:#45413C;stroke-linecap:round;stroke-linejoin:round;stroke-miterlimit:10;}
	.st30{fill:#FF6242;}
	.st31{fill:#FF866E;}
	.st32{fill:none;stroke:#E04122;stroke-linecap:round;stroke-linejoin:round;stroke-miterlimit:10;}
	.st33{fill:#FFFEF2;stroke:#45413C;stroke-linecap:round;stroke-linejoin:round;stroke-miterlimit:10;}
	.st34{fill:#FF6242;stroke:#45413C;stroke-linecap:round;stroke-linejoin:round;stroke-miterlimit:10;}
	.st35{fill:#FFA694;}
	.st36{fill:#FFFFFF;stroke:#45413C;stroke-linecap:round;stroke-linejoin:round;stroke-miterlimit:10;}
	.st37{fill:#FFFEF2;}
	.st38{fill:#FF6196;}
	.st39{fill:#B89558;}
	.st40{fill:none;stroke:#915E3A;stroke-linecap:round;stroke-linejoin:round;stroke-miterlimit:10;}
	.st41{fill:#DEBB7E;stroke:#45413C;stroke-linecap:round;stroke-linejoin:round;stroke-miterlimit:10;}
	.st42{fill:#6DD627;stroke:#45413C;stroke-linecap:round;stroke-linejoin:round;stroke-miterlimit:10;}
	.st43{fill:#E5F8FF;}
	.st44{fill:#E8F4FA;}
	.st45{fill:#E8F4FA;stroke:#45413C;stroke-linecap:round;stroke-linejoin:round;stroke-miterlimit:10;}
	.st46{fill:#FFCCDD;}
	.st47{fill:#E5F8FF;stroke:#45413C;stroke-linecap:round;stroke-linejoin:round;stroke-miterlimit:10;}
	.st48{fill:#00B8F0;stroke:#45413C;stroke-linecap:round;stroke-linejoin:round;stroke-miterlimit:10;}
	.st49{fill:#00B8F0;}
	.st50{fill:#4ACFFF;}
	.st51{fill:#E04122;}
	.st52{fill:#E04122;stroke:#45413C;stroke-linecap:round;stroke-linejoin:round;stroke-miterlimit:10;}
	.st53{fill:#87898C;}
	.st54{fill:#BDBEC0;}
	.st55{fill:#656769;}
	.st56{fill:#525252;}
	.st57{fill:#FFF48C;stroke:#45413C;stroke-linecap:round;stroke-linejoin:round;stroke-miterlimit:10;}
	.st58{fill:#6DD627;}
	.st59{fill:#EB6D00;}
	.st60{fill:#46B000;}
	.st61{fill:#80DDFF;}
	.st62{fill:#DAEDF7;}
	.st63{fill:#BF8DF2;stroke:#45413C;stroke-linecap:round;stroke-linejoin:round;stroke-miterlimit:10;}
	.st64{fill:#9F5AE5;stroke:#45413C;stroke-linecap:round;stroke-linejoin:round;stroke-miterlimit:10;}
	.st65{fill:#C8FFA1;}
	.st66{fill:#E4FFD1;}
	.st67{fill:#9CEB60;}
	.st68{fill:#E5FEFF;}
	.st69{fill:#B8ECFF;}
	.st70{fill:#E0E0E0;stroke:#45413C;stroke-linecap:round;stroke-linejoin:round;stroke-miterlimit:10;}
	.st71{fill:#E0E0E0;}
	.st72{fill:none;stroke:#4F4B45;stroke-linejoin:round;stroke-miterlimit:10;}
	.st73{fill:none;stroke:#4F4B45;stroke-linecap:round;stroke-linejoin:round;stroke-miterlimit:10;}
	.st74{fill:#E0366F;stroke:#45413C;stroke-linecap:round;stroke-linejoin:round;stroke-miterlimit:10;}
	.st75{fill:none;stroke:#45413C;stroke-miterlimit:10;}
	.st76{fill:#FF866E;stroke:#45413C;stroke-linecap:round;stroke-linejoin:round;stroke-miterlimit:10;}
	.st77{fill:#45413C;stroke:#45413C;stroke-linecap:round;stroke-linejoin:round;stroke-miterlimit:10;}
	.st78{fill:#9F5AE5;}
	.st79{fill:#803EC2;}
	.st80{fill:#803EC2;stroke:#45413C;stroke-linecap:round;stroke-linejoin:round;stroke-miterlimit:10;}
	.st81{fill:#BF8DF2;}
	.st82{fill:#FFAA54;stroke:#45413C;stroke-linecap:round;stroke-linejoin:round;stroke-miterlimit:10;}
	.st83{fill:none;stroke:#45413C;stroke-linejoin:round;stroke-miterlimit:10;}
	.st84{fill:#FFCCDD;stroke:#45413C;stroke-linecap:round;stroke-linejoin:round;stroke-miterlimit:10;}
	.st85{fill:#FF6196;stroke:#45413C;stroke-linecap:round;stroke-linejoin:round;stroke-miterlimit:10;}
	.st86{fill:#FFE5EE;}
	.st87{fill:#F7E5C6;stroke:#45413C;stroke-linecap:round;stroke-linejoin:round;stroke-miterlimit:10;}
	.st88{fill:#E5FFF9;}
	.st89{fill:none;stroke:#45413C;stroke-width:1.0064;stroke-linecap:round;stroke-linejoin:round;stroke-miterlimit:10;}
	.st90{fill:#4AEFF7;}
	.st91{fill:#A6FBFF;}
	.st92{fill:#E5FEFF;stroke:#45413C;stroke-linecap:round;stroke-linejoin:round;stroke-miterlimit:10;}
	.st93{fill:#46B000;stroke:#45413C;stroke-linecap:round;stroke-linejoin:round;stroke-miterlimit:10;}
	.st94{fill:#FFFFFF;stroke:#45413C;stroke-linejoin:round;stroke-miterlimit:10;}
	.st95{fill:#FFFFFF;stroke:#45413C;stroke-miterlimit:10;}
	.st96{fill:#009FD9;}
	.st97{fill:#00DFEB;}
	.st98{fill:#C0DCEB;stroke:#45413C;stroke-linecap:round;stroke-linejoin:round;stroke-miterlimit:10;}
	.st99{fill:#00DFEB;stroke:#45413C;stroke-linecap:round;stroke-linejoin:round;stroke-miterlimit:10;}
	.st100{fill:#FFE5EE;stroke:#45413C;stroke-linecap:round;stroke-linejoin:round;stroke-miterlimit:10;}
	.st101{fill:#8CA4B8;}
	.st102{fill:#ADC4D9;}
	.st103{fill:#656769;stroke:#45413C;stroke-linecap:round;stroke-linejoin:round;stroke-miterlimit:10;}
	.st104{fill:#F0F0F0;stroke:#45413C;stroke-linecap:round;stroke-linejoin:round;stroke-miterlimit:10;}
	.st105{fill:#C0DCEB;}
	.st106{fill:#45413C;}
	.st107{fill:#FFCABF;}
	.st108{fill:#87898C;stroke:#45413C;stroke-linecap:round;stroke-linejoin:round;stroke-miterlimit:10;}
	.st109{fill:#EBCB00;stroke:#45413C;stroke-linecap:round;stroke-linejoin:round;stroke-miterlimit:10;}</style>
    <g id="g2600" fill="#5e4aa6">
        <circle id="circle2562" cx="-1084.9" cy="-1267.7" r="0"/>
        <circle id="circle2564" cx="14.693" cy="-2.1827" r="0" fill-rule="evenodd"/>
        <circle id="circle2566" cx="-1269.8" cy="-1283" r="0"/>
        <circle id="circle2568" cx="-170.22" cy="-17.475" r="0" fill-rule="evenodd"/>
        <circle id="circle2570" cx="-1230.6" cy="-1370.4" r="0"/>
        <circle id="circle2572" cx="-1122.3" cy="-1430.5" r="0"/>
        <g id="g2586" transform="matrix(3.7796 0 0 3.7796 -16.748 -103.66)" stroke-width=".26458">
            <circle id="circle2574" cx="-330.38" cy="-328.51" r="0"/>
            <circle id="circle2576" cx="-301.71" cy="-344.43" r="0"/>
            <circle id="circle2578" cx="-259.01" cy="-348.26" r="0"/>
            <circle id="circle2580" cx="31.886" cy="-13.442" r="0" fill-rule="evenodd"/>
            <circle id="circle2582" cx="-257.29" cy="-350.65" r="0"/>
            <circle id="circle2584" cx="33.611" cy="-15.826" r="0" fill-rule="evenodd"/>
        </g>
        <g id="g2594" transform="translate(-186.89 -74.879)">
            <circle id="circle2588" cx="-1248.7" cy="-1241.6" r="0"/>
            <circle id="circle2590" cx="-1140.3" cy="-1301.8" r="0"/>
            <circle id="circle2592" cx="-1158.1" cy="-1246" r="0"/>
        </g>
        <circle id="circle2596" cx="-1344.2" cy="-1342.6" r="0"/>
        <circle id="circle2598" cx="-244.64" cy="-77.062" r="0" fill-rule="evenodd"/>
    </g>
    <rect id="rect2544" x="4.5" y="4.5" width="55" height="55" ry="15" fill="#dcf0f9" stroke-linecap="round" stroke-width="2.7444"/>
    <rect id="rect10908" x="7.830986" y="7.830986" width="48.338028" height="48.338028" ry="13.183099" fill="url(#linearGradient14605)" stroke-linecap="round" stroke-width="2.41198"/>
    <g id="g2005" transform="translate(-116.77612,-68.588548)" fill="#f6fbfd">
        <path id="path960" d="m132.04337 77.743015c-2e-3 9.29e-4 -5e-3 0.0028-7e-3 0.0037-0.82315 0.398603-1.59857 0.879399-2.31487 1.432497-0.2364 0.182551-0.46491 0.374062-0.6881 0.571904-9e-3 0.0074-0.0168 0.0159-0.0254 0.02361-0.62361 0.555701-1.19124 1.171397-1.69938 1.835553-0.0732 0.09595-0.14551 0.192478-0.21606 0.290493-0.12435 0.172148-0.24705 0.346397-0.36311 0.5247-0.12759 0.196735-0.24775 0.398928-0.36494 0.602775-0.10463 0.181351-0.20529 0.365203-0.30138 0.551936-0.11727 0.228751-0.23001 0.459016-0.33407 0.695371-0.0609 0.137754-0.11804 0.277367-0.1743 0.417585-0.0939 0.234954-0.18088 0.473848-0.26144 0.715335-0.0409 0.122276-0.0842 0.242869-0.12164 0.366748-0.10641 0.35347-0.19899 0.712961-0.27597 1.078454-0.0198 0.09349-0.0349 0.189006-0.0526 0.283231-0.0572 0.304217-0.10377 0.612787-0.1398 0.924131-0.0172 0.147987-0.0368 0.295326-0.049 0.444817-6e-3 0.07444-0.0115 0.148523-0.0163 0.223317-0.0188 0.288791-0.0309 0.579521-0.0309 0.873294v21.972164c0 0.27704 0.0114 0.55358 0.0272 0.82972 8e-3 0.13152 0.019 0.26174 0.0309 0.39216 6e-3 0.0661 0.0135 0.13196 0.02 0.1979 0.70471 6.62992 6.28192 11.76315 13.10486 11.76315h0.80612v-47.014472zm2.12604 10.158179c0.58447 0 1.0603 0.486735 1.0603 1.071193-2e-3 0.583251-0.47597 1.062114-1.0603 1.062114l-5.13264-0.0036c-0.58446 0-1.06393-0.476585-1.06393-1.062115 0-0.585532 0.47947-1.062115 1.06393-1.062114zm0 22.832746c0.58447 0 1.0603 0.48673 1.0603 1.07119-2e-3 0.58325-0.47597 1.06212-1.0603 1.06212l-5.13264-4e-3c-0.58446 0-1.06393-0.47659-1.06393-1.06212s0.47947-1.06211 1.06393-1.06211z" filter="url(#filter1633)"/>
        <path id="path962" d="m139.96475 83.807057v40.950433h8.24455v-40.950433zm6.57785 3.028391c0.55858 0 1.01309 0.486733 1.01309 1.071193-2e-3 0.583251-0.45464 1.062115-1.01309 1.062115l-4.9057-0.0036c-0.55858 0-1.01673-0.476583-1.01673-1.062114s0.45815-1.062115 1.01673-1.062115zm0 32.068602c0.55858 0 1.01309 0.48674 1.01309 1.07119-2e-3 0.58326-0.45464 1.06212-1.01309 1.06212l-4.9057-4e-3c-0.55858 0-1.01673-0.47659-1.01673-1.06212s0.45815-1.0621 1.01673-1.0621z" filter="url(#filter1621)"/>
        <path id="path964" d="m149.89961 77.743015v47.014475h3.90713v-33.521074c-0.0706-0.276642-0.0746-0.564811 0-0.838798v-12.654603zm3.02657 2.372969c0.24418 0 0.443 0.486727 0.443 1.071189-9.3e-4 0.583255-0.19887 1.062117-0.443 1.062117l-2.1442-0.0037c-0.24418 0-0.44482-0.476595-0.44482-1.062108 0-0.585531 0.20064-1.062116 0.44482-1.062116zm0 40.020846c0.24418 0 0.443 0.48674 0.443 1.0712-9.3e-4 0.58325-0.19887 1.06211-0.443 1.06211l-2.1442-4e-3c-0.24418 0-0.44482-0.47659-0.44482-1.06211 0-0.58553 0.20064-1.06212 0.44482-1.06212z" filter="url(#filter1609)"/>
        <path id="path966" d="m155.49764 100.20978v24.54847h4.2648c1.59072 0 3.10758-0.2925 4.51717-0.80429z" filter="url(#filter1597)"/>
        <path id="path968" d="m161.41765 90.034501-7.08621 2.180513 11.49444 31.066406c4e-3 -2e-3 7e-3 -4e-3 0.0109-6e-3 0.14222-0.0737 0.28216-0.15009 0.42121-0.22877 0.20855-0.11796 0.41246-0.2434 0.61367-0.3722 0.18842-0.12072 0.37399-0.24591 0.55557-0.37583 0.13769-0.0984 0.27304-0.1997 0.40669-0.3032 0.19354-0.15011 0.38365-0.30427 0.56827-0.46478 0.0252-0.0219 0.0494-0.0451 0.0744-0.0672 0.11645-0.10261 0.23225-0.20566 0.34496-0.31229 0.21917-0.20775 0.42925-0.42397 0.63364-0.64634 0.036-0.0391 0.0716-0.0785 0.10712-0.11801 0.55041-0.61356 1.04539-1.27969 1.47425-1.98988 7e-3 -0.0116 0.0148-0.0229 0.0218-0.0345 5e-3 -8e-3 0.01-0.017 0.0145-0.0254 0.17318-0.29024 0.33543-0.58715 0.48658-0.89145zm0.15614 2.848647c0.4343 0.01053 0.84142 0.313914 0.98042 0.767991 0.16867 0.558335-0.12325 1.14921-0.65724 1.312664l-4.69147 1.432494c-0.53411 0.163492-1.11223-0.159081-1.28361-0.71897s0.12675-1.149172 0.66087-1.312665l4.68965-1.441571c0.10014-0.03066 0.20116-0.04237 0.30138-0.03994z" filter="url(#filter1585)"/>
    </g>
    <g id="g2017" transform="translate(-62.104998,-18.692779)" fill="#f6fbfd" filter="url(#filter2061)">
        <path id="path2007" d="m77.372428 27.847244c-0.0024 9.29e-4 -0.0048 0.0028-0.0073 0.0037-0.82315 0.398603-1.598572 0.879399-2.314865 1.432497-0.236401 0.182551-0.464913 0.374062-0.688105 0.571904-0.0086 0.0074-0.01678 0.0159-0.02541 0.02361-0.623608 0.555701-1.191242 1.171397-1.699383 1.835553-0.07316 0.09595-0.145505 0.192478-0.216055 0.290493-0.124351 0.172148-0.247049 0.346397-0.363116 0.5247-0.127588 0.196735-0.247749 0.398928-0.364931 0.602775-0.104637 0.181351-0.205297 0.365203-0.301387 0.551936-0.117269 0.228751-0.230011 0.459016-0.334067 0.695371-0.06089 0.137754-0.118043 0.277367-0.174296 0.417585-0.09388 0.234954-0.180887 0.473848-0.261444 0.715335-0.04094 0.122276-0.08422 0.242869-0.121643 0.366748-0.106409 0.35347-0.198989 0.712961-0.275968 1.078454-0.01975 0.09349-0.03489 0.189006-0.05265 0.283231-0.05717 0.304217-0.103773 0.612787-0.1398 0.924131-0.01717 0.147987-0.03677 0.295326-0.04902 0.444817-6e-3 0.07444-0.01149 0.148523-0.01634 0.223317-0.0188 0.288791-0.03086 0.579521-0.03086 0.873294v21.972161c0 0.277045 0.01141 0.553585 0.02724 0.829721 0.0081 0.131518 0.01897 0.261741 0.03086 0.392165 0.0056 0.06605 0.01353 0.131962 0.01997 0.197899 0.704706 6.629915 6.281923 11.763153 13.104864 11.763153h0.806117v-47.014477zm2.126045 10.158179c0.584461 0 1.060299 0.486735 1.060299 1.071193-0.0022 0.583251-0.475972 1.062114-1.060299 1.062114l-5.132647-0.0036c-0.58446 0-1.06393-0.476585-1.06393-1.062115 0-0.585532 0.47947-1.062115 1.06393-1.062114zm0 22.832746c0.584461 0 1.060299 0.486734 1.060299 1.071193-0.0022 0.583252-0.475972 1.062115-1.060299 1.062115l-5.132647-0.0036c-0.584461 0-1.06393-0.476584-1.06393-1.062115 0-0.585533 0.479469-1.062116 1.06393-1.062115z"/>
        <path id="path2009" d="m85.293808 33.911286v40.950435h8.244553v-40.950435zm6.57785 3.028391c0.558579 0 1.013094 0.486733 1.013094 1.071193-0.0021 0.583251-0.454643 1.062115-1.013094 1.062115l-4.905699-0.0036c-0.55858 0-1.016726-0.476583-1.016726-1.062114s0.458146-1.062115 1.016726-1.062115zm0 32.068606c0.558579 0 1.013094 0.486736 1.013094 1.07119-0.0021 0.583254-0.454643 1.062116-1.013094 1.062116l-4.905699-0.0037c-0.55858 0-1.016726-0.476585-1.016726-1.062117 0-0.585531 0.458146-1.062107 1.016726-1.062107z"/>
        <path id="path2011" d="m95.228667 27.847244v47.014477h3.90713v-33.521076c-0.07064-0.276642-0.0746-0.564811 0-0.838798v-12.654603zm3.026574 2.372969c0.244181 0 0.443001 0.486727 0.443001 1.071189-9.29e-4 0.583255-0.198876 1.062117-0.443001 1.062117l-2.144202-0.0037c-0.244182 0-0.444816-0.476595-0.444817-1.062108 0-0.585531 0.200635-1.062116 0.444817-1.062116zm0 40.020848c0.244182 0 0.443001 0.486736 0.443001 1.071199-9.29e-4 0.583254-0.198875 1.062107-0.443001 1.062107l-2.144202-0.0037c-0.244182 0-0.444816-0.476585-0.444817-1.062108 0-0.585531 0.200635-1.062116 0.444817-1.062116z"/>
        <path id="path2013" d="m100.8267 50.314013v24.54847h4.2648c1.59072 0 3.10758-0.292501 4.51717-0.804298z"/>
        <path id="path2015" d="m106.74671 40.13873-7.086209 2.180513 11.494439 31.066402c4e-3 -0.0019 7e-3 -0.0037 0.0109-0.0056 0.14222-0.07372 0.28216-0.15009 0.42121-0.22877 0.20855-0.117954 0.41246-0.243391 0.61367-0.372193 0.18842-0.120724 0.37399-0.24591 0.55557-0.375828 0.13769-0.09839 0.27304-0.199701 0.40669-0.3032 0.19354-0.150118 0.38365-0.304279 0.56827-0.464789 0.0252-0.02194 0.0494-0.04509 0.0744-0.06721 0.11645-0.102606 0.23225-0.205659 0.34496-0.312282 0.21917-0.207751 0.42925-0.423971 0.63364-0.646344 0.036-0.03914 0.0716-0.07846 0.10712-0.11801 0.55041-0.613559 1.04539-1.279694 1.47425-1.989882 7e-3 -0.01162 0.0148-0.02287 0.0218-0.03449 5e-3 -0.0084 0.01-0.01701 0.0145-0.02538 0.17318-0.290241 0.33543-0.587149 0.48658-0.891446zm0.15614 2.848647c0.4343 0.01053 0.84142 0.313914 0.98042 0.767991 0.16867 0.558335-0.12325 1.14921-0.65724 1.312664l-4.69147 1.432494c-0.53411 0.163492-1.11223-0.159081-1.28361-0.71897s0.12675-1.149172 0.66087-1.312665l4.68965-1.441571c0.10014-0.03066 0.20116-0.04237 0.30138-0.03994z"/>
    </g>
    <g>
        <rect id="rect9752" x="7.830986" y="7.830986" width="48.338028" height="48.338028" ry="13.183099" fill="url(#linearGradient2126)" stroke-linecap="round" stroke-width="2.41198"/>
        <rect id="rect4204" transform="matrix(.92957747 0 0 .92957747 2.2535211 2.2535211)" x="6" y="6" width="52" height="52" ry="14.181818" fill="#d39641" fill-rule="evenodd" filter="url(#filter9387)" stroke-linecap="round" stroke-width="2.59471"/>
        <path id="path22255" transform="matrix(.98738711 0 0 .98738711 .40361222 .40361275)" d="m22.959843 16.999023c-1.74887 0-3.29333 0.885386-4.216797 2.228516-0.56055 0.843091-0.66718 1.393763-0.79688 1.86914-0.0697 0.330058-0.10547 0.670557-0.10547 1.019531v19.769532c0 1.205078 0.52627 2.185017 0.52627 2.185017 0.561977 1.223618 1.778997 2.930217 4.590917 2.930217h18.02344c1.42627 0 2.71414-0.588832 3.64258-1.533203 0 0 0.81773-0.729037 1.11829-1.658154 0.2338-0.787273 0.21954-0.476639 0.35632-1.92583s0-14.910482 0-18.205079v-1.5625c5e-4 -2.821165-2.29456-5.117187-5.11524-5.117187h-15zm-2e-3 0.93164h3.02344v28.138672h-3.02344c-1.76778 0-3.27436-1.103037-3.88867-2.65625l1.5957-0.466796c0.38134 0.700437 1.11506 1.183593 1.96485 1.183593 1.2371 0 2.24804-1.008009 2.24804-2.246093 0-1.238088-1.00795-2.246094-2.24804-2.246094-1.23709 0-2.2461 1.008006-2.2461 2.246094 0 0.05775 0.0131 0.112173 0.0176 0.169921l-1.5664 0.460938c-0.0319-0.207593-0.0645-0.41385-0.0645-0.628906l2e-3 -4.925782 1.892567-0.554687c0.38133 0.700438 1.11506 1.183594 1.96485 1.183594 1.2371 0 2.24804-1.006053 2.24804-2.244141 0-1.238087-1.00796-2.246094-2.24804-2.246094-1.2371 0-2.2461 1.008007-2.2461 2.246094 0 0.05775 0.0131 0.112174 0.0176 0.169922l-1.628897 0.476562v-5.425781l1.890617-0.554687c0.38133 0.700437 1.11701 1.183593 1.9668 1.183593 1.2371 0 2.24804-1.007508 2.24804-2.246093s-1.00796-2.246094-2.24804-2.246094c-1.2371 0-2.24805 1.007509-2.24805 2.246094 0 0.05775 0.015 0.112672 0.0195 0.169921l-1.628897 0.476563v-5.134766l1.890617-0.554687c0.38134 0.700437 1.11505 1.183594 1.96484 1.183594 1.2371 0 2.24805-1.007509 2.24805-2.246094 0-1.238087-1.00796-2.246094-2.24805-2.246094-1.2371 0-2.24609 1.007509-2.24609 2.246094 0 0.05775 0.0131 0.112672 0.0176 0.169922l-1.628907 0.476562v-1.373047c0-0.809461 0.241827-1.55802 0.642577-2.199218 0.15433-0.248913 0.32864-0.481822 0.53125-0.691407 0.22004-0.228995 0.46118-0.433183 0.72852-0.607422 0.65558-0.432108 1.43985-0.6875 2.28515-0.6875zm10.69531 0.765626c0.047-0.0046 0.0952-0.0036 0.14258 2e-3 0.0631 0.0074 0.12532 0.02264 0.18555 0.04883 0.2427 0.105547 0.39453 0.336518 0.39453 0.601562v2.00586l1.44336 0.833984 1.44336-0.833984v-1.964844c-3e-5 -0.26412 0.15706-0.502465 0.40039-0.605469 0.2439-0.103154 0.52474-0.04971 0.71484 0.134766 0.44426 0.431154 0.76235 0.973942 0.94532 1.615234 0.22383 0.784432 0.18951 1.631489-0.0957 2.382813-0.28234 0.743637-0.75876 1.33459-1.41992 1.759765v14.734375c0.0454 0.04005 0.0878 0.08 0.12891 0.121094 1.17913 1.179132 1.17913 3.098212 0 4.277344-1.17914 1.179131-3.09818 1.179162-4.27735 0-1.17916-1.179161-1.17913-3.098213 0-4.277344 0.0411-0.04109 0.0835-0.08099 0.12891-0.121094v-14.734375c-0.66011-0.424547-1.13558-1.014076-1.41797-1.755859-0.28583-0.750846-0.3207-1.599783-0.0957-2.388672 0.18974-0.665099 0.52509-1.224764 0.99414-1.662109 0.10834-0.10101 0.24367-0.160175 0.38476-0.173828zm0.0567 0.630859c-4e-3 0.0016-7e-3 0.0054-0.01 0.0078-0.38926 0.362639-0.65462 0.810794-0.81445 1.371094-0.18777 0.65813-0.1613 1.364546 0.0762 1.988281 0.25485 0.669436 0.68093 1.169442 1.30273 1.529297 0.098 0.05674 0.15821 0.162158 0.15821 0.275391v15.058606c0 0.09618-0.0423 0.187813-0.11719 0.248046-0.0735 0.05904-0.13857 0.115089-0.19727 0.173829-0.93176 0.93176-0.93176 2.449099 0 3.380859 0.93176 0.931761 2.44715 0.931761 3.37891 0 0.93176-0.931759 0.93177-2.449099 0-3.380859-0.0587-0.05874-0.12181-0.114789-0.19531-0.173829-0.075-0.0602-0.11917-0.151892-0.11914-0.248046v-15.058594c3e-5 -0.113203 0.0603-0.218685 0.1582-0.275391 0.62272-0.360364 1.04994-0.862182 1.30469-1.533203 0.23699-0.624454 0.26471-1.328509 0.0781-1.982422-0.15426-0.540561-0.40872-0.97625-0.77734-1.333984-5e-3 -5e-3 -0.0112-0.01182-0.0254-0.0059-0.0132 0.0056-0.0137 0.01408-0.0137 0.02149v2.148437c-1e-5 0.113293-0.0601 0.218715-0.15821 0.275391l-1.76172 1.017578c-0.0982 0.05668-0.2182 0.05665-0.3164 0l-1.76172-1.017578c-0.0982-0.05665-0.1582-0.162038-0.15821-0.275391v-2.189453c0-0.0077 3.8e-4 -0.01433-0.0117-0.01953-8e-3 -0.0033-0.0151-0.0035-0.0195-2e-3zm-11.08008 2.199219c0.72483 0 1.31445 0.592072 1.31445 1.316406 0 0.724333-0.58962 1.314453-1.31445 1.314453-0.42315 0-0.7869-0.217622-1.02735-0.53125l1.15821-0.339844-0.26172-0.890625-1.16211 0.341797c0.0567-0.672559 0.60597-1.210937 1.29297-1.210937zm13.15234 3.55664c5e-3 -2.73e-4 0.0106-1e-6 0.0156 0 0.17514 0 0.3164 0.141204 0.3164 0.316406v0.478516c0 0.0876-0.0344 0.167216-0.0918 0.224609-0.0574 0.05739-0.13701 0.09378-0.22461 0.09375-0.17517 3e-5 -0.31641-0.143157-0.31641-0.318359v-0.478516c6e-5 -0.169727 0.1332-0.307936 0.30078-0.316406zm0.0156 1.435547c0.17517-3e-5 0.3164 0.141204 0.3164 0.316406v10.050782c0 0.0876-0.0344 0.165262-0.0918 0.222656-0.0574 0.05739-0.13701 0.09375-0.22461 0.09375-0.17517 3e-5 -0.31641-0.141204-0.31641-0.316406v-10.050782c3e-5 -0.175172 0.14127-0.316406 0.31641-0.316406zm-13.16797 1.113281c0.72483 0 1.31445 0.59012 1.31445 1.314453 0 0.724832-0.58962 1.316407-1.31445 1.316407-0.42315 0-0.7869-0.217622-1.02735-0.53125l1.15823-0.339844-0.26172-0.890625-1.16211 0.341797c0.0567-0.673058 0.60597-1.210938 1.29297-1.210938zm0 6.394532c0.72483 0 1.31445 0.591574 1.31445 1.316406 0 0.724831-0.58962 1.314453-1.31445 1.314453-0.42315 0-0.7869-0.216166-1.02735-0.529297l1.15821-0.339844-0.26172-0.892578-1.16211 0.341797c0.0567-0.67256 0.60597-1.210937 1.29297-1.210937zm13.16797 5.634765c0.51449 0 1.02825 0.196227 1.41992 0.587891 0.78333 0.783325 0.78333 2.058472 0 2.841797-0.78333 0.783326-2.05649 0.783355-2.83985 0-0.78335-0.783355-0.78332-2.058472 0-2.841797 0.39167-0.391664 0.90543-0.587891 1.41993-0.587891zm0 0.634766c-0.35202 0-0.70468 0.134365-0.97266 0.402344-0.53596 0.535953-0.53596 1.407406 0 1.943359 0.53596 0.535954 1.40935 0.535954 1.94531 0 0.53596-0.535953 0.53596-1.407406 0-1.943359-0.26798-0.267979-0.62063-0.402344-0.97265-0.402344zm-13.16797 0.271484c0.72483 0 1.31445 0.591573 1.31445 1.316407 0 0.724332-0.58962 1.314453-1.31445 1.314453-0.42315 0-0.7869-0.216667-1.02735-0.529297l1.15821-0.339844-0.26172-0.892578-1.16211 0.341797c0.0567-0.672065 0.60597-1.210938 1.29297-1.210938z" fill="#f6fbfd" filter="url(#filter22632)" stroke-width=".497826"/>
        <path id="path20595" d="m23.073867 17.18823c-1.726812 0-3.251792 0.874219-4.163614 2.200408-0.55348 0.832457-0.658765 1.376184-0.786829 1.845565-0.06882 0.325894-0.10414 0.662098-0.10414 1.006672v19.52018c0 1.189878 0.519632 2.157457 0.519632 2.157457 0.554892 1.208185 1.756562 2.893259 4.533016 2.893259h17.796112c1.40828 0 2.679907-0.581405 3.596636-1.513865 0 0 0.807416-0.719841 1.104185-1.63724 0.230852-0.777343 0.216771-0.470627 0.351826-1.90154 0.135055-1.430912 0-14.722418 0-17.975459v-1.542792c4.94e-4 -2.785583-2.265619-5.052646-5.050722-5.052646h-14.810806zm-2e-3 0.919889h2.985306v27.783762h-2.985306c-1.745483 0-3.233061-1.089124-3.839623-2.622747l1.575574-0.460908c0.37653 0.691601 1.100996 1.168664 1.940068 1.168664 1.221496 0 2.219685-0.995295 2.219685-2.217763 0-1.222473-0.995237-2.217765-2.219685-2.217765-1.221487 0-2.217771 0.995292-2.217771 2.217765 0 0.05702 0.01293 0.110758 0.01738 0.167778l-1.546643 0.455124c-0.0315-0.204974-0.06369-0.40863-0.06369-0.620973l2e-3 -4.863654 1.868699-0.547692c0.37652 0.691605 1.100996 1.168666 1.940067 1.168666 1.221497 0 2.219686-0.993363 2.219686-2.215835 0-1.222471-0.995247-2.217765-2.219686-2.217765-1.221496 0-2.21777 0.995294-2.21777 2.217765 0 0.05702 0.01293 0.110758 0.01738 0.167777l-1.608355 0.470553v-5.357347l1.866774-0.547691c0.37652 0.691603 1.102921 1.168665 1.941993 1.168665 1.221497 0 2.219686-0.9948 2.219686-2.217764 0-1.222963-0.995247-2.217764-2.219686-2.217764-1.221497 0-2.219696 0.994801-2.219696 2.217764 0 0.05702 0.01481 0.111251 0.01925 0.167779l-1.608355 0.470552v-5.070002l1.866773-0.547692c0.376531 0.691604 1.100986 1.168666 1.940058 1.168666 1.221497 0 2.219696-0.994801 2.219696-2.217765 0-1.222471-0.995247-2.217763-2.219696-2.217763-1.221496 0-2.21776 0.994801-2.21776 2.217763 0 0.05702 0.01293 0.111251 0.01738 0.167779l-1.608365 0.470552v-1.355728c0-0.799252 0.23878-1.53837 0.634475-2.171481 0.152384-0.245772 0.324495-0.475744 0.52455-0.682686 0.217264-0.226106 0.455363-0.427719 0.719331-0.59976 0.647311-0.426658 1.421689-0.678829 2.256328-0.678829zm10.560411 0.75597c0.04641-0.0045 0.094-0.0036 0.140782 2e-3 0.0623 0.0073 0.123739 0.02236 0.18321 0.04821 0.239638 0.104216 0.389553 0.332274 0.389553 0.593975v1.980559l1.425155 0.823466 1.425155-0.823466v-1.94006c-2.9e-5 -0.260789 0.15508-0.496128 0.39534-0.597833 0.240824-0.101853 0.518122-0.04908 0.705824 0.133067 0.438657 0.425716 0.752735 0.961657 0.933397 1.594861 0.221007 0.774538 0.18712 1.61091-0.09449 2.352758-0.278779 0.734258-0.74919 1.317758-1.402011 1.73757v14.548532c0.04483 0.03954 0.08669 0.07899 0.127284 0.119567 1.164258 1.164259 1.164258 3.059133 0 4.223394-1.164267 1.164259-3.059103 1.164289-4.2234 0-1.164287-1.164289-1.164258-3.059136 0-4.223394 0.04058-0.04057 0.08245-0.07997 0.127284-0.119567v-14.548554c-0.651784-0.419192-1.121257-1.001286-1.400085-1.733714-0.282225-0.741374-0.316655-1.579605-0.09449-2.358542 0.187347-0.656711 0.518467-1.209317 0.981601-1.641145 0.106974-0.09974 0.240597-0.158156 0.379907-0.171636zm0.05598 0.622901c-0.0039 0.0016-0.0069 0.0053-0.0099 0.0077-0.38435 0.358064-0.646363 0.800567-0.804177 1.353801-0.185402 0.649829-0.159266 1.347334 0.07524 1.963203 0.251635 0.660991 0.672341 1.154691 1.286298 1.510008 0.09676 0.05602 0.156215 0.160113 0.156215 0.271917v14.868673c0 0.09497-0.04177 0.185445-0.115712 0.244918-0.07257 0.0583-0.136822 0.113638-0.194782 0.171637-0.920008 0.920008-0.920008 2.418209 0 3.338216 0.920008 0.920009 2.416285 0.920009 3.336292 0 0.920008-0.920006 0.920018-2.418208 0-3.338216-0.05796-0.058-0.120273-0.113341-0.192846-0.171637-0.07405-0.05944-0.117667-0.149976-0.117637-0.244918v-14.86866c2.9e-5 -0.111774 0.05954-0.215925 0.156204-0.271916 0.614866-0.355819 1.036697-0.851308 1.288234-1.513865 0.234001-0.616578 0.261371-1.311753 0.07711-1.957418-0.152314-0.533743-0.403565-0.963937-0.767535-1.317159-0.0049-0.0049-0.01106-0.01167-0.02508-0.0058-0.01303 0.0055-0.01353 0.0139-0.01353 0.02122v2.121339c-1e-5 0.111863-0.05934 0.215956-0.156215 0.271917l-1.739499 1.004744c-0.09696 0.05597-0.215448 0.05593-0.31241 0l-1.739499-1.004744c-0.09696-0.05593-0.156205-0.159995-0.156215-0.271917v-2.161838c0-0.0076 3.76e-4 -0.01415-0.01155-0.01928-0.0079-0.0033-0.01491-0.0035-0.01925-2e-3zm-10.940328 2.17148c0.715688 0 1.297871 0.584605 1.297871 1.299802 0 0.715199-0.582183 1.297874-1.297871 1.297874-0.417813 0-0.776975-0.214876-1.014392-0.524549l1.143601-0.335557-0.258419-0.879391-1.147452 0.337486c0.05599-0.664077 0.598327-1.195665 1.276662-1.195665zm12.986451 3.511782c0.0049-2.7e-4 0.01047-1e-6 0.0154 0 0.172931 0 0.312409 0.139423 0.312409 0.312415v0.47248c0 0.08649-0.03397 0.165106-0.09064 0.221776-0.05668 0.05667-0.135282 0.0926-0.221777 0.09257-0.17296 3e-5 -0.312419-0.141351-0.312419-0.314344v-0.47248c5.9e-5 -0.167586 0.13152-0.304052 0.296986-0.312415zm0.0154 1.41744c0.172961-3e-5 0.312409 0.139423 0.312409 0.312415v9.924012c0 0.08649-0.03397 0.163178-0.09064 0.219848-0.05668 0.05667-0.135282 0.09257-0.221777 0.09257-0.17296 3e-5 -0.312419-0.139423-0.312419-0.312415v-9.924015c3e-5 -0.172962 0.139488-0.312415 0.312419-0.312415zm-13.001884 1.09924c0.715688 0 1.297871 0.582675 1.297871 1.297873 0 0.715689-0.582183 1.299803-1.297871 1.299803-0.417813 0-0.776975-0.214876-1.014392-0.52455l1.143622-0.335556-0.258419-0.879392-1.147453 0.337485c0.05598-0.664568 0.598327-1.195663 1.276662-1.195663zm0 6.313877c0.715688 0 1.297871 0.584114 1.297871 1.299802 0 0.71569-0.582183 1.297874-1.297871 1.297874-0.417813 0-0.776975-0.213439-1.014392-0.52262l1.143602-0.335557-0.258419-0.88132-1.147453 0.337486c0.05598-0.664079 0.598327-1.195665 1.276662-1.195665zm13.001884 5.563695c0.508001 0 1.015281 0.193751 1.402011 0.580475 0.77345 0.773445 0.77345 2.03251 0 2.805954-0.77345 0.773447-2.030552 0.773475-2.804031 0-0.77347-0.773475-0.773441-2.032509 0-2.805954 0.386729-0.386724 0.894009-0.580475 1.40202-0.580475zm0 0.626759c-0.34758 0-0.695792 0.132671-0.960392 0.397269-0.5292 0.529193-0.5292 1.389655 0 1.918848 0.5292 0.529194 1.391574 0.529194 1.920774 0 0.5292-0.529193 0.5292-1.389655 0-1.918848-0.2646-0.264599-0.612802-0.397269-0.960382-0.397269zm-13.001884 0.26806c0.715688 0 1.297871 0.584112 1.297871 1.299803 0 0.715197-0.582183 1.297874-1.297871 1.297874-0.417813 0-0.776975-0.213933-1.014392-0.522621l1.143602-0.335558-0.258419-0.88132-1.147453 0.337486c0.05598-0.663587 0.598327-1.195664 1.276662-1.195664z" fill="#f6fbfd" stroke-width=".491547"/>
    </g>
</svg>
