<svg id="svg2602" version="1.1" viewBox="0 0 64 64" xmlns="http://www.w3.org/2000/svg">
    <defs id="defs2540">
        <style id="style2528" type="text/css"/>
        <filter id="filter1057" x="-.026999999" y="-.026999999" width="1.054" height="1.054" color-interpolation-filters="sRGB">
            <feGaussianBlur id="feGaussianBlur2530" stdDeviation="0.61875"/>
        </filter>
        <linearGradient id="linearGradient5706" x1="4.5" x2="59.5" y1="32" y2="32" gradientUnits="userSpaceOnUse">
            <stop id="stop5700" stop-color="#dbb97e" offset="0"/>
            <stop id="stop5702" stop-color="#dbb97e" offset="1"/>
        </linearGradient>
        <filter id="filter18547" x="-.034618632" y="-.02212982" width="1.0692373" height="1.0442596" color-interpolation-filters="sRGB">
            <feGaussianBlur id="feGaussianBlur18549" stdDeviation="0.63342"/>
        </filter>
        <filter id="filter18553" x="-.041212086" y="-.020076552" width="1.0824242" height="1.0401531" color-interpolation-filters="sRGB">
            <feGaussianBlur id="feGaussianBlur18555" stdDeviation="0.13734009"/>
        </filter>
    </defs>
    <rect id="rect2542" x="4.5" y="4.5" width="55" height="55" ry="15" fill="#141414" filter="url(#filter1057)" opacity=".3" stroke-linecap="round" stroke-width="2.7444"/>
    <rect id="rect2544" x="4.5" y="4.5" width="55" height="55" ry="15" fill="url(#linearGradient5706)" stroke-linecap="round" stroke-width="2.7444"/>
    <g id="g2552" fill="#5e4aa6">
        <circle id="circle2546" cx="-1248.7" cy="-1241.6" r="0"/>
        <circle id="circle2548" cx="-1059.5" cy="-1293.3" r="0"/>
        <circle id="circle2550" cx="40.034" cy="-27.737" r="0" fill-rule="evenodd"/>
    </g>
    <style id="style2560" type="text/css">.st0{opacity:0.15;fill:#45413C;}
	.st1{fill:#FFE500;}
	.st2{fill:#EBCB00;}
	.st3{fill:none;stroke:#45413C;stroke-linecap:round;stroke-linejoin:round;stroke-miterlimit:10;}
	.st4{fill:#FFAA54;}
	.st5{fill:#FF8A14;}
	.st6{fill:#FFB0CA;stroke:#45413C;stroke-linecap:round;stroke-linejoin:round;stroke-miterlimit:10;}
	.st7{fill:#FF87AF;stroke:#45413C;stroke-linecap:round;stroke-linejoin:round;stroke-miterlimit:10;}
	.st8{fill:#FFCC99;}
	.st9{fill:#FFFFFF;}
	.st10{fill:#F0F0F0;}
	.st11{fill:#BF8256;}
	.st12{fill:#915E3A;}
	.st13{fill:#DEA47A;}
	.st14{fill:#F0D5A8;}
	.st15{fill:#DEBB7E;}
	.st16{fill:#F7E5C6;}
	.st17{fill:#FF8A14;stroke:#45413C;stroke-linecap:round;stroke-linejoin:round;stroke-miterlimit:10;}
	.st18{fill:#FFF5E3;}
	.st19{fill:#FFF48C;}
	.st20{fill:#FFFACF;}
	.st21{fill:#FFFCE5;}
	.st22{fill:#FF87AF;}
	.st23{fill:#FFB0CA;}
	.st24{fill:#FFE500;stroke:#45413C;stroke-linecap:round;stroke-linejoin:round;stroke-miterlimit:10;}
	.st25{fill:#9CEB60;stroke:#45413C;stroke-linecap:round;stroke-linejoin:round;stroke-miterlimit:10;}
	.st26{fill:#FFFACF;stroke:#45413C;stroke-linecap:round;stroke-linejoin:round;stroke-miterlimit:10;}
	.st27{fill:#00F5BC;stroke:#45413C;stroke-linecap:round;stroke-linejoin:round;stroke-miterlimit:10;}
	.st28{fill:#BF8256;stroke:#45413C;stroke-linecap:round;stroke-linejoin:round;stroke-miterlimit:10;}
	.st29{fill:#FFE3CF;stroke:#45413C;stroke-linecap:round;stroke-linejoin:round;stroke-miterlimit:10;}
	.st30{fill:#FF6242;}
	.st31{fill:#FF866E;}
	.st32{fill:none;stroke:#E04122;stroke-linecap:round;stroke-linejoin:round;stroke-miterlimit:10;}
	.st33{fill:#FFFEF2;stroke:#45413C;stroke-linecap:round;stroke-linejoin:round;stroke-miterlimit:10;}
	.st34{fill:#FF6242;stroke:#45413C;stroke-linecap:round;stroke-linejoin:round;stroke-miterlimit:10;}
	.st35{fill:#FFA694;}
	.st36{fill:#FFFFFF;stroke:#45413C;stroke-linecap:round;stroke-linejoin:round;stroke-miterlimit:10;}
	.st37{fill:#FFFEF2;}
	.st38{fill:#FF6196;}
	.st39{fill:#B89558;}
	.st40{fill:none;stroke:#915E3A;stroke-linecap:round;stroke-linejoin:round;stroke-miterlimit:10;}
	.st41{fill:#DEBB7E;stroke:#45413C;stroke-linecap:round;stroke-linejoin:round;stroke-miterlimit:10;}
	.st42{fill:#6DD627;stroke:#45413C;stroke-linecap:round;stroke-linejoin:round;stroke-miterlimit:10;}
	.st43{fill:#E5F8FF;}
	.st44{fill:#E8F4FA;}
	.st45{fill:#E8F4FA;stroke:#45413C;stroke-linecap:round;stroke-linejoin:round;stroke-miterlimit:10;}
	.st46{fill:#FFCCDD;}
	.st47{fill:#E5F8FF;stroke:#45413C;stroke-linecap:round;stroke-linejoin:round;stroke-miterlimit:10;}
	.st48{fill:#00B8F0;stroke:#45413C;stroke-linecap:round;stroke-linejoin:round;stroke-miterlimit:10;}
	.st49{fill:#00B8F0;}
	.st50{fill:#4ACFFF;}
	.st51{fill:#E04122;}
	.st52{fill:#E04122;stroke:#45413C;stroke-linecap:round;stroke-linejoin:round;stroke-miterlimit:10;}
	.st53{fill:#87898C;}
	.st54{fill:#BDBEC0;}
	.st55{fill:#656769;}
	.st56{fill:#525252;}
	.st57{fill:#FFF48C;stroke:#45413C;stroke-linecap:round;stroke-linejoin:round;stroke-miterlimit:10;}
	.st58{fill:#6DD627;}
	.st59{fill:#EB6D00;}
	.st60{fill:#46B000;}
	.st61{fill:#80DDFF;}
	.st62{fill:#DAEDF7;}
	.st63{fill:#BF8DF2;stroke:#45413C;stroke-linecap:round;stroke-linejoin:round;stroke-miterlimit:10;}
	.st64{fill:#9F5AE5;stroke:#45413C;stroke-linecap:round;stroke-linejoin:round;stroke-miterlimit:10;}
	.st65{fill:#C8FFA1;}
	.st66{fill:#E4FFD1;}
	.st67{fill:#9CEB60;}
	.st68{fill:#E5FEFF;}
	.st69{fill:#B8ECFF;}
	.st70{fill:#E0E0E0;stroke:#45413C;stroke-linecap:round;stroke-linejoin:round;stroke-miterlimit:10;}
	.st71{fill:#E0E0E0;}
	.st72{fill:none;stroke:#4F4B45;stroke-linejoin:round;stroke-miterlimit:10;}
	.st73{fill:none;stroke:#4F4B45;stroke-linecap:round;stroke-linejoin:round;stroke-miterlimit:10;}
	.st74{fill:#E0366F;stroke:#45413C;stroke-linecap:round;stroke-linejoin:round;stroke-miterlimit:10;}
	.st75{fill:none;stroke:#45413C;stroke-miterlimit:10;}
	.st76{fill:#FF866E;stroke:#45413C;stroke-linecap:round;stroke-linejoin:round;stroke-miterlimit:10;}
	.st77{fill:#45413C;stroke:#45413C;stroke-linecap:round;stroke-linejoin:round;stroke-miterlimit:10;}
	.st78{fill:#9F5AE5;}
	.st79{fill:#803EC2;}
	.st80{fill:#803EC2;stroke:#45413C;stroke-linecap:round;stroke-linejoin:round;stroke-miterlimit:10;}
	.st81{fill:#BF8DF2;}
	.st82{fill:#FFAA54;stroke:#45413C;stroke-linecap:round;stroke-linejoin:round;stroke-miterlimit:10;}
	.st83{fill:none;stroke:#45413C;stroke-linejoin:round;stroke-miterlimit:10;}
	.st84{fill:#FFCCDD;stroke:#45413C;stroke-linecap:round;stroke-linejoin:round;stroke-miterlimit:10;}
	.st85{fill:#FF6196;stroke:#45413C;stroke-linecap:round;stroke-linejoin:round;stroke-miterlimit:10;}
	.st86{fill:#FFE5EE;}
	.st87{fill:#F7E5C6;stroke:#45413C;stroke-linecap:round;stroke-linejoin:round;stroke-miterlimit:10;}
	.st88{fill:#E5FFF9;}
	.st89{fill:none;stroke:#45413C;stroke-width:1.0064;stroke-linecap:round;stroke-linejoin:round;stroke-miterlimit:10;}
	.st90{fill:#4AEFF7;}
	.st91{fill:#A6FBFF;}
	.st92{fill:#E5FEFF;stroke:#45413C;stroke-linecap:round;stroke-linejoin:round;stroke-miterlimit:10;}
	.st93{fill:#46B000;stroke:#45413C;stroke-linecap:round;stroke-linejoin:round;stroke-miterlimit:10;}
	.st94{fill:#FFFFFF;stroke:#45413C;stroke-linejoin:round;stroke-miterlimit:10;}
	.st95{fill:#FFFFFF;stroke:#45413C;stroke-miterlimit:10;}
	.st96{fill:#009FD9;}
	.st97{fill:#00DFEB;}
	.st98{fill:#C0DCEB;stroke:#45413C;stroke-linecap:round;stroke-linejoin:round;stroke-miterlimit:10;}
	.st99{fill:#00DFEB;stroke:#45413C;stroke-linecap:round;stroke-linejoin:round;stroke-miterlimit:10;}
	.st100{fill:#FFE5EE;stroke:#45413C;stroke-linecap:round;stroke-linejoin:round;stroke-miterlimit:10;}
	.st101{fill:#8CA4B8;}
	.st102{fill:#ADC4D9;}
	.st103{fill:#656769;stroke:#45413C;stroke-linecap:round;stroke-linejoin:round;stroke-miterlimit:10;}
	.st104{fill:#F0F0F0;stroke:#45413C;stroke-linecap:round;stroke-linejoin:round;stroke-miterlimit:10;}
	.st105{fill:#C0DCEB;}
	.st106{fill:#45413C;}
	.st107{fill:#FFCABF;}
	.st108{fill:#87898C;stroke:#45413C;stroke-linecap:round;stroke-linejoin:round;stroke-miterlimit:10;}
	.st109{fill:#EBCB00;stroke:#45413C;stroke-linecap:round;stroke-linejoin:round;stroke-miterlimit:10;}</style>
    <g id="g2600" fill="#5e4aa6">
        <circle id="circle2562" cx="-1084.9" cy="-1267.7" r="0"/>
        <circle id="circle2564" cx="14.693" cy="-2.1827" r="0" fill-rule="evenodd"/>
        <circle id="circle2566" cx="-1269.8" cy="-1283" r="0"/>
        <circle id="circle2568" cx="-170.22" cy="-17.475" r="0" fill-rule="evenodd"/>
        <circle id="circle2570" cx="-1230.6" cy="-1370.4" r="0"/>
        <circle id="circle2572" cx="-1122.3" cy="-1430.5" r="0"/>
        <g id="g2586" transform="matrix(3.7796 0 0 3.7796 -16.748 -103.66)" stroke-width=".26458">
            <circle id="circle2574" cx="-330.38" cy="-328.51" r="0"/>
            <circle id="circle2576" cx="-301.71" cy="-344.43" r="0"/>
            <circle id="circle2578" cx="-259.01" cy="-348.26" r="0"/>
            <circle id="circle2580" cx="31.886" cy="-13.442" r="0" fill-rule="evenodd"/>
            <circle id="circle2582" cx="-257.29" cy="-350.65" r="0"/>
            <circle id="circle2584" cx="33.611" cy="-15.826" r="0" fill-rule="evenodd"/>
        </g>
        <g id="g2594" transform="translate(-186.89 -74.879)">
            <circle id="circle2588" cx="-1248.7" cy="-1241.6" r="0"/>
            <circle id="circle2590" cx="-1140.3" cy="-1301.8" r="0"/>
            <circle id="circle2592" cx="-1158.1" cy="-1246" r="0"/>
        </g>
        <circle id="circle2596" cx="-1344.2" cy="-1342.6" r="0"/>
        <circle id="circle2598" cx="-244.64" cy="-77.062" r="0" fill-rule="evenodd"/>
    </g>
    <path id="rect3828" d="m19.5 4.5c-8.309992 0-15 6.690008-15 15v25c0 8.309992 6.690008 15 15 15h0.220703v-55z" fill="#a77358"/>
    <path id="path18551" d="m21.556641 4.5v16.417969l4-4 3.998047 3.998047v-16.416016z" fill="#2a0304" filter="url(#filter18553)" opacity=".3"/>
    <path id="path2558" d="m21.556641 4.5v16.417969l4-4 3.998047 3.998047v-16.416016z" fill="#ef3133"/>
    <g id="g18545" transform="matrix(.55862495 0 0 .55862495 23.078079 22.61026)" filter="url(#filter18547)" opacity=".3">
        <path id="path18543" d="m54.203 0h-39.71c-1.161 0-2.102 0.942-2.102 2.102v64.492c0 1.156 0.941 2.101 2.102 2.101h39.71c1.158 0 2.101-0.944 2.101-2.101v-64.49c0-1.16-0.943-2.104-2.101-2.104zm-25.179 3.272h10.646c0.27 0 0.49 0.231 0.49 0.517 0 0.283-0.221 0.517-0.49 0.517h-10.646c-0.269 0-0.488-0.234-0.488-0.517 0-0.288 0.217-0.517 0.488-0.517zm5.713 62.934c-1.366 0-2.476-1.108-2.476-2.478 0-1.364 1.11-2.478 2.476-2.478 1.364 0 2.477 1.113 2.477 2.478 0 1.37-1.112 2.478-2.477 2.478zm17.363-7.847h-35.505v-51.328h2.151v7.3l2.273-1.906 2.273 1.906v-7.3h28.808zm-5.297-38.304h-12.456v-1.824h12.456zm0 6.969h-12.456v-1.825h12.456zm-24.913 5.203h24.913v1.832h-24.913zm0 6.971h24.913v1.824h-24.913zm0 7.034h24.913v1.83h-24.913zm1.07-18.674h1.063l0.649-2.008h3.747l0.67 2.008h2.187l-3.497-9.883h-2.394l-3.497 9.883zm3.595-7.67 1.312 3.961h-2.623z"/>
    </g>
    <g id="g11889" transform="matrix(.55862495 0 0 .55862495 23.078079 22.61026)" fill="#75513e">
        <path id="path11887" d="m54.203 0h-39.71c-1.161 0-2.102 0.942-2.102 2.102v64.492c0 1.156 0.941 2.101 2.102 2.101h39.71c1.158 0 2.101-0.944 2.101-2.101v-64.49c0-1.16-0.943-2.104-2.101-2.104zm-25.179 3.272h10.646c0.27 0 0.49 0.231 0.49 0.517 0 0.283-0.221 0.517-0.49 0.517h-10.646c-0.269 0-0.488-0.234-0.488-0.517 0-0.288 0.217-0.517 0.488-0.517zm5.713 62.934c-1.366 0-2.476-1.108-2.476-2.478 0-1.364 1.11-2.478 2.476-2.478 1.364 0 2.477 1.113 2.477 2.478 0 1.37-1.112 2.478-2.477 2.478zm17.363-7.847h-35.505v-51.328h2.151v7.3l2.273-1.906 2.273 1.906v-7.3h28.808zm-5.297-38.304h-12.456v-1.824h12.456zm0 6.969h-12.456v-1.825h12.456zm-24.913 5.203h24.913v1.832h-24.913zm0 6.971h24.913v1.824h-24.913zm0 7.034h24.913v1.83h-24.913zm1.07-18.674h1.063l0.649-2.008h3.747l0.67 2.008h2.187l-3.497-9.883h-2.394l-3.497 9.883zm3.595-7.67 1.312 3.961h-2.623z" fill="#75513e"/>
    </g>
    <path id="path13512" d="m19.716797 4.5v55h1.007812v-55h-1.007812z" color="#000000" fill="#fff" opacity=".15"/>
    <path id="path13514" d="m19.5 4.5c-0.26568 0-0.528813 0.0079736-0.791016 0.0214844v54.957032c0.262203 0.01351 0.525336 0.021484 0.791016 0.021484h0.216797v-55h-0.216797z" color="#000000" opacity=".3" style="-inkscape-stroke:none"/>
</svg>
