<svg id="svg2602" version="1.1" viewBox="0 0 64 64" xmlns="http://www.w3.org/2000/svg">
    <defs id="defs2540">
        <style id="style2528" type="text/css"/>
        <filter id="filter1057" x="-.026999999" y="-.026999999" width="1.054" height="1.054" color-interpolation-filters="sRGB">
            <feGaussianBlur id="feGaussianBlur2530" stdDeviation="0.61875"/>
        </filter>
        <linearGradient id="linearGradient5706" x1="4.5" x2="59.5" y1="32" y2="32" gradientUnits="userSpaceOnUse">
            <stop id="stop5700" stop-color="#dbb97e" offset="0"/>
            <stop id="stop5702" stop-color="#dbb97e" offset="1"/>
        </linearGradient>
        <filter id="filter18553" x="-.041212086" y="-.020076552" width="1.0824242" height="1.0401531" color-interpolation-filters="sRGB">
            <feGaussianBlur id="feGaussianBlur18555" stdDeviation="0.13734009"/>
        </filter>
        <style id="style2528-7" type="text/css"/>
    </defs>
    <rect id="rect2542" x="4.5" y="4.5" width="55" height="55" ry="15" fill="#141414" filter="url(#filter1057)" opacity=".3" stroke-linecap="round" stroke-width="2.7444"/>
    <rect id="rect2544" x="4.5" y="4.5" width="55" height="55" ry="15" fill="url(#linearGradient5706)" stroke-linecap="round" stroke-width="2.7444"/>
    <g id="g2552" fill="#5e4aa6">
        <circle id="circle2546" cx="-1248.7" cy="-1241.6" r="0"/>
        <circle id="circle2548" cx="-1059.5" cy="-1293.3" r="0"/>
        <circle id="circle2550" cx="40.034" cy="-27.737" r="0" fill-rule="evenodd"/>
    </g>
    <style id="style2560" type="text/css">.st0{opacity:0.15;fill:#45413C;}
	.st1{fill:#FFE500;}
	.st2{fill:#EBCB00;}
	.st3{fill:none;stroke:#45413C;stroke-linecap:round;stroke-linejoin:round;stroke-miterlimit:10;}
	.st4{fill:#FFAA54;}
	.st5{fill:#FF8A14;}
	.st6{fill:#FFB0CA;stroke:#45413C;stroke-linecap:round;stroke-linejoin:round;stroke-miterlimit:10;}
	.st7{fill:#FF87AF;stroke:#45413C;stroke-linecap:round;stroke-linejoin:round;stroke-miterlimit:10;}
	.st8{fill:#FFCC99;}
	.st9{fill:#FFFFFF;}
	.st10{fill:#F0F0F0;}
	.st11{fill:#BF8256;}
	.st12{fill:#915E3A;}
	.st13{fill:#DEA47A;}
	.st14{fill:#F0D5A8;}
	.st15{fill:#DEBB7E;}
	.st16{fill:#F7E5C6;}
	.st17{fill:#FF8A14;stroke:#45413C;stroke-linecap:round;stroke-linejoin:round;stroke-miterlimit:10;}
	.st18{fill:#FFF5E3;}
	.st19{fill:#FFF48C;}
	.st20{fill:#FFFACF;}
	.st21{fill:#FFFCE5;}
	.st22{fill:#FF87AF;}
	.st23{fill:#FFB0CA;}
	.st24{fill:#FFE500;stroke:#45413C;stroke-linecap:round;stroke-linejoin:round;stroke-miterlimit:10;}
	.st25{fill:#9CEB60;stroke:#45413C;stroke-linecap:round;stroke-linejoin:round;stroke-miterlimit:10;}
	.st26{fill:#FFFACF;stroke:#45413C;stroke-linecap:round;stroke-linejoin:round;stroke-miterlimit:10;}
	.st27{fill:#00F5BC;stroke:#45413C;stroke-linecap:round;stroke-linejoin:round;stroke-miterlimit:10;}
	.st28{fill:#BF8256;stroke:#45413C;stroke-linecap:round;stroke-linejoin:round;stroke-miterlimit:10;}
	.st29{fill:#FFE3CF;stroke:#45413C;stroke-linecap:round;stroke-linejoin:round;stroke-miterlimit:10;}
	.st30{fill:#FF6242;}
	.st31{fill:#FF866E;}
	.st32{fill:none;stroke:#E04122;stroke-linecap:round;stroke-linejoin:round;stroke-miterlimit:10;}
	.st33{fill:#FFFEF2;stroke:#45413C;stroke-linecap:round;stroke-linejoin:round;stroke-miterlimit:10;}
	.st34{fill:#FF6242;stroke:#45413C;stroke-linecap:round;stroke-linejoin:round;stroke-miterlimit:10;}
	.st35{fill:#FFA694;}
	.st36{fill:#FFFFFF;stroke:#45413C;stroke-linecap:round;stroke-linejoin:round;stroke-miterlimit:10;}
	.st37{fill:#FFFEF2;}
	.st38{fill:#FF6196;}
	.st39{fill:#B89558;}
	.st40{fill:none;stroke:#915E3A;stroke-linecap:round;stroke-linejoin:round;stroke-miterlimit:10;}
	.st41{fill:#DEBB7E;stroke:#45413C;stroke-linecap:round;stroke-linejoin:round;stroke-miterlimit:10;}
	.st42{fill:#6DD627;stroke:#45413C;stroke-linecap:round;stroke-linejoin:round;stroke-miterlimit:10;}
	.st43{fill:#E5F8FF;}
	.st44{fill:#E8F4FA;}
	.st45{fill:#E8F4FA;stroke:#45413C;stroke-linecap:round;stroke-linejoin:round;stroke-miterlimit:10;}
	.st46{fill:#FFCCDD;}
	.st47{fill:#E5F8FF;stroke:#45413C;stroke-linecap:round;stroke-linejoin:round;stroke-miterlimit:10;}
	.st48{fill:#00B8F0;stroke:#45413C;stroke-linecap:round;stroke-linejoin:round;stroke-miterlimit:10;}
	.st49{fill:#00B8F0;}
	.st50{fill:#4ACFFF;}
	.st51{fill:#E04122;}
	.st52{fill:#E04122;stroke:#45413C;stroke-linecap:round;stroke-linejoin:round;stroke-miterlimit:10;}
	.st53{fill:#87898C;}
	.st54{fill:#BDBEC0;}
	.st55{fill:#656769;}
	.st56{fill:#525252;}
	.st57{fill:#FFF48C;stroke:#45413C;stroke-linecap:round;stroke-linejoin:round;stroke-miterlimit:10;}
	.st58{fill:#6DD627;}
	.st59{fill:#EB6D00;}
	.st60{fill:#46B000;}
	.st61{fill:#80DDFF;}
	.st62{fill:#DAEDF7;}
	.st63{fill:#BF8DF2;stroke:#45413C;stroke-linecap:round;stroke-linejoin:round;stroke-miterlimit:10;}
	.st64{fill:#9F5AE5;stroke:#45413C;stroke-linecap:round;stroke-linejoin:round;stroke-miterlimit:10;}
	.st65{fill:#C8FFA1;}
	.st66{fill:#E4FFD1;}
	.st67{fill:#9CEB60;}
	.st68{fill:#E5FEFF;}
	.st69{fill:#B8ECFF;}
	.st70{fill:#E0E0E0;stroke:#45413C;stroke-linecap:round;stroke-linejoin:round;stroke-miterlimit:10;}
	.st71{fill:#E0E0E0;}
	.st72{fill:none;stroke:#4F4B45;stroke-linejoin:round;stroke-miterlimit:10;}
	.st73{fill:none;stroke:#4F4B45;stroke-linecap:round;stroke-linejoin:round;stroke-miterlimit:10;}
	.st74{fill:#E0366F;stroke:#45413C;stroke-linecap:round;stroke-linejoin:round;stroke-miterlimit:10;}
	.st75{fill:none;stroke:#45413C;stroke-miterlimit:10;}
	.st76{fill:#FF866E;stroke:#45413C;stroke-linecap:round;stroke-linejoin:round;stroke-miterlimit:10;}
	.st77{fill:#45413C;stroke:#45413C;stroke-linecap:round;stroke-linejoin:round;stroke-miterlimit:10;}
	.st78{fill:#9F5AE5;}
	.st79{fill:#803EC2;}
	.st80{fill:#803EC2;stroke:#45413C;stroke-linecap:round;stroke-linejoin:round;stroke-miterlimit:10;}
	.st81{fill:#BF8DF2;}
	.st82{fill:#FFAA54;stroke:#45413C;stroke-linecap:round;stroke-linejoin:round;stroke-miterlimit:10;}
	.st83{fill:none;stroke:#45413C;stroke-linejoin:round;stroke-miterlimit:10;}
	.st84{fill:#FFCCDD;stroke:#45413C;stroke-linecap:round;stroke-linejoin:round;stroke-miterlimit:10;}
	.st85{fill:#FF6196;stroke:#45413C;stroke-linecap:round;stroke-linejoin:round;stroke-miterlimit:10;}
	.st86{fill:#FFE5EE;}
	.st87{fill:#F7E5C6;stroke:#45413C;stroke-linecap:round;stroke-linejoin:round;stroke-miterlimit:10;}
	.st88{fill:#E5FFF9;}
	.st89{fill:none;stroke:#45413C;stroke-width:1.0064;stroke-linecap:round;stroke-linejoin:round;stroke-miterlimit:10;}
	.st90{fill:#4AEFF7;}
	.st91{fill:#A6FBFF;}
	.st92{fill:#E5FEFF;stroke:#45413C;stroke-linecap:round;stroke-linejoin:round;stroke-miterlimit:10;}
	.st93{fill:#46B000;stroke:#45413C;stroke-linecap:round;stroke-linejoin:round;stroke-miterlimit:10;}
	.st94{fill:#FFFFFF;stroke:#45413C;stroke-linejoin:round;stroke-miterlimit:10;}
	.st95{fill:#FFFFFF;stroke:#45413C;stroke-miterlimit:10;}
	.st96{fill:#009FD9;}
	.st97{fill:#00DFEB;}
	.st98{fill:#C0DCEB;stroke:#45413C;stroke-linecap:round;stroke-linejoin:round;stroke-miterlimit:10;}
	.st99{fill:#00DFEB;stroke:#45413C;stroke-linecap:round;stroke-linejoin:round;stroke-miterlimit:10;}
	.st100{fill:#FFE5EE;stroke:#45413C;stroke-linecap:round;stroke-linejoin:round;stroke-miterlimit:10;}
	.st101{fill:#8CA4B8;}
	.st102{fill:#ADC4D9;}
	.st103{fill:#656769;stroke:#45413C;stroke-linecap:round;stroke-linejoin:round;stroke-miterlimit:10;}
	.st104{fill:#F0F0F0;stroke:#45413C;stroke-linecap:round;stroke-linejoin:round;stroke-miterlimit:10;}
	.st105{fill:#C0DCEB;}
	.st106{fill:#45413C;}
	.st107{fill:#FFCABF;}
	.st108{fill:#87898C;stroke:#45413C;stroke-linecap:round;stroke-linejoin:round;stroke-miterlimit:10;}
	.st109{fill:#EBCB00;stroke:#45413C;stroke-linecap:round;stroke-linejoin:round;stroke-miterlimit:10;}</style>
    <g id="g2600" fill="#5e4aa6">
        <circle id="circle2562" cx="-1084.9" cy="-1267.7" r="0"/>
        <circle id="circle2564" cx="14.693" cy="-2.1827" r="0" fill-rule="evenodd"/>
        <circle id="circle2566" cx="-1269.8" cy="-1283" r="0"/>
        <circle id="circle2568" cx="-170.22" cy="-17.475" r="0" fill-rule="evenodd"/>
        <circle id="circle2570" cx="-1230.6" cy="-1370.4" r="0"/>
        <circle id="circle2572" cx="-1122.3" cy="-1430.5" r="0"/>
        <g id="g2586" transform="matrix(3.7796 0 0 3.7796 -16.748 -103.66)" stroke-width=".26458">
            <circle id="circle2574" cx="-330.38" cy="-328.51" r="0"/>
            <circle id="circle2576" cx="-301.71" cy="-344.43" r="0"/>
            <circle id="circle2578" cx="-259.01" cy="-348.26" r="0"/>
            <circle id="circle2580" cx="31.886" cy="-13.442" r="0" fill-rule="evenodd"/>
            <circle id="circle2582" cx="-257.29" cy="-350.65" r="0"/>
            <circle id="circle2584" cx="33.611" cy="-15.826" r="0" fill-rule="evenodd"/>
        </g>
        <g id="g2594" transform="translate(-186.89 -74.879)">
            <circle id="circle2588" cx="-1248.7" cy="-1241.6" r="0"/>
            <circle id="circle2590" cx="-1140.3" cy="-1301.8" r="0"/>
            <circle id="circle2592" cx="-1158.1" cy="-1246" r="0"/>
        </g>
        <circle id="circle2596" cx="-1344.2" cy="-1342.6" r="0"/>
        <circle id="circle2598" cx="-244.64" cy="-77.062" r="0" fill-rule="evenodd"/>
    </g>
    <path id="rect3828" d="m19.5 4.5c-8.309992 0-15 6.690008-15 15v25c0 8.309992 6.690008 15 15 15h0.220703v-55z" fill="#a77358"/>
    <path id="path18551" d="m21.556641 4.5v16.417969l4-4 3.998047 3.998047v-16.416016z" fill="#2a0304" filter="url(#filter18553)" opacity=".3"/>
    <path id="path2558" d="m21.556641 4.5v16.417969l4-4 3.998047 3.998047v-16.416016z" fill="#ef3133"/>
    <path id="path13512" d="m19.716797 4.5v55h1.007812v-55h-1.007812z" color="#000000" fill="#fff" opacity=".15"/>
    <path id="path13514" d="m19.5 4.5c-0.26568 0-0.528813 0.0079736-0.791016 0.0214844v54.957032c0.262203 0.01351 0.525336 0.021484 0.791016 0.021484h0.216797v-55h-0.216797z" color="#000000" opacity=".3" style="-inkscape-stroke:none"/>
    <g fill="#75513e">
        <path id="path11887" d="m30.15405 22.539607c-0.627916 0-1.137401 0.510027-1.137401 1.137403v14.641503h2.272949v-11.97705h1.163378v3.948437l1.230176-1.029785 1.228321 1.029785v-3.948437h15.580371v11.97705h2.274805v-14.641503c0-0.627377-0.511109-1.137403-1.137403-1.137403zm7.857911 1.770117h5.75752c0.146026 0 0.265332 0.12364 0.265331 0.278321 0 0.153058-0.119845 0.280176-0.265331 0.280176h-5.75752c-0.145487 0-0.263477-0.127118-0.263477-0.280176 0-0.155762 0.116908-0.278321 0.263477-0.278321zm-1.968653 7.789258-1.890722 5.345606h1.154101l0.352539-1.087305h2.026173l0.361816 1.087305h1.183789l-1.892579-5.345606zm4.848341 0.300586v0.98711h6.73535v-0.98711zm-4.215625 0.896192 0.710644 2.143066h-1.419434zm4.215625 2.872265v0.98711h6.73535v-0.98711z" stroke-width=".540843"/>
        <path id="path5534" class="UnoptimicedTransforms" d="m56.091326 39.50145h-8.258448c-0.318217 0-0.576063 0.257923-0.576063 0.576064 0 1.376408-1.119792 2.496276-2.496277 2.496276h-7.677779c-1.376485 0-2.496276-1.119868-2.496276-2.496276 0-0.318141-0.257846-0.576064-0.576064-0.576064h-8.25845c-0.318218 0-0.576064 0.257923-0.576064 0.576064v17.763042c0 1.488242 1.210809 2.699051 2.699128 2.699051h26.09331c1.488241 0 2.699054-1.210809 2.699054-2.699051v-17.763042c0-0.318141-0.257849-0.576064-0.576071-0.576064z"/>
        <path id="path287" class="UnoptimicedTransforms" d="m56.091326 39.50145h-8.258448c-0.318217 0-0.576063 0.257923-0.576063 0.576064 0 1.376408-1.119792 2.496276-2.496277 2.496276h-7.677779c-1.376485 0-2.496276-1.119868-2.496276-2.496276 0-0.318141-0.257846-0.576064-0.576064-0.576064h-8.25845c-0.318218 0-0.576064 0.257923-0.576064 0.576064v17.763042c0 1.488242 1.210809 2.699051 2.699128 2.699051h26.09331c1.488241 0 2.699054-1.210809 2.699054-2.699051v-17.763042c0-0.318141-0.257849-0.576064-0.576071-0.576064zm-0.576061 18.339106c0 0.852959-0.693965 1.546924-1.546999 1.546924h-26.093233c-0.853036 0-1.547-0.693965-1.547-1.546924v-17.186979h7.151716c0.276895 1.739022 1.78718 3.072341 3.602933 3.072341h7.677856c1.81583 0 3.326039-1.333319 3.602934-3.072341h7.151793z" stroke="#75513e"/>
    </g>
    <style id="style2560-6" type="text/css">.st0{opacity:0.15;fill:#45413C;}
	.st1{fill:#FFE500;}
	.st2{fill:#EBCB00;}
	.st3{fill:none;stroke:#45413C;stroke-linecap:round;stroke-linejoin:round;stroke-miterlimit:10;}
	.st4{fill:#FFAA54;}
	.st5{fill:#FF8A14;}
	.st6{fill:#FFB0CA;stroke:#45413C;stroke-linecap:round;stroke-linejoin:round;stroke-miterlimit:10;}
	.st7{fill:#FF87AF;stroke:#45413C;stroke-linecap:round;stroke-linejoin:round;stroke-miterlimit:10;}
	.st8{fill:#FFCC99;}
	.st9{fill:#FFFFFF;}
	.st10{fill:#F0F0F0;}
	.st11{fill:#BF8256;}
	.st12{fill:#915E3A;}
	.st13{fill:#DEA47A;}
	.st14{fill:#F0D5A8;}
	.st15{fill:#DEBB7E;}
	.st16{fill:#F7E5C6;}
	.st17{fill:#FF8A14;stroke:#45413C;stroke-linecap:round;stroke-linejoin:round;stroke-miterlimit:10;}
	.st18{fill:#FFF5E3;}
	.st19{fill:#FFF48C;}
	.st20{fill:#FFFACF;}
	.st21{fill:#FFFCE5;}
	.st22{fill:#FF87AF;}
	.st23{fill:#FFB0CA;}
	.st24{fill:#FFE500;stroke:#45413C;stroke-linecap:round;stroke-linejoin:round;stroke-miterlimit:10;}
	.st25{fill:#9CEB60;stroke:#45413C;stroke-linecap:round;stroke-linejoin:round;stroke-miterlimit:10;}
	.st26{fill:#FFFACF;stroke:#45413C;stroke-linecap:round;stroke-linejoin:round;stroke-miterlimit:10;}
	.st27{fill:#00F5BC;stroke:#45413C;stroke-linecap:round;stroke-linejoin:round;stroke-miterlimit:10;}
	.st28{fill:#BF8256;stroke:#45413C;stroke-linecap:round;stroke-linejoin:round;stroke-miterlimit:10;}
	.st29{fill:#FFE3CF;stroke:#45413C;stroke-linecap:round;stroke-linejoin:round;stroke-miterlimit:10;}
	.st30{fill:#FF6242;}
	.st31{fill:#FF866E;}
	.st32{fill:none;stroke:#E04122;stroke-linecap:round;stroke-linejoin:round;stroke-miterlimit:10;}
	.st33{fill:#FFFEF2;stroke:#45413C;stroke-linecap:round;stroke-linejoin:round;stroke-miterlimit:10;}
	.st34{fill:#FF6242;stroke:#45413C;stroke-linecap:round;stroke-linejoin:round;stroke-miterlimit:10;}
	.st35{fill:#FFA694;}
	.st36{fill:#FFFFFF;stroke:#45413C;stroke-linecap:round;stroke-linejoin:round;stroke-miterlimit:10;}
	.st37{fill:#FFFEF2;}
	.st38{fill:#FF6196;}
	.st39{fill:#B89558;}
	.st40{fill:none;stroke:#915E3A;stroke-linecap:round;stroke-linejoin:round;stroke-miterlimit:10;}
	.st41{fill:#DEBB7E;stroke:#45413C;stroke-linecap:round;stroke-linejoin:round;stroke-miterlimit:10;}
	.st42{fill:#6DD627;stroke:#45413C;stroke-linecap:round;stroke-linejoin:round;stroke-miterlimit:10;}
	.st43{fill:#E5F8FF;}
	.st44{fill:#E8F4FA;}
	.st45{fill:#E8F4FA;stroke:#45413C;stroke-linecap:round;stroke-linejoin:round;stroke-miterlimit:10;}
	.st46{fill:#FFCCDD;}
	.st47{fill:#E5F8FF;stroke:#45413C;stroke-linecap:round;stroke-linejoin:round;stroke-miterlimit:10;}
	.st48{fill:#00B8F0;stroke:#45413C;stroke-linecap:round;stroke-linejoin:round;stroke-miterlimit:10;}
	.st49{fill:#00B8F0;}
	.st50{fill:#4ACFFF;}
	.st51{fill:#E04122;}
	.st52{fill:#E04122;stroke:#45413C;stroke-linecap:round;stroke-linejoin:round;stroke-miterlimit:10;}
	.st53{fill:#87898C;}
	.st54{fill:#BDBEC0;}
	.st55{fill:#656769;}
	.st56{fill:#525252;}
	.st57{fill:#FFF48C;stroke:#45413C;stroke-linecap:round;stroke-linejoin:round;stroke-miterlimit:10;}
	.st58{fill:#6DD627;}
	.st59{fill:#EB6D00;}
	.st60{fill:#46B000;}
	.st61{fill:#80DDFF;}
	.st62{fill:#DAEDF7;}
	.st63{fill:#BF8DF2;stroke:#45413C;stroke-linecap:round;stroke-linejoin:round;stroke-miterlimit:10;}
	.st64{fill:#9F5AE5;stroke:#45413C;stroke-linecap:round;stroke-linejoin:round;stroke-miterlimit:10;}
	.st65{fill:#C8FFA1;}
	.st66{fill:#E4FFD1;}
	.st67{fill:#9CEB60;}
	.st68{fill:#E5FEFF;}
	.st69{fill:#B8ECFF;}
	.st70{fill:#E0E0E0;stroke:#45413C;stroke-linecap:round;stroke-linejoin:round;stroke-miterlimit:10;}
	.st71{fill:#E0E0E0;}
	.st72{fill:none;stroke:#4F4B45;stroke-linejoin:round;stroke-miterlimit:10;}
	.st73{fill:none;stroke:#4F4B45;stroke-linecap:round;stroke-linejoin:round;stroke-miterlimit:10;}
	.st74{fill:#E0366F;stroke:#45413C;stroke-linecap:round;stroke-linejoin:round;stroke-miterlimit:10;}
	.st75{fill:none;stroke:#45413C;stroke-miterlimit:10;}
	.st76{fill:#FF866E;stroke:#45413C;stroke-linecap:round;stroke-linejoin:round;stroke-miterlimit:10;}
	.st77{fill:#45413C;stroke:#45413C;stroke-linecap:round;stroke-linejoin:round;stroke-miterlimit:10;}
	.st78{fill:#9F5AE5;}
	.st79{fill:#803EC2;}
	.st80{fill:#803EC2;stroke:#45413C;stroke-linecap:round;stroke-linejoin:round;stroke-miterlimit:10;}
	.st81{fill:#BF8DF2;}
	.st82{fill:#FFAA54;stroke:#45413C;stroke-linecap:round;stroke-linejoin:round;stroke-miterlimit:10;}
	.st83{fill:none;stroke:#45413C;stroke-linejoin:round;stroke-miterlimit:10;}
	.st84{fill:#FFCCDD;stroke:#45413C;stroke-linecap:round;stroke-linejoin:round;stroke-miterlimit:10;}
	.st85{fill:#FF6196;stroke:#45413C;stroke-linecap:round;stroke-linejoin:round;stroke-miterlimit:10;}
	.st86{fill:#FFE5EE;}
	.st87{fill:#F7E5C6;stroke:#45413C;stroke-linecap:round;stroke-linejoin:round;stroke-miterlimit:10;}
	.st88{fill:#E5FFF9;}
	.st89{fill:none;stroke:#45413C;stroke-width:1.0064;stroke-linecap:round;stroke-linejoin:round;stroke-miterlimit:10;}
	.st90{fill:#4AEFF7;}
	.st91{fill:#A6FBFF;}
	.st92{fill:#E5FEFF;stroke:#45413C;stroke-linecap:round;stroke-linejoin:round;stroke-miterlimit:10;}
	.st93{fill:#46B000;stroke:#45413C;stroke-linecap:round;stroke-linejoin:round;stroke-miterlimit:10;}
	.st94{fill:#FFFFFF;stroke:#45413C;stroke-linejoin:round;stroke-miterlimit:10;}
	.st95{fill:#FFFFFF;stroke:#45413C;stroke-miterlimit:10;}
	.st96{fill:#009FD9;}
	.st97{fill:#00DFEB;}
	.st98{fill:#C0DCEB;stroke:#45413C;stroke-linecap:round;stroke-linejoin:round;stroke-miterlimit:10;}
	.st99{fill:#00DFEB;stroke:#45413C;stroke-linecap:round;stroke-linejoin:round;stroke-miterlimit:10;}
	.st100{fill:#FFE5EE;stroke:#45413C;stroke-linecap:round;stroke-linejoin:round;stroke-miterlimit:10;}
	.st101{fill:#8CA4B8;}
	.st102{fill:#ADC4D9;}
	.st103{fill:#656769;stroke:#45413C;stroke-linecap:round;stroke-linejoin:round;stroke-miterlimit:10;}
	.st104{fill:#F0F0F0;stroke:#45413C;stroke-linecap:round;stroke-linejoin:round;stroke-miterlimit:10;}
	.st105{fill:#C0DCEB;}
	.st106{fill:#45413C;}
	.st107{fill:#FFCABF;}
	.st108{fill:#87898C;stroke:#45413C;stroke-linecap:round;stroke-linejoin:round;stroke-miterlimit:10;}
	.st109{fill:#EBCB00;stroke:#45413C;stroke-linecap:round;stroke-linejoin:round;stroke-miterlimit:10;}</style>
    <g fill="#dbb97e" stroke="#75513e" stroke-width=".1">
        <path id="path279" d="m30.5525 47.674183c0 0.318141 0.257846 0.576064 0.576064 0.576064h19.586169c0.318218 0 0.576064-0.257923 0.576064-0.576064s-0.257846-0.576064-0.576064-0.576064h-19.586169c-0.318218 0-0.576064 0.257923-0.576064 0.576064z"/>
        <path id="path281" d="m28.248245 49.978437c0 0.318142 0.257846 0.576064 0.576064 0.576064h24.194679c0.318222 0 0.576061-0.257922 0.576061-0.576064 0-0.318141-0.257839-0.576064-0.576061-0.576064h-24.194679c-0.318218 0-0.576064 0.257923-0.576064 0.576064z"/>
        <path id="path283" d="m50.714733 51.706629h-19.586169c-0.318218 0-0.576064 0.257923-0.576064 0.576064 0 0.31814 0.257846 0.576063 0.576064 0.576063h19.586169c0.318218 0 0.576064-0.257923 0.576064-0.576063 0-0.318141-0.257846-0.576064-0.576064-0.576064z"/>
        <path id="path285" d="m46.106223 54.010884h-10.369148c-0.318218 0-0.576064 0.257923-0.576064 0.576064v2.304255c0 0.318141 0.257846 0.576064 0.576064 0.576064h10.369148c0.318218 0 0.576064-0.257923 0.576064-0.576064v-2.304255c0-0.318141-0.257846-0.576064-0.576064-0.576064zm-0.576064 2.304256h-9.21702v-1.152128h9.21702z"/>
    </g>
</svg>
