<svg id="svg2602" version="1.1" viewBox="0 0 64 64" xmlns="http://www.w3.org/2000/svg" xmlns:xlink="http://www.w3.org/1999/xlink">
    <defs id="defs2540">
        <style id="style2528" type="text/css"/>
        <filter id="filter1057" x="-.026999999" y="-.026999999" width="1.054" height="1.054" color-interpolation-filters="sRGB">
            <feGaussianBlur id="feGaussianBlur2530" stdDeviation="0.61875"/>
        </filter>
        <filter id="filter9387" x="-.046153846" y="-.046153846" width="1.0923077" height="1.0923077" color-interpolation-filters="sRGB">
            <feFlood id="feFlood9377" flood-color="rgb(0,0,0)" result="flood"/>
            <feComposite id="feComposite9379" in="flood" in2="SourceGraphic" operator="out" result="composite1"/>
            <feGaussianBlur id="feGaussianBlur9381" in="composite1" result="blur" stdDeviation="1"/>
            <feOffset id="feOffset9383" dx="2.77556e-17" dy="0" result="offset"/>
            <feComposite id="feComposite9385" in="offset" in2="SourceGraphic" operator="in" result="composite2"/>
        </filter>
        <linearGradient id="linearGradient14605" x1="-77.166695" x2="-28.828667" y1="10.58291" y2="58.920937" gradientTransform="translate(84.997681,-2.7519236)" gradientUnits="userSpaceOnUse">
            <stop id="stop14601" stop-color="#40a1ca" offset="0"/>
            <stop id="stop14599" stop-color="#2e7ba9" offset="1"/>
        </linearGradient>
        <filter id="filter1585" x="-.1393081" y="-.07218714" width="1.2786162" height="1.1443743" color-interpolation-filters="sRGB">
            <feFlood id="feFlood1575" flood-color="rgb(0,0,0)" flood-opacity=".301961" result="flood"/>
            <feComposite id="feComposite1577" in="flood" in2="SourceGraphic" operator="in" result="composite1"/>
            <feGaussianBlur id="feGaussianBlur1579" in="composite1" result="blur" stdDeviation="1"/>
            <feOffset id="feOffset1581" dx="2.77556e-17" dy="0" result="offset"/>
            <feComposite id="feComposite1583" in="offset" in2="SourceGraphic" operator="out" result="composite2"/>
        </filter>
        <filter id="filter1597" x="-.2732872" y="-.097765767" width="1.5465744" height="1.1955315" color-interpolation-filters="sRGB">
            <feFlood id="feFlood1587" flood-color="rgb(0,0,0)" flood-opacity=".301961" result="flood"/>
            <feComposite id="feComposite1589" in="flood" in2="SourceGraphic" operator="in" result="composite1"/>
            <feGaussianBlur id="feGaussianBlur1591" in="composite1" result="blur" stdDeviation="1"/>
            <feOffset id="feOffset1593" dx="2.77556e-17" dy="0" result="offset"/>
            <feComposite id="feComposite1595" in="offset" in2="SourceGraphic" operator="out" result="composite2"/>
        </filter>
        <filter id="filter1609" x="-.61426162" y="-.051048108" width="2.2285232" height="1.1020962" color-interpolation-filters="sRGB">
            <feFlood id="feFlood1599" flood-color="rgb(0,0,0)" flood-opacity=".301961" result="flood"/>
            <feComposite id="feComposite1601" in="flood" in2="SourceGraphic" operator="in" result="composite1"/>
            <feGaussianBlur id="feGaussianBlur1603" in="composite1" result="blur" stdDeviation="1"/>
            <feOffset id="feOffset1605" dx="2.77556e-17" dy="0" result="offset"/>
            <feComposite id="feComposite1607" in="offset" in2="SourceGraphic" operator="out" result="composite2"/>
        </filter>
        <filter id="filter1621" x="-.29110139" y="-.058607439" width="1.5822028" height="1.1172149" color-interpolation-filters="sRGB">
            <feFlood id="feFlood1611" flood-color="rgb(0,0,0)" flood-opacity=".301961" result="flood"/>
            <feComposite id="feComposite1613" in="flood" in2="SourceGraphic" operator="in" result="composite1"/>
            <feGaussianBlur id="feGaussianBlur1615" in="composite1" result="blur" stdDeviation="1"/>
            <feOffset id="feOffset1617" dx="2.77556e-17" dy="0" result="offset"/>
            <feComposite id="feComposite1619" in="offset" in2="SourceGraphic" operator="out" result="composite2"/>
        </filter>
        <filter id="filter1633" x="-.17156239" y="-.051048032" width="1.3431248" height="1.1020961" color-interpolation-filters="sRGB">
            <feFlood id="feFlood1623" flood-color="rgb(0,0,0)" flood-opacity=".301961" result="flood"/>
            <feComposite id="feComposite1625" in="flood" in2="SourceGraphic" operator="in" result="composite1"/>
            <feGaussianBlur id="feGaussianBlur1627" in="composite1" result="blur" stdDeviation="1"/>
            <feOffset id="feOffset1629" dx="2.77556e-17" dy="0" result="offset"/>
            <feComposite id="feComposite1631" in="offset" in2="SourceGraphic" operator="out" result="composite2"/>
        </filter>
        <filter id="filter2061" x="-.027017977" y="-.026982045" width="1.054036" height="1.0539641" color-interpolation-filters="sRGB">
            <feGaussianBlur id="feGaussianBlur2063" stdDeviation="0.52856972"/>
        </filter>
        <linearGradient id="linearGradient2126" x1="69.82589" x2="118.16392" y1="-31.119696" y2="17.218332" gradientTransform="translate(-61.994904,38.950682)" gradientUnits="userSpaceOnUse">
            <stop id="stop2120" stop-color="#307c9e" stop-opacity=".30000001" offset="0"/>
            <stop id="stop2122" stop-color="#2e7ba8" offset="1"/>
        </linearGradient>
        <filter id="filter12512" x="-.082766568" y="-.21362779" width="1.1655331" height="1.4272556" color-interpolation-filters="sRGB">
            <feFlood id="feFlood12502" flood-color="rgb(0,0,0)" flood-opacity=".4" result="flood"/>
            <feComposite id="feComposite12504" in="flood" in2="SourceGraphic" operator="in" result="composite1"/>
            <feGaussianBlur id="feGaussianBlur12506" in="composite1" result="blur" stdDeviation="1"/>
            <feOffset id="feOffset12508" dx="2.77556e-17" dy="0" result="offset"/>
            <feComposite id="feComposite12510" in="offset" in2="SourceGraphic" operator="out" result="composite2"/>
        </filter>
    </defs>
    <rect id="rect2542" x="4.4999995" y="4.4999995" width="55" height="55" ry="15" fill="#141414" filter="url(#filter1057)" opacity=".3" stroke-linecap="round" stroke-width="2.7444"/>
    <g id="g2552" fill="#5e4aa6">
        <circle id="circle2546" cx="-1248.7" cy="-1241.6" r="0"/>
        <circle id="circle2548" cx="-1059.5" cy="-1293.3" r="0"/>
        <circle id="circle2550" cx="40.034" cy="-27.737" r="0" fill-rule="evenodd"/>
    </g>
    <style id="style2560" type="text/css">.st0{opacity:0.15;fill:#45413C;}
	.st1{fill:#FFE500;}
	.st2{fill:#EBCB00;}
	.st3{fill:none;stroke:#45413C;stroke-linecap:round;stroke-linejoin:round;stroke-miterlimit:10;}
	.st4{fill:#FFAA54;}
	.st5{fill:#FF8A14;}
	.st6{fill:#FFB0CA;stroke:#45413C;stroke-linecap:round;stroke-linejoin:round;stroke-miterlimit:10;}
	.st7{fill:#FF87AF;stroke:#45413C;stroke-linecap:round;stroke-linejoin:round;stroke-miterlimit:10;}
	.st8{fill:#FFCC99;}
	.st9{fill:#FFFFFF;}
	.st10{fill:#F0F0F0;}
	.st11{fill:#BF8256;}
	.st12{fill:#915E3A;}
	.st13{fill:#DEA47A;}
	.st14{fill:#F0D5A8;}
	.st15{fill:#DEBB7E;}
	.st16{fill:#F7E5C6;}
	.st17{fill:#FF8A14;stroke:#45413C;stroke-linecap:round;stroke-linejoin:round;stroke-miterlimit:10;}
	.st18{fill:#FFF5E3;}
	.st19{fill:#FFF48C;}
	.st20{fill:#FFFACF;}
	.st21{fill:#FFFCE5;}
	.st22{fill:#FF87AF;}
	.st23{fill:#FFB0CA;}
	.st24{fill:#FFE500;stroke:#45413C;stroke-linecap:round;stroke-linejoin:round;stroke-miterlimit:10;}
	.st25{fill:#9CEB60;stroke:#45413C;stroke-linecap:round;stroke-linejoin:round;stroke-miterlimit:10;}
	.st26{fill:#FFFACF;stroke:#45413C;stroke-linecap:round;stroke-linejoin:round;stroke-miterlimit:10;}
	.st27{fill:#00F5BC;stroke:#45413C;stroke-linecap:round;stroke-linejoin:round;stroke-miterlimit:10;}
	.st28{fill:#BF8256;stroke:#45413C;stroke-linecap:round;stroke-linejoin:round;stroke-miterlimit:10;}
	.st29{fill:#FFE3CF;stroke:#45413C;stroke-linecap:round;stroke-linejoin:round;stroke-miterlimit:10;}
	.st30{fill:#FF6242;}
	.st31{fill:#FF866E;}
	.st32{fill:none;stroke:#E04122;stroke-linecap:round;stroke-linejoin:round;stroke-miterlimit:10;}
	.st33{fill:#FFFEF2;stroke:#45413C;stroke-linecap:round;stroke-linejoin:round;stroke-miterlimit:10;}
	.st34{fill:#FF6242;stroke:#45413C;stroke-linecap:round;stroke-linejoin:round;stroke-miterlimit:10;}
	.st35{fill:#FFA694;}
	.st36{fill:#FFFFFF;stroke:#45413C;stroke-linecap:round;stroke-linejoin:round;stroke-miterlimit:10;}
	.st37{fill:#FFFEF2;}
	.st38{fill:#FF6196;}
	.st39{fill:#B89558;}
	.st40{fill:none;stroke:#915E3A;stroke-linecap:round;stroke-linejoin:round;stroke-miterlimit:10;}
	.st41{fill:#DEBB7E;stroke:#45413C;stroke-linecap:round;stroke-linejoin:round;stroke-miterlimit:10;}
	.st42{fill:#6DD627;stroke:#45413C;stroke-linecap:round;stroke-linejoin:round;stroke-miterlimit:10;}
	.st43{fill:#E5F8FF;}
	.st44{fill:#E8F4FA;}
	.st45{fill:#E8F4FA;stroke:#45413C;stroke-linecap:round;stroke-linejoin:round;stroke-miterlimit:10;}
	.st46{fill:#FFCCDD;}
	.st47{fill:#E5F8FF;stroke:#45413C;stroke-linecap:round;stroke-linejoin:round;stroke-miterlimit:10;}
	.st48{fill:#00B8F0;stroke:#45413C;stroke-linecap:round;stroke-linejoin:round;stroke-miterlimit:10;}
	.st49{fill:#00B8F0;}
	.st50{fill:#4ACFFF;}
	.st51{fill:#E04122;}
	.st52{fill:#E04122;stroke:#45413C;stroke-linecap:round;stroke-linejoin:round;stroke-miterlimit:10;}
	.st53{fill:#87898C;}
	.st54{fill:#BDBEC0;}
	.st55{fill:#656769;}
	.st56{fill:#525252;}
	.st57{fill:#FFF48C;stroke:#45413C;stroke-linecap:round;stroke-linejoin:round;stroke-miterlimit:10;}
	.st58{fill:#6DD627;}
	.st59{fill:#EB6D00;}
	.st60{fill:#46B000;}
	.st61{fill:#80DDFF;}
	.st62{fill:#DAEDF7;}
	.st63{fill:#BF8DF2;stroke:#45413C;stroke-linecap:round;stroke-linejoin:round;stroke-miterlimit:10;}
	.st64{fill:#9F5AE5;stroke:#45413C;stroke-linecap:round;stroke-linejoin:round;stroke-miterlimit:10;}
	.st65{fill:#C8FFA1;}
	.st66{fill:#E4FFD1;}
	.st67{fill:#9CEB60;}
	.st68{fill:#E5FEFF;}
	.st69{fill:#B8ECFF;}
	.st70{fill:#E0E0E0;stroke:#45413C;stroke-linecap:round;stroke-linejoin:round;stroke-miterlimit:10;}
	.st71{fill:#E0E0E0;}
	.st72{fill:none;stroke:#4F4B45;stroke-linejoin:round;stroke-miterlimit:10;}
	.st73{fill:none;stroke:#4F4B45;stroke-linecap:round;stroke-linejoin:round;stroke-miterlimit:10;}
	.st74{fill:#E0366F;stroke:#45413C;stroke-linecap:round;stroke-linejoin:round;stroke-miterlimit:10;}
	.st75{fill:none;stroke:#45413C;stroke-miterlimit:10;}
	.st76{fill:#FF866E;stroke:#45413C;stroke-linecap:round;stroke-linejoin:round;stroke-miterlimit:10;}
	.st77{fill:#45413C;stroke:#45413C;stroke-linecap:round;stroke-linejoin:round;stroke-miterlimit:10;}
	.st78{fill:#9F5AE5;}
	.st79{fill:#803EC2;}
	.st80{fill:#803EC2;stroke:#45413C;stroke-linecap:round;stroke-linejoin:round;stroke-miterlimit:10;}
	.st81{fill:#BF8DF2;}
	.st82{fill:#FFAA54;stroke:#45413C;stroke-linecap:round;stroke-linejoin:round;stroke-miterlimit:10;}
	.st83{fill:none;stroke:#45413C;stroke-linejoin:round;stroke-miterlimit:10;}
	.st84{fill:#FFCCDD;stroke:#45413C;stroke-linecap:round;stroke-linejoin:round;stroke-miterlimit:10;}
	.st85{fill:#FF6196;stroke:#45413C;stroke-linecap:round;stroke-linejoin:round;stroke-miterlimit:10;}
	.st86{fill:#FFE5EE;}
	.st87{fill:#F7E5C6;stroke:#45413C;stroke-linecap:round;stroke-linejoin:round;stroke-miterlimit:10;}
	.st88{fill:#E5FFF9;}
	.st89{fill:none;stroke:#45413C;stroke-width:1.0064;stroke-linecap:round;stroke-linejoin:round;stroke-miterlimit:10;}
	.st90{fill:#4AEFF7;}
	.st91{fill:#A6FBFF;}
	.st92{fill:#E5FEFF;stroke:#45413C;stroke-linecap:round;stroke-linejoin:round;stroke-miterlimit:10;}
	.st93{fill:#46B000;stroke:#45413C;stroke-linecap:round;stroke-linejoin:round;stroke-miterlimit:10;}
	.st94{fill:#FFFFFF;stroke:#45413C;stroke-linejoin:round;stroke-miterlimit:10;}
	.st95{fill:#FFFFFF;stroke:#45413C;stroke-miterlimit:10;}
	.st96{fill:#009FD9;}
	.st97{fill:#00DFEB;}
	.st98{fill:#C0DCEB;stroke:#45413C;stroke-linecap:round;stroke-linejoin:round;stroke-miterlimit:10;}
	.st99{fill:#00DFEB;stroke:#45413C;stroke-linecap:round;stroke-linejoin:round;stroke-miterlimit:10;}
	.st100{fill:#FFE5EE;stroke:#45413C;stroke-linecap:round;stroke-linejoin:round;stroke-miterlimit:10;}
	.st101{fill:#8CA4B8;}
	.st102{fill:#ADC4D9;}
	.st103{fill:#656769;stroke:#45413C;stroke-linecap:round;stroke-linejoin:round;stroke-miterlimit:10;}
	.st104{fill:#F0F0F0;stroke:#45413C;stroke-linecap:round;stroke-linejoin:round;stroke-miterlimit:10;}
	.st105{fill:#C0DCEB;}
	.st106{fill:#45413C;}
	.st107{fill:#FFCABF;}
	.st108{fill:#87898C;stroke:#45413C;stroke-linecap:round;stroke-linejoin:round;stroke-miterlimit:10;}
	.st109{fill:#EBCB00;stroke:#45413C;stroke-linecap:round;stroke-linejoin:round;stroke-miterlimit:10;}</style>
    <g id="g2600" fill="#5e4aa6">
        <circle id="circle2562" cx="-1084.9" cy="-1267.7" r="0"/>
        <circle id="circle2564" cx="14.693" cy="-2.1827" r="0" fill-rule="evenodd"/>
        <circle id="circle2566" cx="-1269.8" cy="-1283" r="0"/>
        <circle id="circle2568" cx="-170.22" cy="-17.475" r="0" fill-rule="evenodd"/>
        <circle id="circle2570" cx="-1230.6" cy="-1370.4" r="0"/>
        <circle id="circle2572" cx="-1122.3" cy="-1430.5" r="0"/>
        <g id="g2586" transform="matrix(3.7796 0 0 3.7796 -16.748 -103.66)" stroke-width=".26458">
            <circle id="circle2574" cx="-330.38" cy="-328.51" r="0"/>
            <circle id="circle2576" cx="-301.71" cy="-344.43" r="0"/>
            <circle id="circle2578" cx="-259.01" cy="-348.26" r="0"/>
            <circle id="circle2580" cx="31.886" cy="-13.442" r="0" fill-rule="evenodd"/>
            <circle id="circle2582" cx="-257.29" cy="-350.65" r="0"/>
            <circle id="circle2584" cx="33.611" cy="-15.826" r="0" fill-rule="evenodd"/>
        </g>
        <g id="g2594" transform="translate(-186.89 -74.879)">
            <circle id="circle2588" cx="-1248.7" cy="-1241.6" r="0"/>
            <circle id="circle2590" cx="-1140.3" cy="-1301.8" r="0"/>
            <circle id="circle2592" cx="-1158.1" cy="-1246" r="0"/>
        </g>
        <circle id="circle2596" cx="-1344.2" cy="-1342.6" r="0"/>
        <circle id="circle2598" cx="-244.64" cy="-77.062" r="0" fill-rule="evenodd"/>
    </g>
    <rect id="rect2544" x="4.5" y="4.5" width="55" height="55" ry="15" fill="#dcf0f9" stroke-linecap="round" stroke-width="2.7444"/>
    <rect id="rect10908" x="7.830986" y="7.830986" width="48.338028" height="48.338028" ry="13.183099" fill="url(#linearGradient14605)" stroke-linecap="round" stroke-width="2.41198"/>
    <g id="g2005" transform="translate(-116.77612,-68.588548)" fill="#f6fbfd">
        <path id="path960" d="m132.04337 77.743015c-2e-3 9.29e-4 -5e-3 0.0028-7e-3 0.0037-0.82315 0.398603-1.59857 0.879399-2.31487 1.432497-0.2364 0.182551-0.46491 0.374062-0.6881 0.571904-9e-3 0.0074-0.0168 0.0159-0.0254 0.02361-0.62361 0.555701-1.19124 1.171397-1.69938 1.835553-0.0732 0.09595-0.14551 0.192478-0.21606 0.290493-0.12435 0.172148-0.24705 0.346397-0.36311 0.5247-0.12759 0.196735-0.24775 0.398928-0.36494 0.602775-0.10463 0.181351-0.20529 0.365203-0.30138 0.551936-0.11727 0.228751-0.23001 0.459016-0.33407 0.695371-0.0609 0.137754-0.11804 0.277367-0.1743 0.417585-0.0939 0.234954-0.18088 0.473848-0.26144 0.715335-0.0409 0.122276-0.0842 0.242869-0.12164 0.366748-0.10641 0.35347-0.19899 0.712961-0.27597 1.078454-0.0198 0.09349-0.0349 0.189006-0.0526 0.283231-0.0572 0.304217-0.10377 0.612787-0.1398 0.924131-0.0172 0.147987-0.0368 0.295326-0.049 0.444817-6e-3 0.07444-0.0115 0.148523-0.0163 0.223317-0.0188 0.288791-0.0309 0.579521-0.0309 0.873294v21.972164c0 0.27704 0.0114 0.55358 0.0272 0.82972 8e-3 0.13152 0.019 0.26174 0.0309 0.39216 6e-3 0.0661 0.0135 0.13196 0.02 0.1979 0.70471 6.62992 6.28192 11.76315 13.10486 11.76315h0.80612v-47.014472zm2.12604 10.158179c0.58447 0 1.0603 0.486735 1.0603 1.071193-2e-3 0.583251-0.47597 1.062114-1.0603 1.062114l-5.13264-0.0036c-0.58446 0-1.06393-0.476585-1.06393-1.062115 0-0.585532 0.47947-1.062115 1.06393-1.062114zm0 22.832746c0.58447 0 1.0603 0.48673 1.0603 1.07119-2e-3 0.58325-0.47597 1.06212-1.0603 1.06212l-5.13264-4e-3c-0.58446 0-1.06393-0.47659-1.06393-1.06212s0.47947-1.06211 1.06393-1.06211z" filter="url(#filter1633)"/>
        <path id="path962" d="m139.96475 83.807057v40.950433h8.24455v-40.950433zm6.57785 3.028391c0.55858 0 1.01309 0.486733 1.01309 1.071193-2e-3 0.583251-0.45464 1.062115-1.01309 1.062115l-4.9057-0.0036c-0.55858 0-1.01673-0.476583-1.01673-1.062114s0.45815-1.062115 1.01673-1.062115zm0 32.068602c0.55858 0 1.01309 0.48674 1.01309 1.07119-2e-3 0.58326-0.45464 1.06212-1.01309 1.06212l-4.9057-4e-3c-0.55858 0-1.01673-0.47659-1.01673-1.06212s0.45815-1.0621 1.01673-1.0621z" filter="url(#filter1621)"/>
        <path id="path964" d="m149.89961 77.743015v47.014475h3.90713v-33.521074c-0.0706-0.276642-0.0746-0.564811 0-0.838798v-12.654603zm3.02657 2.372969c0.24418 0 0.443 0.486727 0.443 1.071189-9.3e-4 0.583255-0.19887 1.062117-0.443 1.062117l-2.1442-0.0037c-0.24418 0-0.44482-0.476595-0.44482-1.062108 0-0.585531 0.20064-1.062116 0.44482-1.062116zm0 40.020846c0.24418 0 0.443 0.48674 0.443 1.0712-9.3e-4 0.58325-0.19887 1.06211-0.443 1.06211l-2.1442-4e-3c-0.24418 0-0.44482-0.47659-0.44482-1.06211 0-0.58553 0.20064-1.06212 0.44482-1.06212z" filter="url(#filter1609)"/>
        <path id="path966" d="m155.49764 100.20978v24.54847h4.2648c1.59072 0 3.10758-0.2925 4.51717-0.80429z" filter="url(#filter1597)"/>
        <path id="path968" d="m161.41765 90.034501-7.08621 2.180513 11.49444 31.066406c4e-3 -2e-3 7e-3 -4e-3 0.0109-6e-3 0.14222-0.0737 0.28216-0.15009 0.42121-0.22877 0.20855-0.11796 0.41246-0.2434 0.61367-0.3722 0.18842-0.12072 0.37399-0.24591 0.55557-0.37583 0.13769-0.0984 0.27304-0.1997 0.40669-0.3032 0.19354-0.15011 0.38365-0.30427 0.56827-0.46478 0.0252-0.0219 0.0494-0.0451 0.0744-0.0672 0.11645-0.10261 0.23225-0.20566 0.34496-0.31229 0.21917-0.20775 0.42925-0.42397 0.63364-0.64634 0.036-0.0391 0.0716-0.0785 0.10712-0.11801 0.55041-0.61356 1.04539-1.27969 1.47425-1.98988 7e-3 -0.0116 0.0148-0.0229 0.0218-0.0345 5e-3 -8e-3 0.01-0.017 0.0145-0.0254 0.17318-0.29024 0.33543-0.58715 0.48658-0.89145zm0.15614 2.848647c0.4343 0.01053 0.84142 0.313914 0.98042 0.767991 0.16867 0.558335-0.12325 1.14921-0.65724 1.312664l-4.69147 1.432494c-0.53411 0.163492-1.11223-0.159081-1.28361-0.71897s0.12675-1.149172 0.66087-1.312665l4.68965-1.441571c0.10014-0.03066 0.20116-0.04237 0.30138-0.03994z" filter="url(#filter1585)"/>
    </g>
    <g id="g2017" transform="translate(-62.104998,-18.692779)" fill="#f6fbfd" filter="url(#filter2061)">
        <path id="path2007" d="m77.372428 27.847244c-0.0024 9.29e-4 -0.0048 0.0028-0.0073 0.0037-0.82315 0.398603-1.598572 0.879399-2.314865 1.432497-0.236401 0.182551-0.464913 0.374062-0.688105 0.571904-0.0086 0.0074-0.01678 0.0159-0.02541 0.02361-0.623608 0.555701-1.191242 1.171397-1.699383 1.835553-0.07316 0.09595-0.145505 0.192478-0.216055 0.290493-0.124351 0.172148-0.247049 0.346397-0.363116 0.5247-0.127588 0.196735-0.247749 0.398928-0.364931 0.602775-0.104637 0.181351-0.205297 0.365203-0.301387 0.551936-0.117269 0.228751-0.230011 0.459016-0.334067 0.695371-0.06089 0.137754-0.118043 0.277367-0.174296 0.417585-0.09388 0.234954-0.180887 0.473848-0.261444 0.715335-0.04094 0.122276-0.08422 0.242869-0.121643 0.366748-0.106409 0.35347-0.198989 0.712961-0.275968 1.078454-0.01975 0.09349-0.03489 0.189006-0.05265 0.283231-0.05717 0.304217-0.103773 0.612787-0.1398 0.924131-0.01717 0.147987-0.03677 0.295326-0.04902 0.444817-6e-3 0.07444-0.01149 0.148523-0.01634 0.223317-0.0188 0.288791-0.03086 0.579521-0.03086 0.873294v21.972161c0 0.277045 0.01141 0.553585 0.02724 0.829721 0.0081 0.131518 0.01897 0.261741 0.03086 0.392165 0.0056 0.06605 0.01353 0.131962 0.01997 0.197899 0.704706 6.629915 6.281923 11.763153 13.104864 11.763153h0.806117v-47.014477zm2.126045 10.158179c0.584461 0 1.060299 0.486735 1.060299 1.071193-0.0022 0.583251-0.475972 1.062114-1.060299 1.062114l-5.132647-0.0036c-0.58446 0-1.06393-0.476585-1.06393-1.062115 0-0.585532 0.47947-1.062115 1.06393-1.062114zm0 22.832746c0.584461 0 1.060299 0.486734 1.060299 1.071193-0.0022 0.583252-0.475972 1.062115-1.060299 1.062115l-5.132647-0.0036c-0.584461 0-1.06393-0.476584-1.06393-1.062115 0-0.585533 0.479469-1.062116 1.06393-1.062115z"/>
        <path id="path2009" d="m85.293808 33.911286v40.950435h8.244553v-40.950435zm6.57785 3.028391c0.558579 0 1.013094 0.486733 1.013094 1.071193-0.0021 0.583251-0.454643 1.062115-1.013094 1.062115l-4.905699-0.0036c-0.55858 0-1.016726-0.476583-1.016726-1.062114s0.458146-1.062115 1.016726-1.062115zm0 32.068606c0.558579 0 1.013094 0.486736 1.013094 1.07119-0.0021 0.583254-0.454643 1.062116-1.013094 1.062116l-4.905699-0.0037c-0.55858 0-1.016726-0.476585-1.016726-1.062117 0-0.585531 0.458146-1.062107 1.016726-1.062107z"/>
        <path id="path2011" d="m95.228667 27.847244v47.014477h3.90713v-33.521076c-0.07064-0.276642-0.0746-0.564811 0-0.838798v-12.654603zm3.026574 2.372969c0.244181 0 0.443001 0.486727 0.443001 1.071189-9.29e-4 0.583255-0.198876 1.062117-0.443001 1.062117l-2.144202-0.0037c-0.244182 0-0.444816-0.476595-0.444817-1.062108 0-0.585531 0.200635-1.062116 0.444817-1.062116zm0 40.020848c0.244182 0 0.443001 0.486736 0.443001 1.071199-9.29e-4 0.583254-0.198875 1.062107-0.443001 1.062107l-2.144202-0.0037c-0.244182 0-0.444816-0.476585-0.444817-1.062108 0-0.585531 0.200635-1.062116 0.444817-1.062116z"/>
        <path id="path2013" d="m100.8267 50.314013v24.54847h4.2648c1.59072 0 3.10758-0.292501 4.51717-0.804298z"/>
        <path id="path2015" d="m106.74671 40.13873-7.086209 2.180513 11.494439 31.066402c4e-3 -0.0019 7e-3 -0.0037 0.0109-0.0056 0.14222-0.07372 0.28216-0.15009 0.42121-0.22877 0.20855-0.117954 0.41246-0.243391 0.61367-0.372193 0.18842-0.120724 0.37399-0.24591 0.55557-0.375828 0.13769-0.09839 0.27304-0.199701 0.40669-0.3032 0.19354-0.150118 0.38365-0.304279 0.56827-0.464789 0.0252-0.02194 0.0494-0.04509 0.0744-0.06721 0.11645-0.102606 0.23225-0.205659 0.34496-0.312282 0.21917-0.207751 0.42925-0.423971 0.63364-0.646344 0.036-0.03914 0.0716-0.07846 0.10712-0.11801 0.55041-0.613559 1.04539-1.279694 1.47425-1.989882 7e-3 -0.01162 0.0148-0.02287 0.0218-0.03449 5e-3 -0.0084 0.01-0.01701 0.0145-0.02538 0.17318-0.290241 0.33543-0.587149 0.48658-0.891446zm0.15614 2.848647c0.4343 0.01053 0.84142 0.313914 0.98042 0.767991 0.16867 0.558335-0.12325 1.14921-0.65724 1.312664l-4.69147 1.432494c-0.53411 0.163492-1.11223-0.159081-1.28361-0.71897s0.12675-1.149172 0.66087-1.312665l4.68965-1.441571c0.10014-0.03066 0.20116-0.04237 0.30138-0.03994z"/>
    </g>
    <rect id="rect9752" x="7.830986" y="7.830986" width="48.338028" height="48.338028" ry="13.183099" fill="url(#linearGradient2126)" stroke-linecap="round" stroke-width="2.41198"/>
    <rect id="rect4204" transform="matrix(.92957747 0 0 .92957747 2.2535211 2.2535211)" x="6" y="6" width="52" height="52" ry="14.181818" fill="#d39641" fill-rule="evenodd" filter="url(#filter9387)" stroke-linecap="round" stroke-width="2.59471"/>
    <g id="g13867" transform="matrix(1.372042,0,0,1.372042,-11.905343,-11.905344)" stroke-width="1.61111">
        <path id="path12479" d="m44.888891 29.605122h-0.563889a5.6147222 5.6147222 0 0 0-9.360556-1.240556 12.043056 12.043056 0 0 0-5.928888 0 5.6147222 5.6147222 0 0 0-9.360556 1.240556h-0.563889a1.6111111 1.6111111 0 0 0 0 3.222222h0.06444a5.6388889 5.6388889 0 0 0 11.213333-0.805556 4.5562222 4.5562222 0 0 0-0.04833-0.660555 9.57 9.57 0 0 1 3.318888 0 4.5562222 4.5562222 0 0 0-0.04833 0.660555 5.6388889 5.6388889 0 0 0 11.213333 0.805556h0.06444a1.6111111 1.6111111 0 0 0 0-3.222222zm-20.138889 4.833333a2.4166667 2.4166667 0 1 1 2.416667-2.416667 2.4166667 2.4166667 0 0 1-2.416667 2.416667zm14.5 0a2.4166667 2.4166667 0 1 1 2.416667-2.416667 2.4166667 2.4166667 0 0 1-2.416667 2.416667z" fill="#f6fbfd"/>
        <path id="path12488" d="m44.888891 29.605122h-0.563889a5.6147222 5.6147222 0 0 0-9.360556-1.240556 12.043056 12.043056 0 0 0-5.928888 0 5.6147222 5.6147222 0 0 0-9.360556 1.240556h-0.563889a1.6111111 1.6111111 0 0 0 0 3.222221h0.06444a5.6388889 5.6388889 0 0 0 11.213333-0.805555 4.5562222 4.5562222 0 0 0-0.04833-0.660555 9.57 9.57 0 0 1 3.318888 0 4.5562222 4.5562222 0 0 0-0.04833 0.660555 5.6388889 5.6388889 0 0 0 11.213333 0.805555h0.06444a1.6111111 1.6111111 0 0 0 0-3.222221zm-20.138889 4.833332a2.4166667 2.4166667 0 1 1 2.416667-2.416666 2.4166667 2.4166667 0 0 1-2.416667 2.416666zm14.5 0a2.4166667 2.4166667 0 1 1 2.416667-2.416666 2.4166667 2.4166667 0 0 1-2.416667 2.416666z" fill="#494c4e" filter="url(#filter12512)"/>
    </g>
</svg>
