<svg id="svg290" version="1.1" viewBox="0 0 64 64" xmlns="http://www.w3.org/2000/svg">
  <defs id="defs278">
    <style id="style266" type="text/css"/>
    <style id="style268" type="text/css"/>
    <filter id="filter1057" x="-.026999999" y="-.026999999" width="1.054" height="1.054" color-interpolation-filters="sRGB">
      <feGaussianBlur id="feGaussianBlur270" stdDeviation="0.61875"/>
    </filter>
    <linearGradient id="linearGradient1053" x1="-127" x2="-72" y1="60" y2="5" gradientTransform="translate(131.5 -.51)" gradientUnits="userSpaceOnUse">
      <stop id="stop273" stop-color="#1a0000" offset="0"/>
      <stop id="stop275" stop-color="#560404" offset="1"/>
    </linearGradient>
  </defs>
  <rect id="rect280" x="4.5" y="4.5" width="55" height="55" ry="15" fill="#141414" filter="url(#filter1057)" opacity=".3" stroke-linecap="round" stroke-width="2.7444"/>
  <rect id="rect282" x="4.5" y="4.5" width="55" height="55" ry="15" fill="url(#linearGradient1053)" stroke-linecap="round" stroke-width="2.7444"/>
  <circle id="circle284" cx="-1326.3" cy="-1241.6" r="0" fill="#5e4aa6"/>
  <circle id="circle286" cx="-226.72" cy="23.855" r="0" fill="#5e4aa6" fill-rule="evenodd"/>
  <path id="path564" d="m139.08561 159.65822c1.12265-2.35727 1.10183-2.38918-0.36454-0.55887-0.85535 1.06762-1.55517 2.38012-1.55517 2.91667 0 1.27054 0.4619 0.70323 1.91971-2.3578z"/>
  <path id="path562" d="m136.84901 164.47072c-0.31922-0.79773-0.55618-0.56078-0.60416 0.60417-0.0434 1.05416 0.19292 1.64479 0.52522 1.3125 0.33229-0.33229 0.36781-1.19479 0.0789-1.91667z"/>
  <path id="path560" d="m136.84901 171.47072c-0.31922-0.79773-0.55618-0.56078-0.60416 0.60417-0.0434 1.05416 0.19292 1.64479 0.52522 1.3125 0.33229-0.33229 0.36781-1.19479 0.0789-1.91667z"/>
  <path id="path558" d="m138.98202 177.15399c-0.62755-1.37732-1.32936-2.31586-1.55958-2.08564-0.46705 0.46705 1.56047 4.58987 2.2572 4.58987 0.24386 0-0.0701-1.1269-0.69762-2.50423z"/>
  <g id="g2406" transform="matrix(.87500001 0 0 .87500001 3.9999992 3.9999995)">
    <g id="g2400" fill="#e5e5e5">
      <path id="path446" d="m16.947859 55.888549c0-0.0613 1.077733-1.489822 2.394966-3.174497l2.394965-3.063044 1.466107 0.604575c5.522488 2.277291 12.028971 2.277337 17.624734 1.26e-4l1.46256-0.595193 2.380388 3.054787c1.309213 1.680133 2.380387 3.106515 2.380387 3.169742 0 0.063225-6.773424 0.114955-15.052054 0.114955-8.278628 0-15.052053-0.050155-15.052053-0.111451z" stroke-width=".206193"/>
      <path id="circle549" d="M 32,8.0000003 A 20.825446,20.825446 0 0 0 11.174555,28.825445 20.825446,20.825446 0 0 0 32,49.65089 20.825446,20.825446 0 0 0 52.825446,28.825445 20.825446,20.825446 0 0 0 32,8.0000003 Z m 0,8.6600857 a 12.165359,12.165359 0 0 1 3.761806,0.600455 4.6943371,4.6943371 0 0 0 -0.601664,2.275368 4.6943371,4.6943371 0 0 0 4.694505,4.694102 4.6943371,4.6943371 0 0 0 2.923342,-1.033783 12.165359,12.165359 0 0 1 1.387371,5.629217 A 12.165359,12.165359 0 0 1 32,40.990804 12.165359,12.165359 0 0 1 19.834641,28.825445 12.165359,12.165359 0 0 1 32,16.660086 Z" fill-rule="evenodd" stroke-width=".433112"/>
    </g>
    <circle id="circle568" cx="39.854519" cy="19.535723" r="2.7874384" fill="#ff1e1f" fill-rule="evenodd" opacity=".858914" stroke-width=".122434"/>
  </g>
</svg>
