<svg id="svg27" width="64" height="64" version="1.1" viewBox="0 0 16.933 16.933" xmlns="http://www.w3.org/2000/svg" xmlns:xlink="http://www.w3.org/1999/xlink">
    <defs id="defs17">
        <radialGradient id="radialGradient2319" cx="58.953751" cy="-1136.1257" r="225" gradientTransform="matrix(.03633236 0 0 .03169495 1.9814462 37.998485)" gradientUnits="userSpaceOnUse">
            <stop id="stop1961" stop-color="#62a0ea" offset="0"/>
            <stop id="stop1963" stop-color="#1a5fb4" offset="1"/>
        </radialGradient>
        <radialGradient id="radialGradient2282" cx="312.7467" cy="-173.6787" r="225" gradientTransform="matrix(.07853351 0 0 .05890067 -14.015767 25.310744)" gradientUnits="userSpaceOnUse">
            <stop id="stop1955" stop-color="#ed333b" offset="0"/>
            <stop id="stop1957" stop-color="#1a5fb4" stop-opacity="0" offset="1"/>
        </radialGradient>
        <filter id="filter1228" x="-.027" y="-.026999988" width="1.054" height="1.054" color-interpolation-filters="sRGB">
            <feGaussianBlur id="feGaussianBlur1230" stdDeviation="0.16370771"/>
        </filter>
    </defs>
    <path id="path1216" d="m5.1592729 1.1905986c-0.685012 0-1.328538 0.1718302-1.889769 0.474897v0.8479936h-1.03971v-0.036173c-0.64569 0.7053368-1.039192 1.6459248-1.039192 2.681954v6.6144538c0 1.036029 0.393502 1.976616 1.039192 2.681954v-0.03617h1.03971v0.826806 0.02119c0.561231 0.303068 1.204757 0.474897 1.889769 0.474897h6.6144541c0.685012 0 1.328538-0.171829 1.88977-0.474897v-0.02119-0.826806h1.039709v0.03617c0.645689-0.705338 1.039192-1.645925 1.039192-2.681954v-6.6144536c0-1.0360292-0.393503-1.9766172-1.039192-2.681954v0.036173h-1.039709v-0.8479938c-0.561232-0.3030668-1.204758-0.474897-1.88977-0.474897zm-2.929479 2.6457812h1.03971v1.3228906h-1.03971zm11.433703 0h1.039709v1.3228906h-1.039709zm-11.433703 2.6457813h1.03971v1.3228906h-1.03971zm11.433703 0h1.039709v1.3228906h-1.039709zm-11.433703 2.6457812h1.03971v1.3228907h-1.03971zm11.433703 0h1.039709v1.3228907h-1.039709zm-11.433703 2.6457817h1.03971v1.32289h-1.03971zm11.433703 0h1.039709v1.32289h-1.039709z" enable-background="new" fill="#141414" filter="url(#filter1228)" opacity=".3" style="paint-order:normal"/>
    <g fill="#5e4aa6">
        <g id="g30" transform="scale(.26457812)">
            <circle id="circle24" cx="-1248.7" cy="-1241.6" r="0"/>
            <circle id="circle26" cx="-1140.3" cy="-1301.8" r="0"/>
            <circle id="circle28" cx="-1158.1" cy="-1246" r="0"/>
        </g>
        <circle id="circle36" cx="-306.19626" cy="-335.40567" r="0" stroke-width=".264578"/>
        <circle id="circle38" cx="-15.280974" cy="-.57754755" r="0" fill-rule="evenodd" stroke-width=".264578"/>
    </g>
    <g>
        <path id="rect1792-1-3" d="m5.1592734 1.1906016c-0.0619408 0-0.1232507 0.0018711-0.1844812 0.0046507-0.0171042 7.782e-4 -0.0341128 0.0021079-0.0511587 0.0031006-0.050888 0.0029571-0.1015816 0.0065282-0.1519257 0.0113686-0.0086022 8.27e-4 -0.0172519 0.0017023-0.0258377 0.0025837-0.0564352 0.005794-0.1127668 0.0125548-0.1684618 0.0206702-7.026e-4 1.026e-4 -0.0013646 4.138e-4 -0.0020671 5.168e-4 -0.0311654 0.0045687-0.0620941 0.0097025-0.0930157 0.0149858-0.0241772 0.004123-0.0483223 0.0083635-0.0723456 0.0129189-0.0300554 0.0057082-0.0601079 0.01171-0.0899152 0.0180864-0.0388329 0.0082983-0.0773572 0.0174524-0.1157529 0.0268712-0.0154446 0.0037908-0.0311361 0.0068824-0.0465079 0.0108518-0.0019075 4.924e-4 -0.003778 0.0010552-0.0056843 0.0015503-0.0502294 0.0130462-0.0999185 0.0274392-0.149342 0.0423738-0.0022162 7.567e-4 -0.004503 0.0013076-0.0067178 0.002067-0.027123 0.0082488-0.0540612 0.0174523-0.0811304 0.0263545-0.0164414 0.0054071-0.0330737 0.010825-0.0496084 0.0165361-0.1942308 0.067088-0.3993182 0.1575994-0.6815987 0.3085023-0.2487103 0.1424654-0.4810625 0.3101651-0.6919338 0.5012515-0.0012592 0.0011411-0.0023595 0.0024746-0.0036173 0.0036173-0.0250101 0.0234107-0.0500521 0.0468852-0.0749293 0.071312-0.1753108 0.1721366-0.3463067 0.3691471-0.500218 0.5808317-0.0098224 0.0139435-0.019809 0.0277811-0.029455 0.0418571-0.0143641 0.0209511-0.0284051 0.0423204-0.0423739 0.0635608-0.0203195 0.0309134-0.0404739 0.0620198-0.0599434 0.0935325-0.0093213 0.0150799-0.0182643 0.0302599-0.027388 0.0454743-0.0195163 0.0325582-0.0382431 0.0655385-0.056843 0.0987001-0.0109355 0.0194883-0.0224582 0.0387011-0.0330722 0.0583932-0.0068853 0.0127806-0.0134048 0.0258914-0.0201534 0.0387565-0.0194234 0.0370272-0.0385659 0.0744234-0.056843 0.1121357-0.0059877 0.01235-0.0117066 0.0247844-0.0175696 0.0372063-0.0195091 0.0413481-0.0382165 0.0829295-0.0563262 0.1250545-0.0074397 0.017299-0.0145037 0.0347656-0.0217037 0.0521922-0.0209611 0.0507533-0.0415644 0.101675-0.0604603 0.153476-0.0207599 0.0569113-0.0401901 0.1144841-0.0583932 0.1725958-0.0055301 0.0176462-0.0107291 0.0354728-0.0160194 0.0532257-0.0115767 0.0388677-0.0226592 0.0779386-0.0330722 0.1173032-0.0055455 0.0209545-0.0108081 0.0419529-0.0160194 0.063044-0.008628 0.0349327-0.0165867 0.0701214-0.0242874 0.1054179-0.0058269 0.0267028-0.0117637 0.0531925-0.0170529 0.0800969-0.0103034 0.052409-0.019674 0.1055022-0.0279048 0.1586435-0.0025196 0.0162681-0.004395 0.0327575-0.0067178 0.0490916-0.0068807 0.0484093-0.0129561 0.0972748-0.0180864 0.1462415-0.0011912 0.011371-0.0025215 0.0227056-0.0036172 0.0341057-0.0048568 0.0505144-0.0084079 0.1013806-0.0113686 0.1524425-9.673e-4 0.016703-0.0023386 0.0333659-0.0031006 0.0501252-0.0027951 0.0613998-0.0046507 0.1228837-0.0046507 0.1849979v6.6144536c0 0.063154 0.0017617 0.125683 0.0046507 0.188098 7.309e-4 0.015764 0.0021875 0.031311 0.0031006 0.047025 0.0029108 0.050201 0.0066248 0.100186 0.0113686 0.149858 0.0013053 0.013628 0.002692 0.027238 0.004134 0.040824 0.0045583 0.043075 0.0101049 0.086028 0.0160194 0.128672 0.0033927 0.02439 0.0059865 0.049136 0.0098183 0.073379 0.008403 0.053164 0.0174226 0.105702 0.0279047 0.158127 0.0049214 0.024613 0.0111637 0.048935 0.0165362 0.073379 0.0075809 0.034589 0.015299 0.069111 0.0237707 0.103351 0.0064003 0.025799 0.0132528 0.051401 0.0201534 0.076996 0.0074048 0.027535 0.0152776 0.054873 0.0232539 0.082164 0.00966 0.032972 0.0194875 0.066095 0.0299717 0.0987 0.0075595 0.023509 0.0157882 0.046449 0.0237707 0.069762 0.0087492 0.025609 0.0165843 0.051629 0.0258377 0.076996 0.0178029 0.048685 0.0372133 0.09693 0.056843 0.144691 0.016845 0.040986 0.0345479 0.081678 0.0527089 0.121954 0.004056 0.008995 0.0082813 0.017913 0.0124021 0.026871 0.017826 0.038756 0.035752 0.077173 0.054776 0.115237 0.0041671 0.008337 0.0086949 0.0165 0.0129188 0.024804 0.065431 0.128633 0.1374577 0.253593 0.2160033 0.373613 0.027215 0.041585 0.0550016 0.082511 0.0837141 0.122988 0.0058582 0.008262 0.0116499 0.016589 0.0175697 0.024804 0.01336 0.018143 0.0266494 0.036338 0.0403068 0.054259 0.00899 0.01203 0.0177512 0.024253 0.0268712 0.036173 0.031607 0.04126 0.0639968 0.08192 0.0971498 0.121954 0.031613 0.03813 0.0641528 0.07523 0.0971498 0.112135 0.01035 0.01158 0.0200045 0.02369 0.0304885 0.03514v-0.002067c0.0618995 0.067736 0.1260264 0.133307 0.1917157 0.196366 0.0319631 0.030683 0.0644556 0.060414 0.0971498 0.089915 0.0344979 0.031129 0.0691967 0.06171 0.1043844 0.091466 0.0029174 0.00242 0.0058602 0.004823 0.0087848 0.007234 0.4205655 0.346797 0.9147475 0.607191 1.4556964 0.757562 0.2863898 0.072118 0.526583 0.113089 0.7544611 0.132289 0.0204822 0.001609 0.0409233 0.003352 0.0614937 0.004651 0.0272933 0.00184 0.0545486 0.003427 0.0816472 0.004651 0.0578414 0.002478 0.1156732 0.00465 0.1741461 0.00465h6.6144536c0.058473 0 0.116304-0.002172 0.174146-0.00465 0.027098-0.001224 0.054354-0.002811 0.081647-0.004651 0.02057-0.001299 0.041011-0.003042 0.061494-0.004651 0.227878-0.0192 0.468064-0.060172 0.754461-0.132289 0.540949-0.150371 1.035131-0.410765 1.455696-0.757562 0.038604-0.031832 0.075818-0.065451 0.113169-0.0987 0.032695-0.029501 0.065187-0.059232 0.09715-0.089915 0.065689-0.063059 0.129816-0.12863 0.191716-0.196366v0.002067c0.01048-0.01145 0.020138-0.02356 0.030488-0.03514 0.033-0.0369 0.06554-0.074 0.09715-0.112135l5.17e-4 -5.17e-4c0.03478-0.04187 0.06872-0.08442 0.1018-0.127638 0.0075-0.0098 0.014324-0.020102 0.021704-0.029972 0.01366-0.017921 0.026949-0.036115 0.040307-0.054259 0.00592-0.008215 0.011711-0.016542 0.01757-0.024804 0.028712-0.040477 0.056499-0.081403 0.083714-0.122988 0.078545-0.12002 0.150572-0.24498 0.216003-0.373613 0.004216-0.0083 0.00876-0.01647 0.012919-0.024804 0.019024-0.038064 0.03695-0.076481 0.054776-0.115237 0.004829-0.010515 0.009729-0.020957 0.014469-0.031522 0.015815-0.035192 0.031696-0.070717 0.046508-0.106451 0.016592-0.040114 0.032236-0.080665 0.047541-0.121437 0.013846-0.036797 0.026497-0.073788 0.039273-0.111102 0.00713-0.02087 0.014913-0.0415 0.021704-0.062528 7.69e-4 -0.002376 0.001303-0.004856 0.002067-0.007234 0.010484-0.032605 0.020312-0.065728 0.029972-0.0987 0.007976-0.027291 0.015849-0.054629 0.023254-0.082164 0.0069-0.025595 0.013753-0.051197 0.020153-0.076996 0.008472-0.03424 0.01619-0.068762 0.023771-0.103351 0.005372-0.024444 0.011615-0.048766 0.016536-0.073379 2.37e-4 -0.00119 2.81e-4 -0.002427 5.17e-4 -0.003618 0.010198-0.051248 0.019176-0.102555 0.027388-0.154509 0.003832-0.024243 0.006425-0.048989 0.009818-0.073379 0.005915-0.042644 0.011461-0.085597 0.01602-0.128672 0.001442-0.013586 0.002828-0.027196 0.004134-0.040824 0.004743-0.049672 0.008457-0.099657 0.011368-0.149858 9.13e-4 -0.015714 0.00237-0.031261 0.003101-0.047025 0.002889-0.062415 0.00465-0.124944 0.00465-0.188098v-6.6144536c0-0.0648885-0.001601-0.1291586-0.00465-0.193266-1.79e-4 -0.0038157-3.28e-4 -0.0075561-5.17e-4 -0.0113686-4.89e-4 -0.0097108-0.001509-0.0192464-0.002067-0.0289382-0.04964-0.8619867-0.371649-1.6486904-0.882099-2.2752686-0.461217-0.492605-0.806342-0.7632759-1.115156-0.937392-0.187999-0.1059985-0.354506-0.1859055-0.515204-0.250109-0.015354-0.0059919-0.030543-0.0122804-0.045991-0.0180864-0.018791-0.0072024-0.037635-0.0138725-0.056326-0.0206702-0.046159-0.0165504-0.092581-0.0326653-0.139524-0.0475413-0.015955-0.0050667-0.032051-0.0101371-0.048058-0.0149859-0.046812-0.0141793-0.094054-0.0273042-0.141591-0.0397901-0.00782-0.0020543-0.015414-0.0047096-0.023253-0.0067178-0.001858-4.756e-4 -0.003826-5.604e-4 -0.005685-0.0010335-0.048194-0.0122677-0.096833-0.0236109-0.145724-0.0341058-0.001386-2.977e-4 -0.002749-7.372e-4 -0.004134-0.0010335-0.032904-0.0070336-0.066011-0.0129007-0.099217-0.0191199-0.024573-0.004596-0.049163-0.0092918-0.073896-0.0134356-0.028639-0.0048063-0.057451-0.0092415-0.086298-0.0134356-0.055559-0.0080593-0.11165-0.0154375-0.167945-0.0211869-0.006675-6.831e-4 -0.013468-9.001e-4 -0.020154-0.0015503-0.051365-0.0049854-0.103094-0.0088608-0.155026-0.0118853-0.018598-0.0010859-0.037142-0.0022701-0.055809-0.0031006-0.059876-0.0026572-0.119794-0.0046507-0.180347-0.0046507h-6.6144536zm-2.9294792 2.6457812h1.0397093v1.3228906h-1.0397093v-1.3228906zm11.433702 0h1.03971v1.3228906h-1.03971v-1.3228906zm-11.433702 2.6457813h1.0397093v1.3228906h-1.0397093v-1.3228906zm11.433702 0h1.03971v1.3228906h-1.03971v-1.3228906zm-11.433702 2.6457812h1.0397093v1.3228907h-1.0397093v-1.3228907zm11.433702 0h1.03971v1.3228907h-1.03971v-1.3228907zm-11.433702 2.6457817h1.0397093v1.32289h-1.0397093v-1.32289zm11.433702 0h1.03971v1.32289h-1.03971v-1.32289z" enable-background="new" fill="url(#radialGradient2319)" style="paint-order:normal"/>
        <path id="rect1794-0-6" d="m5.1592734 1.1906016c-0.0610738 0-0.1215138 0.0019479-0.1818974 0.0046507-0.0153629 6.882e-4 -0.030675 0.001206-0.0459911 0.0020671-0.0576833 0.0032398-0.1150947 0.0077792-0.1720792 0.0134356-0.0029284 2.907e-4 -0.0058583 7.365e-4 -0.0087848 0.0010335-0.0578408 0.0058698-0.1155314 0.0128794-0.1725959 0.0211869-0.0248028 0.0036158-0.0492467 0.0078166-0.0738958 0.0118853-0.0285342 0.0047035-0.0569427 0.0096813-0.0852645 0.0149859-0.0304906 0.0057173-0.0612295 0.0111651-0.0914654 0.0175697-5.261e-4 1.114e-4 -0.0010243 4.051e-4 -0.0015503 5.167e-4 -0.048403 0.010268-0.0964518 0.0215841-0.1441744 0.033589-0.0181747 0.0045735-0.0361871 0.0096481-0.0542592 0.0144691-0.4901244 0.1307376-0.9426432 0.3517009-1.3378765 0.645426-0.0066132 0.0049147-0.0130555 0.0100309-0.0196367 0.0149859-0.0290583 0.0218777-0.0573559 0.0445257-0.0857811 0.067178-0.0549133 0.0442381-0.1090928 0.0893254-0.1617441 0.1364231-0.1020106 0.0912506-0.1996218 0.1878135-0.2924828 0.2893823v-0.002067c-0.010648 0.011631-0.0204953 0.023898-0.0310053 0.035656-0.033078 0.037008-0.0654628 0.0744091-0.0971498 0.1126524-0.015756 0.019017-0.0311029 0.0385615-0.0465078 0.0578765-0.017442 0.021357-0.0346675 0.0428903-0.0516755 0.0645943-0.0101559 0.013292-0.0199797 0.0268828-0.0299717 0.0403068-0.0134527 0.0179467-0.0266341 0.0360942-0.0397901 0.0542592-0.0045401 0.0063237-0.0089319 0.0127682-0.0134356 0.0191199-0.0287124 0.0404768-0.0564992 0.0814021-0.0837141 0.1229875-0.0785454 0.1200197-0.1505724 0.2449798-0.2160033 0.3736132-0.0042239 0.0083041-0.0087517 0.0164663-0.0129188 0.0248042-0.019024 0.038064-0.03695 0.076481-0.054776 0.1152362-0.0041208 0.0089589-0.0083461 0.0178762-0.0124021 0.0268712-0.018161 0.0402764-0.0358639 0.0809686-0.0527089 0.121954-0.0191335 0.0465535-0.0378943 0.0936416-0.0552927 0.1410739-0.0097296 0.02659-0.0182128 0.053757-0.027388 0.0806136-0.0079825 0.0233129-0.0162112 0.0462527-0.0237707 0.0697618-0.0104842 0.0326051-0.0203117 0.0657276-0.0299717 0.0987001-0.0079763 0.0272911-0.0158491 0.054629-0.0232539 0.0821639-0.0069006 0.0255945-0.0137531 0.0511964-0.0201534 0.0769964-0.0084717 0.0342393-0.0161898 0.0687616-0.0237707 0.1033508-0.0053725 0.0244433-0.0116148 0.0487658-0.0165362 0.0733791-0.0104821 0.0524244-0.0195017 0.1049628-0.0279047 0.1581267-0.0038318 0.0242429-0.0064256 0.048989-0.0098183 0.0733791-0.0059145 0.0426439-0.0114611 0.0855972-0.0160194 0.1286718-0.001442 0.0135859-0.0028287 0.027196-0.004134 0.0408236-0.0047438 0.0496724-0.0084578 0.0996573-0.0113686 0.1498587-9.131e-4 0.0157137-0.0023697 0.0312608-0.0031006 0.0470246-0.002889 0.0624155-0.0046507 0.1249439-0.0046507 0.1880985v6.6144536c0 0.063154 0.0017617 0.125683 0.0046507 0.188098 7.309e-4 0.015764 0.0021875 0.031311 0.0031006 0.047025 0.0029108 0.050201 0.0066248 0.100186 0.0113686 0.149858 0.0013053 0.013628 0.002692 0.027238 0.004134 0.040824 0.0045583 0.043075 0.0101049 0.086028 0.0160194 0.128672 0.0033927 0.02439 0.0059865 0.049136 0.0098183 0.073379 0.008403 0.053164 0.0174226 0.105702 0.0279047 0.158127 0.0049214 0.024613 0.0111637 0.048935 0.0165362 0.073379 0.0075809 0.034589 0.015299 0.069111 0.0237707 0.103351 0.0064003 0.025799 0.0132528 0.051401 0.0201534 0.076996 0.0074048 0.027535 0.0152776 0.054873 0.0232539 0.082164 0.00966 0.032972 0.0194875 0.066095 0.0299717 0.0987 0.0075595 0.023509 0.0157882 0.046449 0.0237707 0.069762 0.0087492 0.025609 0.0165843 0.051629 0.0258377 0.076996 0.0178029 0.048685 0.0372133 0.09693 0.056843 0.144691 0.016845 0.040986 0.0345479 0.081678 0.0527089 0.121954 0.004056 0.008995 0.0082813 0.017913 0.0124021 0.026871 0.017826 0.038756 0.035752 0.077173 0.054776 0.115237 0.0041671 0.008337 0.0086949 0.0165 0.0129188 0.024804 0.065431 0.128633 0.1374577 0.253593 0.2160033 0.373613 0.027215 0.041585 0.0550016 0.082511 0.0837141 0.122988 0.0058582 0.008262 0.0116499 0.016589 0.0175697 0.024804 0.01336 0.018143 0.0266494 0.036338 0.0403068 0.054259 0.00899 0.01203 0.0177512 0.024253 0.0268712 0.036173 0.031607 0.04126 0.0639968 0.08192 0.0971498 0.121954 0.031613 0.03813 0.0641528 0.07523 0.0971498 0.112135 0.01035 0.01158 0.0200045 0.02369 0.0304885 0.03514v-0.002067c0.0618995 0.067736 0.1260264 0.133307 0.1917157 0.196366 0.0319631 0.030683 0.0644556 0.060414 0.0971498 0.089915 0.0344979 0.031129 0.0691967 0.06171 0.1043844 0.091466 0.0029174 0.00242 0.0058602 0.004823 0.0087848 0.007234 0.4205655 0.346797 0.9147475 0.607191 1.4556964 0.757562 0.2863891 0.072118 0.5265831 0.113089 0.7544611 0.132289 0.0204822 0.001609 0.0409233 0.003352 0.0614937 0.004651 0.0272933 0.00184 0.0545486 0.003427 0.0816472 0.004651 0.0578414 0.002478 0.1156732 0.00465 0.1741461 0.00465h6.6144536c0.058473 0 0.116304-0.002172 0.174146-0.00465 0.027098-0.001224 0.054354-0.002811 0.081647-0.004651 0.02057-0.001299 0.041011-0.003042 0.061494-0.004651 0.227615-0.019178 0.467469-0.060326 0.753427-0.132289 0.541325-0.150329 1.035916-0.41056 1.45673-0.757562 0.038604-0.031832 0.075818-0.065451 0.113169-0.0987 0.032695-0.029501 0.065187-0.059232 0.09715-0.089915 0.065689-0.063059 0.129816-0.12863 0.191716-0.196366v0.002067c0.01048-0.01145 0.020138-0.02356 0.030488-0.03514 0.033-0.0369 0.06554-0.074 0.09715-0.112135l5.17e-4 -5.17e-4c0.03478-0.04187 0.06872-0.08442 0.1018-0.127638 0.0075-0.0098 0.014324-0.020102 0.021704-0.029972 0.01366-0.017921 0.026949-0.036115 0.040307-0.054259 0.00592-0.008215 0.011711-0.016542 0.01757-0.024804 0.028712-0.040477 0.056499-0.081403 0.083714-0.122988 0.078545-0.12002 0.150572-0.24498 0.216003-0.373613 0.004216-0.0083 0.00876-0.01647 0.012919-0.024804 0.019024-0.038064 0.03695-0.076481 0.054776-0.115237 0.00412-0.008972 0.008346-0.017862 0.012402-0.026871 0.018161-0.040276 0.035864-0.080968 0.052709-0.121954 0.029898-0.072745 0.057046-0.146822 0.08268-0.221687 0.00713-0.02087 0.014913-0.0415 0.021704-0.062528 7.69e-4 -0.002376 0.001303-0.004856 0.002067-0.007234 0.010484-0.032605 0.020312-0.065728 0.029972-0.0987 0.007976-0.027291 0.015849-0.054629 0.023254-0.082164 0.0069-0.025595 0.013753-0.051197 0.020153-0.076996 0.008472-0.03424 0.01619-0.068762 0.023771-0.103351 0.005372-0.024444 0.011615-0.048766 0.016536-0.073379 2.37e-4 -0.00119 2.81e-4 -0.002427 5.17e-4 -0.003618 0.010198-0.051248 0.019176-0.102555 0.027388-0.154509 0.003832-0.024243 0.006425-0.048989 0.009818-0.073379 0.005915-0.042644 0.011461-0.085597 0.01602-0.128672 0.001442-0.013586 0.002828-0.027196 0.004134-0.040824 0.004743-0.049672 0.008457-0.099657 0.011368-0.149858 9.13e-4 -0.015714 0.00237-0.031261 0.003101-0.047025 0.002889-0.062415 0.00465-0.124944 0.00465-0.188098v-6.6144536c0-0.0612472-0.001932-0.1218611-0.00465-0.1824142-8.62e-4 -0.0191787-0.00197-0.0382548-0.003101-0.0573597-0.002968-0.0501856-0.006569-0.1002031-0.011368-0.1498587-8.83e-4 -0.009118-0.00164-0.0182885-0.002584-0.027388-0.005416-0.0522865-0.012227-0.1044083-0.019637-0.1560597-0.001977-0.0137544-0.003567-0.0276329-0.005684-0.0413403-0.001447-0.0093694-0.003139-0.0185576-0.004651-0.0279048-0.0071-0.0439848-0.01473-0.0877762-0.023254-0.1312555-0.005956-0.0303118-0.012997-0.0603767-0.019637-0.090432-0.006171-0.0279949-0.012364-0.0559483-0.019119-0.0837142-0.006523-0.0267545-0.013095-0.0535615-0.020154-0.0800969-0.008934-0.0336429-0.018636-0.06697-0.028421-0.1002503-0.00671-0.0227765-0.01305-0.0456099-0.020154-0.0682115-2.12e-4 -6.772e-4 -3.04e-4 -0.0013901-5.17e-4 -0.002067-0.015363-0.0487897-0.03192-0.0972632-0.049091-0.145208-0.010726-0.0299469-0.022688-0.0592767-0.034106-0.0888817-0.00871-0.0226191-0.017245-0.0452802-0.026354-0.0676948-0.012432-0.0305437-0.025076-0.0607943-0.03824-0.0909487-0.00936-0.0214726-0.018695-0.0428071-0.028422-0.0640775-0.013825-0.0301956-0.02782-0.0606532-0.042374-0.090432-0.040619-0.0831136-0.084614-0.1642055-0.130738-0.2439079-0.002547-0.0044045-0.004671-0.009042-0.007235-0.0134356-0.00145-0.0024842-0.003195-0.0047539-0.004651-0.0072346-0.020885-0.0355935-0.042126-0.0705495-0.064077-0.1054179-0.002342-0.0037232-0.004364-0.0076537-0.006718-0.0113685-0.003198-0.0050417-0.006599-0.0099598-0.009818-0.0149859-0.022923-0.0357854-0.046251-0.0714674-0.070279-0.1064514-0.059052-0.0860181-0.12106-0.1697187-0.186548-0.2506257-0.013366-0.0159056-0.026182-0.0323553-0.03979-0.0480582-0.02023-0.0236589-0.040734-0.0470856-0.061494-0.0702785-0.01886-0.021514-0.037006-0.0434983-0.056326-0.0645943v0.0036173c-0.301546-0.3201624-0.652572-0.5897279-1.03971-0.7983852v-0.0170529c-0.001222-6.599e-4 -0.002394-0.0014083-0.003617-0.002067-0.049025-0.026407-0.099093-0.0515846-0.149342-0.0759629-0.008563-0.0041535-0.01724-0.0083084-0.025837-0.012402-0.053864-0.0256504-0.10811-0.0501152-0.163295-0.0733791-0.058537-0.0246771-0.117815-0.0478461-0.177763-0.0697618-0.001385-5.062e-4 -0.002749-0.0010456-0.004134-0.0015503-0.056106-0.02044-0.11274-0.0399207-0.170012-0.0578765-0.012194-0.003823-0.024445-0.0071431-0.03669-0.0108518-0.045139-0.0136728-0.090609-0.0266578-0.136423-0.0387566-0.00948-0.0025036-0.018913-0.0053158-0.028421-0.0077513-0.00101-2.586e-4 -0.002091-2.589e-4 -0.003101-5.167e-4 -0.005817-0.0014849-0.011743-0.0026748-0.01757-0.0041341-0.048229-0.0120773-0.096801-0.0232854-0.145724-0.033589-0.016513-0.0034784-0.03302-0.0070614-0.049609-0.0103351-0.053377-0.0105306-0.107091-0.0200409-0.161227-0.0284215-0.010636-0.0016466-0.021374-0.0030882-0.032039-0.0046507-0.054839-0.0080347-0.110319-0.0148862-0.165878-0.0206702-0.006392-6.65e-4 -0.012719-0.0014322-0.01912-0.002067-0.06125-0.0060798-0.122942-0.0106666-0.184998-0.0139524-0.009142-4.837e-4 -0.018229-0.001128-0.027388-0.0015503-0.062246-0.0028733-0.1246-0.0046507-0.187581-0.0046507h-6.6144536zm-2.9294792 2.6457812h1.0397093v1.3228906h-1.0397093v-1.3228906zm11.433702 0h1.03971v1.3228906h-1.03971v-1.3228906zm-11.433702 2.6457813h1.0397093v1.3228906h-1.0397093v-1.3228906zm11.433702 0h1.03971v1.3228906h-1.03971v-1.3228906zm-11.433702 2.6457812h1.0397093v1.3228907h-1.0397093v-1.3228907zm11.433702 0h1.03971v1.3228907h-1.03971v-1.3228907zm-11.433702 2.6457817h1.0397093v1.32289h-1.0397093v-1.32289zm11.433702 0h1.03971v1.32289h-1.03971v-1.32289z" enable-background="new" fill="url(#radialGradient2282)" style="paint-order:normal"/>
        <path id="path1927" d="m2.2297942 3.3402988v0.496084h1.0397093v-0.496084zm11.433702 0v0.496084h1.03971v-0.496084zm-11.433702 2.6457813v0.496084h1.0397093v-0.496084zm11.433702 0v0.496084h1.03971v-0.496084zm-11.433702 2.6457812v0.496084h1.0397093v-0.496084zm11.433702 0v0.496084h1.03971v-0.496084zm-11.433702 2.6457817v0.496084h1.0397093v-0.496084zm11.433702 0v0.496084h1.03971v-0.496084zm-10.462098 3.95196 0.068106 0.0379c0.5612321 0.303068 1.2047563 0.474897 1.8897699 0.474897h6.6144536c0.685013 0 1.328537-0.171829 1.889769-0.474897l0.05075-0.02829z" enable-background="new" opacity=".25" style="paint-order:normal"/>
    </g>
    <g id="g532" transform="matrix(.49999998 0 0 .49999998 -9.2257376 2.2489143)">
        <path id="path2574-9" d="m35.384475 4.7624062a5.2915624 5.2915624 0 0 0-5.291562 5.2915628 5.2915624 5.2915624 0 0 0 5.291562 5.291562 5.2915624 5.2915624 0 0 0 5.291563-5.291562 5.2915624 5.2915624 0 0 0-5.291563-5.2915628zm-2.09182 2.6457812h0.479547 0.04961c0.09256-7.938e-4 0.184035 0.020478 0.264578 0.066145l3.704094 2.116625c0.164409 0.090954 0.248042 0.2769868 0.248042 0.4630126 0 0.186024-0.08363 0.372055-0.248042 0.463011l-3.704094 2.116625c-0.08054 0.04561-0.172023 0.06667-0.264578 0.06615h-0.04961-0.479547z" enable-background="new" opacity=".15" style="paint-order:normal"/>
        <path id="path2574" d="m35.384476 4.23325a5.2915624 5.2915624 0 0 0-5.291563 5.2915624 5.2915624 5.2915624 0 0 0 5.291563 5.2915626 5.2915624 5.2915624 0 0 0 5.291562-5.2915626 5.2915624 5.2915624 0 0 0-5.291562-5.2915624zm-2.091821 2.6457812h0.479548 0.04961c0.09256-7.938e-4 0.184035 0.020478 0.264578 0.066145l3.704094 2.116625c0.164409 0.090954 0.248042 0.2769868 0.248042 0.4630117 0 0.1860248-0.08363 0.372055-0.248042 0.4630117l-3.704094 2.1166244c-0.08054 0.04561-0.172023 0.06667-0.264578 0.06614h-0.04961-0.479548z" fill="#fff" style="paint-order:normal"/>
        <rect id="rect2327-2" x="26.917976" y="18.520468" width="16.933001" height="1.0583125" rx=".52915627" ry=".52915627" enable-background="new" opacity=".15" style="paint-order:normal"/>
        <rect id="rect2327-4-6" x="29.034601" y="17.462156" width="3.1749375" height="3.1749375" rx="1.5874687" ry="1.5874687" enable-background="new" opacity=".15" style="paint-order:normal"/>
        <rect id="rect2327" x="26.917976" y="17.991312" width="16.933001" height="1.0583125" rx=".52915627" ry=".52915627" fill="#fff" style="paint-order:normal"/>
        <rect id="rect2327-4" x="29.034601" y="16.933001" width="3.1749375" height="3.1749375" rx="1.5874687" ry="1.5874687" enable-background="new" fill="#fff" style="paint-order:normal"/>
    </g>
    <g fill="#5e4aa6" stroke-width=".264578">
        <circle id="circle24-2" cx="-360.96799" cy="-340.19391" r="0"/>
        <circle id="circle26-6" cx="-332.28775" cy="-356.12152" r="0"/>
        <circle id="circle28-1" cx="-336.99722" cy="-341.35806" r="0"/>
        <circle id="circle36-8" cx="-336.78558" cy="-347.0994" r="0"/>
        <circle id="circle38-7" cx="-45.870274" cy="-12.271263" r="0" fill-rule="evenodd"/>
    </g>
</svg>
