<svg id="svg25" version="1.1" viewBox="0 0 64 64" xmlns="http://www.w3.org/2000/svg">
    <defs id="defs7">
        <style id="style864" type="text/css"/>
        <style id="style874" type="text/css"/>
        <style id="style876" type="text/css"/>
        <style id="style878" type="text/css"/>
        <style id="style880" type="text/css"/>
        <style id="style882" type="text/css"/>
        <style id="style884" type="text/css"/>
        <style id="style886" type="text/css"/>
        <clipPath id="clipPath24926-3">
            <rect id="rect24928-6" x="4.4984231" y="4.5199857" width="53.783337" height="53.783337" ry="14.668182" fill="#e6e6e6" stroke-linecap="round" stroke-width="2.68369"/>
        </clipPath>
        <filter id="filter1057-7" x="-.026999999" y="-.026999999" width="1.054" height="1.054" color-interpolation-filters="sRGB">
            <feGaussianBlur id="feGaussianBlur866-5" stdDeviation="0.61875"/>
        </filter>
    </defs>
    <g fill="#5e4aa6">
        <g id="g937" transform="matrix(3.779602,0,0,3.779602,3.9134265,-70.54798)" stroke-width=".26458">
            <circle id="circle929" cx="-330.35001" cy="-328.38" r="0"/>
            <circle id="circle931" cx="-312.10999" cy="-326.25" r="0"/>
            <circle id="circle933" cx="-306.01999" cy="-333.07001" r="0"/>
            <circle id="circle935" cx="-308.84" cy="-326.01001" r="0"/>
        </g>
        <circle id="circle890" cx="-968.94611" cy="-1279.3" r="0"/>
        <g stroke-width="1.00001">
            <circle id="circle892" cx="-850.492" cy="-1318.599" r="0"/>
            <circle id="circle894" cx="249.04576" cy="-53.108505" r="0" fill-rule="evenodd"/>
            <circle id="circle896" cx="-771.98975" cy="-1390.1091" r="0"/>
            <circle id="circle898" cx="327.54501" cy="-124.58187" r="0" fill-rule="evenodd"/>
        </g>
    </g>
    <style id="style149" type="text/css">.st0{clip-path:url(#SVGID_1_);}
	.st1{clip-path:url(#SVGID_2_);}
	.st2{clip-path:url(#SVGID_3_);}
	.st3{clip-path:url(#SVGID_4_);fill:none;stroke:#002C5B;stroke-width:6;stroke-miterlimit:10;}
	.st4{fill-rule:evenodd;clip-rule:evenodd;fill:#192E45;}
	.st5{fill-rule:evenodd;clip-rule:evenodd;fill:#D0933A;}
	.st6{fill-rule:evenodd;clip-rule:evenodd;fill:#FFCC86;}
	.st7{fill-rule:evenodd;clip-rule:evenodd;fill:#FDD321;}
	.st8{fill:#FFFFFF;}
	.st9{fill:#1D2A3A;}
	.st10{fill:#192E45;}</style>
    <g fill="#e6e6e6"></g>
    <rect id="rect902" x="4.4999995" y="4.4999995" width="55" height="55" ry="15" fill="#141414" filter="url(#filter1057-7)" opacity=".3" stroke-linecap="round" stroke-width="2.7444"/>
    <rect id="rect904" x="4.5" y="4.5" width="55" height="55" ry="15" fill="#e6e6e6" stroke-linecap="round" stroke-width="2.7444"/>
    <g id="g23898" transform="matrix(1.0226216 0 0 1.0226216 -.10018551 -.12223587)" clip-path="url(#clipPath24926-3)">
        <path id="path70" transform="matrix(1.3592499 0 0 1.3592499 -1.008298 -.13957515)" d="m41.4 25.714c-1.137 0.182-2.253 0.299-3.329 0.334-0.104-0.812-0.265-1.597-0.451-2.37-0.469-1.936-1.194-3.724-2.157-5.326-1.441 1.28-2.977 2.496-4.588 3.65 0.182 0.968 0.269 2.036 0.23 3.203-1.137-0.352-2.131-0.807-2.982-1.332-0.66 0.417-1.332 0.825-2.014 1.215-1.263 0.729-2.543 1.398-3.828 2.018 0.087 0.1 0.165 0.204 0.256 0.304 1.228 1.389 2.713 2.465 4.384 3.255 0.977 0.46 2.014 0.825 3.108 1.085-0.234 0.872-0.516 1.762-0.829 2.674 4.67-2.013 8.823-4.999 12.2-8.71z" fill="#01828e"/>
        <path id="path68" transform="matrix(1.3592499 0 0 1.3592499 -1.008298 -.13957515)" d="m29.196 34.429c-1.042 3.021-1.987249 5.318892-3.815249 8.599892 4.54342 0.62135 10.241702-0.06345 10.50763-0.442615 0.846-2.539 2.035619-8.070277 2.265619-10.518277 1.489-0.2 3.930406-0.662646 5.458406-1.113646 0.699-1.845-0.113586-3.590151 0.0074-5.651151-0.858986 0.217-1.386806 0.276797-2.219806 0.410797-3.376 3.71-7.529 6.696-12.204 8.715z" fill="#1e75ba"/>
        <path id="path72" transform="matrix(1.3592499 0 0 1.3592499 -1.008298 -.13957515)" d="m27.672 11.873c-0.295-0.104-0.59-0.208-0.89-0.295 1.667-1.484 4.123-2.765 7.461-3.676 0.343-0.091 7.194558-1.3252004 7.546558-1.4942004-0.595-0.408-4.754665-3.0755041-5.392665-3.4185041-1.693-0.903-3.846932-0.5872923-5.782932-0.9782923-0.781-0.156-2.955602 1.0853259-3.766602 1.0203259-0.703 0.82-2.626359 2.6746709-3.246359 3.4726709-1.168 1.515-2.188 2.999-2.982 4.462-1.259 0.091-2.539 0.313-3.828 0.647-4.036 1.042-10.060504 4.286553-13.797504 7.455553-0.122 0.399-0.5244915 0.490214 0.6137318 1.288302-1.1662627 1.093574 0.1194203 1.994145 0.1194203 3.643145 0 1.736-1.0514287 3.725764-0.6304287 5.327764 0.169 0.638 0.4383522 1.056218 0.6643522 1.668218 4.388-5.516 10.587428-9.847982 14.793428-12.190982 9e-3 0.161 0.035 0.317 0.052 0.473 2.074-3.729 6.583-4.21 9.066-7.405z" fill="#4aae52"/>
        <path id="path74" transform="matrix(1.3592499 0 0 1.3592499 -1.008298 -.13957515)" d="m31.101 13.64c-0.065-0.043-0.117-0.095-0.182-0.139-1.024-0.686-2.114-1.22-3.247-1.628-2.483 3.19-6.992 3.676-9.067 7.405 0.152 1.541 0.612 3.086 1.454 4.648 0.569 1.05 1.306 2.109 2.222 3.181 1.285-0.621 2.565-1.285 3.828-2.014 0.681-0.395 1.354-0.803 2.014-1.22-0.655-0.408-1.233-0.851-1.684-1.337-0.916-0.998-1.567-2.066-1.957-3.16-0.299-0.851-0.447-1.719-0.408-2.582 1.063-0.135 2.031-0.052 2.908 0.217 0.477 0.143 0.938 0.33 1.35 0.608 1.341 0.898 2.17 2.418 2.543 4.384 1.61-1.155 3.147-2.37 4.588-3.65-1.12-1.862-2.565-3.468-4.362-4.713z" fill="#209673"/>
    </g>
</svg>
