<?xml version="1.0" encoding="utf-8"?>
<svg width="64" height="64" viewBox="0 0 64 64" xmlns="http://www.w3.org/2000/svg">
  <defs>
    <filter id="shadow" x="-0.03" y="-0.03" width="1.06" height="1.06">
      <feGaussianBlur stdDeviation="0.65"/>
    </filter>
    <linearGradient id="bgGradient" x1="0" y1="0" x2="1" y2="1">
      <stop offset="0" stop-color="#00b6e4"/>
      <stop offset="1" stop-color="#007afc"/>
    </linearGradient>
    <linearGradient id="icon" x1="1" y1="0" x2="0" y2="1">
      <stop offset="0" stop-color="#e0e6f4"/>
      <stop offset="1" stop-color="#c0cadf"/>
    </linearGradient>
  </defs>
  <rect x="4.5" y="4.5" width="55" height="55" ry="15" fill="#000" opacity="0.3" filter="url(#shadow)"/>
  <rect x="4" y="4" width="56" height="56" ry="15" fill="url(#bgGradient)"/>
  <path fill="url(#icon)" d="M 45.026 23.198 L 42.166 26.044 C 41.659 26.498 41.416 27.223 41.697 27.837 C 43.608 31.828 42.882 36.585 39.751 39.711 C 36.621 42.836 31.86 43.563 27.864 41.654 C 27.277 41.389 26.585 41.613 26.132 42.074 L 23.222 44.979 C 22.879 45.315 22.713 45.785 22.767 46.261 C 22.821 46.735 23.093 47.158 23.501 47.404 C 30.356 51.554 39.16 50.497 44.834 44.843 C 50.51 39.188 51.592 30.399 47.457 23.539 C 47.22 23.123 46.8 22.838 46.324 22.772 C 45.849 22.706 45.37 22.864 45.026 23.198 Z M 20.268 20.109 C 14.564 25.742 13.449 34.532 17.557 41.408 C 17.796 41.825 18.213 42.109 18.692 42.176 C 19.164 42.242 19.645 42.085 19.988 41.749 L 22.835 38.921 C 23.35 38.469 23.601 37.732 23.317 37.113 C 21.409 33.121 22.134 28.364 25.262 25.237 C 28.393 22.112 33.155 21.387 37.151 23.293 C 37.73 23.554 38.413 23.336 38.866 22.892 L 41.793 19.969 C 42.135 19.636 42.303 19.162 42.249 18.686 C 42.193 18.214 41.924 17.789 41.515 17.542 C 34.648 13.428 25.857 14.519 20.203 20.186 L 20.268 20.109 Z" style=""/>
</svg>