<?xml version="1.0" encoding="utf-8"?>
<svg id="svg44" version="1.1" viewBox="0 0 64 64" xmlns="http://www.w3.org/2000/svg">
  <defs id="defs22">
    <filter id="filter1057" x="-.027" y="-.027" width="1.054" height="1.054" color-interpolation-filters="sRGB">
      <feGaussianBlur stdDeviation="0.61875"/>
    </filter>
    <mask id="Mask">
      <rect x="4.5" y="4.5" width="55" height="55" ry="15" fill="white"/>
    </mask>
  </defs>
  <rect id="rect1055" x="4.5" y="4.5" width="55" height="55" ry="15" fill="#141414" filter="url(#filter1057)" opacity=".3"/>
  <g mask="url(#Mask)">
    <path d="M 32 32 L 64 0 L 0 0 Z" fill="#de6547"/>
    <g transform="rotate(60 32 32)">
      <path d="M 32 32 L 64 0 L 3.293 -5.702 L 32 32 Z" fill="#fdbe4d"/>
    </g>
    <g transform="rotate(120 32 32)">
      <path d="M 32 32 L 64.681 1.18 L 10.225 -5.904 L 32 32 Z" fill="#69b356"/>
    </g>
    <g transform="rotate(180 32 32)">
      <path d="M 32 32 L 64 0 L 19.641 -0.681 L 32 32 Z" fill="#d1e993"/>
    </g>
    <g transform="rotate(240 32 32)">
      <path d="M 32 32 L 64 0 L 3.122 -5.408 L 32 32 Z" fill="#80b7fa"/>
    </g>
    <g transform="rotate(300 32 32)">
      <path d="M 32 32 L 59.856 -7.178 L 9.93 -5.733 L 32 32 Z" fill="#4581e1"/>
    </g>
  </g>
  <path d="M 39.025 35.467 L 47.893 35.467 C 48.673 36.283 49.774 36.785 50.986 36.785 C 53.353 36.785 55.283 34.865 55.283 32.492 C 55.283 30.121 53.353 28.2 50.986 28.2 C 49.774 28.2 48.673 28.701 47.893 29.516 L 39.025 29.516 L 45.298 23.244 C 45.324 23.244 45.348 23.244 45.374 23.244 C 47.753 23.244 49.668 21.319 49.668 18.952 C 49.668 16.584 47.753 14.658 45.374 14.658 C 43.008 14.658 41.082 16.584 41.082 18.952 C 41.082 18.978 41.092 19.002 41.092 19.029 L 34.821 25.301 L 34.821 16.435 C 35.626 15.654 36.127 14.56 36.127 13.347 C 36.127 10.973 34.205 9.043 31.836 9.043 C 29.466 9.043 27.543 10.973 27.543 13.347 C 27.543 14.56 28.043 15.654 28.859 16.435 L 28.859 25.301 L 22.588 19.029 C 22.588 19.002 22.588 18.978 22.588 18.952 C 22.588 16.584 20.664 14.658 18.295 14.658 C 15.915 14.658 14.002 16.584 14.002 18.952 C 14.002 21.319 15.915 23.244 18.295 23.244 C 18.322 23.244 18.345 23.244 18.374 23.244 L 24.645 29.516 L 15.778 29.516 C 14.99 28.701 13.898 28.2 12.683 28.2 C 10.316 28.2 8.387 30.121 8.387 32.492 C 8.387 34.865 10.316 36.785 12.683 36.785 C 13.898 36.785 14.999 36.283 15.778 35.467 L 24.645 35.467 L 18.374 41.75 C 18.345 41.75 18.322 41.738 18.295 41.738 C 15.915 41.738 14.002 43.663 14.002 46.031 C 14.002 48.411 15.915 50.324 18.295 50.324 C 20.664 50.324 22.588 48.411 22.588 46.031 C 22.588 46.004 22.576 45.981 22.576 45.953 L 28.85 39.681 L 28.85 48.55 C 28.043 49.328 27.543 50.429 27.543 51.643 C 27.543 54.011 29.466 55.939 31.836 55.939 C 34.205 55.939 36.127 54.011 36.127 51.643 C 36.127 50.429 35.626 49.328 34.81 48.55 L 34.81 39.681 L 41.082 45.953 C 41.082 45.981 41.082 46.004 41.082 46.031 C 41.082 48.411 43.008 50.324 45.374 50.324 C 47.742 50.324 49.668 48.411 49.668 46.031 C 49.668 43.663 47.742 41.738 45.374 41.738 C 45.348 41.738 45.324 41.75 45.298 41.75 L 39.025 35.467 Z" fill="white" stroke="#2f2f2f" stroke-width="2" paint-order="stroke fill"/>
</svg>