<svg version="1.1" viewBox="0 0 64 64" xmlns="http://www.w3.org/2000/svg" xmlns:xlink="http://www.w3.org/1999/xlink">
  <defs>
    <style type="text/css"/>
    <style type="text/css"/>
    <filter id="filter1057" x="-.027" y="-.027" width="1.054" height="1.054" color-interpolation-filters="sRGB">
      <feGaussianBlur stdDeviation="0.61875"/>
    </filter>
    <linearGradient id="linearGradient1053" x1="-127" x2="-72" y1="60" y2="5" gradientTransform="translate(131.5 -.51)" gradientUnits="userSpaceOnUse">
      <stop stop-color="#f9f06b" offset="0"/>
      <stop stop-color="#33d17a" offset="1"/>
    </linearGradient>
    <radialGradient id="radialGradient1" cx="48" cy="40" r="80" gradientUnits="userSpaceOnUse">
      <stop stop-color="#241f31" stop-opacity=".4" offset="0"/>
      <stop stop-color="#241f31" stop-opacity="0" offset="1"/>
    </radialGradient>
  </defs>
  <rect x="4.5" y="4.5" width="55" height="55" ry="15" fill="#141414" filter="url(#filter1057)" opacity=".3" stroke-linecap="round" stroke-width="2.7444"/>
  <rect x="4.5" y="4.5" width="55" height="55" ry="15" fill="url(#linearGradient1053)" stroke-linecap="round" stroke-width="2.7444"/>
  <circle cx="-1326.3" cy="-1241.6" r="0" fill="#5e4aa6"/>
  <circle cx="-226.72" cy="23.855" r="0" fill="#5e4aa6" fill-rule="evenodd"/>
  <linearGradient id="b" gradientUnits="userSpaceOnUse">
    <stop stop-color="#9a9996" offset="0"/>
    <stop stop-color="#deddda" offset=".4"/>
    <stop stop-color="#77767b" offset="1"/>
  </linearGradient>
  <linearGradient id="f" x1="112" x2="120" y1="216" y2="216" gradientTransform="matrix(.34724 .34724 -.27008 .27008 63.575 -52.389)" xlink:href="#b"/>
  <linearGradient id="g" x1="112" x2="120" y1="216" y2="216" gradientTransform="matrix(.49107 0 0 .43651 -3.1116 -70.143)" gradientUnits="userSpaceOnUse">
    <stop stop-color="#9a9996" offset="0"/>
    <stop stop-color="#deddda" offset=".5"/>
    <stop stop-color="#77767b" offset="1"/>
  </linearGradient>
  <linearGradient id="h" x1="116" x2="116" y2="24" gradientTransform="matrix(.49107 0 0 .49107 -3.1116 4.5)" gradientUnits="userSpaceOnUse">
    <stop stop-color="#c0bfbc" offset="0"/>
    <stop stop-color="#deddda" offset="1"/>
  </linearGradient>
  <linearGradient id="i" x1="96" x2="100" y1="295" y2="295" gradientTransform="matrix(.34724 .34724 -.69448 .69448 206.64 -182.95)" xlink:href="#b"/>
  <linearGradient id="j" x1="104" x2="106" y1="274" y2="274" gradientTransform="matrix(.34724 -.34724 .23149 .23149 -57.555 26.609)" gradientUnits="userSpaceOnUse">
    <stop stop-color="#3d3846" stop-opacity=".98" offset="0"/>
    <stop stop-color="#9a9996" offset=".6"/>
    <stop stop-color="#5e5c64" offset="1"/>
  </linearGradient>
  <linearGradient id="k" x1="245.73" x2="257.73" y1="132.51" y2="132.51" gradientTransform="matrix(.34724 .34724 -.34724 .34724 -2.1295 -80.947)" gradientUnits="userSpaceOnUse">
    <stop stop-color="#5e5c64" offset="0"/>
    <stop stop-color="#9a9996" offset=".4"/>
    <stop stop-color="#3d3846" stop-opacity=".98" offset="1"/>
  </linearGradient>
  <g transform="translate(3.683 -3.4375)">
    <g stroke-width=".49107">
      <path d="m28.317 27.58c-4.3391 0-7.8571 3.518-7.8571 7.8571s3.518 7.8571 7.8571 7.8571 7.8571-3.518 7.8571-7.8571-3.518-7.8571-7.8571-7.8571zm0 0.98214c3.796 0 6.875 3.079 6.875 6.875s-3.079 6.875-6.875 6.875-6.875-3.079-6.875-6.875 3.079-6.875 6.875-6.875z" fill="#fff" fill-opacity=".4"/>
      <path d="m35.192 35.438c0 3.796-3.079 6.875-6.875 6.875s-6.875-3.079-6.875-6.875 3.079-6.875 6.875-6.875 6.875 3.079 6.875 6.875z" fill="#fff" fill-opacity=".2"/>
      <path d="m29.79 35.438a1.4737 1.4737 0 1 1-2.9474-9.82e-4 1.4737 1.4737 0 0 1 2.9474 9.82e-4z" fill="#241f31"/>
    </g>
    <g transform="matrix(.49107 0 0 .49107 -3.1116 4.5)" fill="url(#radialGradient1)">
      <path d="m64 14c-27.05 0-49 21.95-49 49s21.95 49 49 49 49-21.95 49-49-21.95-49-49-49zm0 2c25.969 0 47 21.031 47 47s-21.031 47-47 47-47-21.031-47-47 21.031-47 47-47z"/>
      <path d="m64 20c-23.738 0-43 19.262-43 43s19.262 43 43 43 43-19.262 43-43-19.262-43-43-43zm0 2c22.656 0 41 18.344 41 41s-18.344 41-41 41-41-18.344-41-41 18.344-41 41-41z"/>
      <path d="m64 26c-20.422 0-37 16.578-37 37s16.578 37 37 37 37-16.578 37-37-16.578-37-37-37zm0 2c19.34 0 35 15.66 35 35s-15.66 35-35 35-35-15.66-35-35 15.66-35 35-35z"/>
      <path d="m64 32c-17.11 0-31 13.89-31 31s13.89 31 31 31 31-13.89 31-31-13.89-31-31-31zm0 2c16.027 0 29 12.973 29 29s-12.973 29-29 29-29-12.973-29-29 12.973-29 29-29z"/>
      <path d="m64 38c-13.797 0-25 11.203-25 25s11.203 25 25 25 25-11.203 25-25-11.203-25-25-25zm0 2c12.715 0 23 10.285 23 23s-10.285 23-23 23-23-10.285-23-23 10.285-23 23-23z"/>
    </g>
  </g>
  <g stroke-width=".49107">
    <path d="m53.853 9.4107c-1.0877 0-1.9643 0.87656-1.9643 1.9643v26.687l-10.535 10.535a0.98411 0.98411 0 0 0-1.3907 0l-5.5555 5.557a0.97821 0.97821 0 0 0 0 1.3888l0.69438 0.69438-1.3888 1.3892a0.97821 0.97821 0 0 0 0 1.3888 0.97821 0.97821 0 0 0 1.3888 0l1.3892-1.3888 0.69438 0.69438a0.97821 0.97821 0 0 0 1.3888 0l3.4125-3.4129 1.0416 1.0421c0.19397 0.19152 0.50237 0.19152 0.69634 0a0.48911 0.48911 0 0 0-2e-3 -0.69487l-1.0416-1.0411 1.4487-1.4487a0.98018 0.98018 0 0 0 0.0015-1.3888l11.11-11.112a1.954 1.954 0 0 0 0.57554-1.4251v-27.464c0-1.0877-0.87656-1.9643-1.9643-1.9643z" fill-opacity=".2"/>
    <path d="m59.746 11.375c0 3.2553-2.6375 5.8929-5.8929 5.8929-3.2553 0-5.8929-2.6375-5.8929-5.8929 0-3.2553 2.6375-5.8929 5.8929-5.8929 3.2553 0 5.8929 2.6375 5.8929 5.8929z" fill="#c0bfbc"/>
    <path d="m55.241 36.504a1.9638 1.9638 0 0 1 0 2.7775l-16.667 16.668c-0.76754 0.76705-2.0104 0.76705-2.778 0-0.76754-0.76705-0.76705-2.0104 0-2.778l16.668-16.667a1.9638 1.9638 0 0 1 2.7775 0z" fill="url(#f)"/>
    <path d="m53.853 8.4286c-1.0877 0-1.9643 0.87656-1.9643 1.9643v26.687l3.9286 0.81321v-27.5c0-1.0877-0.87656-1.9643-1.9643-1.9643z" fill="url(#g)"/>
    <path d="m51.888 14.321h3.9286c0.54263 0 0.98214 0.43951 0.98214 0.98214v3.9286c0 0.54263-0.43951 0.98214-0.98214 0.98214h-3.9286c-0.54263 0-0.98214-0.43951-0.98214-0.98214v-3.9286c0-0.54263 0.43951-0.98214 0.98214-0.98214z" fill="#c0bfbc"/>
    <path d="m59.746 10.393c0 3.2553-2.6375 5.8929-5.8929 5.8929-3.2553 0-5.8929-2.6375-5.8929-5.8929 0-3.2553 2.6375-5.8929 5.8929-5.8929 3.2553 0 5.8929 2.6375 5.8929 5.8929z" fill="url(#h)"/>
    <path d="m59.717 9.8154c-0.21263 3.0844-2.7716 5.4804-5.8639 5.4882-3.0579-0.0079-5.6031-2.3537-5.8565-5.4018-0.01915 0.16304-0.03045 0.32607-0.03634 0.49107 0 3.2553 2.6375 5.8929 5.8929 5.8929 3.2553 0 5.8929-2.6375 5.8929-5.8929 0-0.19397-0.0098-0.38549-0.02897-0.5775z" fill="#fff" fill-opacity=".2"/>
    <path d="m50.906 18.25v0.98214c0 0.54509 0.43705 0.98214 0.98214 0.98214h3.9286c0.54509 0 0.98214-0.43705 0.98214-0.98214v-0.98214c0 0.54509-0.43705 0.98214-0.98214 0.98214h-3.9286c-0.54509 0-0.98214-0.43705-0.98214-0.98214z" fill="#9a9996"/>
    <path d="m37.88 53.866a0.98214 0.98214 0 0 1 0 1.3888l-2.778 2.778a0.98214 0.98214 0 1 1-1.3888-1.3888l2.778-2.778a0.98214 0.98214 0 0 1 1.3888 0z" fill="url(#i)"/>
    <path d="m40.945 52.189a0.49107 0.49107 0 0 1 0.69438 0l2.0831 2.0831a0.49117 0.49117 0 1 1-0.69438 0.69487l-2.0831-2.0836a0.49107 0.49107 0 0 1 0-0.69438z" fill="url(#j)"/>
    <path d="m41.351 47.616 2.7775 2.778a0.98214 0.98214 0 0 1 0 1.3888l-5.555 5.5555a0.98214 0.98214 0 0 1-1.3888 0l-2.778-2.778a0.98214 0.98214 0 0 1 0-1.3888l5.5555-5.555a0.98214 0.98214 0 0 1 1.3888 0z" fill="url(#k)"/>
  </g>
</svg>
