<svg id="svg855" width="64" height="64" version="1.1" viewBox="0 0 16.933 16.933" xmlns="http://www.w3.org/2000/svg" xmlns:xlink="http://www.w3.org/1999/xlink">
    <defs id="defs845">
        <filter id="filter1057" x="-.026999999" y="-.026999999" width="1.054" height="1.054" color-interpolation-filters="sRGB">
            <feGaussianBlur id="feGaussianBlur833" stdDeviation="0.61875"/>
        </filter>
        <linearGradient id="c" x1="24" x2="60" y1="28.999998" y2="28.999998" gradientTransform="matrix(.12025674 0 0 .10018129 .79681756 .84788605)" xlink:href="#b"/>
        <linearGradient id="b" gradientUnits="userSpaceOnUse">
            <stop id="stop1136" stop-color="#a51d2d" offset="0"/>
            <stop id="stop1138" stop-color="#e01b24" offset=".2"/>
            <stop id="stop1140" stop-color="#a51d2d" offset="1"/>
        </linearGradient>
        <linearGradient id="g" x1="-68" x2="-32" y1="118" y2="118" gradientTransform="matrix(-.12025674 0 0 .10018129 5.1260606 -8.769517)" xlink:href="#d"/>
        <linearGradient id="d" gradientUnits="userSpaceOnUse">
            <stop id="stop1144" stop-color="#c01c28" offset="0"/>
            <stop id="stop1146" stop-color="#e01b24" offset=".155812"/>
            <stop id="stop1148" stop-color="#f66151" offset=".333333"/>
            <stop id="stop1150" stop-color="#e01b24" offset=".575341"/>
            <stop id="stop1152" stop-color="#e01b24" offset=".730402"/>
            <stop id="stop1154" stop-color="#a51d2d" offset="1"/>
        </linearGradient>
        <linearGradient id="e" x1="24" x2="60" y1="21.999998" y2="21.999998" gradientTransform="matrix(.12025674 0 0 .10018129 .79681756 .84788605)" xlink:href="#d"/>
        <linearGradient id="f" x1="-68" x2="-32" y1="125" y2="125" gradientTransform="matrix(-.12025674 0 0 .10018129 5.1260606 -8.769517)" xlink:href="#b"/>
        <linearGradient id="h" x1="60" x2="68" y1="221" y2="221" gradientTransform="matrix(.24051348 0 0 .09461562 -6.8996133 -16.706101)" gradientUnits="userSpaceOnUse">
            <stop id="stop1160" stop-color="#a51d2d" offset="0"/>
            <stop id="stop1162" stop-color="#ed333b" offset=".5"/>
            <stop id="stop1164" stop-color="#c01c28" offset="1"/>
        </linearGradient>
        <linearGradient id="linearGradient7882" x1="1.1906" x2="15.7426" y1="8.4666004" y2="8.4666004" gradientTransform="matrix(.05596833 0 0 .06614453 -35.386264 4.9122631)" gradientUnits="userSpaceOnUse">
            <stop id="stop7884" stop-color="#e5a50a" offset="0"/>
            <stop id="stop7886" stop-color="#e5c52a" offset=".0454547"/>
            <stop id="stop7888" stop-color="#e5a50a" offset=".0909092"/>
            <stop id="stop7890" stop-color="#e5a50a" offset=".909091"/>
            <stop id="stop7892" stop-color="#e5c52a" offset=".95454597"/>
            <stop id="stop7894" stop-color="#e5a50a" offset="1"/>
        </linearGradient>
    </defs>
    <g stroke-linecap="round">
        <rect id="rect847" transform="scale(.26458)" x="4.5" y="4.5" width="55" height="55" ry="15" fill="#141414" filter="url(#filter1057)" opacity=".3" stroke-width="2.7444"/>
        <rect id="rect849" x="1.1906" y="1.1906" width="14.552" height="14.552" ry="3.9686999" fill="url(#linearGradient7882)" stroke-width=".726002"/>
        <path id="rect2949" d="m5.1593 1.1906c-2.157188 0-3.900532 1.7043107-3.965572 3.8451677 0.06504 2.1408569 1.808384 3.8451676 3.965572 3.8451676h6.614453c2.157188 0 3.900531-1.7043107 3.965571-3.8451676-0.06504-2.140857-1.808383-3.8451677-3.965571-3.8451677z" fill="#f6d32d"/>
    </g>
    <g id="g10877" transform="matrix(.76175708 0 0 .76175708 2.4201723 4.5119117)" fill="#241f31" stroke-width=".189444">
        <g id="g1363" transform="translate(-.52915625)">
            <path id="path1173" d="m5.467219 8.7970531-1.7049941 4.6036339h-1.6420941l2.5256716-6.8199792h1.6420928l2.5256715 6.8199792h-1.6413524z"/>
            <path id="path1175" d="m3.6356821 10.875015h3.6623347v1.262466h-3.6623347z"/>
        </g>
        <g id="g1367" transform="translate(-.52915625)">
            <path id="path1177" d="m13.297318 8.6016887h1.515551v4.7989983h-1.515551z"/>
            <path id="path1179" d="m11.825428 8.6016887c-1.283186 0.011092-2.3169875 1.1107626-2.3169875 2.4627703 0 1.360147 1.0463825 2.462771 2.3362285 2.462771 1.290586 0 2.336967-1.102624 2.336967-2.462771 0-1.3601475-1.046381-2.4627703-2.336967-2.4627703zm0.335227 1.3890081c0.557971 0 1.01012 0.4802702 1.01012 1.0737622 0 0.592752-0.452149 1.073022-1.01012 1.073022-0.557972 0-1.01012-0.48027-1.01012-1.073022 0-0.593492 0.452148-1.0737622 1.01012-1.0737622z"/>
        </g>
    </g>
    <path id="path7902" d="m9.2603044 1.1906v7.6903353h-1.5874083v-7.6903353z" fill="#ed333b" stroke-width=".13987"/>
    <path id="path7904" d="m1.2975697 4.2420348c-0.0601232 0.255883-0.0956184 0.5215782-0.1038676 0.7942511v0.7932177h14.545596v-0.7932177c-0.008249-0.2726729-0.043744-0.5383681-0.103868-0.7942511h-14.33786z" fill="#ed333b" stroke-width=".192361"/>
    <g id="g10041" transform="translate(-.0267489 .83181005)">
        <g id="g339" stroke-width=".109761">
            <path id="path1187" d="m3.6829788 2.6511492v1.0018129c0 0.6640923 0.6459112 1.2021754 1.4430818 1.2021754h2.8861613v-1.2021754h-2.8861613c-0.7036904-3.914e-4 -1.3045043-0.4238139-1.421943-1.0018129z" fill="url(#c)"/>
            <path id="path1193" d="m11.860437 1.2486111c0.797171 0 1.443081 0.5380834 1.443081 1.2021756v1.2021754c0-0.6640924-0.64591-1.2021751-1.443081-1.2021751-0.79717 0-1.44308 0.5380828-1.44308 1.2021751 0 0.2109286-0.06671 0.4183352-0.193069 0.6010877-0.2578938 0.3717666-0.7346937 0.6010877-1.2500119 0.6010877v-1.2021754c0.5153182 0 0.9921181-0.2293212 1.2500119-0.6010878 0.126364-0.1827525 0.193069-0.3901591 0.193069-0.6010876 0-0.6640923 0.64591-1.2021756 1.44308-1.2021756z" fill="url(#g)"/>
            <path id="path1189" d="m5.1260606 1.2486111c-0.7971706 0-1.4430818 0.5380834-1.4430818 1.2021756v1.2021754c0-0.6640924 0.6459112-1.2021751 1.4430818-1.2021751 0.7971707 0 1.4430807 0.5380828 1.4430807 1.2021751 0 0.2109286 0.066705 0.4183352 0.1930684 0.6010877 0.2578941 0.3717666 0.7346928 0.6010877 1.2500122 0.6010877v-1.2021754c-0.5153194 0-0.9921181-0.2293212-1.2500122-0.6010878-0.1263639-0.1827525-0.1930684-0.3901591-0.1930684-0.6010876 0-0.6640923-0.64591-1.2021756-1.4430807-1.2021756z" fill="url(#e)"/>
            <path id="path1191" d="m13.303518 2.6511492v1.0018129c0 0.6640923-0.64591 1.2021754-1.443081 1.2021754h-2.8861609v-1.2021754h2.8861609c0.703691-3.906e-4 1.304505-0.4238139 1.421942-1.0018129z" fill="url(#f)"/>
            <path id="path1195" d="m8.1324791 3.3524182h0.7215398c0.3321156 0 0.6012836 0.2242339 0.6012836 0.5009064v0.701269c0 0.2766726-0.269168 0.5009065-0.6012836 0.5009065h-0.7215398c-0.3321157 0-0.6012837-0.2242339-0.6012837-0.5009065v-0.701269c0-0.2766725 0.269168-0.5009064 0.6012837-0.5009064z" fill="url(#h)"/>
        </g>
        <path id="path1197" d="m7.5288902 4.0698263v0.4731069c0 0.3275711 0.2684176 0.5913836 0.6017053 0.5913836h0.7220473c0.3332889 0 0.6017054-0.2638125 0.6017054-0.5913836v-0.4731069c0 0.3275712-0.2684165 0.5913838-0.6017054 0.5913838h-0.7220473c-0.3332877 0-0.6017053-0.2638126-0.6017053-0.5913838z" fill="#a51d2d" stroke-width=".119305"/>
    </g>
    <path id="path7979" d="m7.6727656 8.8809368v6.8614612h1.5874688v-6.8614612h-1.5874688z" fill="#a51d2d" stroke-width=".132289"/>
</svg>
