<svg id="svg5" version="1.1" viewBox="0 0 64 64" xmlns="http://www.w3.org/2000/svg">
  <defs id="defs3">
    <style id="style1" type="text/css"/>
    <style id="style2" type="text/css"/>
    <filter id="filter1057" x="-.026999999" y="-.026999999" width="1.054" height="1.054" color-interpolation-filters="sRGB">
      <feGaussianBlur id="feGaussianBlur2" stdDeviation="0.61875"/>
    </filter>
    <radialGradient id="d" cx="49.875" cy="236" r="17.75" gradientTransform="matrix(.33775914 0 0 .47571719 12.056555 -80.269233)" gradientUnits="userSpaceOnUse">
      <stop id="stop7" stop-color="#9141ac" offset="0"/>
      <stop id="stop8" stop-color="#813d9c" offset="1"/>
    </radialGradient>
    <linearGradient id="e" x1="71.495392" x2="36.522003" y1="236" y2="236" gradientTransform="matrix(.33775914 0 0 .33775914 10.409978 -47.711156)" gradientUnits="userSpaceOnUse">
      <stop id="stop9" stop-color="#813d9c" offset="0"/>
      <stop id="stop10" stop-color="#613583" offset="1"/>
    </linearGradient>
    <linearGradient id="linearGradient5" x1="-127.00024" x2="-117.34008" y1="32.510704" y2="32.510704" gradientTransform="translate(131.50024 -.510703)" gradientUnits="userSpaceOnUse">
      <stop id="stop5" stop-color="#5e5c64" offset="0"/>
      <stop id="stop6" stop-color="#77767b" offset="1"/>
    </linearGradient>
    <radialGradient id="radialGradient8" cx="32" cy="32" r="27.5" gradientTransform="translate(131.5 -.51)" gradientUnits="userSpaceOnUse">
      <stop id="stop2" stop-color="#1a5fb4" offset=".85649276"/>
      <stop id="stop3" stop-color="#62a0ea" offset="1"/>
    </radialGradient>
    <linearGradient id="linearGradient9" x1="-120.14127" x2="-71.998688" y1="32.509998" y2="32.509998" gradientTransform="translate(124.64223 -.51052)" gradientUnits="userSpaceOnUse">
      <stop id="stop3-3" stop-color="#bbc9da" offset="0"/>
      <stop id="stop4" stop-color="#ceddef" offset=".698277"/>
    </linearGradient>
  </defs>
  <rect id="rect3" x="4.5" y="4.5" width="55" height="55" ry="15" fill="#141414" filter="url(#filter1057)" opacity=".3" stroke-linecap="round" stroke-width="2.7444"/>
  <rect id="rect4" x="4.5" y="4.5" width="55" height="55" ry="15" fill="url(#radialGradient8)" stroke-linecap="round" stroke-width="2.7444"/>
  <circle id="circle4" cx="-1326.3" cy="-1241.6" r="0" fill="#5e4aa6"/>
  <circle id="circle5" cx="-226.72" cy="23.855" r="0" fill="#5e4aa6" fill-rule="evenodd"/>
  <g id="g8" transform="matrix(.54 0 0 .54 83.18 20.66)">
    <path id="path11" d="m-42 21c0 27.613281-22.386719 50-50 50-27.61328 0-50-22.386719-50-50s22.38672-50 50-50c27.613281 0 50 22.386719 50 50z" fill="#5e5c64"/>
    <path id="path12" d="m-44.5 21c0 26.234375-21.265625 47.5-47.5 47.5-26.23438 0-47.5-21.265625-47.5-47.5s21.26562-47.5 47.5-47.5c26.234375 0 47.5 21.265625 47.5 47.5z" fill="#3d3846"/>
    <path id="path13" d="m-47 21c0 24.851562-20.148438 45-45 45-24.85156 0-45-20.148438-45-45s20.14844-45 45-45c24.851562 0 45 20.148438 45 45z" fill="#5e5c64"/>
    <path id="path14" d="m-49.5 21c0 23.472656-19.027344 42.5-42.5 42.5-23.47266 0-42.5-19.027344-42.5-42.5s19.02734-42.5 42.5-42.5c23.472656 0 42.5 19.027344 42.5 42.5z" fill="#3d3846"/>
    <path id="path15" d="m-52 21c0 22.089844-17.910156 40-40 40-22.08984 0-40-17.910156-40-40s17.91016-40 40-40c22.089844 0 40 17.910156 40 40z" fill="#5e5c64"/>
    <path id="path16" d="m-54.5 21c0 20.710938-16.789062 37.5-37.5 37.5-20.71094 0-37.5-16.789062-37.5-37.5s16.78906-37.5 37.5-37.5c20.710938 0 37.5 16.789062 37.5 37.5z" fill="#3d3846"/>
    <path id="path17" d="m-57 21c0 19.328125-15.671875 35-35 35-19.32813 0-35-15.671875-35-35s15.67187-35 35-35c19.328125 0 35 15.671875 35 35z" fill="#5e5c64"/>
    <path id="path18" d="m-59.5 21c0 17.949219-14.550781 32.5-32.5 32.5-17.94922 0-32.5-14.550781-32.5-32.5s14.55078-32.5 32.5-32.5c17.949219 0 32.5 14.550781 32.5 32.5z" fill="#3d3846"/>
    <path id="path19" d="m-62 21c0 16.570312-13.429688 30-30 30-16.57031 0-30-13.429688-30-30s13.42969-30 30-30c16.570312 0 30 13.429688 30 30z" fill="#5e5c64"/>
    <path id="path20" d="m-64.5 21c0 15.1875-12.3125 27.5-27.5 27.5s-27.5-12.3125-27.5-27.5 12.3125-27.5 27.5-27.5 27.5 12.3125 27.5 27.5z" fill="#3d3846"/>
    <path id="path21" d="m-67 21c0 13.808594-11.191406 25-25 25-13.80859 0-25-11.191406-25-25s11.19141-25 25-25c13.808594 0 25 11.191406 25 25z" fill="#5e5c64"/>
    <path id="path22" d="m-69.5 21c0 12.425781-10.074219 22.5-22.5 22.5-12.42578 0-22.5-10.074219-22.5-22.5s10.07422-22.5 22.5-22.5c12.425781 0 22.5 10.074219 22.5 22.5z" fill="#3d3846"/>
  </g>
  <path id="path9" d="m19.5 4.5c-1.882761 0-3.682363 0.3428455-5.339844 0.9707031v53.058594c1.657481 0.627857 3.457083 0.970703 5.339844 0.970703h12.617188c8.309998 0 15-6.69 15-15v-5.953125a6.5614009 6.5614009 0 0 1-0.427735 0.013672 6.5614009 6.5614009 0 0 1-6.5625-6.560547 6.5614009 6.5614009 0 0 1 6.5625-6.560547 6.5614009 6.5614009 0 0 1 0.427735 0.013672v-5.953125c0-8.31-6.690002-15-15-15h-12.617188zm-7.378906 1.9257812c-1.302384 0.7340739-2.4821392 1.6570168-3.5039065 2.7324219 1.0215379-1.0748954 2.2020355-1.9985744 3.5039065-2.7324219zm-3.5039065 48.417969c1.021515 1.0749 2.2019935 1.996666 3.5039065 2.730469-1.301844-0.733826-2.4823811-1.655609-3.5039065-2.730469z" fill="url(#linearGradient9)"/>
  <path id="path5" d="M 14.160156,5.470703 C 8.50145,7.613784 4.5,13.072391 4.5,19.5 v 25 c 0,6.427609 4.00145,11.88622 9.660156,14.0293 z" fill="url(#linearGradient5)"/>
  <path id="path6" d="m17.410156 4.6425781c-1.129012 0.1560676-2.217102 0.436861-3.25 0.828125v53.058594c1.032898 0.391264 2.120988 0.672057 3.25 0.828125v-54.714844z" fill="#5e5c64"/>
  <path id="path26" d="m31.351047 23.556022c-4.663979 0-8.443979 3.780001-8.443979 8.443978 0 4.663978 3.78 8.443979 8.443979 8.443979 0.910368 0 1.812819-0.147769 2.671727-0.434075 0.493445-0.164921 0.488166-0.519831 0.04485-0.788981-2.505486-1.517278-4.067624-4.247058-4.067624-7.220923 0-2.971223 1.559501-5.698365 4.061028-7.216963 0.447264-0.271788 0.452544-0.62934-0.04485-0.795581-0.857591-0.284985-1.757405-0.431434-2.665131-0.431434z" fill="url(#d)" stroke="url(#e)" stroke-width=".322898"/>
</svg>
