<svg id="svg26" width="64" height="64" version="1.1" viewBox="0 0 16.933 16.933" xmlns="http://www.w3.org/2000/svg" xmlns:xlink="http://www.w3.org/1999/xlink">
    <defs id="defs14">
        <linearGradient id="linearGradient2450">
            <stop id="stop2446" stop-color="#9a9996" offset="0"/>
            <stop id="stop2454" stop-color="#fff" offset=".5"/>
            <stop id="stop2448" stop-color="#c0bfbc" offset="1"/>
        </linearGradient>
        <filter id="filter1057" x="-.026999999" y="-.026999999" width="1.054" height="1.054" color-interpolation-filters="sRGB">
            <feGaussianBlur id="feGaussianBlur1059" stdDeviation="0.61875"/>
        </filter>
        <linearGradient id="linearGradient1053" x1="-127" x2="-72" y1="60" y2="5" gradientTransform="matrix(.26457812 0 0 .26457812 34.792023 -.13493417)" gradientUnits="userSpaceOnUse">
            <stop id="stop1047" stop-color="#fafafa" offset="0"/>
            <stop id="stop1049" stop-color="#fff" offset="1"/>
        </linearGradient>
        <linearGradient id="linearGradient2393" x1="-38.433937" x2="-36.63044" y1="32.444847" y2="30.64135" gradientTransform="matrix(.28872528 .28872528 -.28872528 .28872528 28.258291 16.323229)" gradientUnits="userSpaceOnUse">
            <stop id="stop2387" stop-color="#865e3c" offset="0"/>
            <stop id="stop2395" stop-color="#b5835a" offset=".40000001"/>
            <stop id="stop2397" stop-color="#b5835a" offset=".60000002"/>
            <stop id="stop2389" stop-color="#865e3c" offset="1"/>
        </linearGradient>
        <linearGradient id="linearGradient2452" x1="-42.11784" x2="-41.381275" y1="27.694298" y2="26.957733" gradientTransform="matrix(.28872528 .28872528 -.28872528 .28872528 28.258291 16.323229)" gradientUnits="userSpaceOnUse" xlink:href="#linearGradient2450"/>
        <linearGradient id="linearGradient2511" x1="-39.569878" x2="-38.833485" y1="21.88007" y2="22.616465" gradientTransform="matrix(.28872528 .28872528 -.28872528 .28872528 28.258291 16.323229)" gradientUnits="userSpaceOnUse" xlink:href="#linearGradient2450"/>
        <linearGradient id="linearGradient2519" x1="-37.96484" x2="-37.227859" y1="17.832064" y2="17.095743" gradientTransform="matrix(.28872528 .28872528 -.28872528 .28872528 28.258291 16.323229)" gradientUnits="userSpaceOnUse" xlink:href="#linearGradient2450"/>
        <linearGradient id="linearGradient2527" x1="-39.355434" x2="-40.091652" y1="16.780792" y2="16.044575" gradientTransform="matrix(.28872528 .28872528 -.28872528 .28872528 28.258291 16.323229)" gradientUnits="userSpaceOnUse" xlink:href="#linearGradient2450"/>
        <filter id="filter2736" x="-.015007256" y="-.0099967782" width="1.0300145" height="1.0199936" color-interpolation-filters="sRGB">
            <feGaussianBlur id="feGaussianBlur2738" stdDeviation="0.029889328"/>
        </filter>
        <filter id="filter2749" x="-.0079289083" y="-.024663409" width="1.0158578" height="1.0493268" color-interpolation-filters="sRGB">
            <feGaussianBlur id="feGaussianBlur2751" stdDeviation="0.023917967"/>
        </filter>
    </defs>
    <g fill="#5e4aa6" stroke-width=".264578">
        <circle id="circle24" cx="-330.37869" cy="-328.50018" r="0"/>
        <circle id="circle26" cx="-301.69846" cy="-344.4278" r="0"/>
        <circle id="circle28" cx="-306.40793" cy="-329.66434" r="0"/>
        <circle id="circle36" cx="-306.19626" cy="-335.40567" r="0"/>
        <circle id="circle38" cx="-15.280974" cy="-.57754755" r="0" fill-rule="evenodd"/>
    </g>
    <g>
        <rect id="rect1055" transform="scale(.26457812)" x="4.5" y="4.5" width="55" height="55" ry="15" fill="#141414" filter="url(#filter1057)" opacity=".3" stroke-linecap="round" stroke-width="2.74436"/>
        <rect id="rect1045" x="1.1906021" y="1.1906021" width="14.551796" height="14.551796" ry="3.9686716" fill="url(#linearGradient1053)" stroke-linecap="round" stroke-width=".726098"/>
        <path id="path2740" d="m5.4285023 8.409657c-0.3214505 3.058e-4 -0.5818651 0.278838-0.5818651 0.6232055v1.0810495c-7.51e-5 0.34429 0.2603564 0.623206 0.5813484 0.623206h1.5518127c0.0050203-5e-6 0.0099962-3.77e-4 0.0149859-5.17e-4h1.471199v-2.326944h-1.4856681-0.3234881-1.2283247zm3.0374809 0 5.168e-4 2.326944h1.809673 1.228325c0.320991-1e-6 0.581865-0.278932 0.581865-0.622689v-1.0810495c-3.04e-4 -0.3440632-0.260721-0.6232055-0.581865-0.6232055h-1.228325-1.8101898z" filter="url(#filter2749)" opacity=".2" stroke-width=".108032"/>
        <path id="path2725" d="m11.739621 9.3801213a0.21274725 0.21274725 0 1 0 0 0.4252887h0.408752v1.410222l0.362762 0.363278h5.16e-4c0.03819-0.03819 0.062391-0.091632 0.062011-0.150375v-1.835511a0.21347188 0.21347188 0 0 0-0.062527-0.1503754 0.21066304 0.21066304 0 0 0-0.150376-0.0620105l-0.621138-5.168e-4zm0.771514 2.1987887-0.363278-0.362761-3.8332827-5.17e-4c-0.059126 0-0.1118748 0.023511-0.1503755 0.062011h-5.167e-4c-0.038195 0.03819-0.0620105 0.091763-0.0620105 0.150892v1.250028a0.52060781 0.52060781 0 0 0-0.3079855 0.47438v2.881938a0.52060781 0.52060781 0 0 0 0.5208882 0.520888 0.52060781 0.52060781 0 0 0 0.5203714-0.520888l5.168e-4 -2.881938a0.52060781 0.52060781 0 0 0-0.3079855-0.474897l-5.168e-4 -1.037125h3.8337988c0.05882-3.05e-4 0.11218-0.023821 0.150376-0.062011z" filter="url(#filter2736)" opacity=".2" stroke-width=".108032"/>
        <path id="rect2650" d="m5.159532 1.1906021c-1.958062 0-3.574957 1.4046305-3.905628 3.2648527h14.425193c-0.330671-1.8602222-1.94705-3.2648527-3.905112-3.2648527z" fill="#ebebeb" stroke-linecap="round" stroke-width=".726098"/>
    </g>
    <path id="path973" d="m13.651577 2.8230277c0 0.5845527-0.47376 1.0583125-1.058313 1.0583125-0.584552 0-1.058312-0.4737598-1.058312-1.0583125 0-0.5845518 0.47376-1.0583117 1.058312-1.0583117 0.584553 0 1.058313 0.4737599 1.058313 1.0583117z" fill="#d8d8d8" stroke-width=".211662"/>
    <path id="path975" d="m12.064936 2.2938719h0.09012c0.02232 8e-4 0.04547 0.011576 0.06118 0.027288l0.377024 0.3778503 0.380332-0.3778503c0.02315-0.01984 0.03886-0.026456 0.06036-0.027288h0.08847v0.088468c0 0.024808-0.0033 0.047952-0.02233 0.066144l-0.377024 0.3770239 0.374543 0.3753703c0.01653 0.016536 0.02481 0.039688 0.02481 0.06284v0.088469h-0.08847c-0.02315 0-0.0463-0.00827-0.06284-0.024808l-0.377846-0.3778506-0.377024 0.3778503c-0.01654 0.016536-0.04051 0.024808-0.06366 0.024808h-0.08847v-0.0884688c0-0.023152 0.0083-0.046304 0.02481-0.06284l0.377845-0.3753703-0.377849-0.3770239c-0.01818-0.01736-0.02646-0.041336-0.02481-0.066144z" fill="#444" stroke-width=".211662"/>
    <g fill="#fff" stroke-width=".108032">
        <path id="path1054" d="m12.573579 11.397204a0.24307274 0.24307274 0 0 1-0.243532 0.243532 0.24307274 0.24307274 0 0 1-0.243457-0.243456 0.24307274 0.24307274 0 0 1 0.243533-0.243533 0.24307274 0.24307274 0 0 1 0.243456 0.243457z"/>
        <path id="path1056" d="m12.573885 9.6238765a0.24426109 0.24426109 0 0 1-0.243762 0.2437618 0.24426109 0.24426109 0 0 1-0.243838-0.2438384 0.24426109 0.24426109 0 0 1 0.243762-0.2437618 0.24426109 0.24426109 0 0 1 0.243838 0.2438384z"/>
        <path id="path1058" d="m8.5892853 11.459309a0.24426109 0.24426109 0 0 1-0.2437618 0.243761 0.24426109 0.24426109 0 0 1-0.2437618-0.243761 0.24426109 0.24426109 0 0 1 0.2437618-0.243762 0.24426109 0.24426109 0 0 1 0.2437618 0.243762z"/>
    </g>
    <g stroke-width=".108032">
        <path id="path1060" d="m8.1637906 11.277805c-0.038195 0.03819-0.062029 0.09136-0.062029 0.150489v1.331485a0.21274725 0.21274725 0 1 0 0.4254945 0l-3.055e-4 -1.118661z" fill="url(#linearGradient2452)"/>
        <path id="path1062" d="m12.148008 11.215929-3.8334226-4.58e-4c-0.059126 0-0.1121411 0.02383-0.1506418 0.06233l0.3631598 0.36316h3.8337286c0.05882-3.05e-4 0.112217-0.02376 0.150413-0.06195z" fill="url(#linearGradient2511)"/>
        <path id="path1064" d="m12.148314 9.8053036v1.4101674l0.363236 0.363236c0.03819-0.03819 0.06233-0.09167 0.06195-0.150413l3.82e-4 -1.8354321a0.21347188 0.21347188 0 0 0-0.06272-0.1504126z" fill="url(#linearGradient2519)"/>
        <path id="path1066" d="m11.739854 9.3800384a0.21274725 0.21274725 0 1 0 0 0.4254945l0.40846-2.293e-4 0.362854-0.3628543a0.21066304 0.21066304 0 0 0-0.150336-0.062029z" fill="url(#linearGradient2527)"/>
        <path id="path1068" d="m8.3145089 12.632283a0.52060781 0.52060781 0 0 1 0.5207533 0.520754l-7.62e-5 2.88198a0.52060781 0.52060781 0 0 1-0.5206771 0.520677 0.52060781 0.52060781 0 0 1-0.5206767-0.520677l-7.66e-5 -2.88198a0.52060781 0.52060781 0 0 1 0.5207533-0.520754z" fill="url(#linearGradient2393)"/>
        <path id="path1070" d="m6.6568114 8.4097993h1.809383v2.3268517l-1.8095357-1e-6zm1.809383 0 1.8100706-7.62e-5v2.3268509l-1.8100706 7.7e-5zm3.0383516 2.3268517-1.5516419 1.53e-4c-0.322291-7.7e-5 -0.58156-0.277832-0.5812559-0.623116v-1.0807707c-3.055e-4 -0.3452849 0.2590397-0.6231165 0.5812556-0.6231151h1.5516422c0.322367 0 0.58156 0.277832 0.581864 0.6231174l-2.29e-4 1.0810004c0 0.344979-0.259269 0.622888-0.581559 0.622812zm-6.0763975-2.3271572 1.5520234 2.29e-4c0.3220621-3.055e-4 0.5812545 0.2781374 0.581256 0.6231154l-3e-7 1.0807708c3.057e-4 0.345285-0.259269 0.623346-0.5814821 0.623348h-1.5517944c-0.3219856-3.82e-4 -0.5812545-0.278138-0.5814849-0.623345l-7.62e-5 -1.0808475c3.805e-4 -0.3452097 0.2595729-0.6230417 0.581635-0.6233472z" fill="#fff"/>
    </g>
    <g stroke-width=".108032">
        <path id="path1028" d="m4.8467413 1.1909836 1.8099936-1.527e-4 -2.289e-4 8.3823939-1.809612 7.65e-5z" fill="#62a0ea" opacity=".7"/>
        <path id="path1034" d="m6.6568114 1.1909074h1.809383l3.055e-4 8.3823174h-1.8099939z" fill="#57e389" opacity=".7"/>
        <path id="path1040" d="m8.4661944 1.1909074 1.8101466-2e-7v8.3826233l-1.8097646-2.292e-4z" fill="#f8e45c" opacity=".7"/>
        <path id="path1046" d="m12.086259 9.5733016-1.809994 1.524e-4 7.6e-5 -8.3825468 1.809841-3.056e-4z" fill="#ed333b" opacity=".7"/>
    </g>
    <g stroke-width=".108032">
        <path id="path1072" d="m5.4283012 8.4094936 1.5519472 3.057e-4c0.3210689 7.62e-5 0.5812545 0.2787484 0.5812557 0.6231151v1.0807716c0 0.344368-0.2601857 0.62304-0.5814849 0.623344h-1.5517945c-0.3209923 0-0.58156-0.279054-0.5814849-0.623344l-7.62e-5 -1.0808478c0-0.3443679 0.2601856-0.62304 0.5816365-0.6233458z" fill="#62a0ea"/>
        <path id="path1074" d="m6.6568114 8.4097993h1.809383v2.3268517l-1.8095357-1e-6z" fill="#57e389"/>
        <path id="path1076" d="m11.504622 10.736727-1.5517179 7.7e-5c-0.3210688-7.7e-5 -0.5815602-0.279055-0.5812559-0.623116v-1.0807707c-3.055e-4 -0.3440624 0.2601856-0.62304 0.5812556-0.6231151h1.5516422c0.321145 0 0.58156 0.2790538 0.581864 0.6231174l-2.29e-4 1.0810004c0 0.343757-0.260567 0.622811-0.581559 0.622812z" fill="#ed333b"/>
        <path id="path1078" d="m8.4661944 8.4097993h1.8101466v2.3268507l-1.8100703 7.7e-5z" fill="#f8e45c"/>
    </g>
</svg>
