<?xml version="1.0" encoding="UTF-8"?>
<svg width="64" height="64" inkscape:version="1.1.2 (0a00cf5339, 2022-02-04, custom)" sodipodi:docname="com.gitlab.newsflash.svg" version="1.1" viewBox="0 0 64 64" xmlns="http://www.w3.org/2000/svg" xmlns:inkscape="http://www.inkscape.org/namespaces/inkscape" xmlns:sodipodi="http://sodipodi.sourceforge.net/DTD/sodipodi-0.dtd" xmlns:xlink="http://www.w3.org/1999/xlink">
 <defs>
  <linearGradient x1="-93.749" x2="-88.972" y1="23.632" y2="18.964" gradientTransform="matrix(1 0 0 1 131.51 -.51062)" gradientUnits="userSpaceOnUse">
   <stop stop-color="#32d7ff" offset="0"/>
   <stop stop-color="#329bff" offset="1"/>
  </linearGradient>
  <filter id="filter1057-1" x="-.027" y="-.027" width="1.054" height="1.054" color-interpolation-filters="sRGB">
   <feGaussianBlur stdDeviation="0.61875"/>
  </filter>
 </defs>
 <sodipodi:namedview width="64px" bordercolor="#666666" borderopacity="1.0" inkscape:current-layer="svg23" inkscape:cx="23.6875" inkscape:cy="28" inkscape:pagecheckerboard="0" inkscape:pageopacity="0.0" inkscape:pageshadow="2" inkscape:window-height="1017" inkscape:window-maximized="1" inkscape:window-width="1920" inkscape:window-x="0" inkscape:window-y="0" inkscape:zoom="8" pagecolor="#ffffff" showgrid="false"/>
 <rect x="4.5" y="4.5" width="55" height="55" ry="15" fill="#141414" filter="url(#filter1057-1)" opacity=".3" stroke-linecap="round" stroke-width="2.7444"/>
 <rect x="4.4996" y="4.4996" width="55.001" height="55.001" ry="15" fill="#ff7800" stroke-linecap="round" stroke-width="2.7444"/>
 <path d="m29.785 14.952-6.7097 17.544c-0.05105 0.17019-0.01064 0.34888 0.05957 0.44887 0.08934 0.09998 0.17019 0.21912 0.40845 0.24039l4.7057-0.02128c0.15955 0 0.29996 0.0702 0.35952 0.21912 0.03829 0.12977 0.04893 0.25954 0 0.44036l-4.0781 14.934c-0.02978 0.11913-0.0702 0.38718 0.20848 0.568 0.18082 0.1085 0.54035 0.04893 0.75946-0.17019l15.362-19.369c0.09999-0.15955 0.11062-0.43823 0.04893-0.568-0.05957-0.12977-0.18933-0.31059-0.48716-0.34038l-7.1692-0.26804c-0.20848-0.04042-0.27868-0.1404-0.33825-0.21912-0.07871-0.12126-0.09999-0.28932-0.01915-0.47014l5.8715-12.741c0.07872-0.16806 0.07872-0.28719 0.02979-0.37867-0.04042-0.07871-0.17019-0.1787-0.39782-0.1787h-8.0052c-0.11062 0-0.48929 0.04042-0.60842 0.32974z" fill="#fff" stroke-width=".5446"/>
</svg>
