<svg id="svg5" version="1.1" viewBox="0 0 64 64" xmlns="http://www.w3.org/2000/svg">
  <defs id="defs3">
    <style id="style1" type="text/css"/>
    <style id="style2" type="text/css"/>
    <filter id="filter1057" x="-.026999999" y="-.026999999" width="1.054" height="1.054" color-interpolation-filters="sRGB">
      <feGaussianBlur id="feGaussianBlur2" stdDeviation="0.61875"/>
    </filter>
    <linearGradient id="linearGradient1" x1="-99.5" x2="-99.5" y1="58.509998" y2="6.5100002" gradientTransform="translate(131.50001 -.51000002)" gradientUnits="userSpaceOnUse">
      <stop id="stop2" stop-color="#020515" offset="0"/>
      <stop id="stop3" stop-color="#313131" stop-opacity=".99607843" offset="1"/>
    </linearGradient>
    <linearGradient id="linearGradient6" x1="-123.50001" x2="-73.5" y1="56.510002" y2="6.5099998" gradientTransform="translate(131.5 -.50999999)" gradientUnits="userSpaceOnUse">
      <stop id="stop7" stop-color="#081e9c" offset="0"/>
      <stop id="stop6" stop-color="#212c51" offset="1"/>
    </linearGradient>
    <linearGradient id="linearGradient9" x1="20.446285" x2="20.447489" y1="27.064379" y2="13.24979" gradientTransform="matrix(1.1229156,0,0,1.1221608,-3.9332992,-3.8407659)" gradientUnits="userSpaceOnUse">
      <stop id="stop8" stop-color="#7ab7ff" offset="0"/>
      <stop id="stop9" stop-color="#f1f7ff" offset="1"/>
    </linearGradient>
    <filter id="filter13" x="-.078768514" y="-.071575617" width="1.157537" height="1.1431512" color-interpolation-filters="sRGB">
      <feGaussianBlur id="feGaussianBlur13" stdDeviation="0.11097084"/>
    </filter>
    <filter id="filter14" x="-.048479151" y="-.16558366" width="1.0969583" height="1.3311673" color-interpolation-filters="sRGB">
      <feGaussianBlur id="feGaussianBlur14" stdDeviation="0.081390375"/>
    </filter>
    <linearGradient id="linearGradient722" x1="-99.5" x2="-99.5" y1="60.009998" y2="5.0100002" gradientTransform="translate(131.49998 -.50999989)" gradientUnits="userSpaceOnUse">
      <stop id="stop4" stop-color="#636363" offset="0"/>
      <stop id="stop5" stop-color="#bbbbbb" stop-opacity=".99607843" offset="1"/>
    </linearGradient>
    <filter id="filter723" x="-.0045762338" y="-.024393848" width="1.0091525" height="1.0487877" color-interpolation-filters="sRGB">
      <feGaussianBlur id="feGaussianBlur723" stdDeviation="0.057180681"/>
    </filter>
    <filter id="filter726" x="-.083663346" y="-.066029408" width="1.1673267" height="1.1320588" color-interpolation-filters="sRGB">
      <feGaussianBlur id="feGaussianBlur726" stdDeviation="1.0454342"/>
    </filter>
    <filter id="filter727" x="-.0097200001" y="-.0097200001" width="1.01944" height="1.01944" color-interpolation-filters="sRGB">
      <feGaussianBlur id="feGaussianBlur727" stdDeviation="0.20655"/>
    </filter>
  </defs>
  <rect id="rect3" x="4.5" y="4.5" width="55" height="55" ry="15" fill="#141414" filter="url(#filter1057)" opacity=".3" stroke-linecap="round" stroke-width="2.7444"/>
  <rect id="rect722" x="4.5000019" y="4.5000019" width="54.999996" height="54.999996" rx="15" ry="15" fill="url(#linearGradient722)" stroke-linecap="round" stroke-width="2.7444"/>
  <circle id="circle4" cx="-1326.3" cy="-1241.6" r="0" fill="#5e4aa6"/>
  <circle id="circle5" cx="-226.72" cy="23.855" r="0" fill="#5e4aa6" fill-rule="evenodd"/>
  <rect id="rect1" x="5.5" y="5.5" width="53" height="53" rx="15.000001" ry="15.000001" fill="url(#linearGradient1)" stroke-linecap="round" stroke-width="2.7444"/>
  <rect id="rect5" x="6.5" y="6.5" width="51" height="51" rx="15.000001" ry="15.000001" fill="url(#linearGradient6)" filter="url(#filter727)" stroke-linecap="round" stroke-width="2.74439"/>
  <g id="g726" stroke-width="1.12254">
    <path id="path723" transform="matrix(.89053888 0 0 .89113785 3.5026667 3.4837403)" d="m32.000099 13.000414c-8.280706 0-14.994871 6.712765-14.994871 14.993559v17.926077c0 2.769095 2.262049 5.098025 5.031188 5.078216 1.152982-0.0068 2.214235-0.401936 3.057314-1.065176 1.129642-0.889676 2.686546-0.889676 3.816158 0 0.849734 0.669778 1.91613 1.065176 3.085825 1.065176 1.169701 0 2.244863-0.395398 3.094597-1.065176 1.116393-0.87972 2.672573-0.922554 3.778874-0.03288 0.923079 0.743124 2.115287 1.161409 3.408225 1.091477 2.662488-0.146702 4.717561-2.401503 4.717561-5.067258v-17.930468c0-8.280795-6.714018-14.993563-14.994871-14.993559zm-9.413191 10.250676c0.292565-0.02061 0.596087 0.04419 0.868505 0.201638l5.586067 3.226213c0.05549 0.03213 0.108499 0.06808 0.15791 0.105202 0.0066 5e-3 0.01324 0.01029 0.01974 0.01534h0.0022c7e-3 0.0054 0.01288 0.01199 0.01974 0.01753 0.09178 0.07403 0.172009 0.156699 0.241252 0.245473 0.130347 0.167341 0.221627 0.355985 0.271956 0.554505 0.03148 0.124171 0.04807 0.255965 0.04825 0.383551v0.0022c-1.75e-4 0.125404-0.01783 0.250436-0.04825 0.372592-3.52e-4 0.0014 3.56e-4 3e-3 0 0.0044v0.0022c-0.01574 0.06174-0.03573 0.122283-0.05922 0.181913v0.0022c-0.05169 0.130734-0.1238 0.256231-0.21274 0.370401-0.06678 0.08561-0.144735 0.164749-0.232479 0.236705-0.0099 0.0081-0.02058 0.0184-0.0307 0.0263-0.0099 0.0077-0.02052 0.01439-0.0307 0.02192-0.03321 0.02453-0.06936 0.0478-0.105274 0.07014-0.01399 0.0087-0.02727 0.01796-0.04167 0.0263l-5.586067 3.224021c-0.08048 0.0463-0.163364 0.0815-0.247831 0.111777-0.02328 0.0083-0.04669 0.01697-0.07018 0.02411-0.07204 0.0219-0.146079 0.03733-0.219319 0.04822-0.02639 0.0039-0.05251 0.0062-0.07896 0.0088-0.266355 0.02541-0.532946-0.01855-0.774198-0.12712-0.02602-0.0117-0.05139-0.02409-0.07676-0.03726-0.06295-0.0327-0.123835-0.06808-0.182035-0.109586-0.01866-0.01329-0.03673-0.02746-0.05483-0.04164-0.148184-0.116235-0.277434-0.26128-0.377229-0.43396-0.05249-0.09122-0.09528-0.186693-0.127206-0.282732-0.0012-0.0036-1e-3 -0.0074-0.0022-0.01096-0.215897-0.669068 0.05265-1.419099 0.684277-1.78406l3.307337-1.906797-0.0022-0.0022-3.305144-1.913372c-0.0093-0.0054-0.01715-0.01197-0.02632-0.01753-0.704254-0.427602-0.942856-1.341189-0.52856-2.058026 0.0656-0.113506 0.142299-0.217207 0.230285-0.306841 0.263982-0.268922 0.616843-0.425586 0.982551-0.451494zm11.766489 3.221829h7.340622c0.843052 0 1.522077 0.678003 1.522077 1.521054 0 0.843054-0.682294 1.521054-1.522077 1.521054h-7.340622c-0.843051 0-1.522077-0.678-1.522077-1.521054 0-0.843051 0.682436-1.521054 1.522077-1.521054z" fill="#000000" filter="url(#filter726)"/>
    <g id="g723" transform="matrix(.89053888 0 0 .89113785 3.5027544 3.4226518)">
      <path id="path9" d="m17.005833 45.374257v0.545918c0 2.769095 2.260719 5.097368 5.029858 5.077559 1.152982-0.0068 2.215116-0.402093 3.058195-1.065333 1.129642-0.889676 2.686507-0.889676 3.816119 0 0.849734 0.669778 1.914999 1.065333 3.084694 1.065333 1.169701 0 2.245566-0.395555 3.0953-1.065333 1.116393-0.87972 2.672716-0.921478 3.779017-0.0318 0.923079 0.743124 2.115067 1.161767 3.408005 1.091835 2.662488-0.146702 4.717147-2.401204 4.717147-5.066959v-0.545918c0 2.665756-2.054659 4.925566-4.717147 5.072259-1.292938 0.06993-2.484926-0.354011-3.408005-1.097134-1.106301-0.889676-2.662624-0.847918-3.779017 0.0318-0.849734 0.669778-1.925599 1.070633-3.0953 1.070633-1.169695 0-2.23496-0.400855-3.084694-1.070633-1.129612-0.889676-2.686477-0.889676-3.816119 0-0.843079 0.663241-1.905213 1.063955-3.058195 1.070633-2.769139 0.01981-5.029858-2.313763-5.029858-5.082859z" fill="#cde4ff" filter="url(#filter723)" stroke-width="1.12254"/>
      <path id="path3" d="m32.000002 13c-8.280706 0-14.994169 6.713373-14.994169 14.994168v17.411042c0 2.769095 2.260719 5.102668 5.029858 5.082858 1.152982-0.0068 2.215116-0.407392 3.058195-1.070632 1.129642-0.889676 2.686507-0.889676 3.816119 0 0.849734 0.669778 1.914999 1.070632 3.084694 1.070632 1.169701 0 2.245566-0.400854 3.0953-1.070632 1.116393-0.87972 2.672716-0.921478 3.779017-0.03181 0.923079 0.743124 2.115067 1.167066 3.408005 1.097135 2.662488-0.146702 4.717147-2.406504 4.717147-5.072259v-17.416336c0-8.280795-6.713314-14.994169-14.994166-14.994166zm-9.413094 10.25052c0.292565-0.02062 0.596807 0.04396 0.869226 0.20141l5.586375 3.227803c1.013056 0.586625 1.013056 2.052997 0 2.639481l-5.586375 3.222501c-0.729777 0.419891-1.663103 0.169985-2.082964-0.556517-0.419878-0.729764-0.169931-1.657915 0.556517-2.077665l3.307303-1.908059-3.307303-1.91336c-0.726448-0.419893-0.976395-1.351168-0.556517-2.077664 0.262413-0.454065 0.726127-0.723379 1.213738-0.757924zm11.766366 3.222501h7.340728c0.843053 0 1.521148 0.678095 1.521148 1.521147 0 0.843053-0.681365 1.521148-1.521148 1.521148h-7.340728c-0.843052 0-1.521148-0.678095-1.521148-1.521148 0-0.843052 0.681507-1.521147 1.521148-1.521147z" fill="url(#linearGradient9)" stroke-width="1.12254"/>
      <path id="path10" transform="matrix(2.7134564,0,0,2.7134564,-23.483696,-22.952461)" d="m16.96875 16.916016c-0.211482-0.0054-0.420131 0.103173-0.533203 0.298828-0.164474 0.284582-0.06582 0.649972 0.21875 0.814453l1.294922 0.748047-1.294922 0.748047c-0.284559 0.164425-0.383224 0.52859-0.21875 0.814453 0.164468 0.284581 0.528585 0.381277 0.814453 0.216797l2.189453-1.263672c0.396834-0.229737 0.396834-0.801458 0-1.03125v-2e-3l-2.189453-1.263625c-0.08893-0.0514-0.185122-0.07761-0.28125-0.08008zm0.0098 0.111328c0.107811-0.0076 0.219925 0.0162 0.320312 0.07422l2.058594 1.189454c0.373314 0.216173 0.373314 0.756535 0 0.972656l-2.058594 1.1875c-0.268925 0.154731-0.612858 0.06264-0.767578-0.205078-0.154726-0.26892-0.06262-0.610946 0.205078-0.765625l1.21875-0.703125-1.21875-0.705078c-0.267698-0.154732-0.359804-0.497909-0.205078-0.765625 0.0967-0.167324 0.26758-0.266567 0.447266-0.279297z" fill="#e0efff" filter="url(#filter13)" stroke-width=".413693" style="mix-blend-mode:normal"/>
      <path id="path11" transform="matrix(2.7136846,0,0,2.7136846,-23.487429,-22.956321)" d="m21.244141 18.185547c-0.325616 0-0.591797 0.262906-0.591797 0.589844 0 0.326939 0.264858 0.589843 0.591797 0.589843h2.845703c0.32567 0 0.591797-0.262903 0.591797-0.589843 0-0.326938-0.264858-0.589844-0.591797-0.589844zm0.07031 0.0293h2.705078c0.310667 0 0.560547 0.24988 0.560547 0.560547s-0.251085 0.560547-0.560547 0.560547h-2.705078c-0.310667 0-0.560547-0.24988-0.560547-0.560547s0.251137-0.560547 0.560547-0.560547z" fill="#e0efff" filter="url(#filter14)" stroke-width=".413659"/>
    </g>
  </g>
</svg>
