<svg id="svg290" version="1.1" viewBox="0 0 64 64" xmlns="http://www.w3.org/2000/svg">
    <defs id="defs278">
        <style id="style266" type="text/css"/>
        <style id="style268" type="text/css"/>
        <filter id="filter1057" x="-.026999999" y="-.026999999" width="1.054" height="1.054" color-interpolation-filters="sRGB">
            <feGaussianBlur id="feGaussianBlur270" stdDeviation="0.61875"/>
        </filter>
        <linearGradient id="linearGradient1053" x1="-127" x2="-72" y1="60" y2="5" gradientTransform="translate(131.5 -.51)" gradientUnits="userSpaceOnUse">
            <stop id="stop273" stop-color="#ffe5ff" offset="0"/>
            <stop id="stop275" stop-color="#cee9fd" stop-opacity=".99608004" offset="1"/>
        </linearGradient>
    </defs>
    <rect id="rect280" x="4.5" y="4.5" width="55" height="55" ry="15" fill="#141414" filter="url(#filter1057)" opacity=".3" stroke-linecap="round" stroke-width="2.7444"/>
    <rect id="rect282" x="4.5" y="4.5" width="55" height="55" ry="15" fill="url(#linearGradient1053)" stroke-linecap="round" stroke-width="2.7444"/>
    <circle id="circle284" cx="-1326.3" cy="-1241.6" r="0" fill="#5e4aa6"/>
    <circle id="circle286" cx="-226.72" cy="23.855" r="0" fill="#5e4aa6" fill-rule="evenodd"/>
    <g stroke-width=".964912">
        <path id="path3414" d="m11.253906 9.8066406v2.8945314c0 1.190068-0.673455 2.487425-1.5703122 3.859375-0.00204 2e-3 -0.0057526 0.003859-0.0078126 0.005859-1.8418086 3.477676-5.1778187 7.033511-5.1757812 11.615235v16.318359c0 8.309992 6.690008 15 15 15h25c8.309992 0 15-6.690008 15-15v-15.28125c0-2.472617-1.632497-4.84008-3.859375-5.902344v-0.964844-3.859374h-11.580078v3.859374 0.964844c-2.218726 1.064266-3.859375 3.43573-3.859375 5.902344v-5.902344l-2.894531-7.720703v-2.894531h-10.613282v2.894531s-2.894531 7.276152-2.894531 7.722656v4.863282c0-4.581724-3.296784-8.139471-5.140625-11.617188-8.91e-4 -8.92e-4 -0.001018-0.003006-0.001953-0.003906h0.001953c-0.897643-1.371422-1.590288-2.669665-1.615234-3.859375v-2.8945314h-5.789063z" opacity=".2"/>
        <path id="path3416" d="m18.654297 15.59375-8.9726564 0.001953c-0.00204 2e-3 -0.0037994 0.00386-0.0058594 0.005859-1.8418062 3.477715-5.1778187 7.033511-5.1757812 11.615235v17.283203c0 8.309992 6.690008 15 15 15h4.298828v-32.283203c0-4.581724-3.294831-8.139471-5.138672-11.617188-2e-3 -2e-3 -0.003959-0.003859-0.005859-0.005859z" fill="#ff9a33"/>
        <path id="path3418" d="m40.201172 22.351562-16.402344 0.001954v37.146484h16.402344v-37.148438z" fill="#fff"/>
        <path id="path3420" d="m26.692983 14.63158s-2.894737 7.274812-2.894737 7.721317l16.403508-2e-3 -2.894737-7.719298z" fill="#deddda"/>
        <path id="path3422" d="m11.254387 11.736843c0 1.190068-0.675644 2.487678-1.5725013 3.859629l8.9777903 2e-5c-0.897644-1.371454-1.59087-2.669939-1.615816-3.859649z" fill="#deddda"/>
        <path id="path3424" d="m26.692983 11.736843v2.894737h10.614034v-2.894737z" fill="#3081e2"/>
        <path id="path3426" d="m14.149123 31.035088c-3.197779 0-5.7894731 2.591693-5.7894731 5.789473 0 3.197779 2.5916941 5.789474 5.7894731 5.789474 3.19778 0 5.789474-2.591695 5.789474-5.789474 0-3.19778-2.591694-5.789473-5.789474-5.789473zm17.850877 0c-5.467836 0-5.467208 6.754386-5.467208 6.754386h-2.734546v6.754385h16.403508v-6.754385h-2.734546s6.26e-4 -6.754386-5.467208-6.754386zm0 1.929824s3.375703 3.103392 2.140899 4.637987c-1.2348 1.534596-3.046992 1.534596-4.281798 0-1.234803-1.534595 2.140899-4.637987 2.140899-4.637987z" opacity=".1"/>
        <path id="path3428" d="m32 30.070176c-5.467836 0-5.467208 6.754385-5.467208 6.754385h-2.734546v6.754386h16.403508v-6.754386h-2.734546s6.26e-4 -6.754385-5.467208-6.754385zm0 1.929824s3.375703 3.103391 2.140899 4.637987c-1.2348 1.534595-3.046992 1.534595-4.281798 0-1.234803-1.534596 2.140899-4.637987 2.140899-4.637987z" fill="#3081e2"/>
        <path id="path3430" d="m44.060547 22.351562c-2.218726 1.064266-3.859375 3.435731-3.859375 5.902344v31.246094h4.298828c8.309992 0 15-6.690008 15-15v-16.246094c0-2.472616-1.632497-4.84008-3.859375-5.902344h-11.580078z" fill="#ee3a3e"/>
        <path id="path3432" d="m11.254387 8.8421061h5.789473v2.8947369h-5.789473z" fill="#2eae5d"/>
        <path id="path3434" d="m44.061403 21.385965h11.578947v0.964913h-11.578947z" fill="#64636a"/>
        <path id="path3436" d="m44.061403 17.526316h11.578947v3.859649h-11.578947z" fill="#cac9c6"/>
        <path id="path3438" d="m53.710938 51.298828v2.894531h2.246093c0.746115-0.881875 1.384052-1.854121 1.91211-2.894531h-4.158203z" fill="#c8c7c4"/>
        <path id="path3440" d="m14.149123 30.070176c-3.197779 0-5.7894731 2.591694-5.7894731 5.789474 0 3.197779 2.5916941 5.789473 5.7894731 5.789473 3.19778 0 5.789474-2.591694 5.789474-5.789473 0-3.19778-2.591694-5.789474-5.789474-5.789474z" fill="#2eae5d"/>
        <path id="path3442" d="m11.254387 8.8421061v0.9649122h5.789473v-0.9649122zm0 2.8947369c0 1.190068-0.674894 2.487698-1.5717519 3.859649-0.00204 2e-3 -0.00548 0.0037-0.00754 0.0057-1.8418064 3.477672-5.1771317 7.03298-5.1750942 11.614708v0.964912c-0.00204-4.581728 3.3332852-8.137076 5.1750957-11.614755 0.00206-2e-3 0.0055-0.0037 0.00754-0.0057 0.8968604-1.371911 1.5717544-2.66954 1.5717544-3.859609zm5.789473 0v0.964912c0.02494 1.189711 0.717453 2.488189 1.615097 3.859649h-0.0019c9.65e-4 8.68e-4 9.65e-4 0.0029 0.0019 0.0038 1.843843 3.477726 5.139289 7.034917 5.139289 11.616645v-0.964949c0-4.581728-3.295446-8.138919-5.139289-11.616639-8.91e-4 -8.92e-4 -9.65e-4 -0.0029-0.0019-0.0038h0.0019c-0.897644-1.37146-1.590151-2.669945-1.615097-3.859655zm9.649123 0v0.964912h10.614034v-0.964912zm0 2.894737s-2.894737 7.274677-2.894737 7.721182v0.964912c0-0.446505 2.894737-7.721182 2.894737-7.721182zm10.614034 0v0.964912l2.894737 7.719298v-0.964912zm6.754386 2.894736v0.964913h11.578947v-0.964913zm0 4.824562c-2.218728 1.064267-3.859649 3.435932-3.859649 5.902549v0.964912c0-2.466616 1.640921-4.838282 3.859649-5.902549zm11.578947 0v0.964912c2.22688 1.062265 3.859649 3.42993 3.859649 5.902549v-0.964912c0-2.472619-1.632769-4.840284-3.859649-5.902549z" fill="#fff" opacity=".2"/>
        <path id="path3444" d="m53.710938 54.193359v0.964844h1.361328c0.30984-0.307339 0.602686-0.631438 0.884765-0.964844h-2.246093z" opacity=".2"/>
    </g>
</svg>
