<?xml version="1.0" encoding="utf-8"?>
<svg xmlns="http://www.w3.org/2000/svg" width="64" height="64" viewBox="0 0 16.933 16.933">
  <defs>
    <filter id="shadow" x="-0.027" y="-0.027" width="1.054" height="1.054">
      <feGaussianBlur stdDeviation="0.61875"/>
    </filter>
    <linearGradient id="bg" x1="-127" y1="60" x2="-72" y2="5" gradientUnits="userSpaceOnUse" gradientTransform="matrix(0.26457812 0 0 0.26457812 34.792 -0.135)">
      <stop offset="0" stop-color="#32d7ff"/>
      <stop offset="1" stop-color="#329bff"/>
    </linearGradient>
  </defs>
  <rect x="4.5" y="4.5" width="55" height="55" ry="15" transform="scale(0.26457812)" fill="#141414" opacity="0.3" filter="url(#shadow)"/>
  <rect x="1.1906" y="1.1906" width="14.5518" height="14.5518" ry="3.9687" fill="url(#bg)"/>
  <path fill="#fff" d="M 5.401 6.044 C 6.744 4.229 9.347 5.135 10.654 6.541 C 9.139 5.352 6.904 6.25 6.633 8.156 C 6.362 10.063 8.255 11.549 10.043 10.832 C 10.635 10.594 11.114 10.137 11.382 9.557 L 13.683 11.877 C 11.885 14.264 8.551 14.865 6.033 13.255 C 5.395 14.015 4.886 14.225 3.79 14.265 C 4.672 13.514 4.695 12.673 4.282 11.504 C 4.149 11.299 4.03 11.085 3.925 10.867 C 3.633 9.608 4.079 7.752 5.355 7.233 L 5.401 6.044 Z"/>
  <path fill="#fff" d="M9.107 2.689 C11.018 2.689 12.715 3.626 13.756 5.068 L11.372 7.451 C11.205 7.096 10.959 6.783 10.65 6.541 C9.335 5.308 6.979 5.604 5.351 7.237 C4.286 8.297 3.831 9.694 3.921 10.862 C2.131 7.062 4.906 2.688 9.107 2.689 Z"/>
</svg>