<svg id="svg5" version="1.1" viewBox="0 0 64 64" xmlns="http://www.w3.org/2000/svg">
  <defs id="defs3">
    <style id="style1" type="text/css"/>
    <style id="style2" type="text/css"/>
    <filter id="filter1057" x="-.026999999" y="-.026999999" width="1.054" height="1.054" color-interpolation-filters="sRGB">
      <feGaussianBlur id="feGaussianBlur2" stdDeviation="0.61875"/>
    </filter>
    <linearGradient id="b" x1="61.999939" x2="61.999939" y1="83.999985" y2="107.99998" gradientTransform="translate(-176.71161,-35.239793)" gradientUnits="userSpaceOnUse">
      <stop id="stop7" offset="0"/>
      <stop id="stop8" stop-opacity="0" offset="1"/>
    </linearGradient>
    <linearGradient id="a" x1="43.999931" x2="83.719292" y1="118.99998" y2="118.99998" gradientTransform="translate(-176.71161,-35.239793)" gradientUnits="userSpaceOnUse">
      <stop id="stop1" stop-color="#9a9996" offset="0"/>
      <stop id="stop2-3" stop-color="#cececc" offset=".0950709"/>
      <stop id="stop3-6" stop-color="#84837f" offset=".209258"/>
      <stop id="stop4" stop-color="#9a9996" offset=".784173"/>
      <stop id="stop5" stop-color="#bcbcba" offset=".916805"/>
      <stop id="stop6" stop-color="#595956" offset="1"/>
    </linearGradient>
    <linearGradient id="linearGradient1" x1="-99.500008" x2="-99.500008" y1="60.009998" y2="2.26" gradientTransform="matrix(.90909091 0 0 .90909091 122.45455 2.4454546)" gradientUnits="userSpaceOnUse">
      <stop id="stop14" stop-color="#3584e4" offset="0"/>
      <stop id="stop13" stop-color="#1a5fb4" offset="1"/>
    </linearGradient>
  </defs>
  <g id="g15" transform="matrix(.62683975 0 0 .3849396 102.40159 30.819052)">
    <path id="path10" d="m-121.06708 20.103957c-3.69922 0.0039-6.78125 2.839844-7.08984 6.527344l-4.19141 50.304686c-0.16797 1.98047 0.50781 3.94141 1.85156 5.40625 1.34766 1.46485 3.2461 2.29688 5.23829 2.29688h25.15234c1.98828 0 3.886718-0.83203 5.234374-2.29688 1.347656-1.46484 2.019531-3.42578 1.855468-5.40625l-4.191406-50.304686c-0.308594-3.6875-3.390626-6.523438-7.089846-6.527344z" fill="url(#a)"/>
    <path id="path11" d="m-121.06708 17.728957c-3.69922 0.0039-6.78125 2.839844-7.08984 6.527344l-4.19141 50.304686c-0.16797 1.98047 0.50781 3.94141 1.85156 5.40625 1.34766 1.46485 3.2461 2.29688 5.23829 2.29688h25.15234c1.98828 0 3.886718-0.83203 5.234374-2.29688 1.347656-1.46484 2.019531-3.42578 1.855468-5.40625l-4.191406-50.304686c-0.308594-3.6875-3.390626-6.523438-7.089846-6.527344z" fill="#c0bfbc"/>
    <path id="path12" d="m-121.06708 17.728957c-3.69922 0.0039-6.78125 2.839844-7.08984 6.527344l-4.19141 50.304686c-0.16797 1.98047 0.50781 3.94141 1.85156 5.40625 1.34766 1.46485 3.2461 2.29688 5.23829 2.29688h25.15234c1.98828 0 3.886718-0.83203 5.234374-2.29688 1.347656-1.46484 2.019531-3.42578 1.855468-5.40625l-4.191406-50.304686c-0.308594-3.6875-3.390626-6.523438-7.089846-6.527344z" fill="url(#b)"/>
  </g>
  <rect id="rect3" x="4.5" y="4.5" width="55" height="55" ry="15" fill="#141414" filter="url(#filter1057)" opacity=".3" stroke-linecap="round" stroke-width="2.7444"/>
  <rect id="rect4" x="4.5" y="4.5" width="55" height="55" ry="15" fill="#c0bfbc" stroke-linecap="round" stroke-width="2.7444"/>
  <circle id="circle4" cx="-1326.3" cy="-1241.6" r="0" fill="#5e4aa6"/>
  <circle id="circle5" cx="-226.72" cy="23.855" r="0" fill="#5e4aa6" fill-rule="evenodd"/>
  <rect id="rect1" x="7" y="7" width="50" height="50" ry="13.636364" fill="url(#linearGradient1)" stroke-linecap="round" stroke-width="2.49491"/>
  <g id="g14" transform="matrix(.70769981 0 0 .70769981 111.62505 17.522251)">
    <path id="path15" d="m-128.73114 44.478957h32.01953c1.09375 0 1.980469-0.886719 1.980469-1.980469v-4.039062c0-0.496094-0.214844-0.96875-0.59375-1.296875-0.375-0.324219-0.875-0.472656-1.367188-0.402344l-32.261721 4.609375c-0.8125 0.117187-1.39453 0.839844-1.33593 1.65625 0.0547 0.820313 0.73828 1.453125 1.55859 1.453125z" fill="#1a5fb4"/>
    <path id="path16" d="m-112.84052-1.564012c-1.10546 0-2 0.89062505-2 2v2c0 1.105469 0.89454 2 2 2 1.10938 0 2-0.894531 2-2v-2c0-1.109375-0.89062-2-2-2zm-9.98828 4.007813c-0.50781 0-1.01953 0.195312-1.41406 0.589844-0.78125 0.78125-0.78125 2.042968 0 2.828124l1.41406 1.414063c0.78516 0.78125 2.04688 0.78125 2.82813 0 0.78515-0.785156 0.78515-2.046875 0-2.828125l-1.41406-1.414062c-0.39063-0.394532-0.90235-0.589844-1.41407-0.589844zm19.97657 0c-0.51172 0-1.01954 0.195312-1.41407 0.589844l-1.41406 1.414062c-0.78125 0.78125-0.78125 2.042969 0 2.828125 0.78516 0.78125 2.04688 0.78125 2.82813 0l1.41406-1.414063c0.78515-0.785156 0.78515-2.046874 0-2.828124-0.39063-0.394532-0.90235-0.589844-1.41406-0.589844zm-9.98829 3.992187c-4.41796 0-8 3.578125-8 7.996094 0 4.421875 3.58204 8 8 8 4.41797 0 8-3.578125 8-8 0-4.417969-3.58203-7.996094-8-7.996094zm0 3.996094c2.21094 0 4 1.792969 4 4 0 2.210937-1.78906 4-4 4-2.20703 0-4-1.789063-4-4 0-2.207031 1.79297-4 4-4zm-14 2c-1.10546 0-2 0.894531-2 2 0 1.109375 0.89454 2 2 2h2c1.10938 0 2-0.890625 2-2 0-1.105469-0.89062-2-2-2zm26 0c-1.10546 0-2 0.894531-2 2 0 1.109375 0.89454 2 2 2h2.000004c1.109375 0 2-0.890625 2-2 0-1.105469-0.890625-2-2-2zm-20.67187 8.574219c-0.47656 0.02344-0.94922 0.21875-1.31641 0.585937l-1.41406 1.414063c-0.78125 0.785156-0.78125 2.046875 0 2.828125 0.78516 0.785156 2.04688 0.785156 2.82813 0l1.41406-1.414063c0.78515-0.78125 0.78515-2.042968 0-2.828125-0.41406-0.414062-0.96875-0.609375-1.51172-0.585937zm17.14844 0c-0.47657 0.02344-0.94922 0.21875-1.31641 0.585937-0.78125 0.785157-0.78125 2.046875 0 2.828125l1.41406 1.414063c0.78516 0.785156 2.04688 0.785156 2.82813 0 0.78515-0.78125 0.78515-2.042969 0-2.828125l-1.41406-1.414063c-0.41407-0.414062-0.96875-0.609375-1.51172-0.585937zm-8.58203 3.425781c-1.0586 0.05469-1.89454 0.929687-1.89454 2v2c0 1.109375 0.89454 2 2 2 1.10938 0 2-0.890625 2-2v-2c0-1.105469-0.89062-2-2-2h-0.10546z" fill="#1a5fb4"/>
    <g id="g18" transform="translate(-176.71161,-35.239793)" fill="#ffffff">
      <path id="path17" d="m63.871094 31.675781c-1.105469 0-2 0.890625-2 2v2c0 1.105469 0.894531 2 2 2 1.109375 0 2-0.894531 2-2v-2c0-1.109375-0.890625-2-2-2zm-9.988282 4.007813c-0.507812 0-1.019531 0.195312-1.414062 0.589844-0.78125 0.78125-0.78125 2.042968 0 2.828124l1.414062 1.414063c0.785157 0.78125 2.046876 0.78125 2.828126 0 0.785156-0.785156 0.785156-2.046875 0-2.828125l-1.414063-1.414062c-0.390625-0.394532-0.902344-0.589844-1.414063-0.589844zm19.976563 0c-0.511719 0-1.019531 0.195312-1.414063 0.589844l-1.414062 1.414062c-0.78125 0.78125-0.78125 2.042969 0 2.828125 0.785156 0.78125 2.046875 0.78125 2.828125 0l1.414063-1.414063c0.785156-0.785156 0.785156-2.046874 0-2.828124-0.390626-0.394532-0.902344-0.589844-1.414063-0.589844zm-9.988281 3.992187c-4.417969 0-8 3.578125-8 7.996094 0 4.421875 3.582031 8 8 8 4.417968 0 8-3.578125 8-8 0-4.417969-3.582032-7.996094-8-7.996094zm0 3.996094c2.210937 0 4 1.792969 4 4 0 2.210937-1.789063 4-4 4-2.207032 0-4-1.789063-4-4 0-2.207031 1.792968-4 4-4zm-14 2c-1.105469 0-2 0.894531-2 2 0 1.109375 0.894531 2 2 2h2c1.109375 0 2-0.890625 2-2 0-1.105469-0.890625-2-2-2zm26 0c-1.105469 0-2 0.894531-2 2 0 1.109375 0.894531 2 2 2h2c1.109375 0 2-0.890625 2-2 0-1.105469-0.890625-2-2-2zm-20.671875 8.574219c-0.476563 0.02344-0.949219 0.21875-1.316407 0.585937l-1.414062 1.414063c-0.78125 0.785156-0.78125 2.046875 0 2.828125 0.785156 0.785156 2.046875 0.785156 2.828125 0l1.414063-1.414063c0.785156-0.78125 0.785156-2.042968 0-2.828125-0.414063-0.414062-0.96875-0.609375-1.511719-0.585937zm17.148437 0c-0.476562 0.02344-0.949218 0.21875-1.316406 0.585937-0.78125 0.785157-0.78125 2.046875 0 2.828125l1.414062 1.414063c0.785157 0.785156 2.046876 0.785156 2.828126 0 0.785156-0.78125 0.785156-2.042969 0-2.828125l-1.414063-1.414063c-0.414063-0.414062-0.96875-0.609375-1.511719-0.585937zm-8.582031 3.425781c-1.058594 0.05469-1.894531 0.929687-1.894531 2v2c0 1.109375 0.894531 2 2 2 1.109375 0 2-0.890625 2-2v-2c0-1.105469-0.890625-2-2-2h-0.105469z"/>
      <path id="path18" d="m47.980469 77.71875h32.019531c1.09375 0 1.980469-0.886719 1.980469-1.980469v-4.039062c0-0.496094-0.214844-0.96875-0.59375-1.296875-0.375-0.324219-0.875-0.472656-1.367188-0.402344l-32.261719 4.609375c-0.8125 0.117187-1.394531 0.839844-1.335937 1.65625 0.05469 0.820313 0.738281 1.453125 1.558594 1.453125z"/>
    </g>
  </g>
</svg>
