<svg id="svg855" width="64" height="64" version="1.1" viewBox="0 0 16.933 16.933" xmlns="http://www.w3.org/2000/svg" xmlns:xlink="http://www.w3.org/1999/xlink">
    <defs id="defs845">
        <filter id="filter1057" x="-.026999999" y="-.026999999" width="1.054" height="1.054" color-interpolation-filters="sRGB">
            <feGaussianBlur id="feGaussianBlur833" stdDeviation="0.61875"/>
        </filter>
        <linearGradient id="linearGradient1053" x1="-127" x2="-72.085052" y1="60" y2="5.0749507" gradientTransform="matrix(.26458 0 0 .26458 34.792 -.13493)" gradientUnits="userSpaceOnUse">
            <stop id="stop836" stop-color="#e5a50a" offset="0"/>
            <stop id="stop838" stop-color="#f6d32d" offset="1"/>
        </linearGradient>
        <linearGradient id="c" x1="24" x2="60" y1="28.999998" y2="28.999998" gradientTransform="matrix(.12025674 0 0 .10018129 .79681756 .84788605)" xlink:href="#b"/>
        <linearGradient id="b" gradientUnits="userSpaceOnUse">
            <stop id="stop1136" stop-color="#a51d2d" offset="0"/>
            <stop id="stop1138" stop-color="#e01b24" offset=".2"/>
            <stop id="stop1140" stop-color="#a51d2d" offset="1"/>
        </linearGradient>
        <linearGradient id="g" x1="-68" x2="-32" y1="118" y2="118" gradientTransform="matrix(-.12025674 0 0 .10018129 5.1260606 -8.769517)" xlink:href="#d"/>
        <linearGradient id="d" gradientUnits="userSpaceOnUse">
            <stop id="stop1144" stop-color="#c01c28" offset="0"/>
            <stop id="stop1146" stop-color="#e01b24" offset=".155812"/>
            <stop id="stop1148" stop-color="#f66151" offset=".333333"/>
            <stop id="stop1150" stop-color="#e01b24" offset=".575341"/>
            <stop id="stop1152" stop-color="#e01b24" offset=".730402"/>
            <stop id="stop1154" stop-color="#a51d2d" offset="1"/>
        </linearGradient>
        <linearGradient id="e" x1="24" x2="60" y1="21.999998" y2="21.999998" gradientTransform="matrix(.12025674 0 0 .10018129 .79681756 .84788605)" xlink:href="#d"/>
        <linearGradient id="f" x1="-68" x2="-32" y1="125" y2="125" gradientTransform="matrix(-.12025674 0 0 .10018129 5.1260606 -8.769517)" xlink:href="#b"/>
        <linearGradient id="h" x1="60" x2="68" y1="221" y2="221" gradientTransform="matrix(.24051348 0 0 .09461562 -6.8996133 -16.706101)" gradientUnits="userSpaceOnUse">
            <stop id="stop1160" stop-color="#a51d2d" offset="0"/>
            <stop id="stop1162" stop-color="#ed333b" offset=".5"/>
            <stop id="stop1164" stop-color="#c01c28" offset="1"/>
        </linearGradient>
    </defs>
    <g id="g851" stroke-linecap="round">
        <rect id="rect847" transform="scale(.26458)" x="4.5" y="4.5" width="55" height="55" ry="15" fill="#141414" filter="url(#filter1057)" opacity=".3" stroke-width="2.7444"/>
        <rect id="rect849" x="1.1906" y="1.1906" width="14.552" height="14.552" ry="3.9687" fill="url(#linearGradient1053)" stroke-width=".72600238"/>
    </g>
    <g id="g10877" transform="matrix(.90089347 0 0 .90089347 1.3157989 .81148055)" fill="#241f31" stroke-width=".189444">
        <g id="g1363" transform="translate(-.52915625)">
            <path id="path1173" d="m5.467219 8.7970531-1.7049941 4.6036339h-1.6420941l2.5256716-6.8199792h1.6420928l2.5256715 6.8199792h-1.6413524z"/>
            <path id="path1175" d="m3.6356821 10.875015h3.6623347v1.262466h-3.6623347z"/>
        </g>
        <g id="g1367" transform="translate(-.52915625)">
            <path id="path1177" d="m13.297318 8.6016887h1.515551v4.7989983h-1.515551z"/>
            <path id="path1179" d="m11.825428 8.6016887c-1.283186 0.011092-2.3169875 1.1107626-2.3169875 2.4627703 0 1.360147 1.0463825 2.462771 2.3362285 2.462771 1.290586 0 2.336967-1.102624 2.336967-2.462771 0-1.3601475-1.046381-2.4627703-2.336967-2.4627703h-0.01924zm0.335227 1.3890081c0.557971 0 1.01012 0.4802702 1.01012 1.0737622 0 0.592752-0.452149 1.073022-1.01012 1.073022-0.557972 0-1.01012-0.48027-1.01012-1.073022 0-0.593492 0.452148-1.0737622 1.01012-1.0737622z"/>
        </g>
    </g>
    <path id="path1171" d="m1.1917618 4.9130183h14.551066v0.4317374h-14.551066z" fill="#f5dfa3" stroke-width=".07713"/>
    <g id="g10041" transform="translate(0 .52915625)">
        <g stroke-width=".109761">
            <path id="path1187" d="m3.6829788 2.6511492v1.0018129c0 0.6640923 0.6459112 1.2021754 1.4430818 1.2021754h2.8861613v-1.2021754h-2.8861613c-0.7036904-3.914e-4 -1.3045043-0.4238139-1.421943-1.0018129z" fill="url(#c)"/>
            <path id="path1193" d="m11.860437 1.2486111c0.797171 0 1.443081 0.5380834 1.443081 1.2021756v1.2021754c0-0.6640924-0.64591-1.2021751-1.443081-1.2021751-0.79717 0-1.44308 0.5380828-1.44308 1.2021751 0 0.2109286-0.06671 0.4183352-0.193069 0.6010877-0.2578938 0.3717666-0.7346937 0.6010877-1.2500119 0.6010877v-1.2021754c0.5153182 0 0.9921181-0.2293212 1.2500119-0.6010878 0.126364-0.1827525 0.193069-0.3901591 0.193069-0.6010876 0-0.6640923 0.64591-1.2021756 1.44308-1.2021756z" fill="url(#g)"/>
            <path id="path1189" d="m5.1260606 1.2486111c-0.7971706 0-1.4430818 0.5380834-1.4430818 1.2021756v1.2021754c0-0.6640924 0.6459112-1.2021751 1.4430818-1.2021751 0.7971707 0 1.4430807 0.5380828 1.4430807 1.2021751 0 0.2109286 0.066705 0.4183352 0.1930684 0.6010877 0.2578941 0.3717666 0.7346928 0.6010877 1.2500122 0.6010877v-1.2021754c-0.5153194 0-0.9921181-0.2293212-1.2500122-0.6010878-0.1263639-0.1827525-0.1930684-0.3901591-0.1930684-0.6010876 0-0.6640923-0.64591-1.2021756-1.4430807-1.2021756z" fill="url(#e)"/>
            <path id="path1191" d="m13.303518 2.6511492v1.0018129c0 0.6640923-0.64591 1.2021754-1.443081 1.2021754h-2.8861609v-1.2021754h2.8861609c0.703691-3.906e-4 1.304505-0.4238139 1.421942-1.0018129z" fill="url(#f)"/>
            <path id="path1195" d="m8.1324791 3.3524182h0.7215398c0.3321156 0 0.6012836 0.2242339 0.6012836 0.5009064v0.701269c0 0.2766726-0.269168 0.5009065-0.6012836 0.5009065h-0.7215398c-0.3321157 0-0.6012837-0.2242339-0.6012837-0.5009065v-0.701269c0-0.2766725 0.269168-0.5009064 0.6012837-0.5009064z" fill="url(#h)"/>
        </g>
        <path id="path1197" d="m7.5288902 4.0698263v0.4731069c0 0.3275711 0.2684176 0.5913836 0.6017053 0.5913836h0.7220473c0.3332889 0 0.6017054-0.2638125 0.6017054-0.5913836v-0.4731069c0 0.3275712-0.2684165 0.5913838-0.6017054 0.5913838h-0.7220473c-0.3332877 0-0.6017053-0.2638126-0.6017053-0.5913838z" fill="#a51d2d" stroke-width=".119305"/>
    </g>
</svg>
