<svg id="svg8" width="64" height="64" version="1.1" viewBox="0 0 16.933333 16.933334" xmlns="http://www.w3.org/2000/svg" xmlns:xlink="http://www.w3.org/1999/xlink">
    <defs id="defs2">
        <filter id="filter1057" x="-.026999999" y="-.026999999" width="1.054" height="1.054" color-interpolation-filters="sRGB">
            <feGaussianBlur id="feGaussianBlur1059" stdDeviation="0.61875"/>
        </filter>
        <linearGradient id="linearGradient1053" x1="-127" x2="-72" y1="60" y2="5" gradientTransform="matrix(.26458333 0 0 .26458333 34.792707 -.1349368)" gradientUnits="userSpaceOnUse">
            <stop id="stop1047" stop-color="#27536b" offset="0"/>
            <stop id="stop1049" stop-color="#397799" offset="1"/>
        </linearGradient>
    </defs>
    <g id="layer1">
        <rect id="rect1055" transform="scale(.26458333)" x="4.5" y="4.5" width="55" height="55" ry="15" fill="#141414" filter="url(#filter1057)" opacity=".3" stroke-linecap="round" stroke-width="2.74436"/>
        <rect id="rect1045" x="1.1906254" y="1.1906255" width="14.552082" height="14.552082" ry="3.9687498" fill="url(#linearGradient1053)" stroke-linecap="round" stroke-width=".726112"/>
        <g id="g1223" transform="matrix(.11865853 0 0 .11865853 17.386876 12.174629)">
            <g fill="#fff">
                <polygon id="polygon423" transform="matrix(.26458333 0 0 .26458333 -144.78623 -94.079113)" points="382.504 131.078 334.304 136.407 382.504 141.735 387.832 189.935 393.161 141.735 441.361 136.407 393.161 131.078 387.832 82.878"/>
                <polygon id="polygon425" transform="matrix(.26458333 0 0 .26458333 -144.78623 -94.079113)" points="168.288 396.051 131.293 400.14 168.288 404.23 172.379 441.226 176.468 404.23 213.465 400.14 176.468 396.051 172.379 359.054"/>
                <polygon id="polygon427" transform="matrix(.26458333 0 0 .26458333 -144.78623 -94.079113)" points="75.022 224.408 46.286 227.585 75.022 230.761 78.198 259.497 81.375 230.761 110.111 227.585 81.375 224.408 78.198 195.672"/>
            </g>
            <g stroke-width=".264583">
                <path id="path431" d="m-82.151947 12.219356c9.656762 9.656763 25.121128 9.966855 35.150953 0.929482 10.924646-9.8435585 11.070696-26.968185 0.672571-37.366575l-62.255137-62.255134 7.98671 18.635397-26.2419-26.241639 22.05831 41.074181-28.52367-23.959873c-2.6e-4 0 36.129915 74.161649 51.152163 89.184161z" fill="#e0634b"/>
                <path id="path433" d="m-64.086727 16.470417c-5.961327-2.65e-4 -11.565466-2.321454-15.780014-6.5365313-10.553965-10.553964-22.285859-39.657337-33.478519-61.76645l29.795519 33.365281-23.783659-44.240714 23.818584 20.528756-9.106958-21.445272 44.008674 41.691982c4.426215 4.426215 6.871494 10.552642 6.708775 16.808715-0.160073 6.1616166-2.738173 11.7983-7.259108 15.871825-4.095221 3.690143-9.394825 5.722408-14.921442 5.722408h-0.0019z" fill="#f77759"/>
                <path id="path435" d="m-47.716162 3.9900212c-0.7874 1.3073062-1.742017 2.5381479-2.8702 3.6663312-7.455959 7.4559586-19.544506 7.4559586-27.000465 0-7.458868-7.4559582-7.458868-19.547416 0-27.003374 1.128184-1.128184 2.361936-2.085711 3.669242-2.8702 7.338483-4.415367 17.003448-3.457575 23.331223 2.8702 6.328039 6.32751 7.285831 15.99856 2.8702 23.337043z" fill="#efaa56"/>
                <path id="path437" d="m-47.716162 3.9900212c-7.338484 4.4153666-17.006359 3.4575749-23.334134-2.8702-6.330685-6.3277749-7.288477-15.998825-2.867289-23.337043 7.338483-4.415367 17.003448-3.457575 23.331223 2.8702 6.328039 6.32751 7.285831 15.99856 2.8702 23.337043z" fill="#f9b55a"/>
            </g>
            <ellipse id="ellipse439" transform="rotate(225)" cx="47.214619" cy="-30.626951" rx="5.3977122" ry="3.194284" fill="#f9c280" stroke-width=".264581"/>
            <g fill="#fff" stroke-width=".264581">
                <rect id="rect441" transform="rotate(-45)" x="-5.933146" y="-71.90477" width="2.7415862" height="2.7415862"/>
                <rect id="rect443" transform="rotate(-45)" x="-65.504158" y="-89.06134" width="2.7415862" height="2.7415862"/>
                <rect id="rect445" transform="rotate(-45)" x="-46.087109" y="-18.674755" width="2.7415862" height="2.7415862"/>
                <rect id="rect447" transform="rotate(-45)" x="-78.287956" y="-52.118492" width="2.7415862" height="2.7415862"/>
                <rect id="rect449" transform="rotate(-45)" x="-20.535936" y="-20.411343" width="2.7415862" height="2.7415862"/>
                <rect id="rect451" transform="rotate(-45)" x="1.7707925" y="-106.41984" width="2.7415862" height="2.7415862"/>
                <rect id="rect453" transform="rotate(-45)" x="4.0164676" y="-32.248802" width="2.7415862" height="2.7415862"/>
                <rect id="rect455" transform="rotate(-45)" x="-96.246689" y="-93.632462" width="2.7415862" height="2.7415862"/>
                <rect id="rect457" transform="rotate(-45)" x="19.909182" y="-89.892784" width="2.7415862" height="2.7415862"/>
            </g>
        </g>
    </g>
</svg>
