<svg id="svg332" width="64" height="64" version="1.1" viewBox="0 0 16.933 16.933" xmlns="http://www.w3.org/2000/svg" xmlns:xlink="http://www.w3.org/1999/xlink">
    <defs id="defs302">
        <filter id="filter1057" x="-.026999999" y="-.026999999" width="1.054" height="1.054" color-interpolation-filters="sRGB">
            <feGaussianBlur id="feGaussianBlur292" stdDeviation="0.61875"/>
        </filter>
        <linearGradient id="linearGradient1053" x1="-127" x2="-72" y1="60" y2="5" gradientTransform="matrix(.26458 0 0 .26458 34.792 -.13493)" gradientUnits="userSpaceOnUse">
            <stop id="stop295" stop-color="#3584e4" offset="0"/>
            <stop id="stop297" stop-color="#62a0ea" offset="1"/>
        </linearGradient>
    </defs>
    <rect id="rect304" transform="scale(.26458)" x="4.5" y="4.5" width="55" height="55" ry="15" fill="#141414" filter="url(#filter1057)" opacity=".3" stroke-linecap="round" stroke-width="2.7444"/>
    <rect id="rect306" x="1.1906" y="1.1906" width="14.552" height="14.552" ry="3.9686999" fill="url(#linearGradient1053)" stroke-linecap="round" stroke-width=".72611"/>
    <path id="path452" d="m2.6527437 9.5608217v0.6962583h0.6962584m-0.1392515-0.5570073v1.1140133m0.6962579-1.2532643h0.4177552v0.5570063h-0.4177552zm-0.2785032 0.5570063h0.83551v0.557007h-0.83551zm1.3925163-0.5570063h0.5570068v0.5570063h-0.5570068v0.557007h0.6962584m0.83551 0h0.2785031v-1.1140133h-0.6962584v0.5570063h0.6962584" fill="none" stroke="#fff" stroke-width=".278503"/>
    <path id="path454" d="m2.5134922 12.495848h4.4560525v1.114013h-4.4560525zm0-1.114014h2.7850331v0.557007h-2.7850331z" fill="#99c1f1" stroke-width=".139252"/>
    <g id="g2774" transform="translate(.2749131)">
        <path id="path466" d="m7.3978524 1.1906016 0.015353 14.551796h1.572116l-0.015353-14.551796z" fill="#6bf9f4" stroke-width=".228021"/>
        <path id="path468" d="m7.9270087 1.1906016 0.0101371 14.551796h0.5190191l-0.010137-14.551796z" fill="#fff" stroke-width=".185284"/>
    </g>
    <g id="g2782" transform="matrix(.49468975 0 0 .49468975 19.944306 8.4737909)" stroke-width=".264578">
        <path id="path458" d="m-20.260428 1.9159066h4.23325v4.23325h-4.23325z" fill="#fff"/>
        <path id="path460" d="m-16.027178 1.9159066h4.233249v4.23325h-4.233249z" fill="#fff" opacity=".8"/>
        <path id="path462" d="m-20.260428 6.1491566h4.23325v4.2332494h-4.23325z" fill="#62a0ea"/>
        <path id="path470" d="m-16.027178 6.1491566h4.233249v4.2332494h-4.233249z" fill="#99c1f1"/>
    </g>
    <g id="g2766" transform="matrix(.43153164 0 0 .43153164 17.708966 6.4026308)" stroke-width=".264578">
        <path id="path474" d="m-31.167132-6.9112132 2.271668 2.2716678a1.0384691 1.0384691 0 0 1 0 1.4694668l-2.271668 2.2716678a1.0384691 1.0384691 0 0 1-1.469467 0l-2.271668-2.2716678a1.0384691 1.0384691 0 0 1 0-1.4694668l2.271668-2.2716678a1.0384691 1.0384691 0 0 1 1.469467 0z" fill="#c64600"/>
        <path id="path476" d="m-27.463039-6.9112132 2.271668 2.2716678a1.0384691 1.0384691 0 0 1 0 1.4694668l-2.271668 2.2716678a1.0384691 1.0384691 0 0 1-1.469466 0l-2.271668-2.2716678a1.0384691 1.0384691 0 0 1 0-1.4694668l2.271668-2.2716678a1.0384691 1.0384691 0 0 1 1.469466 0z" fill="#f5c211"/>
        <path id="path478" d="m-30.049819-5.7938998-1.154354 1.1543544a1.0366171 1.0366171 0 0 0 0 1.4694668l1.154354 1.154619 1.154355-1.154619a1.0366171 1.0366171 0 0 0 0-1.4694668z" fill="#ff7800"/>
    </g>
</svg>
