<svg id="svg290" version="1.1" viewBox="0 0 64 64" xmlns="http://www.w3.org/2000/svg">
  <defs id="defs278">
    <style id="style266" type="text/css"/>
    <style id="style268" type="text/css"/>
    <filter id="filter1057" x="-.026999999" y="-.026999999" width="1.054" height="1.054" color-interpolation-filters="sRGB">
      <feGaussianBlur id="feGaussianBlur270" stdDeviation="0.61875"/>
    </filter>
    <linearGradient id="linearGradient1053" x1="-127" x2="-72" y1="60" y2="5" gradientTransform="translate(131.5 -.51)" gradientUnits="userSpaceOnUse">
      <stop id="stop273" stop-color="#3d3846" offset="0"/>
      <stop id="stop275" stop-color="#5d536e" offset="1"/>
    </linearGradient>
    <filter id="filter4599" x="-.057025067" y="-.041441301" width="1.1140501" height="1.0828826" color-interpolation-filters="sRGB">
      <feGaussianBlur id="feGaussianBlur4601" stdDeviation="0.50560543"/>
    </filter>
    <linearGradient id="linearGradient4697" x1="4.4999981" x2="59.500004" y1="59.5" y2="59.5" gradientUnits="userSpaceOnUse">
      <stop id="stop4691" stop-color="#2d2933" offset="0"/>
      <stop id="stop4699" stop-color="#5d4b67" offset=".12672602"/>
      <stop id="stop4701" stop-color="#2d2933" offset=".17684865"/>
      <stop id="stop4705" stop-color="#2d2933" offset=".8231135"/>
      <stop id="stop4703" stop-color="#5d4b67" offset=".87144196"/>
      <stop id="stop4693" stop-color="#2d2933" offset="1"/>
    </linearGradient>
  </defs>
  <rect id="rect280" x="4.5" y="4.5" width="55" height="55" ry="15" fill="#141414" filter="url(#filter1057)" opacity=".3" stroke-linecap="round" stroke-width="2.7444"/>
  <rect id="rect282" x="4.5" y="4.5" width="55" height="55" ry="15" fill="url(#linearGradient1053)" stroke-linecap="round" stroke-width="2.7444"/>
  <circle id="circle284" cx="-1326.3" cy="-1241.6" r="0" fill="#5e4aa6"/>
  <circle id="circle286" cx="-226.72" cy="23.855" r="0" fill="#5e4aa6" fill-rule="evenodd"/>
  <g fill-rule="evenodd">
    <rect id="rect4593" transform="matrix(1.2399505,0,0,1.2399505,-7.678416,-7.6784157)" x="21.360353" y="17.359375" width="21.279293" height="29.28125" ry="1.0248613" fill="#141414" filter="url(#filter4599)" opacity=".6"/>
    <rect id="rect4584" x="18.807751" y="13.846859" width="26.385269" height="36.307301" ry="1.2707773" fill="#b0b0b0" stroke-width="1.23995"/>
    <path id="path4305" d="m20.078393 13.84584c-0.704019 0-1.271432 0.567424-1.271432 1.271434v4.034682h26.385266v-4.034682c0-0.70401-0.564996-1.271434-1.269003-1.271434zm0.760437 1.586265h1.239951v0.893636h-1.239951zm2.479901 0h1.239951v0.893636h-1.239951zm2.479901 0h1.239951v0.893636h-1.239951zm9.919604 0h7.439703v0.893636h-7.439703zm-16.911275 4.613488v5.306116h26.385266v-5.306116zm2.031869 1.586264h1.239951v0.893637h-1.239951zm2.479901 0h1.239951v0.893637h-1.239951zm2.479901 0h1.239951v0.893637h-1.239951zm9.919604 0h7.439703v0.893637h-7.439703zm-16.911275 4.613488v5.306117h26.385266v-5.306117zm2.031869 1.586265h1.239951v0.893636h-1.239951zm2.479901 0h1.239951v0.893636h-1.239951zm2.479901 0h1.239951v0.893636h-1.239951zm9.919604 0h7.439703v0.893636h-7.439703zm-16.911275 4.61591v5.306116h26.385266v-5.306116zm2.031869 1.586265h1.239951v0.893636h-1.239951zm2.479901 0h1.239951v0.893636h-1.239951zm2.479901 0h1.239951v0.893636h-1.239951zm9.919604 0h7.439703v0.893636h-7.439703zm-16.911275 4.611065v5.306117h26.385266v-5.306117zm2.031869 1.586265h1.239951v0.893636h-1.239951zm2.479901 0h1.239951v0.893636h-1.239951zm2.479901 0h1.239951v0.893636h-1.239951zm9.919604 0h7.439703v0.893636h-7.439703zm-16.911275 4.61591v4.037104c0 0.70401 0.567413 1.269012 1.271432 1.269012h23.844831c0.704007 0 1.269003-0.565002 1.269003-1.269012v-4.037104zm2.031869 1.586265h1.239951v0.893636h-1.239951zm2.479901 0h1.239951v0.893636h-1.239951zm2.479901 0h1.239951v0.893636h-1.239951zm9.919604 0h7.439703v0.893636h-7.439703z" fill="#f6f5f4" stroke-width="1.48673"/>
  </g>
  <path id="path4620" d="m4.499998 42.5v2c0 8.30999 6.690008 15 15 15h25c8.309991 0 15.000004-6.69001 15.000004-15v-2c0 8.30999-6.690013 15-15.000004 15h-25c-8.309992 0-15-6.69001-15-15z" fill="url(#linearGradient4697)"/>
</svg>
