<?xml version="1.0" encoding="UTF-8" standalone="no"?>
<svg
   width="64"
   height="64"
   inkscape:version="1.1.2 (0a00cf5339, 2022-02-04, custom)"
   sodipodi:docname="com.mattjakeman.ExtensionManager.svg"
   version="1.1"
   viewBox="0 0 16.933 16.933"
   id="svg855"
   xmlns:inkscape="http://www.inkscape.org/namespaces/inkscape"
   xmlns:sodipodi="http://sodipodi.sourceforge.net/DTD/sodipodi-0.dtd"
   xmlns:xlink="http://www.w3.org/1999/xlink"
   xmlns="http://www.w3.org/2000/svg"
   xmlns:svg="http://www.w3.org/2000/svg"
   xmlns:rdf="http://www.w3.org/1999/02/22-rdf-syntax-ns#"
   xmlns:cc="http://creativecommons.org/ns#"
   xmlns:dc="http://purl.org/dc/elements/1.1/">
  <sodipodi:namedview
     bordercolor="#666666"
     borderopacity="1.0"
     inkscape:current-layer="svg855"
     inkscape:cx="14"
     inkscape:cy="28.25"
     inkscape:pagecheckerboard="0"
     inkscape:pageopacity="0.0"
     inkscape:pageshadow="2"
     inkscape:window-height="1016"
     inkscape:window-maximized="1"
     inkscape:window-width="1920"
     inkscape:window-x="0"
     inkscape:window-y="0"
     inkscape:zoom="4"
     pagecolor="#ffffff"
     showgrid="false"
     id="namedview824" />
  <metadata
     id="metadata826">
    <rdf:RDF>
      <cc:Work
         rdf:about="">
        <dc:format>image/svg+xml</dc:format>
        <dc:type
           rdf:resource="http://purl.org/dc/dcmitype/StillImage" />
      </cc:Work>
    </rdf:RDF>
  </metadata>
  <defs
     id="defs845">
    <linearGradient
       id="linearGradient64681">
      <stop
         stop-color="#99c2e6"
         offset="0"
         id="stop828" />
      <stop
         stop-color="#6493bd"
         offset="1"
         id="stop830" />
    </linearGradient>
    <filter
       id="filter1057"
       x="-0.026999999"
       y="-0.026999999"
       width="1.054"
       height="1.054"
       color-interpolation-filters="sRGB">
      <feGaussianBlur
         stdDeviation="0.61875"
         id="feGaussianBlur833" />
    </filter>
    <linearGradient
       id="linearGradient1053"
       x1="-127"
       x2="-72"
       y1="60"
       y2="5"
       gradientTransform="matrix(.26458 0 0 .26458 34.792 -.13493)"
       gradientUnits="userSpaceOnUse">
      <stop
         stop-color="#80b3ff"
         stop-opacity=".89804"
         offset="0"
         id="stop836" />
      <stop
         stop-color="#0055d4"
         offset="1"
         id="stop838" />
    </linearGradient>
    <linearGradient
       x1="31.803"
       x2="31.803"
       y1="8.0244"
       y2="8.241"
       gradientTransform="matrix(.82927 0 0 .8636 -17.745 1.0542)"
       gradientUnits="userSpaceOnUse"
       xlink:href="#linearGradient64681"
       id="linearGradient841" />
    <linearGradient
       x1="31.803"
       x2="31.803"
       y1="8.0244"
       y2="8.241"
       gradientTransform="matrix(.8636 0 0 .8636 -18.831 .94954)"
       gradientUnits="userSpaceOnUse"
       xlink:href="#linearGradient64681"
       id="linearGradient843" />
  </defs>
  <g
     stroke-linecap="round"
     id="g851">
    <rect
       transform="scale(.26458)"
       x="4.5"
       y="4.5"
       width="55"
       height="55"
       ry="15"
       fill="#141414"
       filter="url(#filter1057)"
       opacity=".3"
       stroke-width="2.7444"
       id="rect847" />
    <rect
       x="1.1906"
       y="1.1906"
       width="14.552"
       height="14.552"
       ry="3.9687"
       fill="url(#linearGradient1053)"
       stroke-width=".72611"
       id="rect849" />
  </g>
  <path
     d="m7.9221 2.826c-0.5958 0-1.0735 0.48919-1.0735 1.0958v1.0958h-2.1471c-0.39537 0-0.71386 0.32426-0.71386 0.72959v2.1916h1.0735c0.5958 0 1.0735 0.4864 1.0735 1.0958 0 0.6066-0.47774 1.093-1.0735 1.093h-1.0735v2.1916c0 0.40533 0.31849 0.72959 0.71386 0.72959h2.1471v-1.0958c0-0.6066 0.47774-1.093 1.0735-1.093 0.5958 0 1.0735 0.48639 1.0735 1.093v1.0958h2.1471c0.39811 0 0.7166-0.32426 0.7166-0.72959v-2.1916h1.0735c0.59305 0 1.0708-0.4864 1.0708-1.093 0-0.60939-0.47774-1.0958-1.0708-1.0958h-1.0735v-2.1916c0-0.40533-0.31849-0.72959-0.7166-0.72959h-2.1471v-1.0958c0-0.6066-0.47774-1.0958-1.0735-1.0958z"
     fill="#fff"
     stroke-width=".70922"
     id="path853" />
</svg>
