<svg id="svg44" version="1.1" viewBox="0 0 64 64" xmlns="http://www.w3.org/2000/svg" xmlns:xlink="http://www.w3.org/1999/xlink">
    <defs id="defs16">
        <style id="style4" type="text/css"/>
        <filter id="filter5804" x="-.022485937" y="-.033781689" width="1.0449719" height="1.0675634" color-interpolation-filters="sRGB">
            <feGaussianBlur id="feGaussianBlur5806" stdDeviation="0.51530273"/>
        </filter>
        <linearGradient id="linearGradient953" x1="4.5" x2="59.5" y1="59.5" y2="22.890625" gradientUnits="userSpaceOnUse">
            <stop id="stop947" stop-color="#3939a7" offset="0"/>
            <stop id="stop949" stop-color="#4747d1" offset="1"/>
        </linearGradient>
    </defs>
    <style id="style28" type="text/css">.st0{opacity:0.15;fill:#45413C;}
	.st1{fill:#FFE500;}
	.st2{fill:#EBCB00;}
	.st3{fill:none;stroke:#45413C;stroke-linecap:round;stroke-linejoin:round;stroke-miterlimit:10;}
	.st4{fill:#FFAA54;}
	.st5{fill:#FF8A14;}
	.st6{fill:#FFB0CA;stroke:#45413C;stroke-linecap:round;stroke-linejoin:round;stroke-miterlimit:10;}
	.st7{fill:#FF87AF;stroke:#45413C;stroke-linecap:round;stroke-linejoin:round;stroke-miterlimit:10;}
	.st8{fill:#FFCC99;}
	.st9{fill:#FFFFFF;}
	.st10{fill:#F0F0F0;}
	.st11{fill:#BF8256;}
	.st12{fill:#915E3A;}
	.st13{fill:#DEA47A;}
	.st14{fill:#F0D5A8;}
	.st15{fill:#DEBB7E;}
	.st16{fill:#F7E5C6;}
	.st17{fill:#FF8A14;stroke:#45413C;stroke-linecap:round;stroke-linejoin:round;stroke-miterlimit:10;}
	.st18{fill:#FFF5E3;}
	.st19{fill:#FFF48C;}
	.st20{fill:#FFFACF;}
	.st21{fill:#FFFCE5;}
	.st22{fill:#FF87AF;}
	.st23{fill:#FFB0CA;}
	.st24{fill:#FFE500;stroke:#45413C;stroke-linecap:round;stroke-linejoin:round;stroke-miterlimit:10;}
	.st25{fill:#9CEB60;stroke:#45413C;stroke-linecap:round;stroke-linejoin:round;stroke-miterlimit:10;}
	.st26{fill:#FFFACF;stroke:#45413C;stroke-linecap:round;stroke-linejoin:round;stroke-miterlimit:10;}
	.st27{fill:#00F5BC;stroke:#45413C;stroke-linecap:round;stroke-linejoin:round;stroke-miterlimit:10;}
	.st28{fill:#BF8256;stroke:#45413C;stroke-linecap:round;stroke-linejoin:round;stroke-miterlimit:10;}
	.st29{fill:#FFE3CF;stroke:#45413C;stroke-linecap:round;stroke-linejoin:round;stroke-miterlimit:10;}
	.st30{fill:#FF6242;}
	.st31{fill:#FF866E;}
	.st32{fill:none;stroke:#E04122;stroke-linecap:round;stroke-linejoin:round;stroke-miterlimit:10;}
	.st33{fill:#FFFEF2;stroke:#45413C;stroke-linecap:round;stroke-linejoin:round;stroke-miterlimit:10;}
	.st34{fill:#FF6242;stroke:#45413C;stroke-linecap:round;stroke-linejoin:round;stroke-miterlimit:10;}
	.st35{fill:#FFA694;}
	.st36{fill:#FFFFFF;stroke:#45413C;stroke-linecap:round;stroke-linejoin:round;stroke-miterlimit:10;}
	.st37{fill:#FFFEF2;}
	.st38{fill:#FF6196;}
	.st39{fill:#B89558;}
	.st40{fill:none;stroke:#915E3A;stroke-linecap:round;stroke-linejoin:round;stroke-miterlimit:10;}
	.st41{fill:#DEBB7E;stroke:#45413C;stroke-linecap:round;stroke-linejoin:round;stroke-miterlimit:10;}
	.st42{fill:#6DD627;stroke:#45413C;stroke-linecap:round;stroke-linejoin:round;stroke-miterlimit:10;}
	.st43{fill:#E5F8FF;}
	.st44{fill:#E8F4FA;}
	.st45{fill:#E8F4FA;stroke:#45413C;stroke-linecap:round;stroke-linejoin:round;stroke-miterlimit:10;}
	.st46{fill:#FFCCDD;}
	.st47{fill:#E5F8FF;stroke:#45413C;stroke-linecap:round;stroke-linejoin:round;stroke-miterlimit:10;}
	.st48{fill:#00B8F0;stroke:#45413C;stroke-linecap:round;stroke-linejoin:round;stroke-miterlimit:10;}
	.st49{fill:#00B8F0;}
	.st50{fill:#4ACFFF;}
	.st51{fill:#E04122;}
	.st52{fill:#E04122;stroke:#45413C;stroke-linecap:round;stroke-linejoin:round;stroke-miterlimit:10;}
	.st53{fill:#87898C;}
	.st54{fill:#BDBEC0;}
	.st55{fill:#656769;}
	.st56{fill:#525252;}
	.st57{fill:#FFF48C;stroke:#45413C;stroke-linecap:round;stroke-linejoin:round;stroke-miterlimit:10;}
	.st58{fill:#6DD627;}
	.st59{fill:#EB6D00;}
	.st60{fill:#46B000;}
	.st61{fill:#80DDFF;}
	.st62{fill:#DAEDF7;}
	.st63{fill:#BF8DF2;stroke:#45413C;stroke-linecap:round;stroke-linejoin:round;stroke-miterlimit:10;}
	.st64{fill:#9F5AE5;stroke:#45413C;stroke-linecap:round;stroke-linejoin:round;stroke-miterlimit:10;}
	.st65{fill:#C8FFA1;}
	.st66{fill:#E4FFD1;}
	.st67{fill:#9CEB60;}
	.st68{fill:#E5FEFF;}
	.st69{fill:#B8ECFF;}
	.st70{fill:#E0E0E0;stroke:#45413C;stroke-linecap:round;stroke-linejoin:round;stroke-miterlimit:10;}
	.st71{fill:#E0E0E0;}
	.st72{fill:none;stroke:#4F4B45;stroke-linejoin:round;stroke-miterlimit:10;}
	.st73{fill:none;stroke:#4F4B45;stroke-linecap:round;stroke-linejoin:round;stroke-miterlimit:10;}
	.st74{fill:#E0366F;stroke:#45413C;stroke-linecap:round;stroke-linejoin:round;stroke-miterlimit:10;}
	.st75{fill:none;stroke:#45413C;stroke-miterlimit:10;}
	.st76{fill:#FF866E;stroke:#45413C;stroke-linecap:round;stroke-linejoin:round;stroke-miterlimit:10;}
	.st77{fill:#45413C;stroke:#45413C;stroke-linecap:round;stroke-linejoin:round;stroke-miterlimit:10;}
	.st78{fill:#9F5AE5;}
	.st79{fill:#803EC2;}
	.st80{fill:#803EC2;stroke:#45413C;stroke-linecap:round;stroke-linejoin:round;stroke-miterlimit:10;}
	.st81{fill:#BF8DF2;}
	.st82{fill:#FFAA54;stroke:#45413C;stroke-linecap:round;stroke-linejoin:round;stroke-miterlimit:10;}
	.st83{fill:none;stroke:#45413C;stroke-linejoin:round;stroke-miterlimit:10;}
	.st84{fill:#FFCCDD;stroke:#45413C;stroke-linecap:round;stroke-linejoin:round;stroke-miterlimit:10;}
	.st85{fill:#FF6196;stroke:#45413C;stroke-linecap:round;stroke-linejoin:round;stroke-miterlimit:10;}
	.st86{fill:#FFE5EE;}
	.st87{fill:#F7E5C6;stroke:#45413C;stroke-linecap:round;stroke-linejoin:round;stroke-miterlimit:10;}
	.st88{fill:#E5FFF9;}
	.st89{fill:none;stroke:#45413C;stroke-width:1.0064;stroke-linecap:round;stroke-linejoin:round;stroke-miterlimit:10;}
	.st90{fill:#4AEFF7;}
	.st91{fill:#A6FBFF;}
	.st92{fill:#E5FEFF;stroke:#45413C;stroke-linecap:round;stroke-linejoin:round;stroke-miterlimit:10;}
	.st93{fill:#46B000;stroke:#45413C;stroke-linecap:round;stroke-linejoin:round;stroke-miterlimit:10;}
	.st94{fill:#FFFFFF;stroke:#45413C;stroke-linejoin:round;stroke-miterlimit:10;}
	.st95{fill:#FFFFFF;stroke:#45413C;stroke-miterlimit:10;}
	.st96{fill:#009FD9;}
	.st97{fill:#00DFEB;}
	.st98{fill:#C0DCEB;stroke:#45413C;stroke-linecap:round;stroke-linejoin:round;stroke-miterlimit:10;}
	.st99{fill:#00DFEB;stroke:#45413C;stroke-linecap:round;stroke-linejoin:round;stroke-miterlimit:10;}
	.st100{fill:#FFE5EE;stroke:#45413C;stroke-linecap:round;stroke-linejoin:round;stroke-miterlimit:10;}
	.st101{fill:#8CA4B8;}
	.st102{fill:#ADC4D9;}
	.st103{fill:#656769;stroke:#45413C;stroke-linecap:round;stroke-linejoin:round;stroke-miterlimit:10;}
	.st104{fill:#F0F0F0;stroke:#45413C;stroke-linecap:round;stroke-linejoin:round;stroke-miterlimit:10;}
	.st105{fill:#C0DCEB;}
	.st106{fill:#45413C;}
	.st107{fill:#FFCABF;}
	.st108{fill:#87898C;stroke:#45413C;stroke-linecap:round;stroke-linejoin:round;stroke-miterlimit:10;}
	.st109{fill:#EBCB00;stroke:#45413C;stroke-linecap:round;stroke-linejoin:round;stroke-miterlimit:10;}</style>
    <path id="path5802" d="m4.5 22.890625v21.609375c0 8.309991 6.690009 15 15 15h25c8.309991 0 15-6.690009 15-15v-21.609375z" fill="#141414" filter="url(#filter5804)" opacity=".3"/>
    <path id="rect1045" d="m4.5 22.890625v21.609375c0 8.309991 6.690009 15 15 15h25c8.309991 0 15-6.690009 15-15v-21.609375z" fill="url(#linearGradient953)"/>
    <path id="use414" d="m59.5 23.15v3.394978h-55v-3.394978h55z" opacity=".2" stroke-width=".253307"/>
    <g id="g25" fill="#5e4aa6">
        <circle id="circle22" cx="-1133.4" cy="-1295.5" r="0"/>
        <circle id="circle24" cx="-1025.1" cy="-1355.6" r="0"/>
        <g id="g18" stroke-width="1.00001">
            <circle id="circle30" cx="-1168.2863" cy="-1270.4154" r="0"/>
            <circle id="circle32" cx="-1059.925" cy="-1330.5865" r="0"/>
            <circle id="circle34" cx="-898.53625" cy="-1345.0625" r="0"/>
            <circle id="circle36" cx="200.93433" cy="-79.584381" r="0" fill-rule="evenodd"/>
            <circle id="circle38" cx="-892.03534" cy="-1354.0957" r="0"/>
            <circle id="circle40" cx="207.45413" cy="-88.594948" r="0" fill-rule="evenodd"/>
        </g>
        <circle id="circle24-5" cx="-1338.4204" cy="-1241.6" r="0"/>
        <circle id="circle26" cx="-1230.0205" cy="-1301.8" r="0"/>
        <circle id="circle28" cx="-1247.8204" cy="-1246" r="0"/>
        <circle id="circle36-6" cx="-1247.0205" cy="-1267.7" r="0"/>
        <circle id="circle38-2" cx="-147.47649" cy="-2.1829" r="0" fill-rule="evenodd"/>
    </g>
    <g id="g35" stroke-width=".24207">
        <path id="use382" d="m6.3555346 16.025238v6.182007c0 0.762917 0.5898845 1.335104 1.3763959 1.335104h50.582542c0.747186 0 1.376395-0.572187 1.376395-1.335104v-6.182007c0-0.762917-0.629209-1.335105-1.376395-1.335105h-50.582542c-0.7865114 0-1.3763959 0.572188-1.3763959 1.335105z" fill="#4747d1"/>
        <path id="use386" d="m43.289638 23.542349 9.162863-8.852216h-10.028025l-9.165321 8.852216z" fill="#f1f1f1"/>
        <path id="use390" d="m19.256786 23.542349 9.165321-8.852216h-10.069809l-9.1653202 8.852216z" fill="#f1f1f1"/>
        <path id="use394" d="m4.6337567 7.6123957c0.087657 0.6352047 0.7313328 5.5904883 0.8256153 6.1881263 0.1065132 0.754733 0.7761084 1.260143 1.551687 1.164493 5.17923-0.597399 46.594751-5.3435084 51.77156-5.9413343 0.768954-0.058084 1.288715-0.7411222 1.214305-1.4514597-0.087657-0.6352047-0.731333-5.590487-0.825614-6.1881258-0.106514-0.75473331-0.77611-1.260143-1.551688-1.164493-10.349414 1.1576589-46.59233 5.3439348-51.77156 5.9413338-0.7689546 0.058084-1.2887149 0.7411222-1.2143055 1.4514597z" fill="#4747d1"/>
        <path id="use398" d="m43.372167 10.802-10.238561-7.8503033 9.980988-1.1064196 10.238975 7.8479553z" fill="#f1f1f1"/>
        <path id="use402" d="m19.195975 13.588725-10.245599-7.8103898 9.9876129-1.1439854 10.245599 7.8103892z" fill="#f1f1f1"/>
        <path id="use406" d="m3.9959994 7.2135522v14.917401c0 0.801063 0.6685349 1.411396 1.4550473 1.411396h14.592251c1.061791 0 1.769652-1.029938 1.376396-1.945437-0.668535-1.487687-5.938164-13.467859-6.606699-14.955547-0.235954-0.5340411-0.747186-0.8392075-1.33707-0.8392075h-8.0248783c-0.7865124 0-1.4550473 0.6103329-1.4550473 1.411395z" fill="#a9a9a9"/>
        <path id="use410" d="m8.4004654 5.7640117h-2.9494187c-0.7865124 0-1.4550473 0.6484784-1.4550473 1.4113951v14.955546c0 0.762917 0.6685349 1.411396 1.4550473 1.411396h2.9494187c-0.7865114 0-1.4550463-0.648479-1.4550463-1.411396v-14.955546c0-0.7629167 0.6685349-1.4113951 1.4550463-1.4113951z" opacity=".2"/>
    </g>
    <path id="use418" d="m27 32.530169v18.939661l16-9.448787z" fill="#f1f1f1" stroke-width=".267088"/>
</svg>
