<svg id="svg28" version="1.1" viewBox="0 0 64 64" xmlns="http://www.w3.org/2000/svg">
    <defs id="defs12">
        <filter id="filter1057" x="-.026999999" y="-.026999999" width="1.054" height="1.054" color-interpolation-filters="sRGB">
            <feGaussianBlur id="feGaussianBlur1059" stdDeviation="0.61875"/>
        </filter>
        <linearGradient id="linearGradient1053" x1="-127" x2="-72" y1="60" y2="5" gradientTransform="translate(131.5 -.50999766)" gradientUnits="userSpaceOnUse">
            <stop id="stop1047" stop-color="#e7ab0f" offset="0"/>
            <stop id="stop1049" stop-color="#e8ab11" offset="1"/>
        </linearGradient>
        <filter id="filter7763" x="-.012048779" y="-.011951615" width="1.0240976" height="1.0239032" color-interpolation-filters="sRGB">
            <feGaussianBlur id="feGaussianBlur7765" stdDeviation="0.19077232"/>
        </filter>
    </defs>
    <circle id="circle14" cx="-1168.4" cy="-1251.4" r="0" fill="#5e4aa6"/>
    <circle id="circle16" cx="-68.875" cy="14.092" r="0" fill="#5e4aa6" fill-rule="evenodd"/>
    <rect id="rect1055" x="4.4999995" y="4.4999995" width="55" height="55" ry="15" fill="#141414" filter="url(#filter1057)" opacity=".3" stroke-linecap="round" stroke-width="2.74436"/>
    <rect id="rect1045" x="4.5000019" y="4.5000019" width="54.999996" height="54.999996" ry="14.999999" fill="url(#linearGradient1053)" stroke-linecap="round" stroke-width="2.74436"/>
    <path id="path7761" d="m39.620246 43.881988-4.891745 4.891744c-3.174335 3.174334-8.339268 3.174334-11.513742-1.4e-4l-0.04962-0.04962c-1.251011-1.251011-2.009057-2.81139-2.273842-4.437003l-4.362918 4.362918 0.412528 0.412528c0.162945 0.162946 0.162944 0.427437 2e-6 0.590378-0.162943 0.162943-0.427434 0.162944-0.590379-1e-6l-3.22832-3.228321c-0.162946-0.162945-0.162944-0.427436-3e-6 -0.590379 0.162943-0.162942 0.427434-0.162942 0.590379 3e-6l0.412676 0.412674 8.161868-8.161866-0.776056-0.776056-0.400867 0.400869c-0.162952 0.16295-0.427443 0.162952-0.590388 6e-6 -0.162945-0.162945-0.162944-0.427436 8e-6 -0.590387l1.392261-1.392261c0.162943-0.162942 0.427434-0.162944 0.590379 2e-6 0.162944 0.162945 0.162944 0.427436 1e-6 0.590379l-0.401016 0.401016 0.78491 0.784911c0.09002-0.0995 0.183004-0.197208 0.278942-0.293145l2.008617-2.008618-0.777973-0.777974-0.401016 0.401017c-0.162943 0.162942-0.427434 0.162944-0.590379-2e-6 -0.162946-0.162945-0.162944-0.427436-3e-6 -0.590379l1.392262-1.392261c0.162951-0.162952 0.427442-0.162952 0.590387-6e-6 0.162945 0.162944 0.162944 0.427436-7e-6 0.590386l-0.400868 0.400869 0.777974 0.777973 2.294522-2.29452-0.777975-0.777975-0.400868 0.400869c-0.162951 0.16295-0.427442 0.162951-0.590387 6e-6 -0.162944-0.162945-0.162944-0.427436 7e-6 -0.590386l1.392262-1.392262c0.162942-0.162943 0.427433-0.162944 0.590379 1e-6 0.162945 0.162946 0.162944 0.427437 1e-6 0.590379l-0.401016 0.401017 0.777973 0.777973 1.118914-1.118913c0.160881-0.160882 0.327849-0.334863 0.496218-0.517472 3.879093-4.210001 5.678869-9.94968 4.9375-15.747364l-0.131214-1.026521c-0.02244-0.177107 0.06996-0.348619 0.230247-0.42773 0.160294-0.07883 0.352903-0.04678 0.479244 0.07956l15.097645 15.097641c0.126196 0.126196 0.158199 0.318826 0.07956 0.479244-0.07869 0.160409-0.25077 0.252523-0.427732 0.230245l-1.023577-0.130913c-4.026387-0.514816-8.122744 0.237328-11.66089 2.084629l1.757326 1.769602c0.0064 0.0058 0.01287 0.01166 0.01901 0.01782 3.132424 3.134176 3.13167 8.232861-0.0015 11.366003zm-15.864562 4.251776c-4.260126-28.904953-2.130057-14.45248 0 0zm10.10171-5.429145 2.132008-2.132008c0.05462-0.05462 0.107022-0.110531 0.157393-0.167914l-4.617665-4.617665-2.29466 2.294661zm-2.905678 2.864118c0.115317-0.08779 0.22623-0.18467 0.331471-0.289911l1.983822-1.983822-4.623118-4.623118-1.983822 1.983822c-0.105385 0.105385-0.202039 0.216243-0.289876 0.331505zm1.167476-10.372098 4.500613 4.500613c0.625658-1.256772 0.415343-2.826741-0.630815-3.872899l-2.23562-2.235621c-0.187747 0.170035-0.357923 0.331654-0.515254 0.488986zm-6.177146 6.543181c-0.476148 1.180176-0.236743 2.583797 0.718343 3.538883 0.955095 0.955094 2.358711 1.194493 3.538894 0.718353z" filter="url(#filter7763)" opacity=".2" stroke-width=".208731"/>
    <path id="path1490" d="m39.620246 43.881988-4.891745 4.891744c-3.174335 3.174334-8.339268 3.174334-11.513742-1.4e-4l-0.04962-0.04962c-1.251011-1.251011-2.009057-2.81139-2.273842-4.437003l-4.362918 4.362918 0.412528 0.412528c0.162945 0.162946 0.162944 0.427437 2e-6 0.590378-0.162943 0.162943-0.427434 0.162944-0.590379-1e-6l-3.22832-3.228321c-0.162946-0.162945-0.162944-0.427436-3e-6 -0.590379 0.162943-0.162942 0.427434-0.162942 0.590379 3e-6l0.412676 0.412674 8.161868-8.161866-0.776056-0.776056-0.400867 0.400869c-0.162952 0.16295-0.427443 0.162952-0.590388 6e-6 -0.162945-0.162945-0.162944-0.427436 8e-6 -0.590387l1.392261-1.392261c0.162943-0.162942 0.427434-0.162944 0.590379 2e-6 0.162944 0.162945 0.162944 0.427436 1e-6 0.590379l-0.401016 0.401016 0.78491 0.784911c0.09002-0.0995 0.183004-0.197208 0.278942-0.293145l2.008617-2.008618-0.777973-0.777974-0.401016 0.401017c-0.162943 0.162942-0.427434 0.162944-0.590379-2e-6 -0.162946-0.162945-0.162944-0.427436-3e-6 -0.590379l1.392262-1.392261c0.162951-0.162952 0.427442-0.162952 0.590387-6e-6 0.162945 0.162944 0.162944 0.427436-7e-6 0.590386l-0.400868 0.400869 0.777974 0.777973 2.294522-2.29452-0.777975-0.777975-0.400868 0.400869c-0.162951 0.16295-0.427442 0.162951-0.590387 6e-6 -0.162944-0.162945-0.162944-0.427436 7e-6 -0.590386l1.392262-1.392262c0.162942-0.162943 0.427433-0.162944 0.590379 1e-6 0.162945 0.162946 0.162944 0.427437 1e-6 0.590379l-0.401016 0.401017 0.777973 0.777973 1.118914-1.118913c0.160881-0.160882 0.327849-0.334863 0.496218-0.517472 3.879093-4.210001 5.678869-9.94968 4.9375-15.747364l-0.131214-1.026521c-0.02244-0.177107 0.06996-0.348619 0.230247-0.42773 0.160294-0.07883 0.352903-0.04678 0.479244 0.07956l15.097645 15.097641c0.126196 0.126196 0.158199 0.318826 0.07956 0.479244-0.07869 0.160409-0.25077 0.252523-0.427732 0.230245l-1.023577-0.130913c-4.026387-0.514816-8.122744 0.237328-11.66089 2.084629l1.757326 1.769602c0.0064 0.0058 0.01287 0.01166 0.01901 0.01782 3.132424 3.134176 3.13167 8.232861-0.0015 11.366003zm-15.864562 4.251776c-4.260126-28.904953-2.130057-14.45248 0 0zm10.10171-5.429145 2.132008-2.132008c0.05462-0.05462 0.107022-0.110531 0.157393-0.167914l-4.617665-4.617665-2.29466 2.294661zm-2.905678 2.864118c0.115317-0.08779 0.22623-0.18467 0.331471-0.289911l1.983822-1.983822-4.623118-4.623118-1.983822 1.983822c-0.105385 0.105385-0.202039 0.216243-0.289876 0.331505zm1.167476-10.372098 4.500613 4.500613c0.625658-1.256772 0.415343-2.826741-0.630815-3.872899l-2.23562-2.235621c-0.187747 0.170035-0.357923 0.331654-0.515254 0.488986zm-6.177146 6.543181c-0.476148 1.180176-0.236743 2.583797 0.718343 3.538883 0.955095 0.955094 2.358711 1.194493 3.538894 0.718353z" fill="#f1f1ee" stroke-width=".208731"/>
</svg>
