<svg id="svg855" width="64" height="64" version="1.1" viewBox="0 0 16.933 16.933" xmlns="http://www.w3.org/2000/svg">
    <defs id="defs845">
        <filter id="filter1057" x="-.026999999" y="-.026999999" width="1.054" height="1.054" color-interpolation-filters="sRGB">
            <feGaussianBlur id="feGaussianBlur833" stdDeviation="0.61875"/>
        </filter>
        <style id="style4" type="text/css"/>
        <style id="style6" type="text/css"/>
        <style id="style8" type="text/css"/>
        <style id="style903" type="text/css"/>
        <style id="style905" type="text/css"/>
        <style id="style907" type="text/css"/>
        <style id="style909" type="text/css"/>
        <style id="style919" type="text/css"/>
        <style id="style921" type="text/css"/>
        <style id="style923" type="text/css"/>
    </defs>
    <rect id="rect847" transform="scale(.26458)" x="4.5" y="4.5" width="55" height="55" ry="15" fill="#141414" filter="url(#filter1057)" opacity=".3" stroke-linecap="round" stroke-width="2.7444"/>
    <g stroke-width=".0485059">
        <path id="XMLID_28_" d="m1.190601 7.9812678v3.7924582c0 2.198642 1.770031 3.968672 3.968672 3.968672h3.792458v-7.7611302z" fill="#006df0"/>
        <path id="XMLID_27_" d="m8.4665 7.9812678v7.7611302h3.307226c2.198642 0 3.968672-1.77003 3.968672-3.968672v-3.7924582z" fill="#a5c5f5"/>
        <path id="XMLID_26_" d="m7.981266 1.1906019v7.2758982h7.761132v-3.3072265c0-2.198642-1.77003-3.9686717-3.968672-3.9686717z" fill="#4788e9" fill-opacity=".956863"/>
    </g>
    <path id="XMLID_1186_" d="m8.465465 8.4665001-6.115268 6.1157849c0.717377 0.717641 1.709492 1.160113 2.809076 1.160113h3.306192v-2.207057c0.221333 0.05549 0.431286 0.0863 0.607704 0.0863 0.837017-4.8e-5 1.515639-0.679041 1.515639-1.516156 0-0.837067-0.678622-1.515689-1.515639-1.51564-0.176463 0-0.386419 0.03034-0.607704 0.08578z" fill="#4788e9" stroke-width=".0485059"/>
    <path id="XMLID_24_" d="m5.159273 1.1906018c-2.198642 0-3.968672 1.7700299-3.968672 3.968672v2.3372788l7.275899 0.9699477v-7.2758985z" fill="#d1e1fa" stroke-width=".048506"/>
    <g stroke-width=".0485059">
        <path id="XMLID_23_" d="m8.467534 1.1906019v2.2070569c-0.221333-0.055491-0.431336-0.08583-0.607704-0.085781-0.837019 4.84e-5 -1.515641 0.6785246-1.515641 1.51564 0 0.8370669 0.678622 1.5156397 1.515641 1.5156397 0.176418 0 0.386419-0.030339 0.607704-0.085781v2.2091236l6.115268-6.1157854c-0.717337-0.7173366-1.709756-1.1601128-2.809076-1.1601128z" fill="#006df0"/>
        <path id="XMLID_3_" d="m12.105483 6.3447074c-0.837069 0-1.515641 0.6781048-1.515641 1.5151233 0 0.1764646 0.03034 0.386887 0.08578 0.6082196h-2.209124l6.116302 6.1147517c0.717335-0.717337 1.159596-1.709755 1.159596-2.809076v-3.3061924l-2.207058 5.291e-4c0.05549-0.2213325 0.08583-0.431852 0.08578-0.6082195-4.7e-5 -0.8370186-0.678526-1.5151231-1.515638-1.5151233z" fill="#cedff8"/>
        <path id="XMLID_2_" d="m2.350713 2.3507147c-0.717335 0.7173369-1.160112 1.7092379-1.160112 2.8085589v3.3061931h2.207058c-0.05549 0.2213326-0.08583 0.4313351-0.08578 0.6077026 5e-5 0.8370186 0.678523 1.5156397 1.515638 1.5156397 0.837067 0 1.515641-0.6786211 1.515641-1.5156397 0-0.1764643-0.03034-0.38637-0.08578-0.6077026h2.209124z" fill="#a3c4f5" fill-opacity=".99157578"/>
    </g>
</svg>
