<svg id="svg5" version="1.1" viewBox="0 0 64 64" xmlns="http://www.w3.org/2000/svg">
  <defs id="defs3">
    <style id="style1" type="text/css"/>
    <style id="style2" type="text/css"/>
    <filter id="filter1057" x="-.026999999" y="-.026999999" width="1.054" height="1.054" color-interpolation-filters="sRGB">
      <feGaussianBlur id="feGaussianBlur2" stdDeviation="0.61875"/>
    </filter>
    <linearGradient id="linearGradient12054" x1="8" x2="70" y1="68" y2="68" gradientTransform="matrix(.55172414 0 0 .55172414 -6.6206897 -3.4824748)" gradientUnits="userSpaceOnUse">
      <stop id="stop12048" stop-color="#986a44" offset="0"/>
      <stop id="stop12397" stop-color="#986a44" offset=".58064514"/>
      <stop id="stop12139" stop-color="#865e3c" stop-opacity=".99433988" offset=".77754056"/>
      <stop id="stop12050" stop-color="#865e3c" stop-opacity=".98456633" offset="1"/>
    </linearGradient>
    <linearGradient id="linearGradient3399" x1="56" x2="120" y1="242" y2="242" gradientTransform="translate(-206.99976,1.0004878)" gradientUnits="userSpaceOnUse">
      <stop id="stop1507" stop-color="#3d3846" offset="0"/>
      <stop id="stop1509" stop-color="#3d3846" stop-opacity=".96470588" offset=".0625"/>
      <stop id="stop1511" stop-color="#77767b" offset=".1875"/>
      <stop id="stop1513" stop-color="#3d3846" offset=".62706751"/>
      <stop id="stop1515" stop-color="#5e5c64" offset="1"/>
    </linearGradient>
    <linearGradient id="linearGradient2623" x1="56" x2="120" y1="241" y2="241" gradientTransform="translate(-137.4043,-205.17692)" gradientUnits="userSpaceOnUse">
      <stop id="stop2617" stop-color="#e5a50a" offset="0"/>
      <stop id="stop2860" stop-color="#f5c211" offset=".125"/>
      <stop id="stop3055" stop-color="#e5a50a" offset=".375"/>
      <stop id="stop4674" stop-color="#e5a50a" offset=".6875"/>
      <stop id="stop2619" stop-color="#f5c211" offset="1"/>
    </linearGradient>
    <linearGradient id="linearGradient3327" x1="72" x2="104" y1="192" y2="192" gradientTransform="translate(-206.99976,-2.9995122)" gradientUnits="userSpaceOnUse">
      <stop id="stop3447" stop-color="#3d3846" offset="0"/>
      <stop id="stop3449" stop-color="#3d3846" stop-opacity=".96470588" offset=".0625"/>
      <stop id="stop3451" stop-color="#5e5c64" offset=".1875"/>
      <stop id="stop3453" stop-color="#3d3846" offset=".62706751"/>
      <stop id="stop3455" stop-color="#5e5c64" offset="1"/>
    </linearGradient>
    <linearGradient id="linearGradient17" x1="59.5" x2="4.5" y1="4.5" y2="59.5" gradientTransform="translate(131.5 -.51)" gradientUnits="userSpaceOnUse">
      <stop id="stop2" stop-color="#fdf0c2" offset="0"/>
      <stop id="stop3" stop-color="#f7d251" offset="1"/>
    </linearGradient>
    <filter id="filter31" x="-.026527032" y="-.02749014" width="1.0530541" height="1.0549803" color-interpolation-filters="sRGB">
      <feGaussianBlur id="feGaussianBlur31" stdDeviation="0.45817468"/>
    </filter>
  </defs>
  <rect id="rect3" x="4.5" y="4.5" width="55" height="55" ry="15" fill="#141414" filter="url(#filter1057)" opacity=".3" stroke-linecap="round" stroke-width="2.7444"/>
  <rect id="rect4" x="4.5" y="4.5" width="55" height="55" ry="15" fill="url(#linearGradient17)" stroke-linecap="round" stroke-width="2.7444"/>
  <circle id="circle4" cx="-1326.3" cy="-1241.6" r="0" fill="#5e4aa6"/>
  <circle id="circle5" cx="-226.72" cy="23.855" r="0" fill="#5e4aa6" fill-rule="evenodd"/>
  <path id="path17" d="m40.621266 12.00806c-1.990893 0.04654-3.661619 0.2858-4.464844 0.615235a1.1334613 1.1334613 0 0 0-0.513672 1.154297v1.4375c-2.434436 0.176167-4.30035 0.459469-5.162109 0.800781a1.1164756 1.1164756 0 0 0-0.525391 1.140625v2.958984h-17.210937a1.4712644 1.4712644 0 0 0-1.470703 1.470703v17.65625a1.4712644 1.4712644 0 0 0 1.470703 1.470703h5.886718a1.4712644 1.4712644 0 0 1 1.470704 1.470704v2.943359a1.4712644 1.4712644 0 0 0 1.470703 1.470703h8.382812v3.625a0.71111002 0.71111002 0 0 0 0.06055 0.226562 11.37776 1.42222 0 0 0-0.06055 0.128907 11.37776 1.42222 0 0 0 11.376953 1.421875 11.37776 1.42222 0 0 0 11.378906-1.421875 11.37776 1.42222 0 0 0-0.05859-0.140625 0.71111002 0.71111002 0 0 0 0.05859-0.214844v-33.066406a1.1164664 1.1164664 0 0 0-0.52539-1.140625c-0.86198-0.341406-2.728652-0.624624-5.164062-0.800781v-1.4375a1.1334519 1.1334519 0 0 0-0.511719-1.154297c-0.803212-0.329439-2.475895-0.56869-4.466797-0.615235a30.422445 30.422445 0 0 0-1.421875 0zm-27.140625 9.578125h1.470703a0.73563213 0.73563213 0 0 1 0.736328 0.736328v2.94336a0.73563213 0.73563213 0 0 1-0.736328 0.734375h-1.470703a0.73563213 0.73563213 0 0 1-0.736328-0.734375v-2.94336a0.73563213 0.73563213 0 0 1 0.736328-0.736328zm4.414062 0h1.470704a0.73563213 0.73563213 0 0 1 0.736328 0.736328v2.94336a0.73563213 0.73563213 0 0 1-0.736328 0.734375h-1.470704a0.73563213 0.73563213 0 0 1-0.736328-0.734375v-2.94336a0.73563213 0.73563213 0 0 1 0.736328-0.736328zm4.414063 0h1.470703a0.73563213 0.73563213 0 0 1 0.736328 0.736328v2.94336a0.73563213 0.73563213 0 0 1-0.736328 0.734375h-1.470703a0.73563213 0.73563213 0 0 1-0.736328-0.734375v-2.94336a0.73563213 0.73563213 0 0 1 0.736328-0.736328zm4.414062 0h1.470703a0.73563213 0.73563213 0 0 1 0.736329 0.736328v2.94336a0.73563213 0.73563213 0 0 1-0.736329 0.734375h-1.470703a0.73563213 0.73563213 0 0 1-0.736328-0.734375v-2.94336a0.73563213 0.73563213 0 0 1 0.736328-0.736328zm-4.414062 19.126953h1.470703a0.73563213 0.73563213 0 0 1 0.736328 0.736328v2.941407a0.73563213 0.73563213 0 0 1-0.736328 0.736328h-1.470703a0.73563213 0.73563213 0 0 1-0.736328-0.736328v-2.941407a0.73563213 0.73563213 0 0 1 0.736328-0.736328zm4.414062 0h1.470703a0.73563213 0.73563213 0 0 1 0.736329 0.736328v2.941407a0.73563213 0.73563213 0 0 1-0.736329 0.736328h-1.470703a0.73563213 0.73563213 0 0 1-0.736328-0.736328v-2.941407a0.73563213 0.73563213 0 0 1 0.736328-0.736328z" enable-background="new" fill="#222222" filter="url(#filter31)" opacity=".5" stroke-width=".38"/>
  <g id="g16" transform="matrix(.66666666 0 0 .66666666 12.745485 10.666667)">
    <path id="rect4949-6" d="m0 14.172698a2.2068966 2.2068966 0 0 0-2.2068966 2.206896v26.48276a2.2068966 2.2068966 0 0 0 2.2068966 2.206896h8.8275863a2.2068966 2.2068966 0 0 1 2.2068967 2.206896v4.413794a2.2068966 2.2068966 0 0 0 2.206896 2.206896h16.551725a2.2068966 2.2068966 0 0 0 2.206896-2.206896v-35.310346a2.2068966 2.2068966 0 0 0-2.206896-2.206896zm1.1034483 2.206896h2.2068965a1.1034482 1.1034482 0 0 1 1.1034484 1.103449v4.413793a1.1034482 1.1034482 0 0 1-1.1034484 1.103448h-2.2068965a1.1034482 1.1034482 0 0 1-1.1034483-1.103448v-4.413793a1.1034482 1.1034482 0 0 1 1.1034483-1.103449zm6.6206897 0h2.2068966a1.1034482 1.1034482 0 0 1 1.1034484 1.103449v4.413793a1.1034482 1.1034482 0 0 1-1.1034484 1.103448h-2.2068966a1.1034482 1.1034482 0 0 1-1.1034482-1.103448v-4.413793a1.1034482 1.1034482 0 0 1 1.1034482-1.103449zm6.62069 0h2.206896a1.1034482 1.1034482 0 0 1 1.103449 1.103449v4.413793a1.1034482 1.1034482 0 0 1-1.103449 1.103448h-2.206896a1.1034482 1.1034482 0 0 1-1.103449-1.103448v-4.413793a1.1034482 1.1034482 0 0 1 1.103449-1.103449zm6.62069 0h2.206896a1.1034482 1.1034482 0 0 1 1.103448 1.103449v4.413793a1.1034482 1.1034482 0 0 1-1.103448 1.103448h-2.206896a1.1034482 1.1034482 0 0 1-1.103449-1.103448v-4.413793a1.1034482 1.1034482 0 0 1 1.103449-1.103449zm-6.62069 28.689656h2.206896a1.1034482 1.1034482 0 0 1 1.103449 1.103448v4.413793a1.1034482 1.1034482 0 0 1-1.103449 1.103449h-2.206896a1.1034482 1.1034482 0 0 1-1.103449-1.103449v-4.413793a1.1034482 1.1034482 0 0 1 1.103449-1.103448zm6.62069 0h2.206896a1.1034482 1.1034482 0 0 1 1.103448 1.103448v4.413793a1.1034482 1.1034482 0 0 1-1.103448 1.103449h-2.206896a1.1034482 1.1034482 0 0 1-1.103449-1.103449v-4.413793a1.1034482 1.1034482 0 0 1 1.103449-1.103448z" enable-background="new" fill="url(#linearGradient12054)" stroke-width=".570433"/>
    <g id="g15" transform="matrix(.53333252 0 0 .53333252 69.230045 15.694431)">
      <g fill-rule="evenodd">
        <path id="rect491" transform="translate(69.59546,-206.17741)" d="m-134.99976 195.50048v-10a3.1878647 3.1878647 113.93666 0 1 1.44089-3.24595c2.25908-0.92654 6.95997-1.59994 12.55937-1.73085a85.563259 85.563259 2.6054306e-5 0 1 3.99956 1e-5c5.59943 0.1309 10.30032 0.80432 12.55936 1.73087a3.1878383 3.1878383 66.06421 0 1 1.44082 3.24592v10a2 2 135 0 1-2 2h-28a2 2 45 0 1-2-2z" enable-background="new" fill="url(#linearGradient3327)" stroke-width=".966092"/>
        <path id="path281-6" transform="translate(69.59546,-206.17741)" d="m-150.99976 288.00048v-93a3.1400923 3.1400923 114.75808 0 1 1.47819-3.20525c3.89863-1.5441 15.08914-2.68353 28.5219-2.78707a259.46662 259.46662 7.5249979e-6 0 1 3.99989 1e-5c13.43281 0.10354 24.623336 1.24297 28.521899 2.78709a3.1400665 3.1400665 65.242677 0 1 1.478125 3.20522v93a2 2 135 0 1-2 2h-60.000004a2 2 45 0 1-2-2z" enable-background="new" fill="url(#linearGradient3399)"/>
        <path id="path281-6-5" d="m-81.4043 71.32307v-72.5c0-2.20914 14.32689-4 32-4s32 1.79086 32 4v72.5c0-2.20914-14.32689-4-32-4s-32 1.79086-32 4z" enable-background="new" fill="url(#linearGradient2623)"/>
      </g>
      <path id="path15118-3" d="m-71.81175 20.82307s9.40745-2 21.40745-2c8 0 15 1 15 1v36.55135" enable-background="new" fill="none" stroke="#f5c211" stroke-linecap="round" stroke-linejoin="round" stroke-width="4"/>
      <ellipse id="path281" transform="scale(1,-1)" cx="-49.404293" cy="-82.823074" rx="32" ry="4" enable-background="new" fill="#241f31" fill-rule="evenodd"/>
      <g fill="none" stroke-linecap="round" stroke-linejoin="round" stroke-width="4">
        <path id="path15118-9-6" d="m-26.99691 46.88834s-8.40739-1.06527-22.40739-1.06527c-7 0-14 1-14 1l0.0637-35.5513" enable-background="new" stroke="#f5c211"/>
        <path id="path15118" d="m-71.81175 18.82307s9.40745-2 21.40745-2c8 0 15 1 15 1v36.55135" enable-background="new" stroke="#63452c"/>
        <path id="path15118-9" d="m-26.99691 44.88834s-8.40739-1.06527-22.40739-1.06527c-7 0-14 1-14 1l0.0637-35.5513" enable-background="new" stroke="#63452c"/>
      </g>
    </g>
  </g>
</svg>
