<svg id="svg5" version="1.1" viewBox="0 0 64 64" xmlns="http://www.w3.org/2000/svg">
  <defs id="defs3">
    <style id="style1" type="text/css"/>
    <style id="style2" type="text/css"/>
    <filter id="filter1057" x="-.026999999" y="-.026999999" width="1.054" height="1.054" color-interpolation-filters="sRGB">
      <feGaussianBlur id="feGaussianBlur2" stdDeviation="0.61875"/>
    </filter>
  </defs>
  <rect id="rect3" x="4.5" y="4.5" width="55" height="55" ry="15" fill="#141414" filter="url(#filter1057)" opacity=".3" stroke-linecap="round" stroke-width="2.7444"/>
  <rect id="rect4" x="4.5" y="4.5" width="55" height="55" ry="15" fill="#d98f40" stroke-linecap="round" stroke-width="2.7444"/>
  <circle id="circle4" cx="-1326.3" cy="-1241.6" r="0" fill="#5e4aa6"/>
  <circle id="circle5" cx="-226.72" cy="23.855" r="0" fill="#5e4aa6" fill-rule="evenodd"/>
  <g id="g5" transform="matrix(.90909101 0 0 .90909101 81.935955 37.759637)" clip-rule="evenodd" fill-rule="evenodd" stroke-width=".154068">
    <path id="path1" d="m-68.040677 21.124112c-0.492138-0.05747-0.985971-0.169166-1.509216-0.341876-0.951136-0.313374-1.744985-0.735057-2.33015-1.067381-1.289022-0.731821-2.599707-1.649756-4.006452-2.80511-0.614253-0.505033-1.21259-1.035026-1.779482-1.576266l-0.487069-0.463281c-0.339257-0.300586-0.62912-0.637378-0.866908-1.000208-0.444793-0.663723-0.800274-1.549766-0.854059-2.71005-0.03248-0.37762-0.05107-0.758013-0.05514-1.137173-0.0091-0.8261109 0.0477-1.6787214 0.169121-2.5342591 0.247941-1.7474354 0.795882-3.3183092 1.245744-4.4913804 0.03687-0.096446 0.07442-0.1928927 0.112639-0.2896472-0.125488-0.3209229-0.244551-0.6438488-0.356173-0.9673908-0.645698-1.8713058-1.069168-3.8201077-1.259272-5.7926359-0.199888-2.0774483-0.143068-4.176158 0.16912-6.2363506 0.06563-0.433547 0.143421-0.867401 0.232041-1.299407-0.807376-1.169373-1.831236-2.833766-2.467129-4.81785l-0.01217-0.03682c-0.137664-0.422761-0.460345-1.41203-0.281754-2.707369 0.06629-0.477903 0.181974-0.955127 0.354476-1.461116 0.319299-0.937178 0.73838-1.71901 1.067487-2.295393 0.732285-1.281057 1.643518-2.580047 2.786423-3.971094 0.502291-0.611248 1.026907-1.204223 1.560304-1.763011l0.465762-0.490089c0.242518-0.272454 0.509718-0.514448 0.797224-0.723286 0.682242-0.509703 1.627955-0.93684 2.907857-0.996063 0.41908-0.03622 0.848312-0.05517 1.277868-0.05619h0.03282c0.858788 0 1.746341 0.07141 2.63827 0.212213 1.338416 0.211535 2.565149 0.589925 3.651942 0.990655 0.724581-0.310693 1.469035-0.589586 2.217958-0.829885 1.87146-0.601434 3.817335-0.982197 5.784163-1.131797 2.059884-0.157041 4.156591-0.0599 6.181964 0.286335 0.471293 0.08055 0.943357 0.175314 1.412493 0.283623 1.592905-1.093557 3.059475-1.845257 4.569338-2.345156l0.03359-0.01151c0.353739-0.123199 1.090029-0.379409 2.065585-0.379409 0.211073 0 0.424148 0.01219 0.632756 0.03655 0.492554 0.05754 0.986341 0.169228 1.509247 0.341502 0.95183 0.313748 1.745432 0.735463 2.330581 1.068165 1.289393 0.731742 2.600046 1.649631 4.006376 2.805108 0.613959 0.50431 1.212666 1.034672 1.779789 1.576189l0.486392 0.462665c0.242503 0.214925 0.459738 0.448122 0.650782 0.696217 0.613343 0.77912 1.091877 1.886204 1.10143 3.446478 0.03174 0.555753 0.03312 1.122999 0.0043 1.690923-0.06255 1.242125-0.249897 2.425703-0.5568 3.517611-0.225555 0.802077-0.494711 1.616016-0.80223 2.426412 0.598398 1.513561 1.0492 3.082278 1.34424 4.67811 0.617503 3.3421902 0.548481 6.7991603-0.19089 10.113002 0.453575 0.65863925 0.83859 1.2681309 1.173071 1.858056 0.581452 1.0251662 1.04273 2.0816082 1.370894 3.1392827 0.121714 0.3925644 0.443407 1.43021 0.23141 2.7590436-0.0738 0.4615867-0.194896 0.9276414-0.369762 1.4221986-0.611187 1.7281769-1.562709 3.1360475-2.406537 4.3200575-0.928874 1.302642-1.952038 2.540113-3.042528 3.678211l-0.394414 0.415058c-0.245584 0.277168-0.517205 0.521519-0.809009 0.732438-0.680825 0.50488-1.623257 0.927641-2.895085 0.987265-0.419373 0.03652-0.848913 0.05485-1.278454 0.05608h-0.0339c-0.903144 0-1.838027-0.07919-2.777994-0.235107-1.505857-0.249898-2.880757-0.712871-4.076476-1.181237-0.650011 0.258526-1.312348 0.491014-1.977304 0.693767-1.90366 0.579448-3.878191 0.931801-5.869516 1.04689-2.068974 0.12048-4.168763-0.01726-6.196601-0.404428-0.245892-0.04715-0.491784-0.09783-0.736906-0.152373-1.755139 1.242093-3.331097 2.072672-4.944493 2.607133l-0.03312 0.01125c-0.353739 0.123408-1.090182 0.379314-2.065616 0.379314-0.211057 0-0.424148-0.01217-0.632848-0.03621z" fill="#231f20"/>
    <g fill="#b27733">
      <path id="path2" d="m-63.371225-3.9291382 0.2462 9.5702208-2.378804-1.9441798c-2.654494 4.2929413-3.468972 8.4735672-2.231023 11.533967l0.444454 1.098965-1.084066-0.477302c-2.479642-1.089875-4.690713-2.622077-6.57134-4.552545l-0.114318-0.11817-0.01893-0.163158c-0.13598-1.1821609-0.06055-2.4601522 0.223906-3.7969973l0.0047-0.021415c0.430573-1.6455966 1.072897-3.3240097 1.909361-4.9877864 0.52326-1.0404189 1.129039-2.0876168 1.804517-3.1192538l-2.070376-1.691817z"/>
      <path id="path3" d="m-46.607585-8.7417497-0.2462-9.5702213 2.378497 1.943872c2.654893-4.292679 3.469295-8.473613 2.231361-11.533921l-0.444331-1.098626 1.08402 0.477225c2.479565 1.089813 4.690744 2.621662 6.571294 4.552206l0.114627 0.118124 0.01895 0.163142c0.136042 1.182562 0.06055 2.46023-0.224169 3.797121l-0.0045 0.02166c-0.430927 1.645627-1.073235 3.32404-1.909668 4.987817-0.523214 1.040419-1.129008 2.087617-1.804595 3.118792l2.070362 1.692279z"/>
      <path id="path4" d="m-52.498054 1.8263674 9.564212-0.2463542-1.942947 2.379575c4.290322 2.6565886 8.468175 3.4716066 11.52688 2.2329026l1.098041-0.4444852-0.476994 1.0847904c-1.089412 2.4804893-2.620383 4.693055-4.54931 6.575145l-0.118324 0.114473-0.163157 0.01895c-1.181391 0.136042-2.458304 0.06055-3.794687-0.223706l-0.02157-0.0048c-1.64421-0.431236-3.321853-1.073544-4.984397-1.910593-1.039803-0.523522-2.08623-1.130087-3.117251-1.8059814l-1.691201 2.0715934z"/>
      <path id="path5-6" d="m-57.357656-14.337333-9.564058 0.246354 1.942485-2.380037c-4.289875-2.656481-8.46782-3.471483-11.526526-2.232733l-1.097593 0.444778 0.476577-1.084791c1.089135-2.48089 2.620352-4.693363 4.549341-6.575515l0.118047-0.114395 0.163034-0.01895c1.181807-0.136057 2.458658-0.06059 3.795056 0.223722l0.02165 0.0051c1.644518 0.43085 3.321853 1.073574 4.984243 1.910578 1.039802 0.52326 2.086384 1.129762 3.117251 1.805657l1.6912-2.071686z"/>
    </g>
    <path id="path6" d="m-34.450106-6.4882021c0 11.301325-9.155625 20.462342-20.4494 20.462342-11.294238 0-20.449694-9.161017-20.449694-20.462342 0-11.301017 9.155456-20.462327 20.449694-20.462327 11.293775 0 20.4494 9.16131 20.4494 20.462327z" fill="#d98f40"/>
    <g fill="#fefefe">
      <path id="path7" d="m-62.379645-13.692406c-1.190943-0.538466-2.051103-1.081093-2.945466-1.720011-1.36581-0.934112-2.60986-1.996871-3.66416-3.098594-2.565211-2.617625-3.908034-5.29378-3.534944-7.478844l-0.766456 0.807206c-1.865405 1.964055-4.340979 5.398701-4.362626 6.893018l0.04567 0.157611c0.331137 1.143028 0.894301 2.292065 1.672589 3.415372l0.01285 0.01833c1.003905 1.630344 3.008988 4.290631 10.110999 7.4091142l-1.255852 2.361395 9.584749-2.5763194-3.45281-8.8824628z"/>
      <path id="path8" d="m-47.476372 1.1817483c1.191251 0.5384664 2.051102 1.0810927 2.945465 1.7200113 1.366118 0.9342663 2.609906 1.9965628 3.664191 3.0986088 2.565535 2.6173014 3.907926 5.2940726 3.534929 7.4785986l0.766794-0.807007c1.865298-1.964054 4.340549-5.3986846 4.36258-6.8929868l-0.046066-0.1576112c-0.331091-1.143028-0.893901-2.2923728-1.672558-3.4156801l-0.01279-0.018026c-1.003597-1.630344-3.009096-4.2906302-10.110998-7.4091138l1.255805-2.361395-9.584703 2.5763194 3.453118 8.8824628z"/>
      <path id="path9" d="m-47.251588-13.767591c0.537696-1.192021 1.080323-2.052335 1.718933-2.947314 0.933188-1.36658 1.995639-2.611462 3.096144-3.666425 2.616377-2.567184 5.290837-3.910515 7.474438-3.537194l-0.807006-0.767287c-1.96236-1.866576-5.394833-4.343399-6.887903-4.3654l-0.157919 0.04604c-1.142566 0.331353-2.290524 0.894532-3.413215 1.673668l-0.01833 0.01285c-1.629266 1.004536-4.287857 3.010898-7.404338 10.117515l-2.359854-1.256745 2.574624 9.5907272 8.876763-3.4552752z"/>
      <path id="path10" d="m-62.727684 1.0963948c-0.538158 1.1920215-1.080323 2.0523353-1.718933 2.9468521-0.933496 1.3670424-1.995638 2.6119091-3.096282 3.6668103-2.616285 2.5672298-5.290422 3.9105458-7.4741 3.5372398l0.806698 0.767257c1.962483 1.866221 5.394941 4.343475 6.887934 4.365045l0.157966-0.0456c1.142596-0.331399 2.290554-0.894516 3.413245-1.674099l0.01818-0.01248c1.629266-1.004521 4.287857-3.010944 7.4048-10.117469l2.359546 1.2567299-2.574624-9.5908659-8.876917 3.4549672z"/>
    </g>
  </g>
</svg>
