<svg id="svg290" version="1.1" viewBox="0 0 64 64" xmlns="http://www.w3.org/2000/svg">
    <defs id="defs278">
        <filter id="filter1228-3" x="-.027" y="-.026999988" width="1.054" height="1.054" color-interpolation-filters="sRGB">
            <feGaussianBlur id="feGaussianBlur1230-6" stdDeviation="0.16370771"/>
        </filter>
        <linearGradient id="linearGradient899" x1="32.000149" x2="32" y1="4.5000167" y2="59.500008" gradientUnits="userSpaceOnUse">
            <stop id="stop893" stop-color="#e02325" offset="0"/>
            <stop id="stop895" stop-color="#fead43" offset="1"/>
        </linearGradient>
    </defs>
    <path id="path1216" transform="scale(3.779602)" d="m5.1592729 1.1905986c-0.685012 0-1.328538 0.1718302-1.889769 0.474897v0.8479936h-1.03971v-0.036173c-0.64569 0.7053368-1.039192 1.6459248-1.039192 2.681954v6.6144538c0 1.036029 0.393502 1.976616 1.039192 2.681954v-0.03617h1.03971v0.847996c0.561231 0.303068 1.204757 0.474897 1.889769 0.474897h6.6144541c0.685012 0 1.328538-0.171829 1.88977-0.474897v-0.847996h1.039709v0.03617c0.645689-0.705338 1.039192-1.645925 1.039192-2.681954v-6.6144536c0-1.0360292-0.393503-1.9766172-1.039192-2.681954v0.036173h-1.039709v-0.8479938c-0.561232-0.3030668-1.204758-0.474897-1.88977-0.474897zm-2.929479 2.6457812h1.03971v1.3228906h-1.03971zm11.433703 0h1.039709v1.3228906h-1.039709zm-11.433703 2.6457813h1.03971v1.3228906h-1.03971zm11.433703 0h1.039709v1.3228906h-1.039709zm-11.433703 2.6457812h1.03971v1.3228907h-1.03971zm11.433703 0h1.039709v1.3228907h-1.039709zm-11.433703 2.6457817h1.03971v1.32289h-1.03971zm11.433703 0h1.039709v1.32289h-1.039709z" enable-background="new" fill="#141414" filter="url(#filter1228-3)" opacity=".3" style="paint-order:normal"/>
    <path id="rect1792-1-3" d="m19.500127 4.50004c-0.234112 0-0.465839 0.0071-0.697265 0.01758-0.06465 0.0029-0.128934 8e-3 -0.193361 0.01172-0.192336 0.01119-0.383938 0.02468-0.574219 0.04297-0.0325 0.0031-0.0652 0.0064-0.09766 0.0098-0.213302 0.02188-0.426215 0.04745-0.636719 0.07812-0.0027 3.88e-4 -0.0051 0.0016-0.0078 2e-3 -0.117792 0.01727-0.234691 0.03666-0.351564 0.05664-0.09138 0.01557-0.182638 0.0316-0.273439 0.04883-0.113596 0.02158-0.227184 0.04426-0.339843 0.06836-0.146773 0.03137-0.292379 0.06596-0.4375 0.101561-0.05838 0.01432-0.117682 0.026-0.175782 0.04102-0.0072 0.0019-0.01429 4e-3 -0.02147 0.0059-0.189845 0.04931-0.377654 0.103709-0.564453 0.160157-0.0084 0.0029-0.01701 0.0049-0.0254 0.0078-0.102514 0.03118-0.204329 0.06596-0.306639 0.09961-0.06214 0.02045-0.124999 0.04092-0.187495 0.06251-0.734114 0.253565-1.509263 0.595662-2.576171 1.166015-0.940026 0.538462-1.818225 1.1723-2.6152345 1.894531-0.0048 0.0043-0.0089 0.0093-0.01368 0.01368-0.09455 0.08849-0.189194 0.177214-0.283219 0.269539-0.662605 0.650608-1.308901 1.395229-1.890625 2.195313-0.03712 0.0527-0.07487 0.105001-0.111328 0.158203-0.05429 0.07919-0.107359 0.159952-0.160157 0.240235-0.0768 0.116839-0.152975 0.234411-0.22656 0.353514-0.03523 0.057-0.06903 0.11437-0.103516 0.171873-0.07376 0.123057-0.144543 0.247712-0.214844 0.373047-0.04133 0.07366-0.08488 0.146274-0.124999 0.220702-0.02604 0.04831-0.05067 0.09786-0.07617 0.146483-0.07341 0.139947-0.145764 0.281289-0.214844 0.423828-0.02264 0.04668-0.04425 0.09367-0.06641 0.140624-0.07374 0.156279-0.144445 0.313438-0.21289 0.472656-0.02812 0.06538-0.05482 0.131402-0.08203 0.197265-0.07922 0.191826-0.157095 0.384291-0.228515 0.580078-0.07846 0.215101-0.151902 0.432705-0.220702 0.652344-0.0209 0.0667-0.04055 0.134073-0.06054 0.201173-0.04376 0.146905-0.08564 0.294578-0.124999 0.443359-0.02098 0.0792-0.04085 0.158566-0.06054 0.238281-0.03262 0.132033-0.06269 0.26503-0.09179 0.398438-0.02204 0.100927-0.04446 0.201045-0.06445 0.302735-0.03894 0.198085-0.07436 0.398756-0.10547 0.599609-0.0095 0.06149-0.01659 0.123809-0.0254 0.185548-0.026 0.182967-0.04897 0.367661-0.06836 0.552735-0.0045 0.04298-0.0095 0.08582-0.01368 0.128907-0.01837 0.190923-0.03179 0.383178-0.04297 0.576172-0.0037 0.06313-0.0088 0.12611-0.01172 0.189453-0.01058 0.232067-0.01758 0.464451-0.01758 0.699218v24.999874c0 0.238682 0.0067 0.475031 0.01758 0.710935 0.0028 0.05957 0.0083 0.11834 0.01172 0.177755 0.011 0.189736 0.02502 0.378663 0.04297 0.566404 5e-3 0.05152 0.01017 0.102956 0.01561 0.154283 0.01723 0.162787 0.03819 0.325159 0.06054 0.486329 0.01281 0.09218 0.02264 0.185729 0.03712 0.277347 0.03175 0.200924 0.06585 0.399512 0.10547 0.597657 0.0186 0.09302 0.0422 0.184936 0.0625 0.277347 0.02865 0.130737 0.05782 0.261209 0.08984 0.390626 0.02419 0.09751 0.05009 0.194272 0.07617 0.291029 0.02797 0.104091 0.05775 0.207387 0.08789 0.310532 0.03651 0.124614 0.07366 0.249832 0.113282 0.373047 0.02857 0.08886 0.05967 0.175563 0.08984 0.263665 0.03307 0.0968 0.06268 0.195141 0.09766 0.29103 0.06729 0.184028 0.140651 0.366356 0.214844 0.546874 0.06367 0.154926 0.130578 0.308718 0.199219 0.460938 0.01534 0.03402 0.0313 0.06769 0.04687 0.101557 0.06737 0.146498 0.135129 0.291672 0.207032 0.43555 0.01576 0.03137 0.03285 0.06236 0.04883 0.09373 0.247303 0.486181 0.519535 0.95848 0.816406 1.412108 0.102862 0.157156 0.207886 0.311855 0.316406 0.464846 0.02215 0.03137 0.04403 0.0627 0.06641 0.09373 0.05049 0.06856 0.100723 0.137351 0.152344 0.205081 0.03398 0.04547 0.06709 0.09166 0.101562 0.136708 0.119462 0.155947 0.241883 0.309625 0.367188 0.460938 0.119485 0.144116 0.242473 0.284339 0.367189 0.423825 0.03912 0.04377 0.07561 0.08954 0.115236 0.132816v-0.0079c0.233954 0.25603 0.47633 0.503847 0.724609 0.742185 0.120807 0.115958 0.243618 0.228326 0.367188 0.339862 0.130389 0.117659 0.261537 0.233239 0.394532 0.34572 0.01104 0.0091 0.02215 0.01814 0.03318 0.02721 1.5895695 1.310755 3.4573805 2.29494 5.5019525 2.863283 1.082439 0.272585 1.990274 0.427431 2.851562 0.5 0.07741 6e-3 0.154673 0.01285 0.232424 0.01776 0.103155 0.0068 0.206173 0.01285 0.308592 0.01776 0.218616 0.0094 0.437198 0.01739 0.658203 0.01739h24.999997c0.220994 0 0.439583-0.0083 0.658203-0.01739 0.102427-0.0045 0.205421-0.01058 0.308604-0.01776 0.07775-0.0049 0.155002-0.01134 0.232408-0.01776 0.861288-0.07257 1.769096-0.227419 2.851562-0.5 2.044572-0.568343 3.912384-1.552528 5.501952-2.863283 0.145893-0.120305 0.286569-0.247375 0.427734-0.373047 0.123593-0.111498 0.246392-0.223866 0.367188-0.339862 0.248281-0.238341 0.490653-0.48617 0.724609-0.742185v0.0079c0.03961-0.04328 0.07612-0.08905 0.11524-0.132815 0.124727-0.139467 0.247715-0.27969 0.36719-0.423826l2e-3 -2e-3c0.131455-0.158252 0.259735-0.319074 0.384764-0.48242 0.02835-0.03704 0.05412-0.07597 0.08202-0.113275 0.05163-0.06773 0.101859-0.136482 0.152355-0.205081 0.0223-0.03099 0.04426-0.06251 0.06641-0.09373 0.108512-0.152999 0.213547-0.30766 0.31639-0.464846 0.296888-0.453628 0.569102-0.925927 0.816406-1.412109 0.01587-0.03137 0.03326-0.06225 0.04883-0.09373 0.07189-0.143851 0.139655-0.289064 0.207046-0.43555 0.01814-0.03972 0.03666-0.07922 0.05469-0.119133 0.05975-0.133004 0.119813-0.267293 0.175789-0.402342 0.0627-0.1516 0.121854-0.304901 0.179682-0.458984 0.05235-0.139089 0.100159-0.278897 0.148424-0.419921 0.02683-0.07888 0.05635-0.156854 0.08202-0.236339 0.0029-0.0091 0.0049-0.01852 0.0079-0.02721 0.03961-0.123253 0.07676-0.248433 0.113274-0.373046 0.03024-0.103146 0.05991-0.20648 0.08788-0.310533 0.02608-0.09672 0.05197-0.193515 0.07616-0.291029 0.03213-0.129413 0.06119-0.259885 0.08984-0.390626 0.02041-0.09237 0.04392-0.184331 0.06252-0.277347 8.97e-4 -0.0045 0.0011-0.0091 2e-3 -0.01361 0.03855-0.193705 0.07249-0.387617 0.103524-0.583983 0.01436-0.09162 0.02419-0.185163 0.03704-0.277347 0.0223-0.161162 0.04331-0.323534 0.06055-0.486329 0.0053-0.05137 0.01058-0.102805 0.0155-0.154283 0.01776-0.187733 0.03213-0.376675 0.04297-0.566404 0.0035-0.05938 0.0091-0.11815 0.01172-0.177755 0.01096-0.235885 0.01739-0.472238 0.01739-0.710935v-25.000042c0-0.245255-6e-3 -0.488168-0.01739-0.730468-6.77e-4 -0.01444-0.0012-0.02857-2e-3 -0.04297-0.0018-0.0367-0.0057-0.07274-0.0079-0.109374-0.187421-3.257967-1.404486-6.231394-3.333784-8.59961-1.743218-1.861851-3.047652-2.884879-4.214847-3.542969-0.71056-0.400632-1.33989-0.702649-1.947265-0.945313-0.05802-0.02264-0.115429-0.04641-0.173824-0.06836-0.07102-0.02721-0.142226-0.05243-0.212905-0.07813-0.174466-0.06255-0.349915-0.12346-0.527345-0.179686-0.06028-0.01916-0.121136-0.03831-0.181647-0.05664-0.176924-0.05359-0.355472-0.103198-0.535158-0.15039-0.02948-0.0078-0.05824-0.0178-0.08788-0.0254-0.0072-0.0018-0.01436-0.0021-0.02154-0.0039-0.182139-0.04637-0.365978-0.08924-0.550778-0.128907-0.0053-0.0011-0.0102-0.0028-0.0155-0.0039-0.124349-0.02657-0.249491-0.04876-0.375012-0.07227-0.09286-0.01739-0.185805-0.03511-0.279312-0.05078-0.108248-0.01818-0.217139-0.03492-0.32618-0.05078-0.209995-0.03046-0.421993-0.05835-0.634765-0.08008-0.02532-0.0026-0.05091-0.0034-0.07616-0.0059-0.194158-0.01886-0.389655-0.03349-0.585937-0.04492-0.0703-0.0041-0.140374-0.0086-0.210939-0.01172-0.226323-0.01005-0.452774-0.01758-0.68164-0.01758zm-11.072266 10h3.9296885v5h-3.9296885zm43.214842 0h3.92969v5h-3.92969zm-43.214842 10h3.9296885v5h-3.9296885zm43.214842 0h3.92969v5h-3.92969zm-43.214842 10h3.9296885v5.000001h-3.9296885zm43.214842 0h3.92969v5.000001h-3.92969zm-43.214842 10.000002h3.9296885v4.999998h-3.9296885zm43.214842 0h3.92969v4.999998h-3.92969z" enable-background="new" fill="url(#linearGradient899)" stroke-width="3.7796" style="paint-order:normal"/>
    <path id="path1927" d="m8.4277346 12.625v1.875h3.9296874v-1.875zm43.214842 0v1.875h3.92969v-1.875zm-43.214842 10v1.875h3.9296874v-1.875zm43.214842 0v1.875h3.92969v-1.875zm-43.214842 10v1.875h3.9296874v-1.875zm43.214842 0v1.875h3.92969v-1.875zm-43.214842 10.000002v1.875h3.9296874v-1.875zm43.214842 0v1.875h3.92969v-1.875zm-39.542566 14.936836 0.257414 0.143247c2.121234 1.145476 4.553499 1.794922 7.142578 1.794922h25.000003c2.589076 0 5.021341-0.649446 7.142575-1.794922l0.191814-0.106925z" enable-background="new" fill="#b53117" opacity=".8" stroke-width="3.7796" style="paint-order:normal"/>
    <g id="g41" fill="#fff" stroke-width=".551724">
        <path id="path455" d="m25.37931 29.241379h13.24138v8.827587h-13.24138z"/>
        <path id="path457" d="m32 48-12.137931-12.137931h24.275862z"/>
        <path id="path459" d="m25.37931 29.241379h4.413793v-4.413793h-4.413793z" fill-opacity=".680048"/>
        <path id="path461" d="m29.793103 29.241379h4.413794v-4.413793h-4.413794z"/>
        <path id="path463" d="m34.206897 29.241379h4.413793v-4.413793h-4.413793z" fill-opacity=".881557"/>
        <path id="path465" d="m38.62069 24.827586h-4.413793v-4.413793h4.413793z" fill-opacity=".675122"/>
        <path id="path467" d="m34.206897 24.827586h-4.413794v-4.413793h4.413794z" fill-opacity=".54493"/>
        <path id="path469" d="m29.793103 24.827586h-4.413793v-4.413793h4.413793z" fill-opacity=".881557"/>
        <path id="path471" d="m38.62069 20.413793h-4.413793v-4.413793h4.413793z" fill-opacity=".189116"/>
        <path id="path473" d="m34.206897 20.413793h-4.413794v-4.413793h4.413794z" fill-opacity=".343781"/>
        <path id="path475" d="m29.793103 20.413793h-4.413793v-4.413793h4.413793z" fill-opacity=".065324"/>
    </g>
</svg>
