<svg id="svg44" version="1.1" viewBox="0 0 64 64" xmlns="http://www.w3.org/2000/svg">
  <defs id="defs22">
    <filter id="filter1057" x="-.026999999" y="-.026999999" width="1.054" height="1.054" color-interpolation-filters="sRGB">
      <feGaussianBlur id="feGaussianBlur1059" stdDeviation="0.61875"/>
    </filter>
    <linearGradient id="linearGradient1053" x1="-127" x2="-72" y1="60" y2="5" gradientTransform="translate(131.5 -.50999746)" gradientUnits="userSpaceOnUse">
      <stop id="stop1047" stop-color="#f0f0f0" offset="0"/>
      <stop id="stop1049" stop-color="#fafafa" offset="1"/>
    </linearGradient>
    <filter id="filter2" x="-.027000001" y="-.027000001" width="1.054" height="1.054" color-interpolation-filters="sRGB">
      <feGaussianBlur id="feGaussianBlur2" stdDeviation="0.50625"/>
    </filter>
    <filter id="filter3" x="-.027006594" y="-.026993408" width="1.0540132" height="1.0539868" color-interpolation-filters="sRGB">
      <feGaussianBlur id="feGaussianBlur3" stdDeviation="0.40509892"/>
    </filter>
  </defs>
  <g fill="#5e4aa6">
    <g id="g30">
      <circle id="circle24" cx="-1248.7" cy="-1241.6" r="0"/>
      <circle id="circle26" cx="-1140.3" cy="-1301.8" r="0"/>
      <circle id="circle28" cx="-1158.1" cy="-1246" r="0"/>
    </g>
    <circle id="circle36" cx="-1157.3" cy="-1267.7" r="0"/>
    <circle id="circle38" cx="-57.756" cy="-2.1829" r="0" fill-rule="evenodd"/>
  </g>
  <rect id="rect1055" x="4.5" y="4.5" width="55" height="55" ry="15" fill="#141414" filter="url(#filter1057)" opacity=".3" stroke-linecap="round" stroke-width="2.74436"/>
  <rect id="rect1045" x="4.5000019" y="4.5000019" width="54.999996" height="54.999996" ry="14.999999" fill="url(#linearGradient1053)" stroke-linecap="round" stroke-width="2.74436"/>
  <circle id="circle2" cx="32" cy="32" r="22.5" fill="#222222" filter="url(#filter2)" opacity=".5"/>
  <circle id="path2" cx="32" cy="32" r="22.5" fill="#eb3225"/>
  <path id="path3" d="m32 13.991207c-9.918905 0-18 8.089887-18 18.008793 0 9.918905 8.081095 18.008793 18 18.008793s18-8.089888 18-18.008793c0-9.918906-8.081095-18.008793-18-18.008793zm0 4.502198c7.483146 0 13.497802 6.023448 13.497802 13.506595 0 7.483146-6.014656 13.506594-13.497802 13.506594s-13.497802-6.023448-13.497802-13.506594c0-7.483147 6.014656-13.506595 13.497802-13.506595zm7.667806 4.502198c-0.202238-0.0088-0.430874 0.03518-0.650707 0.131892l-10.147534 4.642892c-0.492428 0.219843-0.888128 0.615534-1.116756 1.107962l-4.634097 10.156335c-0.536397 1.169516 0.668293 2.374208 1.837811 1.837811l10.156324-4.634099c0.492428-0.228626 0.88813-0.624326 1.107964-1.116754l4.642892-10.147534c0.430874-0.958475-0.281388-1.934538-1.195897-1.978505zm-7.676599 6.753298c0.571568 0 1.151928 0.228626 1.582804 0.659502 0.879336 0.879336 0.879336 2.303858 0 3.183194-0.870543 0.870542-2.295065 0.870542-3.174403 0-0.87054-0.879336-0.87054-2.303858 0-3.183194 0.439669-0.430876 1.020032-0.659502 1.591599-0.659502z" fill="#222222" filter="url(#filter3)" opacity=".5" stroke-width="2.2511"/>
  <path id="path1" d="m32 13.991207c-9.918905 0-18 8.089887-18 18.008793 0 9.918905 8.081095 18.008793 18 18.008793s18-8.089888 18-18.008793c0-9.918906-8.081095-18.008793-18-18.008793zm0 4.502198c7.483146 0 13.497802 6.023448 13.497802 13.506595 0 7.483146-6.014656 13.506594-13.497802 13.506594s-13.497802-6.023448-13.497802-13.506594c0-7.483147 6.014656-13.506595 13.497802-13.506595zm7.667806 4.502198c-0.202238-0.0088-0.430874 0.03518-0.650707 0.131892l-10.147534 4.642892c-0.492428 0.219843-0.888128 0.615534-1.116756 1.107962l-4.634097 10.156335c-0.536397 1.169516 0.668293 2.374208 1.837811 1.837811l10.156324-4.634099c0.492428-0.228626 0.88813-0.624326 1.107964-1.116754l4.642892-10.147534c0.430874-0.958475-0.281388-1.934538-1.195897-1.978505zm-7.676599 6.753298c0.571568 0 1.151928 0.228626 1.582804 0.659502 0.879336 0.879336 0.879336 2.303858 0 3.183194-0.870543 0.870542-2.295065 0.870542-3.174403 0-0.87054-0.879336-0.87054-2.303858 0-3.183194 0.439669-0.430876 1.020032-0.659502 1.591599-0.659502z" fill="#fafafa" stroke-width="2.2511"/>
</svg>
