<svg id="svg290" version="1.1" viewBox="0 0 64 64" xmlns="http://www.w3.org/2000/svg">
  <defs id="defs278">
    <style id="style266" type="text/css"/>
    <style id="style268" type="text/css"/>
    <filter id="filter2386" x="-.026999999" y="-.026999999" width="1.054" height="1.054" color-interpolation-filters="sRGB">
      <feGaussianBlur id="feGaussianBlur2388" stdDeviation="0.61875"/>
    </filter>
    <filter id="filter2392" x="-.027000001" y="-.027000001" width="1.054" height="1.054" color-interpolation-filters="sRGB">
      <feGaussianBlur id="feGaussianBlur2394" stdDeviation="0.23287497"/>
    </filter>
    <linearGradient id="linearGradient1035" x1="4.5" x2="59.5" y1="59.5" y2="4.5" gradientUnits="userSpaceOnUse">
      <stop id="stop1029" stop-color="#8e8e8e" offset="0"/>
      <stop id="stop1031" stop-color="#a6a6a6" offset="1"/>
    </linearGradient>
  </defs>
  <path id="rect280" d="m19.5 4.5c-8.309992 0-15 6.690008-15 15v25c0 8.309992 6.690008 15 15 15h24.564453a11 11 0 0 1-3.201172-7.660156 11 11 0 0 1 11-11 11 11 0 0 1 7.636719 3.091797v-24.431641c0-8.309992-6.690008-15-15-15h-25z" fill="#141414" filter="url(#filter2386)" opacity=".3"/>
  <path id="rect282" d="m19.5 4.5c-8.309992 0-15 6.690008-15 15v25c0 8.309992 6.690008 15 15 15h24.507812a11 11 0 0 1-3.144531-7.660156 11 11 0 0 1 11-11 11 11 0 0 1 7.636719 3.08789v-24.427734c0-8.309992-6.690008-15-15-15h-25z" fill="url(#linearGradient1035)"/>
  <circle id="circle284" cx="-1326.3" cy="-1241.6" r="0" fill="#5e4aa6"/>
  <circle id="circle286" cx="-226.72" cy="23.855" r="0" fill="#5e4aa6" fill-rule="evenodd"/>
  <path id="path1756" d="m15.999737 22.216208 2.75471 10.280699 10.280688-2.754706-3.910612-2.257798c2.493889-4.319552 8.017276-5.799539 12.336834-3.305645 4.319559 2.493895 5.799546 8.017286 3.305643 12.336837-2.493889 4.319553-8.017276 5.799542-12.336835 3.305647-1.410145-0.818324-2.572414-2.003205-3.363547-3.428795l-5.919435 1.586109c1.279901 2.964139 3.478996 5.438182 6.272585 7.056846 7.19926 4.156492 16.404905 1.689845 20.56139-5.509409 4.156501-7.199252 1.689857-16.404905-5.509403-20.561396s-16.404905-1.689843-20.56139 5.509409z" opacity=".5"/>
  <circle id="circle2390" cx="51.863792" cy="51.840103" r="10.349998" fill="#141414" filter="url(#filter2392)" opacity=".3" stroke-width=".999979"/>
  <circle id="circle1760" cx="51.863792" cy="51.840103" r="10.349998" fill="#3583f3" stroke-width=".999979"/>
  <path id="path1762" d="m52.863792 46.840102v2h-3.16015c-1.37185 8e-5 -2.63946 0.773569-3.32538 1.953268-0.68596 1.179767-0.68596 2.969738 0 4.149506 0.65298 1.119355 1.83295 1.833646 3.13412 1.897226-0.9815-0.09757-1.64868-0.617526-1.64859-1.597 0-1.05295 0.77944-1.403 1.83985-1.403h3.16015v2l5-4.5z" fill="#fff" fill-rule="evenodd"/>
</svg>
