<svg id="svg29" width="64" height="64" version="1.1" viewBox="0 0 16.933 16.933" xmlns="http://www.w3.org/2000/svg">
    <defs id="defs15">
        <filter id="filter1057" x="-.026999999" y="-.026999999" width="1.054" height="1.054" color-interpolation-filters="sRGB">
            <feGaussianBlur id="feGaussianBlur1059" stdDeviation="0.61875"/>
        </filter>
        <linearGradient id="linearGradient1053" x1="-127" x2="-72" y1="60" y2="5" gradientTransform="matrix(.26457812 0 0 .26457812 34.792023 -.13493417)" gradientUnits="userSpaceOnUse">
            <stop id="stop1049" stop-color="#6c62cd" offset="0"/>
            <stop id="stop1047" stop-color="#7838ba" offset="1"/>
        </linearGradient>
        <filter id="filter5860" x="-.029250546" y="-.025071026" width="1.0585011" height="1.0501421" color-interpolation-filters="sRGB">
            <feGaussianBlur id="feGaussianBlur5862" stdDeviation="0.079314742"/>
        </filter>
        <filter id="filter5866" x="-.029250432" y="-.025071112" width="1.0585009" height="1.0501422" color-interpolation-filters="sRGB">
            <feGaussianBlur id="feGaussianBlur5868" stdDeviation="0.079316502"/>
        </filter>
    </defs>
    <g id="g200" fill="#5e4aa6">
        <circle id="circle21" cx="-306.19" cy="-335.4" r="0" stroke-width=".26458"/>
        <circle id="circle23" cx="-15.281" cy="-.5775" r="0" fill-rule="evenodd" stroke-width=".26458"/>
        <g id="g30" transform="scale(.26457812)">
            <circle id="circle24" cx="-1248.7" cy="-1241.6" r="0"/>
            <circle id="circle26" cx="-1140.3" cy="-1301.8" r="0"/>
            <circle id="circle28" cx="-1158.1" cy="-1246" r="0"/>
        </g>
        <circle id="circle36" cx="-306.19626" cy="-335.40567" r="0" stroke-width=".264578"/>
        <circle id="circle38" cx="-15.280974" cy="-.57754755" r="0" fill-rule="evenodd" stroke-width=".264578"/>
    </g>
    <rect id="rect1055" transform="scale(.26457812)" x="4.5" y="4.5" width="55" height="55" ry="15" fill="#141414" filter="url(#filter1057)" opacity=".3" stroke-linecap="round" stroke-width="2.74436"/>
    <rect id="rect1045" x="1.1906021" y="1.1906021" width="14.551796" height="14.551796" ry="3.9686716" fill="url(#linearGradient1053)" stroke-linecap="round" stroke-width=".726098"/>
    <path id="path5858" d="m3.5882432 5.6160291c-0.3755561 0-0.6778908 0.3023347-0.6778908 0.6778907v6.2368632c0 0.375556 0.3023347 0.67789 0.6778908 0.67789h5.151973c0.375551 0 0.6778908-0.302334 0.6778908-0.67789v-6.2368632c0-0.375556-0.3023398-0.6778907-0.6778908-0.6778907h-2.5759891z" filter="url(#filter5860)" opacity=".3" stroke-width=".512432" style="paint-order:stroke fill markers"/>
    <path id="path964" d="m3.5882432 5.6160291c-0.3755561 0-0.6778908 0.3023347-0.6778908 0.6778907v6.2368632c0 0.375556 0.3023347 0.67789 0.6778908 0.67789h5.151973c0.375551 0 0.6778908-0.302334 0.6778908-0.67789v-6.2368632c0-0.375556-0.3023398-0.6778907-0.6778908-0.6778907h-2.5759891z" fill="#d9d9d9" stroke-width=".512432" style="paint-order:stroke fill markers"/>
    <g id="g2165" transform="matrix(.51243171 0 0 .51243171 163.91741 84.307964)" opacity=".2">
        <rect id="rect818" x="-309.05017" y="-149.30406" width="5.0320001" height="3.3546" color="#000000" fill="#1d8cbf"/>
        <g id="g220" fill="#249bd0" stroke-width=".059904">
            <rect id="rect820" x="-311.14697" y="-149.30026" width="1.857" height=".29951999" color="#000000"/>
            <rect id="rect822" x="-311.68607" y="-145.70605" width="7.6676998" height=".29951999" color="#000000"/>
            <rect id="rect824" x="-311.68607" y="-143.30997" width="5.0318999" height=".29951999" color="#000000"/>
            <rect id="rect826" x="-311.68607" y="-148.70126" width="2.3961999" height=".29951999" color="#000000"/>
            <rect id="rect828" x="-311.68607" y="-148.10226" width="2.3961999" height=".29951999" color="#000000"/>
            <rect id="rect830" x="-311.68607" y="-147.50316" width="2.3961999" height=".29951999" color="#000000"/>
            <rect id="rect832" x="-311.68607" y="-146.90416" width="2.3961999" height=".29951999" color="#000000"/>
            <rect id="rect834" x="-311.68607" y="-146.30505" width="2.3961999" height=".29951999" color="#000000"/>
            <rect id="rect836" x="-311.68607" y="-145.10706" width="7.6676998" height=".29951999" color="#000000"/>
            <rect id="rect838" x="-311.68607" y="-144.50797" width="7.6676998" height=".29951999" color="#000000"/>
            <rect id="rect840" x="-311.68607" y="-143.90897" width="7.6676998" height=".29951999" color="#000000"/>
        </g>
        <rect id="rect844" x="-308.81018" y="-149.06506" width="4.5525999" height="2.8754001" color="#000000" fill="#8bcef3"/>
        <path id="path846" d="m-304.25817-146.94806h-0.19563l-0.86666 0.15176s-0.85641-0.22763-0.98525-0.22763c-0.12658 0-0.5323 0.0759-0.60822 0.0759-0.0532 0-0.37934-0.15175-0.45647-0.15175-0.12725 0-0.27388 0.16123-0.65327 0.22762 0 0-0.109-0.24185-0.18014-0.22762-0.45526 0.17547-0.60711 0.15175-0.60711 0.15175v0.75877h4.5526l1.2e-4 -0.75877h2e-5z" color="#000000" fill="#18a203"/>
        <path id="path850" d="m-304.25757-148.16646a0.89857 0.89857 0 0 1-0.89857-0.89857h0.89857z" color="#000000" fill="#ffd441"/>
    </g>
    <path id="path5864" d="m8.1929361 3.7243264c-0.3755557 0-0.6782398 0.3026842-0.6782398 0.6782399v6.2366417c0 0.01173 5.787e-4 0.0237 0.00136 0.03527 5.125e-4 0.01159 0.00123 0.02293 0.00226 0.03436 0.00102 0.01143 0.00298 0.02264 0.00452 0.03392 0.00154 0.01123 0.00337 0.02243 0.00588 0.03346 0.00205 0.01107 0.00442 0.02214 0.00724 0.033 0.00256 0.01087 0.00621 0.0215 0.0095 0.0321 0.00307 0.0106 0.00661 0.02125 0.010399 0.03165 0.00359 0.0104 0.0079 0.0206 0.012208 0.03075 0.0041 0.01015 0.0089 0.01995 0.013565 0.02985 0.00461 0.0099 0.00975 0.01976 0.014921 0.02939 0.00522 0.0096 0.010641 0.01917 0.016278 0.02849 0.00563 0.0093 0.011536 0.01856 0.017634 0.02758 0.0061 9e-3 0.01203 0.01751 0.018539 0.02622 0.00651 0.0088 0.013429 0.01741 0.020347 0.02578 0.00687 0.0083 0.013975 0.01682 0.021252 0.02487 0.00728 8e-3 0.014973 0.01536 0.022608 0.02306 0.00764 0.0076 0.015467 0.01533 0.023512 0.02261 8e-3 0.0073 0.015962 0.01439 0.024417 0.02125 0.00836 0.0069 0.016609 0.01339 0.025321 0.0199 0.00871 0.0065 0.018111 0.01289 0.027129 0.01899 0.00902 0.0061 0.017905 0.012 0.027129 0.01763 0.00933 0.0056 0.018903 0.0111 0.028486 0.01628 0.00958 0.0053 0.019048 0.01021 0.028938 0.01492 0.00989 0.0046 0.020149 0.0093 0.030295 0.01356 0.010147 0.0041 0.020345 0.0084 0.030747 0.01221 0.010402 0.0036 0.021044 0.0076 0.031651 0.01085 0.010608 0.0031 0.021291 0.0058 0.032104 0.0086 0.010863 0.0025 0.02194 0.0054 0.033008 0.0077 0.011069 2e-3 0.022238 0.0041 0.03346 0.0059 0.011222 0.0016 0.022485 0.0035 0.033912 0.0046s0.022782 0.0023 0.034364 0.0027c0.011581 5.13e-4 0.023534 4.53e-4 0.035269 4.53e-4h0.3716648v-2.0782425h1.0494605v1.5739685h0.8396604v-1.5739685h0.840114v1.1543635h0.83966v-0.9450135h0.839662v1.8687765h0.371675c0.01173 0 0.02323 3.37e-4 0.03482-4.52e-4 0.01158-5.13e-4 0.02293-0.0017 0.03436-0.0027s0.02309-3e-3 0.03436-0.0046c0.01123-0.0016 0.02239-0.0036 0.03346-0.0059 0.01107-2e-3 0.02169-0.0052 0.03256-0.0077s0.02194-0.0057 0.03256-9e-3c0.0106-0.0031 0.0208-0.0066 0.0312-0.0104 0.0104-0.0036 0.0206-0.0079 0.03075-0.01221 0.01014-0.0041 0.02041-0.0088 0.03029-0.01356 0.0099-0.0046 0.01935-0.0097 0.02894-0.01492 0.0096-0.0053 0.01917-0.01064 0.02849-0.01628 0.0093-0.0056 0.01856-0.01159 0.02758-0.01763 9e-3 -0.0061 0.01796-0.01248 0.02668-0.01899 0.0087-0.0065 0.01697-0.01298 0.02532-0.0199 0.0083-0.0069 0.01682-0.01397 0.02487-0.02125 8e-3 -0.0073 0.01583-0.01497 0.02351-0.02261 0.0076-0.0076 0.01487-0.01502 0.02215-0.02307 0.0073-8e-3 0.01483-0.01646 0.0217-0.02487 0.0069-0.0083 0.01339-0.01712 0.0199-0.02578 0.0065-0.0087 0.01289-0.0172 0.01899-0.02622 0.0061-9e-3 0.01155-0.01831 0.01719-0.02758 0.0056-0.0093 0.01155-0.01885 0.01673-0.02849 0.0053-0.0096 0.0098-0.0195 0.01447-0.02939 0.0046-0.0099 0.0094-0.0197 0.01356-0.02985 0.0041-0.01014 0.0084-0.0208 0.01221-0.0312 0.0036-0.0104 0.0076-0.0206 0.01085-0.0312 0.0031-0.0106 0.0062-0.02129 9e-3 -0.0321 0.0025-0.01086 0.0054-0.02194 0.0077-0.03301 2e-3 -0.01107 0.0044-0.02223 0.0059-0.03346 0.0016-0.01122 0.0031-0.02249 0.0041-0.03392 0.0011-0.01143 0.0022-0.02278 0.0027-0.03436 5.12e-4 -0.01158 8.75e-4 -0.02354 8.75e-4 -0.03527v-5.171268l-1.743502-1.7435286h-1.510214z" filter="url(#filter5866)" opacity=".3" stroke-width=".0209927"/>
    <path id="path1816" d="m8.1929361 3.7243264c-0.3755557 0-0.6782398 0.3026842-0.6782398 0.6782399v6.2366417c0 0.01173 5.787e-4 0.0237 0.00136 0.03527 5.125e-4 0.01159 0.00123 0.02293 0.00226 0.03436 0.00102 0.01143 0.00298 0.02264 0.00452 0.03392 0.00154 0.01123 0.00337 0.02243 0.00588 0.03346 0.00205 0.01107 0.00442 0.02214 0.00724 0.033 0.00256 0.01087 0.00621 0.0215 0.0095 0.0321 0.00307 0.0106 0.00661 0.02125 0.010399 0.03165 0.00359 0.0104 0.0079 0.0206 0.012208 0.03075 0.0041 0.01015 0.0089 0.01995 0.013565 0.02985 0.00461 0.0099 0.00975 0.01976 0.014921 0.02939 0.00522 0.0096 0.010641 0.01917 0.016278 0.02849 0.00563 0.0093 0.011536 0.01856 0.017634 0.02758 0.0061 9e-3 0.01203 0.01751 0.018539 0.02622 0.00651 0.0088 0.013429 0.01741 0.020347 0.02578 0.00687 0.0083 0.013975 0.01682 0.021252 0.02487 0.00728 8e-3 0.014973 0.01536 0.022608 0.02306 0.00764 0.0076 0.015467 0.01533 0.023512 0.02261 8e-3 0.0073 0.015962 0.01439 0.024417 0.02125 0.00836 0.0069 0.016609 0.01339 0.025321 0.0199 0.00871 0.0065 0.018111 0.01289 0.027129 0.01899 0.00902 0.0061 0.017905 0.012 0.027129 0.01763 0.00933 0.0056 0.018903 0.0111 0.028486 0.01628 0.00958 0.0053 0.019048 0.01021 0.028938 0.01492 0.00989 0.0046 0.020149 0.0093 0.030295 0.01356 0.010147 0.0041 0.020345 0.0084 0.030747 0.01221 0.010402 0.0036 0.021044 0.0076 0.031651 0.01085 0.010608 0.0031 0.021291 0.0058 0.032104 0.0086 0.010863 0.0025 0.02194 0.0054 0.033008 0.0077 0.011069 2e-3 0.022238 0.0041 0.03346 0.0059 0.011222 0.0016 0.022485 0.0035 0.033912 0.0046s0.022782 0.0023 0.034364 0.0027c0.011581 5.13e-4 0.023534 4.53e-4 0.035269 4.53e-4h0.3716648v-2.0782425h1.0494605v1.5739685h0.8396604v-1.5739685h0.840114v1.1543635h0.83966v-0.9450135h0.839662v1.8687765h0.371675c0.01173 0 0.02323 3.37e-4 0.03482-4.52e-4 0.01158-5.13e-4 0.02293-0.0017 0.03436-0.0027s0.02309-3e-3 0.03436-0.0046c0.01123-0.0016 0.02239-0.0036 0.03346-0.0059 0.01107-2e-3 0.02169-0.0052 0.03256-0.0077s0.02194-0.0057 0.03256-9e-3c0.0106-0.0031 0.0208-0.0066 0.0312-0.0104 0.0104-0.0036 0.0206-0.0079 0.03075-0.01221 0.01014-0.0041 0.02041-0.0088 0.03029-0.01356 0.0099-0.0046 0.01935-0.0097 0.02894-0.01492 0.0096-0.0053 0.01917-0.01064 0.02849-0.01628 0.0093-0.0056 0.01856-0.01159 0.02758-0.01763 9e-3 -0.0061 0.01796-0.01248 0.02668-0.01899 0.0087-0.0065 0.01697-0.01298 0.02532-0.0199 0.0083-0.0069 0.01682-0.01397 0.02487-0.02125 8e-3 -0.0073 0.01583-0.01497 0.02351-0.02261 0.0076-0.0076 0.01487-0.01502 0.02215-0.02307 0.0073-8e-3 0.01483-0.01646 0.0217-0.02487 0.0069-0.0083 0.01339-0.01712 0.0199-0.02578 0.0065-0.0087 0.01289-0.0172 0.01899-0.02622 0.0061-9e-3 0.01155-0.01831 0.01719-0.02758 0.0056-0.0093 0.01155-0.01885 0.01673-0.02849 0.0053-0.0096 0.0098-0.0195 0.01447-0.02939 0.0046-0.0099 0.0094-0.0197 0.01356-0.02985 0.0041-0.01014 0.0084-0.0208 0.01221-0.0312 0.0036-0.0104 0.0076-0.0206 0.01085-0.0312 0.0031-0.0106 0.0062-0.02129 9e-3 -0.0321 0.0025-0.01086 0.0054-0.02194 0.0077-0.03301 2e-3 -0.01107 0.0044-0.02223 0.0059-0.03346 0.0016-0.01122 0.0031-0.02249 0.0041-0.03392 0.0011-0.01143 0.0022-0.02278 0.0027-0.03436 5.12e-4 -0.01158 8.75e-4 -0.02354 8.75e-4 -0.03527v-5.171268l-1.743502-1.7435286h-1.510214z" fill="#fff" stroke-width=".0209927"/>
    <rect id="rect818-3" x="10.154882" y="5.9082842" width="2.5785563" height="1.7190034" color="#000000" fill="#1d8cbf" opacity=".3" stroke-width=".512432"/>
    <g id="g240" fill="#249bd0" stroke-width=".0306967">
        <rect id="rect820-6" x="9.0804148" y="5.9102311" width=".95158571" height=".15348354" color="#000000" opacity=".3"/>
        <rect id="rect822-7" x="8.8041668" y="7.752017" width="3.9291725" height=".15348354" color="#000000" opacity=".3"/>
        <rect id="rect824-5" x="8.8041668" y="8.9798489" width="2.578505" height=".15348354" color="#000000" opacity=".3"/>
        <rect id="rect826-3" x="8.8041668" y="6.2171774" width="1.2278888" height=".15348354" color="#000000" opacity=".3"/>
        <rect id="rect828-5" x="8.8041668" y="6.5241232" width="1.2278888" height=".15348354" color="#000000" opacity=".3"/>
        <rect id="rect830-6" x="8.8041668" y="6.8311243" width="1.2278888" height=".15348354" color="#000000" opacity=".3"/>
        <rect id="rect832-2" x="8.8041668" y="7.1380701" width="1.2278888" height=".15348354" color="#000000" opacity=".3"/>
        <rect id="rect834-9" x="8.8041668" y="7.4450712" width="1.2278888" height=".15348354" color="#000000" opacity=".3"/>
        <rect id="rect836-1" x="8.8041668" y="8.0589638" width="3.9291725" height=".15348354" color="#000000" opacity=".3"/>
        <rect id="rect838-2" x="8.8041668" y="8.3659563" width="3.9291725" height=".15348354" color="#000000" opacity=".3"/>
        <rect id="rect840-7" x="8.8041668" y="8.6729021" width="3.9291725" height=".15348354" color="#000000" opacity=".3"/>
    </g>
    <g id="g245" stroke-width=".512432">
        <rect id="rect844-0" x="10.277861" y="6.0307546" width="2.3328965" height="1.4734461" color="#000000" fill="#8bcef3" opacity=".3"/>
        <path id="path846-9" d="m12.610456 7.1155743h-0.100247l-0.444104 0.077767s-0.438852-0.1166449-0.504874-0.1166449c-0.06486 0-0.272767 0.038894-0.311671 0.038894-0.02726 0-0.194386-0.077762-0.23391-0.077762-0.06521 0-0.140344 0.082619-0.334756 0.1166397 0 0-0.05586-0.1239316-0.09231-0.1166397-0.23329 0.089916-0.311103 0.077762-0.311103 0.077762v0.3888178h2.332897l6.1e-5 -0.3888178h1.1e-5z" color="#000000" fill="#18a203" opacity=".3"/>
        <path id="path850-3" d="m12.610763 6.4912275a0.46045576 0.46045576 0 0 1-0.460456-0.4604557h0.460456z" color="#000000" fill="#ffd441" opacity=".3"/>
    </g>
    <path id="path2420" d="m14.022634 5.467855-1.743529-1.7435286v1.0652888c0 0.3755557 0.302237 0.6782398 0.677787 0.6782398z" fill="#eee" stroke-width=".0209927"/>
</svg>
