<?xml version="1.0" encoding="utf-8"?>
<svg width="64" height="64" viewBox="0 0 64 64" xmlns="http://www.w3.org/2000/svg">
  <defs>
    <filter id="shadow" x="-0.03" y="-0.03" width="1.06" height="1.06">
      <feGaussianBlur stdDeviation="0.65"/>
    </filter>
    <linearGradient id="bgGradient" x1="0" y1="0" x2="1" y2="1">
      <stop offset="0" stop-color="#ff7800"/>
      <stop offset="1" stop-color="#9141ac"/>
    </linearGradient>
  </defs>
  <rect x="4.5" y="4.5" width="55" height="55" ry="15" fill="#000" opacity="0.3" filter="url(#shadow)"/>
  <rect x="4" y="4" width="56" height="56" ry="15" fill="url(#bgGradient)"/>
  <path d="M 20.078 17.466 L 29.254 44.995 L 35.238 39.866 L 39.13 44.537 C 40.143 45.753 41.951 45.917 43.168 44.903 C 44.384 43.89 44.548 42.081 43.537 40.868 L 39.595 36.137 L 45.312 31.232 L 20.078 17.466 Z M 20.078 17.466" fill="#deddda" style=""/>
  <path d="M 20.078 17.466 L 21.6 22.028 L 21.6 18.295 L 20.078 17.466 Z M 21.87 22.844 L 29.254 44.995 L 35.238 39.866 L 39.13 44.537 C 40.143 45.753 41.951 45.917 43.168 44.903 C 44.384 43.89 44.55 42.081 43.537 40.868 L 39.595 36.137 L 44.058 32.308 L 40.525 32.308 L 40.525 28.62 L 38.609 27.576 L 31.062 27.576 L 31.062 23.458 L 29.935 22.844 L 21.87 22.844 Z M 45.257 31.202 L 45.257 31.281 L 45.312 31.232 L 45.257 31.202 Z M 45.257 31.202" fill="#241f31" style=""/>
  <path d="M 20.078 17.466 L 29.254 44.995 L 35.238 39.866 L 39.13 44.537 C 40.143 45.753 41.951 45.917 43.168 44.903 C 43.266 44.819 43.356 44.73 43.442 44.638 L 20.078 17.466 Z M 20.078 17.466" fill="#241f31" style=""/>
  <path d="M 35.793 27.576 L 40.525 27.576 L 40.525 32.308 L 35.793 32.308 L 35.793 27.576 Z M 35.793 27.576" fill="#60586f" style=""/>
  <path d="m 74.4375 59.246094 h 6 v 6 h -6 z m -12 -6 h 6 v 6 h -6 z m 0 0" fill="url(#j)"/>
  <path d="M 31.062 27.576 L 35.793 27.576 L 35.793 32.308 L 31.062 32.308 L 31.062 27.576 Z M 31.062 27.576" fill="#3c3746" style=""/>
  <path d="M 26.331 22.844 L 31.062 22.844 L 31.062 27.576 L 26.331 27.576 L 26.331 22.844 Z M 26.331 22.844" fill="#3c3746" style=""/>
  <path d="M 20.078 17.466 L 29.254 44.995 L 35.306 39.95 L 39.13 44.537 C 40.387 45.794 42.13 45.768 43.168 44.903 C 44.205 44.038 44.834 42.164 43.537 40.868 L 39.595 36.137 L 44.058 32.308" fill="none" stroke="#ffffff" stroke-width="2" style=""/>
</svg>