<svg id="svg408" width="64" height="64" version="1.1" viewBox="0 0 16.933 16.933" xmlns="http://www.w3.org/2000/svg">
    <defs id="defs362">
        <style id="style336" type="text/css"/>
        <style id="style338" type="text/css"/>
        <filter id="filter1057" x="-.026999999" y="-.026999999" width="1.054" height="1.054" color-interpolation-filters="sRGB">
            <feGaussianBlur id="feGaussianBlur340" stdDeviation="0.61875"/>
        </filter>
        <linearGradient id="linearGradient1053" x1="-127" x2="-72" y1="60" y2="5" gradientTransform="matrix(.26458 0 0 .26458 34.792 -.13493)" gradientUnits="userSpaceOnUse">
            <stop id="stop343" stop-color="#455dfd" offset="0"/>
            <stop id="stop1107" stop-color="#6d59de" offset=".5"/>
            <stop id="stop345" stop-color="#9c42ff" offset="1"/>
        </linearGradient>
        <style id="style348" type="text/css"/>
        <style id="style350" type="text/css"/>
        <style id="style352" type="text/css"/>
        <style id="style354" type="text/css"/>
        <style id="style356" type="text/css"/>
        <style id="style358" type="text/css"/>
        <style id="style360" type="text/css"/>
        <filter id="filter1328" x="-.023197418" y="-.032293663" width="1.0463948" height="1.0645873" color-interpolation-filters="sRGB">
            <feGaussianBlur id="feGaussianBlur1330" stdDeviation="0.10229207"/>
        </filter>
    </defs>
    <rect id="rect366" transform="scale(.26458)" x="4.5" y="4.5" width="55" height="55" ry="15" fill="#141414" filter="url(#filter1057)" opacity=".3" stroke-linecap="round" stroke-width="2.7444"/>
    <rect id="rect368" x="1.1906" y="1.1906" width="14.552" height="14.552" ry="3.9687" fill="url(#linearGradient1053)" stroke-linecap="round" stroke-width=".72611"/>
    <g id="g406" fill="#5e4aa6">
        <g id="g392" transform="matrix(.26458 0 0 .26458 19.707 2.4476e-8)">
            <circle id="circle372" cx="-1248.7" cy="-1241.6" r="0"/>
            <circle id="circle374" cx="-149.15" cy="23.855" r="0" fill-rule="evenodd"/>
            <circle id="circle376" cx="-1248.7" cy="-1241.6" r="0"/>
            <circle id="circle378" cx="-149.15" cy="23.855" r="0" fill-rule="evenodd"/>
            <circle id="circle380" cx="-1124.8" cy="-1279.3" r="0"/>
            <g id="g390" transform="matrix(3.7796,0,0,3.7796,123.83,-38.184)" stroke-width=".26458">
                <circle id="circle382" cx="-299.02" cy="-338.77" r="0"/>
                <circle id="circle384" cx="-8.1062" cy="-3.9487" r="0" fill-rule="evenodd"/>
                <circle id="circle386" cx="-278.25" cy="-357.69" r="0"/>
                <circle id="circle388" cx="12.663" cy="-22.859" r="0" fill-rule="evenodd"/>
            </g>
        </g>
        <circle id="circle394" cx="-254.16" cy="-338.47" r="0" stroke-width=".26458"/>
        <g id="g404" transform="translate(76.203 -10.103)" stroke-width=".26458">
            <circle id="circle396" cx="-299.02" cy="-338.77" r="0"/>
            <circle id="circle398" cx="-8.1062" cy="-3.9487" r="0" fill-rule="evenodd"/>
            <circle id="circle400" cx="-278.25" cy="-357.69" r="0"/>
            <circle id="circle402" cx="12.663" cy="-22.859" r="0" fill-rule="evenodd"/>
        </g>
    </g>
    <path id="path1270" d="m6.9258727 4.6654425c-0.136725 0.0061-0.273818 0.02378-0.408843 0.04738-0.707422 0.12358-1.347216 0.409138-1.9302963 0.823011-0.06686 0.04744-0.127652 0.118564-0.16343 0.192178-0.72989 1.50179-1.146922 3.082925-1.245696 4.7538715-0.02089 0.35301 0.08036 0.596913 0.323136 0.815557 0.01749 0.01576 0.03387 0.03283 0.0511 0.04898 0.594618 0.555264 1.3114373 0.820804 2.1091643 0.913509 0.211712 0.02461 0.343052-0.03548 0.458884-0.207084 0.121695-0.180105 0.269442-0.342814 0.393939-0.498277-0.288717-0.145039-0.574553-0.272367-0.844305-0.428541-0.270555-0.156628-0.502749-0.365227-0.695246-0.639883 2.359308 1.314711 4.69786 1.356432 7.0616003-0.0096-0.43185 0.558284-0.987675 0.871585-1.631648 1.073747 0.189831 0.233468 0.368248 0.458169 0.554175 0.676082 0.02592 0.03048 0.09145 0.0459 0.134684 0.03993 0.279157-0.03839 0.562859-0.06314 0.834722-0.132555 0.703919-0.179735 1.301404-0.539292 1.749829-1.121125 0.04828-0.06264 0.08162-0.155827 0.08038-0.234233-0.0096-0.557726-0.05828-1.1123245-0.15278-1.6630465-0.203511-1.185011-0.562521-2.319368-1.09504-3.397447-0.03467-0.0701-0.09477-0.136356-0.159172-0.181531-0.686407-0.481432-1.438607-0.791085-2.28058-0.869325-0.1242503-0.01157-0.2256603 0.373987-0.2837423 0.493487 0.0013 4.39e-4 0.0024 6.27e-4 0.0037 0.0011-0.854195-0.157728-1.708229-0.165491-2.563257-0.02875 0.0012-4.14e-4 0.0025-6.49e-4 0.0037-0.0011-0.05528-0.04-0.249457-0.468789-0.305035-0.466337zm-0.136814 3.362845c0.16399 0.0031 0.327186 0.05566 0.487099 0.153316 0.310001 0.189347 0.454828 0.466916 0.432267 0.840046-0.02021 0.333664-0.118171 0.621343-0.380628 0.839513-0.160574 0.133387-0.343549 0.1983375-0.652127 0.1990995-0.175491-0.0022-0.399894-0.1133225-0.580793-0.3178125-0.41342-0.467391-0.31569-1.243313 0.20389-1.569363 0.161856-0.101555 0.326302-0.14786 0.490292-0.144799zm3.3021573 0.0048c0.260362 2e-3 0.519102 0.119233 0.696312 0.346026 0.428059 0.547848 0.230992 1.378934-0.388082 1.620469-0.100308 0.0392-0.211735 0.05073-0.317812 0.07506-0.4536183-0.0164295-0.8594093-0.3914515-0.9161713-0.8554845-0.04284-0.350126 0.03555-0.663102 0.286935-0.918833 0.178131-0.181245 0.409087-0.269037 0.6388183-0.2672375z" fill-opacity=".898039" fill-rule="evenodd" filter="url(#filter1328)" opacity=".1" stroke-width=".279377"/>
    <path id="rect1261" d="m6.9710003 4.7767798c-0.13272 0.00589-0.265797 0.023079-0.396867 0.045991-0.686699 0.1199599-1.307751 0.3971524-1.873751 0.798902-0.064899 0.04605-0.123913 0.1150913-0.158643 0.1865482-0.708509 1.4577985-1.113325 2.9926164-1.209205 4.614615-0.02028 0.34267 0.07801 0.579428 0.31367 0.791667 0.01698 0.0153 0.032878 0.03187 0.049608 0.04754 0.5772 0.538999 1.273021 0.79676 2.04738 0.88675 0.20551 0.02389 0.333003-0.03444 0.445442-0.201018 0.11813-0.174829 0.261549-0.332772 0.382399-0.483681-0.28026-0.14079-0.557723-0.264388-0.819573-0.415988-0.262629-0.152039-0.488021-0.354528-0.67488-0.621138 2.290197 1.276199 4.560245 1.316697 6.8547437-0.0093-0.4192 0.54193-0.958743 0.846054-1.583852 1.042294 0.18427 0.226629 0.357461 0.444748 0.537941 0.656277 0.02516 0.02959 0.08877 0.04456 0.130739 0.03876 0.27098-0.03727 0.546371-0.06129 0.81027-0.128672 0.6833-0.17447 1.263282-0.523495 1.698571-1.088284 0.04687-0.06081 0.07923-0.151262 0.07803-0.227372-0.0094-0.541399-0.05658-1.0797509-0.148308-1.6143403-0.19755-1.1503018-0.546044-2.251429-1.062963-3.2979279-0.03365-0.06805-0.09199-0.1323622-0.15451-0.1762132-0.666299-0.4673295-1.396465-0.7679116-2.213775-0.8438595-0.1206097-0.01123-0.2190497 0.3630312-0.2754297 0.4790311 0.0013 4.26e-4 0.00232 6.083e-4 0.00362 0.00103-0.829173-0.1531079-1.65819-0.1606436-2.488171-0.027905 0.00121-4.027e-4 0.00241-6.301e-4 0.00362-0.00103-0.05366-0.038831-0.24215-0.4550567-0.2961-0.4526767zm-0.132806 3.264336c0.159186 0.00297 0.317601 0.05403 0.47283 0.1488252 0.30092 0.1837998 0.441505 0.4532384 0.419605 0.815438-0.01962 0.3238897-0.11471 0.6031415-0.369479 0.8149213-0.15587 0.1294797-0.333485 0.1925267-0.633024 0.1932667-0.17035-0.0021-0.388179-0.110003-0.563779-0.3085028-0.40131-0.4536996-0.306443-1.2068916 0.197917-1.5233913 0.157115-0.09858 0.316744-0.1435284 0.47593-0.1405571zm3.2054257 0.00465c0.252736 0.00198 0.503896 0.1157404 0.675915 0.3358902 0.41552 0.5317994 0.224226 1.3385398-0.376714 1.5729996-0.09737 0.03805-0.205532 0.049242-0.308502 0.072862-0.4403297-0.0159486-0.8342337-0.3799832-0.8893337-0.8304228-0.04159-0.3398696 0.034511-0.6436779 0.27853-0.8919176 0.172913-0.1759358 0.397104-0.2611561 0.6201047-0.2594114z" fill="#fff" fill-opacity=".93" fill-rule="evenodd" stroke-width=".271193"/>
</svg>
