<svg id="svg8" width="64" height="64" version="1.1" viewBox="0 0 16.933333 16.933334" xmlns="http://www.w3.org/2000/svg" xmlns:xlink="http://www.w3.org/1999/xlink">
    <defs id="defs2">
        <filter id="filter1057" x="-.026999999" y="-.026999999" width="1.054" height="1.054" color-interpolation-filters="sRGB">
            <feGaussianBlur id="feGaussianBlur1059" stdDeviation="0.61875"/>
        </filter>
        <linearGradient id="linearGradient1053" x1="-127" x2="-72" y1="60" y2="5" gradientTransform="matrix(.26458333 0 0 .26458333 34.792707 -.1349368)" gradientUnits="userSpaceOnUse">
            <stop id="stop1047" stop-color="#020519" offset="0"/>
            <stop id="stop2039" stop-color="#030e4f" offset=".40000001"/>
            <stop id="stop1049" stop-color="#35599d" offset="1"/>
        </linearGradient>
        <linearGradient id="linearGradient3701" x1="1507.118" x2="1541.2991" y1="831.32025" y2="831.32025" gradientUnits="userSpaceOnUse">
            <stop id="stop3571" stop-color="#00f" stop-opacity="0" offset="0"/>
            <stop id="stop3569" stop-color="#0ff" offset=".7841"/>
            <stop id="stop3567" stop-color="#04FFFF" offset=".8092"/>
            <stop id="stop3565" stop-color="#1ff" offset=".8353"/>
            <stop id="stop3563" stop-color="#25FFFF" offset=".8618"/>
            <stop id="stop3561" stop-color="#43FFFF" offset=".8887"/>
            <stop id="stop3559" stop-color="#68FFFF" offset=".91572306"/>
            <stop id="stop3557" stop-color="#96FFFF" offset=".94299313"/>
            <stop id="stop3555" stop-color="#CBFFFF" offset=".96990094"/>
            <stop id="stop3553" stop-color="#fff" offset=".99291379"/>
        </linearGradient>
    </defs>
    <g id="layer1">
        <rect id="rect1055" transform="scale(.26458333)" x="4.5" y="4.5" width="55" height="55" ry="15" fill="#141414" filter="url(#filter1057)" opacity=".3" stroke-linecap="round" stroke-width="2.74436"/>
        <rect id="rect1045" x="1.1906254" y="1.1906255" width="14.552082" height="14.552082" ry="3.9687498" fill="url(#linearGradient1053)" stroke-linecap="round" stroke-width=".726112"/>
        <g id="Layer_1" transform="matrix(.26458333 0 0 .26458333 -394.23249 -214.36833)">
            <g id="g3639" transform="matrix(.04421228 0 0 .04421228 1479.5828 813.60225)" fill="#fff">
                <path id="path3547" class="st1" d="m1174.8 624.7c-14.4 3.3-52.3 5.2-52.3 5.2l-4.8 15s18.9-1.6 32.7-0.2c0 0 4.5-0.5 5 5.1 0.2 5.2-0.4 10.8-0.4 10.8s-0.3 3.4-5.1 4.2c-5.2 0.9-40.8 2.2-40.8 2.2l-5.8 19.5s-2.1 4.5 2.7 3.2c4.5-1.2 41.8-8.2 46.7-7.2 5.2 1.3 11 8.2 9.3 14.6-2 7.8-39.2 31.6-61.9 29.9 0 0-11.9 0.8-22-15.3-9.4-15.3 3.6-44.4 3.6-44.4s-5.9-13.6-1.6-18.1c0 0 2.6-2.3 10-2.9l9.1-18.9s-10.4 0.7-16.6-6.9c-5.8-7.3-6.2-10.6-1.8-12.6 4.7-2.3 48-10.2 77.8-9.2 0 0 10.4-1 19.3 17-0.1 0 4.3 7.3-3.1 9zm-112.1 72.6c-3.8 9-13.9 18.6-26.4 12.6-12.4-6-32.1-46.3-32.1-46.3s-7.5-15-8.9-14.7c0 0-1.6-2.9-2.6 13.5s0.2 48.3-6.3 53.3c-6.2 5-13.7 3-17.6-2.9-3.5-5.8-5-19.6-3.1-43.8 2.3-24.2 7.9-50 15.1-58.1 7.2-8 13-2.2 15.2-0.1 0 0 9.6 8.7 25.5 34.3l2.8 4.7s14.4 24.2 15.9 24.1c0 0 1.2 1.1 2.2 0.3 1.5-0.4 0.9-8.2 0.9-8.2s-3-26.3-16.1-70.9c0 0-2-5.6-0.6-10.8 1.3-5.3 6.6-2.8 6.6-2.8s20.4 10.2 30.2 43.4c9.7 33.5 3.1 63.4-0.7 72.4zm-100.2-85.3c-1.7 3.4-2.7 8.3-11.3 9.6 0 0-82.3 5.6-86.2 11.4 0 0-2.9 3.4 1.6 4.4 4.5 0.9 23.1 3.4 32.1 3.9 9.6 0.1 42 0.4 53.6 14.9 0 0 6.9 6.9 6.6 22.5-0.3 16-3.1 21.6-9.3 27.4-6.5 5.4-62.3 30.4-98.3-8 0 0-16.6-18.5 5.7-32.5 0 0 16.1-9.7 57 1.7 0 0 12.4 4.5 11.8 9-0.7 4.8-10.2 9.9-24 9.6-13.4-0.4-23.2-6.8-21.3-5.8 1.8 0.7-14.4-7.8-19.4-2-5 5.3-3.8 8.6 1.1 11.9 12.5 7.1 60.8 4.6 75.2-11.4 0 0 5.7-6.5-3-11.8-8.7-5-33.6-8-43.3-8.5-9.3-0.5-43.9 0.1-48.9-9.1 0 0-5-6.2 0.5-23.8 5.8-18.4 46.1-25.5 63.5-27.1 0 0 47.9-1.7 56.7 8.1-0.1 0 1.1 2.3-0.4 5.6zm-136 107.9c-5.8 4.3-18.1 2.4-21.6-2.4-3.5-4.3-4.7-21.4-4-48.2 0.7-27.1 1.3-60.7 7.1-66 6.2-5.4 10-0.7 12.4 3 2.6 3.6 5.7 7.6 6.4 16.1 0.6 8.5 2.6 53.1 2.6 53.1s2.6 40.2-2.9 44.4zm12.5-143.8c-16.9 5.6-28.5 3.7-38.3-0.5-4.3 7.5-6.8 9.8-10.1 10.3-4.8 0.5-9.1-7.2-9.9-9.7-0.8-1.9-3.1-5.1-0.3-12.7-9.6-8.6-10.3-20.2-8.7-28 2.4-9 18.6-43.2 67.9-47.2 0 0 24.1-1.8 28.2 11.1h0.7s23.4 0.1 22.9 20.9c-0.3 20.9-26 46.9-52.4 55.8zm-46-46.3c-5 8-5.2 12.8-2.9 16.1 5.7-8.7 16.1-22.4 31.4-32.8-11.8 1-21.7 6.1-28.5 16.7zm68.1-13.4c-15.5 2.3-39.5 23.1-50.9 40.1 17.5 3.2 48.4 2 62.1-25.9-0.1 0 6.5-17.3-11.2-14.2zm420.8 161.1c-9.3 16.2-35.4 50-70.2 42.1-11.5 27.9-21.1 56-26.6 98.2 0 0-1.2 8.2-8 5.3-6.7-2.4-17.9-13.6-20.1-29.1-2.4-20.4 6.7-54.9 25.2-94.4-5.4-8.8-9.1-21.4-5.9-39.3 0 0 4.7-33.2 38-63.2 0 0 4-3.5 6.3-2.4 2.6 1.1 1.4 11.9-0.7 17.1s-17 31-17 31-9.3 17.4-6.7 31.1c17.5-26.9 57.3-81.2 82-64.1 8.3 5.9 12.1 18.8 12.1 32.7-0.1 12.3-3 25.3-8.4 35zm-7.2-42.6s-1.4-10.7-11.8 1.1c-9 9.9-25.2 28.6-38.3 53.9 13.7-1.5 26.9-9 30.9-12.8 6.5-5.8 21.6-21.4 19.2-42.2zm-485.5 13.6c-1.9 24.2-11.2 64.9-77.1 85-43.5 13.1-84.6 6.8-107 1.1-0.5 8.9-1.5 12.7-2.9 14.2-1.9 1.9-16.1 10.1-23.9-1.5-3.5-5.5-5.3-15.5-6.3-24.4-50.4-23.2-73.6-56.6-74.5-58.1-1.1-1.1-12.6-13.1-1.1-27.8 10.8-13.3 46.1-26.6 77.9-32 1.1-27.2 4.3-47.7 8.1-57.1 4.6-10.9 10.4-1.1 15.4 6.3 4.2 5.5 6.7 29.2 6.9 48.1 20.8-1 33.1 0.5 56.3 4.7 30.2 5.5 50.4 20.9 48.6 38.4-1.3 17.2-17.1 24.3-23.1 24.8-6.3 0.5-16.1-4-16.1-4-6.7-3.2-0.5-6 7.6-9.5 8.8-4.3 6.8-8.7 6.8-8.7-3.3-9.6-42.5-16.3-81.5-16.3-0.2 21.5 0.9 57.2 1.4 78 27.3 5.2 47.7 4.2 47.7 4.2s99.6-2.8 102.6-66.4c3.1-63.7-99.3-124.8-175-144.2-75.6-19.8-118.4-6-122.1-4.1-4 2-0.3 2.6-0.3 2.6s4.1 0.6 11.2 3c7.5 2.4 1.7 6.3 1.7 6.3-12.9 4.1-27.4 1.5-30.2-4.4s1.9-11.2 7.3-18.8c5.4-8 11.3-7.7 11.3-7.7 93.5-32.4 207.4 26.2 207.4 26.2 106.7 54.1 124.9 117.5 122.9 142.1zm-282.2-3.3c-10.6 5.2-3.3 12.7-3.3 12.7 19.9 21.4 44.4 34.8 67.7 43.1 2.7-36.9 2.3-49.9 2.6-68.5-36.4 2.5-57.4 8.3-67 12.7z"/>
                <path id="path3549" class="st1" d="m1479.9 637.6v13.2c0 2.9-2.3 5.2-5.2 5.2h-62.9c0 3.3 0.1 6.2 0.1 8.9 0 19.5-0.8 35.4-2.7 53.3-0.3 2.7-2.5 4.7-5.1 4.7h-13.6c-1.4 0-2.7-0.6-3.6-1.6s-1.4-2.4-1.2-3.8c1.9-17.8 2.8-33.5 2.8-52.6 0-2.8 0-5.7-0.1-8.9h-62.2c-2.9 0-5.2-2.3-5.2-5.2v-13.2c0-2.9 2.3-5.2 5.2-5.2h61.3c-1.3-21.5-3.9-42.2-8.1-63.2-0.2-1.3 0.1-2.6 0.9-3.6s2-1.6 3.3-1.6h14.7c2.3 0 4.2 1.6 4.7 3.9 4.1 21.7 6.7 42.8 8 64.5h63.7c2.8 0 5.2 2.4 5.2 5.2z"/>
            </g>
            <path id="path3574" class="st3" d="m1541.284 837.22478c-1.4369-3.53256-3.8642-6.54341-7.0209-8.70982-3.2319-2.21503-7.0209-3.38666-10.9558-3.38666-6.5081 0-12.5475 3.23192-16.1508 8.64793-0.04 0.0575-0.049 0.13263-0.026 0.19895 0.022 0.0707 0.075 0.11937 0.1415 0.14148l0.504 0.17243c0.031 9e-3 0.062 0.0133 0.088 0.0133 0.093 0 0.1813-0.0486 0.2343-0.12379 1.6536-2.43168 3.8907-4.45218 6.4727-5.84929 2.666-1.44132 5.6857-2.20619 8.7319-2.20619 3.6829 0 7.2332 1.08762 10.275 3.13907 2.9666 2.00282 5.2701 4.80146 6.6628 8.08643 0.04 0.0973 0.137 0.16358 0.2431 0.16358h0.6013c0.071 0 0.1371-0.0354 0.1725-0.0928 0.044-0.0575 0.053-0.12822 0.027-0.19454zm-33.4201-3.07275c-0.013 0-0.026-4e-3 -0.04-9e-3 0.013 4e-3 0.027 9e-3 0.04 9e-3h0.01zm32.496 3.28055c0.013 9e-3 0.027 0.0177 0.04 0.0221-0.013-9e-3 -0.026-0.0133-0.04-0.0221z" fill="url(#linearGradient3701)" stroke-width=".0442123"/>
        </g>
    </g>
</svg>
