<svg version="1.1" viewBox="0 0 64 64" xmlns="http://www.w3.org/2000/svg"><defs><clipPath id="c"><path d="M0 0h64v64H0z" fill="#fff"/></clipPath><clipPath id="O"><path d="M0 0h64v64H0z" fill="#fff"/></clipPath><clipPath id="Q"><path d="M0 0h64v64H0z" fill="#fff"/></clipPath><clipPath id="S"><path d="M0 0h64v64H0z" fill="#fff"/></clipPath><clipPath id="U"><path d="M0 0h64v64H0z" fill="#fff"/></clipPath><clipPath id="W"><path d="M0 0h64v64H0z" fill="#fff"/></clipPath><clipPath id="X"><path d="M0 0h64v64H0z" fill="#fff"/></clipPath><clipPath id="Y"><path d="M0 0h64v64H0z" fill="#fff"/></clipPath><clipPath id="M"><path d="M0 0h64v64H0z" fill="#fff"/></clipPath><clipPath id="K"><path d="M0 0h64v64H0z" fill="#fff"/></clipPath><clipPath id="I"><path d="M0 0h64v64H0z" fill="#fff"/></clipPath><clipPath id="G"><path d="M0 0h64v64H0z" fill="#fff"/></clipPath><clipPath id="E"><path d="M0 0h64v64H0z" fill="#fff"/></clipPath><clipPath id="C"><path d="M0 0h64v64H0z" fill="#fff"/></clipPath><clipPath id="A"><path d="M0 0h64v64H0z" fill="#fff"/></clipPath><clipPath id="y"><path d="M0 0h64v64H0z" fill="#fff"/></clipPath><clipPath id="w"><path d="M0 0h64v64H0z" fill="#fff"/></clipPath><clipPath id="u"><path d="M0 0h64v64H0z" fill="#fff"/></clipPath><clipPath id="s"><path d="M0 0h64v64H0z" fill="#fff"/></clipPath><clipPath id="q"><path d="M0 0h64v64H0z" fill="#fff"/></clipPath><clipPath id="o"><path d="M0 0h64v64H0z" fill="#fff"/></clipPath><clipPath id="m"><path d="M0 0h64v64H0z" fill="#fff"/></clipPath><clipPath id="k"><path d="M0 0h64v64H0z" fill="#fff"/></clipPath><clipPath id="i"><path d="M0 0h64v64H0z" fill="#fff"/></clipPath><clipPath id="g"><path d="M0 0h64v64H0z" fill="#fff"/></clipPath><clipPath id="e"><path d="M0 0h64v64H0z" fill="#fff"/></clipPath><mask id="P" x="3" y="24" width="24" height="15" mask-type="alpha" maskUnits="userSpaceOnUse"><path d="M8.043 24.212v4.868H5.715v2.434h-1.95c-.008.07-.014.14-.021.211-.122 1.327.11 2.55.641 3.595l.179.321c.107.192.232.373.364.55.131.175.178.272.261.39 1.406 1.58 3.503 2.34 5.923 2.34 5.36 0 9.91-2.374 11.923-7.708 1.428.146 2.798-.22 3.422-1.439-.994-.574-2.273-.39-3.01-.02l1.952-5.543-7.62 4.869h-2.434v-4.868z" fill="#fff"/></mask><mask id="R" x="3" y="24" width="24" height="15" mask-type="alpha" maskUnits="userSpaceOnUse"><path d="M8.043 24.212v4.868H5.715v2.434h-1.95c-.008.07-.014.14-.021.211-.122 1.327.11 2.55.641 3.595l.179.321c.107.192.232.373.364.55.131.175.178.272.261.39 1.406 1.58 3.503 2.34 5.923 2.34 5.36 0 9.91-2.374 11.923-7.708 1.428.146 2.798-.22 3.422-1.439-.994-.574-2.273-.39-3.01-.02l1.952-5.543-7.62 4.869h-2.434v-4.868z" fill="#fff"/></mask><mask id="T" x="3" y="24" width="24" height="15" mask-type="alpha" maskUnits="userSpaceOnUse"><path d="M8.043 24.212v4.868H5.715v2.434h-1.95c-.008.07-.014.14-.021.211-.122 1.327.11 2.55.641 3.595l.179.321c.107.192.232.373.364.55.131.175.178.272.261.39 1.406 1.58 3.503 2.34 5.923 2.34 5.36 0 9.91-2.374 11.923-7.708 1.428.146 2.798-.22 3.422-1.439-.994-.574-2.273-.39-3.01-.02l1.952-5.543-7.62 4.869h-2.434v-4.868z" fill="#fff"/></mask><mask id="V" x="3" y="24" width="24" height="15" mask-type="alpha" maskUnits="userSpaceOnUse"><path d="M8.043 24.212v4.868H5.715v2.434h-1.95c-.008.07-.014.14-.021.211-.122 1.327.11 2.55.641 3.595l.179.321c.107.192.232.373.364.55.131.175.178.272.261.39 1.406 1.58 3.503 2.34 5.923 2.34 5.36 0 9.91-2.374 11.923-7.708 1.428.146 2.798-.22 3.422-1.439-.994-.574-2.273-.39-3.01-.02l1.952-5.543-7.62 4.869h-2.434v-4.868z" fill="#fff"/></mask><mask id="N" maskUnits="userSpaceOnUse"><path d="M21.494 17.645v9.378H17.01v4.689h-3.757c-.015.135-.027.27-.04.406-.235 2.557.211 4.913 1.234 6.926l.345.618c.206.37.447.719.701 1.06.253.337.343.524.503.751 2.709 3.044 6.748 4.508 11.41 4.508 10.326 0 19.091-4.573 22.97-14.849 2.75.281 5.39-.424 6.591-2.772-1.914-1.106-4.378-.751-5.798-.039l3.76-10.678-14.68 9.38h-4.688v-9.378z" fill="#fff" stroke-width="1.926" transform="matrix(.5191 0 0 .5191 -3.115 15.052)"/></mask><mask id="L" maskUnits="userSpaceOnUse"><path d="M21.494 17.645v9.378H17.01v4.689h-3.757c-.015.135-.027.27-.04.406-.235 2.557.211 4.913 1.234 6.926l.345.618c.206.37.447.719.701 1.06.253.337.343.524.503.751 2.709 3.044 6.748 4.508 11.41 4.508 10.326 0 19.091-4.573 22.97-14.849 2.75.281 5.39-.424 6.591-2.772-1.914-1.106-4.378-.751-5.798-.039l3.76-10.678-14.68 9.38h-4.688v-9.378z" fill="#fff" stroke-width="1.926" transform="matrix(.5191 0 0 .5191 -3.115 15.052)"/></mask><mask id="J" maskUnits="userSpaceOnUse"><path d="M21.494 17.645v9.378H17.01v4.689h-3.757c-.015.135-.027.27-.04.406-.235 2.557.211 4.913 1.234 6.926l.345.618c.206.37.447.719.701 1.06.253.337.343.524.503.751 2.709 3.044 6.748 4.508 11.41 4.508 10.326 0 19.091-4.573 22.97-14.849 2.75.281 5.39-.424 6.591-2.772-1.914-1.106-4.378-.751-5.798-.039l3.76-10.678-14.68 9.38h-4.688v-9.378z" fill="#fff" stroke-width="1.926" transform="matrix(.5191 0 0 .5191 -3.115 15.052)"/></mask><mask id="H" maskUnits="userSpaceOnUse"><path d="M21.494 17.645v9.378H17.01v4.689h-3.757c-.015.135-.027.27-.04.406-.235 2.557.211 4.913 1.234 6.926l.345.618c.206.37.447.719.701 1.06.253.337.343.524.503.751 2.709 3.044 6.748 4.508 11.41 4.508 10.326 0 19.091-4.573 22.97-14.849 2.75.281 5.39-.424 6.591-2.772-1.914-1.106-4.378-.751-5.798-.039l3.76-10.678-14.68 9.38h-4.688v-9.378z" fill="#fff" stroke-width="1.926" transform="matrix(.5191 0 0 .5191 -3.115 15.052)"/></mask><mask id="F" maskUnits="userSpaceOnUse"><path d="M21.494 17.645v9.378H17.01v4.689h-3.757c-.015.135-.027.27-.04.406-.235 2.557.211 4.913 1.234 6.926l.345.618c.206.37.447.719.701 1.06.253.337.343.524.503.751 2.709 3.044 6.748 4.508 11.41 4.508 10.326 0 19.091-4.573 22.97-14.849 2.75.281 5.39-.424 6.591-2.772-1.914-1.106-4.378-.751-5.798-.039l3.76-10.678-14.68 9.38h-4.688v-9.378z" fill="#fff" stroke-width="1.926" transform="matrix(.5191 0 0 .5191 -3.115 15.052)"/></mask><mask id="D" maskUnits="userSpaceOnUse"><path d="M21.494 17.645v9.378H17.01v4.689h-3.757c-.015.135-.027.27-.04.406-.235 2.557.211 4.913 1.234 6.926l.345.618c.206.37.447.719.701 1.06.253.337.343.524.503.751 2.709 3.044 6.748 4.508 11.41 4.508 10.326 0 19.091-4.573 22.97-14.849 2.75.281 5.39-.424 6.591-2.772-1.914-1.106-4.378-.751-5.798-.039l3.76-10.678-14.68 9.38h-4.688v-9.378z" fill="#fff" stroke-width="1.926" transform="matrix(.5191 0 0 .5191 -3.115 15.052)"/></mask><mask id="B" maskUnits="userSpaceOnUse"><path d="M21.494 17.645v9.378H17.01v4.689h-3.757c-.015.135-.027.27-.04.406-.235 2.557.211 4.913 1.234 6.926l.345.618c.206.37.447.719.701 1.06.253.337.343.524.503.751 2.709 3.044 6.748 4.508 11.41 4.508 10.326 0 19.091-4.573 22.97-14.849 2.75.281 5.39-.424 6.591-2.772-1.914-1.106-4.378-.751-5.798-.039l3.76-10.678-14.68 9.38h-4.688v-9.378z" fill="#fff" stroke-width="1.926" transform="matrix(.5191 0 0 .5191 -3.115 15.052)"/></mask><mask id="z" maskUnits="userSpaceOnUse"><path d="M21.494 17.645v9.378H17.01v4.689h-3.757c-.015.135-.027.27-.04.406-.235 2.557.211 4.913 1.234 6.926l.345.618c.206.37.447.719.701 1.06.253.337.343.524.503.751 2.709 3.044 6.748 4.508 11.41 4.508 10.326 0 19.091-4.573 22.97-14.849 2.75.281 5.39-.424 6.591-2.772-1.914-1.106-4.378-.751-5.798-.039l3.76-10.678-14.68 9.38h-4.688v-9.378z" fill="#fff" stroke-width="1.926" transform="matrix(.5191 0 0 .5191 -3.115 15.052)"/></mask><mask id="x" maskUnits="userSpaceOnUse"><path d="M21.494 17.645v9.378H17.01v4.689h-3.757c-.015.135-.027.27-.04.406-.235 2.557.211 4.913 1.234 6.926l.345.618c.206.37.447.719.701 1.06.253.337.343.524.503.751 2.709 3.044 6.748 4.508 11.41 4.508 10.326 0 19.091-4.573 22.97-14.849 2.75.281 5.39-.424 6.591-2.772-1.914-1.106-4.378-.751-5.798-.039l3.76-10.678-14.68 9.38h-4.688v-9.378z" fill="#fff" stroke-width="1.926" transform="matrix(.5191 0 0 .5191 -3.115 15.052)"/></mask><mask id="v" maskUnits="userSpaceOnUse"><path d="M21.494 17.645v9.378H17.01v4.689h-3.757c-.015.135-.027.27-.04.406-.235 2.557.211 4.913 1.234 6.926l.345.618c.206.37.447.719.701 1.06.253.337.343.524.503.751 2.709 3.044 6.748 4.508 11.41 4.508 10.326 0 19.091-4.573 22.97-14.849 2.75.281 5.39-.424 6.591-2.772-1.914-1.106-4.378-.751-5.798-.039l3.76-10.678-14.68 9.38h-4.688v-9.378z" fill="#fff" stroke-width="1.926" transform="matrix(.5191 0 0 .5191 -3.115 15.052)"/></mask><mask id="t" maskUnits="userSpaceOnUse"><path d="M21.494 17.645v9.378H17.01v4.689h-3.757c-.015.135-.027.27-.04.406-.235 2.557.211 4.913 1.234 6.926l.345.618c.206.37.447.719.701 1.06.253.337.343.524.503.751 2.709 3.044 6.748 4.508 11.41 4.508 10.326 0 19.091-4.573 22.97-14.849 2.75.281 5.39-.424 6.591-2.772-1.914-1.106-4.378-.751-5.798-.039l3.76-10.678-14.68 9.38h-4.688v-9.378z" fill="#fff" stroke-width="1.926" transform="matrix(.5191 0 0 .5191 -3.115 15.052)"/></mask><mask id="r" maskUnits="userSpaceOnUse"><path d="M21.494 17.645v9.378H17.01v4.689h-3.757c-.015.135-.027.27-.04.406-.235 2.557.211 4.913 1.234 6.926l.345.618c.206.37.447.719.701 1.06.253.337.343.524.503.751 2.709 3.044 6.748 4.508 11.41 4.508 10.326 0 19.091-4.573 22.97-14.849 2.75.281 5.39-.424 6.591-2.772-1.914-1.106-4.378-.751-5.798-.039l3.76-10.678-14.68 9.38h-4.688v-9.378z" fill="#fff" stroke-width="1.926" transform="matrix(.5191 0 0 .5191 -3.115 15.052)"/></mask><mask id="p" maskUnits="userSpaceOnUse"><path d="M21.494 17.645v9.378H17.01v4.689h-3.757c-.015.135-.027.27-.04.406-.235 2.557.211 4.913 1.234 6.926l.345.618c.206.37.447.719.701 1.06.253.337.343.524.503.751 2.709 3.044 6.748 4.508 11.41 4.508 10.326 0 19.091-4.573 22.97-14.849 2.75.281 5.39-.424 6.591-2.772-1.914-1.106-4.378-.751-5.798-.039l3.76-10.678-14.68 9.38h-4.688v-9.378z" fill="#fff" stroke-width="1.926" transform="matrix(.5191 0 0 .5191 -3.115 15.052)"/></mask><mask id="n" maskUnits="userSpaceOnUse"><path d="M21.494 17.645v9.378H17.01v4.689h-3.757c-.015.135-.027.27-.04.406-.235 2.557.211 4.913 1.234 6.926l.345.618c.206.37.447.719.701 1.06.253.337.343.524.503.751 2.709 3.044 6.748 4.508 11.41 4.508 10.326 0 19.091-4.573 22.97-14.849 2.75.281 5.39-.424 6.591-2.772-1.914-1.106-4.378-.751-5.798-.039l3.76-10.678-14.68 9.38h-4.688v-9.378z" fill="#fff" stroke-width="1.926" transform="matrix(.5191 0 0 .5191 -3.115 15.052)"/></mask><mask id="l" maskUnits="userSpaceOnUse"><path d="M21.494 17.645v9.378H17.01v4.689h-3.757c-.015.135-.027.27-.04.406-.235 2.557.211 4.913 1.234 6.926l.345.618c.206.37.447.719.701 1.06.253.337.343.524.503.751 2.709 3.044 6.748 4.508 11.41 4.508 10.326 0 19.091-4.573 22.97-14.849 2.75.281 5.39-.424 6.591-2.772-1.914-1.106-4.378-.751-5.798-.039l3.76-10.678-14.68 9.38h-4.688v-9.378z" fill="#fff" stroke-width="1.926" transform="matrix(.5191 0 0 .5191 -3.115 15.052)"/></mask><mask id="j" maskUnits="userSpaceOnUse"><path d="M21.494 17.645v9.378H17.01v4.689h-3.757c-.015.135-.027.27-.04.406-.235 2.557.211 4.913 1.234 6.926l.345.618c.206.37.447.719.701 1.06.253.337.343.524.503.751 2.709 3.044 6.748 4.508 11.41 4.508 10.326 0 19.091-4.573 22.97-14.849 2.75.281 5.39-.424 6.591-2.772-1.914-1.106-4.378-.751-5.798-.039l3.76-10.678-14.68 9.38h-4.688v-9.378z" fill="#fff" stroke-width="1.926" transform="matrix(.5191 0 0 .5191 -3.115 15.052)"/></mask><mask id="h" maskUnits="userSpaceOnUse"><path d="M21.494 17.645v9.378H17.01v4.689h-3.757c-.015.135-.027.27-.04.406-.235 2.557.211 4.913 1.234 6.926l.345.618c.206.37.447.719.701 1.06.253.337.343.524.503.751 2.709 3.044 6.748 4.508 11.41 4.508 10.326 0 19.091-4.573 22.97-14.849 2.75.281 5.39-.424 6.591-2.772-1.914-1.106-4.378-.751-5.798-.039l3.76-10.678-14.68 9.38h-4.688v-9.378z" fill="#fff" stroke-width="1.926" transform="matrix(.5191 0 0 .5191 -3.115 15.052)"/></mask><mask id="f" maskUnits="userSpaceOnUse"><path d="M21.494 17.645v9.378H17.01v4.689h-3.757c-.015.135-.027.27-.04.406-.235 2.557.211 4.913 1.234 6.926l.345.618c.206.37.447.719.701 1.06.253.337.343.524.503.751 2.709 3.044 6.748 4.508 11.41 4.508 10.326 0 19.091-4.573 22.97-14.849 2.75.281 5.39-.424 6.591-2.772-1.914-1.106-4.378-.751-5.798-.039l3.76-10.678-14.68 9.38h-4.688v-9.378z" fill="#fff" stroke-width="1.926" transform="matrix(.5191 0 0 .5191 -3.115 15.052)"/></mask><filter id="a" x="-.027" y="-.027" width="1.054" height="1.054" color-interpolation-filters="sRGB"><feGaussianBlur stdDeviation=".619"/></filter><filter id="d" x="-.046" y="-.08" width="1.091" height="1.16" color-interpolation-filters="sRGB"><feGaussianBlur stdDeviation=".512"/></filter><linearGradient id="b" x1="-127" x2="-72" y1="60" y2="5" gradientTransform="matrix(.96364 0 0 .96364 127.882 .672)" gradientUnits="userSpaceOnUse"><stop stop-color="#99ecff" offset="0"/><stop stop-color="#bae9f7" offset="1"/></linearGradient></defs><rect x="4.5" y="4.5" width="55" height="55" ry="15" fill="#141414" filter="url(#a)" opacity=".3"/><rect x="4.5" y="4.5" width="55" height="55" ry="15" fill="#394d54"/><rect x="5.5" y="5.5" width="53" height="53" ry="14.455" fill="url(#b)"/><path transform="matrix(1.77164 0 0 1.77164 7 -24.096)" d="M12.705 24v2.42h-4.84v2.42h-2.42v2.474h-2.07l-.034.365a7.596 7.596 0 0 0 .013 1.533c-.662-.077-1.298-.312-1.709-.788.21.768-1.058.97-1.644 1.118h3.396c.092.582.256 1.152.503 1.697.079.162.154.327.242.484 1.492 2.535 4.114 3.604 6.972 3.604 4.808 0 8.881-1.869 11.241-5.785h4.56c-.586-.15-1.854-.35-1.645-1.118-.623.721-1.758.893-2.725.791.278-.495.532-1.02.756-1.578 1.4.074 2.832-.34 3.517-1.678l.176-.341-.334-.192c-.81-.467-1.89-.531-2.807-.261-.114-.976-.755-1.833-1.52-2.446l-.302-.244-.254.294c-.51.591-.664 1.574-.594 2.329.052.555.226 1.118.568 1.564a4.39 4.39 0 0 1-.818.37 5.313 5.313 0 0 1-1.681.282h-1.224V28.84h-2.42V24z" clip-path="url(#c)" fill="#333" filter="url(#d)" opacity=".5"/><path d="M15.608 28.84h2.42v2.474h1.224c.565 0 1.146-.101 1.681-.282.263-.09.558-.214.818-.37-.342-.446-.516-1.009-.568-1.564-.07-.755.083-1.738.594-2.329l.254-.294.303.244c.764.613 1.405 1.47 1.519 2.446.918-.27 1.997-.206 2.807.261l.333.192-.175.341c-.685 1.338-2.117 1.752-3.517 1.678-2.096 5.219-6.657 7.69-12.187 7.69-2.858 0-5.48-1.069-6.972-3.604-.088-.157-.163-.322-.242-.484-.505-1.116-.672-2.338-.559-3.56l.035-.365h2.069V28.84h2.42v-2.42h4.84V24h2.903v4.84" clip-path="url(#c)" fill="#394d54" transform="matrix(1.77164 0 0 1.77164 7 -24.096)"/><path d="M13.108 24.403h2.097v2.098h-2.097z" clip-path="url(#e)" fill="#20c2ef" mask="url(#f)" transform="matrix(1.77164 0 0 1.77164 7 -24.096)"/><path d="M13.366 26.326v-1.748zm.314 0v-1.748zm.318 0v-1.748zm.318 0v-1.748zm.317 0v-1.748zm.315 0v-1.748z" clip-path="url(#g)" fill="#000" mask="url(#h)" transform="matrix(1.77164 0 0 1.77164 7 -24.096)"/><path d="M5.848 31.34h2.098v-2.097H5.848z" clip-path="url(#i)" fill="#00acd3" mask="url(#j)" transform="matrix(1.77164 0 0 1.77164 7 -24.096)"/><path d="M6.106 29.418v1.748zm.314 0v1.748zm.318 0v1.748zm.318 0v1.748zm.318 0v1.748zm.314 0v1.748z" clip-path="url(#k)" fill="#000" mask="url(#l)" transform="matrix(1.77164 0 0 1.77164 7 -24.096)"/><path d="M8.268 26.824h2.098v2.097H8.268z" clip-path="url(#m)" fill="#00acd3" mask="url(#n)" transform="matrix(1.77164 0 0 1.77164 7 -24.096)"/><path d="M8.268 29.243h2.097v2.098H8.268z" clip-path="url(#o)" fill="#20c2ef" mask="url(#p)" transform="matrix(1.77164 0 0 1.77164 7 -24.096)"/><path d="M8.526 28.746v-1.748zm.314 0v-1.748zm.318 0v-1.748zm.318 0v-1.748zm.318 0v-1.748zm.314 0v-1.748z" clip-path="url(#q)" fill="#000" mask="url(#r)" transform="matrix(1.77164 0 0 1.77164 7 -24.096)"/><path d="M8.526 31.166v-1.748zm.314 0v-1.748zm.318 0v-1.748zm.318 0v-1.748zm.318 0v-1.748zm.314 0v-1.748z" clip-path="url(#s)" fill="#000" mask="url(#t)" transform="matrix(1.77164 0 0 1.77164 7 -24.096)"/><path d="M10.688 31.34h2.097v-2.097h-2.097z" clip-path="url(#u)" fill="#00acd3" mask="url(#v)" transform="matrix(1.77164 0 0 1.77164 7 -24.096)"/><path d="M10.688 28.92h2.097v-2.097h-2.097z" clip-path="url(#w)" fill="#20c2ef" mask="url(#x)" transform="matrix(1.77164 0 0 1.77164 7 -24.096)"/><path d="M10.946 29.418v1.748zm.314 0v1.748zm.318 0v1.748zm.318 0v1.748zm.317 0v1.748zm.315 0v1.748z" clip-path="url(#y)" fill="#000" mask="url(#z)" transform="matrix(1.77164 0 0 1.77164 7 -24.096)"/><path d="M10.946 26.998v1.748zm.314 0v1.748zm.318 0v1.748zm.318 0v1.748zm.317 0v1.748zm.315 0v1.748z" clip-path="url(#A)" fill="#000" mask="url(#B)" transform="matrix(1.77164 0 0 1.77164 7 -24.096)"/><path d="M13.108 26.824h2.097v2.097h-2.097z" clip-path="url(#C)" fill="#00acd3" mask="url(#D)" transform="matrix(1.77164 0 0 1.77164 7 -24.096)"/><path d="M13.108 29.243h2.097v2.098h-2.097z" clip-path="url(#E)" fill="#20c2ef" mask="url(#F)" transform="matrix(1.77164 0 0 1.77164 7 -24.096)"/><path d="M13.366 28.746v-1.748zm.314 0v-1.748zm.318 0v-1.748zm.318 0v-1.748zm.317 0v-1.748zm.315 0v-1.748z" clip-path="url(#G)" fill="#000" mask="url(#H)" transform="matrix(1.77164 0 0 1.77164 7 -24.096)"/><path d="M13.366 31.166v-1.748zm.314 0v-1.748zm.318 0v-1.748zm.318 0v-1.748zm.317 0v-1.748zm.315 0v-1.748z" clip-path="url(#I)" fill="#000" mask="url(#J)" transform="matrix(1.77164 0 0 1.77164 7 -24.096)"/><path d="M15.528 31.34h2.097v-2.097h-2.097z" clip-path="url(#K)" fill="#00acd3" mask="url(#L)" transform="matrix(1.77164 0 0 1.77164 7 -24.096)"/><path d="M15.785 29.418v1.748zm.315 0v1.748zm.318 0v1.748zm.317 0v1.748zm.318 0v1.748zm.315 0v1.748z" clip-path="url(#M)" fill="#000" mask="url(#N)" transform="matrix(1.77164 0 0 1.77164 7 -24.096)"/><g clip-path="url(#O)" mask="url(#P)" transform="matrix(1.77164 0 0 1.77164 7 -24.096)"><path d="M23.449 29.755c.162-1.261-.782-2.252-1.367-2.722-.674.78-.78 2.823.279 3.684-.59.524-1.835 1-3.109 1H3.598c-.124 1.33 0 7.734 0 7.734h22.965l-.104-9.675c-.995-.574-2.274-.391-3.01-.021" fill="#17b5eb"/></g><g clip-path="url(#Q)" mask="url(#R)" transform="matrix(1.77164 0 0 1.77164 7 -24.096)"><path d="M3.598 33.419v6.032h22.965v-6.032" fill="#000" fill-opacity=".17"/></g><g clip-path="url(#S)" mask="url(#T)" transform="matrix(1.77164 0 0 1.77164 7 -24.096)"><path d="M11.772 38.91c-1.433-.68-2.22-1.604-2.657-2.613l-4.353.19 2.223 2.964 4.787-.54z" fill="#d4edf1"/></g><g clip-path="url(#U)" mask="url(#V)" transform="matrix(1.77164 0 0 1.77164 7 -24.096)"><path d="M23.547 29.708v.003c-2.208 2.846-5.374 5.332-8.774 6.638-3.032 1.165-5.676 1.17-7.5.235-.197-.111-.39-.235-.583-.351-1.337-.935-2.09-2.48-2.027-4.518H3.598v7.736h22.965V29.29h-2.645l-.37.417z" fill="#000" fill-opacity=".085"/></g><path d="M4.828 36.385c1.5.082 3.1.097 4.495-.34" clip-path="url(#W)" stroke="#394d54" stroke-linecap="round" stroke-width=".5" transform="matrix(1.77164 0 0 1.77164 7 -24.096)"/><path d="M10.813 35.32a.579.579 0 1 1-1.157 0 .579.579 0 0 1 1.157 0z" clip-path="url(#X)" fill="#d4edf1" transform="matrix(1.77164 0 0 1.77164 7 -24.096)"/><path d="M10.384 34.933a.169.169 0 1 0 .233.227.414.414 0 1 1-.233-.227zM0 33.542h26.915c-.586-.149-1.854-.35-1.645-1.118-1.065 1.233-3.635.865-4.284.257-.722 1.048-4.927.65-5.22-.166-.905 1.062-3.711 1.062-4.617 0-.293.816-4.497 1.214-5.22.166-.648.608-3.218.976-4.284-.257.21.768-1.059.97-1.645 1.118z" clip-path="url(#Y)" fill="#394d54" transform="matrix(1.77164 0 0 1.77164 7 -24.096)"/></svg>
