<svg id="svg44" version="1.1" viewBox="0 0 64 64" xmlns="http://www.w3.org/2000/svg" xmlns:xlink="http://www.w3.org/1999/xlink">
    <defs id="defs22">
        <filter id="filter1057" x="-.026999999" y="-.026999999" width="1.054" height="1.054" color-interpolation-filters="sRGB">
            <feGaussianBlur id="feGaussianBlur1059" stdDeviation="0.61875"/>
        </filter>
        <linearGradient id="linearGradient1053" x1="-127" x2="-72" y1="60" y2="5" gradientTransform="translate(131.5 -.50999746)" gradientUnits="userSpaceOnUse">
            <stop id="stop1047" stop-color="#387aa3" offset="0"/>
            <stop id="stop1049" stop-color="#6ebcc6" offset="1"/>
        </linearGradient>
    </defs>
    <g fill="#5e4aa6">
        <g id="g30">
            <circle id="circle24" cx="-1248.7" cy="-1241.6" r="0"/>
            <circle id="circle26" cx="-1140.3" cy="-1301.8" r="0"/>
            <circle id="circle28" cx="-1158.1" cy="-1246" r="0"/>
        </g>
        <circle id="circle36" cx="-1157.3" cy="-1267.7" r="0"/>
        <circle id="circle38" cx="-57.756" cy="-2.1829" r="0" fill-rule="evenodd"/>
    </g>
    <g>
        <rect id="rect1055" x="4.5" y="4.5" width="55" height="55" ry="15" fill="#141414" filter="url(#filter1057)" opacity=".3" stroke-linecap="round" stroke-width="2.74436"/>
        <rect id="rect1045" x="4.5000019" y="4.5000019" width="54.999996" height="54.999996" ry="14.999999" fill="url(#linearGradient1053)" stroke-linecap="round" stroke-width="2.74436"/>
        <path id="path1393" d="m28.181302 13.000573c-1.756897-0.02055-3.301003 0.496617-4.246384 1.449216-0.05621 0.05663-0.1111 0.114762-0.164274 0.173277-0.274457 0.30125-0.323321 0.745424-0.119268 1.098164 0.20395 0.352842 0.614626 0.532778 1.012651 0.445567 1.46023-0.31985 3.047809 0.08505 4.187874 1.217431 0.0146 0.0144 0.02622 0.03039 0.04051 0.045 0.251794-0.101489 0.505621-0.196346 0.758365-0.285793-0.25346 0.08964-0.505903 0.184049-0.758365 0.285793-4.227064 1.703688-8.303396 5.109951-11.690493 10.533821l0.0045 0.0045c-2.694859 4.553325-3.440168 10.217067-1.545981 15.599328 0.01666 0.04736 0.03926 0.09059 0.06076 0.13502-2.085492 1.368766-3.054981 4.028344-2.189578 6.487719 0.02637 0.07502 0.05406 0.149756 0.08326 0.222782 0.151414 0.378378 0.531958 0.614929 0.938389 0.585089 0.406432-0.02984 0.746639-0.319158 0.841627-0.715607 0.348113-1.453715 1.402973-2.707228 2.918684-3.240484 1.51592-0.533361 3.124836-0.217813 4.307143 0.697605 0.322054 0.249342 0.767265 0.260313 1.102664 0.02925 0.335295-0.23106 0.483079-0.652391 0.364554-1.041906-0.02302-0.07565-0.04789-0.149799-0.07426-0.225032-0.848048-2.410049-3.189398-3.866766-5.619087-3.699553 1.688522-5.057509 6.748291-8.16103 13.000188-10.360545 0.951039-0.334667 1.893629-0.633532 2.824172-0.893384-0.156876 1.09194-0.76414 2.045793-1.633744 2.657648-0.28801 0.202688-0.41175 0.568708-0.306044 0.904633 0.105699 0.335927 0.417508 0.56614 0.769614 0.567086 0.06797 1.04e-4 0.136168-0.0018 0.204781-0.0045 2.631292-0.104766 4.678036-2.304884 4.608687-4.925984h0.0023c4.123356-0.630976 7.882801-0.161725 10.918629 2.171573 0.433224 0.333195 1.033373 0.343597 1.47847 0.02701 0.444888-0.316592 0.632338-0.88619 0.459069-1.404211-0.03109-0.09258-0.063-0.185376-0.09452-0.276792-0.57823-1.64579-1.38019-3.145288-2.335849-4.505171l0.01126-0.0023s1.733644-5.916774-5.403057-9.077854c-2.390877-1.059156-4.951229-1.60448-7.558877-1.566234-0.267601 0.0039-0.5349 0.01294-0.80337 0.02925 0.267672-0.01624 0.536515-0.02534 0.80337-0.02925-0.04645-0.04969-0.09588-0.09892-0.148523-0.148522-2.140834-2.020851-4.750928-2.937272-7.009795-2.963692zm6.352698 3.141469c-0.536202 0.03266-1.075509 0.09026-1.613491 0.173275-0.269365 0.04157-0.538484 0.08959-0.807871 0.144022-0.538773 0.10886-1.07632 0.243799-1.61349 0.405061-0.252123 0.0757-0.50471 0.1601-0.756113 0.247537 0.252016-0.0877 0.503404-0.171644 0.756113-0.247537 0.537003-0.161271 1.074941-0.296202 1.61349-0.405061 0.269275-0.05443 0.538612-0.102456 0.807871-0.144022 0.538518-0.08313 1.076647-0.140647 1.613491-0.173275zm9.100357 7.295589c0.189331-0.0014 0.400944 0.04494 0.607591 0.144022 0.506989 0.243039 0.788862 0.710393 0.630093 1.041905-0.158979 0.331615-0.699189 0.402918-1.206179 0.159773-0.508671-0.243878-0.791321-0.710394-0.632344-1.041904 0.09434-0.196712 0.324125-0.301672 0.600839-0.303796z" fill="#e2f1ff" stroke-width=".105075"/>
    </g>
</svg>
