<svg id="svg290" version="1.1" viewBox="0 0 64 64" xmlns="http://www.w3.org/2000/svg">
  <defs id="defs278">
    <style id="style266" type="text/css"/>
    <style id="style268" type="text/css"/>
    <filter id="filter1057" x="-.026999999" y="-.026999999" width="1.054" height="1.054" color-interpolation-filters="sRGB">
      <feGaussianBlur id="feGaussianBlur270" stdDeviation="0.61875"/>
    </filter>
    <linearGradient id="linearGradient1053" x1="-127" x2="-72" y1="60" y2="5" gradientTransform="translate(131.5 -.51)" gradientUnits="userSpaceOnUse">
      <stop id="stop273" stop-color="#db472b" offset="0"/>
      <stop id="stop275" stop-color="#e26c55" offset="1"/>
    </linearGradient>
    <filter id="filter2031" x="-.034500001" y="-.022178572" width="1.069" height="1.0443571" color-interpolation-filters="sRGB">
      <feGaussianBlur id="feGaussianBlur2033" stdDeviation="0.32931819"/>
    </filter>
    <filter id="filter2035" x="-.034500001" y="-.022178572" width="1.069" height="1.0443571" color-interpolation-filters="sRGB">
      <feGaussianBlur id="feGaussianBlur2037" stdDeviation="0.32931819"/>
    </filter>
  </defs>
  <rect id="rect280" x="4.5" y="4.5" width="55" height="55" ry="15" fill="#141414" filter="url(#filter1057)" opacity=".3" stroke-linecap="round" stroke-width="2.7444"/>
  <rect id="rect282" x="4.5" y="4.5" width="55" height="55" ry="15" fill="url(#linearGradient1053)" stroke-linecap="round" stroke-width="2.7444"/>
  <circle id="circle284" cx="-1326.3" cy="-1241.6" r="0" fill="#5e4aa6"/>
  <circle id="circle286" cx="-226.72" cy="23.855" r="0" fill="#5e4aa6" fill-rule="evenodd"/>
  <path id="path386" d="m4.000001 14.818183v2.545454s0 1.272728 1.2727273 1.272728h3.8181819c7.0290778 0 12.727273 5.698195 12.727273 12.727273s-5.698195 12.727273-12.727273 12.727273h-3.8181819c-1.2727273 0-1.2727273 1.272727-1.2727273 1.272727v2.545455s0 1.272727 1.2727273 1.272727h3.8181819c9.8407098 0 17.818182-7.977473 17.818182-17.818182 0-9.84071-7.977472-17.818183-17.818182-17.818183h-3.8181819c-1.2727273 0-1.2727273 1.272728-1.2727273 1.272728z" fill="#141414" filter="url(#filter2031)" opacity=".2"/>
  <path id="path388" d="m4.000001 14.818181v2.545455s0 1.272727 1.2727273 1.272727h3.8181819c7.0290778 0 12.727273 5.698195 12.727273 12.727273 0 7.029079-5.698195 12.727273-12.727273 12.727273h-3.8181819c-1.2727273 0-1.2727273 1.272728-1.2727273 1.272728v2.545454s0 1.272728 1.2727273 1.272728h3.8181819c9.8407098 0 17.818182-7.977473 17.818182-17.818183 0-9.840709-7.977472-17.818182-17.818182-17.818182h-3.8181819c-1.2727273 0-1.2727273 1.272727-1.2727273 1.272727z" fill="#fff"/>
  <path id="path390" d="m60.000002 14.818183v2.545454s0 1.272728-1.272727 1.272728h-3.818182c-7.029078 0-12.727273 5.698195-12.727273 12.727273s5.698195 12.727273 12.727273 12.727273h3.818182c1.272727 0 1.272727 1.272727 1.272727 1.272727v2.545455s0 1.272727-1.272727 1.272727h-3.818182c-9.84071 0-17.818182-7.977473-17.818182-17.818182 0-9.84071 7.977472-17.818183 17.818182-17.818183h3.818182c1.272727 0 1.272727 1.272728 1.272727 1.272728z" fill="#141414" filter="url(#filter2035)" opacity=".3"/>
  <path id="path392" d="m60.000002 14.818181v2.545455s0 1.272727-1.272727 1.272727h-3.818182c-7.029078 0-12.727273 5.698195-12.727273 12.727273 0 7.029079 5.698195 12.727273 12.727273 12.727273h3.818182c1.272727 0 1.272727 1.272728 1.272727 1.272728v2.545454s0 1.272728-1.272727 1.272728h-3.818182c-9.84071 0-17.818182-7.977473-17.818182-17.818183 0-9.840709 7.977472-17.818182 17.818182-17.818182h3.818182c1.272727 0 1.272727 1.272727 1.272727 1.272727z" fill="#fff"/>
</svg>
