<?xml version="1.0" encoding="utf-8"?>
<svg width="64" height="64" viewBox="0 0 64 64" xmlns="http://www.w3.org/2000/svg">
  <defs>
    <filter id="shadow" x="-0.03" y="-0.03" width="1.06" height="1.06">
      <feGaussianBlur stdDeviation="0.65"/>
    </filter>
    <linearGradient id="bgGradient" x1="0" y1="0" x2="1" y2="1">
      <stop offset="0" stop-color="#70b023"/>
      <stop offset="1" stop-color="#308000"/>
    </linearGradient>
    <linearGradient id="icon" x1="0" y1="0" x2="1" y2="1">
      <stop offset="0" stop-color="#f0f0f3"/>
      <stop offset="1" stop-color="#e0e0e0"/>
    </linearGradient>
  </defs>
  <rect x="4.5" y="4.5" width="55" height="55" ry="15" fill="#000" opacity="0.3" filter="url(#shadow)"/>
  <rect x="4" y="4" width="56" height="56" ry="15" fill="url(#bgGradient)"/>
  <path fill="url(#icon)" d="M 39.088 14.677 L 39.651 13.834 L 40.204 13.003 L 41.448 11.137 C 41.6 10.907 41.539 10.599 41.311 10.445 C 41.08 10.292 40.771 10.354 40.618 10.584 L 39.285 12.585 L 38.724 13.426 L 38.155 14.278 C 36.352 13.579 34.342 13.187 32.219 13.187 C 30.098 13.187 28.089 13.579 26.286 14.278 L 25.72 13.426 L 25.159 12.585 L 23.824 10.583 C 23.672 10.354 23.362 10.292 23.132 10.444 C 22.903 10.597 22.841 10.906 22.994 11.136 L 24.237 13.002 L 24.792 13.833 L 25.354 14.676 C 21.12 16.648 18.256 20.383 18.256 24.659 L 46.187 24.659 C 46.187 20.384 43.323 16.649 39.088 14.677 Z M 26.236 20.669 C 25.408 20.669 24.739 19.999 24.739 19.173 C 24.739 18.347 25.408 17.678 26.236 17.678 C 27.063 17.678 27.732 18.347 27.732 19.173 C 27.732 19.999 27.063 20.669 26.236 20.669 Z M 38.205 20.669 C 37.379 20.669 36.71 19.999 36.71 19.173 C 36.71 18.347 37.379 17.678 38.205 17.678 C 39.034 17.678 39.703 18.347 39.703 19.173 C 39.703 19.999 39.034 20.669 38.205 20.669 Z" style=""/>
  <rect x="18.394" y="27.455" width="28" height="24.789" fill="url(#icon)" rx="2" style=""/>
  <rect x="18.386" y="26.958" width="28.016" height="22.823" fill="url(#icon)" style=""/>
  <circle cx="32.619" cy="39.27" r="7.112" fill="url(#bgGradient)" style=""/>
  <circle cx="32.619" cy="39.27" r="5.334" fill="url(#icon)" style=""/>
  <path xmlns="http://www.w3.org/2000/svg" d="M 14.111 27.547 C 12.505 27.547 11.203 28.848 11.203 30.456 L 11.203 42.895 C 11.203 44.5 12.505 45.803 14.111 45.803 C 15.716 45.803 17.019 44.5 17.019 42.895 L 17.019 30.455 C 17.019 28.848 15.717 27.547 14.111 27.547 Z" id="path3835" fill="url(#icon)"/>
  <path xmlns="http://www.w3.org/2000/svg" d="M 51.107 27.31 C 49.5 27.31 48.199 28.611 48.199 30.219 L 48.199 42.658 C 48.199 44.263 49.5 45.566 51.107 45.566 C 52.712 45.566 54.013 44.263 54.013 42.658 L 54.013 30.218 C 54.013 28.611 52.712 27.31 51.107 27.31 Z" id="path3837" fill="url(#icon)"/>
</svg>