<svg id="svg290" version="1.1" viewBox="0 0 64 64" xmlns="http://www.w3.org/2000/svg" xmlns:xlink="http://www.w3.org/1999/xlink">
    <defs id="defs278">
        <style id="style266" type="text/css"/>
        <style id="style268" type="text/css"/>
        <filter id="filter1057" x="-.026999999" y="-.026999999" width="1.054" height="1.054" color-interpolation-filters="sRGB">
            <feGaussianBlur id="feGaussianBlur270" stdDeviation="0.61875"/>
        </filter>
        <linearGradient id="linearGradient1053" x1="-127" x2="-72" y1="60" y2="5" gradientTransform="translate(131.5 -.51)" gradientUnits="userSpaceOnUse">
            <stop id="stop273" stop-color="#46ad00" offset="0"/>
            <stop id="stop275" stop-color="#50c800" offset="1"/>
        </linearGradient>
        <filter id="filter1972" x="-.010058049" y="-.014871257" width="1.0201161" height="1.0297425" color-interpolation-filters="sRGB">
            <feGaussianBlur id="feGaussianBlur1974" stdDeviation="1.0478145"/>
        </filter>
        <filter id="filter1988" x="-.0091089254" y="-.017579566" width="1.0182179" height="1.0351591" color-interpolation-filters="sRGB">
            <feGaussianBlur id="feGaussianBlur1990" stdDeviation="0.049409053"/>
        </filter>
    </defs>
    <rect id="rect280" x="4.5" y="4.5" width="55" height="55" ry="15" fill="#141414" filter="url(#filter1057)" opacity=".3" stroke-linecap="round" stroke-width="2.7444"/>
    <rect id="rect282" x="4.5" y="4.5" width="55" height="55" ry="15" fill="url(#linearGradient1053)" stroke-linecap="round" stroke-width="2.7444"/>
    <circle id="circle284" cx="-1326.3" cy="-1241.6" r="0" fill="#5e4aa6"/>
    <circle id="circle286" cx="-226.72" cy="23.855" r="0" fill="#5e4aa6" fill-rule="evenodd"/>
    <g id="g2036" transform="matrix(1.1 0 0 .44444 -566.82071 -20.99283)"/>
    <g id="g4076" transform="translate(-1267.4211,-631.3537)"/>
    <g fill="#ffbb05">
        <path id="path4021" d="m18.863281 56.904297a1.8623827 2.4236171 0 0 0-1.861328 2.373047c0.813745 0.135622 1.64464 0.222656 2.498047 0.222656h1.216797a1.8623827 2.4236171 0 0 0 0.007812-0.171875 1.8623827 2.4236171 0 0 0-1.861328-2.423828z" color="#000000"/>
        <path id="path4023" d="m27.408203 56.904297a1.8623827 2.4236171 0 0 0-1.863281 2.423828 1.8623827 2.4236171 0 0 0 0.007812 0.171875h3.708985a1.8623827 2.4236171 0 0 0 0.007812-0.171875 1.8623827 2.4236171 0 0 0-1.861328-2.423828z" color="#000000"/>
        <path id="path4025" d="m23.134766 56.191406a2.4101422 3.1364455 0 0 0-2.410157 3.136719 2.4101422 3.1364455 0 0 0 0.009766 0.171875h4.802734a2.4101422 3.1364455 0 0 0 0.007813-0.171875 2.4101422 3.1364455 0 0 0-2.410156-3.136719z" color="#000000"/>
        <path id="path4029" d="m36.591797 56.904297a1.8623827 2.4236171 0 0 0-1.861328 2.423828 1.8623827 2.4236171 0 0 0 0.007812 0.171875h3.708985a1.8623827 2.4236171 0 0 0 0.007812-0.171875 1.8623827 2.4236171 0 0 0-1.863281-2.423828z" color="#000000"/>
        <path id="path4031" d="m45.136719 56.904297a1.8623827 2.4236171 0 0 0-1.861328 2.423828 1.8623827 2.4236171 0 0 0 0.007812 0.171875h1.216797c0.854071 0 1.685657-0.086828 2.5-0.222656a1.8623827 2.4236171 0 0 0-1.863281-2.373047z" color="#000000"/>
        <path id="path4033" d="m40.865234 56.191406a2.4101422 3.1364455 0 0 0-2.410156 3.136719 2.4101422 3.1364455 0 0 0 0.007813 0.171875h4.802734a2.4101422 3.1364455 0 0 0 0.009766-0.171875 2.4101422 3.1364455 0 0 0-2.410157-3.136719z" color="#000000"/>
    </g>
    <g id="g1970" transform="matrix(.21997879 0 0 .21997879 -35.508969 11.554043)" filter="url(#filter1972)" opacity=".19">
        <g clip-rule="evenodd" fill-rule="evenodd">
            <path id="path1950" d="m431.90059 145.08963v-72.314403c-2.832-6.9092-7.007-13.1348-12.182-18.3594 0.464-7.7637-1.27-15.625-5.298-22.6318-2.637-4.5899-9.009-5.2491-12.573-1.294l-8.081 8.96c-0.049-0.0244-0.098-0.0244-0.147-0.0488 1.05-8.1788-0.342-16.626-4.346-24.17-2.49-4.6875-7.885-5.5175-11.596-1.7089l-38.819 39.331c-0.439 0.415-0.903 0.8545-1.342 1.2939-0.025 0.0245-0.074 0.0489-0.098 0.0733-16.87 15.2832-43.164 15.918-59.2286 1.8799-1.001-1.0987-2.0508-2.1485-3.1495-3.1739l-38.8916-39.3798c-3.7109-3.8086-9.1064-2.9785-11.5966 1.709-3.9795 7.5195-5.3955 15.9179-4.3701 24.0478-0.0733 0.0244-0.1465 0.0244-0.2198 0.0488l-7.9834-8.8623c-3.5644-3.9551-9.9365-3.2959-12.5976 1.294-3.9551 6.8603-5.6885 14.5507-5.3223 22.1679-5.10254 5.0293-9.25293 11.0352-12.18261 17.7002v74.584503c8.76465 19.996 28.73531 33.985 51.95311 33.985h2.4902c23.0225 0 42.8467-13.745 51.7088-33.472 8.521-0.049 14.697-0.073 18.531-0.073 8.3-0.024 14.77-0.024 19.409-0.024 8.838 19.775 28.711 33.569 51.757 33.569h1.758c23.658 0 43.921-14.527 52.417-35.132z"/>
            <path id="path1952" d="m237.34519 57.809127c21.7774 0 39.4532 17.6514 39.4532 39.4535v23.364003c0 21.777-17.6514 39.453-39.4532 39.453-21.7773 0-39.4531-17.651-39.4531-39.453v-23.364003c0-21.8021 17.6758-39.4535 39.4531-39.4535z"/>
            <path id="path1954" d="m375.94459 57.809127c21.777 0 39.453 17.6514 39.453 39.4535v23.364003c0 21.777-17.652 39.453-39.453 39.453-21.778 0-39.454-17.651-39.454-39.453v-23.364003c0-21.8021 17.652-39.4535 39.454-39.4535z"/>
            <path id="path1956" d="m243.42429 80.465627c10.3272 0 18.7256 8.374 18.7256 18.726v19.995003c0 10.327-8.374 18.725-18.7256 18.725-10.3271 0-18.7255-8.374-18.7255-18.725v-19.995003c0-10.352 8.3984-18.726 18.7255-18.726z"/>
            <path id="path1958" d="m306.90259 125.85663c11.84 0 21.435 9.595 21.435 21.435v7.447c0 11.841-9.595 21.435-21.435 21.435-11.841 0-21.436-9.594-21.436-21.435v-7.447c0-11.84 9.595-21.435 21.436-21.435z"/>
        </g>
        <path id="path1960" d="m277.31229 149.34263c2.5635-13.671 15.2343-23.535 30.3953-23.535 13.794 0 26.27 10.108 28.784 23.535v1.099c0 0.855-0.293 1.196-1.074 1.099l-27.685 4.931h-1.636l-27.7101-4.956c-0.7813 0.098-1.0742-0.244-1.0742-1.098z"/>
        <path id="path1962" d="m302.36059 130.54363c1.441-0.341 2.93-0.537 4.419-0.537 1.587 0 3.199 0.196 4.786 0.611 3.222 0.83 5.468 3.735 5.468 7.055 0 2.686-2.173 4.834-4.834 4.834h-10.595c-2.686 0-4.834-2.173-4.834-4.834-0.025-3.369 2.295-6.323 5.59-7.129z" clip-rule="evenodd" fill-rule="evenodd"/>
        <path id="path1964" d="m369.86459 80.465627c10.328 0 18.726 8.374 18.726 18.726v19.995003c0 10.327-8.374 18.725-18.726 18.725-10.327 0-18.725-8.374-18.725-18.725v-19.995003c0.024-10.352 8.398-18.726 18.725-18.726z" clip-rule="evenodd" fill-rule="evenodd"/>
        <path id="path1966" d="m227.60399 103.17063c6.6744 0 12.085-5.389003 12.085-12.036003s-5.4106-12.0362-12.085-12.0362c-6.6743 0-12.0849 5.3892-12.0849 12.0362s5.4106 12.036003 12.0849 12.036003z"/>
        <path id="path1968" d="m352.21359 103.17063c6.674 0 12.085-5.389003 12.085-12.036003s-5.411-12.0362-12.085-12.0362c-6.675 0-12.085 5.3892-12.085 12.0362s5.41 12.036003 12.085 12.036003z"/>
    </g>
    <g clip-rule="evenodd" fill-rule="evenodd" stroke-width=".219979">
        <path id="path716" d="m59.5 42.871098v-15.907635c-0.62298-1.519877-1.541391-2.889377-2.679781-4.038678 0.10207-1.70785-0.279373-3.437169-1.165448-4.978516-0.580084-1.009681-1.981789-1.154691-2.765793-0.284653l-1.777649 1.97101c-0.01078-0.0054-0.02156-0.0054-0.03234-0.01073 0.230978-1.799162-0.07523-3.657367-0.956028-5.316887-0.547747-1.031151-1.734532-1.213733-2.550874-0.375922l-8.539356 8.651986c-0.09657 0.09129-0.198641 0.187972-0.295212 0.28463-0.0055 0.0054-0.01628 0.01076-0.02156 0.01613-3.711042 3.36198-9.495164 3.501622-13.029036 0.413538-0.220193-0.241701-0.451127-0.472634-0.692818-0.698201l-8.555327-8.66272c-0.816319-0.837812-2.003215-0.655207-2.551006 0.375943-0.875406 1.654131-1.186896 3.501601-0.961329 5.290006-0.01613 0.0054-0.03223 0.0054-0.04835 0.01074l-1.75618-1.949523c-0.784093-0.870038-2.1858195-0.725028-2.7712051 0.284653-0.8700381 1.50912-1.2513493 3.200845-1.1707931 4.876468-1.1224506 1.106339-2.0354483 2.42751-2.6799158 3.893668v16.407009c1.9280371 4.398696 6.321159 7.475979 11.428582 7.475979h0.547791c5.064462 0 9.425366-3.023608 11.37484-7.36313 1.874439-0.01078 3.233028-0.01606 4.076427-0.01606 1.825824-0.0053 3.249086-0.0053 4.269568-0.0053 1.944173 4.350081 6.315811 7.384468 11.385442 7.384468h0.386723c5.204258 0 9.661688-3.195632 11.530628-7.728295z" fill="#c5e636"/>
        <path id="path718" d="m16.701939 23.671239c4.790566 0 8.678867 3.882933 8.678867 8.678933v5.139585c0 4.790478-3.882934 8.678823-8.678867 8.678823-4.790544 0-8.6788455-3.882845-8.6788455-8.678823v-5.139585c0-4.796 3.8883015-8.678933 8.6788455-8.678933z" fill="#fff"/>
        <path id="path720" d="m47.190867 23.671239c4.790478 0 8.678823 3.882933 8.678823 8.678933v5.139585c0 4.790478-3.883065 8.678823-8.678823 8.678823-4.790698 0-8.679043-3.882845-8.679043-8.678823v-5.139585c0-4.796 3.883065-8.678933 8.679043-8.678933z" fill="#fff"/>
        <path id="path722" d="m18.039212 28.655188c2.271765 0 4.119235 1.842103 4.119235 4.119323v4.398477c0 2.271721-1.842103 4.119102-4.119235 4.119102-2.271743 0-4.119213-1.842102-4.119213-4.119102v-4.398477c0-2.27722 1.84747-4.119323 4.119213-4.119323z" fill="#4b4b4b"/>
        <path id="path724" d="m32.003091 38.640246c2.604549 0 4.715246 2.110697 4.715246 4.715246v1.638182c0 2.604768-2.110697 4.715245-4.715246 4.715245-2.604768 0-4.715465-2.110477-4.715465-4.715245v-1.638182c0-2.604549 2.110697-4.715246 4.715465-4.715246z" fill="#f48000"/>
    </g>
    <g stroke-width=".219979">
        <path id="path1986" d="m25.493853 44.206783c0.563916-3.00733 3.351223-5.177201 6.686321-5.177201 3.034388 0 5.778843 2.223546 6.33187 5.177201v0.241757c0 0.188082-0.06445 0.263094-0.236257 0.241756l-6.090113 1.084716h-0.359886l-6.095634-1.090215c-0.171869 0.02156-0.236301-0.05367-0.236301-0.241537z" filter="url(#filter1988)" opacity=".19"/>
        <path id="path726" d="m25.493853 43.806668c0.563916-3.00733 3.351223-5.177201 6.686321-5.177201 3.034388 0 5.778843 2.223546 6.33187 5.177201v0.241757c0 0.188082-0.06445 0.263094-0.236257 0.241756l-6.090113 1.084716h-0.359886l-6.095634-1.090215c-0.171869 0.02156-0.236301-0.05367-0.236301-0.241537z" fill="#ffc200"/>
        <path id="path728" d="m31.003948 39.671287c0.316989-0.07501 0.644538-0.118129 0.972086-0.118129 0.349106 0 0.703712 0.04312 1.052818 0.134407 0.708772 0.182583 1.202845 0.821621 1.202845 1.551951 0 0.590863-0.478014 1.063377-1.063378 1.063377h-2.330675c-0.590863 0-1.063378-0.478014-1.063378-1.063377-0.0055-0.741109 0.504852-1.390926 1.229682-1.568229z" clip-rule="evenodd" fill="#ffe747" fill-rule="evenodd"/>
        <path id="path730" d="m45.853396 28.655188c2.271941 0 4.119323 1.842103 4.119323 4.119323v4.398477c0 2.271721-1.842103 4.119102-4.119323 4.119102-2.271721 0-4.119103-1.842102-4.119103-4.119102v-4.398477c0.0053-2.27722 1.847382-4.119323 4.119103-4.119323z" clip-rule="evenodd" fill="#4b4b4b" fill-rule="evenodd"/>
        <path id="path732" d="m14.559081 33.649807c1.468227 0 2.658444-1.185466 2.658444-2.647665s-1.190217-2.647709-2.658444-2.647709c-1.468204 0-2.658421 1.18551-2.658421 2.647709s1.190217 2.647665 2.658421 2.647665z" fill="#fff"/>
        <path id="path734" d="m41.97055 33.649807c1.468139 0 2.658444-1.185466 2.658444-2.647665s-1.190305-2.647709-2.658444-2.647709c-1.468358 0-2.658443 1.18551-2.658443 2.647709s1.190085 2.647665 2.658443 2.647665z" fill="#fff"/>
    </g>
</svg>
