<svg id="svg8" width="64" height="64" version="1.1" viewBox="0 0 16.933333 16.933334" xmlns="http://www.w3.org/2000/svg" xmlns:xlink="http://www.w3.org/1999/xlink">
    <defs id="defs2">
        <filter id="filter1057" x="-.026999999" y="-.026999999" width="1.054" height="1.054" color-interpolation-filters="sRGB">
            <feGaussianBlur id="feGaussianBlur1059" stdDeviation="0.61875"/>
        </filter>
        <linearGradient id="linearGradient1053" x1="-127" x2="-72" y1="60" y2="5" gradientTransform="matrix(.26458333 0 0 .26458333 34.792707 -.1349368)" gradientUnits="userSpaceOnUse">
            <stop id="stop1047" stop-color="#2c2e3a" offset="0"/>
            <stop id="stop1049" stop-color="#424557" offset="1"/>
        </linearGradient>
    </defs>
    <g id="layer1">
        <rect id="rect1055" transform="scale(.26458333)" x="4.5" y="4.5" width="55" height="55" ry="15" fill="#141414" filter="url(#filter1057)" opacity=".3" stroke-linecap="round" stroke-width="2.74436"/>
        <rect id="rect1045" x="1.1906257" y="1.1906257" width="14.552082" height="14.552082" ry="3.9687498" fill="url(#linearGradient1053)" stroke-linecap="round" stroke-width=".726112"/>
        <g id="g486" transform="matrix(.0621361 0 0 .0621361 -2.7292019 20.652232)" fill="#cff7ff">
            <path id="path474" d="m147.96528-148.30315c3.59648 0.22252 4.83685 7.16359 6.15024 9.85361 3.94441 8.08038 9.11727 16.81639 17.39767 21.09841 9.41732 4.86939 18.15148 1.13823 25.13145-6.01716 2.51275-2.57572 4.18888-5.6306 6.36535-8.44179 0.88635-1.14485 2.2426-1.83753 3.69252-1.39859 6.06319 1.83568-1.53961 10.17587-3.46075 12.48622-6.5196 7.84039-15.48447 13.13867-25.90773 12.12585-12.89077-1.25227-22.40624-13.26594-27.78945-24.0321-1.80658-3.61315-4.05263-7.65704-4.88157-11.64167-0.45111-2.16773 0.99907-4.17539 3.30227-4.03278z"/>
            <path id="path472" d="m248.24236-156.31738c-7.14402 1.31525-5.27394 12.14252 1.85208 10.90163 6.94743-1.20968 5.05592-12.17321-1.85208-10.90163"/>
            <path id="path470" d="m110.39445-156.31738c-6.95775 1.28191-5.16017 12.12242 1.85208 10.90163 7.01305-1.22079 5.14667-12.19094-1.85208-10.90163"/>
            <path id="path468" d="m238.18816-145.85787c-5.75072-10.95745 8.43121-21.56089 17.99167-14.80529 6.92732 4.89506 6.39286 15.75091-0.79375 20.11627-2.76305 1.67852-6.13516 2.10979-9.26042 1.38853-1.18189-0.27278-2.49793-1.28058-3.70417-1.22555-1.67137 0.0762-3.68061 1.57163-5.29166 2.11085-3.68485 1.23296-7.50491 2.05581-11.37709 2.42438-26.86684 2.55852-54.87246-9.81393-76.72916-24.3848-7.8396-5.22631-15.30694-11.22891-21.96015-17.90355-1.92167-1.92776-6.81434-6.6003-2.37093-8.79237 3.37741-1.66608 6.46324 3.36312 8.45608 5.35278 6.83287 6.82202 14.68543 12.63333 22.75417 17.90065 14.6087 9.53638 31.46345 16.93572 48.68333 20.04695 11.46228 2.07116 22.71342 2.29844 33.60208-2.22885"/>
            <path id="path466" d="m178.65691-199.48864c10.25525-1.51527 13.55963 13.97502 3.175 15.7091-10.16344 1.6973-13.40246-14.1978-3.175-15.7091"/>
            <path id="path464" d="m111.45275-162.7912c11.89381 8e-3 16.56053 16.66769 5.82083 22.45677-7.68826 4.14417-17.352692-0.92842-17.967852-9.75677-0.20029-2.87232 0.716232-5.93487 2.494762-8.20209 0.83132-1.05992 2.38918-1.91743 2.87813-3.18531 0.6739-1.74811 0.28946-4.20979 0.58023-6.0751 0.64083-4.11163 1.82828-8.0989 3.51155-11.90625 11.01725-24.91872 35.61133-42.85747 59.30318-54.7034 8.66987-4.33493 17.84376-7.90284 27.25208-10.28514 2.54212-0.64374 9.47923-2.86068 8.92863 2.28229-0.37703 3.52081-5.53111 3.56315-8.13488 4.31033-8.76723 2.51592-17.23522 5.69568-25.4 9.77794-18.33774 9.16887-35.74414 21.7715-48.12056 38.29923-5.76156 7.69382-11.14504 17.09737-11.1461 26.9875"/>
            <path id="path462" d="m219.66759-247.6182c3.41128-0.78767 7.72663 0.16748 11.11224 0.75565 3.63087 0.63076 7.28556 1.79017 10.58333 3.43905 2.49185 1.24592 4.84479 2.80697 6.87811 4.72043 9.85679 9.27656 8.40687 23.55824 3.55203 34.90145-2.43232 5.68352-5.87666 11.02704-9.69222 15.875-1.36128 1.72985-2.76754 4.2418-5.23584 4.22434-2.87946-0.0204-3.89043-3.08716-2.43707-5.28267 7.34668-11.09795 19.96572-25.54049 12.80636-39.95208-3.7465-7.54116-12.05389-10.67938-19.89429-11.83428-2.50137-0.36857-5.87666 0.10054-8.19811-0.8681-2.70113-1.12713-2.29552-5.32712 0.52546-5.97879"/>
            <path id="path460" d="m137.91108-247.91136c5.75786-0.67945 13.48899-0.11642 19.05 1.55787 2.76146 0.83158 3.54277 4.93977 0.52811 6.10764-1.45468 0.56356-3.29062 7e-3 -4.76144-0.22066-2.62784-0.40746-5.28823-0.70089-7.9375-0.88239-9.11543-0.62415-20.59914 0.52467-27.51667 7.13052-8.6561 8.26638-6.20765 20.24856-1.38827 29.8876 1.0885 2.17699 3.81794 7.11755-0.46381 7.87691-3.61421 0.64082-4.90141-3.74968-6.14997-6.28941-3.4589-7.0358-5.48005-15.49109-3.90314-23.28334 3.25861-16.10439 18.44675-20.22157 32.54269-21.88474"/>
            <path id="path458" d="m178.9215-276.95123c-7.0911 1.63936-4.09152 12.23513 2.91041 10.56719 6.84636-1.63115 3.89996-12.14146-2.91041-10.56719"/>
            <path id="path456" d="m190.29861-265.18495c-4.61301 10.34309-21.18519 5.21256-21.9366-5.02708-0.68554-9.3435 8.66986-16.61954 17.43868-12.2211 2.59424 1.30148 4.72969 3.69332 5.75945 6.40027 0.49001 1.28852 0.35587 3.28877 1.27556 4.33678 1.24063 1.41394 3.39407 2.35453 4.87124 3.54912 2.65721 2.14868 5.0038 4.75377 7.08158 7.45993 12.42589 16.18509 16.97593 38.01454 18.34197 57.94375 0.46911 6.84 0.98531 14.07371 0.0886 20.90208-1.26841 9.66126-2.03411 19.05635-4.44447 28.575-0.66516 2.62652-2.30531 9.79567-6.50107 6.49975-2.71913-2.13572-0.25268-6.50663 0.41566-9.14559 2.1254-8.3939 3.45307-17.03519 4.04415-25.66458 1.43457-20.95103-0.99562-44.11874-10.22694-63.23541-3.68855-7.63879-8.54657-16.10334-16.20784-20.37292"/>
        </g>
        <ellipse id="path359" cx="8.4666662" cy="8.4666662" rx="6.5695152" ry="6.5695148" fill="#fff" fill-rule="evenodd" opacity=".1" stroke="#000" stroke-width=".0901368"/>
    </g>
</svg>
