<svg id="svg290" version="1.1" viewBox="0 0 64 64" xmlns="http://www.w3.org/2000/svg">
  <defs id="defs278">
    <style id="style266" type="text/css"/>
    <style id="style268" type="text/css"/>
    <filter id="filter1057" x="-.026999999" y="-.026999999" width="1.054" height="1.054" color-interpolation-filters="sRGB">
      <feGaussianBlur id="feGaussianBlur270" stdDeviation="0.61875"/>
    </filter>
    <linearGradient id="linearGradient1053" x1="-127" x2="-72" y1="60" y2="5" gradientTransform="translate(131.5 -.51)" gradientUnits="userSpaceOnUse">
      <stop id="stop273" stop-color="#f4cea0" offset="0"/>
      <stop id="stop275" stop-color="#f7d9b7" offset="1"/>
    </linearGradient>
  </defs>
  <rect id="rect280" x="4.5" y="4.5" width="55" height="55" ry="15" fill="#141414" filter="url(#filter1057)" opacity=".3" stroke-linecap="round" stroke-width="2.7444"/>
  <rect id="rect282" x="4.5" y="4.5" width="55" height="55" ry="15" fill="url(#linearGradient1053)" stroke-linecap="round" stroke-width="2.7444"/>
  <circle id="circle284" cx="-1326.3" cy="-1241.6" r="0" fill="#5e4aa6"/>
  <circle id="circle286" cx="-226.72" cy="23.855" r="0" fill="#5e4aa6" fill-rule="evenodd"/>
  <g id="g1076" transform="matrix(.17813046 0 0 .17813046 76.802683 62.723203)">
    <path id="path437" d="m-258.68359-205.17773v2e-3c-13.34399 1.552-20.43704-2.02-24.70703 10.70898 0 0 14.33705 21.65628 52.54101 21.11328-2.135 8.848-1.14453 15.36804-1.14453 23.20704 0 26.07897-20.58898 48.82031-65.96094 48.82031-11.74302 0-24.76938 1.11057-37.55273 3.73242a132.5 132.5 0 0 0 76.82422 24.917969 132.5 132.5 0 0 0 76.25976-24.496094c1.75094-12.797065 2.74116-27.220545 3.04688-43.660155l-18.6836-5.97656h57.41993l5.5664-12.80664c-5.41399 0.233-11.89453-2.64063-11.89453-2.64063l1.29687-6.20898h12.04688l-65.19922-34.38282c-7.24399 2.794-14.86904 6.44124-20.20703 10.86524-4.27-3.105-19.06236-12.80731-39.65234-13.19531z" fill="#ea9e44" stroke-width="5.61386"/>
    <path id="path439" d="m-369.40725-268.78298 12.277-3.493c5.948 21.577 13.345 33.375 22.648 39.352 8.388 5.099 19.75 5.239 31.799 4.579-3.508-1.164-6.787-2.794-9.837-5.045-6.787-5.045-12.582-13.428-16.929-28.64l12.201-3.649c3.279 11.488 7.092 18.085 12.201 21.888 5.11 3.726 11.286 4.657 18.606 5.433 13.726 1.553 30.884 2.174 52.312 12.264 2.898 1.086 5.872 2.483 8.769 4.036-0.381-0.776-0.762-1.553-1.296-2.406-3.66-5.822-10.828-11.953-24.097-16.92l4.27-12.109c21.581 7.917 30.121 19.171 33.553 28.097 3.965 10.168 1.525 18.124 1.525 18.124-3.05 1.009-6.1 2.406-9.608 3.492-6.634-4.579-12.887-8.033-18.835-10.75-21.962-8.304-43.466-2.638-62.53-0.853-14.336 1.32-27.452 0.698-38.814-6.598-11.21-7.14-21.047-20.8-28.215-46.802z" fill="#c16929" stroke-width="31.5155"/>
    <path id="path441" d="m-285.52625-247.98198c-2.516-5.744-4.041-12.807-3.355-21.5l12.659 0.932c-0.763 10.555 2.897 17.696 7.015 22.353-5.338-0.931-10.447-1.04-16.319-1.785zm80.069-1.32 8.312-9.702c21.58 19.094 8.159 46.415 8.159 46.415l-11.819-1.32c-0.382-6.24-1.144-17.836-6.635-24.371 3.584 1.84 6.635 3.865 9.99 6.908 0-5.666-1.754-12.341-8.007-17.93z" fill="#c16929" stroke-width="31.5155"/>
  </g>
</svg>
