<svg id="svg4305" version="1.1" viewBox="0 0 64 64" xmlns="http://www.w3.org/2000/svg">
    <defs id="defs4309">
        <filter id="filter2076" x="-.05709091" y="-.05709091" width="1.1141818" height="1.1141818" color-interpolation-filters="sRGB">
            <feGaussianBlur id="feGaussianBlur161" stdDeviation="1.1"/>
        </filter>
    </defs>
    <linearGradient id="a" x1="399.57144" x2="399.57144" y1="545.79797" y2="517.79797" gradientTransform="matrix(1.501011,0,0,1.501011,-588.86335,-776.1394)" gradientUnits="userSpaceOnUse">
        <stop id="stop4289" stop-color="#3889e9" offset="0"/>
        <stop id="stop4291" stop-color="#5ea5fb" offset="1"/>
    </linearGradient>
    <circle id="circle4299" cx="12.39871" cy="22.095125" r="0" fill="url(#a)" stroke-width="1.50101"/>
    <circle id="circle847" cx="-1334.9465" cy="-1263.5726" r="0" fill="#5e4aa6"/>
    <g id="g859" transform="translate(-86.246576,-21.972602)" fill="#5e4aa6">
        <circle id="circle853" cx="-149.14999" cy="23.855" r="0" fill-rule="evenodd"/>
        <circle id="circle855" cx="-1150.9" cy="-1256.6" r="0"/>
        <circle id="circle857" cx="-51.327" cy="8.8744001" r="0" fill-rule="evenodd"/>
    </g>
    <rect id="rect170" x="4.5000014" y="4.5000014" width="55" height="55" rx="13.002" ry="13.002" filter="url(#filter2076)" opacity=".3"/>
    <g id="g1723">
        <rect id="rect172" x="4.5" y="4.5" width="55" height="55" rx="13.002" ry="13.002" fill="#f9f06b"/>
        <path id="rect361" d="m17.50196 19.489728c-7.2031 0-13.00196 5.798852-13.00196 13.001953v14.498047h55v-14.498047c0-7.203101-5.79885-13.001953-13.00195-13.001953z" fill="#f6d32d"/>
        <path id="path420" d="m17.501953 33.502675c-7.203093 0-13.001953 5.79885-13.001953 13.001953v0.748047h55v-0.748047c0-7.203103-5.79886-13.001953-13.001953-13.001953z" fill="#e5a50a"/>
        <path id="path1717" d="M 46.498047,59.5 C 53.701139,59.5 59.5,53.70115 59.5,46.498047 V 45.75 h -55 v 0.748047 C 4.5,53.70115 10.29886,59.5 17.501953,59.5 Z" fill="#e5a50a"/>
    </g>
    <style id="style2090">svg{stroke:#edf2f6;animation:dashoffset 10s both infinite,fill-opacity 10s both infinite,stroke-opacity 10s both infinite;stroke-dasharray:500%;stroke-dashoffset:500%}@keyframes stroke-opacity{2%,25%{stroke-opacity:.75;stroke-width:2%}100%,75%{stroke-opacity:0;stroke-width:0}}@keyframes fill-opacity{10%,25%{fill-opacity:0}0%,100%,50%{fill-opacity:1}}@keyframes dashoffset{0%,2%{stroke-dashoffset:500%}100%{stroke-dashoffset:0%}}</style>
</svg>
