<svg id="svg290" version="1.1" viewBox="0 0 64 64" xmlns="http://www.w3.org/2000/svg">
  <defs id="defs278">
    <style id="style266" type="text/css"/>
    <style id="style268" type="text/css"/>
    <filter id="filter1057" x="-.026999999" y="-.026999999" width="1.054" height="1.054" color-interpolation-filters="sRGB">
      <feGaussianBlur id="feGaussianBlur270" stdDeviation="0.61875"/>
    </filter>
    <linearGradient id="linearGradient1053" x1="-127" x2="-72" y1="60" y2="5" gradientTransform="translate(131.5 -.51)" gradientUnits="userSpaceOnUse">
      <stop id="stop273" stop-color="#d80000" offset="0"/>
      <stop id="stop275" stop-color="#ff1a1a" stop-opacity=".99607843" offset="1"/>
    </linearGradient>
  </defs>
  <rect id="rect280" x="4.5" y="4.5" width="55" height="55" ry="15" fill="#141414" filter="url(#filter1057)" opacity=".3" stroke-linecap="round" stroke-width="2.7444"/>
  <rect id="rect282" x="4.5" y="4.5" width="55" height="55" ry="15" fill="url(#linearGradient1053)" stroke-linecap="round" stroke-width="2.7444"/>
  <circle id="circle284" cx="-1326.3" cy="-1241.6" r="0" fill="#5e4aa6"/>
  <circle id="circle286" cx="-226.72" cy="23.855" r="0" fill="#5e4aa6" fill-rule="evenodd"/>
  <g id="g1768" transform="matrix(.28814494 0 0 .28814494 77.296763 25.150901)" fill="#ffffff" stroke-width=".286528">
    <path id="path1760" d="m-164.94382 45.429614c-0.25435-0.306474-0.3154-2.511386-0.23606-8.525883 0.12574-9.531965 0.23617-10.078211 2.52661-12.49777 0.40206-0.42473 1.11122-1.042006 1.5759-1.371723 1.84779-1.311104 2.83066-1.371378 23.05082-1.413575 10.47977-0.02186 19.34567 0.0649 19.702 0.192813l0.64787 0.232581-0.0748 11.825169-0.0748 11.825171-23.38722 0.0733c-20.08916 0.06296-23.43559 0.01501-23.73029-0.340083z"/>
    <path id="path1758" d="m-204.50696 85.656125c-0.22289-0.416461-0.27996-11.534807-0.19894-38.752943 0.10149-34.089626 0.16335-38.352662 0.5788-39.888095 0.25584-0.9455431 0.46977-2.1220051 0.47538-2.6143608 6e-3 -0.4923558 0.21149-1.4593886 0.45749-2.1489617 0.24601-0.6895732 0.55849-1.7695209 0.6944-2.399883 0.24242-1.1243568 0.9169-3.1645467 1.42087-4.2979234 0.14015-0.315181 0.73113-1.604558 1.31329-2.8652822 0.58215-1.2607242 1.17506-2.5501012 1.31758-2.8652821 0.14252-0.315181 0.48285-0.916243 0.75629-1.335689 0.27344-0.419448 0.87173-1.386481 1.32953-2.148961 0.45779-0.762483 1.29589-1.983767 1.86243-2.713967s1.22348-1.621457 1.45987-1.980575c0.56379-0.856504 3.14396-3.647189 5.30077-5.733249 1.80297-1.743828 7.20368-6.001271 7.61281-6.001271 0.13089 0 0.79244-0.37169 1.4701-0.825974 0.67766-0.454288 2.32808-1.368898 3.6676-2.032471 1.33952-0.663571 2.67983-1.336159 2.97848-1.494635 0.60563-0.321387 2.87155-1.11976 5.4741-1.92875 3.11306-0.96768 7.10703-1.711336 10.82185-2.014972 5.40462-0.441752 45.26268-0.402699 45.71017 0.04479 0.25645 0.256448 0.34383 3.385159 0.34383 12.310633 0 11.537973-0.0199 11.977427-0.55422 12.263408-0.36832 0.19712-7.88861 0.295376-22.42083 0.292935-19.16957-0.0032-22.13167 0.05404-24.01558 0.464239-2.47067 0.537957-6.24955 1.798893-6.47258 2.159775-0.0833 0.134717-0.3424 0.244942-0.57587 0.244942s-0.77384 0.235741-1.20083 0.523868c-0.427 0.2881267-1.54523 1.0295185-2.48496 1.647537-2.46517 1.6212196-6.28803 5.5346336-7.81524 8.0003464-0.82654 1.3344823-2.94013 5.8612815-2.94013 6.2970652 0 0.260712-0.1446 0.7442112-0.32134 1.0744407-1.00288 1.8739118-1.09579 5.4041317-1.11213 42.257472-0.0143 32.185962-0.0646 36.210729-0.45786 36.60398-0.38386 0.383856-1.99807 0.44183-12.3022 0.44183-11.64132 0-11.86615-0.01077-12.17293-0.584016z"/>
  </g>
</svg>
