<svg id="svg1488" version="1.1" viewBox="0 0 64 64" xmlns="http://www.w3.org/2000/svg">
    <defs id="defs1476">
        <style id="style1464" type="text/css"/>
        <style id="style1466" type="text/css"/>
        <filter id="filter1057" x="-.026999999" y="-.026999999" width="1.054" height="1.054" color-interpolation-filters="sRGB">
            <feGaussianBlur id="feGaussianBlur1468" stdDeviation="0.61875"/>
        </filter>
        <linearGradient id="linearGradient1053" x1="-127" x2="-72" y1="60" y2="5" gradientTransform="translate(131.5 -.51)" gradientUnits="userSpaceOnUse">
            <stop id="stop1473" stop-color="#4f1d82" offset="0"/>
            <stop id="stop1471" stop-color="#73299a" stop-opacity=".99607843" offset="1"/>
        </linearGradient>
    </defs>
    <rect id="rect1478" x="4.5" y="4.5" width="55" height="55" ry="15" fill="#141414" filter="url(#filter1057)" opacity=".3" stroke-linecap="round" stroke-width="2.7444"/>
    <rect id="rect1480" x="4.5" y="4.5" width="55" height="55" ry="15" fill="url(#linearGradient1053)" stroke-linecap="round" stroke-width="2.7444"/>
    <circle id="circle1482" cx="-1326.3" cy="-1241.6" r="0" fill="#5e4aa6"/>
    <circle id="circle1484" cx="-226.72" cy="23.855" r="0" fill="#5e4aa6" fill-rule="evenodd"/>
    <path id="path4038" d="m26.16211 23.112996c-0.45115 0.0017-0.82657 0.114956-1.20508 0.328125-0.44819 0.252392-2.11247 1.835337-3.69922 3.515625-2.41193 2.554135-3.11703 3.146786-4.30859 3.632812-1.87525 0.764822-3.45595 1.05237-4.75391 0.65625-1.76191-0.537728-2.71457 0.364193-1.95703 1.960938 0.72228 1.522539 3.61161 2.902853 7.4375 3.554688 5.31145 0.905028 8.8292 0.36992 12.5625-2.691407 0.71568-0.58683 1.50708-1.070312 1.76172-1.070312 0.25463 0 1.12429 0.54317 1.92968 1.203125 1.91287 1.567442 2.84555 1.765476 5.11329 2.445312 1.61395 0.483886 2.24238 0.539098 4.51171 0.394532 4.77147-0.303976 7.96358-1.33005 9.64454-3.101563 0.56598-0.596031 0.77734-1.053795 0.77734-1.673828 0-1.241865-0.65899-1.357533-2.33984-0.917969-1.02066 0.266913-1.58986 0.07864-2.61719-0.15625-2.51593-0.57603-3.65402-1.366096-6.58594-4.572266-2.27793-2.49013-3.21707-3.451997-4.45703-3.5-0.74388-0.0279-1.59551 0.274837-2.91016 0.777344-1.39424 0.532967-2.82851 1.214924-3.1875 1.214844-0.35899-9.2e-5 -1.46606-0.598221-2.45703-1.027344-1.54458-0.66881-2.50786-0.975513-3.25976-0.972656zm3.81445 16a2.0002 2.0002 0 0 0-1.89648 2.632812l2 6a2.0002 2.0002 0 0 0 3.79296 0l2-6a2.0002 2.0002 0 0 0-1.89648-2.632812z" opacity=".2"/>
    <path id="path4040" d="m26.16211 22.113281c-0.45115 0.0017-0.82657 0.114956-1.20508 0.328125-0.44819 0.252392-2.11246 1.835337-3.69922 3.515625-2.41193 2.554135-3.11703 3.146786-4.30859 3.632812-1.87525 0.764822-3.45595 1.05237-4.75391 0.65625-1.76191-0.537728-2.71457 0.364193-1.95703 1.960938 0.72228 1.522539 3.61161 2.902853 7.4375 3.554688 5.31145 0.905028 8.82921 0.36992 12.5625-2.691407 0.71568-0.58683 1.50709-1.070312 1.76172-1.070312s1.12429 0.54317 1.92969 1.203125c1.91286 1.567442 2.84554 1.765476 5.11328 2.445312 1.61395 0.483886 2.24238 0.539098 4.51172 0.394532 4.77146-0.303976 7.96357-1.33005 9.64453-3.101563 0.56598-0.596031 0.77734-1.053795 0.77734-1.673828 0-1.241865-0.65899-1.357533-2.33984-0.917969-1.02065 0.266913-1.58986 0.07864-2.61719-0.15625-2.51593-0.57603-3.65402-1.366096-6.58594-4.572266-2.27793-2.49013-3.21707-3.451997-4.45703-3.5-0.74388-0.0279-1.59551 0.274837-2.91016 0.777344-1.39424 0.532967-2.82851 1.214924-3.1875 1.214844-0.35899-9.2e-5 -1.46606-0.598221-2.45703-1.027344-1.54458-0.66881-2.50785-0.975513-3.25976-0.972656zm3.81445 16a2.0002 2.0002 0 0 0-1.89648 2.632812l2 6a2.0002 2.0002 0 0 0 3.79296 0l2-6a2.0002 2.0002 0 0 0-1.89648-2.632812z" fill="#fff"/>
</svg>
