<svg id="svg1488" version="1.1" viewBox="0 0 64 64" xmlns="http://www.w3.org/2000/svg">
    <defs id="defs1476">
        <style id="style1464" type="text/css"/>
        <style id="style1466" type="text/css"/>
        <filter id="filter1057" x="-.026999999" y="-.026999999" width="1.054" height="1.054" color-interpolation-filters="sRGB">
            <feGaussianBlur id="feGaussianBlur1468" stdDeviation="0.61875"/>
        </filter>
        <linearGradient id="linearGradient1053" x1="-127" x2="-72" y1="60" y2="5" gradientTransform="translate(131.5 -.51)" gradientUnits="userSpaceOnUse">
            <stop id="stop1473" stop-color="#7158e0" offset="0"/>
            <stop id="stop1471" stop-color="#7350d6" offset="1"/>
        </linearGradient>
    </defs>
    <rect id="rect1478" x="4.5" y="4.5" width="55" height="55" ry="15" fill="#141414" filter="url(#filter1057)" opacity=".3" stroke-linecap="round" stroke-width="2.7444"/>
    <rect id="rect1480" x="4.5" y="4.5" width="55" height="55" ry="15" fill="url(#linearGradient1053)" stroke-linecap="round" stroke-width="2.7444"/>
    <circle id="circle1482" cx="-1326.3" cy="-1241.6" r="0" fill="#5e4aa6"/>
    <circle id="circle1484" cx="-226.72" cy="23.855" r="0" fill="#5e4aa6" fill-rule="evenodd"/>
    <g id="g1811" transform="translate(182.64767,-12.285893)">
        <path id="path387" d="m-160.06836 51.66855c1.09209-0.313078 3.58404-1.588274 5.7102-2.92203 1.77967-1.116412 3.48477-2.066396 3.70885-2.066396 0.22487 0 1.26541 0.580054 3.76939 2.101204 2.6925 1.635632 4.70682 2.65534 5.76718 2.919498 0.61301 0.1527 1.03988 0.10436 1.60794-0.18188 1.10783-0.558254 2.63605-1.786374 4.55122-3.657486 2.58542-2.525882 4.96579-5.488994 5.26866-6.55866 0.10312-0.36293 0.0134-0.43607-0.53924-0.423228-0.88481 0.02064-2.0159 0.326946-6.64855 1.799968-1.93209 0.614328-3.30577 0.994064-3.59622 0.994064-0.45621 0-2.059-0.924986-4.3319-2.4998-1.10095-0.762852-3.35627-2.23355-4.05309-2.643058-0.98567-0.579234-1.49715-0.778212-1.903-0.740396-0.68889 0.06414-1.92271 0.798204-6.2673 3.728672-2.07605 1.400292-3.20424 2.058354-3.66019 2.134902-0.37981 0.06372-0.9049-0.08342-5.99047-1.679878-1.63173-0.51219-2.88062-0.859584-3.58669-0.997674-0.50157-0.09806-1.19997-0.13144-1.30811-0.06222-0.38417 0.24564 0.68241 1.974944 2.50596 4.063004 3.01401 3.451126 6.22341 6.253214 7.7351 6.753356 0.25858 0.08562 0.84661 0.05676 1.26026-0.06194z" opacity=".2"/>
        <path id="path389" d="m-160.06837 50.668552c1.0921-0.313078 3.58405-1.588274 5.71021-2.92203 1.77966-1.116412 3.48476-2.066396 3.70884-2.066396 0.22487 0 1.26541 0.580054 3.76939 2.101204 2.6925 1.635632 4.70682 2.65534 5.76719 2.919498 0.61301 0.1527 1.03988 0.10436 1.60794-0.18188 1.10783-0.558254 2.63605-1.786374 4.55121-3.657486 2.58542-2.525882 4.9658-5.488994 5.26867-6.55866 0.10312-0.36293 0.0134-0.43607-0.53924-0.423228-0.88481 0.02064-2.01591 0.326946-6.64856 1.799968-1.93209 0.614328-3.30577 0.994064-3.59621 0.994064-0.45622 0-2.059-0.924986-4.3319-2.4998-1.10095-0.762852-3.35627-2.23355-4.05309-2.643058-0.98568-0.579234-1.49716-0.778212-1.90301-0.740396-0.68889 0.06414-1.9227 0.798204-6.26729 3.728672-2.07605 1.400292-3.20424 2.058354-3.6602 2.134902-0.3798 0.06372-0.9049-0.08342-5.99046-1.679878-1.63174-0.51219-2.88062-0.859584-3.5867-0.997674-0.50156-0.09806-1.19997-0.13144-1.30811-0.06222-0.38417 0.24564 0.68241 1.974944 2.50597 4.063004 3.014 3.451126 6.2234 6.253214 7.7351 6.753356 0.25858 0.08562 0.8466 0.05676 1.26025-0.06194z" fill="#fff"/>
    </g>
</svg>
