<svg id="svg419" width="64" height="64" version="1.1" viewBox="0 0 16.933 16.933" xmlns="http://www.w3.org/2000/svg" xmlns:xlink="http://www.w3.org/1999/xlink">
    <defs id="defs126">
        <filter id="filter861" x="-.027000001" y="-.027000001" width="1.054" height="1.054" color-interpolation-filters="sRGB">
            <feGaussianBlur id="feGaussianBlur1246" stdDeviation="0.16371"/>
        </filter>
        <linearGradient id="linearGradient1584" x1="30.900999" x2="30.900999" y1="1.2898" y2="15.843" gradientTransform="translate(-42.42593 -.13239)" gradientUnits="userSpaceOnUse">
            <stop id="stop1263" stop-color="#7364e9" offset="0"/>
            <stop id="stop1265" stop-color="#6496ff" offset="1"/>
        </linearGradient>
        <radialGradient id="radialGradient1933" cx="268.72" cy="191.78999" r="140.64" gradientTransform="matrix(.03387924 0 0 .03386644 -20.009768 1.0789163)" gradientUnits="userSpaceOnUse">
            <stop id="stop121-6" stop-color="#0DF" stop-opacity=".4" offset=".1"/>
            <stop id="stop123-7" stop-color="#7542E5" stop-opacity=".25" offset=".9"/>
        </radialGradient>
        <radialGradient id="radialGradient1935" cx="255.21001" cy="256.72" r="119.54" fx="254.66" gradientTransform="matrix(.03387924 0 0 .03386644 -20.009768 1.0789163)" gradientUnits="userSpaceOnUse">
            <stop id="stop116-3" stop-color="#7542E5" stop-opacity="0" offset=".91"/>
            <stop id="stop118-5" stop-color="#0DF" stop-opacity=".4" offset="1"/>
        </radialGradient>
        <radialGradient id="radialGradient1937" cx="386.70999" cy="60.772999" r="554.46002" gradientTransform="matrix(.14202943 0 0 .11540134 -75.628958 4.0778742)" gradientUnits="userSpaceOnUse">
            <stop id="stop107-2" stop-color="#80EBFF" offset="0"/>
            <stop id="stop109-9" stop-color="#0DF" offset=".26"/>
            <stop id="stop111-1" stop-color="#0090ED" offset=".53"/>
            <stop id="stop113-2" stop-color="#0060DF" offset=".86"/>
        </radialGradient>
        <radialGradient id="radialGradient1939" cx="220.92999" cy="290.35001" r="554.46002" fx="222.10001" gradientTransform="matrix(.14202943 0 0 .11540134 -75.628958 4.0778742)" gradientUnits="userSpaceOnUse">
            <stop id="stop98-0" stop-color="#321C64" stop-opacity=".8" offset=".3"/>
            <stop id="stop100-9" stop-color="#212F83" stop-opacity=".5" offset=".37"/>
            <stop id="stop102-3" stop-color="#0A47AC" stop-opacity=".14" offset=".48"/>
            <stop id="stop104-6" stop-color="#0250BB" stop-opacity="0" offset=".53"/>
        </radialGradient>
        <radialGradient id="radialGradient1941" cx="386.78" cy="-118.89" r="866.60999" gradientTransform="matrix(.13981326 0 0 .1172304 -75.628958 4.0778742)" gradientUnits="userSpaceOnUse">
            <stop id="stop89-6" stop-color="#80EBFF" offset="0"/>
            <stop id="stop91-2" stop-color="#00B3F4" offset=".47"/>
            <stop id="stop93-6" stop-color="#0060DF" offset=".84"/>
            <stop id="stop95-1" stop-color="#592ACB" offset="1"/>
        </radialGradient>
        <linearGradient id="linearGradient1943" x1="533.39001" x2="575.89001" y1="-22.365" y2="255.05" gradientTransform="matrix(.02332487 0 0 .04919103 -20.009768 1.0789163)" gradientUnits="userSpaceOnUse">
            <stop id="stop80-7" stop-color="#AAF2FF" offset="0"/>
            <stop id="stop82-9" stop-color="#0DF" offset=".29"/>
            <stop id="stop84-2" stop-color="#0090ED" offset=".61"/>
            <stop id="stop86-0" stop-color="#0250BB" offset=".89"/>
        </linearGradient>
        <linearGradient id="linearGradient1945" x1="380.23999" x2="417.81" y1=".049150001" y2="186.35001" gradientTransform="matrix(.02601339 0 0 .04410716 -20.009768 1.0789163)" gradientUnits="userSpaceOnUse">
            <stop id="stop71-3" stop-color="#AAF2FF" offset="0"/>
            <stop id="stop73-7" stop-color="#0DF" offset=".29"/>
            <stop id="stop75-5" stop-color="#0090ED" offset=".74"/>
            <stop id="stop77-9" stop-color="#0250BB" offset="1"/>
        </linearGradient>
        <radialGradient id="radialGradient1947" cx="239.28999" cy="34.491001" r="175.98" gradientTransform="matrix(.03383187 0 0 .03391253 -20.009768 1.0789163)" gradientUnits="userSpaceOnUse">
            <stop id="stop66-2" stop-color="#0DF" offset="0"/>
            <stop id="stop68-8" stop-color="#0090ED" offset=".82"/>
        </radialGradient>
        <radialGradient id="radialGradient1949" cx="335.70001" cy="131.62" r="529" gradientTransform="matrix(.03583034 0 0 .0320216 -20.009768 1.0789163)" gradientUnits="userSpaceOnUse">
            <stop id="stop61-7" stop-color="#80EBFF" offset=".29"/>
            <stop id="stop63-3" stop-color="#00B3F4" offset="1"/>
        </radialGradient>
        <radialGradient id="radialGradient1951" cx="232.09" cy="98.109001" r="445.12" gradientTransform="matrix(.03419546 0 0 .03355278 -20.009768 1.0789163)" gradientUnits="userSpaceOnUse">
            <stop id="stop54-1" stop-color="#AAF2FF" offset=".18"/>
            <stop id="stop56-2" stop-color="#0DF" offset=".43"/>
            <stop id="stop58-9" stop-color="#0060DF" offset=".69"/>
        </radialGradient>
        <linearGradient id="linearGradient1953" x1="435.82001" x2="113.6" y1="73.238998" y2="410.10001" gradientTransform="matrix(.12601775 0 0 .13006302 -75.628958 4.0778742)" gradientUnits="userSpaceOnUse">
            <stop id="stop49-1" stop-color="#80EBFF" stop-opacity=".5" offset=".24"/>
            <stop id="stop51-9" stop-color="#0DF" stop-opacity="0" offset=".7"/>
        </linearGradient>
        <linearGradient id="linearGradient1955" x1="207.42999" x2="163.5" y1="205.17" y2="375.54001" gradientTransform="matrix(.03490088 0 0 .03287553 -20.009768 1.0789163)" gradientUnits="userSpaceOnUse">
            <stop id="stop44-7" stop-color="#BFF3FF" stop-opacity=".9" offset="0"/>
            <stop id="stop46-8" stop-color="#80EBFF" stop-opacity=".5" offset="1"/>
        </linearGradient>
        <linearGradient id="linearGradient1957" x1="601.39001" x2="593.69" y1="-5.1167002" y2="356.45001" gradientTransform="matrix(.0217796 0 0 .05268099 -20.009768 1.0789163)" gradientUnits="userSpaceOnUse">
            <stop id="stop39-5" stop-color="#BFF3FF" offset="0"/>
            <stop id="stop41-0" stop-color="#0DF" stop-opacity="0" offset="1"/>
        </linearGradient>
        <linearGradient id="linearGradient1959" x1="357.81" x2="352.79999" y1="-3.9547999" y2="143.3" gradientTransform="matrix(.02762394 0 0 .04153513 -20.009768 1.0789163)" gradientUnits="userSpaceOnUse">
            <stop id="stop34-6" stop-color="#BFF3FF" offset="0"/>
            <stop id="stop36-1" stop-color="#AAF2FF" stop-opacity=".5" offset="1"/>
        </linearGradient>
        <linearGradient id="linearGradient1961" x1="370.79999" x2="360.76999" y1="156.69" y2="397.39001" gradientTransform="matrix(.03017932 0 0 .03801829 -20.009768 1.0789163)" gradientUnits="userSpaceOnUse">
            <stop id="stop29-6" stop-color="#BFF3FF" offset="0"/>
            <stop id="stop31-3" stop-color="#0DF" stop-opacity="0" offset="1"/>
        </linearGradient>
        <linearGradient id="linearGradient1963" x1="154.60001" x2="167.84" y1="205.39" y2="412.29001" gradientTransform="matrix(.03600958 0 0 .03186157 -20.009768 1.0789163)" gradientUnits="userSpaceOnUse">
            <stop id="stop24-0" stop-color="#BFF3FF" stop-opacity=".8" offset="0"/>
            <stop id="stop26-6" stop-color="#80EBFF" stop-opacity=".2" offset="1"/>
        </linearGradient>
        <linearGradient id="linearGradient1965" x1="189.17" x2="135.66" y1="80.425003" y2="167.3" gradientTransform="matrix(.03318151 0 0 .03457826 -20.009768 1.0789163)" gradientUnits="userSpaceOnUse">
            <stop id="stop19-5" stop-color="#BFF3FF" stop-opacity=".8" offset="0"/>
            <stop id="stop21-5" stop-color="#80EBFF" stop-opacity=".2" offset="1"/>
        </linearGradient>
        <linearGradient id="linearGradient1967" x1="124.61" x2="114.52" y1="182.33" y2="460.85001" gradientTransform="matrix(.10242842 0 0 .16002022 -75.628958 4.0778742)" gradientUnits="userSpaceOnUse">
            <stop id="stop14-7" stop-color="#0DF" stop-opacity=".4" offset="0"/>
            <stop id="stop16-6" stop-color="#0DF" stop-opacity="0" offset="1"/>
        </linearGradient>
        <linearGradient id="linearGradient1969" x1="168.62" x2="168.62" y1="28.256001" y2="355.70001" gradientTransform="matrix(.10176068 0 0 .16107027 -75.628958 4.0778742)" gradientUnits="userSpaceOnUse">
            <stop id="stop9-6" stop-color="#BFF3FF" offset="0"/>
            <stop id="stop11-9" stop-color="#0DF" stop-opacity="0" offset="1"/>
        </linearGradient>
        <linearGradient id="linearGradient1971" x1="432.94" x2="413.16" y1="79.210999" y2="557.17999" gradientTransform="matrix(.10808017 0 0 .15164905 -75.628958 4.0778742)" gradientUnits="userSpaceOnUse">
            <stop id="stop4-7" stop-color="#BFF3FF" stop-opacity=".8" offset="0"/>
            <stop id="stop6-4" stop-color="#0DF" stop-opacity="0" offset="1"/>
        </linearGradient>
    </defs>
    <circle id="circle128" cx="296.65" cy="5.7567" r="0" enable-background="new" fill="#d5d3cf" stroke-width=".87152"/>
    <circle id="circle130" cx="-15.774" cy="13.461" r="0" enable-background="new" fill="#d5d3cf" stroke-width=".87152"/>
    <g id="g2466" transform="translate(19.804929)">
        <rect id="rect1552" x="-18.614429" y="1.1905" width="14.552" height="14.552" ry="3.4395001" filter="url(#filter861)" image-rendering="optimizeSpeed" opacity=".3" stroke-opacity=".95294" stroke-width=".083153"/>
        <rect id="rect1554" x="-18.614429" y="1.1905" width="14.552" height="14.552" rx="3.4400001" ry="3.4395001" fill="url(#linearGradient1584)" stroke-linecap="round" stroke-width=".52916"/>
        <g stroke-width=".0338728">
            <path id="path1625" d="m-15.043271 10.871417 0.512868 1.421845 0.770672 1.039793 1.809377 0.345091 0.865615 0.07364 1.4776638-0.369173 0.6366041-0.610218z" fill="#09204d"/>
            <path id="path1627" d="m-7.3858679 8.7739712-0.1811553-0.6010388-0.5179762-0.9774321-0.5925378-0.6245057-0.6290122-0.4490859-0.5461673-0.2143778-0.6553343-0.2331078-1.079007-0.06866-0.680401 0.1227888-0.555168 0.1706444-0.985088 0.5765092-0.615672 0.6868282-0.567701 0.9220101-0.223326 0.7846265-0.04173 1.1904917 0.212892 0.811691 0.46957 0.924109 0.331201 0.446334 0.457958 0.419845 0.571977 0.38693 0.705289 0.306747 1.180326 0.138536 0.616312 0.01717 0.9121526-0.25692 0.8153141-0.44746 0.5245566-0.447486 0.4067481-0.485253 0.5750497-1.125659 0.1269546-0.7700318z" fill="#09204d"/>
            <path id="path1629" d="m-11.567291 6.1466559-0.48323 0.4794279 0.78825 0.3195246 0.586367-0.7271433z" fill="#0e56d7"/>
            <path id="path1631" d="m-11.262335 6.9456597 1.526057-0.046304-0.93969-0.6808367z" fill="#1053d1"/>
            <path id="path1633" d="m-9.8495801 6.2133569-0.8263239 0.00511 0.93969 0.6808367 0.8689694-0.056737z" fill="#0b4fbf"/>
            <path id="path1635" d="m-8.8672446 6.8425996-0.4939971-0.6811824 0.6837173 0.4095518z" fill="#0b48b0"/>
            <path id="path1637" d="m-8.2130371 7.2597561-0.6541819-0.4171437 0.1897202-0.2716306z" fill="#0c45a7"/>
            <path id="path1639" d="m-8.8672446 6.8425996-0.1094421 0.4666637 0.5983246 0.2391378z" fill="#0f46af"/>
            <path id="path1641" d="m-8.8672446 6.8425996 0.6541819 0.4171437-0.165293 0.2886578z" fill="#0c47ad"/>
            <path id="path1643" d="m-9.736278 6.8993146 0.8689694-0.056737-0.1094422 0.4666637z" fill="#0e4fc3"/>
            <path id="path1645" d="m-9.736278 6.8993146-0.686559 0.6214587 0.8836278 0.4327244z" fill="#174dca"/>
            <path id="path1647" d="m-11.262335 6.9456597 1.526057-0.046304-0.686559 0.6214587z" fill="#1650d4"/>
            <path id="path1649" d="m-8.9767059 7.3092761 0.4155433 0.8058659 0.1827813-0.5667281z" fill="#1246b2"/>
            <path id="path1651" d="m-8.561137 8.115142 0.1827813-0.5667281 0.4353616 1.035453z" fill="#133ea1"/>
            <path id="path1653" d="m-8.3784454 7.5484267 0.6635278 0.4859315-0.2281661 0.5495215z" fill="#103d98"/>
            <path id="path1655" d="m-8.2130371 7.2597561 0.1280761-0.064256 0.3701586 0.8388579z" fill="#0b3785"/>
            <path id="path1657" d="m-7.714892 8.0343582 0.1478176 0.1385742-0.5179762-0.9774321z" fill="#0b3685"/>
            <path id="path1659" d="m-7.714892 8.0343198-0.4982347-0.7745637-0.165293 0.2887602zm-0.9626965-1.4633252 0.4644618 0.6887615 0.1280761-0.064358z" fill="#0c3b91"/>
            <path id="path1661" d="m-7.4191544 9.2435795-0.147856-1.0706471 0.1811553 0.6010388-0.035701 0.4696083z" fill="#0b3279"/>
            <path id="path1663" d="m-7.714892 8.0343582 0.2956736 1.2092213-0.147856-1.0706471z" fill="#0f388d"/>
            <path id="path1665" d="m-7.9430325 8.583872 0.5238397 0.6596998-0.2956736-1.2092213z" fill="#0d3481"/>
            <path id="path1667" d="m-7.4215869 9.2435795 0.035701-0.4696083 0.03604 1.2042667-0.069337-0.7346584z" fill="#0b2e71"/>
            <path id="path1669" d="m-7.5069795 10.195317 0.1571378-0.2170535-0.069337-0.7346584z" fill="#0e2f77"/>
            <path id="path1671" d="m-7.4767656 10.748257-0.1256335 0.06053 0.2525933-0.8305619z" fill="#0e2969"/>
            <path id="path1673" d="m-7.6024861 10.808813 0.2525932-0.8305623-0.1571378 0.2170533z" fill="#0c2a69"/>
            <path id="path1675" d="m-7.5069795 10.195317 0.087798-0.9517247-0.2691212 0.3174506z" fill="#123180"/>
            <path id="path1677" d="m-7.6024861 10.808813 0.095453-0.613496-0.5190643 0.872324z" fill="#112b70"/>
            <path id="path1679" d="m-7.9430325 8.583872 0.5238397 0.6596998-0.2691213 0.3174507z" fill="#12378c"/>
            <path id="path1681" d="m-7.5069795 10.195317-0.1813218-0.6342612-0.2736533 0.7812342z" fill="#122e7b"/>
            <path id="path1683" d="m-8.0518537 11.87398 0.4494188-1.065129-0.4204596 0.776458z" fill="#11296c"/>
            <path id="path1685" d="m-8.0229201 11.585284 0.4204596-0.776459-0.423609 0.258816z" fill="#142a72"/>
            <path id="path1687" d="m-7.6024861 10.808813-0.4494188 1.065257 0.5749856-1.125788zm-0.8561669 1.550382 0.4067481-0.485125 0.028961-0.288658zm-0.5245566 0.447485 0.5245566-0.447485-0.5543608 0.254961z" fill="#112768"/>
            <path id="path1689" d="m-12.044568 13.118383-0.529972 0.129625 0.01616-0.369851z" fill="#1c226a"/>
            <path id="path1691" d="m-14.9911 8.0845568 0.146089-0.054129-0.369416 0.8387554z" fill="#182b7a"/>
            <path id="path1693" d="m-15.214427 8.8691833 0.279683-0.052028 0.08973-0.7867262z" fill="#1f308d"/>
            <path id="path1695" d="m-15.19772 9.8765348-0.0167-1.0073387 0.279683-0.052028z" fill="#1e2b7f"/>
            <path id="path1697" d="m-8.9767059 7.3092761-0.5624521 0.64426 0.9780082 0.1616059zm-4.9080921-0.6608264 0.718104-0.4911549-0.640739 0.3183981z" fill="#1346b5"/>
            <path id="path1699" d="m-13.807727 6.4756801 0.985088-0.5765092-0.344349 0.2580727-0.640739 0.3184365" fill="#1244ac"/>
            <path id="path1701" d="m-13.166963 6.157282 0.899517-0.4287299-0.555168 0.1706444z" fill="#0e4ab6"/>
            <path id="path1703" d="m-9.7361499 6.8993146 0.1970688 1.0541831 0.562452-0.64426zm-2.8828661-0.7920135 0.837936-0.3351053-0.486277-0.043696z" fill="#0e4bba"/>
            <path id="path1705" d="m-11.587135 5.6057505-0.680401 0.1227888 0.486277 0.043696z" fill="#0a4ebc"/>
            <path id="path1707" d="m-10.943553 5.7638613-0.837642 0.00833 0.194124-0.1664837" fill="#0c54cc"/>
            <path id="path1709" d="m-9.3612929 6.1613788-0.4883384 0.05196 0.9823099 0.629217zm-1.5822601-0.3975303 1.0906955 0.1436184-0.6553345-0.2331078z" fill="#0b4bb4"/>
            <path id="path1711" d="m-9.3612929 6.1613788-0.4914622-0.2539119 0.5461673 0.2143778z" fill="#0c3889"/>
            <path id="path1713" d="m-15.043271 10.871417 0.32247 0.265357-0.476893-1.2600599zm4.45066 2.506088 0.283485-0.667292-1.03311 0.277559zm0.283485-0.667292 0.8637463 0.23965 0.052401-0.667829z" fill="#202575"/>
            <path id="path1715" d="m-9.012937 12.614092-0.3801189-0.332288 0.9184254-0.610321z" fill="#1b2773"/>
            <path id="path1717" d="m-8.4745921 11.671573-0.5383321 0.942609 0.5543608-0.254962 0.4357073-0.773923z" fill="#15276d"/>
            <path id="path1719" d="m-9.3066262 6.1219471-0.054704 0.039529 0.6837172 0.4095518zm-0.5430435 0.091456 0.4883384-0.05196-0.4914622-0.2540399z" fill="#0c409d"/>
            <path id="path1721" d="m-11.587135 5.6057505 0.643582 0.1581492 0.435502-0.089492zm1.7342263 0.3017676-1.0906953-0.1436184 1.094088 0.4494956z" fill="#0b4cb7"/>
            <path id="path1723" d="m-10.943553 5.7638613 0.267623 0.4546038 0.8263243-0.00511z" fill="#0b55ce"/>
            <path id="path1725" d="m-10.943553 5.7638613 0.267623 0.4546038-0.891386-0.071776z" fill="#0a52c5"/>
            <path id="path1727" d="m-11.78122 5.772183 0.213865 0.3744985 0.623763-0.382833z" fill="#0951c4"/>
            <path id="path1729" d="m-12.619144 6.1073523 0.837936-0.3351053 0.213866 0.3744986z" fill="#0b50c4"/>
            <path id="path1731" d="m-13.166963 6.157282 0.547858-0.049928 0.351659-0.3788003zm0.547858-0.049928 0.568584 0.5187955 0.48323-0.4794279z" fill="#0f4dbf"/>
            <path id="path1733" d="m-12.619144 6.1073523-0.925607 0.8678811 0.37775-0.8179514z" fill="#1546b6"/>
            <path id="path1735" d="m-13.544764 6.9752334 0.59063 0.098231 0.334965-0.9661147z" fill="#1549bd"/>
            <path id="path1737" d="m-12.954057 7.0734286 0.334964-0.9661147 0.568623 0.5187955z" fill="#144bc3"/>
            <path id="path1739" d="m-14.423399 7.1625339 0.03597 0.3491241 0.502472-0.8632083z" fill="#173794"/>
            <path id="path1741" d="m-14.845011 8.0304279 0.421612-0.8678812 0.03597 0.3491241z" fill="#192f84"/>
            <path id="path1743" d="m-14.387424 7.5116708 0.502472-0.8632083 0.340213 0.3267709z" fill="#1a389b"/>
            <path id="path1745" d="m-14.417894 8.2600534 0.03042-0.7483826-0.457587 0.5187571z" fill="#1d3089"/>
            <path id="path1747" d="m-14.417894 8.2600534 0.03042-0.7483826 0.593793 0.4820395z" fill="#1e389f"/>
            <path id="path1749" d="m-13.793645 7.9937103 0.248894-1.0184769-0.842686 0.5364374z" fill="#1c40af"/>
            <path id="path1751" d="m-13.793645 7.9937103 0.248894-1.0184769 0.59063 0.098231z" fill="#1e41b7"/>
            <path id="path1753" d="m-14.934731 8.817154 0.08973-0.7867261 0.427168 0.2296255z" fill="#192c7d"/>
            <path id="path1755" d="m-10.592637 13.377377 0.7941389-0.123296 0.352952-0.304481zm-4.663565-3.317766 0.05846-0.183153-0.01673-1.0073387zm0.32142-1.242521-0.262951 1.059368 0.476893 1.26006-0.232736-1.4598685z" fill="#162467"/>
            <path id="path1757" d="m-14.720827 11.136812 0.393433 0.05514-0.275484-0.643108z" fill="#1a236a"/>
            <path id="path1759" d="m-9.012937 12.614092-0.4325579 0.335503-0.352952 0.304481 0.8153141-0.44746zm-2.313923 0.879737 0.616312 0.01717 0.9121523-0.256921-0.7941383 0.123296zm-3.026766-1.625917 0.413482 0.07953-0.38716-0.75536z" fill="#132668"/>
            <path id="path1761" d="m-12.55846 12.87808-0.700079-0.538844-0.290962 0.27976 0.974782 0.628948zm-2.484836-2.006663 0.46957 0.924109-0.147114-0.658752zm-0.212893-0.811691 0.212893 0.811691-0.154424-0.9948438zm3.913851 2.92793-1.216032-0.109409 0.513815 0.240265-0.530203 0.129523-0.637961-0.199412 0.70529 0.306748 1.180326 0.138536 0.734325-0.116454zm-2.985158-1.795678-0.393395-0.05518 0.367073 0.731137zm-0.626132-1.5151749 0.232737 1.4598689 0.117911-0.587955zm1.013305 2.2706509-0.413482-0.07953-0.219973-0.07239 0.331201 0.446334 0.457958 0.419845 0.571977 0.38693-0.336936-0.429537z" fill="#1b2268"/>
            <path id="path1763" d="m-14.934731 8.817154 0.555167 0.8587401-0.03828-1.4158279z" fill="#212a81"/>
            <path id="path1765" d="m-14.953538 9.6767007 0.350648 0.8720803 0.223326-0.8728997z" fill="#21267a"/>
            <path id="path1767" d="m-14.60289 10.548794 0.223326-0.8728999 0.277558 0.6897089z" fill="#262781"/>
            <path id="path1769" d="m-14.327381 11.191863 1.064413 0.659572-0.839025-1.485858z" fill="#272379"/>
            <path id="path1771" d="m-14.573688 11.795501 0.219973 0.07239-0.367074-0.731138zm2.351178 0.379376-0.33595 0.703164 1.216032 0.109409zm-2.104858-0.983091 0.38716 0.75536 0.390758 0.671658 0.290962-0.27976-0.0045-0.487763z" fill="#1e226d"/>
            <path id="path1773" d="m-9.3931711 12.281868-0.052401 0.667829 0.4325579-0.335502zm-1.8608429-0.09583-0.08837 0.801564 1.03311-0.277558-0.03679-0.901014z" fill="#222475"/>
            <path id="path1775" d="m-14.953538 9.6767391 0.573936-8.45e-4 -0.555142-0.8587401zm4.607618 2.1321279 0.03679 0.901014 0.9160189-0.42818z" fill="#23277d"/>
            <path id="path1777" d="m-10.345933 11.808943 0.5895551-0.533838 0.3632836 1.006763z" fill="#1e2776"/>
            <path id="path1779" d="m-9.3930431 12.281868 0.4456293-1.349639-0.8089129 0.342863z" fill="#222b86"/>
            <path id="path1781" d="m-8.4747201 11.671573-0.9184254 0.61032 0.4456292-1.349639z" fill="#192974"/>
            <path id="path1783" d="m-8.0259927 11.067551-0.9214083-0.135425 0.4728217 0.739331 0.4517232-0.08627z" fill="#172a75"/>
            <path id="path1785" d="m-7.9619802 10.34229-0.9854848 0.589926 0.9214083 0.135425 0.5190644-0.872324z" fill="#172d7d"/>
            <path id="path1787" d="m-14.845011 8.0304279 0.421612-0.8678812-0.567701 0.9220101zm6.5154456 1.0742061 0.3675852 1.237643 0.2736533-0.7812341z" fill="#18338a"/>
            <path id="path1789" d="m-7.6882628 9.5610301-0.2547185-0.9771632-0.3865201 0.5207287z" fill="#153791"/>
            <path id="path1791" d="m-8.9473882 10.932229 0.9854848-0.589965-0.9551429-0.4251709z" fill="#1b318b"/>
            <path id="path1793" d="m-8.9473882 10.932229-0.8931149-0.902435 0.084207 1.245298z" fill="#242d8d"/>
            <path id="path1795" d="m-10.345933 11.808943-0.685689-0.607094 1.2752313 0.07327z" fill="#2a2b8f"/>
            <path id="path1797" d="m-14.327381 11.191863 0.225388-0.82626-0.500872 0.183114zm3.295747 0.0099-0.222303 0.984166 0.908017-0.377072z" fill="#27267f"/>
            <path id="path1799" d="m-12.451047 11.403104-0.660071-0.335502-0.15185 0.783846 1.040497 0.323519 0.968585 0.01101z" fill="#2d2381"/>
            <path id="path1801" d="m-11.253886 12.185977 0.222341-0.984166-1.419412 0.201306z" fill="#2f2485"/>
            <path id="path1803" d="m-14.379615 9.6758941 0.284728-0.9089003-0.323007-0.5069404z" fill="#233196"/>
            <path id="path1805" d="m-13.793645 7.9937103 1.249665-0.3642694-0.660071 1.3484868z" fill="#293cb7"/>
            <path id="path1807" d="m-8.9473882 10.932229-0.8931149-0.902435 0.9234696-0.1126945z" fill="#25339c"/>
            <path id="path1809" d="m-7.9619802 10.34229-0.3675852-1.2376688-0.5875577 0.8124975z" fill="#19348f"/>
            <path id="path1811" d="m-9.7563779 11.275079-1.0213571-0.98752 0.9371551-0.257765z" fill="#2a309a"/>
            <path id="path1813" d="m-11.031634 11.201849 1.2752305 0.07327-1.0213575-0.98752z" fill="#302b96"/>
            <path id="path1815" d="m-11.031634 11.201849-0.698517-0.568751 0.95239-0.345501z" fill="#3630a7"/>
            <path id="path1817" d="m-13.884926 6.6485137 0.07723-0.172744-0.615672 0.6868282zm5.323789 1.4666539 0.2316228 0.989492 0.3865201-0.5207543z" fill="#173da2"/>
            <path id="path1819" d="m-13.793645 7.9937103 0.589581 0.9841662-0.890785-0.2108955z" fill="#2a36a8"/>
            <path id="path1821" d="m-14.094887 8.7669938 0.890784 0.2108955-0.602395 0.9488057z" fill="#312e9f"/>
            <path id="path1823" d="m-12.543993 7.6294409 0.493459-1.0033059-0.903587 0.4473192z" fill="#184dcd"/>
            <path id="path1825" d="m-14.379615 9.6758941 0.573129 0.2507881-0.295571 0.4389208z" fill="#272986"/>
            <path id="path1827" d="m-13.806447 9.9267206-0.295571 0.4389594 0.839024 1.485857 0.15185-0.783845z" fill="#2c2584"/>
            <path id="path1829" d="m-13.111144 11.067551 0.09295-1.3803651-0.788249 0.2394451z" fill="#32268b"/>
            <path id="path1831" d="m-13.111144 11.067551 1.381005-0.434555-1.288059-0.9458229z" fill="#372999"/>
            <path id="path1833" d="m-11.730139 10.633034-0.134579-1.0672541-1.153492 0.1214329z" fill="#392da5"/>
            <path id="path1835" d="m-11.864693 9.5658055 0.974078-0.3642694 0.112898 1.0860229z" fill="#3338bc"/>
            <path id="path1837" d="m-12.451047 11.403104 1.419413-0.201306-0.698517-0.568751z" fill="#362896"/>
            <path id="path1839" d="m-12.451047 11.403104-0.660071-0.335502 1.381005-0.434555z" fill="#35268f"/>
            <path id="path1841" d="m-12.543993 7.6294409 0.845899 0.089492-0.35244-1.0927954z" fill="#2648d3"/>
            <path id="path1843" d="m-11.262335 6.9456597-0.788212-0.3195247 0.35244 1.0927954z" fill="#1057dc"/>
            <path id="path1845" d="m-11.262335 6.9456597 0.839498 0.575152-1.27527 0.1981187z" fill="#1653da"/>
            <path id="path1847" d="m-11.698132 7.7189304 1.250919 0.6633228-0.443466 0.8192829z" fill="#2b46d5"/>
            <path id="path1849" d="m-10.447201 8.3822622 0.02435-0.8614543-1.27527 0.1981186z" fill="#244ad7"/>
            <path id="path1851" d="m-10.447201 8.3822622 0.02435-0.8614543 0.8836279 0.4327243z" fill="#2547cf"/>
            <path id="path1853" d="m-11.698132 7.7189304 0.807453 1.4826569-1.416212-0.7093606z" fill="#333cc5"/>
            <path id="path1855" d="m-11.864693 9.5658055 0.974078-0.3642694-1.416212-0.7093607z" fill="#3833b6"/>
            <path id="path1857" d="m-10.890679 9.2015361 1.2490883-0.2281277-0.8056223-0.5911424z" fill="#2a41c6"/>
            <path id="path1859" d="m-9.5391195 7.9535361-0.1023637 1.0198723-0.8056228-0.5911424z" fill="#2045c1"/>
            <path id="path1861" d="m-9.5391195 7.9535361 0.5895804 0.8006808-0.6919492 0.2191915z" fill="#1b43b7"/>
            <path id="path1863" d="m-8.561137 8.115142-0.9780082-0.1616059 0.5895805 0.8006808z" fill="#1742af"/>
            <path id="path1865" d="m-13.544764 6.9752334 0.37775-0.8179514-0.718105 0.4911549zm4.983627 1.1399086-0.3884149 0.6392413 0.6200377 0.3504171z" fill="#1740a9"/>
            <path id="path1867" d="m-8.9170463 9.9171187 0.5875577-0.8124975-0.6200376-0.3503787z" fill="#1b3ca4"/>
            <path id="path1869" d="m-8.9170463 9.9171187-0.0324838-1.1628762-0.6919492 0.2191915z" fill="#1f3dad"/>
            <path id="path1871" d="m-13.793645 7.9937103 1.249626-0.3642694-0.410089-0.5559867zm2.902838 1.2078258 1.0500479 0.8282579 0.1990404-1.0563856z" fill="#2543c3"/>
            <path id="path1873" d="m-10.777761 10.287623 0.9371555-0.257765-1.0500475-0.8282579z" fill="#2e37b2"/>
            <path id="path1875" d="m-12.543993 7.6294409 0.237102 0.8627345 0.608797-0.773245z" fill="#2d40c7"/>
            <path id="path1877" d="m-12.543993 7.6294409-0.660071 1.3484868 0.897186-0.485701z" fill="#3537b8"/>
            <path id="path1879" d="m-12.306891 8.4921793-0.711319 1.1950617 1.153492-0.121433z" fill="#3931b0"/>
            <path id="path1881" d="m-11.864693 9.5658055 0.13458 1.0672545 0.95239-0.345501zm-1.153492 0.1214329 0.71132-1.1950233-0.897186 0.4857395z" fill="#3735b8"/>
            <path id="path1883" d="m-13.806447 9.9267206 0.602396-0.9488057 0.185853 0.7093606z" fill="#342892"/>
            <path id="path1885" d="m-13.212539 13.048609 0.637961 0.199412-0.974885-0.628948zm-0.04597-0.709297 0.700079 0.538845 0.33595-0.703165-1.040497-0.323519zm1.916277 0.648255 0.08837-0.801564-0.968585-0.01101zm1.03311-0.277558-0.283485 0.667291 1.1470905-0.427782z" fill="#232372"/>
            <path id="path1887" d="m-14.379615 9.6758941 0.284728-0.9089003 0.288389 1.1597012z" fill="#2a2f96"/>
            <path id="path1889" d="m-14.094887 8.7669938 0.30123-0.7732835-0.624237 0.2663431zm4.4533475 0.2064146-0.1990404 1.0563856 0.9234696-0.1126945z" fill="#2636a5"/>
            <path id="path1891" d="m-7.3320974 9.9793389v-0.00186l-0.03604-1.2040747v-0.00135c0-4.352e-4 0-8.449e-4 -2.049e-4 -0.00125-2.048e-4 -4.097e-4 -2.048e-4 -0.00109-3.328e-4 -0.00159v-3.858e-4l-0.1810532-0.6008339v-3.713e-4l-3.713e-4 -9.858e-4c0-4.352e-4 -3.329e-4 -8.833e-4 -5.377e-4 -0.00129l-2.433e-4 -5.377e-4 -0.5180145-0.9774321-3.073e-4 -4.737e-4 -6.401e-4 -0.00101-5.761e-4 -8.45e-4 -3.713e-4 -5.121e-4 -5.377e-4 -6.145e-4 -3.713e-4 -4.737e-4 -0.5928707-0.6247105-2.688e-4 -2.433e-4 -4.097e-4 -4.096e-4c-3.329e-4 -3.329e-4 -7.426e-4 -6.146e-4 -0.00111-9.09e-4l-7.81e-4 -6.785e-4 -0.6288457-0.4489195h-3.073e-4l-5.761e-4 -4.097e-4a0.01219412 0.01219412 0 0 0-0.00132-6.785e-4 0.01016172 0.01016172 0 0 0-0.00135-6.786e-4h-2.689e-4l-0.5457927-0.2142093h-8.449e-4l-0.6551933-0.2330438h-6.15e-4l-0.0013-3.329e-4 -0.0012-2.433e-4h-0.0018l-1.079007-0.06866h-0.0019a0.01541164 0.01541164 0 0 0-0.0018 0h-6.79e-4l-0.680261 0.122789h-0.0015l-0.0012 3.329e-4 -0.554566 0.170478-0.0012 4.737e-4c-4.74e-4 2.048e-4 -9.86e-4 4.097e-4 -0.0014 6.401e-4l-7.17e-4 3.329e-4h-2.43e-4l-0.985088 0.5765475h-2.05e-4l-8.06e-4 5.377e-4 -7.81e-4 5.121e-4 -6.4e-4 5.761e-4 -6.15e-4 4.737e-4 -6.78e-4 7.426e-4 -5.38e-4 4.737e-4 -2.43e-4 2.688e-4 -0.615429 0.6865338-2.43e-4 3.329e-4 -4.36e-4 5.121e-4 -4.09e-4 5.761e-4 -5.38e-4 7.809e-4 -2.69e-4 3.329e-4 -2.05e-4 3.329e-4 -0.56811 0.9212675-2.69e-4 5.377e-4 -5.38e-4 9.474e-4 -4.74e-4 0.00111c0 4.353e-4 -3.33e-4 8.45e-4 -4.73e-4 0.00129l-2.05e-4 5.377e-4 -0.223327 0.7846649v0.00257a0.00880684 0.00880684 0 0 0-1.66e-4 0.00132v3.329e-4l-0.04173 1.1904914v0.0029a0.01016172 0.01016172 0 0 0 2.68e-4 0.0015v0.0012l0.212752 0.811243v3.33e-4l2.05e-4 6.15e-4a0.01764824 0.01764824 0 0 0 6.79e-4 0.0017c0 2.69e-4 2.05e-4 5.77e-4 3.33e-4 8.45e-4l0.46948 0.923841 3.07e-4 4.36e-4a0.01666501 0.01666501 0 0 0 9.48e-4 0.0015l2.43e-4 4.36e-4 0.331008 0.446064 4.1e-4 5.12e-4c3.07e-4 3.71e-4 6.78e-4 6.79e-4 9.86e-4 1e-3a0.00846821 0.00846821 0 0 0 7.42e-4 8.06e-4l0.457958 0.420024c3.72e-4 3.33e-4 7.43e-4 5.77e-4 0.0012 8.84e-4l9.09e-4 7.42e-4 0.571938 0.386892 4.1e-4 2.05e-4 0.0014 8.06e-4 7.43e-4 3.33e-4h2.43e-4l0.70529 0.306748 7.17e-4 2.43e-4a0.01195702 0.01195702 0 0 0 0.0016 5.12e-4l8.06e-4 2.43e-4 0.0013 2.44e-4h7.17e-4l1.180326 0.138574h0.0016l0.616313 0.01714h6.4e-4a0.01927288 0.01927288 0 0 0 0.0034-3.33e-4l7.43e-4 -2.43e-4h5.12e-4l0.912152-0.256921 5.377e-4 -2.05e-4 7.81e-4 -2.04e-4 7.169e-4 -3.33e-4 5.121e-4 -2.44e-4 0.00109-4.73e-4 3.713e-4 -2.05e-4 0.8148404-0.447114h2.433e-4l3.328e-4 -2.05e-4a0.01178764 0.01178764 0 0 0 0.00132-9.48e-4l0.00109-7.42e-4 0.5245567-0.44746 5.377e-4 -5.76e-4 6.785e-4 -6.15e-4 6.785e-4 -7.42e-4h2.049e-4l0.4066712-0.485164 1.665e-4 -2.43e-4a0.01798623 0.01798623 0 0 0 0.00142-0.0021l5.121e-4 -7.43e-4v-2.05e-4l0.5762403-1.125288c0-2.43e-4 2.049e-4 -5.37e-4 3.329e-4 -8.06e-4l5.761e-4 -0.0013v-6.41e-4a0.01016172 0.01016172 0 0 0 3.713e-4 -0.0015c0-3.08e-4 2.048e-4 -6.15e-4 2.688e-4 -9.48e-4l0.126706-0.7697827v-0.00132zm-6.4413196 2.6682961-0.118553-0.108798 0.266816 0.209026zm1.731154 0.452133-0.416875-0.194905 0.986714 0.08875zm0.152016-3.5492359-1.094485 0.1151674 0.674948-1.133917zm-0.382013-1.021191 1.33722 0.6697241-0.919705 0.343939zm0.391935 1.055873 0.127226 1.0088619-1.217619-0.8942412zm0.111272 1.0413169-1.322498 0.416196 0.08898-1.3219857zm-0.0732-1.0244817 1.02516 0.6808367-0.898236 0.325849zm0.01633-0.031874 0.919846-0.3439775 0.106598 1.0254922zm1.413267-1.1846917 0.8526079-0.4025105-0.09613 0.9576139zm0.7272843 0.5777254-1.1719913 0.2140705 0.416158-0.7684954zm-1.2052913 0.2009351-0.763451-1.4018732 1.1829 0.6271559zm-0.04278-4e-3 -1.345927-0.6740642 0.578583-0.735004zm-2.078229 0.481297-0.171503-0.654694 0.828015-0.4482409zm-0.113474 1.3687149-0.654144-1.0733613 0.741534-0.2252471zm1.335684-0.340009-0.665461 0.71082-0.60927-0.309667zm0.985319-0.354309-0.237346 0.854746-0.653029-0.531803zm-0.06436-1.0743725 0.9892867 0.7803245-0.8829627 0.242838zm0.01985-0.029707 1.1847936-0.2164133-0.1887728 1.0020128zm1.2275796-0.263693 0.094911-0.9468085 0.547345 0.7433641zm0.6543227-0.1699787 0.030282 1.0843329-0.6754596-0.879877zm-1.4617893-0.4244923 0.02273-0.804816 0.8254021 0.4043412zm-0.03567-7.169e-4 -1.178291-0.624813 1.20122-0.1866092zm-1.834854 0.1003305-0.220817-0.8035229 0.78784 0.083326zm-0.02876 0.029876-0.835773 0.4524401 0.614891-1.2561296zm-0.711998 1.1919122-0.72585 0.2204718 0.554732-0.8736423zm-0.131456 1.3280027-0.906263-0.642019 0.270337-0.401461zm0.07316 0.09102 0.609027 0.309564-0.749163 0.413789zm1.369611-0.436962 0.654041 0.532647-1.329155 0.188466zm0.959918-0.336156 0.9653721 0.933392-1.2053161-0.06927zm0.02561-0.02476 0.8860346-0.243708 0.079601 1.177381zm1.1115634-1.2805053 0.6811439 0.8874562-0.8682908 0.1059871zm0.7004885-0.2306753 0.5752545 0.3251833-0.545143 0.7537725zm0.00606-0.037463 0.3562422-0.5859958 0.2124446 0.9074793zm-0.026184-0.025506-0.5478572-0.744017 0.9087979 0.1501605zm-1.4404089-1.205867 0.6435816-0.5824367 0.18474 0.9879941zm-1.27317 0.1795294 0.408233-0.7244036 0.786419 0.5388058zm-0.852198-0.081295 0.462772-0.940945 0.330535 1.0248526zm-0.688902 1.3262105-0.560865-0.9362337 1.18893-0.3465123zm-0.593511 0.9413162-0.271285-1.0909646 0.837975 0.1983875zm-0.298862 0.4457955-0.248765-0.6182067 0.513649 0.2247478zm0.967203 0.747666-0.140469 0.724877-0.776049-1.374347zm0.668956 0.353938 0.212816 0.718681-0.968752-0.301192zm1.407251-0.206351-0.210998 0.933968-1.136094-0.742929zm1.2548493 0.06734-0.5461933 0.494535-0.635349-0.562516zm-0.019713-1.214022 0.8409575 0.849727-0.7616973 0.32284zm0.017173-0.0333 0.8668057-0.105818-0.028487 0.952864zm1.4660253-0.8986712 0.3462434 1.1658972-0.8997593-0.4005129zm-0.1962239-0.985216 0.5647181 0.4282178-0.3531184 0.4757407zm-0.9721446-0.2179753 0.5241725-0.6004626 0.3873011 0.7510583zm-0.02371-0.027098-0.1834598-0.9813624 0.7070562 0.3816039zm-0.8959321-0.4159146-0.782936-0.5364118 1.4232534-0.043188zm-1.269277 0.176508-0.328256-1.0177344 0.73412 0.2975684zm-0.853594-0.079397-0.380119-0.5153004 0.837463-0.414596zm-0.02639 0.024218-1.164297 0.339407 0.782283-0.857524zm-0.667561 1.3312034-0.829883-0.196467 0.280567-0.7203068zm-0.591488 0.9450418-0.525299-0.229856 0.260825-0.8330583zm-0.292895 0.4593799-0.451864 0.165229 0.201434-0.787431zm0.812702 1.444505-0.994024-0.615979 0.210486-0.771619zm1.012153 0.369583-0.940344 0.149033-0.0041-0.442748zm-0.119673-0.724878 1.1057 0.723149-0.894241-0.01016zm1.399313-0.209474 0.641853 0.568277-0.849791 0.353157zm1.2566673 0.07113 0.3392021 0.940036-0.8894664-0.44143zm0.030248-0.02127 0.7571907-0.320946-0.4171693 1.263453zm0.8337752-1.3406775 0.899593 0.4004365-0.9281041 0.555513zm0.6023958-0.7950605 0.5881595 0.4186288-0.2510314 0.7166072zm-0.00677-0.048438 0.3535281-0.4762784 0.2329798 0.893691zm-0.2358864-0.9920662 0.1641408-0.5089376 0.3909626 0.9298708zm-0.024659-0.039732-0.3740505-0.7253766 0.5385754 0.2152612zm-1.1081072-1.1556685 0.7832055-0.051147-0.098604 0.420626zm-1.5507657 0.013549 0.551441-0.683858 0.883731 0.6401887zm-0.03259-0.016395-0.283921-0.7436073 0.829883 0.06683zm-0.03682 0.00339-0.725313-0.2940093 0.444618-0.4411228zm-1.629502 0.1244479 0.311869-0.8995161 0.529358 0.4830254zm-0.836656 0.8918986 0.228371-0.9346461 0.541955 0.090169zm-0.338933 0.7976339-0.292857-0.459584 0.565909-0.2414422zm-0.01565 0.041799-0.250314 0.7990165-0.03364-1.2446458zm-0.288222 0.9241481-0.204149 0.7979022-0.320498-0.7971213zm-0.532815-0.034754 0.01694-0.7833335 0.505916 0.7824629zm0.807019 0.7352352-0.202894 0.743709-0.247946-0.578852zm0.814161 1.446553-0.616043 0.08726-0.352171-0.687238zm0.03347 0.0312 4e-3 0.436385-0.609706-0.350583zm1.027452 0.325887-0.311869 0.652761-0.649842-0.500091zm0.03635 0.0066 0.824058 0.760673-1.138526-0.102397zm0.04041-0.01118 0.90264 0.01016-0.08234 0.746988zm1.813602-0.35797 0.03445 0.843902-0.884653-0.490784zm0.03584 0.0031 0.8927431 0.443082-0.8583301 0.401217zm1.3845893-0.864872 0.443184 0.692999-0.8609038 0.572079zm0.030858-0.01788 0.8533247 0.125328-0.415313 0.559508zm0.015887-0.03364 0.9127283-0.54636-0.059378 0.67176zm1.2054957-1.3020143 0.1611706 0.5638093-0.4044436 0.13065zm-0.2144418-0.9587917 0.4622597 0.5821295-0.2374863 0.2801314zm-0.4325579-1.060213 0.6003602 0.4396633-0.2063122 0.4970825zm-0.6188298-0.3023348 0.0967741-0.4127012 0.4323786 0.6241984zm-0.7655252-0.4178862-0.1041918-0.6305741 0.9029728 0.5784039zm-0.039631-0.021034-0.8603663-0.6236608 0.7567813-0.00467zm-1.7506133-0.7261576 0.56185-0.344784 0.241033 0.4094878zm-0.539485 0.4681873-0.520011-0.4747293 0.962325 0.036209zm-0.914994 0.4519281-0.539894-0.089999 0.846642-0.7938443zm-0.837974 0.9085674-0.552735-0.4487146 0.784421-0.499387zm-0.02347 0.026793-0.571132 0.2438107 0.02784-0.684703zm-0.571362 1.6238684-0.513137-0.7937418 0.47761-0.5148652zm-0.222303 0.9376284-0.09742 0.485561-0.192191-1.205867zm0.02473 0.05806 0.240495 0.561339-0.343402-0.04813zm0.623929 1.314433-0.362438-0.06975 0.02307-0.592768zm0.684806 0.419845-0.257433 0.247613-0.345936-0.594497zm0.03072 0.01985 0.61845 0.476009-0.875473-0.228883zm2.018057-0.148189 0.883091 0.489695-0.965372 0.259366zm1.8257646 0.09637-0.048336 0.6158-0.7960726-0.220984zm0.8858686-0.582949-0.4901051 0.858433-0.3462179-0.302485zm0.4839727-0.60689 0.00271 0.449522-0.3922428 0.07489zm0.098231-0.765525 0.3988106-0.128716-0.4550135 0.764642zm0.2766693-0.790291 0.2264378-0.2670857-0.0738755 0.8007197zm-0.2540399-0.9842303 0.2032396-0.489593 0.2634242 1.0773172zm-0.4323146-1.037591 0.1428118-0.249367 0.4304839 0.6692249zm-0.024795-0.028386-0.4224567-0.609706 0.5652941 0.3604415zm-1.4174922-1.2893392 0.4276801-0.04566 0.4326603 0.5965962zm-0.8684315-0.025066-0.235617-0.4001676 0.9630034 0.3956611zm-0.895189-0.07872-0.189681-0.3322248 0.743056-0.00738zm-0.03773 0.00583-0.935939-0.035058 0.745643-0.2980805zm-1.891568 0.7719264 0.335131-0.7256198 0.486033-0.044339zm-0.06023 0.045355-0.306338-0.2942525 0.646564-0.442339zm-0.02297 0.027336-0.761697 0.4849201 0.454194-0.7802864zm-0.86107 1.2585365-0.382283-0.2055441 0.409514-0.4642568zm-0.01206 0.033873-0.464295 0.5004368 0.08062-0.7066466zm-0.52462 1.4032815-0.196288 0.1606201 0.211394-0.8516604zm0.0049 0.041968 0.200384 1.2571151-0.41064-1.0848704zm0.620447 1.4971231-0.023 0.590733-0.320843-0.638934zm0.39424 0.756039 0.325887 0.560186-0.670671-0.626644zm1.374732 0.928411-0.01419 0.324505-0.855322-0.551851zm0.03509 0.01385 0.443735 0.207541-0.457817 0.111983zm1.182157 0.103243 0.01379 0.455141-0.645105-0.337537zm1.019565-0.272168-0.26167 0.616107-0.692013-0.359891zm0.04099-0.0053 0.7957389 0.220779-1.0568199 0.394176zm0.9207297-0.41274 0.3371665 0.294688-0.3833707 0.297568zm0.9149047-0.63115 0.3888886-0.07422-0.8518269 0.885254zm0.4577148-0.171771-0.00268-0.43814 0.3585467-0.219089zm0.031502-0.500744 0.4352336-0.731381-0.079804 0.514353zm0.5550009-1.5794439 0.050809 0.537756-0.1149971 0.1588659zm-0.264205-1.3472065 0.09945 0.093251 0.099484 0.7203068zm-0.5040841-0.8215918 0.09359-0.046947 0.2705423 0.6130987zm-0.6544123-0.4291653 0.1642432-0.2351434 0.4020367 0.596161zm-0.025506-0.02571-0.4283843-0.5904639 0.5927683 0.3549492zm-0.9645272-0.6182709-0.00264-0.2567156 0.4124708 0.2130975zm-0.035736-0.00694-0.9427375-0.3873267 0.9400362 0.1237707zm-1.8648115-0.4327243 0.150084-0.1287163 0.497684 0.1223483zm-0.819718 0.3074263 0.291846-0.3143781 0.40356 0.036277zm-0.0754 0.028826-0.441942 0.040309 0.725619-0.3458722zm-1.215354 0.5078878 0.04888-0.109341 0.405595-0.2015753zm-0.532379 0.8572806-0.02947-0.2860205 0.441366-0.4211765zm-0.03065 0.050369-0.365819 0.4147368 0.337064-0.6938824zm-0.545015 1.2962526-0.233723 0.043458 0.308476-0.7004117zm-0.0078 0.037633-0.223557 0.9000667-0.01419-0.8558596zm0.197542 2.2406924-0.265524-0.218513-0.127158-0.819142zm0.372297 0.757114-0.169595-0.05586-0.113439-0.507888zm0.724877 0.698863-0.563399-0.306684-0.09044-0.304008zm0.102769 0.09647 0.243888 0.310986-0.745707-0.584127zm0.09125 0.0586 0.775677 0.500436-0.50758-0.158661zm1.423125 0.445757 0.602934 0.315389-1.047949-0.206619zm0.72338-0.119909 0.674845 0.350954-0.661019 0.104836zm1.7911966-0.01636-0.2739606 0.236334-0.616479 0.09572zm0.5063643-0.354245 0.022796 0.147447-0.3541042 0.109611zm0.9188607-0.948434-0.3642694 0.646961-0.4634503 0.213162zm0.1016172-0.107851 0.2438875-0.450507-0.2608252 0.617938zm0.5155053-1.388303 0.0921-0.127191-0.1480608 0.486751zm0.088577-0.9599434v-0.00109l-0.00132-0.00945 0.00918-0.1205867 0.00935 0.3122657zm-0.02449-0.1775578-0.092133-0.6672916 0.1140831 0.3786594zm-0.2740597-1.0407721-0.1681736-0.3811047 0.2353483 0.4440418zm-0.5070684-0.786931-0.3358479-0.4979274 0.4284483 0.4515952zm-1.1218955-1.0767794 0.022458-0.016225 0.2581751 0.1843303zm-0.033873-0.019443-0.1745748-0.090203 0.1939834 0.076145zm-1.4736955-0.380631 0.327143-0.067238 0.492268 0.1751254zm-0.106733-0.014396-0.445462-0.1094767 0.746923 0.047422zm-0.843863 0.00816-0.34746-0.03123 0.486136-0.08773zm-1.226185 0.3104093 0.198797-0.1490338 0.320472-0.098501zm-0.163168 0.077907-0.172449 0.085697 0.265127-0.1551406zm-0.723379 0.4958918-0.204558 0.1953149 0.233888-0.2608253zm-0.958088 1.3781886-0.09095 0.033873 0.353323-0.5738718zm-0.118553 0.081836 0.09823-0.036345-0.248189 0.5635018zm-0.244387 1.4621729 0.0052 0.3136612-0.01805 0.057007zm0.01694 0.3938048 0.08949 0.5764843-0.123363-0.470352zm0.466831 1.1925143 0.114929 0.514519-0.3666-0.721933zm0.368737 0.735273 0.07977 0.268238-0.237179-0.320062zm1.781979 1.381133 0.0333 0.05308-0.348484-0.151479zm0.08953 0.07567-0.04092-0.06524 0.758471 0.149444zm1.857898 0.06409-0.07953 0.09041-0.416363-0.01159zm0.05525-0.0087 0.49634-0.07706-0.570108 0.160556zm1.146822-0.428487 0.2910647-0.09003-0.5132776 0.281719zm0.466254-0.193074-0.022864-0.147716 0.4253373-0.195609zm0.9213316-1.104241-0.019917 0.19849-0.2797217 0.333709zm0.4606722-0.846335 0.071878-0.03462-0.3289729 0.643991zm0.095724-0.0856-0.080684 0.03885 0.162182-0.533263z" fill="url(#radialGradient1933)"/>
            <path id="path1893" d="m-7.3320974 9.9793389v-0.00186l-0.03604-1.2040747v-0.00135c0-4.352e-4 0-8.449e-4 -2.049e-4 -0.00125-2.048e-4 -4.097e-4 -2.048e-4 -0.00109-3.328e-4 -0.00159v-3.858e-4l-0.1810532-0.6008339v-3.713e-4l-3.713e-4 -9.858e-4c0-4.352e-4 -3.329e-4 -8.833e-4 -5.377e-4 -0.00129l-2.433e-4 -5.377e-4 -0.5180145-0.9774321-3.073e-4 -4.737e-4 -6.401e-4 -0.00101-5.761e-4 -8.45e-4 -3.713e-4 -5.121e-4 -5.377e-4 -6.145e-4 -3.713e-4 -4.737e-4 -0.5928707-0.6247105-2.688e-4 -2.433e-4 -4.097e-4 -4.096e-4c-3.329e-4 -3.329e-4 -7.426e-4 -6.146e-4 -0.00111-9.09e-4l-7.81e-4 -6.785e-4 -0.6288457-0.4489195h-3.073e-4l-5.761e-4 -4.097e-4a0.01219412 0.01219412 0 0 0-0.00132-6.785e-4 0.01016172 0.01016172 0 0 0-0.00135-6.786e-4h-2.689e-4l-0.5457927-0.2142093h-8.449e-4l-0.6551933-0.2330438h-6.15e-4l-0.0013-3.329e-4 -0.0012-2.433e-4h-0.0018l-1.079007-0.06866h-0.0019a0.01541164 0.01541164 0 0 0-0.0018 0h-6.79e-4l-0.680261 0.122789h-0.0015l-0.0012 3.329e-4 -0.554566 0.170478-0.0012 4.737e-4c-4.74e-4 2.048e-4 -9.86e-4 4.097e-4 -0.0014 6.401e-4l-7.17e-4 3.329e-4h-2.43e-4l-0.985088 0.5765475h-2.05e-4l-8.06e-4 5.377e-4 -7.81e-4 5.121e-4 -6.4e-4 5.761e-4 -6.15e-4 4.737e-4 -6.78e-4 7.426e-4 -5.38e-4 4.737e-4 -2.43e-4 2.688e-4 -0.615429 0.6865338-2.43e-4 3.329e-4 -4.36e-4 5.121e-4 -4.09e-4 5.761e-4 -5.38e-4 7.809e-4 -2.69e-4 3.329e-4 -2.05e-4 3.329e-4 -0.56811 0.9212675-2.69e-4 5.377e-4 -5.38e-4 9.474e-4 -4.74e-4 0.00111c0 4.353e-4 -3.33e-4 8.45e-4 -4.73e-4 0.00129l-2.05e-4 5.377e-4 -0.223327 0.7846649v0.00257a0.00880684 0.00880684 0 0 0-1.66e-4 0.00132v3.329e-4l-0.04173 1.1904914v0.0029a0.01016172 0.01016172 0 0 0 2.68e-4 0.0015v0.0012l0.212752 0.811243v3.33e-4l2.05e-4 6.15e-4a0.01764824 0.01764824 0 0 0 6.79e-4 0.0017c0 2.69e-4 2.05e-4 5.77e-4 3.33e-4 8.45e-4l0.46948 0.923841 3.07e-4 4.36e-4a0.01666501 0.01666501 0 0 0 9.48e-4 0.0015l2.43e-4 4.36e-4 0.331008 0.446064 4.1e-4 5.12e-4c3.07e-4 3.71e-4 6.78e-4 6.79e-4 9.86e-4 1e-3a0.00846821 0.00846821 0 0 0 7.42e-4 8.06e-4l0.457958 0.420024c3.72e-4 3.33e-4 7.43e-4 5.77e-4 0.0012 8.84e-4l9.09e-4 7.42e-4 0.571938 0.386892 4.1e-4 2.05e-4 0.0014 8.06e-4 7.43e-4 3.33e-4h2.43e-4l0.70529 0.306748 7.17e-4 2.43e-4a0.01195702 0.01195702 0 0 0 0.0016 5.12e-4l8.06e-4 2.43e-4 0.0013 2.44e-4h7.17e-4l1.180326 0.138574h0.0016l0.616313 0.01714h6.4e-4a0.01927288 0.01927288 0 0 0 0.0034-3.33e-4l7.43e-4 -2.43e-4h5.12e-4l0.912152-0.256921 5.377e-4 -2.05e-4 7.81e-4 -2.04e-4 7.169e-4 -3.33e-4 5.121e-4 -2.44e-4 0.00109-4.73e-4 3.713e-4 -2.05e-4 0.8148404-0.447114h2.433e-4l3.328e-4 -2.05e-4a0.01178764 0.01178764 0 0 0 0.00132-9.48e-4l0.00109-7.42e-4 0.5245567-0.44746 5.377e-4 -5.76e-4 6.785e-4 -6.15e-4 6.785e-4 -7.42e-4h2.049e-4l0.4066712-0.485164 1.665e-4 -2.43e-4a0.01798623 0.01798623 0 0 0 0.00142-0.0021l5.121e-4 -7.43e-4v-2.05e-4l0.5762403-1.125288c0-2.43e-4 2.049e-4 -5.37e-4 3.329e-4 -8.06e-4l5.761e-4 -0.0013v-6.41e-4a0.01016172 0.01016172 0 0 0 3.713e-4 -0.0015c0-3.08e-4 2.048e-4 -6.15e-4 2.688e-4 -9.48e-4l0.126706-0.7697827v-0.00132zm-6.4413196 2.6682961-0.118553-0.108798 0.266816 0.209026zm1.731154 0.452133-0.416875-0.194905 0.986714 0.08875zm0.152016-3.5492359-1.094485 0.1151674 0.674948-1.133917zm-0.382013-1.021191 1.33722 0.6697241-0.919705 0.343939zm0.391935 1.055873 0.127226 1.0088619-1.217619-0.8942412zm0.111272 1.0413169-1.322498 0.416196 0.08898-1.3219857zm-0.0732-1.0244817 1.02516 0.6808367-0.898236 0.325849zm0.01633-0.031874 0.919846-0.3439775 0.106598 1.0254922zm1.413267-1.1846917 0.8526079-0.4025105-0.09613 0.9576139zm0.7272843 0.5777254-1.1719913 0.2140705 0.416158-0.7684954zm-1.2052913 0.2009351-0.763451-1.4018732 1.1829 0.6271559zm-0.04278-4e-3 -1.345927-0.6740642 0.578583-0.735004zm-2.078229 0.481297-0.171503-0.654694 0.828015-0.4482409zm-0.113474 1.3687149-0.654144-1.0733613 0.741534-0.2252471zm1.335684-0.340009-0.665461 0.71082-0.60927-0.309667zm0.985319-0.354309-0.237346 0.854746-0.653029-0.531803zm-0.06436-1.0743725 0.9892867 0.7803245-0.8829627 0.242838zm0.01985-0.029707 1.1847936-0.2164133-0.1887728 1.0020128zm1.2275796-0.263693 0.094911-0.9468085 0.547345 0.7433641zm0.6543227-0.1699787 0.030282 1.0843329-0.6754596-0.879877zm-1.4617893-0.4244923 0.02273-0.804816 0.8254021 0.4043412zm-0.03567-7.169e-4 -1.178291-0.624813 1.20122-0.1866092zm-1.834854 0.1003305-0.220817-0.8035229 0.78784 0.083326zm-0.02876 0.029876-0.835773 0.4524401 0.614891-1.2561296zm-0.711998 1.1919122-0.72585 0.2204718 0.554732-0.8736423zm-0.131456 1.3280027-0.906263-0.642019 0.270337-0.401461zm0.07316 0.09102 0.609027 0.309564-0.749163 0.413789zm1.369611-0.436962 0.654041 0.532647-1.329155 0.188466zm0.959918-0.336156 0.9653721 0.933392-1.2053161-0.06927zm0.02561-0.02476 0.8860346-0.243708 0.079601 1.177381zm1.1115634-1.2805053 0.6811439 0.8874562-0.8682908 0.1059871zm0.7004885-0.2306753 0.5752545 0.3251833-0.545143 0.7537725zm0.00606-0.037463 0.3562422-0.5859958 0.2124446 0.9074793zm-0.026184-0.025506-0.5478572-0.744017 0.9087979 0.1501605zm-1.4404089-1.205867 0.6435816-0.5824367 0.18474 0.9879941zm-1.27317 0.1795294 0.408233-0.7244036 0.786419 0.5388058zm-0.852198-0.081295 0.462772-0.940945 0.330535 1.0248526zm-0.688902 1.3262105-0.560865-0.9362337 1.18893-0.3465123zm-0.593511 0.9413162-0.271285-1.0909646 0.837975 0.1983875zm-0.298862 0.4457955-0.248765-0.6182067 0.513649 0.2247478zm0.967203 0.747666-0.140469 0.724877-0.776049-1.374347zm0.668956 0.353938 0.212816 0.718681-0.968752-0.301192zm1.407251-0.206351-0.210998 0.933968-1.136094-0.742929zm1.2548493 0.06734-0.5461933 0.494535-0.635349-0.562516zm-0.019713-1.214022 0.8409575 0.849727-0.7616973 0.32284zm0.017173-0.0333 0.8668057-0.105818-0.028487 0.952864zm1.4660253-0.8986712 0.3462434 1.1658972-0.8997593-0.4005129zm-0.1962239-0.985216 0.5647181 0.4282178-0.3531184 0.4757407zm-0.9721446-0.2179753 0.5241725-0.6004626 0.3873011 0.7510583zm-0.02371-0.027098-0.1834598-0.9813624 0.7070562 0.3816039zm-0.8959321-0.4159146-0.782936-0.5364118 1.4232534-0.043188zm-1.269277 0.176508-0.328256-1.0177344 0.73412 0.2975684zm-0.853594-0.079397-0.380119-0.5153004 0.837463-0.414596zm-0.02639 0.024218-1.164297 0.339407 0.782283-0.857524zm-0.667561 1.3312034-0.829883-0.196467 0.280567-0.7203068zm-0.591488 0.9450418-0.525299-0.229856 0.260825-0.8330583zm-0.292895 0.4593799-0.451864 0.165229 0.201434-0.787431zm0.812702 1.444505-0.994024-0.615979 0.210486-0.771619zm1.012153 0.369583-0.940344 0.149033-0.0041-0.442748zm-0.119673-0.724878 1.1057 0.723149-0.894241-0.01016zm1.399313-0.209474 0.641853 0.568277-0.849791 0.353157zm1.2566673 0.07113 0.3392021 0.940036-0.8894664-0.44143zm0.030248-0.02127 0.7571907-0.320946-0.4171693 1.263453zm0.8337752-1.3406775 0.899593 0.4004365-0.9281041 0.555513zm0.6023958-0.7950605 0.5881595 0.4186288-0.2510314 0.7166072zm-0.00677-0.048438 0.3535281-0.4762784 0.2329798 0.893691zm-0.2358864-0.9920662 0.1641408-0.5089376 0.3909626 0.9298708zm-0.024659-0.039732-0.3740505-0.7253766 0.5385754 0.2152612zm-1.1081072-1.1556685 0.7832055-0.051147-0.098604 0.420626zm-1.5507657 0.013549 0.551441-0.683858 0.883731 0.6401887zm-0.03259-0.016395-0.283921-0.7436073 0.829883 0.06683zm-0.03682 0.00339-0.725313-0.2940093 0.444618-0.4411228zm-1.629502 0.1244479 0.311869-0.8995161 0.529358 0.4830254zm-0.836656 0.8918986 0.228371-0.9346461 0.541955 0.090169zm-0.338933 0.7976339-0.292857-0.459584 0.565909-0.2414422zm-0.01565 0.041799-0.250314 0.7990165-0.03364-1.2446458zm-0.288222 0.9241481-0.204149 0.7979022-0.320498-0.7971213zm-0.532815-0.034754 0.01694-0.7833335 0.505916 0.7824629zm0.807019 0.7352352-0.202894 0.743709-0.247946-0.578852zm0.814161 1.446553-0.616043 0.08726-0.352171-0.687238zm0.03347 0.0312 4e-3 0.436385-0.609706-0.350583zm1.027452 0.325887-0.311869 0.652761-0.649842-0.500091zm0.03635 0.0066 0.824058 0.760673-1.138526-0.102397zm0.04041-0.01118 0.90264 0.01016-0.08234 0.746988zm1.813602-0.35797 0.03445 0.843902-0.884653-0.490784zm0.03584 0.0031 0.8927431 0.443082-0.8583301 0.401217zm1.3845893-0.864872 0.443184 0.692999-0.8609038 0.572079zm0.030858-0.01788 0.8533247 0.125328-0.415313 0.559508zm0.015887-0.03364 0.9127283-0.54636-0.059378 0.67176zm1.2054957-1.3020143 0.1611706 0.5638093-0.4044436 0.13065zm-0.2144418-0.9587917 0.4622597 0.5821295-0.2374863 0.2801314zm-0.4325579-1.060213 0.6003602 0.4396633-0.2063122 0.4970825zm-0.6188298-0.3023348 0.0967741-0.4127012 0.4323786 0.6241984zm-0.7655252-0.4178862-0.1041918-0.6305741 0.9029728 0.5784039zm-0.039631-0.021034-0.8603663-0.6236608 0.7567813-0.00467zm-1.7506133-0.7261576 0.56185-0.344784 0.241033 0.4094878zm-0.539485 0.4681873-0.520011-0.4747293 0.962325 0.036209zm-0.914994 0.4519281-0.539894-0.089999 0.846642-0.7938443zm-0.837974 0.9085674-0.552735-0.4487146 0.784421-0.499387zm-0.02347 0.026793-0.571132 0.2438107 0.02784-0.684703zm-0.571362 1.6238684-0.513137-0.7937418 0.47761-0.5148652zm-0.222303 0.9376284-0.09742 0.485561-0.192191-1.205867zm0.02473 0.05806 0.240495 0.561339-0.343402-0.04813zm0.623929 1.314433-0.362438-0.06975 0.02307-0.592768zm0.684806 0.419845-0.257433 0.247613-0.345936-0.594497zm0.03072 0.01985 0.61845 0.476009-0.875473-0.228883zm2.018057-0.148189 0.883091 0.489695-0.965372 0.259366zm1.8257646 0.09637-0.048336 0.6158-0.7960726-0.220984zm0.8858686-0.582949-0.4901051 0.858433-0.3462179-0.302485zm0.4839727-0.60689 0.00271 0.449522-0.3922428 0.07489zm0.098231-0.765525 0.3988106-0.128716-0.4550135 0.764642zm0.2766693-0.790291 0.2264378-0.2670857-0.0738755 0.8007197zm-0.2540399-0.9842303 0.2032396-0.489593 0.2634242 1.0773172zm-0.4323146-1.037591 0.1428118-0.249367 0.4304839 0.6692249zm-0.024795-0.028386-0.4224567-0.609706 0.5652941 0.3604415zm-1.4174922-1.2893392 0.4276801-0.04566 0.4326603 0.5965962zm-0.8684315-0.025066-0.235617-0.4001676 0.9630034 0.3956611zm-0.895189-0.07872-0.189681-0.3322248 0.743056-0.00738zm-0.03773 0.00583-0.935939-0.035058 0.745643-0.2980805zm-1.891568 0.7719264 0.335131-0.7256198 0.486033-0.044339zm-0.06023 0.045355-0.306338-0.2942525 0.646564-0.442339zm-0.02297 0.027336-0.761697 0.4849201 0.454194-0.7802864zm-0.86107 1.2585365-0.382283-0.2055441 0.409514-0.4642568zm-0.01206 0.033873-0.464295 0.5004368 0.08062-0.7066466zm-0.52462 1.4032815-0.196288 0.1606201 0.211394-0.8516604zm0.0049 0.041968 0.200384 1.2571151-0.41064-1.0848704zm0.620447 1.4971231-0.023 0.590733-0.320843-0.638934zm0.39424 0.756039 0.325887 0.560186-0.670671-0.626644zm1.374732 0.928411-0.01419 0.324505-0.855322-0.551851zm0.03509 0.01385 0.443735 0.207541-0.457817 0.111983zm1.182157 0.103243 0.01379 0.455141-0.645105-0.337537zm1.019565-0.272168-0.26167 0.616107-0.692013-0.359891zm0.04099-0.0053 0.7957389 0.220779-1.0568199 0.394176zm0.9207297-0.41274 0.3371665 0.294688-0.3833707 0.297568zm0.9149047-0.63115 0.3888886-0.07422-0.8518269 0.885254zm0.4577148-0.171771-0.00268-0.43814 0.3585467-0.219089zm0.031502-0.500744 0.4352336-0.731381-0.079804 0.514353zm0.5550009-1.5794439 0.050809 0.537756-0.1149971 0.1588659zm-0.264205-1.3472065 0.09945 0.093251 0.099484 0.7203068zm-0.5040841-0.8215918 0.09359-0.046947 0.2705423 0.6130987zm-0.6544123-0.4291653 0.1642432-0.2351434 0.4020367 0.596161zm-0.025506-0.02571-0.4283843-0.5904639 0.5927683 0.3549492zm-0.9645272-0.6182709-0.00264-0.2567156 0.4124708 0.2130975zm-0.035736-0.00694-0.9427375-0.3873267 0.9400362 0.1237707zm-1.8648115-0.4327243 0.150084-0.1287163 0.497684 0.1223483zm-0.819718 0.3074263 0.291846-0.3143781 0.40356 0.036277zm-0.0754 0.028826-0.441942 0.040309 0.725619-0.3458722zm-1.215354 0.5078878 0.04888-0.109341 0.405595-0.2015753zm-0.532379 0.8572806-0.02947-0.2860205 0.441366-0.4211765zm-0.03065 0.050369-0.365819 0.4147368 0.337064-0.6938824zm-0.545015 1.2962526-0.233723 0.043458 0.308476-0.7004117zm-0.0078 0.037633-0.223557 0.9000667-0.01419-0.8558596zm0.197542 2.2406924-0.265524-0.218513-0.127158-0.819142zm0.372297 0.757114-0.169595-0.05586-0.113439-0.507888zm0.724877 0.698863-0.563399-0.306684-0.09044-0.304008zm0.102769 0.09647 0.243888 0.310986-0.745707-0.584127zm0.09125 0.0586 0.775677 0.500436-0.50758-0.158661zm1.423125 0.445757 0.602934 0.315389-1.047949-0.206619zm0.72338-0.119909 0.674845 0.350954-0.661019 0.104836zm1.7911966-0.01636-0.2739606 0.236334-0.616479 0.09572zm0.5063643-0.354245 0.022796 0.147447-0.3541042 0.109611zm0.9188607-0.948434-0.3642694 0.646961-0.4634503 0.213162zm0.1016172-0.107851 0.2438875-0.450507-0.2608252 0.617938zm0.5155053-1.388303 0.0921-0.127191-0.1480608 0.486751zm0.088577-0.9599434v-0.00109l-0.00132-0.00945 0.00918-0.1205867 0.00935 0.3122657zm-0.02449-0.1775578-0.092133-0.6672916 0.1140831 0.3786594zm-0.2740597-1.0407721-0.1681736-0.3811047 0.2353483 0.4440418zm-0.5070684-0.786931-0.3358479-0.4979274 0.4284483 0.4515952zm-1.1218955-1.0767794 0.022458-0.016225 0.2581751 0.1843303zm-0.033873-0.019443-0.1745748-0.090203 0.1939834 0.076145zm-1.4736955-0.380631 0.327143-0.067238 0.492268 0.1751254zm-0.106733-0.014396-0.445462-0.1094767 0.746923 0.047422zm-0.843863 0.00816-0.34746-0.03123 0.486136-0.08773zm-1.226185 0.3104093 0.198797-0.1490338 0.320472-0.098501zm-0.163168 0.077907-0.172449 0.085697 0.265127-0.1551406zm-0.723379 0.4958918-0.204558 0.1953149 0.233888-0.2608253zm-0.958088 1.3781886-0.09095 0.033873 0.353323-0.5738718zm-0.118553 0.081836 0.09823-0.036345-0.248189 0.5635018zm-0.244387 1.4621729 0.0052 0.3136612-0.01805 0.057007zm0.01694 0.3938048 0.08949 0.5764843-0.123363-0.470352zm0.466831 1.1925143 0.114929 0.514519-0.3666-0.721933zm0.368737 0.735273 0.07977 0.268238-0.237179-0.320062zm1.781979 1.381133 0.0333 0.05308-0.348484-0.151479zm0.08953 0.07567-0.04092-0.06524 0.758471 0.149444zm1.857898 0.06409-0.07953 0.09041-0.416363-0.01159zm0.05525-0.0087 0.49634-0.07706-0.570108 0.160556zm1.146822-0.428487 0.2910647-0.09003-0.5132776 0.281719zm0.466254-0.193074-0.022864-0.147716 0.4253373-0.195609zm0.9213316-1.104241-0.019917 0.19849-0.2797217 0.333709zm0.4606722-0.846335 0.071878-0.03462-0.3289729 0.643991zm0.095724-0.0856-0.080684 0.03885 0.162182-0.533263z" fill="url(#radialGradient1935)"/>
        </g>
        <g stroke-width=".128026">
            <path id="path1895" transform="scale(.26457812)" d="m-20.486328 17.589844c1.732931 3.392651 2.735856 6.797503 3.11914 9.33789 0-0.0073 5.2e-4 0.0047 0.0039 0.02734 0.0015 0.011 0.0041 0.02217 0.0059 0.0332 2.906155 7.869395 1.322574 15.873548-0.958984 20.763672-2.054291 4.403177-5.81938 8.857391-11.234375 11.748047h1.195312c7.203014 0 13.001953-5.798033 13.001953-13v-23.208977c-1.443205-2.514616-3.462325-4.840073-5.132812-5.701172zm-49.869141 28.644531v0.265625c0 7.201967 5.798939 13 13.001953 13h0.791016c-5.859174-2.885114-10.749779-7.545112-13.792969-13.265625z" fill="url(#radialGradient1937)"/>
            <path id="path1897" transform="scale(.26457812)" d="m-20.486328 17.589844c1.732931 3.392651 2.735856 6.797503 3.11914 9.33789 0-0.0073 5.2e-4 0.0047 0.0039 0.02734 0.0015 0.011 0.0041 0.02217 0.0059 0.0332 2.906155 7.869395 1.322574 15.873548-0.958984 20.763672-2.054291 4.403177-5.81938 8.857391-11.234375 11.748047h1.195312c7.203014 0 13.001953-5.798033 13.001953-13v-23.208977c-1.443205-2.514616-3.462325-4.840073-5.132812-5.701172zm-49.869141 28.644531v0.265625c0 7.201967 5.798939 13 13.001953 13h0.791016c-5.859174-2.885114-10.749779-7.545112-13.792969-13.265625z" fill="url(#radialGradient1939)"/>
            <path id="path1899" transform="scale(.26457812)" d="m-61.712891 14.333984c-0.01474-0.06606-0.909907 0.465043-1.027343 0.544922a22.434768 22.434768 0 0 0-3.011719 2.578125 26.933915 26.933915 0 0 0-2.876953 3.445313 25.951632 25.951632 0 0 0-1.726563 2.80664v22.527344c3.043311 5.71882 7.935056 10.379198 13.792969 13.263672h27.011719c5.414893-2.890738 9.180197-7.347105 11.234375-11.75 2.28151-4.890608 3.865284-12.89184 0.958984-20.761719l-2e-3 -2e-3c1.088496 7.122849-2.542002 14.021701-8.212891 18.6875-0.01013 0.02419-0.01563 0.04102-0.01563 0.04102-11.054315 8.99007-21.63372 5.424722-23.77539 3.964844a17.563998 17.563998 0 0 1-0.447266-0.22461c-6.444845-3.076286-9.107606-8.939268-8.537109-13.96875-5.44175 0-7.296875-4.585937-7.296875-4.585937s4.884699-3.479395 11.324219-0.453125c5.963864 2.802845 11.565922 0.453381 11.566406 0.453125-0.01134-0.249908-5.372518-2.378656-7.462891-4.435547-1.116755-1.099093-1.647579-1.629834-2.117187-2.027344a9.1526535 9.1526535 0 0 0-0.796875-0.601562 36.091892 36.091892 0 0 0-0.638672-0.421876c-2.246573-1.458472-6.716179-1.378725-6.863281-1.375h-0.01367c-1.22108-1.544749-1.136038-6.641018-1.066407-7.705078z" fill="url(#radialGradient1941)"/>
        </g>
        <g stroke-width=".0338728">
            <path id="path1901" d="m-8.4519317 6.721744a4.428127 4.428127 0 0 1 0.7565763 0.9860994c0.044882 0.033669 0.086747 0.067237 0.1223483 0.099993 1.847528 1.7004274 0.8795698 4.1053756 0.8073253 4.2766726 1.5009645-1.234967 2.4611517-3.0614598 2.1720713-4.9467552-0.9215748-2.2942075-2.4841961-3.2193158-3.7603488-5.2336603-0.0645271-0.1018554-0.1290235-0.2039822-0.1919606-0.3116256a2.4779229 2.4779229 0 0 1-0.089729-0.1683784 1.4816327 1.4816327 0 0 1-0.1216365-0.3219955 0.02123806 0.02123806 0 0 0-0.018494-0.021847 0.02784287 0.02784287 0 0 0-0.015311 0c-0.00115 4.097e-4 -0.00284 0.00173-0.00406 0.0022-0.0018 7.17e-4 -0.00406 0.00234-0.00596 0.00339-0.315223 0.149994-2.1842336 3.1058853 0.3491625 5.6359143z" fill="url(#linearGradient1943)"/>
            <path id="path1903" d="m-11.587135 5.6057505 1.079007 0.06866 0.6553345 0.2331078 0.5461673 0.2143778 0.6290121 0.4490859 0.5925379 0.6245057 0.2058385 0.3884149c0.027641 0.016936 0.084681 0.053722 0.1331844 0.086646 0.017783 0.012466 0.033873 0.024896 0.050809 0.03726a4.428127 4.428127 0 0 0-0.756576-0.9860992c-2.5336137-2.530029-0.6645519-5.4858691-0.3492649-5.6360423 9.09e-4 -0.00122 0.00281-0.00396 0.00339-0.00461-2.0472478 1.1975966-2.7417828 3.4130172-2.8055388 4.5213292l-3.08e-4 0.0062z" fill="url(#linearGradient1945)"/>
            <path id="path1905" d="m-14.226369 6.1950494a8.2422463 8.2422463 0 0 1 0.168929 0.1117798 3.7668781 3.7668781 0 0 1-0.02286-1.9893797c-0.837194 0.380759-1.488418 0.9826427-1.961726 1.5141511 0.03916-0.00111 1.221306-0.02239 1.815649 0.3634885z" fill="url(#radialGradient1947)"/>
            <path id="path1907" d="m-14.985749 10.476844s0.376329-1.4003371 2.693901-1.4003371c0.25066 0 0.966729-0.69812 0.979929-0.9006683 0 0-1.481889 0.6215611-3.059669-0.1199095-1.703756-0.8007448-2.99604 0.1199095-2.99604 0.1199095s0.491155 1.2129724 1.930745 1.2129724c-0.150737 1.330563 0.553477 2.882226 2.258616 3.696208 0.03828 0.01829 0.07418 0.03794 0.113134 0.05555-0.995855-0.513854-1.81757-1.484578-1.92063-2.663687z" fill="url(#radialGradient1949)"/>
            <path id="path1909" d="m-7.5730404 7.8078821c-0.0356-0.032755-0.077467-0.066322-0.1223483-0.099993-0.016597-0.012431-0.032856-0.024863-0.050809-0.03726-0.4351568-0.3053267-1.2143678-0.6068895-1.9650549-0.4764833 2.9313872 1.4637093 2.1444179 6.5043072-1.9175584 6.3138062a3.6234902 3.6234902 0 0 1-1.060443-0.204251 4.505198 4.505198 0 0 1-0.239381-0.09776c-0.046-0.02097-0.09193-0.0421-0.137358-0.06558 0.0016 0.0012 0.0039 0.0024 0.0055 0.0034 0.566651 0.386149 3.3653918 1.329667 6.2901217-1.048896 0 0 0.00183-0.0042 0.00451-0.0106 0.072385-0.170991 1.0403948-2.5759905-0.8071845-4.2764179z" fill="url(#radialGradient1951)"/>
        </g>
        <path id="path1911" transform="scale(.26457812)" d="m-33.900391 4.5c-7.227448 4.6066361-9.722575 12.631757-9.957031 16.699219l0.0625-0.0098 4.078125 0.257813 2.294922 0.816406 2.246094 0.875 2.376953 1.697266 2.238281 2.359374s0.770266 1.446365 0.78125 1.470704c-1.78523-1.06168-4.380911-1.917073-6.927734-1.47461 11.079477 5.532238 8.106555 24.583299-7.246094 23.863282a13.690512 13.690512 0 0 1-4.009766-0.773438 16.874464 16.874464 0 0 1-0.904297-0.369141c-0.173861-0.07926-0.347831-0.159453-0.519531-0.248047 6e-3 0.0045 0.01348 0.0091 0.01953 0.01367a17.563998 17.563998 0 0 1-0.447265-0.222656c0.144041 0.06875 0.279854 0.143068 0.427734 0.208984-3.761902-1.941774-6.868269-5.611792-7.255859-10.068359 0 0 1.420626-5.291015 10.179687-5.291015 0.947395 0 3.654753-2.638843 3.705079-3.404297-0.01134-0.249908-5.372514-2.380609-7.462891-4.4375-1.116755-1.099093-1.64758-1.627881-2.117188-2.025391a9.1526535 9.1526535 0 0 0-0.796875-0.603516 14.2373 14.2373 0 0 1-0.08594-7.517578c-3.164256 1.439118-5.626616 3.713766-7.416016 5.722656h-0.01367c-1.221079-1.544749-1.135939-6.641018-1.066406-7.705078-0.01474-0.06606-0.909809 0.465043-1.027344 0.544922a22.442994 22.442994 0 0 0-3.011718 2.576172 26.944561 26.944561 0 0 0-2.875 3.445313 0.0331586 0.0331586 0 0 1-2e-3 0.0039 25.953567 25.953567 0 0 0-1.722657 2.798828v22.796917c0 7.201967 5.798939 13 13.001953 13h28.998047c7.203014 0 13.001953-5.798033 13.001953-13v-23.207031c-1.443385-2.516004-3.465165-4.843566-5.136718-5.705078 1.732931 3.392651 2.735808 6.797503 3.11914 9.33789 0 0.0051 0.0018 0.017 0.0059 0.05078-3.482518-8.67119-9.389542-12.167829-14.212891-19.78125-0.243248-0.3850984-0.486636-0.7708852-0.724609-1.1777344a9.3597556 9.3597556 0 0 1-0.339835-0.6367177 5.6019174 5.6019174 0 0 1-0.363281-0.8808594z" fill="url(#linearGradient1953)" stroke-width=".128026"/>
        <g stroke-width=".0338728">
            <path id="path1913" d="m-11.311881 8.1759154s-0.03455 0.014464-0.09823 0.036277c-0.159199 0.2690444-0.725185 0.7824628-0.941662 0.7816051-2.317508-0.010161-2.699662 1.3747325-2.699662 1.3747325a2.9584005 2.9584005 0 0 0 0.453887 1.329923 2.9815731 2.9815731 0 0 1-0.388044-1.221755s0.376189-1.4000812 2.693773-1.4000812c0.25066 0 0.966755-0.6982481 0.980108-0.9007707z" fill="url(#linearGradient1955)"/>
            <path id="path1915" d="m-4.5924915 7.1406417-2.561e-4 -8.066e-4c-3.841e-4 -0.00278-7.681e-4 -0.00532-0.00115-0.00789a0.07167477 0.07167477 0 0 0-0.00115-0.00769 0.19659511 0.19659511 0 0 0 0.00152 0.013549 8.096938 8.096938 0 0 0-0.1750485-0.4030866c-0.02073-0.044509-0.042984-0.086138-0.064358-0.1295997-0.040647-0.083495-0.081295-0.1671621-0.1238718-0.2470369-0.026251-0.049319-0.053857-0.096097-0.080718-0.1440921-0.039395-0.070319-0.078448-0.1410835-0.1190619-0.2088599-0.029775-0.049556-0.06053-0.097011-0.090779-0.1453083-0.039597-0.06307-0.079059-0.1263453-0.1196726-0.1874541-0.032111-0.048404-0.065035-0.095284-0.097756-0.1425302-0.04041-0.058363-0.08082-0.1167921-0.1219413-0.1737043-0.034144-0.046981-0.068829-0.092913-0.1033788-0.1388814a11.826561 11.826561 0 0 0-0.1244159-0.1634387q-0.0538229-0.0688966-0.1083923-0.1366026a16.483212 16.483212 0 0 0-0.1270558-0.1564593q-0.055687-0.067373-0.1120167-0.1342342c-0.020324-0.024185-0.040648-0.049013-0.060971-0.07313 0.00881 0.010466 0.017309 0.021339 0.026048 0.031908-0.7060829-0.8329694-1.4724146-1.6005686-2.156836-2.6809712-0.0646295-0.1018208-0.1291259-0.2039437-0.1919862-0.3116255a2.4410517 2.4410517 0 0 1-0.0897288-0.1683784 1.6631721 1.6631721 0 0 1-0.1121179-0.2856877c-0.00142-0.00525-4e-3 -0.013244-0.00491-0.017241-0.00278-0.010772-0.00451-0.018968-0.00451-0.018968a0.0213392 0.0213392 0 0 0-0.018562-0.021848 0.02869039 0.02869039 0 0 0-0.015276 0c-0.00115 4.097e-4 -0.00288 0.00176-0.00413 0.00227-0.00125 5.121e-4 -4e-3 0.00227-0.00593 0.00318a0.25086489 0.25086489 0 0 0-0.049453 0.036312 0.58488198 0.58488198 0 0 0-0.011787 0.010534 0.84830612 0.84830612 0 0 0-0.064459 0.067983c-8.194e-4 9.09e-4 -0.00146 0.00142-0.00227 0.00234 2.048e-4 -2.049e-4 4.097e-4 -2.049e-4 6.145e-4 -4.097e-4 -0.4882743 0.5739358-1.7351214 3.068374 0.2743575 5.30561-1.8813239-2.2134224-0.6958132-4.6054406-0.1805384-5.2321227a1.8174422 1.8174422 0 0 0 0.1003984 0.246192 2.5168425 2.5168425 0 0 0 0.089729 0.1683784c0.062868 0.1077829 0.1273951 0.2100121 0.1919862 0.3116255 1.2761527 2.0142166 2.8386972 2.9394529 3.7603488 5.23366a0.30894981 0.30894981 0 0 1-0.00152-0.013549 0.05781991 0.05781991 0 0 1 0.00115 0.00769c3.84e-4 0.00257 7.681e-4 0.00515 0.00115 0.00789l3.841e-4 8.45e-4c0.768905 2.0821978 0.3500074 4.1993465-0.2536431 5.4931665a6.752804 6.752804 0 0 1-1.2944602 1.856234 6.7677829 6.7677829 0 0 0 1.3930394-1.954429c0.6036377-1.293948 1.0224841-3.4110969 0.2536047-5.4932947z" fill="url(#linearGradient1957)"/>
            <path id="path1917" d="m-8.8010557 1.0855736c9.09e-4 -0.00122 0.00281-0.00396 0.00339-0.00461-1.8442003 1.0788022-2.5905853 2.9833654-2.7671313 4.1608109 0.202829-1.0878537 0.900131-2.7495919 2.462816-3.7986283 0.1286139-0.2030988 0.2419544-0.3293442 0.3008843-0.3575609z" fill="url(#linearGradient1959)"/>
            <path id="path1919" d="m-6.7701959 12.095079s0.00183-0.0042 0.00451-0.0106c0.07225-0.17122 1.0402667-2.5762456-0.8073254-4.276673-0.0356-0.032755-0.077467-0.066322-0.1223483-0.099993-0.016597-0.012431-0.032856-0.024862-0.050809-0.03726-0.4205286-0.2950611-1.162382-0.5865355-1.8892692-0.4881099l-0.00176 2.048e-4q-0.037022 0.00508-0.074046 0.011415c2.8983569 1.4471941 2.1615733 6.3908771-1.7814662 6.3181591 0.0107 5.12e-4 0.02144 0.0014 0.03211 0.0018 3.9973233 0.156421 4.7848048-4.7451166 2.0076876-6.2819281 0.6018452-0.00589 1.1839875 0.2138657 1.5434687 0.4456933 0.018258 0.011754 0.035024 0.023508 0.052063 0.035295 0.046168 0.031874 0.089322 0.063782 0.126175 0.095148 1.9129488 1.626813 1.0397546 4.0677368 0.9742826 4.2418508a2.4484772 2.4484772 0 0 1-0.00406 0.01077" fill="url(#linearGradient1961)"/>
            <path id="path1921" d="m-14.349913 8.1372263c1.333892 0.5778662 2.571893 0.2106906 2.946878 0.072488-0.345501 0.1192322-1.622204 0.4789541-2.968642-0.1537836-1.531691-0.7197947-2.730773-0.048776-2.957761 0.094166l-0.01084 0.00678-0.0088 0.00576-0.0068 0.0044-0.0044 0.00271-3e-3 0.00203 0.0041 0.00881 0.0047 0.010501v0.00203l0.0071 0.015243c0.01152 0.024389 0.02913 0.059277 0.05352 0.1016173 0.180873 0.3201007 0.725888 1.0713896 1.859306 1.0713896-0.146333 1.2908754 0.512151 2.7894074 2.108187 3.6209294-1.524265-0.880684-2.167847-2.472674-1.988356-3.7425532-1.177407-0.031163-1.70414-0.7370652-1.854569-1.0361571 0.428154-0.2269498 1.515175-0.6513653 2.819237-0.086375z" fill="url(#linearGradient1963)"/>
            <path id="path1923" d="m-14.058656 6.3022063q-0.01924-0.011279-0.03983-0.023169 0.02127 0.014226 0.04109 0.027707c-4.35e-4 -0.00152-9.09e-4 -0.00301-0.0013-0.00454zm-0.0084-0.029876a3.7717431 3.7717431 0 0 1-0.01324-1.954941c-0.793639 0.3609407-1.419797 0.920525-1.886192 1.4305508 0.444068-0.4325579 1.019322-0.8967124 1.720016-1.2147392-0.04336 0.3326601-0.08072 1.013676 0.179427 1.7390909z" fill="url(#linearGradient1965)"/>
        </g>
        <g stroke-width=".128026">
            <path id="path1925" transform="scale(.26457812)" d="m-69.837891 50.125c0.65474 2.272446 1.911283 4.27935 3.585938 5.851562-1.400452-1.799479-2.600042-3.76367-3.585938-5.851562z" fill="url(#linearGradient1967)"/>
            <path id="path1927" transform="scale(.26457812)" d="m-61.722656 14.330078c-0.0023 0-0.0067 0.0016-0.0098 2e-3a0.13084207 0.13084207 0 0 0-0.01953 0.0039c-0.0049 0.0014-0.01153 0.0038-0.01758 0.0059a0.54601396 0.54601396 0 0 0-0.04883 0.02148l-0.0293 0.01172a2.1245866 2.1245866 0 0 0-0.06445 0.03125l-0.03711 0.01953-0.0332 0.01758-0.04492 0.02344-0.02539 0.01367c-0.271527 0.146074-0.615772 0.352891-0.685547 0.40039a22.434768 22.434768 0 0 0-3.011719 2.576172 26.933915 26.933915 0 0 0-2.876953 3.445313c0 0.0015-0.0015 0.0024-2e-3 0.0039a25.951632 25.951632 0 0 0-1.726563 2.806641v1.109375a25.950664 25.950664 0 0 1 2.22461-3.796875 26.944561 26.944561 0 0 1 2.876953-3.445313 22.4338 22.4338 0 0 1 3.009765-2.576172 3.7392086 3.7392086 0 0 1 0.128907-0.08008c-0.01058 2.340302 0.122818 6.289113 1.207031 7.583984h0.01367c0.1485-0.0077 4.631982-0.205572 6.925781 1.19336a34.986702 34.986702 0 0 1 0.652344 0.404297 9.1981387 9.1981387 0 0 1 0.816406 0.580078c0.481884 0.385098 1.027832 0.901321 2.177734 1.970703 1.664318 1.547943 5.295983 3.088553 6.863282 3.822266-1.527383-0.769308-5.131964-2.414002-6.757813-4.013672-1.116751-1.099093-1.647579-1.627881-2.117187-2.025391a9.1526535 9.1526535 0 0 0-0.796875-0.601562 36.091892 36.091892 0 0 0-0.638672-0.423829c-2.246577-1.458472-6.71423-1.376917-6.861328-1.373046h-0.01563c-1.116124-1.411875-1.139274-5.788549-1.082032-7.34375 0.0023-0.05992 0.0036-0.114806 0.0059-0.166016l0.0039-0.05664a15.336199 15.336199 0 0 1 2e-3 -0.04492c0.0019-0.03353 0.0039-0.06572 0.0059-0.09375-9.18e-4 -4e-3 -0.0049-6e-3 -0.01172-0.0059zm-8.632813 31.013672v0.873047c3.045207 5.7297 7.941425 10.39693 13.810547 13.283203h0.238281c-6.090386-3.063311-11.098127-8.05718-14.048828-14.15625z" fill="url(#linearGradient1969)"/>
            <path id="path1929" transform="scale(.26457812)" d="m-20.486328 17.589844c0.08322 0.162848 0.162173 0.325449 0.242187 0.488281a50.556133 50.556133 0 0 1 0.148438 0.304687c1.493796 3.125742 2.375184 6.202443 2.728515 8.544922 0 0.0028 0.0027 0.01813 0.0039 0.02734 0.0015 0.011 0.0041 0.02217 0.0059 0.0332l-2e-3 -2e-3c1.088496 7.122849-2.540049 14.02365-8.210937 18.689453-0.01013 0.02419-0.01758 0.03906-0.01758 0.03906-7.051632 5.73547-13.908 6.359561-18.505859 5.68164 4.581505 0.855702 11.80739 0.496207 19.25-5.55664l0.01758-0.04102c5.673048-4.667684 9.301593-11.571599 8.208984-18.697266a1.6070734 1.6070734 0 0 1-0.0059-0.05078c-0.313787-2.079391-1.045179-4.737312-2.25-7.49414a20.356005 20.356005 0 0 1 3.369141 4.798828c0.05382 0.109747 0.09803 0.22699 0.15039 0.33789v-1.417968c-1.225936-2.132064-2.869327-4.124909-4.359375-5.203125l-0.05469-0.03906c-0.06119-0.04336-0.122911-0.08454-0.183594-0.125-0.02303-0.01537-0.0453-0.02991-0.06836-0.04492-0.05761-0.03713-0.115035-0.07336-0.171875-0.107422-0.02203-0.01281-0.04439-0.02625-0.06641-0.03906a5.443204 5.443204 0 0 0-0.228516-0.126953zm3.236328 35.662109c-0.180086 0.281878-0.36158 0.562222-0.550781 0.837891 0.195061-0.271285 0.376712-0.551389 0.550781-0.837891z" fill="url(#linearGradient1971)"/>
        </g>
    </g>
</svg>
