<svg id="svg164" width="64" height="64" version="1.1" viewBox="0 0 16.933 16.933" xmlns="http://www.w3.org/2000/svg" xmlns:xlink="http://www.w3.org/1999/xlink">
    <defs id="defs144">
        <linearGradient id="l-3" x1="442.08" x2="102.64" y1="74.772" y2="414.21" gradientTransform="matrix(.12701575 0 0 .12701575 -105.42195 4.2904756)" gradientUnits="userSpaceOnUse">
            <stop id="stop4-5" stop-color="#54ffbd" stop-opacity=".8" offset=".167"/>
            <stop id="stop6-6" stop-color="#43f8ca" stop-opacity=".639" offset=".236"/>
            <stop id="stop8-2" stop-color="#27ede1" stop-opacity=".368" offset=".361"/>
            <stop id="stop10-9" stop-color="#12e4f1" stop-opacity=".169" offset=".466"/>
            <stop id="stop12-1" stop-color="#05dffb" stop-opacity=".046" offset=".545"/>
            <stop id="stop14-2" stop-color="#0df" stop-opacity="0" offset=".589"/>
        </linearGradient>
        <radialGradient id="k-7" cx="-9238.9" cy="-9803.9" r="80.686" gradientTransform="matrix(.20838058 0 0 .20835518 1909.2363 2047.9353)" gradientUnits="userSpaceOnUse">
            <stop id="stop17-0" stop-color="#54ffbd" offset=".094"/>
            <stop id="stop19-9" stop-color="#41f7cc" offset=".242"/>
            <stop id="stop21-3" stop-color="#0fe3f3" offset=".543"/>
            <stop id="stop23-6" stop-color="#0df" offset=".626"/>
        </radialGradient>
        <radialGradient id="j-0" cx="-9258.4" cy="-9808.2" r="73.72" gradientTransform="matrix(.20838058 0 0 .20835518 1909.2363 2047.9353)" gradientUnits="userSpaceOnUse">
            <stop id="stop26-62" stop-color="#3fe1b0" offset=".137"/>
            <stop id="stop28-6" stop-color="#0df" offset=".435"/>
            <stop id="stop30-1" stop-color="#1ec1ff" offset=".484"/>
            <stop id="stop32-8" stop-color="#7077ff" offset=".622"/>
            <stop id="stop34-7" stop-color="#9059ff" offset=".685"/>
        </radialGradient>
        <radialGradient id="i-9" cx="-9247.2" cy="-9822.9" r="86.499" gradientTransform="matrix(.02180972 .20721204 -.13596941 .01431584 -1151.6694 2058.0965)" gradientUnits="userSpaceOnUse">
            <stop id="stop37-2" stop-color="#54ffbd" offset="0"/>
            <stop id="stop39-0" stop-color="#4cf3b8" offset=".095"/>
            <stop id="stop41-23" stop-color="#3fe1b0" offset=".197"/>
            <stop id="stop43-7" stop-color="#33d8bd" offset=".257"/>
            <stop id="stop45-5" stop-color="#12c0e1" offset=".369"/>
            <stop id="stop47-9" stop-color="#00b3f4" offset=".423"/>
            <stop id="stop49-2" stop-color="#0060df" offset=".737"/>
        </radialGradient>
        <radialGradient id="h-2" cx="-9236" cy="-9836" r="118.08" gradientTransform="matrix(.78759565 0 0 .78749965 7216.1533 7740.3803)" gradientUnits="userSpaceOnUse">
            <stop id="stop52-8" stop-color="#3fe1b0" offset=".126"/>
            <stop id="stop54-9" stop-color="#0df" offset=".429"/>
            <stop id="stop56-7" stop-color="#1ec1ff" offset=".479"/>
            <stop id="stop58-3" stop-color="#7077ff" offset=".624"/>
            <stop id="stop60-6" stop-color="#9059ff" offset=".69"/>
            <stop id="stop62-1" stop-color="#b833e1" offset=".904"/>
        </radialGradient>
        <radialGradient id="g-2" cx="-9257.7" cy="-9818.4" r="27.676" gradientTransform="matrix(.20838058 0 0 .20835518 1909.2363 2047.9353)" gradientUnits="userSpaceOnUse">
            <stop id="stop65-9" stop-color="#0df" offset="0"/>
            <stop id="stop67-3" stop-color="#00d6fd" offset=".235"/>
            <stop id="stop69-1" stop-color="#00c3f8" offset=".572"/>
            <stop id="stop71-9" stop-color="#00b3f4" offset=".792"/>
        </radialGradient>
        <radialGradient id="f-4" cx="-9255.6" cy="-9791.5" r="20.397" gradientTransform="matrix(.2025379 -.04899598 .05739802 .23722565 2417.1687 1876.9733)" gradientUnits="userSpaceOnUse">
            <stop id="stop74-7" stop-color="#45278d" stop-opacity="0" offset=".206"/>
            <stop id="stop76-8" stop-color="#44268a" stop-opacity=".055" offset=".251"/>
            <stop id="stop78-4" stop-color="#371f6f" stop-opacity=".591" offset=".725"/>
            <stop id="stop80-5" stop-color="#321c64" stop-opacity=".8" offset=".956"/>
        </radialGradient>
        <radialGradient id="e-0" cx="-9265.6" cy="-9761" r="38.471" gradientTransform="matrix(.20838058 0 0 .20835518 1909.2363 2047.9353)" gradientUnits="userSpaceOnUse">
            <stop id="stop83-3" stop-color="#0060df" offset=".287"/>
            <stop id="stop85-6" stop-color="#2357e1" offset=".417"/>
            <stop id="stop87-1" stop-color="#4f4ce3" offset=".604"/>
            <stop id="stop89-0" stop-color="#6b45e4" offset=".748"/>
            <stop id="stop91-6" stop-color="#7542e5" offset=".833"/>
        </radialGradient>
        <radialGradient id="d-3" cx="-9247" cy="-9833.5" r="58.534" gradientTransform="matrix(.20838058 0 0 .20835518 1909.2363 2047.9353)" gradientUnits="userSpaceOnUse">
            <stop id="stop94-2" stop-color="#3fe1b0" offset=".132"/>
            <stop id="stop96-0" stop-color="#28d0c8" offset=".289"/>
            <stop id="stop98-6" stop-color="#00b3f4" offset=".526"/>
        </radialGradient>
        <radialGradient id="c-1" cx="-9256.7" cy="-9782.1" r="80.797" gradientTransform="matrix(.78759565 0 0 .78749965 7216.1533 7740.3803)" gradientUnits="userSpaceOnUse">
            <stop id="stop101-5" stop-color="#45278d" offset=".3"/>
            <stop id="stop103-5" stop-color="#562896" stop-opacity=".787" offset=".341"/>
            <stop id="stop105-4" stop-color="#782aa9" stop-opacity=".364" offset=".43"/>
            <stop id="stop107-7" stop-color="#8d2bb5" stop-opacity=".1" offset=".495"/>
            <stop id="stop109-6" stop-color="#952bb9" stop-opacity="0" offset=".53"/>
        </radialGradient>
        <radialGradient id="b-5" cx="-9227.2" cy="-9815.1" r="80.797" gradientTransform="matrix(.78759565 0 0 .78749965 7216.1533 7740.3803)" gradientUnits="userSpaceOnUse">
            <stop id="stop112-6" stop-color="#3fe1b0" offset=".108"/>
            <stop id="stop114-9" stop-color="#3bdcb3" offset=".122"/>
            <stop id="stop116-3" stop-color="#1bb3d3" offset=".254"/>
            <stop id="stop118-7" stop-color="#0799e6" offset=".358"/>
            <stop id="stop120-4" stop-color="#0090ed" offset=".42"/>
            <stop id="stop122-5" stop-color="#2482f1" offset=".487"/>
            <stop id="stop124-2" stop-color="#7165fb" offset=".64"/>
            <stop id="stop126-5" stop-color="#9059ff" offset=".71"/>
            <stop id="stop128-4" stop-color="#7d49ed" offset=".795"/>
            <stop id="stop130-7" stop-color="#7542e5" offset=".86"/>
        </radialGradient>
        <linearGradient id="a-4" x1="471.8" x2="55.983" y1="127.35" y2="389.28" gradientTransform="matrix(.12701575 0 0 .12701575 -105.42195 4.2904756)" gradientUnits="userSpaceOnUse">
            <stop id="stop133-4" stop-color="#3fe1b0" offset="0"/>
            <stop id="stop135-3" stop-color="#00b3f4" offset=".406"/>
            <stop id="stop137-0" stop-color="#03b0f4" offset=".421"/>
            <stop id="stop139-7" stop-color="#5561e9" offset=".818"/>
            <stop id="stop141-8" stop-color="#7542e5" offset="1"/>
        </linearGradient>
        <filter id="filter861" x="-.027" y="-.027" width="1.054" height="1.054" color-interpolation-filters="sRGB">
            <feGaussianBlur id="feGaussianBlur1246" stdDeviation="0.16371"/>
        </filter>
        <style id="style1249" type="text/css"/>
        <style id="style1251" type="text/css"/>
        <style id="style1253" type="text/css"/>
        <style id="style1255" type="text/css"/>
        <style id="style1257" type="text/css"/>
        <style id="style1259" type="text/css"/>
        <style id="style1261" type="text/css"/>
        <linearGradient id="linearGradient1584" x1="30.901" x2="30.901" y1="1.2898" y2="15.843" gradientTransform="translate(-50.377031 -.13239)" gradientUnits="userSpaceOnUse">
            <stop id="stop1263" stop-color="#7364e9" offset="0"/>
            <stop id="stop1265" stop-color="#6496ff" offset="1"/>
        </linearGradient>
    </defs>
    <circle id="circle146" cx="296.65" cy="5.7567" r="0" enable-background="new" fill="#d5d3cf" stroke-width=".87152"/>
    <circle id="circle148" cx="-15.774" cy="13.461" r="0" enable-background="new" fill="#d5d3cf" stroke-width=".87152"/>
    <style id="style1405" type="text/css">.st0{opacity:0.15;fill:#45413C;}
	.st1{fill:#FFE500;}
	.st2{fill:#EBCB00;}
	.st3{fill:none;stroke:#45413C;stroke-linecap:round;stroke-linejoin:round;stroke-miterlimit:10;}
	.st4{fill:#FFAA54;}
	.st5{fill:#FF8A14;}
	.st6{fill:#FFB0CA;stroke:#45413C;stroke-linecap:round;stroke-linejoin:round;stroke-miterlimit:10;}
	.st7{fill:#FF87AF;stroke:#45413C;stroke-linecap:round;stroke-linejoin:round;stroke-miterlimit:10;}
	.st8{fill:#FFCC99;}
	.st9{fill:#FFFFFF;}
	.st10{fill:#F0F0F0;}
	.st11{fill:#BF8256;}
	.st12{fill:#915E3A;}
	.st13{fill:#DEA47A;}
	.st14{fill:#F0D5A8;}
	.st15{fill:#DEBB7E;}
	.st16{fill:#F7E5C6;}
	.st17{fill:#FF8A14;stroke:#45413C;stroke-linecap:round;stroke-linejoin:round;stroke-miterlimit:10;}
	.st18{fill:#FFF5E3;}
	.st19{fill:#FFF48C;}
	.st20{fill:#FFFACF;}
	.st21{fill:#FFFCE5;}
	.st22{fill:#FF87AF;}
	.st23{fill:#FFB0CA;}
	.st24{fill:#FFE500;stroke:#45413C;stroke-linecap:round;stroke-linejoin:round;stroke-miterlimit:10;}
	.st25{fill:#9CEB60;stroke:#45413C;stroke-linecap:round;stroke-linejoin:round;stroke-miterlimit:10;}
	.st26{fill:#FFFACF;stroke:#45413C;stroke-linecap:round;stroke-linejoin:round;stroke-miterlimit:10;}
	.st27{fill:#00F5BC;stroke:#45413C;stroke-linecap:round;stroke-linejoin:round;stroke-miterlimit:10;}
	.st28{fill:#BF8256;stroke:#45413C;stroke-linecap:round;stroke-linejoin:round;stroke-miterlimit:10;}
	.st29{fill:#FFE3CF;stroke:#45413C;stroke-linecap:round;stroke-linejoin:round;stroke-miterlimit:10;}
	.st30{fill:#FF6242;}
	.st31{fill:#FF866E;}
	.st32{fill:none;stroke:#E04122;stroke-linecap:round;stroke-linejoin:round;stroke-miterlimit:10;}
	.st33{fill:#FFFEF2;stroke:#45413C;stroke-linecap:round;stroke-linejoin:round;stroke-miterlimit:10;}
	.st34{fill:#FF6242;stroke:#45413C;stroke-linecap:round;stroke-linejoin:round;stroke-miterlimit:10;}
	.st35{fill:#FFA694;}
	.st36{fill:#FFFFFF;stroke:#45413C;stroke-linecap:round;stroke-linejoin:round;stroke-miterlimit:10;}
	.st37{fill:#FFFEF2;}
	.st38{fill:#FF6196;}
	.st39{fill:#B89558;}
	.st40{fill:none;stroke:#915E3A;stroke-linecap:round;stroke-linejoin:round;stroke-miterlimit:10;}
	.st41{fill:#DEBB7E;stroke:#45413C;stroke-linecap:round;stroke-linejoin:round;stroke-miterlimit:10;}
	.st42{fill:#6DD627;stroke:#45413C;stroke-linecap:round;stroke-linejoin:round;stroke-miterlimit:10;}
	.st43{fill:#E5F8FF;}
	.st44{fill:#E8F4FA;}
	.st45{fill:#E8F4FA;stroke:#45413C;stroke-linecap:round;stroke-linejoin:round;stroke-miterlimit:10;}
	.st46{fill:#FFCCDD;}
	.st47{fill:#E5F8FF;stroke:#45413C;stroke-linecap:round;stroke-linejoin:round;stroke-miterlimit:10;}
	.st48{fill:#00B8F0;stroke:#45413C;stroke-linecap:round;stroke-linejoin:round;stroke-miterlimit:10;}
	.st49{fill:#00B8F0;}
	.st50{fill:#4ACFFF;}
	.st51{fill:#E04122;}
	.st52{fill:#E04122;stroke:#45413C;stroke-linecap:round;stroke-linejoin:round;stroke-miterlimit:10;}
	.st53{fill:#87898C;}
	.st54{fill:#BDBEC0;}
	.st55{fill:#656769;}
	.st56{fill:#525252;}
	.st57{fill:#FFF48C;stroke:#45413C;stroke-linecap:round;stroke-linejoin:round;stroke-miterlimit:10;}
	.st58{fill:#6DD627;}
	.st59{fill:#EB6D00;}
	.st60{fill:#46B000;}
	.st61{fill:#80DDFF;}
	.st62{fill:#DAEDF7;}
	.st63{fill:#BF8DF2;stroke:#45413C;stroke-linecap:round;stroke-linejoin:round;stroke-miterlimit:10;}
	.st64{fill:#9F5AE5;stroke:#45413C;stroke-linecap:round;stroke-linejoin:round;stroke-miterlimit:10;}
	.st65{fill:#C8FFA1;}
	.st66{fill:#E4FFD1;}
	.st67{fill:#9CEB60;}
	.st68{fill:#E5FEFF;}
	.st69{fill:#B8ECFF;}
	.st70{fill:#E0E0E0;stroke:#45413C;stroke-linecap:round;stroke-linejoin:round;stroke-miterlimit:10;}
	.st71{fill:#E0E0E0;}
	.st72{fill:none;stroke:#4F4B45;stroke-linejoin:round;stroke-miterlimit:10;}
	.st73{fill:none;stroke:#4F4B45;stroke-linecap:round;stroke-linejoin:round;stroke-miterlimit:10;}
	.st74{fill:#E0366F;stroke:#45413C;stroke-linecap:round;stroke-linejoin:round;stroke-miterlimit:10;}
	.st75{fill:none;stroke:#45413C;stroke-miterlimit:10;}
	.st76{fill:#FF866E;stroke:#45413C;stroke-linecap:round;stroke-linejoin:round;stroke-miterlimit:10;}
	.st77{fill:#45413C;stroke:#45413C;stroke-linecap:round;stroke-linejoin:round;stroke-miterlimit:10;}
	.st78{fill:#9F5AE5;}
	.st79{fill:#803EC2;}
	.st80{fill:#803EC2;stroke:#45413C;stroke-linecap:round;stroke-linejoin:round;stroke-miterlimit:10;}
	.st81{fill:#BF8DF2;}
	.st82{fill:#FFAA54;stroke:#45413C;stroke-linecap:round;stroke-linejoin:round;stroke-miterlimit:10;}
	.st83{fill:none;stroke:#45413C;stroke-linejoin:round;stroke-miterlimit:10;}
	.st84{fill:#FFCCDD;stroke:#45413C;stroke-linecap:round;stroke-linejoin:round;stroke-miterlimit:10;}
	.st85{fill:#FF6196;stroke:#45413C;stroke-linecap:round;stroke-linejoin:round;stroke-miterlimit:10;}
	.st86{fill:#FFE5EE;}
	.st87{fill:#F7E5C6;stroke:#45413C;stroke-linecap:round;stroke-linejoin:round;stroke-miterlimit:10;}
	.st88{fill:#E5FFF9;}
	.st89{fill:none;stroke:#45413C;stroke-width:1.0064;stroke-linecap:round;stroke-linejoin:round;stroke-miterlimit:10;}
	.st90{fill:#4AEFF7;}
	.st91{fill:#A6FBFF;}
	.st92{fill:#E5FEFF;stroke:#45413C;stroke-linecap:round;stroke-linejoin:round;stroke-miterlimit:10;}
	.st93{fill:#46B000;stroke:#45413C;stroke-linecap:round;stroke-linejoin:round;stroke-miterlimit:10;}
	.st94{fill:#FFFFFF;stroke:#45413C;stroke-linejoin:round;stroke-miterlimit:10;}
	.st95{fill:#FFFFFF;stroke:#45413C;stroke-miterlimit:10;}
	.st96{fill:#009FD9;}
	.st97{fill:#00DFEB;}
	.st98{fill:#C0DCEB;stroke:#45413C;stroke-linecap:round;stroke-linejoin:round;stroke-miterlimit:10;}
	.st99{fill:#00DFEB;stroke:#45413C;stroke-linecap:round;stroke-linejoin:round;stroke-miterlimit:10;}
	.st100{fill:#FFE5EE;stroke:#45413C;stroke-linecap:round;stroke-linejoin:round;stroke-miterlimit:10;}
	.st101{fill:#8CA4B8;}
	.st102{fill:#ADC4D9;}
	.st103{fill:#656769;stroke:#45413C;stroke-linecap:round;stroke-linejoin:round;stroke-miterlimit:10;}
	.st104{fill:#F0F0F0;stroke:#45413C;stroke-linecap:round;stroke-linejoin:round;stroke-miterlimit:10;}
	.st105{fill:#C0DCEB;}
	.st106{fill:#45413C;}
	.st107{fill:#FFCABF;}
	.st108{fill:#87898C;stroke:#45413C;stroke-linecap:round;stroke-linejoin:round;stroke-miterlimit:10;}
	.st109{fill:#EBCB00;stroke:#45413C;stroke-linecap:round;stroke-linejoin:round;stroke-miterlimit:10;}</style>
    <style id="style1407" type="text/css">.st0{opacity:0.15;fill:#45413C;}
	.st1{fill:#FFE500;}
	.st2{fill:#EBCB00;}
	.st3{fill:none;stroke:#45413C;stroke-linecap:round;stroke-linejoin:round;stroke-miterlimit:10;}
	.st4{fill:#FFAA54;}
	.st5{fill:#FF8A14;}
	.st6{fill:#FFB0CA;stroke:#45413C;stroke-linecap:round;stroke-linejoin:round;stroke-miterlimit:10;}
	.st7{fill:#FF87AF;stroke:#45413C;stroke-linecap:round;stroke-linejoin:round;stroke-miterlimit:10;}
	.st8{fill:#FFCC99;}
	.st9{fill:#FFFFFF;}
	.st10{fill:#F0F0F0;}
	.st11{fill:#BF8256;}
	.st12{fill:#915E3A;}
	.st13{fill:#DEA47A;}
	.st14{fill:#F0D5A8;}
	.st15{fill:#DEBB7E;}
	.st16{fill:#F7E5C6;}
	.st17{fill:#FF8A14;stroke:#45413C;stroke-linecap:round;stroke-linejoin:round;stroke-miterlimit:10;}
	.st18{fill:#FFF5E3;}
	.st19{fill:#FFF48C;}
	.st20{fill:#FFFACF;}
	.st21{fill:#FFFCE5;}
	.st22{fill:#FF87AF;}
	.st23{fill:#FFB0CA;}
	.st24{fill:#FFE500;stroke:#45413C;stroke-linecap:round;stroke-linejoin:round;stroke-miterlimit:10;}
	.st25{fill:#9CEB60;stroke:#45413C;stroke-linecap:round;stroke-linejoin:round;stroke-miterlimit:10;}
	.st26{fill:#FFFACF;stroke:#45413C;stroke-linecap:round;stroke-linejoin:round;stroke-miterlimit:10;}
	.st27{fill:#00F5BC;stroke:#45413C;stroke-linecap:round;stroke-linejoin:round;stroke-miterlimit:10;}
	.st28{fill:#BF8256;stroke:#45413C;stroke-linecap:round;stroke-linejoin:round;stroke-miterlimit:10;}
	.st29{fill:#FFE3CF;stroke:#45413C;stroke-linecap:round;stroke-linejoin:round;stroke-miterlimit:10;}
	.st30{fill:#FF6242;}
	.st31{fill:#FF866E;}
	.st32{fill:none;stroke:#E04122;stroke-linecap:round;stroke-linejoin:round;stroke-miterlimit:10;}
	.st33{fill:#FFFEF2;stroke:#45413C;stroke-linecap:round;stroke-linejoin:round;stroke-miterlimit:10;}
	.st34{fill:#FF6242;stroke:#45413C;stroke-linecap:round;stroke-linejoin:round;stroke-miterlimit:10;}
	.st35{fill:#FFA694;}
	.st36{fill:#FFFFFF;stroke:#45413C;stroke-linecap:round;stroke-linejoin:round;stroke-miterlimit:10;}
	.st37{fill:#FFFEF2;}
	.st38{fill:#FF6196;}
	.st39{fill:#B89558;}
	.st40{fill:none;stroke:#915E3A;stroke-linecap:round;stroke-linejoin:round;stroke-miterlimit:10;}
	.st41{fill:#DEBB7E;stroke:#45413C;stroke-linecap:round;stroke-linejoin:round;stroke-miterlimit:10;}
	.st42{fill:#6DD627;stroke:#45413C;stroke-linecap:round;stroke-linejoin:round;stroke-miterlimit:10;}
	.st43{fill:#E5F8FF;}
	.st44{fill:#E8F4FA;}
	.st45{fill:#E8F4FA;stroke:#45413C;stroke-linecap:round;stroke-linejoin:round;stroke-miterlimit:10;}
	.st46{fill:#FFCCDD;}
	.st47{fill:#E5F8FF;stroke:#45413C;stroke-linecap:round;stroke-linejoin:round;stroke-miterlimit:10;}
	.st48{fill:#00B8F0;stroke:#45413C;stroke-linecap:round;stroke-linejoin:round;stroke-miterlimit:10;}
	.st49{fill:#00B8F0;}
	.st50{fill:#4ACFFF;}
	.st51{fill:#E04122;}
	.st52{fill:#E04122;stroke:#45413C;stroke-linecap:round;stroke-linejoin:round;stroke-miterlimit:10;}
	.st53{fill:#87898C;}
	.st54{fill:#BDBEC0;}
	.st55{fill:#656769;}
	.st56{fill:#525252;}
	.st57{fill:#FFF48C;stroke:#45413C;stroke-linecap:round;stroke-linejoin:round;stroke-miterlimit:10;}
	.st58{fill:#6DD627;}
	.st59{fill:#EB6D00;}
	.st60{fill:#46B000;}
	.st61{fill:#80DDFF;}
	.st62{fill:#DAEDF7;}
	.st63{fill:#BF8DF2;stroke:#45413C;stroke-linecap:round;stroke-linejoin:round;stroke-miterlimit:10;}
	.st64{fill:#9F5AE5;stroke:#45413C;stroke-linecap:round;stroke-linejoin:round;stroke-miterlimit:10;}
	.st65{fill:#C8FFA1;}
	.st66{fill:#E4FFD1;}
	.st67{fill:#9CEB60;}
	.st68{fill:#E5FEFF;}
	.st69{fill:#B8ECFF;}
	.st70{fill:#E0E0E0;stroke:#45413C;stroke-linecap:round;stroke-linejoin:round;stroke-miterlimit:10;}
	.st71{fill:#E0E0E0;}
	.st72{fill:none;stroke:#4F4B45;stroke-linejoin:round;stroke-miterlimit:10;}
	.st73{fill:none;stroke:#4F4B45;stroke-linecap:round;stroke-linejoin:round;stroke-miterlimit:10;}
	.st74{fill:#E0366F;stroke:#45413C;stroke-linecap:round;stroke-linejoin:round;stroke-miterlimit:10;}
	.st75{fill:none;stroke:#45413C;stroke-miterlimit:10;}
	.st76{fill:#FF866E;stroke:#45413C;stroke-linecap:round;stroke-linejoin:round;stroke-miterlimit:10;}
	.st77{fill:#45413C;stroke:#45413C;stroke-linecap:round;stroke-linejoin:round;stroke-miterlimit:10;}
	.st78{fill:#9F5AE5;}
	.st79{fill:#803EC2;}
	.st80{fill:#803EC2;stroke:#45413C;stroke-linecap:round;stroke-linejoin:round;stroke-miterlimit:10;}
	.st81{fill:#BF8DF2;}
	.st82{fill:#FFAA54;stroke:#45413C;stroke-linecap:round;stroke-linejoin:round;stroke-miterlimit:10;}
	.st83{fill:none;stroke:#45413C;stroke-linejoin:round;stroke-miterlimit:10;}
	.st84{fill:#FFCCDD;stroke:#45413C;stroke-linecap:round;stroke-linejoin:round;stroke-miterlimit:10;}
	.st85{fill:#FF6196;stroke:#45413C;stroke-linecap:round;stroke-linejoin:round;stroke-miterlimit:10;}
	.st86{fill:#FFE5EE;}
	.st87{fill:#F7E5C6;stroke:#45413C;stroke-linecap:round;stroke-linejoin:round;stroke-miterlimit:10;}
	.st88{fill:#E5FFF9;}
	.st89{fill:none;stroke:#45413C;stroke-width:1.0064;stroke-linecap:round;stroke-linejoin:round;stroke-miterlimit:10;}
	.st90{fill:#4AEFF7;}
	.st91{fill:#A6FBFF;}
	.st92{fill:#E5FEFF;stroke:#45413C;stroke-linecap:round;stroke-linejoin:round;stroke-miterlimit:10;}
	.st93{fill:#46B000;stroke:#45413C;stroke-linecap:round;stroke-linejoin:round;stroke-miterlimit:10;}
	.st94{fill:#FFFFFF;stroke:#45413C;stroke-linejoin:round;stroke-miterlimit:10;}
	.st95{fill:#FFFFFF;stroke:#45413C;stroke-miterlimit:10;}
	.st96{fill:#009FD9;}
	.st97{fill:#00DFEB;}
	.st98{fill:#C0DCEB;stroke:#45413C;stroke-linecap:round;stroke-linejoin:round;stroke-miterlimit:10;}
	.st99{fill:#00DFEB;stroke:#45413C;stroke-linecap:round;stroke-linejoin:round;stroke-miterlimit:10;}
	.st100{fill:#FFE5EE;stroke:#45413C;stroke-linecap:round;stroke-linejoin:round;stroke-miterlimit:10;}
	.st101{fill:#8CA4B8;}
	.st102{fill:#ADC4D9;}
	.st103{fill:#656769;stroke:#45413C;stroke-linecap:round;stroke-linejoin:round;stroke-miterlimit:10;}
	.st104{fill:#F0F0F0;stroke:#45413C;stroke-linecap:round;stroke-linejoin:round;stroke-miterlimit:10;}
	.st105{fill:#C0DCEB;}
	.st106{fill:#45413C;}
	.st107{fill:#FFCABF;}
	.st108{fill:#87898C;stroke:#45413C;stroke-linecap:round;stroke-linejoin:round;stroke-miterlimit:10;}
	.st109{fill:#EBCB00;stroke:#45413C;stroke-linecap:round;stroke-linejoin:round;stroke-miterlimit:10;}</style>
    <style id="style1409" type="text/css">.st0{opacity:0.15;fill:#45413C;}
	.st1{fill:#FFE500;}
	.st2{fill:#EBCB00;}
	.st3{fill:none;stroke:#45413C;stroke-linecap:round;stroke-linejoin:round;stroke-miterlimit:10;}
	.st4{fill:#FFAA54;}
	.st5{fill:#FF8A14;}
	.st6{fill:#FFB0CA;stroke:#45413C;stroke-linecap:round;stroke-linejoin:round;stroke-miterlimit:10;}
	.st7{fill:#FF87AF;stroke:#45413C;stroke-linecap:round;stroke-linejoin:round;stroke-miterlimit:10;}
	.st8{fill:#FFCC99;}
	.st9{fill:#FFFFFF;}
	.st10{fill:#F0F0F0;}
	.st11{fill:#BF8256;}
	.st12{fill:#915E3A;}
	.st13{fill:#DEA47A;}
	.st14{fill:#F0D5A8;}
	.st15{fill:#DEBB7E;}
	.st16{fill:#F7E5C6;}
	.st17{fill:#FF8A14;stroke:#45413C;stroke-linecap:round;stroke-linejoin:round;stroke-miterlimit:10;}
	.st18{fill:#FFF5E3;}
	.st19{fill:#FFF48C;}
	.st20{fill:#FFFACF;}
	.st21{fill:#FFFCE5;}
	.st22{fill:#FF87AF;}
	.st23{fill:#FFB0CA;}
	.st24{fill:#FFE500;stroke:#45413C;stroke-linecap:round;stroke-linejoin:round;stroke-miterlimit:10;}
	.st25{fill:#9CEB60;stroke:#45413C;stroke-linecap:round;stroke-linejoin:round;stroke-miterlimit:10;}
	.st26{fill:#FFFACF;stroke:#45413C;stroke-linecap:round;stroke-linejoin:round;stroke-miterlimit:10;}
	.st27{fill:#00F5BC;stroke:#45413C;stroke-linecap:round;stroke-linejoin:round;stroke-miterlimit:10;}
	.st28{fill:#BF8256;stroke:#45413C;stroke-linecap:round;stroke-linejoin:round;stroke-miterlimit:10;}
	.st29{fill:#FFE3CF;stroke:#45413C;stroke-linecap:round;stroke-linejoin:round;stroke-miterlimit:10;}
	.st30{fill:#FF6242;}
	.st31{fill:#FF866E;}
	.st32{fill:none;stroke:#E04122;stroke-linecap:round;stroke-linejoin:round;stroke-miterlimit:10;}
	.st33{fill:#FFFEF2;stroke:#45413C;stroke-linecap:round;stroke-linejoin:round;stroke-miterlimit:10;}
	.st34{fill:#FF6242;stroke:#45413C;stroke-linecap:round;stroke-linejoin:round;stroke-miterlimit:10;}
	.st35{fill:#FFA694;}
	.st36{fill:#FFFFFF;stroke:#45413C;stroke-linecap:round;stroke-linejoin:round;stroke-miterlimit:10;}
	.st37{fill:#FFFEF2;}
	.st38{fill:#FF6196;}
	.st39{fill:#B89558;}
	.st40{fill:none;stroke:#915E3A;stroke-linecap:round;stroke-linejoin:round;stroke-miterlimit:10;}
	.st41{fill:#DEBB7E;stroke:#45413C;stroke-linecap:round;stroke-linejoin:round;stroke-miterlimit:10;}
	.st42{fill:#6DD627;stroke:#45413C;stroke-linecap:round;stroke-linejoin:round;stroke-miterlimit:10;}
	.st43{fill:#E5F8FF;}
	.st44{fill:#E8F4FA;}
	.st45{fill:#E8F4FA;stroke:#45413C;stroke-linecap:round;stroke-linejoin:round;stroke-miterlimit:10;}
	.st46{fill:#FFCCDD;}
	.st47{fill:#E5F8FF;stroke:#45413C;stroke-linecap:round;stroke-linejoin:round;stroke-miterlimit:10;}
	.st48{fill:#00B8F0;stroke:#45413C;stroke-linecap:round;stroke-linejoin:round;stroke-miterlimit:10;}
	.st49{fill:#00B8F0;}
	.st50{fill:#4ACFFF;}
	.st51{fill:#E04122;}
	.st52{fill:#E04122;stroke:#45413C;stroke-linecap:round;stroke-linejoin:round;stroke-miterlimit:10;}
	.st53{fill:#87898C;}
	.st54{fill:#BDBEC0;}
	.st55{fill:#656769;}
	.st56{fill:#525252;}
	.st57{fill:#FFF48C;stroke:#45413C;stroke-linecap:round;stroke-linejoin:round;stroke-miterlimit:10;}
	.st58{fill:#6DD627;}
	.st59{fill:#EB6D00;}
	.st60{fill:#46B000;}
	.st61{fill:#80DDFF;}
	.st62{fill:#DAEDF7;}
	.st63{fill:#BF8DF2;stroke:#45413C;stroke-linecap:round;stroke-linejoin:round;stroke-miterlimit:10;}
	.st64{fill:#9F5AE5;stroke:#45413C;stroke-linecap:round;stroke-linejoin:round;stroke-miterlimit:10;}
	.st65{fill:#C8FFA1;}
	.st66{fill:#E4FFD1;}
	.st67{fill:#9CEB60;}
	.st68{fill:#E5FEFF;}
	.st69{fill:#B8ECFF;}
	.st70{fill:#E0E0E0;stroke:#45413C;stroke-linecap:round;stroke-linejoin:round;stroke-miterlimit:10;}
	.st71{fill:#E0E0E0;}
	.st72{fill:none;stroke:#4F4B45;stroke-linejoin:round;stroke-miterlimit:10;}
	.st73{fill:none;stroke:#4F4B45;stroke-linecap:round;stroke-linejoin:round;stroke-miterlimit:10;}
	.st74{fill:#E0366F;stroke:#45413C;stroke-linecap:round;stroke-linejoin:round;stroke-miterlimit:10;}
	.st75{fill:none;stroke:#45413C;stroke-miterlimit:10;}
	.st76{fill:#FF866E;stroke:#45413C;stroke-linecap:round;stroke-linejoin:round;stroke-miterlimit:10;}
	.st77{fill:#45413C;stroke:#45413C;stroke-linecap:round;stroke-linejoin:round;stroke-miterlimit:10;}
	.st78{fill:#9F5AE5;}
	.st79{fill:#803EC2;}
	.st80{fill:#803EC2;stroke:#45413C;stroke-linecap:round;stroke-linejoin:round;stroke-miterlimit:10;}
	.st81{fill:#BF8DF2;}
	.st82{fill:#FFAA54;stroke:#45413C;stroke-linecap:round;stroke-linejoin:round;stroke-miterlimit:10;}
	.st83{fill:none;stroke:#45413C;stroke-linejoin:round;stroke-miterlimit:10;}
	.st84{fill:#FFCCDD;stroke:#45413C;stroke-linecap:round;stroke-linejoin:round;stroke-miterlimit:10;}
	.st85{fill:#FF6196;stroke:#45413C;stroke-linecap:round;stroke-linejoin:round;stroke-miterlimit:10;}
	.st86{fill:#FFE5EE;}
	.st87{fill:#F7E5C6;stroke:#45413C;stroke-linecap:round;stroke-linejoin:round;stroke-miterlimit:10;}
	.st88{fill:#E5FFF9;}
	.st89{fill:none;stroke:#45413C;stroke-width:1.0064;stroke-linecap:round;stroke-linejoin:round;stroke-miterlimit:10;}
	.st90{fill:#4AEFF7;}
	.st91{fill:#A6FBFF;}
	.st92{fill:#E5FEFF;stroke:#45413C;stroke-linecap:round;stroke-linejoin:round;stroke-miterlimit:10;}
	.st93{fill:#46B000;stroke:#45413C;stroke-linecap:round;stroke-linejoin:round;stroke-miterlimit:10;}
	.st94{fill:#FFFFFF;stroke:#45413C;stroke-linejoin:round;stroke-miterlimit:10;}
	.st95{fill:#FFFFFF;stroke:#45413C;stroke-miterlimit:10;}
	.st96{fill:#009FD9;}
	.st97{fill:#00DFEB;}
	.st98{fill:#C0DCEB;stroke:#45413C;stroke-linecap:round;stroke-linejoin:round;stroke-miterlimit:10;}
	.st99{fill:#00DFEB;stroke:#45413C;stroke-linecap:round;stroke-linejoin:round;stroke-miterlimit:10;}
	.st100{fill:#FFE5EE;stroke:#45413C;stroke-linecap:round;stroke-linejoin:round;stroke-miterlimit:10;}
	.st101{fill:#8CA4B8;}
	.st102{fill:#ADC4D9;}
	.st103{fill:#656769;stroke:#45413C;stroke-linecap:round;stroke-linejoin:round;stroke-miterlimit:10;}
	.st104{fill:#F0F0F0;stroke:#45413C;stroke-linecap:round;stroke-linejoin:round;stroke-miterlimit:10;}
	.st105{fill:#C0DCEB;}
	.st106{fill:#45413C;}
	.st107{fill:#FFCABF;}
	.st108{fill:#87898C;stroke:#45413C;stroke-linecap:round;stroke-linejoin:round;stroke-miterlimit:10;}
	.st109{fill:#EBCB00;stroke:#45413C;stroke-linecap:round;stroke-linejoin:round;stroke-miterlimit:10;}</style>
    <style id="style1411" type="text/css">.st0{opacity:0.15;fill:#45413C;}
	.st1{fill:#FFE500;}
	.st2{fill:#EBCB00;}
	.st3{fill:none;stroke:#45413C;stroke-linecap:round;stroke-linejoin:round;stroke-miterlimit:10;}
	.st4{fill:#FFAA54;}
	.st5{fill:#FF8A14;}
	.st6{fill:#FFB0CA;stroke:#45413C;stroke-linecap:round;stroke-linejoin:round;stroke-miterlimit:10;}
	.st7{fill:#FF87AF;stroke:#45413C;stroke-linecap:round;stroke-linejoin:round;stroke-miterlimit:10;}
	.st8{fill:#FFCC99;}
	.st9{fill:#FFFFFF;}
	.st10{fill:#F0F0F0;}
	.st11{fill:#BF8256;}
	.st12{fill:#915E3A;}
	.st13{fill:#DEA47A;}
	.st14{fill:#F0D5A8;}
	.st15{fill:#DEBB7E;}
	.st16{fill:#F7E5C6;}
	.st17{fill:#FF8A14;stroke:#45413C;stroke-linecap:round;stroke-linejoin:round;stroke-miterlimit:10;}
	.st18{fill:#FFF5E3;}
	.st19{fill:#FFF48C;}
	.st20{fill:#FFFACF;}
	.st21{fill:#FFFCE5;}
	.st22{fill:#FF87AF;}
	.st23{fill:#FFB0CA;}
	.st24{fill:#FFE500;stroke:#45413C;stroke-linecap:round;stroke-linejoin:round;stroke-miterlimit:10;}
	.st25{fill:#9CEB60;stroke:#45413C;stroke-linecap:round;stroke-linejoin:round;stroke-miterlimit:10;}
	.st26{fill:#FFFACF;stroke:#45413C;stroke-linecap:round;stroke-linejoin:round;stroke-miterlimit:10;}
	.st27{fill:#00F5BC;stroke:#45413C;stroke-linecap:round;stroke-linejoin:round;stroke-miterlimit:10;}
	.st28{fill:#BF8256;stroke:#45413C;stroke-linecap:round;stroke-linejoin:round;stroke-miterlimit:10;}
	.st29{fill:#FFE3CF;stroke:#45413C;stroke-linecap:round;stroke-linejoin:round;stroke-miterlimit:10;}
	.st30{fill:#FF6242;}
	.st31{fill:#FF866E;}
	.st32{fill:none;stroke:#E04122;stroke-linecap:round;stroke-linejoin:round;stroke-miterlimit:10;}
	.st33{fill:#FFFEF2;stroke:#45413C;stroke-linecap:round;stroke-linejoin:round;stroke-miterlimit:10;}
	.st34{fill:#FF6242;stroke:#45413C;stroke-linecap:round;stroke-linejoin:round;stroke-miterlimit:10;}
	.st35{fill:#FFA694;}
	.st36{fill:#FFFFFF;stroke:#45413C;stroke-linecap:round;stroke-linejoin:round;stroke-miterlimit:10;}
	.st37{fill:#FFFEF2;}
	.st38{fill:#FF6196;}
	.st39{fill:#B89558;}
	.st40{fill:none;stroke:#915E3A;stroke-linecap:round;stroke-linejoin:round;stroke-miterlimit:10;}
	.st41{fill:#DEBB7E;stroke:#45413C;stroke-linecap:round;stroke-linejoin:round;stroke-miterlimit:10;}
	.st42{fill:#6DD627;stroke:#45413C;stroke-linecap:round;stroke-linejoin:round;stroke-miterlimit:10;}
	.st43{fill:#E5F8FF;}
	.st44{fill:#E8F4FA;}
	.st45{fill:#E8F4FA;stroke:#45413C;stroke-linecap:round;stroke-linejoin:round;stroke-miterlimit:10;}
	.st46{fill:#FFCCDD;}
	.st47{fill:#E5F8FF;stroke:#45413C;stroke-linecap:round;stroke-linejoin:round;stroke-miterlimit:10;}
	.st48{fill:#00B8F0;stroke:#45413C;stroke-linecap:round;stroke-linejoin:round;stroke-miterlimit:10;}
	.st49{fill:#00B8F0;}
	.st50{fill:#4ACFFF;}
	.st51{fill:#E04122;}
	.st52{fill:#E04122;stroke:#45413C;stroke-linecap:round;stroke-linejoin:round;stroke-miterlimit:10;}
	.st53{fill:#87898C;}
	.st54{fill:#BDBEC0;}
	.st55{fill:#656769;}
	.st56{fill:#525252;}
	.st57{fill:#FFF48C;stroke:#45413C;stroke-linecap:round;stroke-linejoin:round;stroke-miterlimit:10;}
	.st58{fill:#6DD627;}
	.st59{fill:#EB6D00;}
	.st60{fill:#46B000;}
	.st61{fill:#80DDFF;}
	.st62{fill:#DAEDF7;}
	.st63{fill:#BF8DF2;stroke:#45413C;stroke-linecap:round;stroke-linejoin:round;stroke-miterlimit:10;}
	.st64{fill:#9F5AE5;stroke:#45413C;stroke-linecap:round;stroke-linejoin:round;stroke-miterlimit:10;}
	.st65{fill:#C8FFA1;}
	.st66{fill:#E4FFD1;}
	.st67{fill:#9CEB60;}
	.st68{fill:#E5FEFF;}
	.st69{fill:#B8ECFF;}
	.st70{fill:#E0E0E0;stroke:#45413C;stroke-linecap:round;stroke-linejoin:round;stroke-miterlimit:10;}
	.st71{fill:#E0E0E0;}
	.st72{fill:none;stroke:#4F4B45;stroke-linejoin:round;stroke-miterlimit:10;}
	.st73{fill:none;stroke:#4F4B45;stroke-linecap:round;stroke-linejoin:round;stroke-miterlimit:10;}
	.st74{fill:#E0366F;stroke:#45413C;stroke-linecap:round;stroke-linejoin:round;stroke-miterlimit:10;}
	.st75{fill:none;stroke:#45413C;stroke-miterlimit:10;}
	.st76{fill:#FF866E;stroke:#45413C;stroke-linecap:round;stroke-linejoin:round;stroke-miterlimit:10;}
	.st77{fill:#45413C;stroke:#45413C;stroke-linecap:round;stroke-linejoin:round;stroke-miterlimit:10;}
	.st78{fill:#9F5AE5;}
	.st79{fill:#803EC2;}
	.st80{fill:#803EC2;stroke:#45413C;stroke-linecap:round;stroke-linejoin:round;stroke-miterlimit:10;}
	.st81{fill:#BF8DF2;}
	.st82{fill:#FFAA54;stroke:#45413C;stroke-linecap:round;stroke-linejoin:round;stroke-miterlimit:10;}
	.st83{fill:none;stroke:#45413C;stroke-linejoin:round;stroke-miterlimit:10;}
	.st84{fill:#FFCCDD;stroke:#45413C;stroke-linecap:round;stroke-linejoin:round;stroke-miterlimit:10;}
	.st85{fill:#FF6196;stroke:#45413C;stroke-linecap:round;stroke-linejoin:round;stroke-miterlimit:10;}
	.st86{fill:#FFE5EE;}
	.st87{fill:#F7E5C6;stroke:#45413C;stroke-linecap:round;stroke-linejoin:round;stroke-miterlimit:10;}
	.st88{fill:#E5FFF9;}
	.st89{fill:none;stroke:#45413C;stroke-width:1.0064;stroke-linecap:round;stroke-linejoin:round;stroke-miterlimit:10;}
	.st90{fill:#4AEFF7;}
	.st91{fill:#A6FBFF;}
	.st92{fill:#E5FEFF;stroke:#45413C;stroke-linecap:round;stroke-linejoin:round;stroke-miterlimit:10;}
	.st93{fill:#46B000;stroke:#45413C;stroke-linecap:round;stroke-linejoin:round;stroke-miterlimit:10;}
	.st94{fill:#FFFFFF;stroke:#45413C;stroke-linejoin:round;stroke-miterlimit:10;}
	.st95{fill:#FFFFFF;stroke:#45413C;stroke-miterlimit:10;}
	.st96{fill:#009FD9;}
	.st97{fill:#00DFEB;}
	.st98{fill:#C0DCEB;stroke:#45413C;stroke-linecap:round;stroke-linejoin:round;stroke-miterlimit:10;}
	.st99{fill:#00DFEB;stroke:#45413C;stroke-linecap:round;stroke-linejoin:round;stroke-miterlimit:10;}
	.st100{fill:#FFE5EE;stroke:#45413C;stroke-linecap:round;stroke-linejoin:round;stroke-miterlimit:10;}
	.st101{fill:#8CA4B8;}
	.st102{fill:#ADC4D9;}
	.st103{fill:#656769;stroke:#45413C;stroke-linecap:round;stroke-linejoin:round;stroke-miterlimit:10;}
	.st104{fill:#F0F0F0;stroke:#45413C;stroke-linecap:round;stroke-linejoin:round;stroke-miterlimit:10;}
	.st105{fill:#C0DCEB;}
	.st106{fill:#45413C;}
	.st107{fill:#FFCABF;}
	.st108{fill:#87898C;stroke:#45413C;stroke-linecap:round;stroke-linejoin:round;stroke-miterlimit:10;}
	.st109{fill:#EBCB00;stroke:#45413C;stroke-linecap:round;stroke-linejoin:round;stroke-miterlimit:10;}</style>
    <g id="g1505">
        <g fill="#d5d3cf" stroke-width=".87152">
            <circle id="circle146-6" cx="296.64999" cy="5.7567" r="0" enable-background="new"/>
            <circle id="circle148-8" cx="-15.774" cy="13.461" r="0" enable-background="new"/>
            <circle id="circle128" cx="272.03214" cy="5.7567" r="0" enable-background="new"/>
            <circle id="circle130" cx="-40.391857" cy="13.461" r="0" enable-background="new"/>
        </g>
        <g id="g2056" transform="translate(27.756029)">
            <rect id="rect1552" x="-26.565529" y="1.1905" width="14.552" height="14.552" ry="3.4395001" filter="url(#filter861)" image-rendering="optimizeSpeed" opacity=".3" stroke-opacity=".95294" stroke-width=".083153"/>
            <rect id="rect1554" x="-26.565529" y="1.1905" width="14.552" height="14.552" rx="3.4400001" ry="3.4395001" fill="url(#linearGradient1584)" stroke-linecap="round" stroke-width=".52916"/>
            <g stroke-width=".127016">
                <path id="shape-base-8" transform="scale(.26457812)" d="m-63.707031 4.5c-7.417172 4.5323362-9.957689 12.654735-10.19336 16.751953a15.273288 15.273288 0 0 0-8.40039 3.238281 9.0631586 9.0631586 0 0 0-0.791016-0.597656 14.141773 14.141773 0 0 1-0.08594-7.458984c-3.13574 1.427763-5.574294 3.684694-7.347657 5.677734h-0.01367c-1.210055-1.532706-1.125577-6.588867-1.056641-7.644531-0.01436-0.06541-0.901257 0.461622-1.017578 0.541015a22.236639 22.236639 0 0 0-2.984375 2.554688 26.733894 26.733894 0 0 0-2.84961 3.417969 25.763201 25.763201 0 0 0-1.958982 3.265625v22.253906c0 7.201967 5.796984 13 12.999998 13h28.998047c7.203014 0 13.001953-5.798033 13.001953-13v-22.699219c-1.438576-2.663185-3.581345-5.200088-5.335938-6.105469 1.71724 3.366509 2.710062 6.743328 3.089844 9.263672 0 5e-3 0.0017 0.01725 0.0059 0.05078-3.451662-8.603254-9.302536-12.073599-14.08207-19.626952-0.241327-0.3819356-0.484943-0.7643296-0.720703-1.1679687a9.3631996 9.3631996 0 0 1-0.335937-0.6308594 5.5505186 5.5505186 0 0 1-0.423828-1.0839844zm-16.09375 44.810547c0.142755 0.06822 0.277255 0.143559 0.423828 0.208984 6e-3 0.0042 0.01311 0.0079 0.01953 0.01172a16.027951 16.027951 0 0 1-0.443359-0.220703z" fill="url(#a-4)"/>
                <path id="body-outer-ring-4" transform="scale(.26457812)" d="m-50.742188 17.695312c1.71724 3.366509 2.710062 6.743328 3.089844 9.263672 0-0.0074 0.0024 0.0047 0.0059 0.02734 0.0014 0.01081 0.0024 0.02243 0.0039 0.0332 2.880057 7.807787 1.311796 15.748067-0.949219 20.59961-2.090269 4.485644-5.969651 9.023425-11.570312 11.880859h1.753906c7.203014 0 13.001953-5.798033 13.001953-13v-22.699212c-1.438576-2.663185-3.581345-5.200088-5.335938-6.105469zm-49.664062 27.931641v0.873047c0 7.201967 5.796986 13 13 13h1.398438c-6.184681-2.919236-11.324734-7.819155-14.398438-13.873047z" fill="url(#b-5)"/>
                <path id="body-outer-ring-shadow-3" transform="scale(.26457812)" d="m-50.742188 17.695312c1.71724 3.366509 2.710062 6.743328 3.089844 9.263672 0-0.0074 0.0024 0.0047 0.0059 0.02734 0.0014 0.01081 0.0024 0.02243 0.0039 0.0332 2.880057 7.807787 1.311796 15.748067-0.949219 20.59961-2.090269 4.485644-5.969651 9.023425-11.570312 11.880859h1.753906c7.203014 0 13.001953-5.798033 13.001953-13v-22.699212c-1.438576-2.663185-3.581345-5.200088-5.335938-6.105469zm-49.664062 27.931641v0.873047c0 7.201967 5.796986 13 13 13h1.398438c-6.184681-2.919236-11.324734-7.819155-14.398438-13.873047z" fill="url(#c-1)"/>
            </g>
            <g stroke-width=".0336056">
                <path id="tail-tip-1" d="m-15.729908 7.6747293c0.01761 0.012367 0.03361 0.024666 0.05017 0.036966a4.3924279 4.3924279 0 0 0-0.74973-0.9783193c-2.510449-2.5101946-0.658293-5.4428407-0.345938-5.5917022 9.02e-4 -0.00121 0.0028-0.00393 0.0034-0.00457-2.028808 1.1881478-2.716975 3.3860891-2.780228 4.4857838 0.09409-0.00652 0.187918-0.014416 0.2837-0.014416 1.514017 0 2.832558 0.8324046 3.538634 2.0662777z" fill="url(#d-3)"/>
                <path id="globe-base-4" d="m-19.263461 8.1759172c-0.01321 0.2008867-0.722982 0.8936639-0.971194 0.8936639-2.296556 0-2.669345 1.3890349-2.669345 1.3890349 0.101724 1.169806 0.916121 2.133087 1.902429 2.642798 0.045 0.02326 0.09053 0.04426 0.136096 0.06503a4.461778 4.461778 0 0 0 0.237226 0.09699 3.5871537 3.5871537 0 0 0 1.05087 0.202678c4.025228 0.188795 4.805099-4.8120853 1.90027-6.2642462 0.743926-0.1293774 1.516049 0.1698062 1.947391 0.4727239-0.706113-1.2337843-2.024743-2.0661507-3.538634-2.0661507-0.09577 0-0.189569 0.0079-0.2837 0.014416a4.0409778 4.0409778 0 0 0-2.22276 0.8565375c0.123129 0.1041763 0.262121 0.2434366 0.554953 0.5319001 0.547841 0.5399402 1.953489 1.0990596 1.95641 1.1646627z" fill="url(#e-0)"/>
                <path id="globe-shadow-9" d="m-19.263461 8.1759172c-0.01321 0.2008867-0.722982 0.8936639-0.971194 0.8936639-2.296556 0-2.669345 1.3890349-2.669345 1.3890349 0.101724 1.169806 0.916121 2.133087 1.902429 2.642798 0.045 0.02326 0.09053 0.04426 0.136096 0.06503a4.461778 4.461778 0 0 0 0.237226 0.09699 3.5871537 3.5871537 0 0 0 1.05087 0.202678c4.025228 0.188795 4.805099-4.8120853 1.90027-6.2642462 0.743926-0.1293774 1.516049 0.1698062 1.947391 0.4727239-0.706113-1.2337843-2.024743-2.0661507-3.538634-2.0661507-0.09577 0-0.189569 0.0079-0.2837 0.014416a4.0409778 4.0409778 0 0 0-2.22276 0.8565375c0.123129 0.1041763 0.262121 0.2434366 0.554953 0.5319001 0.547841 0.5399402 1.953489 1.0990596 1.95641 1.1646627z" fill="url(#f-4)"/>
                <path id="ear-2" d="m-22.151652 6.2108068a8.2010955 8.2010955 0 0 1 0.167393 0.110898 3.7416037 3.7416037 0 0 1-0.02265-1.9736839c-0.829648 0.3777549-1.474896 0.9748898-1.944089 1.5022047 0.03881-0.0011 1.210261-0.022179 1.799292 0.3606587z" fill="url(#g-2)"/>
            </g>
            <path id="body-0" transform="scale(.26457812)" d="m-91.59375 14.466797c-0.01436-0.06541-0.90321 0.459669-1.019531 0.539062a22.236639 22.236639 0 0 0-2.982422 2.556641 26.733894 26.733894 0 0 0-2.851563 3.417969 25.763201 25.763201 0 0 0-1.958984 3.265625v21.382812c3.073887 6.053022 8.214416 10.952155 14.398438 13.871094h25.847656c5.600322-2.857622 9.478375-7.395968 11.568359-11.880859 2.260871-4.852023 3.829276-12.791343 0.949219-20.59961 1.077826 7.066425-2.519724 13.910509-8.138672 18.539063l-0.01563 0.04102c-10.954617 8.919623-21.438176 5.38-23.560547 3.931641a18.303942 18.303942 0 0 1-0.443359-0.220703c-6.386794-3.052017-9.024504-8.871528-8.458985-13.861328-5.392577 0-7.232422-4.546875-7.232422-4.546875s4.841147-3.453565 11.222657-0.451172c5.910088 2.780732 11.459977 0.451426 11.460937 0.451172-0.01134-0.247935-5.323048-2.361729-7.394531-4.402344-1.106694-1.090277-1.632281-1.615392-2.097656-2.009766a9.0631586 9.0631586 0 0 0-0.791016-0.597656 35.936272 35.936272 0 0 0-0.632812-0.419922c-2.226235-1.446973-6.65436-1.367121-6.800782-1.363281h-0.01367c-1.210055-1.532705-1.123628-6.586914-1.054688-7.642578zm43.941406 12.492187c0 5e-3 0.0037 0.01725 0.0078 0.05078l-2e-3 -0.02344c-0.0034-0.0226-0.0059-0.03468-0.0059-0.02734z" fill="url(#h-2)" stroke-width=".127016"/>
            <g stroke-width=".0336056">
                <path id="tail-flame-6" d="m-16.429379 6.733346a4.3924279 4.3924279 0 0 1 0.749731 0.9783192c0.04446 0.033404 0.086 0.066707 0.121248 0.099202 1.830919 1.6870114 0.871589 4.0729858 0.800041 4.2430588 1.487344-1.225249 2.43894-3.0373067 2.152394-4.9078545-0.913224-2.2761059-2.461675-3.1940423-3.726235-5.1923671-0.06385-0.1010518-0.127866-0.2023728-0.190243-0.3091669a2.4772978 2.4772978 0 0 1-0.08892-0.167088 1.4685458 1.4685458 0 0 1-0.120744-0.3194551 0.02103747 0.02103747 0 0 0-0.01835-0.021642 0.02748856 0.02748856 0 0 0-0.01516 0c-0.0011 4.065e-4 -0.0028 0.00171-4e-3 0.00218-0.0018 7.113e-4 -4e-3 0.00232-0.0059 0.00336-0.312228 0.1488106-2.16446 3.0813805 0.346065 5.5915752z" fill="url(#i-9)"/>
                <path id="tail-small-8" d="m-15.558438 7.8108638c-0.03525-0.032497-0.07679-0.065799-0.121248-0.099202-0.01643-0.012367-0.03256-0.024666-0.05017-0.036966-0.431228-0.3029177-1.203402-0.6021012-1.947392-0.4727239 2.90483 1.4521609 2.125086 6.4531171-1.900269 6.2642461a3.5871537 3.5871537 0 0 1-1.05087-0.202678 4.5202048 4.5202048 0 0 1-0.237226-0.09698c-0.04557-0.02077-0.0911-0.04177-0.136096-0.06503 0.0016 0.0011 0.0038 0.0024 0.0055 0.0034 0.561545 0.383102 3.334902 1.319303 6.233254-1.04062l0.0045-0.01052c0.07155-0.169845 1.03084-2.5559205-0.800041-4.2429318z" fill="url(#j-0)"/>
                <path id="cheek-tufts-9" d="m-22.903961 10.458692s0.372788-1.3890347 2.669344-1.3890347c0.248276 0 0.95806-0.6927772 0.971194-0.8936639 0.01314-0.2008867-1.468546 0.6167207-3.032353-0.1189964-1.688282-0.7943636-2.969354 0.1189964-2.969354 0.1189964s0.486505 1.2033769 1.913225 1.2033769c-0.149649 1.3201927 0.548412 2.8598667 2.238129 3.6671727 0.03777 0.01805 0.07326 0.03777 0.11204 0.05508-0.986245-0.509761-1.80069-1.473118-1.902429-2.642798z" fill="url(#k-7)"/>
            </g>
            <path id="overlay-green-2" transform="scale(.26457812)" d="m-63.707031 4.5c-7.417172 4.5323362-9.957689 12.654735-10.19336 16.751953 0.355661-0.02464 0.710248-0.05469 1.072266-0.05469 5.722382 0 10.706794 3.147477 13.375 7.810546-1.629874-1.144908-4.549346-2.276152-7.361328-1.787109 10.979101 5.48859 8.032599 24.389639-7.181641 23.675781a13.558013 13.558013 0 0 1-3.970703-0.765625 17.084575 17.084575 0 0 1-0.898437-0.367187c-0.172237-0.0785-0.343602-0.15818-0.513672-0.246094 6e-3 0.0042 0.01506 0.0099 0.02148 0.01367a18.303942 18.303942 0 0 1-0.322266-0.160156c0.09896 0.05007 0.196822 0.10008 0.300782 0.146484-3.727901-1.92655-6.806874-5.566876-7.191406-9.988281 0 0 1.409776-5.25 10.089843-5.25 0.938385 0 3.620285-2.617681 3.669922-3.376953-0.01134-0.247935-5.323045-2.361729-7.394531-4.402344-1.106694-1.090277-1.632282-1.615392-2.097656-2.009766a9.0631586 9.0631586 0 0 0-0.791016-0.597656 14.141773 14.141773 0 0 1-0.08594-7.458984c-3.135739 1.427763-5.574293 3.684694-7.347656 5.677734h-0.01367c-1.210051-1.532705-1.123623-6.588867-1.054687-7.644531-0.01436-0.06541-0.90321 0.459669-1.019531 0.539062a22.236639 22.236639 0 0 0-2.982422 2.556641 26.733894 26.733894 0 0 0-2.84961 3.417969 25.763201 25.763201 0 0 0-1.95898 3.261719v22.257817c0 7.201967 5.796982 13 12.999996 13h28.998047c7.203014 0 13.001953-5.798033 13.001953-13v-22.699219c-1.438576-2.663185-3.581345-5.200088-5.335938-6.105469 1.71724 3.366509 2.710062 6.743328 3.089844 9.263672 0 5e-3 0.0017 0.01725 0.0059 0.05078-3.45166-8.603254-9.302534-12.073599-14.082068-19.626952-0.241327-0.3819356-0.484943-0.7643296-0.720703-1.1679687a9.3631996 9.3631996 0 0 1-0.335937-0.6308594 5.5505186 5.5505186 0 0 1-0.423828-1.0839844z" fill="url(#l-3)" stroke-width=".127016"/>
        </g>
    </g>
</svg>
