<svg id="svg290" version="1.1" viewBox="0 0 64 64" xmlns="http://www.w3.org/2000/svg">
  <defs id="defs278">
    <style id="style266" type="text/css"/>
    <style id="style268" type="text/css"/>
    <filter id="filter1057" x="-.026999999" y="-.026999999" width="1.054" height="1.054" color-interpolation-filters="sRGB">
      <feGaussianBlur id="feGaussianBlur270" stdDeviation="0.61875"/>
    </filter>
    <filter id="filter1446" x="-.027210303" y="-.026792921" width="1.0544206" height="1.0535858" color-interpolation-filters="sRGB">
      <feGaussianBlur id="feGaussianBlur1448" stdDeviation="0.62515088"/>
    </filter>
  </defs>
  <rect id="rect280" x="4.5" y="4.5" width="55" height="55" ry="15" fill="#141414" filter="url(#filter1057)" opacity=".3" stroke-linecap="round" stroke-width="2.7444"/>
  <rect id="rect282" x="4.5" y="4.5" width="55" height="55" ry="15" fill="#8070c2" stroke-linecap="round" stroke-width="2.7444"/>
  <path id="path1409" class="st2" d="m56.157995 4.0024527c-4.181752-0.0882778-10.629641 3.3241681-13.628906 7.1953123-0.199286-0.119572-0.398438-0.397938-0.398438-0.716797 0.119572-1.1957199-0.517669-2.1927917-1.394531-2.7109372-1.79358-0.9167188-3.50913-8.393e-4 -4.226563 1.3144531-0.199286 0.3188587-0.517873 0.5199626-0.796875 0.4003906-0.318858 0-0.597656-0.3206079-0.597656-0.5996094-0.199286-0.9964335-0.796171-1.7928328-1.712891-2.1914062-1.913152-0.7971468-3.905749 0.3197008-4.224609 2.1132812-0.119572 0.3188587-0.320609 0.5976563-0.599609 0.5976563-0.318859 0.1195721-0.597588-0.1194361-0.796875-0.3984375-0.597861-0.9167189-1.59341-1.515625-2.589844-1.515625-1.594293 0-3.029661 1.3158625-3.109375 2.9101561v0.238281c0 0.318859-0.199151 0.599178-0.398438 0.71875h-0.11914c-3.30816-4.3045925-11.359968-8.2508388-15.345704-6.9355465-3.228444 1.1160056-1.71441 16.97861 1.59375 21.283204 0.597859 0.797146 1.117051 1.396348 1.515625 1.794922-0.119572 0.318858-0.397938 0.597656-0.716797 0.597656-0.518146 0-0.997911 0.198718-1.396485 0.517578-2.112438 1.992867-0.917126 4.821698 1.195313 5.339844 0.31886 0.119572 0.599609 0.399891 0.599609 0.71875 0 0.318858-0.200672 0.71716-0.519531 0.796875-0.398573 0.199287-0.796376 0.398301-1.115234 0.796875-1.594295 2.311725-7.48e-4 4.902344 2.191406 4.902343 0.318859 0 0.5991785 0.19872 0.7187505 0.517579 0.119573 0.318858 0.11964 0.599542-0.199219 0.798828-0.5978605 0.59786-0.9184005 1.39426-0.7988285 2.191406 0.119572 1.116006 0.7980585 2.111556 1.9140635 2.589844 0.59786 0.318858 1.195109 0.31879 1.792968 0.199219 0.318859-0.119572 0.597589 0.0015 0.796875 0.320312 0.199287 0.199287 0.200809 0.597588 0.121094 0.796875-0.318859 0.59786-0.398505 1.314613-0.199219 1.992187 0.318859 1.116006 1.115259 1.914358 2.191407 2.19336 0.996434 0.199287 1.713118-0.121026 2.191406-0.320313 0.199287-0.119572-1.314476 3.62766-2.390625 6.138672-0.318859 0.797146 0.517669 1.713027 1.394531 1.314453 3.308159-1.514578 8.849609-4.103583 8.84961-3.904296 0.199285 2.112438 2.590617 3.625907 4.902343 2.111328 0.518146-0.318859 0.796444-0.916244 0.916016-1.394532 0.119572-0.318858 0.398301-0.597656 0.796875-0.597656 0.398573 0 0.71716 0.199083 0.796875 0.597656 0.119572 0.518146 0.320177 0.916312 0.71875 1.195313 2.311727 1.79358 4.902276 0.319901 5.101562-1.912109 0-0.318859 0.19872-0.599179 0.517579-0.71875 0.318858-0.119572 0.597588-6.9e-5 0.796874 0.199218 0.597861 0.597861 1.316136 0.996094 2.113282 0.996094 0.996434 0 1.991983-0.517238 2.589844-1.513672 0.398573-0.59786 0.518009-1.19504 0.398437-1.992187 0-0.318859 0.119073-0.599542 0.318359-0.798829 0.199287-0.199286 0.599542-0.199286 0.798828 0 0.59786 0.318859 1.314613 0.5196 1.992188 0.320313 1.116005-0.199287 1.993641-1.116847 2.3125-2.113281 0.199287-0.717433 0.117687-1.393896-0.201172-2.111328-0.119572-0.318859-0.11805-0.599542 0.121094-0.798828 0.239144-0.199287 0.517873-0.31836 0.796875-0.31836 0.717432 0.119572 1.314249 0.11964 1.912109-0.199219 0.916719-0.398573 1.515558-1.194972 1.714844-2.191406 0.199287-0.996433-0.119301-1.914221-0.796875-2.591797-0.199287-0.199286-0.318791-0.517874-0.199219-0.796875s0.397938-0.517578 0.716797-0.517578c0.717432 0 1.513899-0.199014 1.992188-0.796875 1.713865-1.79358 0.917059-4.22629-0.996094-5.023437-0.318859-0.119572-0.517578-0.398302-0.517578-0.796875 0-0.358716 0.278797-0.636719 0.597656-0.636719 0.59786-0.119572 1.115098-0.398303 1.513672-0.796875 1.594293-2.11244 0.319471-4.704579-1.792969-5.023438-0.318859 0-0.597656-0.318655-0.597656-0.597656v-0.199219c0.318859-0.318858 0.59752-0.716592 0.996094-1.314453 3.228444-4.304592 4.704211-20.168719 1.515625-21.404297-0.488253-0.1644116-1.039326-0.2471545-1.636719-0.2597656z" fill="#141414" filter="url(#filter1446)" opacity=".3"/>
  <circle id="circle284" cx="-1326.3" cy="-1241.6" r="0" fill="#5e4aa6"/>
  <circle id="circle286" cx="-226.72" cy="23.855" r="0" fill="#5e4aa6" fill-rule="evenodd"/>
  <style id="style434" type="text/css">.st0{fill:url(#SVGID_1_);}
	.st1{fill:#F094BE;}
	.st2{fill:#4D3F92;}
	.st3{fill:#FFFFFF;}</style>
  <g id="Capa_2" transform="matrix(.39857382 0 0 .39857382 -4.2638572 -4.3065646)" stroke-width="2.50895">
    <g id="g453" stroke-width="2.50895">
      <path id="path439" class="st2" d="m151.6 95.1c1.5-0.3 2.8-1 3.8-2 4-5.3 0.8-11.8-4.5-12.6-0.8 0-1.5-0.8-1.5-1.5v-0.5c0.8-0.8 1.5-1.8 2.5-3.3 8.1-10.8 11.8-50.6 3.8-53.7-9.8-3.3-29.7 6.3-38.3 17.4-0.5-0.3-1-1-1-1.8 0.3-3-1.3-5.5-3.5-6.8-4.5-2.3-8.8 0-10.6 3.3-0.5 0.8-1.3 1.3-2 1-0.8 0-1.5-0.8-1.5-1.5-0.5-2.5-2-4.5-4.3-5.5-4.8-2-9.8 0.8-10.6 5.3-0.3 0.8-0.8 1.5-1.5 1.5-0.8 0.3-1.5-0.3-2-1-1.5-2.3-4-3.8-6.5-3.8-4 0-7.6 3.3-7.8 7.3v0.6c0 0.8-0.5 1.5-1 1.8h-0.3c-8.3-10.8-28.5-20.7-38.5-17.4-8.1 2.8-4.3 42.6 4 53.4 1.5 2 2.8 3.5 3.8 4.5-0.3 0.8-1 1.5-1.8 1.5-1.3 0-2.5 0.5-3.5 1.3-5.3 5-2.3 12.1 3 13.4 0.8 0.3 1.5 1 1.5 1.8s-0.5 1.8-1.3 2c-1 0.5-2 1-2.8 2-4 5.8 0 12.3 5.5 12.3 0.8 0 1.5 0.5 1.8 1.3s0.3 1.5-0.5 2c-1.5 1.5-2.3 3.5-2 5.5 0.3 2.8 2 5.3 4.8 6.5 1.5 0.8 3 0.8 4.5 0.5 0.8-0.3 1.5 0 2 0.8 0.5 0.5 0.5 1.5 0.3 2-0.8 1.5-1 3.3-0.5 5 0.8 2.8 2.8 4.8 5.5 5.5 2.5 0.5 4.3-0.3 5.5-0.8 0.5-0.3-3.3 9.1-6 15.4-0.8 2 1.3 4.3 3.5 3.3 8.3-3.8 22.2-10.3 22.2-9.8 0.5 5.3 6.5 9.1 12.3 5.3 1.3-0.8 2-2.3 2.3-3.5 0.3-0.8 1-1.5 2-1.5s1.8 0.5 2 1.5c0.3 1.3 0.8 2.3 1.8 3 5.8 4.5 12.3 0.8 12.8-4.8 0-0.8 0.5-1.5 1.3-1.8s1.5 0 2 0.5c1.5 1.5 3.3 2.5 5.3 2.5 2.5 0 5-1.3 6.5-3.8 1-1.5 1.3-3 1-5 0-0.8 0.3-1.5 0.8-2s1.5-0.5 2 0c1.5 0.8 3.3 1.3 5 0.8 2.8-0.5 5-2.8 5.8-5.3 0.5-1.8 0.3-3.5-0.5-5.3-0.3-0.8-0.3-1.5 0.3-2s1.3-0.8 2-0.8c1.8 0.3 3.3 0.3 4.8-0.5 2.3-1 3.8-3 4.3-5.5s-0.3-4.8-2-6.5c-0.5-0.5-0.8-1.3-0.5-2s1-1.3 1.8-1.3c1.8 0 3.8-0.5 5-2 4.3-4.5 2.3-10.6-2.5-12.6-0.8-0.3-1.3-1-1.3-2 0-0.9 0.7-1.6 1.5-1.6z"/>
      <path id="path441" class="st3" d="m131.4 42.2c0.5 1.5 0.5 3 0 4.5-0.3 0.8 0 1.5 0.5 2s1.3 0.8 2 0.5c1-0.5 2-0.5 3-0.5 2.3 0 4.3 1 5.8 3 1 1.3 1.8 3 1.5 4.8 0 1.5-0.5 2.8-1.3 4-0.5 0.5-0.5 1.5 0 2 0.3 0.3 0.5 0.8 1 0.8 1-0.3 2-1 2.8-2 4.5-6.3 5.3-26.2 0.8-27.7s-12.3 1.5-17.9 6c1.1 0.5 1.6 1.3 1.8 2.6z"/>
      <path id="path443" class="st3" d="m39 63.6 0.8-0.8c0.5-0.8 0.3-1.5 0-2-1.3-1.8-1.6-3.8-1.3-5.8 0.5-2.8 2.8-5 5.5-5.8 1.5-0.5 3-0.3 4.5 0.3 0.8 0.3 1.5 0 2-0.5s0.8-1.3 0.5-2c-0.5-1.5-0.5-3 0-4.5 0.3-1 0.8-2 1.5-2.8-5.5-4.5-13.9-7.8-18.4-6.3s-3.7 21.4 0.9 27.7c1 1.5 2.2 2.2 4 2.5z"/>
      <g id="g451">
        <circle id="circle445" class="st3" cx="60.900002" cy="94.599998" r="9.3000002"/>
        <path id="path447" class="st3" d="m100.7 94.6c0 5.3-4.3 9.3-9.3 9.3-5.3 0-9.3-4.3-9.3-9.3s18.6-5.3 18.6 0z"/>
        <circle id="circle449" class="st3" cx="121.6" cy="94.599998" r="9.3000002"/>
      </g>
    </g>
  </g>
</svg>
