<?xml version="1.0" encoding="utf-8"?>
<svg id="svg408" width="64" height="64" version="1.1" viewBox="0 0 64 64" xmlns="http://www.w3.org/2000/svg">
  <defs>
    <filter id="shadow" x="-0.03" y="-0.03" width="1.06" height="1.06">
      <feGaussianBlur stdDeviation="0.65"/>
    </filter>
    <linearGradient id="bgGradient" x1="0" y1="0" x2="1" y2="1">
      <stop offset="0" stop-color="#2e3bd5"/>
      <stop offset="1" stop-color="#7027d6"/>
    </linearGradient>
    <filter id="shadowLogo" x="-.023197418" y="-.032293663" width="1.0463948" height="1.0645873" color-interpolation-filters="sRGB">
      <feGaussianBlur stdDeviation="0.10229207"/>
    </filter>
  </defs>
  <rect x="4.5" y="4.5" width="55" height="55" ry="15" fill="#000" opacity="0.3" filter="url(#shadow)"/>
  <rect x="4" y="4" width="56" height="56" ry="15" fill="url(#bgGradient)"/>
  <path id="path1270" d="M 13.424 29.239 C 11.588 29.239 10.055 27.755 10.28 25.933 C 10.525 23.963 11.03 22.288 11.798 20.904 C 12.983 18.802 14.524 17.272 16.417 16.315 C 18.332 15.358 20.351 14.879 22.473 14.879 C 24.596 14.879 26.521 15.358 28.249 16.315 C 29.997 17.252 32.026 18.688 34.336 20.624 C 35.897 21.935 37.125 22.871 38.02 23.433 C 38.936 23.973 39.955 24.244 41.079 24.244 C 42.89 24.244 44.315 23.599 45.356 22.309 C 45.853 21.693 46.223 20.941 46.468 20.051 C 46.972 18.226 48.384 16.628 50.277 16.628 C 52.106 16.628 53.642 18.094 53.431 19.911 C 53.202 21.89 52.695 23.574 51.912 24.963 C 50.725 27.064 49.174 28.594 47.26 29.551 C 45.346 30.508 43.327 30.987 41.204 30.987 C 39.081 30.987 37.146 30.54 35.397 29.645 C 33.65 28.729 31.631 27.262 29.341 25.243 C 27.842 23.932 26.626 23.006 25.689 22.465 C 24.752 21.903 23.722 21.622 22.599 21.622 C 20.913 21.622 19.518 22.205 18.416 23.37 C 17.841 23.977 17.425 24.798 17.166 25.833 C 16.71 27.659 15.306 29.239 13.424 29.239 Z M 13.424 48.094 C 11.588 48.094 10.055 46.611 10.28 44.788 C 10.525 42.819 11.03 41.142 11.798 39.76 C 12.983 37.658 14.524 36.128 16.417 35.17 C 18.332 34.214 20.351 33.734 22.473 33.734 C 24.596 33.734 26.521 34.214 28.249 35.17 C 29.997 36.107 32.026 37.543 34.336 39.479 C 35.897 40.79 37.125 41.727 38.02 42.288 C 38.936 42.829 39.955 43.099 41.079 43.099 C 42.89 43.099 44.315 42.454 45.356 41.164 C 45.853 40.549 46.223 39.796 46.468 38.906 C 46.972 37.081 48.384 35.483 50.277 35.483 C 52.106 35.483 53.642 36.949 53.431 38.766 C 53.202 40.746 52.695 42.429 51.912 43.818 C 50.725 45.919 49.174 47.449 47.26 48.407 C 45.346 49.364 43.327 49.843 41.204 49.843 C 39.081 49.843 37.146 49.395 35.397 48.5 C 33.65 47.584 31.631 46.117 29.341 44.098 C 27.842 42.787 26.626 41.861 25.689 41.32 C 24.752 40.759 23.722 40.477 22.599 40.477 C 20.913 40.477 19.518 41.06 18.416 42.226 C 17.841 42.832 17.425 43.653 17.166 44.688 C 16.71 46.514 15.306 48.094 13.424 48.094 Z" fill-opacity=".898039" fill-rule="evenodd" filter="url(#shadowLogo)" opacity=".1" stroke-width=".279377" style=""/>
  <path id="rect1261" d="M 14.047 30.197 C 12.263 30.197 10.772 28.754 10.992 26.983 C 11.229 25.07 11.72 23.44 12.466 22.096 C 13.618 20.053 15.116 18.567 16.957 17.636 C 18.817 16.705 20.779 16.24 22.842 16.24 C 24.905 16.24 26.777 16.705 28.455 17.636 C 30.154 18.546 32.126 19.942 34.372 21.823 C 35.889 23.097 37.083 24.007 37.952 24.553 C 38.842 25.079 39.833 25.342 40.926 25.342 C 42.685 25.342 44.071 24.715 45.082 23.461 C 45.564 22.864 45.925 22.131 46.163 21.268 C 46.652 19.493 48.025 17.939 49.865 17.939 C 51.643 17.939 53.136 19.365 52.931 21.131 C 52.708 23.054 52.215 24.69 51.453 26.041 C 50.301 28.083 48.794 29.57 46.933 30.501 C 45.072 31.431 43.109 31.896 41.047 31.896 C 38.984 31.896 37.103 31.461 35.404 30.591 C 33.704 29.701 31.743 28.275 29.517 26.313 C 28.061 25.039 26.878 24.139 25.968 23.613 C 25.057 23.066 24.056 22.794 22.964 22.794 C 21.325 22.794 19.97 23.36 18.898 24.492 C 18.34 25.082 17.935 25.88 17.684 26.886 C 17.241 28.661 15.876 30.197 14.047 30.197 Z M 14.047 48.522 C 12.263 48.522 10.772 47.081 10.992 45.309 C 11.229 43.395 11.72 41.766 12.466 40.422 C 13.618 38.379 15.116 36.892 16.957 35.962 C 18.817 35.031 20.779 34.566 22.842 34.566 C 24.905 34.566 26.777 35.031 28.455 35.962 C 30.154 36.872 32.126 38.268 34.372 40.149 C 35.889 41.422 37.083 42.334 37.952 42.88 C 38.842 43.405 39.833 43.668 40.926 43.668 C 42.685 43.668 44.071 43.041 45.082 41.787 C 45.564 41.189 45.925 40.458 46.163 39.593 C 46.652 37.818 48.025 36.265 49.865 36.265 C 51.643 36.265 53.136 37.691 52.931 39.457 C 52.708 41.38 52.215 43.017 51.453 44.366 C 50.301 46.409 48.794 47.896 46.933 48.826 C 45.072 49.756 43.109 50.222 41.047 50.222 C 38.984 50.222 37.103 49.787 35.404 48.917 C 33.704 48.027 31.743 46.601 29.517 44.639 C 28.061 43.365 26.878 42.465 25.968 41.939 C 25.057 41.393 24.056 41.12 22.964 41.12 C 21.325 41.12 19.97 41.686 18.898 42.819 C 18.34 43.408 17.935 44.206 17.684 45.212 C 17.241 46.987 15.876 48.522 14.047 48.522 Z" fill="#fff" fill-opacity=".93" fill-rule="evenodd" stroke-width=".271193" style=""/>
</svg>