<?xml version="1.0" encoding="UTF-8" standalone="no"?>
<svg
   id="SimpleNote"
   width="64"
   height="64"
   enable-background="new 0 0 1024 1024"
   image-rendering="optimizeSpeed"
   version="1.1"
   viewBox="0 0 64 64"
   sodipodi:docname="fragments.svg"
   inkscape:version="1.2.1 (9c6d41e410, 2022-07-14)"
   xml:space="preserve"
   xmlns:inkscape="http://www.inkscape.org/namespaces/inkscape"
   xmlns:sodipodi="http://sodipodi.sourceforge.net/DTD/sodipodi-0.dtd"
   xmlns:xlink="http://www.w3.org/1999/xlink"
   xmlns="http://www.w3.org/2000/svg"
   xmlns:svg="http://www.w3.org/2000/svg"
   xmlns:rdf="http://www.w3.org/1999/02/22-rdf-syntax-ns#"
   xmlns:cc="http://creativecommons.org/ns#"
   xmlns:dc="http://purl.org/dc/elements/1.1/"><metadata
     id="metadata77"><rdf:RDF><cc:Work
         rdf:about=""><dc:format>image/svg+xml</dc:format><dc:type
           rdf:resource="http://purl.org/dc/dcmitype/StillImage" /><dc:title /></cc:Work></rdf:RDF></metadata><sodipodi:namedview
     pagecolor="#ffffff"
     bordercolor="#666666"
     borderopacity="1"
     objecttolerance="10"
     gridtolerance="10"
     guidetolerance="10"
     inkscape:pageopacity="0"
     inkscape:pageshadow="2"
     inkscape:window-width="1920"
     inkscape:window-height="1052"
     id="namedview75"
     showgrid="false"
     inkscape:zoom="2.3367669"
     inkscape:cx="22.466939"
     inkscape:cy="42.366228"
     inkscape:window-x="0"
     inkscape:window-y="28"
     inkscape:window-maximized="1"
     inkscape:current-layer="SimpleNote"
     inkscape:showpageshadow="2"
     inkscape:pagecheckerboard="0"
     inkscape:deskcolor="#d1d1d1" /><defs
     id="defs30"><linearGradient
       id="b"><stop
         offset="0"
         id="stop2" /><stop
         stop-opacity="0"
         offset="1"
         id="stop4" /></linearGradient><filter
       id="f"
       x="-0.060000001"
       y="-0.060000001"
       width="1.12"
       height="1.12"
       color-interpolation-filters="sRGB"><feGaussianBlur
         stdDeviation="0.79999999"
         id="feGaussianBlur7" /></filter><linearGradient
       id="q"
       x1="31.989"
       x2="31.967"
       y1="45.992"
       y2="18.279"
       gradientTransform="translate(2e-6)"
       gradientUnits="userSpaceOnUse"><stop
         stop-color="#b14de5"
         offset="0"
         id="stop10" /><stop
         stop-color="#58b1fe"
         offset="1"
         id="stop12" /></linearGradient><linearGradient
       id="p"
       x1="22.379"
       x2="25.662"
       y1="39.058"
       y2="39.058"
       gradientUnits="userSpaceOnUse"
       xlink:href="#b" /><linearGradient
       id="o"
       x1="37.506"
       x2="43.432"
       y1="35.746"
       y2="35.746"
       gradientUnits="userSpaceOnUse"
       xlink:href="#b" /><linearGradient
       id="n"
       x1="31.584"
       x2="41.135"
       y1="27.973"
       y2="27.973"
       gradientUnits="userSpaceOnUse"
       xlink:href="#b" /><linearGradient
       id="m"
       x1="43.43"
       x2="48"
       y1="34.732"
       y2="34.732"
       gradientUnits="userSpaceOnUse"
       xlink:href="#b" /><linearGradient
       id="l"
       x1="22.865"
       x2="32.521"
       y1="20.433"
       y2="20.433"
       gradientUnits="userSpaceOnUse"
       xlink:href="#b" /><linearGradient
       id="k"
       x1="16"
       x2="25.662"
       y1="27.005"
       y2="27.005"
       gradientUnits="userSpaceOnUse"
       xlink:href="#b" /><linearGradient
       id="j"
       x1="31.584"
       x2="41.135"
       y1="23.394"
       y2="23.394"
       gradientUnits="userSpaceOnUse"
       xlink:href="#b" /><linearGradient
       id="i"
       x1="25.662"
       x2="37.506"
       y1="34.403"
       y2="34.403"
       gradientUnits="userSpaceOnUse"
       xlink:href="#b" /><linearGradient
       id="h"
       x1="16"
       x2="25.662"
       y1="35.674"
       y2="35.674"
       gradientUnits="userSpaceOnUse"
       xlink:href="#b" /><linearGradient
       id="g"
       x1="25.661"
       x2="31.584"
       y1="26.826"
       y2="26.826"
       gradientUnits="userSpaceOnUse"
       xlink:href="#b" /><linearGradient
       id="linearGradient862-3"
       x1="7.9373"
       x2="7.9373"
       y1="15.081"
       y2="1.852"
       gradientTransform="matrix(3.7795 0 0 3.7795 .00014309 .031541)"
       gradientUnits="userSpaceOnUse"><stop
         stop-color="#f1efeb"
         offset="0"
         id="stop25" /><stop
         stop-color="#fdfcfc"
         offset="1"
         id="stop27" /></linearGradient><filter
       id="filter2761"
       x="-.024"
       y="-.024"
       width="1.048"
       height="1.048"
       color-interpolation-filters="sRGB"><feGaussianBlur
         stdDeviation="0.14552168"
         id="feGaussianBlur2" /></filter><linearGradient
       id="a-9"
       x1="23.487"
       x2="23.487"
       y1="15.18"
       y2="32.913"
       gradientTransform="matrix(.12676 0 0 .12676 -27.515 6.7925)"
       gradientUnits="userSpaceOnUse"><stop
         stop-color="#141414"
         offset="0"
         id="stop5" /><stop
         stop-color="#30277f"
         offset="1"
         id="stop7" /></linearGradient><radialGradient
       id="c-7"
       cx="24.047"
       cy="23.949"
       r="2.9867"
       gradientTransform="matrix(0.2056,-3.7539e-8,2.8431e-8,0.15571,-39.607,5.456)"
       gradientUnits="userSpaceOnUse"><stop
         stop-color="#2839e6"
         offset="0"
         id="stop10-3" /><stop
         stop-opacity="0"
         offset="1"
         id="stop12-6" /></radialGradient><linearGradient
       id="d-6"
       x1="361.36"
       x2="361.36"
       y1="616.07"
       y2="722.79"
       gradientTransform="matrix(.0040372 0 0 .0040372 -25.925 7.1257)"
       gradientUnits="userSpaceOnUse"><stop
         stop-color="#fff"
         offset="0"
         id="stop15" /><stop
         stop-color="#fff"
         stop-opacity="0"
         offset="1"
         id="stop17" /></linearGradient><radialGradient
       id="radialGradient123131"
       cx="-24.473"
       cy="9.8348"
       r="1.1409"
       gradientTransform="matrix(1.4202,0,0,1.0512,0.054505,-1.1471)"
       gradientUnits="userSpaceOnUse"
       xlink:href="#a-9" /><linearGradient
       id="linearGradient123141"
       x1="-24.485"
       x2="-24.485"
       y1="8.6962"
       y2="9.7506"
       gradientTransform="translate(-10.196,-0.6431)"
       gradientUnits="userSpaceOnUse"
       xlink:href="#d-6" /><linearGradient
       id="linearGradient123149"
       x1="-24.478"
       x2="-24.478"
       y1="11.104"
       y2="8.4912"
       gradientTransform="translate(-10.229,-0.6431)"
       gradientUnits="userSpaceOnUse"><stop
         stop-color="#2d1edc"
         offset="0"
         id="stop22" /><stop
         stop-color="#141414"
         offset="1"
         id="stop24" /></linearGradient><radialGradient
       id="radialGradient123155"
       cx="-24.473"
       cy="9.8348"
       r="1.1409"
       gradientTransform="matrix(1.1403,0,0,0.84405,-6.7958,0.89063)"
       gradientUnits="userSpaceOnUse"
       xlink:href="#a-9" /><linearGradient
       id="linearGradient123157"
       x1="-24.478"
       x2="-24.478"
       y1="11.104"
       y2="8.4912"
       gradientTransform="matrix(0.8029,0,0,0.8029,-15.053,1.2953)"
       gradientUnits="userSpaceOnUse"
       xlink:href="#a-9" /><radialGradient
       id="radialGradient123159"
       cx="-24.473"
       cy="9.8348"
       r="1.5211"
       gradientTransform="matrix(0.93082,0,0,0.93082,-11.889,0.037279)"
       gradientUnits="userSpaceOnUse"><stop
         stop-color="#291dc0"
         offset="0"
         id="stop29" /><stop
         stop-color="#1b1b23"
         offset="1"
         id="stop31" /></radialGradient><linearGradient
       id="linearGradient123161"
       x1="361.36"
       x2="361.36"
       y1="616.07"
       y2="722.79"
       gradientTransform="matrix(0.0040372,0,0,0.0040372,-36.122,6.4826)"
       gradientUnits="userSpaceOnUse"
       xlink:href="#d-6" /><linearGradient
       id="linearGradient123197"
       x1="-36.117"
       x2="-33.22"
       y1="10.638"
       y2="7.7404"
       gradientUnits="userSpaceOnUse"><stop
         offset="0"
         id="stop35" /><stop
         stop-opacity="0"
         offset="1"
         id="stop37" /></linearGradient><linearGradient
       id="linearGradient952"
       x1="-20.384"
       x2="-23.272"
       y1="6.1331"
       y2="15.312"
       gradientUnits="userSpaceOnUse"><stop
         stop-color="#232323"
         offset="0"
         id="stop40" /><stop
         stop-color="#323296"
         offset=".95004"
         id="stop42" /><stop
         stop-color="#232323"
         offset="1"
         id="stop44" /></linearGradient><linearGradient
       id="linearGradient1000"
       x1="-25.122"
       x2="-15.582"
       y1="9.3424"
       y2="9.3424"
       gradientUnits="userSpaceOnUse"><stop
         stop-color="#407fff"
         offset="0"
         id="stop47" /><stop
         stop-color="#ff407a"
         offset="1"
         id="stop49" /></linearGradient><linearGradient
       id="linearGradient1024"
       x1="1.3315"
       x2="15.65"
       y1="15.576"
       y2="1.17"
       gradientUnits="userSpaceOnUse"><stop
         stop-color="#dddfe1"
         offset="0"
         id="stop52" /><stop
         stop-color="#f3f4f6"
         stop-opacity=".99608"
         offset="1"
         id="stop54" /></linearGradient><filter
       color-interpolation-filters="sRGB"
       height="1.048"
       width="1.048"
       y="-.024"
       x="-.024"
       id="filter2761-3"><feGaussianBlur
         id="feGaussianBlur2-3"
         stdDeviation="0.14552168" /></filter><linearGradient
       gradientUnits="userSpaceOnUse"
       gradientTransform="matrix(3.7796 0 0 3.7796 -.0026448 .53066)"
       y2="1.17"
       y1="15.576"
       x2="15.65"
       x1="1.3315"
       id="linearGradient1024-6"><stop
         id="stop5-7"
         offset="0"
         stop-color="#dddfe1" /><stop
         id="stop7-5"
         offset="1"
         stop-opacity=".99608"
         stop-color="#f3f4f6" /></linearGradient><filter
       inkscape:collect="always"
       style="color-interpolation-filters:sRGB"
       id="filter1057"
       x="-0.026999999"
       width="1.054"
       y="-0.026999999"
       height="1.054"><feGaussianBlur
         inkscape:collect="always"
         stdDeviation="0.61875"
         id="feGaussianBlur1059" /></filter><linearGradient
       inkscape:collect="always"
       xlink:href="#q"
       id="linearGradient1176"
       gradientUnits="userSpaceOnUse"
       gradientTransform="translate(2e-6)"
       x1="31.989"
       y1="45.992"
       x2="31.967"
       y2="18.279" /><linearGradient
       inkscape:collect="always"
       xlink:href="#b"
       id="linearGradient1178"
       gradientUnits="userSpaceOnUse"
       x1="25.661"
       y1="26.826"
       x2="31.584"
       y2="26.826" /><linearGradient
       inkscape:collect="always"
       xlink:href="#b"
       id="linearGradient1180"
       gradientUnits="userSpaceOnUse"
       x1="16"
       y1="35.674"
       x2="25.662"
       y2="35.674" /><linearGradient
       inkscape:collect="always"
       xlink:href="#b"
       id="linearGradient1182"
       gradientUnits="userSpaceOnUse"
       x1="25.662"
       y1="34.403"
       x2="37.506"
       y2="34.403" /><linearGradient
       inkscape:collect="always"
       xlink:href="#b"
       id="linearGradient1184"
       gradientUnits="userSpaceOnUse"
       x1="31.584"
       y1="23.394"
       x2="41.135"
       y2="23.394" /><linearGradient
       inkscape:collect="always"
       xlink:href="#b"
       id="linearGradient1186"
       gradientUnits="userSpaceOnUse"
       x1="16"
       y1="27.005"
       x2="25.662"
       y2="27.005" /><linearGradient
       inkscape:collect="always"
       xlink:href="#b"
       id="linearGradient1188"
       gradientUnits="userSpaceOnUse"
       x1="22.865"
       y1="20.433"
       x2="32.521"
       y2="20.433" /><linearGradient
       inkscape:collect="always"
       xlink:href="#b"
       id="linearGradient1190"
       gradientUnits="userSpaceOnUse"
       x1="43.43"
       y1="34.732"
       x2="48"
       y2="34.732" /><linearGradient
       inkscape:collect="always"
       xlink:href="#b"
       id="linearGradient1192"
       gradientUnits="userSpaceOnUse"
       x1="31.584"
       y1="27.973"
       x2="41.135"
       y2="27.973" /><linearGradient
       inkscape:collect="always"
       xlink:href="#b"
       id="linearGradient1194"
       gradientUnits="userSpaceOnUse"
       x1="37.506"
       y1="35.746"
       x2="43.432"
       y2="35.746" /><linearGradient
       inkscape:collect="always"
       xlink:href="#b"
       id="linearGradient1196"
       gradientUnits="userSpaceOnUse"
       x1="22.379"
       y1="39.058"
       x2="25.662"
       y2="39.058" /><filter
       style="color-interpolation-filters:sRGB;"
       inkscape:label="Drop Shadow"
       id="filter3696"
       x="-0.075"
       y="-0.074948474"
       width="1.15"
       height="1.1498969"><feFlood
         flood-opacity="0.8"
         flood-color="rgb(0,0,0)"
         result="flood"
         id="feFlood3686" /><feComposite
         in="flood"
         in2="SourceGraphic"
         operator="out"
         result="composite1"
         id="feComposite3688" /><feGaussianBlur
         in="composite1"
         stdDeviation="1"
         result="blur"
         id="feGaussianBlur3690" /><feOffset
         dx="2.77556e-17"
         dy="0"
         result="offset"
         id="feOffset3692" /><feComposite
         in="offset"
         in2="SourceGraphic"
         operator="atop"
         result="composite2"
         id="feComposite3694" /></filter><filter
       inkscape:collect="always"
       style="color-interpolation-filters:sRGB"
       id="filter5669"
       x="-0.047999999"
       y="-0.047999999"
       width="1.096"
       height="1.096"><feGaussianBlur
         inkscape:collect="always"
         stdDeviation="0.9"
         id="feGaussianBlur5671" /></filter><filter
       style="color-interpolation-filters:sRGB;"
       inkscape:label="Drop Shadow"
       id="filter5757"
       x="-0.053333333"
       y="-0.053333273"
       width="1.1066667"
       height="1.1066665"><feFlood
         flood-opacity="0.501961"
         flood-color="rgb(0,0,0)"
         result="flood"
         id="feFlood5747" /><feComposite
         in="flood"
         in2="SourceGraphic"
         operator="in"
         result="composite1"
         id="feComposite5749" /><feGaussianBlur
         in="composite1"
         stdDeviation="1"
         result="blur"
         id="feGaussianBlur5751" /><feOffset
         dx="2.77556e-17"
         dy="0"
         result="offset"
         id="feOffset5753" /><feComposite
         in="offset"
         in2="SourceGraphic"
         operator="out"
         result="composite2"
         id="feComposite5755" /></filter><filter
       inkscape:collect="always"
       style="color-interpolation-filters:sRGB"
       id="filter5895"
       x="-0.026999999"
       y="-0.026999999"
       width="1.054"
       height="1.054"><feGaussianBlur
         inkscape:collect="always"
         stdDeviation="0.225"
         id="feGaussianBlur5897" /></filter></defs><rect
     ry="15"
     y="4.4999995"
     x="4.4999995"
     height="55"
     width="55"
     id="rect1055"
     style="opacity:0.3;fill:#141414;fill-opacity:1;stroke-width:2.74436;stroke-linecap:round;filter:url(#filter1057)" /><path
     d="m22.866 17v15.355h-6.8659l15.999 16.645 16.001-16.645h-6.8659v-15.355z"
     filter="url(#f)"
     opacity=".15"
     id="path48" /><path
     id="rect1302"
     style="fill:#7a84ed;fill-opacity:1;stroke-width:2;stroke-linecap:round;stroke-linejoin:round;paint-order:stroke fill markers"
     d="M 22.865234 17 L 22.865234 21.056641 L 22.865234 21.068359 L 22.865234 26.662109 L 22.865234 32.355469 L 16 32.355469 L 22.378906 38.992188 L 25.662109 42.40625 L 28.185547 45.03125 L 32 49 L 43.429688 37.109375 L 43.431641 37.107422 L 44.699219 35.789062 L 46.662109 33.748047 L 47.015625 33.378906 L 48 32.355469 L 41.134766 32.355469 L 41.134766 32.080078 L 41.134766 20.236328 L 41.134766 17 L 22.865234 17 z " /><g
     id="g5223"
     transform="matrix(0.88533952,-0.88533952,0.88533952,0.88533952,29.913186,56.697663)"><path
       id="path5187"
       style="fill:#2679e0;fill-opacity:1;stroke-width:0.478"
       d="m 22.726047,-36.151223 -7.605442,7.61206 0.0033,0.0011 h 0.0022 v 15.266036 l 0.0022,-0.0022 v -15.261623 -0.0022 l 7.604339,-7.606545 c -0.0024,-0.002 -0.0042,-0.0047 -0.0066,-0.0066 z m 7.696994,38.189357 -7.65177,-7.6385332 -0.0011,0.056255 L 7.4820716,9.7461585 V -5.5441443 l 5.3155364,-5.3751007 -5.3166394,5.3166397 -0.0011,0.0011 V 10.569024 C 12.188743,14.489569 19.150179,14.248285 23.578695,9.8399167 l 0.01985,-0.019855 6.824492,-6.8266977 z m -30.58722385,-30.576194 -5.80307915,5.80308 5.80307915,-5.800873 z m 0.001103,30.5817092 h -0.002206 v 0.9552303 l 0.002206,0.00221 z" /><path
       id="path5189"
       style="fill:#26a269;fill-opacity:1;stroke-width:0.478"
       d="m 15.127223,-28.539163 -7.6462544,7.646255 V -5.6026053 L 15.12612,-13.247757 Z" /><path
       id="path5191"
       style="fill:#813d9c;fill-opacity:1;stroke-width:0.478"
       d="m -0.15425551,-13.25989 -7.65618179,7.6583878 v 0.9375816 c 0.1135244,0.1232482 0.2278343,0.2454829 0.3474567,0.3651054 l 7.29769472,7.2976947 V 2.0436492 L 7.4798655,-5.6015022 Z" /><path
       id="path5193"
       style="fill:#98c1f1;fill-opacity:1;stroke-width:0.478"
       d="M 22.721635,-20.951369 7.4809686,-5.5452473 V 9.7472616 L 22.772374,-5.5441443 Z" /><path
       id="path5195"
       style="fill:#2ec27e;fill-opacity:1;stroke-width:0.478"
       d="m 23.553325,-35.403364 c -0.264554,-0.261878 -0.539176,-0.508961 -0.82066,-0.741241 l -7.604339,7.606545 -0.0011,15.2892 15.290303,-15.290303 z" /><path
       id="path5197"
       style="fill:#613583;fill-opacity:1;stroke-width:0.478"
       d="m -0.14874032,-28.553502 -5.81741868,5.817419 -1.6082283,1.61264 c -4.4608057,4.579999 -4.5399257,11.7870037 -0.23605,16.4595224 V -5.6015022 L 7.4798655,-20.891805 Z" /><path
       id="path5199"
       style="fill:#f5c211;fill-opacity:1;stroke-width:0.478"
       d="m 22.724944,-36.152326 c -4.699331,-3.870831 -11.609603,-3.620613 -16.0238228,0.748962 l -6.86530405,6.865304 7.64404835,7.646255 z" /><path
       id="path5201"
       style="fill:#e01b24;fill-opacity:1;stroke-width:0.478"
       d="m 30.417526,-28.539163 -0.03088,16.199206 7.676036,7.6782425 c 4.320327,-4.6879944 4.227664,-11.9296895 -0.27797,-16.5080555 z" /><path
       id="path5203"
       style="fill:#ff7800;fill-opacity:1;stroke-width:0.478"
       d="m 30.417526,-28.539163 -15.291406,15.291406 7.645151,7.6473578 7.646255,-7.6462548 z" /><path
       id="path5205"
       style="fill:#58ce98;fill-opacity:1;stroke-width:0.478"
       d="m 23.553325,-35.403364 c -0.264554,-0.261878 -0.539176,-0.508961 -0.82066,-0.741241 l -7.606545,7.606545 7.646254,7.646255 7.645152,-7.647358 z" /><path
       id="path5207"
       style="stroke-width:0.478"
       d="m -0.16418285,-28.53806 -7.29879775,7.296592 c -0.00628,0.0063 -0.012492,0.01247 -0.018752,0.01875 -0.1039061,0.104354 -0.2029518,0.212774 -0.3022322,0.319881 z" /><path
       id="path5209"
       style="fill:#e5a50a;fill-opacity:1;stroke-width:0.478"
       d="M 15.12612,-28.53806 H -0.16638892 l 7.64625442,7.646255 z" /><path
       id="path5211"
       style="fill:#ffa348;fill-opacity:1;stroke-width:0.478"
       d="m 30.417526,-13.246654 -7.646255,7.6462548 7.650667,7.6396362 z" /><path
       id="path5213"
       style="stroke-width:0.478"
       d="m 15.12612,-13.247757 -7.6385332,-7.589999 -0.00772,15.2362538 z" /><path
       id="path5215"
       style="fill:#f66151;fill-opacity:1;stroke-width:0.478"
       d="m 30.417526,-13.246654 0.0055,16.2400183 7.337404,-7.337404 c 0.103411,-0.1044678 0.203436,-0.2104713 0.302232,-0.3176748 V -5.592678 Z" /><path
       id="path5217"
       style="fill:#c061cb;fill-opacity:1;stroke-width:0.478"
       d="m 7.4798655,-5.6015022 -7.64404835,7.6440483 0.001103,0.9585394 6.81897655,6.8189765 c 0.2659493,0.265949 0.541775,0.514258 0.8250719,0.750065 z" /><path
       id="path5219"
       style="fill:#1a5fb4;fill-opacity:1;stroke-width:0.478"
       d="m 7.4809686,-20.892908 -7.64515145,7.645151 H 15.12612 Z" /><path
       id="path5221"
       style="fill:#3584e4;fill-opacity:1;stroke-width:0.478"
       d="m 15.12612,-13.247757 -15.27927247,-0.01103 7.63301797,7.6572848 z" /></g><g
     id="g5613"
     style="filter:url(#filter5669)"
     transform="translate(79.595704,59.500001)"><path
       id="path1696"
       style="fill:#2679e0;fill-opacity:1;stroke-width:0.598484"
       d="m -61.554688,-45.083984 a 22.5,22.5 0 0 0 -0.0098,0.0059 l 0.002,3.623047 0.0039,-0.002 0.002,-0.002 13.515625,13.515625 v -0.0039 l -13.511718,-13.511718 -0.002,-0.002 z m 36.449219,17.15625 -9.375,0.0078 0.04883,0.05078 0.002,18.5507816 A 22.5,22.5 0 0 0 -25.095703,-27.5 a 22.5,22.5 0 0 0 -0.0098,-0.427734 z m -22.914062,4.128906 v 9.414062 0.002 l 8.007812,8.007812 a 22.5,22.5 0 0 0 0.0039,0 l -7.958985,-7.958984 z" /><path
       id="path1698"
       style="fill:#26a269;fill-opacity:1;stroke-width:0.598484"
       d="m -61.556641,-41.460938 v 13.539063 l 13.53711,13.537109 v -13.537109 z" /><path
       id="path1700"
       style="fill:#813d9c;fill-opacity:1;stroke-width:0.598484"
       d="m -61.558594,-14.404297 v 4.4882814 a 22.5,22.5 0 0 0 13.539063,4.8867187 v -9.3535151 z" /><path
       id="path1702"
       style="fill:#98c1f1;fill-opacity:1;stroke-width:0.598484"
       d="m -48.115234,-41.466797 0.146484,27.132813 7.958984,7.958984 a 22.5,22.5 0 0 0 5.580078,-2.9453125 V -27.871094 Z" /><path
       id="path1704"
       style="fill:#2ec27e;fill-opacity:1;stroke-width:0.598484"
       d="m -48.019531,-49.96875 a 22.5,22.5 0 0 0 -13.535157,4.884766 v 3.623046 l 13.535157,13.53711 z" /><path
       id="path1706"
       style="fill:#613583;fill-opacity:1;stroke-width:0.598484"
       d="m -70.064453,-27.9375 a 22.5,22.5 0 0 0 -0.03125,0.4375 22.5,22.5 0 0 0 8.539062,17.5839844 V -27.919922 Z" /><path
       id="path1708"
       style="fill:#f5c211;fill-opacity:1;stroke-width:0.598484"
       d="m -61.564453,-45.076172 a 22.5,22.5 0 0 0 -8.5,17.154297 l 8.507812,0.002 z" /><path
       id="path1710"
       style="fill:#e01b24;fill-opacity:1;stroke-width:0.598484"
       d="m -42.435547,-49.392578 8.730469,8.763672 h 4.375 a 22.5,22.5 0 0 0 -13.105469,-8.763672 z" /><path
       id="path1712"
       style="fill:#ff7800;fill-opacity:1;stroke-width:0.598484"
       d="m -47.595703,-50 a 22.5,22.5 0 0 0 -0.423828,0.03125 v 22.046875 l 13.539062,0.002 v -13.539062 l -7.927734,-7.927735 A 22.5,22.5 0 0 0 -47.595703,-50 Z" /><path
       id="path1714"
       style="fill:#58ce98;fill-opacity:1;stroke-width:0.598484"
       d="m -48.019531,-49.96875 a 22.5,22.5 0 0 0 -13.53711,4.886719 v 3.623047 h 13.539063 z" /><path
       id="path1718"
       style="fill:#e5a50a;fill-opacity:1;stroke-width:0.598484"
       d="m -61.556641,-41.458984 -7.628906,7.628906 a 22.5,22.5 0 0 0 -0.880859,5.910156 h 8.509765 z" /><path
       id="path1720"
       style="fill:#ffa348;fill-opacity:1;stroke-width:0.598484"
       d="m -34.480469,-41.458984 v 13.539062 l 9.375,-0.0059 a 22.5,22.5 0 0 0 -0.601562,-4.765625 z" /><path
       id="path1722"
       style="stroke-width:0.598484"
       d="m -48.019531,-27.921875 -13.482422,0.04297 13.482422,13.496094 z" /><path
       id="path1724"
       style="fill:#f66151;fill-opacity:1;stroke-width:0.598484"
       d="m -34.480469,-41.458984 8.773438,8.767578 a 22.5,22.5 0 0 0 -4.248047,-8.765625 z" /><path
       id="path1726"
       style="fill:#c061cb;fill-opacity:1;stroke-width:0.598484"
       d="m -48.019531,-14.382812 v 9.3535151 A 22.5,22.5 0 0 0 -47.595703,-5 a 22.5,22.5 0 0 0 7.585937,-1.375 z" /><path
       id="path1728"
       style="fill:#1a5fb4;fill-opacity:1;stroke-width:0.598484"
       d="m -61.556641,-27.921875 v 13.537109 l 13.53711,-13.537109 z" /><path
       id="path1730"
       style="fill:#3584e4;fill-opacity:1;stroke-width:0.598484"
       d="m -48.019531,-27.921875 -13.53711,13.517578 13.53711,0.02149 z" /></g><path
     id="path5615"
     style="fill:#ffffff;fill-opacity:0.7;stroke-width:0.598484"
     d="m 32,9.4999765 a 22.5,22.5 0 0 0 -0.423828,0.03125 22.5,22.5 0 0 0 -1.90625,0.128906 22.5,22.5 0 0 0 -0.550781,0.07227 22.5,22.5 0 0 0 -1.341797,0.216797 22.5,22.5 0 0 0 -0.634766,0.1289065 22.5,22.5 0 0 0 -1.398437,0.363281 22.5,22.5 0 0 0 -0.435547,0.121094 22.5,22.5 0 0 0 -1.785156,0.644531 22.5,22.5 0 0 0 -0.402344,0.179688 22.5,22.5 0 0 0 -1.337891,0.628906 22.5,22.5 0 0 0 -0.537109,0.287109 22.5,22.5 0 0 0 -1.173828,0.691407 22.5,22.5 0 0 0 -0.494141,0.3125 22.5,22.5 0 0 0 -1.505859,1.08789 22.5,22.5 0 0 0 -0.03125,0.02148 22.5,22.5 0 0 0 -0.002,0.002 22.5,22.5 0 0 0 -0.0078,0.0039 v 0.002 a 22.5,22.5 0 0 0 -7.542969,11.167969 l -0.07813,0.07813 A 22.5,22.5 0 0 0 9.529297,31.580055 22.5,22.5 0 0 0 9.5,31.999977 22.5,22.5 0 0 0 18.037109,49.582008 v 0.002 a 22.5,22.5 0 0 0 0.002,0 22.5,22.5 0 0 0 13.537109,4.886719 22.5,22.5 0 0 0 0.423828,0.0293 22.5,22.5 0 0 0 7.583985,-1.375 22.5,22.5 0 0 0 0.002,0 h 0.002 a 22.5,22.5 0 0 0 5.578125,-2.945313 v 0.002 A 22.5,22.5 0 0 0 54.5,31.999977 a 22.5,22.5 0 0 0 -0.0098,-0.425781 22.5,22.5 0 0 0 0,-0.002 22.5,22.5 0 0 0 -0.601563,-4.763671 22.5,22.5 0 0 0 -3.632813,-7.9375 h 0.0098 a 22.5,22.5 0 0 0 -0.253906,-0.328125 22.5,22.5 0 0 0 -0.371094,-0.5 H 49.625 A 22.5,22.5 0 0 0 37.189453,10.115165 l -0.002,-0.002 A 22.5,22.5 0 0 0 32,9.4999765 Z" /><path
     id="path5673"
     style="fill:#ffffff;fill-opacity:0.7;stroke-width:0.598484;filter:url(#filter5757)"
     d="m 32,9.4999765 a 22.5,22.5 0 0 0 -0.423828,0.03125 22.5,22.5 0 0 0 -1.90625,0.128906 22.5,22.5 0 0 0 -0.550781,0.07227 22.5,22.5 0 0 0 -1.341797,0.216797 22.5,22.5 0 0 0 -0.634766,0.1289065 22.5,22.5 0 0 0 -1.398437,0.363281 22.5,22.5 0 0 0 -0.435547,0.121094 22.5,22.5 0 0 0 -1.785156,0.644531 22.5,22.5 0 0 0 -0.402344,0.179688 22.5,22.5 0 0 0 -1.337891,0.628906 22.5,22.5 0 0 0 -0.537109,0.287109 22.5,22.5 0 0 0 -1.173828,0.691407 22.5,22.5 0 0 0 -0.494141,0.3125 22.5,22.5 0 0 0 -1.505859,1.08789 22.5,22.5 0 0 0 -0.03125,0.02148 22.5,22.5 0 0 0 -0.002,0.002 22.5,22.5 0 0 0 -0.0078,0.0039 v 0.002 a 22.5,22.5 0 0 0 -7.542969,11.167969 l -0.07813,0.07813 A 22.5,22.5 0 0 0 9.529297,31.580055 22.5,22.5 0 0 0 9.5,31.999977 22.5,22.5 0 0 0 18.037109,49.582008 v 0.002 a 22.5,22.5 0 0 0 0.002,0 22.5,22.5 0 0 0 13.537109,4.886719 22.5,22.5 0 0 0 0.423828,0.0293 22.5,22.5 0 0 0 7.583985,-1.375 22.5,22.5 0 0 0 0.002,0 h 0.002 a 22.5,22.5 0 0 0 5.578125,-2.945313 v 0.002 A 22.5,22.5 0 0 0 54.5,31.999977 a 22.5,22.5 0 0 0 -0.0098,-0.425781 22.5,22.5 0 0 0 0,-0.002 22.5,22.5 0 0 0 -0.601563,-4.763671 22.5,22.5 0 0 0 -3.632813,-7.9375 h 0.0098 a 22.5,22.5 0 0 0 -0.253906,-0.328125 22.5,22.5 0 0 0 -0.371094,-0.5 H 49.625 A 22.5,22.5 0 0 0 37.189453,10.115165 l -0.002,-0.002 A 22.5,22.5 0 0 0 32,9.4999765 Z" /><path
     id="path5837"
     style="fill:#000000;stroke-width:0.23134;fill-opacity:1;filter:url(#filter5895);opacity:0.2"
     d="M 26.291016 24 L 26.291016 26.542969 L 26.291016 30.039062 L 26.291016 33.597656 L 25.986328 33.597656 L 22.730469 33.597656 L 22 33.597656 L 22.359375 33.970703 L 25.986328 37.744141 L 28.039062 39.878906 L 29.615234 41.519531 L 32 44 L 37.759766 38.007812 L 38.677734 37.052734 L 39.144531 36.568359 L 39.144531 36.566406 L 41.164062 34.466797 L 41.384766 34.236328 L 42 33.597656 L 39.144531 33.597656 L 39.142578 33.597656 L 37.708984 33.597656 L 37.708984 33.425781 L 37.708984 26.023438 L 37.708984 24 L 32.330078 24 L 32.326172 24 L 26.291016 24 z " /><g
     stroke-width="0.37015"
     id="g1174"
     transform="matrix(0.62499023,0,0,0.62499023,12.000281,13.375322)"><path
       d="m 22.865,17 v 15.355 h -6.8652 l 16,16.645 16,-16.645 H 41.1346 V 17 Z"
       fill="url(#q)"
       id="path1152"
       style="fill:url(#linearGradient1176)" /><path
       d="m 25.661,23.865 5.9223,-5.9223 v 11.845 L 25.661,35.71 Z"
       fill="url(#g)"
       opacity="0.15"
       id="path1154"
       style="fill:url(#linearGradient1178)" /><path
       d="m 16,32.355 6.3789,6.6367 3.2832,-3.2832 -3.2832,-3.3535 z"
       fill="url(#h)"
       opacity="0.15"
       id="path1156"
       style="fill:url(#linearGradient1180)" /><path
       d="M 37.467,23.775 25.662,35.709 v 6.6973 l 2.5234,2.625 9.3203,-9.3223 z"
       fill="url(#i)"
       opacity="0.15"
       id="path1158"
       style="fill:url(#linearGradient1182)" /><path
       d="m 32.527,17 -0.94336,0.94336 v 11.844 l 9.5508,-9.5508 v -3.2363 z"
       fill="url(#j)"
       opacity="0.15"
       id="path1160"
       style="fill:url(#linearGradient1184)" /><path
       d="m 22.865,21.057 v 5.6055 l 2.7969,-2.7969 z m -6.8652,11.299 0.57422,0.59766 0.5957,-0.59766 z"
       fill="url(#k)"
       opacity="0.15"
       id="path1162"
       style="fill:url(#linearGradient1186)" /><path
       d="m 22.865,17 v 4.0684 l 2.7969,2.7969 6.8594,-6.8652 z"
       fill="url(#l)"
       opacity="0.15"
       id="path1164"
       style="fill:url(#linearGradient1188)" /><path
       d="m 43.43,32.355 v 4.7539 l 3.2324,-3.3613 0.35352,-0.36914 0.98438,-1.0234 h -2.7305 z"
       fill="url(#m)"
       opacity="0.15"
       id="path1166"
       style="fill:url(#linearGradient1190)" /><path
       d="m 41.135,20.236 -9.5508,9.5508 5.9219,5.9219 3.6289,-3.6289 z"
       fill="url(#n)"
       opacity="0.15"
       id="path1168"
       style="fill:url(#linearGradient1192)" /><path
       d="m 41.135,32.08 -3.6289,3.6289 3.7109,3.7031 2.2148,-2.3047 -0.002,-4.752 h -2.2949 z"
       fill="url(#o)"
       opacity="0.15"
       id="path1170"
       style="fill:url(#linearGradient1194)" /><path
       d="m 25.662,35.709 -3.2832,3.2832 3.2832,3.4141 z"
       fill="url(#p)"
       opacity="0.15"
       id="path1172"
       style="fill:url(#linearGradient1196)" /></g></svg>
