<svg id="SimpleNote" enable-background="new 0 0 1024 1024" image-rendering="optimizeSpeed" version="1.1" viewBox="0 0 64 64" xmlns="http://www.w3.org/2000/svg" xmlns:xlink="http://www.w3.org/1999/xlink">
    <defs id="defs30">
        <linearGradient id="b">
            <stop id="stop2" offset="0"/>
            <stop id="stop4" stop-opacity="0" offset="1"/>
        </linearGradient>
        <filter id="f" x="-.060000001" y="-.060000001" width="1.12" height="1.12" color-interpolation-filters="sRGB">
            <feGaussianBlur id="feGaussianBlur7" stdDeviation="0.79999999"/>
        </filter>
        <filter id="filter1057" x="-.026999999" y="-.026999999" width="1.054" height="1.054" color-interpolation-filters="sRGB">
            <feGaussianBlur id="feGaussianBlur1059" stdDeviation="0.61875"/>
        </filter>
        <linearGradient id="linearGradient1176" x1="31.989" x2="31.967" y1="45.992" y2="18.279" gradientTransform="translate(2e-6)" gradientUnits="userSpaceOnUse">
            <stop id="stop10" stop-color="#b14de5" offset="0"/>
            <stop id="stop12" stop-color="#58b1fe" offset="1"/>
        </linearGradient>
        <linearGradient id="linearGradient1178" x1="25.661" x2="31.584" y1="26.826" y2="26.826" gradientUnits="userSpaceOnUse" xlink:href="#b"/>
        <linearGradient id="linearGradient1180" x1="16" x2="25.662" y1="35.674" y2="35.674" gradientUnits="userSpaceOnUse" xlink:href="#b"/>
        <linearGradient id="linearGradient1182" x1="25.662" x2="37.506" y1="34.403" y2="34.403" gradientUnits="userSpaceOnUse" xlink:href="#b"/>
        <linearGradient id="linearGradient1184" x1="31.584" x2="41.135" y1="23.394" y2="23.394" gradientUnits="userSpaceOnUse" xlink:href="#b"/>
        <linearGradient id="linearGradient1186" x1="16" x2="25.662" y1="27.005" y2="27.005" gradientUnits="userSpaceOnUse" xlink:href="#b"/>
        <linearGradient id="linearGradient1188" x1="22.865" x2="32.521" y1="20.433" y2="20.433" gradientUnits="userSpaceOnUse" xlink:href="#b"/>
        <linearGradient id="linearGradient1190" x1="43.43" x2="48" y1="34.732" y2="34.732" gradientUnits="userSpaceOnUse" xlink:href="#b"/>
        <linearGradient id="linearGradient1192" x1="31.584" x2="41.135" y1="27.973" y2="27.973" gradientUnits="userSpaceOnUse" xlink:href="#b"/>
        <linearGradient id="linearGradient1194" x1="37.506" x2="43.432" y1="35.746" y2="35.746" gradientUnits="userSpaceOnUse" xlink:href="#b"/>
        <linearGradient id="linearGradient1196" x1="22.379" x2="25.662" y1="39.058" y2="39.058" gradientUnits="userSpaceOnUse" xlink:href="#b"/>
        <filter id="filter5669" x="-.047999999" y="-.047999999" width="1.096" height="1.096" color-interpolation-filters="sRGB">
            <feGaussianBlur id="feGaussianBlur5671" stdDeviation="0.9"/>
        </filter>
        <filter id="filter5757" x="-.053333333" y="-.053333273" width="1.1066667" height="1.1066665" color-interpolation-filters="sRGB">
            <feFlood id="feFlood5747" flood-color="rgb(0,0,0)" flood-opacity=".501961" result="flood"/>
            <feComposite id="feComposite5749" in="flood" in2="SourceGraphic" operator="in" result="composite1"/>
            <feGaussianBlur id="feGaussianBlur5751" in="composite1" result="blur" stdDeviation="1"/>
            <feOffset id="feOffset5753" dx="2.77556e-17" dy="0" result="offset"/>
            <feComposite id="feComposite5755" in="offset" in2="SourceGraphic" operator="out" result="composite2"/>
        </filter>
        <filter id="filter5895" x="-.026999999" y="-.026999999" width="1.054" height="1.054" color-interpolation-filters="sRGB">
            <feGaussianBlur id="feGaussianBlur5897" stdDeviation="0.225"/>
        </filter>
    </defs>
    <rect id="rect1055" x="4.4999995" y="4.4999995" width="55" height="55" ry="15" fill="#141414" filter="url(#filter1057)" opacity=".3" stroke-linecap="round" stroke-width="2.74436"/>
    <path id="path48" d="m22.866 17v15.355h-6.8659l15.999 16.645 16.001-16.645h-6.8659v-15.355z" filter="url(#f)" opacity=".15"/>
    <path id="rect1302" d="m22.865234 17v4.056641 0.011718 5.59375 5.69336h-6.865234l6.378906 6.636719 3.283203 3.414062 2.523438 2.625 3.814453 3.96875 11.429688-11.890625 0.001953-0.001953 1.267578-1.31836 1.96289-2.041015 0.353516-0.369141 0.984375-1.023437h-6.865234v-0.275391-11.84375-3.236328h-18.269532z" fill="#7a84ed" stroke-linecap="round" stroke-linejoin="round" stroke-width="2" style="paint-order:stroke fill markers"/>
    <g id="g5223" transform="matrix(.88533952 -.88533952 .88533952 .88533952 29.913186 56.697663)" stroke-width=".478">
        <g>
            <path id="path5187" d="m22.726047-36.151223-7.605442 7.61206 0.0033 0.0011h0.0022v15.266036l0.0022-0.0022v-15.263823l7.604339-7.606545c-0.0024-2e-3 -0.0042-0.0047-0.0066-0.0066zm7.696994 38.189357-7.65177-7.6385332-0.0011 0.056255-15.288099 15.290303v-15.290303l5.3155364-5.3751007-5.3166394 5.3166397-0.0011 0.0011v16.170529c4.7088744 3.920545 11.67031 3.679261 16.098826-0.7291073l0.01985-0.019855 6.824492-6.8266977zm-30.587224-30.576194-5.8030792 5.80308 5.8030792-5.800873zm0.001103 30.581709h-0.002206v0.9552303l0.002206 0.00221z" fill="#2679e0"/>
            <path id="path5189" d="m15.127223-28.539163-7.6462544 7.646255v15.290303l7.6451514-7.6451517z" fill="#26a269"/>
            <path id="path5191" d="m-0.15425551-13.25989-7.6561818 7.6583878v0.9375816c0.1135244 0.1232482 0.2278343 0.2454829 0.3474567 0.3651054l7.2976947 7.2976947v-0.9552303l7.6451514-7.6451514z" fill="#813d9c"/>
            <path id="path5193" d="m22.721635-20.951369-15.240666 15.406122v15.292509l15.291405-15.291406z" fill="#98c1f1"/>
            <path id="path5195" d="m23.553325-35.403364c-0.264554-0.261878-0.539176-0.508961-0.82066-0.741241l-7.604339 7.606545-0.0011 15.2892 15.290303-15.290303z" fill="#2ec27e"/>
            <path id="path5197" d="m-0.14874032-28.553502-5.8174187 5.817419-1.6082283 1.61264c-4.4608057 4.579999-4.5399257 11.787004-0.23605 16.459522v-0.9375816l15.290303-15.290303z" fill="#613583"/>
            <path id="path5199" d="m22.724944-36.152326c-4.699331-3.870831-11.609603-3.620613-16.023823 0.748962l-6.865304 6.865304 7.6440484 7.646255z" fill="#f5c211"/>
            <path id="path5201" d="m30.417526-28.539163-0.03088 16.199206 7.676036 7.6782425c4.320327-4.6879944 4.227664-11.92969-0.27797-16.508056z" fill="#e01b24"/>
            <path id="path5203" d="m30.417526-28.539163-15.291406 15.291406 7.645151 7.6473578 7.646255-7.6462548z" fill="#ff7800"/>
            <path id="path5205" d="m23.553325-35.403364c-0.264554-0.261878-0.539176-0.508961-0.82066-0.741241l-7.606545 7.606545 7.646254 7.646255 7.645152-7.647358z" fill="#58ce98"/>
        </g>
        <path id="path5207" d="m-0.16418285-28.53806-7.2987978 7.296592c-0.00628 0.0063-0.012492 0.01247-0.018752 0.01875-0.1039061 0.104354-0.2029518 0.212774-0.3022322 0.319881z"/>
        <path id="path5209" d="m15.12612-28.53806h-15.292509l7.6462544 7.646255z" fill="#e5a50a"/>
        <path id="path5211" d="m30.417526-13.246654-7.646255 7.6462548 7.650667 7.6396362z" fill="#ffa348"/>
        <path id="path5213" d="m15.12612-13.247757-7.6385332-7.589999-0.00772 15.236254z"/>
        <g>
            <path id="path5215" d="m30.417526-13.246654 0.0055 16.240018 7.337404-7.337404c0.103411-0.1044678 0.203436-0.2104713 0.302232-0.3176748v-0.9309635z" fill="#f66151"/>
            <path id="path5217" d="m7.4798655-5.6015022-7.6440484 7.6440483 0.001103 0.9585394 6.8189766 6.8189765c0.2659493 0.265949 0.541775 0.514258 0.8250719 0.750065z" fill="#c061cb"/>
            <path id="path5219" d="m7.4809686-20.892908-7.6451514 7.645151h15.290303z" fill="#1a5fb4"/>
            <path id="path5221" d="m15.12612-13.247757-15.279272-0.01103 7.633018 7.6572848z" fill="#3584e4"/>
        </g>
    </g>
    <g id="g5613" transform="translate(79.595704,59.500001)" filter="url(#filter5669)" stroke-width=".598484">
        <g>
            <path id="path1696" d="m-61.554688-45.083984a22.5 22.5 0 0 0-0.0098 0.0059l2e-3 3.623047 0.0039-2e-3 2e-3 -2e-3 13.515625 13.515625v-0.0039l-13.513718-13.513718zm36.449219 17.15625-9.375 0.0078 0.04883 0.05078 2e-3 18.550782a22.5 22.5 0 0 0 9.333936-18.181628 22.5 22.5 0 0 0-0.0098-0.427734zm-22.914062 4.128906v9.416062l8.007812 8.007812a22.5 22.5 0 0 0 0.0039 0l-7.958985-7.958984z" fill="#2679e0"/>
            <path id="path1698" d="m-61.556641-41.460938v13.539063l13.53711 13.537109v-13.537109z" fill="#26a269"/>
            <path id="path1700" d="m-61.558594-14.404297v4.4882814a22.5 22.5 0 0 0 13.539063 4.8867187v-9.3535151z" fill="#813d9c"/>
            <path id="path1702" d="m-48.115234-41.466797 0.146484 27.132813 7.958984 7.958984a22.5 22.5 0 0 0 5.580078-2.9453125v-18.550782z" fill="#98c1f1"/>
            <path id="path1704" d="m-48.019531-49.96875a22.5 22.5 0 0 0-13.535157 4.884766v3.623046l13.535157 13.53711z" fill="#2ec27e"/>
            <path id="path1706" d="m-70.064453-27.9375a22.5 22.5 0 0 0-0.03125 0.4375 22.5 22.5 0 0 0 8.539062 17.583984v-18.003906z" fill="#613583"/>
            <path id="path1708" d="m-61.564453-45.076172a22.5 22.5 0 0 0-8.5 17.154297l8.507812 2e-3z" fill="#f5c211"/>
            <path id="path1710" d="m-42.435547-49.392578 8.730469 8.763672h4.375a22.5 22.5 0 0 0-13.105469-8.763672z" fill="#e01b24"/>
            <path id="path1712" d="m-47.595703-50a22.5 22.5 0 0 0-0.423828 0.03125v22.046875l13.539062 2e-3v-13.539062l-7.927734-7.927735a22.5 22.5 0 0 0-5.1875-0.613328z" fill="#ff7800"/>
            <path id="path1714" d="m-48.019531-49.96875a22.5 22.5 0 0 0-13.53711 4.886719v3.623047h13.539063z" fill="#58ce98"/>
            <path id="path1718" d="m-61.556641-41.458984-7.628906 7.628906a22.5 22.5 0 0 0-0.880859 5.910156h8.509765z" fill="#e5a50a"/>
            <path id="path1720" d="m-34.480469-41.458984v13.539062l9.375-0.0059a22.5 22.5 0 0 0-0.601562-4.765625z" fill="#ffa348"/>
        </g>
        <path id="path1722" d="m-48.019531-27.921875-13.482422 0.04297 13.482422 13.496094z"/>
        <g>
            <path id="path1724" d="m-34.480469-41.458984 8.773438 8.767578a22.5 22.5 0 0 0-4.248047-8.765625z" fill="#f66151"/>
            <path id="path1726" d="m-48.019531-14.382812v9.3535151a22.5 22.5 0 0 0 0.423828 0.0292969 22.5 22.5 0 0 0 7.585937-1.375z" fill="#c061cb"/>
            <path id="path1728" d="m-61.556641-27.921875v13.537109l13.53711-13.537109z" fill="#1a5fb4"/>
            <path id="path1730" d="m-48.019531-27.921875-13.53711 13.517578 13.53711 0.02149z" fill="#3584e4"/>
        </g>
    </g>
    <path id="path5615" d="m32 9.4999765a22.5 22.5 0 0 0-0.423828 0.03125 22.5 22.5 0 0 0-1.90625 0.128906 22.5 22.5 0 0 0-0.550781 0.07227 22.5 22.5 0 0 0-1.341797 0.216797 22.5 22.5 0 0 0-0.634766 0.1289065 22.5 22.5 0 0 0-1.398437 0.363281 22.5 22.5 0 0 0-0.435547 0.121094 22.5 22.5 0 0 0-1.785156 0.644531 22.5 22.5 0 0 0-0.402344 0.179688 22.5 22.5 0 0 0-1.337891 0.628906 22.5 22.5 0 0 0-0.537109 0.287109 22.5 22.5 0 0 0-1.173828 0.691407 22.5 22.5 0 0 0-0.494141 0.3125 22.5 22.5 0 0 0-1.505859 1.08789 22.5 22.5 0 0 0-0.03125 0.02148 22.5 22.5 0 0 0-2e-3 2e-3 22.5 22.5 0 0 0-0.0078 0.0039v2e-3a22.5 22.5 0 0 0-7.542969 11.167969l-0.07813 0.07813a22.5 22.5 0 0 0-0.88082 5.910064 22.5 22.5 0 0 0-0.029297 0.419922 22.5 22.5 0 0 0 8.537109 17.582031v2e-3a22.5 22.5 0 0 0 2e-3 0 22.5 22.5 0 0 0 13.537109 4.886719 22.5 22.5 0 0 0 0.423828 0.0293 22.5 22.5 0 0 0 7.583985-1.375 22.5 22.5 0 0 0 2e-3 0h2e-3a22.5 22.5 0 0 0 5.578125-2.945313v2e-3a22.5 22.5 0 0 0 9.333844-18.181737 22.5 22.5 0 0 0-0.0098-0.425781 22.5 22.5 0 0 0 0-2e-3 22.5 22.5 0 0 0-0.601563-4.763671 22.5 22.5 0 0 0-3.632813-7.9375h0.0098a22.5 22.5 0 0 0-0.253906-0.328125 22.5 22.5 0 0 0-0.371094-0.5h-0.015624a22.5 22.5 0 0 0-12.435547-7.927735l-2e-3 -2e-3a22.5 22.5 0 0 0-5.187453-0.6131885z" fill="#fff" fill-opacity=".7" stroke-width=".598484"/>
    <path id="path5673" d="m32 9.4999765a22.5 22.5 0 0 0-0.423828 0.03125 22.5 22.5 0 0 0-1.90625 0.128906 22.5 22.5 0 0 0-0.550781 0.07227 22.5 22.5 0 0 0-1.341797 0.216797 22.5 22.5 0 0 0-0.634766 0.1289065 22.5 22.5 0 0 0-1.398437 0.363281 22.5 22.5 0 0 0-0.435547 0.121094 22.5 22.5 0 0 0-1.785156 0.644531 22.5 22.5 0 0 0-0.402344 0.179688 22.5 22.5 0 0 0-1.337891 0.628906 22.5 22.5 0 0 0-0.537109 0.287109 22.5 22.5 0 0 0-1.173828 0.691407 22.5 22.5 0 0 0-0.494141 0.3125 22.5 22.5 0 0 0-1.505859 1.08789 22.5 22.5 0 0 0-0.03125 0.02148 22.5 22.5 0 0 0-2e-3 2e-3 22.5 22.5 0 0 0-0.0078 0.0039v2e-3a22.5 22.5 0 0 0-7.542969 11.167969l-0.07813 0.07813a22.5 22.5 0 0 0-0.88082 5.910064 22.5 22.5 0 0 0-0.029297 0.419922 22.5 22.5 0 0 0 8.537109 17.582031v2e-3a22.5 22.5 0 0 0 2e-3 0 22.5 22.5 0 0 0 13.537109 4.886719 22.5 22.5 0 0 0 0.423828 0.0293 22.5 22.5 0 0 0 7.583985-1.375 22.5 22.5 0 0 0 2e-3 0h2e-3a22.5 22.5 0 0 0 5.578125-2.945313v2e-3a22.5 22.5 0 0 0 9.333844-18.181737 22.5 22.5 0 0 0-0.0098-0.425781 22.5 22.5 0 0 0 0-2e-3 22.5 22.5 0 0 0-0.601563-4.763671 22.5 22.5 0 0 0-3.632813-7.9375h0.0098a22.5 22.5 0 0 0-0.253906-0.328125 22.5 22.5 0 0 0-0.371094-0.5h-0.015624a22.5 22.5 0 0 0-12.435547-7.927735l-2e-3 -2e-3a22.5 22.5 0 0 0-5.187453-0.6131885z" fill="#fff" fill-opacity=".7" filter="url(#filter5757)" stroke-width=".598484"/>
    <path id="path5837" d="m26.291016 24v2.542969 3.496093 3.558594h-0.304688-3.255859-0.730469l0.359375 0.373047 3.626953 3.773438 2.052734 2.134765 1.576172 1.640625 2.384766 2.480469 5.759766-5.992188 0.917968-0.955078 0.466797-0.484375v-0.001953l2.019531-2.099609 0.220704-0.230469 0.615234-0.638672h-2.855469-0.001953-1.433594v-0.171875-7.402343-2.023438h-5.378906-0.003906-6.035156z" filter="url(#filter5895)" opacity=".2" stroke-width=".23134"/>
    <g id="g1174" transform="matrix(.62499023 0 0 .62499023 12.000281 13.375322)" stroke-width=".37015">
        <path id="path1152" d="m22.865 17v15.355h-6.8652l16 16.645 16-16.645h-6.8652v-15.355z" fill="url(#linearGradient1176)"/>
        <path id="path1154" d="m25.661 23.865 5.9223-5.9223v11.845l-5.9223 5.9223z" fill="url(#linearGradient1178)" opacity=".15"/>
        <path id="path1156" d="m16 32.355 6.3789 6.6367 3.2832-3.2832-3.2832-3.3535z" fill="url(#linearGradient1180)" opacity=".15"/>
        <path id="path1158" d="m37.467 23.775-11.805 11.934v6.6973l2.5234 2.625 9.3203-9.3223z" fill="url(#linearGradient1182)" opacity=".15"/>
        <path id="path1160" d="m32.527 17-0.94336 0.94336v11.844l9.5508-9.5508v-3.2363z" fill="url(#linearGradient1184)" opacity=".15"/>
        <path id="path1162" d="m22.865 21.057v5.6055l2.7969-2.7969zm-6.8652 11.299 0.57422 0.59766 0.5957-0.59766z" fill="url(#linearGradient1186)" opacity=".15"/>
        <path id="path1164" d="m22.865 17v4.0684l2.7969 2.7969 6.8594-6.8652z" fill="url(#linearGradient1188)" opacity=".15"/>
        <path id="path1166" d="m43.43 32.355v4.7539l3.2324-3.3613 0.35352-0.36914 0.98438-1.0234h-2.7305z" fill="url(#linearGradient1190)" opacity=".15"/>
        <path id="path1168" d="m41.135 20.236-9.5508 9.5508 5.9219 5.9219 3.6289-3.6289z" fill="url(#linearGradient1192)" opacity=".15"/>
        <path id="path1170" d="m41.135 32.08-3.6289 3.6289 3.7109 3.7031 2.2148-2.3047-2e-3 -4.752h-2.2949z" fill="url(#linearGradient1194)" opacity=".15"/>
        <path id="path1172" d="m25.662 35.709-3.2832 3.2832 3.2832 3.4141z" fill="url(#linearGradient1196)" opacity=".15"/>
    </g>
</svg>
