<svg id="svg290" version="1.1" viewBox="0 0 64 64" xmlns="http://www.w3.org/2000/svg">
    <defs id="defs278">
        <style id="style266" type="text/css"/>
        <style id="style268" type="text/css"/>
        <filter id="filter1057" x="-.026999999" y="-.026999999" width="1.054" height="1.054" color-interpolation-filters="sRGB">
            <feGaussianBlur id="feGaussianBlur270" stdDeviation="0.61875"/>
        </filter>
        <linearGradient id="linearGradient1053" x1="-127" x2="-72" y1="60" y2="5" gradientTransform="translate(131.5 -.51)" gradientUnits="userSpaceOnUse">
            <stop id="stop273" stop-color="#d9d9d9" offset="0"/>
            <stop id="stop275" stop-color="#e3e3e3" offset="1"/>
        </linearGradient>
    </defs>
    <rect id="rect280" x="4.5" y="4.5" width="55" height="55" ry="15" fill="#141414" filter="url(#filter1057)" opacity=".3" stroke-linecap="round" stroke-width="2.7444"/>
    <rect id="rect282" x="4.5" y="4.5" width="55" height="55" ry="15" fill="url(#linearGradient1053)" stroke-linecap="round" stroke-width="2.7444"/>
    <circle id="circle284" cx="-1326.3" cy="-1241.6" r="0" fill="#5e4aa6"/>
    <circle id="circle286" cx="-226.72" cy="23.855" r="0" fill="#5e4aa6" fill-rule="evenodd"/>
    <g id="g895" stroke-width=".97561">
        <path id="path454" d="m14.682927 13.3c-1.486341 0-2.682927 1.243478-2.682927 2.787728v29.268293c0 4.181185 5.365854 6.968369 8.048781 6.968369h2.682927v-36.236662c0-1.54425-1.196586-2.787728-2.682927-2.787728zm13.748095 0c-1.536123 0-2.772485 1.196585-2.772485 2.682927v5.365853c0 1.486342 1.236362 2.682927 2.772485 2.682927h16.636813c4.159178 0 6.932165-5.365854 6.932165-8.04878v-2.682927h-6.932165zm-1.484376 13.658536a1.2598206 1.1136316 0 0 0-1.288109 1.114711v14.359756a1.2598206 1.1136316 0 0 0 1.888339 0.962271l7.035059-3.589939 7.033156-3.589939a1.2598206 1.1136316 0 0 0 0-1.928353l-7.033156-3.588034-7.035059-3.589939a1.2598206 1.1136316 0 0 0-0.60023-0.150534z" opacity=".1"/>
        <g id="g888" transform="translate(0 .487805)">
            <path id="path456" d="m14.682927 12c-1.486341 0-2.682927 1.243206-2.682927 2.787457v29.268292c0 4.181185 5.365854 6.968641 8.048781 6.968641h2.682927v-36.236933c0-1.544251-1.196586-2.787457-2.682927-2.787457z" fill="#f04242"/>
            <path id="path458" d="m25.658537 20.04878c0 1.486342 1.236662 2.682927 2.772785 2.682927h16.636715c4.159178 0 6.931964-5.365853 6.931964-8.04878v-2.682927h-23.568679c-1.536123 0-2.772785 1.196585-2.772785 2.682927z" fill="#f04242"/>
            <path id="path460" d="m26.947586 25.658836a1.2598206 1.1136316 0 0 0-1.289048 1.11476v14.358665a1.2598206 1.1136316 0 0 0 1.888924 0.962853l7.033667-3.589665 7.03367-3.589668a1.2598206 1.1136316 0 0 0 0-1.928042l-7.03367-3.589667-7.033667-3.589665a1.2598206 1.1136316 0 0 0-0.599876-0.149571z" fill="#14a4df"/>
        </g>
    </g>
</svg>
