<svg id="svg290" version="1.1" viewBox="0 0 64 64" xmlns="http://www.w3.org/2000/svg">
  <defs id="defs278">
    <filter id="filter1057" x="-.026999999" y="-.026999999" width="1.054" height="1.054" color-interpolation-filters="sRGB">
      <feGaussianBlur id="feGaussianBlur270" stdDeviation="0.61875"/>
    </filter>
    <linearGradient id="linearGradient2102" x1="20.5" x2="59.5" y1="32" y2="32" gradientUnits="userSpaceOnUse">
      <stop id="stop2096" stop-color="#1cdde3" offset="0"/>
      <stop id="stop2098" stop-color="#29a4da" offset="1"/>
    </linearGradient>
    <linearGradient id="linearGradient7379" x1="12.5" x2="59.5" y1="32" y2="32" gradientUnits="userSpaceOnUse">
      <stop id="stop7389" stop-color="#f2f2f2" offset="0"/>
      <stop id="stop7391" stop-color="#fff" offset="1"/>
    </linearGradient>
    <linearGradient id="linearGradient7401" x1="4.5" x2="59.5" y1="32" y2="32" gradientUnits="userSpaceOnUse">
      <stop id="stop7395" stop-color="#003648" offset="0"/>
      <stop id="stop7397" stop-color="#1f374c" offset="1"/>
    </linearGradient>
    <linearGradient id="linearGradient913" x1="20.195307" x2="32.94936" y1="32" y2="32" gradientUnits="userSpaceOnUse">
      <stop id="stop907" stop-color="#f4f4f4" offset="0"/>
      <stop id="stop909" stop-color="#fff" offset="1"/>
    </linearGradient>
  </defs>
  <rect id="rect280" x="4.5" y="4.5" width="55" height="55" ry="15" fill="#141414" filter="url(#filter1057)" opacity=".3" stroke-linecap="round" stroke-width="2.7444"/>
  <rect id="rect282" x="4.5" y="4.5" width="55" height="55" ry="15" fill="url(#linearGradient7401)" stroke-linecap="round" stroke-width="2.7444"/>
  <path id="rect1522" d="m27.5 4.5c-8.309992 0-15 6.690008-15 15v25c0 8.309992 6.690008 15 15 15h17c8.309992 0 15-6.690008 15-15v-25c0-8.309992-6.690008-15-15-15z" fill="url(#linearGradient7379)"/>
  <path id="rect1823" d="m35.5 4.5c-8.309992 0-15 6.690008-15 15v25c0 8.309992 6.690008 15 15 15h9c8.309992 0 15-6.690008 15-15v-25c0-8.309992-6.690008-15-15-15z" fill="url(#linearGradient2102)"/>
  <path id="path440" class="cls-2" d="m33.087323 21.500743c0 2.010333-0.0186 3.869047 0.01035 5.72633 0.0083 0.495-0.14954 0.60503-0.618344 0.60503-3.903928-0.02206-7.806488-0.02206-11.708578 0-0.315252 0.0017-0.488835-0.04991-0.575444-0.210059v9.162721c0.09109-0.150861 0.270879-0.192308 0.576923-0.192308 3.789026 0.02206 7.576256 0.01331 11.363904 0.01331 0.951393 0 0.951184-2.37e-4 0.951184 0.930472v4.963018l17.107989-10.202658z" fill="url(#linearGradient913)" stroke-width=".137884"/>
</svg>
