<svg id="svg290" version="1.1" viewBox="0 0 64 64" xmlns="http://www.w3.org/2000/svg">
  <defs id="defs278">
    <style id="style266" type="text/css"/>
    <style id="style268" type="text/css"/>
    <filter id="filter1057" x="-.026999999" y="-.026999999" width="1.054" height="1.054" color-interpolation-filters="sRGB">
      <feGaussianBlur id="feGaussianBlur270" stdDeviation="0.61875"/>
    </filter>
    <linearGradient id="linearGradient1053" x1="-127" x2="-72" y1="60" y2="5" gradientTransform="translate(131.5 -.51)" gradientUnits="userSpaceOnUse">
      <stop id="stop273" stop-color="#b9f291" offset="0"/>
      <stop id="stop275" stop-color="#faf384" stop-opacity=".99608004" offset="1"/>
    </linearGradient>
    <filter id="filter1689" x="-.025569266" y="-.028600339" width="1.0511385" height="1.0572007" color-interpolation-filters="sRGB">
      <feGaussianBlur id="feGaussianBlur1691" stdDeviation="0.44746216"/>
    </filter>
  </defs>
  <rect id="rect280" x="4.5" y="4.5" width="55" height="55" ry="15" fill="#141414" filter="url(#filter1057)" opacity=".3" stroke-linecap="round" stroke-width="2.7444"/>
  <rect id="rect282" x="4.5" y="4.5" width="55" height="55" ry="15" fill="url(#linearGradient1053)" stroke-linecap="round" stroke-width="2.7444"/>
  <circle id="circle284" cx="-1326.3" cy="-1241.6" r="0" fill="#5e4aa6"/>
  <circle id="circle286" cx="-226.72" cy="23.855" r="0" fill="#5e4aa6" fill-rule="evenodd"/>
  <g id="g1725" transform="matrix(1.0080326 0 0 1.0080789 -.25704347 -.25852466)">
    <path id="path1591" d="m42.042969 13.225586c-0.936878 0-1.791012 0.353551-2.4375 0.933594-0.0032 3e-3 -0.0066 0.0068-0.0098 0.0098-0.0042 0.0038-0.0094 0.0058-0.01367 0.0098l-3.656217 3.283194-21.886719 19.638672c-0.745007 0.668308-1.212891 1.638645-1.212891 2.71875 0 0.427464 0.07413 0.837633 0.208985 1.21875-0.150035 0.121241-0.295305 0.248429-0.431641 0.384765-0.991018 0.991779-1.603516 2.36245-1.603516 3.87494 0 3.025801 2.452714 5.476563 5.478516 5.476563h36.521485c0-1.512574-1.227416-2.738282-2.740235-2.738282h-1.226562l-1.84375-9.078125c1.364834-2.128298 2.158203-4.655314 2.158203-7.357421v-14.722656h-3.652344c0-2.016901-1.635443-3.652344-3.652344-3.652344zm-1.769531 31.263671v3.546875h-5.082031c0.466346-0.805956 0.734375-1.740044 0.734375-2.738281-1e-6 -0.0013 1e-6 -0.0026 0-0.0039 0.0031-8.2e-5 0.0068 8.2e-5 0.0098 0 1.517823-0.03117 2.976993-0.312993 4.337891-0.804688z" fill="#141414" filter="url(#filter1689)" opacity=".3" stroke-width=".992009"/>
    <g id="g529" transform="matrix(.08203125 0 0 .08203125 11 11)" stroke-width="12.0931">
      <path id="path434" d="m303.861 78.753-266.797 239.405c-9.082 8.147-14.803 19.979-14.803 33.146 0 5.211 0.9 10.209 2.544 14.855 11.925 4.484 48.656 16.728 123.229 38.989 86.817 0 161.962-3.325 162.504-3.339l57.878-201.461z" fill="#84d993"/>
      <path id="path436" d="m325.009 144.696-21.148 18.504v226.365c19.061-0.513 33.542-5.299 52.989-11.13 115.081-34.504 92.82-222.609 92.82-222.609l17.809-17.391v-66.783h-44.522c-26.714-9.322-50.087-20.452-74.512-32.903l-44.584 40.004v51.055z" fill="#50bf94"/>
      <g id="g442" fill="#fdf3d3">
        <path id="path438" d="m422.957 251.13-37.843 90.574 56.058-0.899c16.638-25.945 26.307-56.735 26.307-89.675v-112.695h-44.522z"/>
        <path id="path440" d="m300.522 373.565h-100.174c0 19.339 34.504 44.479 103.512 44.479 0.038-1e-3 0.076-1e-3 0.112-2e-3 18.503-0.38 36.29-3.809 52.88-9.803l38.279-30.918-38.281-17.507c-15.944 8.297-33.929 13.192-52.989 13.705-1.11 0.028-2.223 0.046-3.339 0.046z"/>
      </g>
      <path id="path444" d="m478.609 451.478h-14.959l-22.48-110.673-18.214-89.675c-3.373-16.6-18.844-28.267-36.058-26.537-17.213 1.731-30.053 16.246-30.052 33.184l4e-3 102.036 2e-3 48.426 1e-3 43.238s29.372 13.774 78.926 33.391h76.221c0-18.439-14.949-33.39-33.391-33.39z" fill="#b9f291"/>
      <path id="path446" d="m402.389 451.478h-190.91c5.565 11.548 14.122 21.914 25.6 33.391h198.701c0-18.44-14.951-33.391-33.391-33.391z" fill="#50bf94"/>
      <path id="path448" d="m303.861 418.087c-0.012-17.134-6.448-32.717-17.017-44.522-12.228-13.659-29.989-22.261-49.765-22.261h-170.296c-15.902 0-30.502 5.573-41.977 14.855-1.829 1.478-3.586 3.042-5.248 4.704-12.081 12.091-19.558 28.786-19.558 47.224l146.922 50.504z" fill="#b9f291"/>
      <path id="path450" d="m294.905 451.478c5.685-9.825 8.956-21.222 8.956-33.391h-303.861c0 36.886 29.897 66.783 66.783 66.783h170.296c24.715 0 46.278-13.435 57.826-33.392z" fill="#84d993"/>
      <g id="g458" fill="#b9f291">
        <rect id="rect452" x="303.86099" y="129.80299" width="33.390999" height="33.390999"/>
        <rect id="rect454" x="161.24699" y="239.994" width="33.390999" height="33.390999"/>
        <rect id="rect456" x="205.76801" y="284.51599" width="33.390999" height="33.390999"/>
      </g>
      <path id="path460" d="m378.435 116.174c24.587 0 44.522-19.935 44.522-44.522s-19.935-44.522-44.522-44.522l-28.939 48.557z" fill="#aa3e51"/>
      <path id="path462" d="m333.913 71.652c0 24.587 19.935 44.522 44.522 44.522v-89.044c-11.421 0-21.835 4.305-29.716 11.376-0.039 0.036-0.08 0.069-0.119 0.105-0.051 0.046-0.103 0.091-0.155 0.139-8.929 8.143-14.532 19.867-14.532 32.902z" fill="#f72349"/>
    </g>
  </g>
</svg>
