<svg id="svg20" width="64" height="64" version="1.1" viewBox="0 0 16.933 16.933" xmlns="http://www.w3.org/2000/svg">
  <defs id="defs10">
    <filter id="filter1057-2" x="-.026999999" y="-.026999999" width="1.054" height="1.054" color-interpolation-filters="sRGB">
      <feGaussianBlur id="feGaussianBlur1059-7" stdDeviation="0.61875"/>
    </filter>
    <linearGradient id="linearGradient1053-0" x1="-127" x2="-72" y1="60" y2="5" gradientTransform="matrix(.26457812 0 0 .26457812 34.792023 -.13493416)" gradientUnits="userSpaceOnUse">
      <stop id="stop1047" stop-color="#333" offset="0"/>
      <stop id="stop1049" stop-color="#626262" offset="1"/>
    </linearGradient>
    <style id="style1">.cls-1{fill:url(#linear-gradient);}.cls-2{fill:#697279;}</style>
    <linearGradient id="linear-gradient" x1="227.97" x2="227.97" y1="421.41" y2="75.17" gradientTransform="matrix(.03431182 0 0 .03431182 -31.059199 3.6827682)" gradientUnits="userSpaceOnUse">
      <stop id="stop1" stop-color="#1a6093" offset="0"/>
      <stop id="stop2" stop-color="#0093b6" offset="1"/>
    </linearGradient>
    <style id="style1-7">.cls-1{fill:#28eb9c;}</style>
    <filter id="filter5" x="-.028564225" y="-.025598199" width="1.0571284" height="1.0511964" color-interpolation-filters="sRGB">
      <feGaussianBlur id="feGaussianBlur5" stdDeviation="0.07454639"/>
    </filter>
    <filter id="filter6" x="-.028534433" y="-.025622175" width="1.0570689" height="1.0512443" color-interpolation-filters="sRGB">
      <feGaussianBlur id="feGaussianBlur6" stdDeviation="0.074616243"/>
    </filter>
    <style id="style1-9">.cls-1{fill:url(#linear-gradient);}.cls-2{fill:#697279;}</style>
    <style id="style1-7-7">.cls-1{fill:#28eb9c;}</style>
  </defs>
  <rect id="rect1055-6" transform="scale(.26457812)" x="4.4999995" y="4.4999995" width="55" height="55" ry="15" fill="#141414" filter="url(#filter1057-2)" opacity=".3" stroke-linecap="round" stroke-width="2.74436"/>
  <rect id="rect1045-0" x="1.1906021" y="1.1906021" width="14.551796" height="14.551796" ry="3.9686716" fill="url(#linearGradient1053-0)" stroke-linecap="round" stroke-width=".726098"/>
  <path id="path4" class="cls-1" d="m11.163197 7.0885114c-0.04369 0-0.06413 0.011824-0.07863 0.054603-0.07106 0.2086521-0.146719 0.4157325-0.219231 0.6238409-0.02012 0.058009-0.05029 0.1030229-0.109752 0.126952-0.186476 0.075292-0.372536 0.1519297-0.558044 0.2298793a0.23439374 0.23439374 0 0 1-0.2063991-0.00491c-0.186173-0.0902803-0.373879-0.1772685-0.5618657-0.2642826-0.0723302-0.0333533-0.0952285-0.0281757-0.1496125 0.0262104-0.1617006 0.1613383-0.3222711 0.3238065-0.4854215 0.4840569-0.029549 0.029185-0.03451 0.052394-0.016383 0.090642 0.098798 0.2035759 0.1928794 0.4093418 0.2929452 0.612374a0.19088678 0.19088678 0 0 1 0.00217 0.1763686c-0.0782982 0.1780156-0.1532585 0.3592918-0.2257694 0.5405707a0.22877409 0.22877409 0 0 1-0.1526155 0.1449711c-0.1945125 0.06381-0.3871002 0.1338603-0.5812501 0.1993023-0.054747 0.01813-0.084089 0.04947-0.084089 0.108933 0 0.08049-0.00546 0.162317-0.00546 0.24353 0 0.03374-1.079e-4 0.06775 0 0.101562-1.079e-4 0.03381 0 0.06782 0 0.101561 0 0.08121 0.00546 0.163043 0.00546 0.24353 0 0.05946 0.029343 0.09081 0.084089 0.108934 0.19415 0.06544 0.3867376 0.135491 0.5812501 0.199301a0.22877409 0.22877409 0 0 1 0.1526155 0.144971c0.072511 0.181279 0.1474712 0.362555 0.2257836 0.540571a0.19088678 0.19088678 0 0 1-0.00217 0.176368c-0.100062 0.203033-0.194144 0.408798-0.2929414 0.612375-0.018122 0.03825-0.013166 0.06146 0.016383 0.09064 0.1631509 0.160251 0.3237214 0.322718 0.4854215 0.484057 0.054384 0.05439 0.077282 0.05956 0.1496125 0.02621 0.1879857-0.08701 0.3756917-0.174002 0.5618667-0.264279a0.23439374 0.23439374 0 0 1 0.2063981-0.0049c0.185509 0.07795 0.371569 0.154589 0.558045 0.22988 0.05946 0.02393 0.08963 0.06894 0.109752 0.126952 0.07251 0.208108 0.148169 0.415189 0.219232 0.623841 0.0145 0.04278 0.03494 0.0546 0.07863 0.0546h0.726222c0.04478 0 0.06412-0.01581 0.07808-0.05624 0.07251-0.208471 0.14799-0.415552 0.219778-0.623841a0.20158224 0.20158224 0 0 1 0.121765-0.130502c0.181279-0.07251 0.362558-0.147281 0.541662-0.2236a0.23946956 0.23946956 0 0 1 0.211587 0.0044c0.179105 0.08738 0.360111 0.170517 0.540846 0.253905 0.0881 0.04097 0.116038 0.03621 0.185105-0.03304 0.156988-0.155175 0.313148-0.311131 0.471225-0.465219 0.02936-0.02846 0.03623-0.05094 0.01665-0.09064-0.10206-0.210646-0.201336-0.422573-0.299771-0.634488-0.02339-0.05058-0.05774-0.07025-0.113574-0.06989-0.389206 0.0014-0.778301 0.0022-1.167689 0a0.26901803 0.26901803 0 0 0-0.173911 0.05979c-0.434705 0.326822-0.92424 0.414456-1.441247 0.289374-0.418029-0.101154-0.78225-0.312129-1.045104-0.668342a0.67852725 0.67852725 0 0 1-0.04368-0.06143c-0.155195-0.267567-0.289989-0.543927-0.31863-0.856996-0.0057-0.06198-0.0041-0.124831 5.29e-4 -0.187835-0.0046-0.063-0.0062-0.125851-5.29e-4 -0.187834 0.02864-0.313069 0.163435-0.5894294 0.31861-0.8569969a0.67852725 0.67852725 0 0 1 0.04368-0.061429c0.262854-0.3562145 0.627074-0.5671901 1.045104-0.6683438 0.517006-0.1250828 1.006542-0.037448 1.441249 0.2893965a0.26901803 0.26901803 0 0 0 0.17391 0.05979c0.389388-0.00217 0.778483-0.00143 1.16769 0 0.05583 3.629e-4 0.09018-0.019316 0.113574-0.069892 0.09844-0.2119151 0.197711-0.4238423 0.299771-0.6344882 0.01958-0.039699 0.01271-0.062181-0.01665-0.090642-0.158076-0.1540869-0.314237-0.3100441-0.471225-0.465219-0.06907-0.069248-0.097-0.074004-0.185105-0.033036-0.180735 0.083388-0.36174 0.1665281-0.540844 0.2539046a0.23946956 0.23946956 0 0 1-0.211588 0.00439c-0.179104-0.0763221-0.360385-0.1510923-0.541664-0.2236037a0.20158224 0.20158224 0 0 1-0.121765-0.1305018c-0.07179-0.2082892-0.147266-0.41537-0.219778-0.6238409-0.01396-0.040428-0.03331-0.056241-0.07808-0.056241z" fill="#141414" filter="url(#filter5)" opacity=".3" stroke-width=".0181279"/>
  <path id="path2" d="m11.163197 7.0885114c-0.04369 0-0.06413 0.011824-0.07863 0.054603-0.07106 0.2086521-0.146719 0.4157325-0.219231 0.6238409-0.02012 0.058009-0.05029 0.1030229-0.109752 0.126952-0.186476 0.075292-0.372536 0.1519297-0.558044 0.2298793a0.23439374 0.23439374 0 0 1-0.2063991-0.00491c-0.186173-0.0902803-0.373879-0.1772685-0.5618657-0.2642826-0.0723302-0.0333533-0.0952285-0.0281757-0.1496125 0.0262104-0.1617006 0.1613383-0.3222711 0.3238065-0.4854215 0.4840569-0.029549 0.029185-0.03451 0.052394-0.016383 0.090642 0.098798 0.2035759 0.1928794 0.4093418 0.2929452 0.612374a0.19088678 0.19088678 0 0 1 0.00217 0.1763686c-0.0782982 0.1780156-0.1532585 0.3592918-0.2257694 0.5405707a0.22877409 0.22877409 0 0 1-0.1526155 0.1449711c-0.1945125 0.06381-0.3871002 0.1338603-0.5812501 0.1993023-0.054747 0.01813-0.084089 0.04947-0.084089 0.108933 0 0.08049-0.00546 0.162317-0.00546 0.24353 0 0.03374-1.079e-4 0.06775 0 0.101562-1.079e-4 0.03381 0 0.06782 0 0.101561 0 0.08121 0.00546 0.163043 0.00546 0.24353 0 0.05946 0.029343 0.09081 0.084089 0.108934 0.19415 0.06544 0.3867376 0.135491 0.5812501 0.199301a0.22877409 0.22877409 0 0 1 0.1526155 0.144971c0.072511 0.181279 0.1474712 0.362555 0.2257836 0.540571a0.19088678 0.19088678 0 0 1-0.00217 0.176368c-0.100062 0.203033-0.194144 0.408798-0.2929414 0.612375-0.018122 0.03825-0.013166 0.06146 0.016383 0.09064 0.1631509 0.160251 0.3237214 0.322718 0.4854215 0.484057 0.054384 0.05439 0.077282 0.05956 0.1496125 0.02621 0.1879857-0.08701 0.3756917-0.174002 0.5618667-0.264279a0.23439374 0.23439374 0 0 1 0.2063981-0.0049c0.185509 0.07795 0.371569 0.154589 0.558045 0.22988 0.05946 0.02393 0.08963 0.06894 0.109752 0.126952 0.07251 0.208108 0.148169 0.415189 0.219232 0.623841 0.0145 0.04278 0.03494 0.0546 0.07863 0.0546h0.726222c0.04478 0 0.06412-0.01581 0.07808-0.05624 0.07251-0.208471 0.14799-0.415552 0.219778-0.623841a0.20158224 0.20158224 0 0 1 0.121765-0.130502c0.181279-0.07251 0.362558-0.147281 0.541662-0.2236a0.23946956 0.23946956 0 0 1 0.211587 0.0044c0.179105 0.08738 0.360111 0.170517 0.540846 0.253905 0.0881 0.04097 0.116038 0.03621 0.185105-0.03304 0.156988-0.155175 0.313148-0.311131 0.471225-0.465219 0.02936-0.02846 0.03623-0.05094 0.01665-0.09064-0.10206-0.210646-0.201336-0.422573-0.299771-0.634488-0.02339-0.05058-0.05774-0.07025-0.113574-0.06989-0.389206 0.0014-0.778301 0.0022-1.167689 0a0.26901803 0.26901803 0 0 0-0.173911 0.05979c-0.434705 0.326822-0.92424 0.414456-1.441247 0.289374-0.418029-0.101154-0.78225-0.312129-1.045104-0.668342a0.67852725 0.67852725 0 0 1-0.04368-0.06143c-0.155195-0.267567-0.289989-0.543927-0.31863-0.856996-0.0057-0.06198-0.0041-0.124831 5.29e-4 -0.187835-0.0046-0.063-0.0062-0.125851-5.29e-4 -0.187834 0.02864-0.313069 0.163435-0.5894294 0.31861-0.8569969a0.67852725 0.67852725 0 0 1 0.04368-0.061429c0.262854-0.3562145 0.627074-0.5671901 1.045104-0.6683438 0.517006-0.1250828 1.006542-0.037448 1.441249 0.2893965a0.26901803 0.26901803 0 0 0 0.17391 0.05979c0.389388-0.00217 0.778483-0.00143 1.16769 0 0.05583 3.629e-4 0.09018-0.019316 0.113574-0.069892 0.09844-0.2119151 0.197711-0.4238423 0.299771-0.6344882 0.01958-0.039699 0.01271-0.062181-0.01665-0.090642-0.158076-0.1540869-0.314237-0.3100441-0.471225-0.465219-0.06907-0.069248-0.097-0.074004-0.185105-0.033036-0.180735 0.083388-0.36174 0.1665281-0.540844 0.2539046a0.23946956 0.23946956 0 0 1-0.211588 0.00439c-0.179104-0.0763221-0.360385-0.1510923-0.541664-0.2236037a0.20158224 0.20158224 0 0 1-0.121765-0.1305018c-0.07179-0.2082892-0.147266-0.41537-0.219778-0.6238409-0.01396-0.040428-0.03331-0.056241-0.07808-0.056241z" fill="#ff8a8a"/>
  <path id="path3" d="m7.7548032 6.3522877h1.1096084c0.04242 0 0.059097 0.011058 0.057103 0.054384v0.2090151a0.09462764 0.09462764 0 0 1-0.04514 0.086107c-0.1952379 0.1399471-0.3870311 0.2842452-0.5438372 0.4682435a1.5972493 1.5972493 0 0 0-0.3444304 0.6576797c-0.079037 0.3152445 0.0067 0.5800925 0.2521594 0.7941838 0.091727 0.08013 0.1778343 0.166777 0.2681112 0.2485339 0.028276 0.02538 0.030273 0.04315 8.982e-4 0.06871-0.039339 0.03444-0.075231 0.07251-0.1127558 0.1087673-0.054384 0.05239-0.088101 0.05928-0.156262 0.02774-0.1859921-0.0864799-0.3719847-0.1727672-0.5567078-0.2615933a0.23856316 0.23856316 0 0 0-0.2068394-0.0054q-0.275363 0.1156561-0.5525382 0.2276864a0.19487492 0.19487492 0 0 0-0.1152934 0.1287079c-0.072512 0.20829-0.1477427 0.4153114-0.2195287 0.6237823-0.014503 0.04169-0.036254 0.05602-0.079582 0.05565q-0.3625583-0.0027-0.7262039 0c-0.041511 0-0.061816-0.01287-0.075593-0.05275-0.0712422-0.2065149-0.1471983-0.4115423-0.2175341-0.6183823a0.21898503 0.21898503 0 0 0-0.136866-0.1450219c-0.1781972-0.070156-0.3549441-0.1437553-0.5313285-0.2175353a0.24146362 0.24146362 0 0 0-0.2120963 0.0049c-0.1825485 0.08901-0.3661832 0.1756603-0.5498189 0.2624932-0.083751 0.0397-0.102241 0.0362501-0.1682265-0.03064-0.1593443-0.1609763-0.3176013-0.3230393-0.4780324-0.4829272-0.028646-0.02846-0.031002-0.05149-0.014323-0.08611 0.09771-0.2021273 0.191249-0.4060663 0.2900464-0.6072853a0.20230736 0.20230736 0 0 0 0.00402-0.1872617c-0.0783172-0.1769102-0.1530043-0.3552891-0.2258782-0.534393a0.23022433 0.23022433 0 0 0-0.1493732-0.1417599c-0.1923373-0.0650795-0.3828614-0.135234-0.5744733-0.2024881-0.0839323-0.0295441-0.099341-0.0531149-0.0982532-0.1401295 0.00143-0.1392219 0-0.2784443 0-0.4169412 0-0.081213 0.00544-0.1631514 0.00544-0.2436391 0-0.05946 0.029185-0.09064 0.083932-0.1087674 0.19415-0.065442 0.3868493-0.135597 0.5813622-0.1994069a0.22877409 0.22877409 0 0 0 0.1526329-0.1450234c0.0725115-0.1812789 0.147561-0.3625578 0.2258735-0.5405737a0.19088678 0.19088678 0 0 0-0.0023775-0.1762033c-0.1000658-0.2030322-0.19415-0.408965-0.2929468-0.6125415-0.0181269-0.0382509-0.013055-0.0614535 0.0164944-0.0906394 0.1631504-0.1602508 0.3237642-0.3226768 0.4854649-0.4840151 0.054384-0.054384 0.077225-0.059459 0.1495549-0.026105 0.1879865 0.087014 0.3757913 0.1738469 0.5619651 0.264124a0.23439374 0.23439374 0 0 0 0.2062952 0.00491q0.2782631-0.1169216 0.5579763-0.2298581c0.059459-0.023928 0.089733-0.068886 0.1098553-0.1268954 0.072512-0.2081086 0.1481046-0.4153104 0.2191664-0.6239625 0.014503-0.042784 0.034986-0.054383 0.078674-0.054383q0.3625577 0.00291 0.7262039 0c0.044776 0 0.064172 0.015771 0.078131 0.056196 0.072512 0.2084709 0.1479239 0.4154914 0.21971 0.6237811a0.20158224 0.20158224 0 0 0 0.1216386 0.1305209c0.1812788 0.072511 0.3625577 0.1471985 0.5416615 0.2235171a0.23946956 0.23946956 0 0 0 0.2117338-0.00433c0.1791038-0.087376 0.360202-0.1704023 0.5409367-0.2537909 0.088102-0.040972 0.1158375-0.036254 0.1849043 0.032994 0.1569879 0.1551752 0.3132504 0.3110748 0.4713257 0.4651622 0.029364 0.028461 0.036259 0.050941 0.016679 0.090639-0.1020603 0.210646-0.2014008 0.422561-0.2998357 0.6344766-0.023389 0.050577-0.057646 0.070336-0.1134807 0.069973-0.389206-0.00143-0.7784117-0.00217-1.1677995 0a0.26901803 0.26901803 0 0 1-0.173846-0.0598236c-0.4347068-0.326846-0.9241605-0.4145849-1.4411671-0.2895027-0.4180295 0.1011537-0.7822193 0.3121627-1.0450731 0.6683757a0.67852725 0.67852725 0 0 0-0.043867 0.061454c-0.1551747 0.2675676-0.2900458 0.5438366-0.318688 0.8569054-0.011058 0.121638 0.00635 0.2467208 0.018127 0.3694466 0.01903 0.1945125 0.047497 0.387031 0.1343285 0.5668597 0.1212751 0.2508905 0.2795326 0.4673377 0.500873 0.6439027 0.2380197 0.1892555 0.4918106 0.3369974 0.7909209 0.3946446 0.365639 0.07015 0.7204018 0.0562 1.0653763-0.108767 0.1607938-0.0772253 0.3263016-0.1412173 0.4631671-0.2597734 0.1316086-0.1145685 0.255966-0.2356629 0.3527689-0.3834051a0.59459509 0.59459509 0 0 0 0.030638-0.060729 0.47966422 0.47966422 0 0 0-0.065623-0.00907c-0.3137936 0-0.6274065-0.00164-0.9412001 0-0.050397 0-0.065624-0.012146-0.065261-0.064173q0.00417-0.4182104 0-0.8366024c0-0.054384 0.018127-0.063085 0.066711-0.062904 0.3698091 0.00201 0.7396182 0.00111 1.109609 0.00111z" fill="#141414" filter="url(#filter6)" opacity=".3"/>
  <path id="path1" d="m7.7548032 6.3522877h1.1096084c0.04242 0 0.059097 0.011058 0.057103 0.054384v0.2090151a0.09462764 0.09462764 0 0 1-0.04514 0.086107c-0.1952379 0.1399471-0.3870311 0.2842452-0.5438372 0.4682435a1.5972493 1.5972493 0 0 0-0.3444304 0.6576797c-0.079037 0.3152445 0.0067 0.5800925 0.2521594 0.7941838 0.091727 0.08013 0.1778343 0.166777 0.2681112 0.2485339 0.028276 0.02538 0.030273 0.04315 8.982e-4 0.06871-0.039339 0.03444-0.075231 0.07251-0.1127558 0.1087673-0.054384 0.05239-0.088101 0.05928-0.156262 0.02774-0.1859921-0.0864799-0.3719847-0.1727672-0.5567078-0.2615933a0.23856316 0.23856316 0 0 0-0.2068394-0.0054q-0.275363 0.1156561-0.5525382 0.2276864a0.19487492 0.19487492 0 0 0-0.1152934 0.1287079c-0.072512 0.20829-0.1477427 0.4153114-0.2195287 0.6237823-0.014503 0.04169-0.036254 0.05602-0.079582 0.05565q-0.3625583-0.0027-0.7262039 0c-0.041511 0-0.061816-0.01287-0.075593-0.05275-0.0712422-0.2065149-0.1471983-0.4115423-0.2175341-0.6183823a0.21898503 0.21898503 0 0 0-0.136866-0.1450219c-0.1781972-0.070156-0.3549441-0.1437553-0.5313285-0.2175353a0.24146362 0.24146362 0 0 0-0.2120963 0.0049c-0.1825485 0.08901-0.3661832 0.1756603-0.5498189 0.2624932-0.083751 0.0397-0.102241 0.0362501-0.1682265-0.03064-0.1593443-0.1609763-0.3176013-0.3230393-0.4780324-0.4829272-0.028646-0.02846-0.031002-0.05149-0.014323-0.08611 0.09771-0.2021273 0.191249-0.4060663 0.2900464-0.6072853a0.20230736 0.20230736 0 0 0 0.00402-0.1872617c-0.0783172-0.1769102-0.1530043-0.3552891-0.2258782-0.534393a0.23022433 0.23022433 0 0 0-0.1493732-0.1417599c-0.1923373-0.0650795-0.3828614-0.135234-0.5744733-0.2024881-0.0839323-0.0295441-0.099341-0.0531149-0.0982532-0.1401295 0.00143-0.1392219 0-0.2784443 0-0.4169412 0-0.081213 0.00544-0.1631514 0.00544-0.2436391 0-0.05946 0.029185-0.09064 0.083932-0.1087674 0.19415-0.065442 0.3868493-0.135597 0.5813622-0.1994069a0.22877409 0.22877409 0 0 0 0.1526329-0.1450234c0.0725115-0.1812789 0.147561-0.3625578 0.2258735-0.5405737a0.19088678 0.19088678 0 0 0-0.0023775-0.1762033c-0.1000658-0.2030322-0.19415-0.408965-0.2929468-0.6125415-0.0181269-0.0382509-0.013055-0.0614535 0.0164944-0.0906394 0.1631504-0.1602508 0.3237642-0.3226768 0.4854649-0.4840151 0.054384-0.054384 0.077225-0.059459 0.1495549-0.026105 0.1879865 0.087014 0.3757913 0.1738469 0.5619651 0.264124a0.23439374 0.23439374 0 0 0 0.2062952 0.00491q0.2782631-0.1169216 0.5579763-0.2298581c0.059459-0.023928 0.089733-0.068886 0.1098553-0.1268954 0.072512-0.2081086 0.1481046-0.4153104 0.2191664-0.6239625 0.014503-0.042784 0.034986-0.054383 0.078674-0.054383q0.3625577 0.00291 0.7262039 0c0.044776 0 0.064172 0.015771 0.078131 0.056196 0.072512 0.2084709 0.1479239 0.4154914 0.21971 0.6237811a0.20158224 0.20158224 0 0 0 0.1216386 0.1305209c0.1812788 0.072511 0.3625577 0.1471985 0.5416615 0.2235171a0.23946956 0.23946956 0 0 0 0.2117338-0.00433c0.1791038-0.087376 0.360202-0.1704023 0.5409367-0.2537909 0.088102-0.040972 0.1158375-0.036254 0.1849043 0.032994 0.1569879 0.1551752 0.3132504 0.3110748 0.4713257 0.4651622 0.029364 0.028461 0.036259 0.050941 0.016679 0.090639-0.1020603 0.210646-0.2014008 0.422561-0.2998357 0.6344766-0.023389 0.050577-0.057646 0.070336-0.1134807 0.069973-0.389206-0.00143-0.7784117-0.00217-1.1677995 0a0.26901803 0.26901803 0 0 1-0.173846-0.0598236c-0.4347068-0.326846-0.9241605-0.4145849-1.4411671-0.2895027-0.4180295 0.1011537-0.7822193 0.3121627-1.0450731 0.6683757a0.67852725 0.67852725 0 0 0-0.043867 0.061454c-0.1551747 0.2675676-0.2900458 0.5438366-0.318688 0.8569054-0.011058 0.121638 0.00635 0.2467208 0.018127 0.3694466 0.01903 0.1945125 0.047497 0.387031 0.1343285 0.5668597 0.1212751 0.2508905 0.2795326 0.4673377 0.500873 0.6439027 0.2380197 0.1892555 0.4918106 0.3369974 0.7909209 0.3946446 0.365639 0.07015 0.7204018 0.0562 1.0653763-0.108767 0.1607938-0.0772253 0.3263016-0.1412173 0.4631671-0.2597734 0.1316086-0.1145685 0.255966-0.2356629 0.3527689-0.3834051a0.59459509 0.59459509 0 0 0 0.030638-0.060729 0.47966422 0.47966422 0 0 0-0.065623-0.00907c-0.3137936 0-0.6274065-0.00164-0.9412001 0-0.050397 0-0.065624-0.012146-0.065261-0.064173q0.00417-0.4182104 0-0.8366024c0-0.054384 0.018127-0.063085 0.066711-0.062904 0.3698091 0.00201 0.7396182 0.00111 1.109609 0.00111z" fill="#73a6e5"/>
</svg>
