<svg id="svg324" width="64" height="64" version="1.1" viewBox="0 0 16.933 16.933" xmlns="http://www.w3.org/2000/svg">
  <defs id="defs302">
    <filter id="filter1057-3" x="-.026999999" y="-.026999999" width="1.054" height="1.054" color-interpolation-filters="sRGB">
      <feGaussianBlur id="feGaussianBlur289" stdDeviation="0.61875"/>
    </filter>
    <linearGradient id="linearGradient1053-6" x1="-127" x2="-80.659" y1="60" y2="13.659" gradientTransform="matrix(.26459 0 0 .26459 34.793 -.135)" gradientUnits="userSpaceOnUse">
      <stop id="stop292" stop-color="#f30" offset="0"/>
      <stop id="stop294" stop-color="#ff5600" offset="1"/>
    </linearGradient>
    <radialGradient id="radialGradient22954" cx="32" cy="25.829" r="15.266" gradientTransform="matrix(.26458 0 0 .28609035 0 -.55564446)" gradientUnits="userSpaceOnUse">
      <stop id="stop297" stop-color="#fff" offset="0"/>
      <stop id="stop299" stop-color="#fff" stop-opacity=".25" offset="1"/>
    </radialGradient>
    <radialGradient id="radialGradient7778" cx="97.468246" cy="-405.91245" r="358.44638" gradientTransform="matrix(.02128891 0 0 .02758631 323.3674 -435.104)" gradientUnits="userSpaceOnUse">
      <stop id="stop9644" stop-color="#787974" offset="0"/>
      <stop id="stop9646" stop-color="#787974" stop-opacity="0" offset="1"/>
    </radialGradient>
  </defs>
  <rect id="rect304" transform="matrix(.26459 0 0 .26459 -6e-5 -6.0216e-5)" x="4.5" y="4.5" width="55" height="55" ry="15" fill="#141414" filter="url(#filter1057-3)" opacity=".3" stroke-linecap="round" stroke-width="2.7444"/>
  <rect id="rect306" x="1.1906" y="1.1906" width="14.552" height="14.552" ry="3.9688" fill="url(#linearGradient1053-6)" stroke-linecap="round" stroke-width=".72613"/>
  <g id="layer1-1" transform="matrix(.20253755 0 0 .20253755 6.6390579 .2566142)" opacity=".39648">
    <g id="g7594" transform="matrix(.998698 0 0 .998698 -342.5411 469.4117)">
      <circle id="path7596" transform="matrix(1.386488,0,0,1.386488,444.99,-446.4716)" cx="-56.25" cy=".24999997" r="9.75" fill="#eaece8"/>
      <g id="g7598" transform="translate(37.125,-1.625)">
        <g fill-rule="evenodd">
          <g fill="#787974">
            <path id="path7600" d="m323.84614-456.07802c0.0486 0.17562-0.12591 0.39397-0.27934 0.59855-0.20144 0.2686-0.31042 0.44775-0.0798 0.67837 0.14329 0.14328 0.57893 0.0158 0.71827-0.0399 0.3214-0.12856 0.67358-0.22953 0.9976-0.35913 0.24571-0.0983 0.4292-0.13723 0.67836-0.19952 0.28672-0.0717 0.57153 0.0571 0.67837 0.19952 0.0681 0.0908-0.46179 0.49026-0.51875 0.51874-0.24201 0.12101-0.47287 0.21798-0.71827 0.27933-0.30202 0.0755-0.57153 0.17815-0.87788 0.23942-0.30771 0.0615-0.52362 0.15456-0.79808 0.31923-0.34006 0.20404-0.62606 0.50635-0.91778 0.79808-0.27257 0.27257-0.36706 0.56686-0.27933 0.91778 0.0844 0.33751 0.21002 0.457 0.51875 0.51875 0.3433 0.0687 0.51056-0.0955 0.67836-0.31923 0.21824-0.29099 0.30168-0.66081 0.55865-0.91778 0.21494-0.21495 0.36222-0.4213 0.59856-0.59856 0.23962-0.17971 0.42089-0.27386 0.71827-0.19952 0.24731 0.0618 0.44872 0.30522 0.71826 0.35914 0.22729 0.0455 0.56158-0.26084 0.75817-0.35914 0.0429-0.0215 0.0798-0.0532 0.11972-0.0798 0.20735-0.13824 0.55041-0.0798 0.79807-0.0798 0.26905 0 0.49616 0.12837 0.71826 0.23942 0.26878 0.13438 0.50065 0.12608 0.75817 0.31923 0.27256 0.20441 0.41892 0.35898 0.55866 0.63846 0.13199 0.26397 0.19033 0.42976 0.39904 0.63846 0.22072 0.22072 0.56031 0.36079 0.79806 0.59855 0.14292 0.14291 0.23261 0.53136 0.27934 0.71827 0.0733 0.29311 0.1394 0.59907 0 0.87788-0.15089 0.30177-0.33188 0.58396-0.47885 0.87788-0.1446 0.28922-0.54921 0.53162-0.79807 0.71827-0.34301 0.25726-0.75121 0.27237-1.0774 0.59856-0.37514 0.37513-0.41054 0.59585-0.75818 1.1173-0.25687 0.38531 0.0488 0.55643 0.35914 0.47885 0.32847-0.0821 0.63271-0.15818 0.95769-0.23943 0.0532-0.0133 0.10641-0.0266 0.15961-0.0399 0.40008-0.10002 0.71782-0.41888 1.11731-0.51875 0.49734-0.12433 1.54284 0.64638 1.99518 0.91779 0.35667 0.214-0.0691 0.63308-0.23942 0.71826-0.31687 0.15844-0.63299 0.19952-0.99759 0.19952-0.23599 0-0.49249-0.0745-0.71827-0.11971-0.30515-0.061-0.5178-0.0606-0.75817 0.11971-0.26721 0.20042-0.2359 0.45813-0.0798 0.71827 0.15594 0.25989 0.41021 0.4437 0.47884 0.71827 0.0866 0.34645-0.19337 0.53102-0.43893 0.67836-0.24655 0.14793-0.67219-0.0399-0.95769-0.0399-0.3617 0-0.71143 0.18442-0.99759 0.39904-0.12967 0.0973-0.24307 0.61316-0.27933 0.75817-0.0133 0.0532-0.0266 0.10641-0.0399 0.15962-0.0973 0.38907 0.0274 0.58727 0.15962 0.91778 0.0957 0.23926 0.32804 0.45656 0.43894 0.67837 0.13845 0.27689 0.22919 0.4594 0.0798 0.75817-0.12733 0.25465-0.17554 0.46276-0.23943 0.71826-0.0447 0.17901 0.20742 0.65822 0.27933 0.83798 0.14424 0.36058 0.0101 0.42884-0.23943 0.67837-0.2208 0.2208-0.55161 0.2758-0.79806 0.39903-0.2292 0.1146-0.68093-0.0206-0.91779-0.0798-0.26703-0.0668-0.51539 0.0582-0.71827 0.15962-0.32213 0.16107-0.3211 0.31673-0.55865 0-0.25189-0.33585-0.46083-0.68615-0.55865-1.0774-0.0133-0.0532-0.0266-0.10641-0.0399-0.15962-0.0668-0.26738-0.0399-0.59608-0.0399-0.87788 0-0.28763 0.0798-0.54462 0.0798-0.83798 0-0.31598-0.75459 0.2779-0.95768 0.35914-0.0941 0.0376-0.18623 0.0798-0.27934 0.11971-0.39873 0.17089-0.35913 0.53524-0.35913 0.87788 0 0.34152 0.19951 0.60231 0.19951 0.95769 0 0.34243-0.40342 0.43894-0.67835 0.43894-0.39099 0-0.5722-0.45249-0.83798-0.71827-0.25426-0.25425-0.68805-0.53811-0.83798-0.83797-0.21217-0.42435-0.28391-0.66496 0.15961-0.9976 0.25414-0.1906 0.60842-0.22596 0.79808-0.47884 0.19924-0.26566 0.48175-0.63773 0-0.75817-0.32828-0.0821-0.45563-0.19618-0.83798-0.11971-0.0665 0.0133-0.13301 0.0266-0.19952 0.0399-0.65946 0.13189-0.65494 0.0716-1.27692-0.23942-0.44759-0.2238-0.60098-0.56108-0.91778-0.87788-0.29493-0.29493-0.46228-0.69193-0.55865-1.0774-0.0887-0.3548-0.19371-0.69501-0.27933-1.0375-0.0701-0.28054-0.0798-0.62556-0.0798-0.91778 0-0.29704-0.0798-0.61345-0.0798-0.91779v-0.99759c0-0.33653 0.0399-0.63407 0.0399-0.95769 0-0.27723 0.0542-0.61602 0.11971-0.87789 6e-3 -0.0258 0-0.0532 0-0.0798 0-0.34036 0.19708-0.69223 0.31923-0.9976 0.10762-0.26907 0.27463-0.54927 0.39904-0.79807 0.13029-0.26057 0.26091-0.48091 0.43894-0.71827 0.1922-0.25627 0.39689-0.51616 0.59855-0.75817 0.34733-0.41679 0.70836-0.80669 1.11731-1.15721 0.23897-0.20482 0.35656-0.54674 0.63846-0.75816 0.34879-0.2616 0.65243-0.53921 0.99759-0.79808 0.2624-0.1968 0.50187-0.4241 0.67836-0.71827 0.14357-0.23929 0.22463-0.46405 0.43894-0.67836 0.0527-0.0527 0.22985-0.13487 0.27934-0.15961z" opacity=".105556"/>
            <path id="path7602" d="m334.85956-450.97035c-0.38499 0.0925-1.15273 0.22436-1.67596 0.11971-0.40086-0.0802-0.41421-0.30406-0.79807 0.0798l-0.0798 0.0798c-0.24233 0.24233-0.27932 0.27859-0.27932 0.63846 0 0.2363 4e-3 0.4611-0.0399 0.67836-0.0467 0.23338-0.0115 0.59226 0.0399 0.79807 0.0784 0.31372 0.12792 0.53517 0.27932 0.83798 0.12091 0.24181 0.17725 0.43221 0.39904 0.59856 0.288 0.21599 0.68441 0.27376 0.9976 0.39903 0.22083 0.0883 0.59074 0.0399 0.83797 0.0399 0.31364 0 0.35914 0.0355 0.35914 0.39903 0 0.31202-0.58566 0.74998-0.75817 1.0375-0.19089 0.31814-0.11781 0.56436 0 0.91779 0.0878 0.26347 0.1448 0.5245 0.19951 0.79807 0.057 0.28517 0.13143 0.49056 0.35914 0.71827 0.24219 0.2422 0.68895-0.0258 0.91778 0.27933 0.11503 0.15336 0.11972 0.40725 0.11972 0.59855 0 0.31727 0.10251 0.46749 0.39903 0.31923 0.26993-0.13496 0.4726-0.12467 0.67837-0.39904 0.19592-0.26123 0.29408-0.58817 0.43894-0.87788 0.12918-0.25837 0.35001-0.27932 0.63846-0.27932 0.26664 0 0.4808 0.0693 0.75817 0 0.40637-0.1016 0.46832-0.2289 0.75816-0.51875 0.36667-0.36667 0.32315-0.62199 0.39904-1.0774 0.0342-0.20545-0.0338-0.45465-0.0798-0.63846-0.0133-0.0532-0.0266-0.10641-0.0399-0.15962-0.0556-0.22243-0.54378-0.23942-0.71826-0.23942-0.38567 0-0.95765-0.18953-1.31683-0.27933-0.18343-0.0458-0.69207-0.65216-0.83797-0.79807-0.2109-0.21089-0.25241-0.37116-0.31923-0.63846-0.0823-0.32931-0.0384-0.67226-0.11971-0.99759-0.0932-0.37293 0.0159-0.5827-0.27933-0.87788-0.20899-0.209-0.34674-0.49671-0.39904-0.75818-0.0504-0.25226-0.28717-0.53461-0.47884-0.67836-0.14021-0.10515-0.15679-0.0792-0.35913-0.11971z" opacity=".188889"/>
            <path id="path7604" d="m341.00473-448.65593c-0.20686 7e-3 -0.41855 0.25893-0.59856 0.43894-0.17692 0.17692-0.11971 0.4801-0.11971 0.71826 0 0.26057 0.056 0.5433 0.11971 0.79808 0.054 0.21611 0.253 0.49242 0.39904 0.63846 0.22008 0.22008 0.50176 0.34965 0.79807 0.39903 0.38807 0.0647 0.60185 0.11149 0.75818-0.27932 0.10737-0.26842 0.15961-0.45302 0.15961-0.75817 0-0.27625-0.0124-0.48851-0.0798-0.75817-0.0815-0.32585-0.18635-0.49221-0.47884-0.63846-0.20729-0.10364-0.41834-0.34368-0.59856-0.47885-0.10339-0.0775-0.23587-0.0798-0.35913-0.0798z" opacity=".183333"/>
          </g>
          <path id="path7606" d="m328.35524-436.20598c0.21632-0.14825 0.84563-0.79382 1.27693-1.1173 0.0831-0.0623 0.15961-0.13301 0.23942-0.19952 0.43011-0.35842 0.80496-0.92811 1.11731-1.39663 0.49552-0.74328 0.71315-1.41096 0.87788-2.23461 0.20928-1.0464 0.26214-0.34748 0.0399 0.31924-0.0347 0.10405-0.0532 0.21282-0.0798 0.31922-0.10903 0.43615-0.15211 0.89903-0.31922 1.31683-0.22556 0.5639-0.65123 1.04865-0.79808 1.63605-0.0784 0.31342-0.18502 0.69649-0.11972 0.95769 0.078 0.31211 0.53278-0.37711 0.83799-0.47885 0.4153-0.13843 0.51874-0.22895 0.51874 0.23943 0 0.28308-0.14275 0.67387-0.19952 0.95769-0.0979 0.48934 1.28804 0.077 1.59615 0 1.0073-0.25183 1.69819-0.59713 2.51394-1.27692 0.89829-0.74857 1.64541-1.5656 2.47402-2.39423 0.66669-0.66668 0.98041-1.08477 0.55866 0.0399-0.0399 0.10641-0.0798 0.21282-0.11971 0.31923-0.0399 0.10641-0.0798 0.21282-0.11971 0.31923-0.22087 0.58898-0.62389 1.2406-1.15721 1.59615-0.83096 0.55397-1.36956 1.58261-2.27451 2.03508-0.36626 0.18313-0.74917 0.25488-1.1173 0.43894-0.36945 0.18473 0.71851 0.31485 0.91778 0.35914 2.00332 0.44518-1.62115 0.63846-2.07499 0.63846-0.74853 0-1.12279-0.15633-1.71586 0.19951-0.20269 0.12161 0.94323 0.58769 0.99758 0.59856 0.4676 0.0935 0.88473 0.39904 1.39664 0.39904 0.84991 0-1.77287 0.26507-2.51393 0.0798-0.62118-0.1553-1.20981-0.2825-1.83557-0.43895-0.31755-0.0794-0.63616-0.0305-0.9178 0.0399-0.056 0.014 0.0399 0.82339 0.0399 0.91778 0 0.591-0.15469 1.05225-0.43894 0.19952-0.15311-0.45935-0.43894-0.94432-0.43894-1.43653 0-0.31166-0.41156 0.46894-0.59855 0.71827-0.26333 0.3511-0.78197 0.8539-0.87788 0.87788-0.0131 3e-3 0.25819-0.55392 0.35913-0.95769 0.0759-0.3034 0.56595-1.11548 0.23942-1.19711-0.3049-0.0762-0.72505-0.0173-1.0375-0.0798-0.46341-0.0927-0.96027-0.18086-1.39663-0.39904-0.84451-0.42225-2.16285-0.81006-3.07258-1.0375-0.0838-0.0209-1.45551-1.49541-0.15962-0.19951 0.85544 0.85544 2.19059 1.43653 3.39182 1.43653 0.38491 0 0.95655-0.14935 1.31682-0.23942 0.21699-0.0543 0.51677-0.38229 0.75817-0.47885 0.26199-0.10479-0.41791-0.38179-0.59855-0.59855-0.0665-0.0798-0.13302-0.15962-0.19953-0.23942-0.71532-0.8584-0.96642-2.04384-1.79565-2.87307-0.13341-0.1334-2.07779-2.40319-1.15721-1.63605 0.95189 0.79324 1.83163 1.49845 2.63364 2.43412 0.41125 0.4798 0.76487 1.10573 1.15721 1.59615 0.39477 0.49348 0.31152-0.10291 0.19951-0.43894-0.24012-0.72038-0.1197-1.72147-0.1197-2.47403 0-0.99806 0.51551 1.02456 0.55865 1.19711 0.12401 0.49605 0.38047 1.14206 0.75816 0.63846 0.39026-0.52034 0.43894-0.61871 0.43894 0.0399v0.15961c0 0.24765-0.0131 0.53284 0.0399 0.79807z" fill="#f3f4f2" opacity=".472222"/>
          <path id="path7608" d="m340.04704-444.98479c0.08 0.0851 0.15962 0.37727 0.15962 0.63846 0 0.10627-0.65983 0.61991-0.75818 0.71827-0.19197 0.19196-0.23069 0.51496-0.27932 0.75816-0.0627 0.31332-0.14128 0.53067-0.0798 0.83798 0.0521 0.26046 0.16017 0.51987 0.27932 0.75817 0.14338 0.28674 0.35124 0.43104 0.59856 0.67837 0.27549 0.27549 0.61563 0.27362 0.95768 0.35913 0.43482 0.1087-0.25838 0.523-0.35913 0.59856-0.26793 0.20095-0.5291 0.26013-0.67836 0.55865-0.1729 0.3458 0.18476 0.47294 0.39904 0.55865 0.2419 0.0968 0.60668-0.33006 0.71827-0.47885 0.15065-0.20087 0.39904-0.42712 0.39904-0.67836 0-0.24697 0.1197-0.50826 0.1197-0.79807 0-0.27029 0.0614-0.56478 0.11971-0.79808 0.0889-0.35541 0.21725-0.49656 0.43894-0.71826 0.17864-0.17863 0.17417-0.6202 0.11972-0.83798-0.0624-0.24974-0.21901-0.47698-0.27933-0.71827-0.0615-0.24606-0.36202-0.38978-0.55865-0.43894-0.23626-0.0591-0.56748-0.48767-0.71827-0.63846-0.20761-0.20761-0.2995-0.35913-0.59855-0.35913z" fill="#787974" opacity=".116667"/>
        </g>
        <path id="path7610" d="m322.68884-446.02226c-9e-3 -9e-3 0.0266 0 0 0z" fill="none" stroke="#000" stroke-width="1.00131px"/>
        <g fill-rule="evenodd">
          <path id="path7612" d="m327.59708-455.67899c0.17193-0.0426 0.57166-0.17284 0.83797-0.23942 0.34034-0.0851 0.69744 0.11971 1.0375 0.11971 0.0345 0 0.25527 0.43894 0.63846 0.43894h0.15962c0.24164 0 0.51173 0.1925 0.67836 0.35914 0.16091 0.1609 0.0136 0.54508-0.0798 0.63846-0.25418 0.25417-0.48157 0.0771-0.67836-0.11972-0.21053-0.21053-0.32098-0.28974-0.59856-0.35913-0.27563-0.0689-0.57017-0.0271-0.83797 0.0399-0.32704 0.0818-0.54193 0.15961-0.91779 0.15961-0.12562 0-0.5121-0.54536-0.55866-0.63846-0.0821-0.16419 0.21875-0.37391 0.31924-0.39904z" fill="#938f8b" opacity=".2"/>
          <path id="path7614" d="m332.42543-455.00062c0.19753 0.0512 0.64044 0.0394 0.95768-0.0399 0.35162-0.0879 0.90828-0.13206 1.27693-0.0399 0.22336 0.0558 1.58727 0.32367 0.95768 0.63846-0.31149 0.15575-0.64122 0.19319-0.91778 0.35913-0.33295 0.19977 0.40229 0.27933 0.55865 0.27933 0.42422 0 0.18044 0.51064 0.0798 0.67836-0.15693 0.26154-0.0504 0.66587 0 0.91779 0.0571 0.28533 0.54752 0.23942 0.79807 0.23942 0.34322 0 0.63189 0.0444 0.83798 0.31923 0.18225 0.243 0.43466 0.4874 0.31923 0.71827-0.11889 0.23778-0.72141 0.27932-0.91778 0.27932-0.15157 0-0.75039-0.7629-0.83799-0.83798-0.23047-0.19755-0.49986-0.0147-0.71825 0.0399-0.38884 0.0972-0.67608-0.39713-0.9178-0.59856-0.26154-0.21795-0.42515-0.53108-0.55865-0.79807-0.16889-0.33778 0.10385-0.47885-0.39903-0.47885-0.3123 0-0.48314-0.0631-0.71828-0.23942-0.31928-0.23946-0.55864-0.14689-0.55864-0.59856 0-0.39868 0.0217-0.5158 0.35913-0.71826 0.10827-0.065 0.25395-0.0327 0.39904-0.11971z" fill="#938f8b" opacity=".288889"/>
          <path id="path7616" d="m323.87671-456.18983c0.0486 0.17563-0.12589 0.39398-0.27933 0.59856-0.20144 0.2686-0.31042 0.44774-0.0798 0.67836 0.14329 0.14329 0.57893 0.0158 0.71827-0.0399 0.3214-0.12856 0.67358-0.22953 0.99759-0.35914 0.24572-0.0983 0.42921-0.13723 0.67837-0.19952 0.28672-0.0717 0.57153 0.0571 0.67836 0.19952 0.0681 0.0908-0.46179 0.49027-0.51875 0.51875-0.24201 0.12101-0.47286 0.21798-0.71826 0.27933-0.30202 0.0755-0.57153 0.17815-0.87789 0.23942-0.3077 0.0615-0.52361 0.15455-0.79807 0.31923-0.34006 0.20404-0.62606 0.50635-0.91778 0.79807-0.27258 0.27258-0.36706 0.56687-0.27933 0.91779 0.0844 0.33751 0.21002 0.457 0.51874 0.51875 0.34331 0.0687 0.51057-0.0955 0.67837-0.31923 0.21824-0.29099 0.30168-0.66081 0.55865-0.91779 0.21494-0.21494 0.36221-0.4213 0.59856-0.59855 0.23961-0.17971 0.42089-0.27386 0.71826-0.19952 0.24732 0.0618 0.44873 0.30522 0.71827 0.35913 0.22729 0.0455 0.56158-0.26083 0.75817-0.35913 0.0429-0.0215 0.0798-0.0532 0.11972-0.0798 0.20735-0.13823 0.55041-0.0798 0.79807-0.0798 0.26905 0 0.49616 0.12837 0.71826 0.23943 0.26878 0.13438 0.50064 0.12608 0.75817 0.31922 0.27256 0.20442 0.41891 0.35898 0.55865 0.63846 0.132 0.26398 0.19034 0.42976 0.39905 0.63846 0.22072 0.22073 0.5603 0.3608 0.79806 0.59856 0.14292 0.14291 0.23261 0.53136 0.27934 0.71827 0.0733 0.29311 0.1394 0.59907 0 0.87788-0.15089 0.30177-0.33189 0.58395-0.47885 0.87788-0.14461 0.28922-0.54921 0.53161-0.79808 0.71827-0.343 0.25726-0.75121 0.27237-1.07739 0.59855-0.37514 0.37514-0.41054 0.59586-0.75818 1.11731-0.25687 0.38531 0.0488 0.55643 0.35914 0.47884 0.32847-0.0821 0.63271-0.15818 0.95769-0.23942 0.0532-0.0133 0.10641-0.0266 0.15961-0.0399 0.40007-0.10002 0.71782-0.41888 1.11731-0.51875 0.49733-0.12434 1.54284 0.64638 1.99518 0.91778 0.35667 0.214-0.0691 0.63309-0.23943 0.71827-0.31686 0.15844-0.63298 0.19952-0.99758 0.19952-0.23599 0-0.49249-0.0746-0.71827-0.11971-0.30515-0.061-0.51781-0.0606-0.75817 0.11971-0.26722 0.20041-0.2359 0.45813-0.0798 0.71827 0.15594 0.25988 0.4102 0.4437 0.47884 0.71826 0.0866 0.34646-0.19337 0.53103-0.43894 0.67837-0.24654 0.14793-0.67218-0.0399-0.95768-0.0399-0.36171 0-0.71143 0.18442-0.99759 0.39904-0.12968 0.0972-0.24307 0.61316-0.27933 0.75817-0.0133 0.0532-0.0266 0.10641-0.0399 0.15961-0.0973 0.38907 0.0274 0.58727 0.15962 0.91779 0.0957 0.23925 0.32804 0.45656 0.43894 0.67836 0.13845 0.2769 0.22919 0.45941 0.0798 0.75817-0.12733 0.25466-0.17555 0.46276-0.23943 0.71827-0.0447 0.17901 0.20742 0.65821 0.27933 0.83798 0.14423 0.36058 0.0101 0.42884-0.23942 0.67836-0.22081 0.22081-0.55162 0.27581-0.79808 0.39904-0.22919 0.11459-0.68092-0.0206-0.91778-0.0798-0.26703-0.0668-0.51539 0.0582-0.71827 0.15962-0.32213 0.16106-0.32111 0.31673-0.55865 0-0.25189-0.33586-0.46084-0.68615-0.55865-1.0774-0.0133-0.0532-0.0266-0.10641-0.0399-0.15962-0.0669-0.26738-0.0399-0.59608-0.0399-0.87788 0-0.28764 0.0798-0.54462 0.0798-0.83798 0-0.31598-0.75459 0.2779-0.95769 0.35914-0.094 0.0376-0.18622 0.0798-0.27933 0.11971-0.39874 0.17088-0.35913 0.53524-0.35913 0.87788 0 0.34152 0.19952 0.60231 0.19952 0.95769 0 0.34242-0.40343 0.43894-0.67836 0.43894-0.39099 0-0.5722-0.45249-0.83798-0.71827-0.25427-0.25426-0.68805-0.53811-0.83798-0.83798-0.21218-0.42434-0.28391-0.66495 0.15961-0.99759 0.25414-0.1906 0.60842-0.22596 0.79808-0.47885 0.19924-0.26565 0.48175-0.63773 0-0.75816-0.32828-0.0821-0.45564-0.19619-0.83798-0.11972-0.0665 0.0133-0.13301 0.0266-0.19952 0.0399-0.65946 0.13189-0.65494 0.0716-1.27692-0.23943-0.44759-0.22379-0.60098-0.56108-0.91778-0.87787-0.29493-0.29493-0.46228-0.69193-0.55865-1.07741-0.0887-0.3548-0.19371-0.69501-0.27933-1.03749-0.0701-0.28055-0.0798-0.62556-0.0798-0.91779 0-0.29703-0.0798-0.61344-0.0798-0.91778v-0.9976c0-0.33652 0.0399-0.63406 0.0399-0.95769 0-0.27723 0.0542-0.61602 0.11971-0.87788 6e-3 -0.0258 0-0.0532 0-0.0798 0-0.34035 0.19708-0.69222 0.31923-0.99759 0.10762-0.26907 0.27463-0.54927 0.39904-0.79807 0.13028-0.26058 0.26091-0.48091 0.43893-0.71827 0.19221-0.25628 0.3969-0.51617 0.59856-0.75817 0.34733-0.4168 0.70836-0.80669 1.11731-1.15721 0.23897-0.20483 0.35655-0.54675 0.63846-0.75817 0.34879-0.26159 0.65243-0.5392 0.99759-0.79807 0.2624-0.1968 0.50186-0.42411 0.67837-0.71827 0.14356-0.23929 0.22462-0.46405 0.43893-0.67836 0.0527-0.0527 0.22984-0.13487 0.27933-0.15962z" fill="url(#radialGradient7778)" opacity=".177778"/>
        </g>
        <circle id="path7618" transform="matrix(.02128891 0 0 .02128891 345.1547 -457.7716)" cx="-856.59576" cy="649.36853" r="31.864613" fill="#fff" opacity=".616667"/>
        <circle id="path7620" transform="matrix(.01127061 0 0 .01127061 330.388 -456.653)" cx="-856.59576" cy="649.36853" r="31.864613" fill="#fff" opacity=".544444"/>
        <circle id="path7622" transform="matrix(.02128891 0 0 .02128891 354.9312 -458.5298)" cx="-856.59576" cy="649.36853" r="31.864613" fill="#c2c3be" opacity=".544444"/>
        <circle id="path7624" transform="matrix(.02128891 0 0 .02128891 349.8235 -448.3144)" cx="-856.59576" cy="649.36853" r="31.864613" fill="#c2c3be" opacity=".566667"/>
        <g fill="#fff">
          <circle id="path7626" transform="matrix(.01377519 0 0 .01377519 347.8565 -453.491)" cx="-856.59576" cy="649.36853" r="31.864613" opacity=".616667"/>
          <circle id="path7628" transform="matrix(.01127061 0 0 .01127061 337.4909 -441.33)" cx="-856.59576" cy="649.36853" r="31.864613" opacity=".616667"/>
          <circle id="path7630" transform="matrix(.01377519 0 0 .01377519 346.1806 -447.5852)" cx="-856.59576" cy="649.36853" r="31.864613" opacity=".616667"/>
          <circle id="path7632" transform="matrix(.01377519 0 0 .01377519 351.368 -458.9977)" cx="-856.59576" cy="649.36853" r="31.864613" opacity=".616667"/>
          <circle id="path7634" transform="matrix(.01377519 0 0 .01377519 348.3353 -458.1996)" cx="-856.59576" cy="649.36853" r="31.864613" opacity=".616667"/>
          <circle id="path7636" transform="matrix(.01377519 0 0 .01377519 349.5325 -462.6689)" cx="-856.59576" cy="649.36853" r="31.864613" opacity=".616667"/>
          <circle id="path7638" transform="matrix(.01377519 0 0 .01377519 340.6738 -449.4208)" cx="-856.59576" cy="649.36853" r="31.864613" opacity=".616667"/>
          <path id="path7640" d="m328.31362-435.94304c0.20049-0.13569 0.7838-0.72662 1.18356-1.02271 0.077-0.0571 0.14794-0.12175 0.22192-0.18263 0.39866-0.32808 0.74611-0.84954 1.03562-1.2784 0.45929-0.68036 0.66102-1.29151 0.81369-2.04542 0.19399-0.95783 0.24299-0.31807 0.037 0.2922-0.0322 0.0953-0.0493 0.1948-0.074 0.29221-0.10106 0.39921-0.14098 0.82291-0.29589 1.20534-0.20907 0.51616-0.60361 0.95987-0.73973 1.49755-0.0726 0.28688-0.17148 0.63753-0.11095 0.87661 0.0723 0.28568 0.49382-0.34519 0.77671-0.43831 0.38495-0.12671 0.48082-0.20957 0.48082 0.21916 0 0.25912-0.13232 0.61682-0.18493 0.87661-0.0907 0.44791 1.19386 0.0705 1.47945 0 0.93365-0.23051 1.57404-0.54658 2.33015-1.16882 0.83261-0.6852 1.52511-1.43306 2.29315-2.19153 0.61795-0.61025 0.90873-0.99294 0.51781 0.0365-0.037 0.0974-0.074 0.19481-0.11096 0.29221-0.037 0.0974-0.074 0.1948-0.11095 0.2922-0.20473 0.53913-0.57829 1.13557-1.07261 1.46102-0.77021 0.50708-1.26944 1.44864-2.10823 1.8628-0.33947 0.16763-0.6944 0.2333-1.03562 0.40179-0.34243 0.16909 0.66599 0.28819 0.85069 0.32873 1.85687 0.40749-1.50262 0.58441-1.92329 0.58441-0.6938 0-1.04071-0.14309-1.59041 0.18263-0.18787 0.11131 0.87427 0.53793 0.92465 0.54788 0.43341 0.0856 0.82005 0.36525 1.29453 0.36525 0.78777 0-1.64325 0.24264-2.33015 0.0731-0.57575-0.14215-1.12135-0.25859-1.70136-0.40179-0.29434-0.0727-0.58965-0.0279-0.85069 0.0365-0.0519 0.0128 0.037 0.75369 0.037 0.84009 0 0.54096-0.1434 0.96316-0.40685 0.18263-0.14193-0.42047-0.40686-0.86438-0.40686-1.31492 0-0.28528-0.38147 0.42924-0.55479 0.65746-0.24407 0.32138-0.7248 0.78161-0.8137 0.80356-0.0121 3e-3 0.23931-0.50702 0.33287-0.87662 0.0703-0.27771 0.52458-1.02104 0.22192-1.09576-0.28262-0.0698-0.67204-0.0159-0.96164-0.0731-0.42953-0.0848-0.89007-0.16554-1.29453-0.36525-0.78276-0.38651-2.00472-0.74149-2.84795-0.94967-0.0777-0.0192-1.3491-1.36881-0.14795-0.18262 0.7929 0.78302 2.03043 1.31492 3.14385 1.31492 0.35677 0 0.88662-0.13671 1.22055-0.21916 0.20112-0.0496 0.47898-0.34992 0.70274-0.4383 0.24283-0.0959-0.38736-0.34947-0.5548-0.54788-0.0616-0.0731-0.12328-0.14611-0.18493-0.21916-0.66303-0.78573-0.89577-1.87081-1.66438-2.62984-0.12365-0.12211-1.92588-2.19974-1.07261-1.49755 0.8823 0.72609 1.69774 1.3716 2.4411 2.22806 0.38119 0.43918 0.70895 1.01212 1.07261 1.46103 0.36592 0.45169 0.28875-0.0942 0.18493-0.40178-0.22258-0.6594-0.11096-1.57575-0.11096-2.26459 0-0.91357 0.47782 0.93782 0.51781 1.09577 0.11494 0.45405 0.35266 1.04537 0.70274 0.58441 0.36173-0.47629 0.40685-0.56634 0.40685 0.0365v0.1461c0 0.22669-0.0122 0.48773 0.037 0.73051z" fill-rule="evenodd"/>
        </g>
        <g id="g7642" transform="translate(461.6971,-517.2066)" fill="#a3a4a0" opacity=".316667">
          <ellipse id="path7644" transform="matrix(1 0 0 1.055556 -.176777 -4.08088)" cx="-127.456" cy="68.682877" rx="1.767767" ry="1.5909903"/>
          <ellipse id="path7646" transform="matrix(1 0 0 1.055556 1.767771 -.103439)" cx="-127.456" cy="68.682877" rx="1.767767" ry="1.5909903"/>
          <ellipse id="path7648" transform="matrix(.65 0 0 .686111 -40.27856 25.21363)" cx="-127.456" cy="68.682877" rx="1.767767" ry="1.5909903"/>
          <ellipse id="path7651" transform="matrix(1.55,0,0,1.636111,63.02973,-45.53725)" cx="-127.456" cy="68.682877" rx="1.767767" ry="1.5909903"/>
          <ellipse id="path7653" transform="matrix(1.8,0,0,1.9,89.14849,-57.50565)" cx="-127.456" cy="68.682877" rx="1.767767" ry="1.5909903"/>
          <ellipse id="path7655" transform="matrix(1.4,0,0,1.477778,42.32034,-25.70873)" cx="-127.456" cy="68.682877" rx="1.767767" ry="1.5909903"/>
          <ellipse id="path7657" transform="matrix(1.4,0,0,1.477778,40.72936,-32.28484)" cx="-127.456" cy="68.682877" rx="1.767767" ry="1.5909903"/>
        </g>
        <circle id="path7659" transform="translate(490.9094,-504.2577)" cx="-162.50198" cy="69.52256" r=".66291261" fill="#fff"/>
      </g>
      <circle id="path7661" transform="matrix(1.386488,0,0,1.386488,445.0082,-446.3649)" cx="-56.25" cy=".24999997" r="9.75" fill="none" stroke="#888a85" stroke-width=".722188"/>
      <circle id="path7663" transform="matrix(.778069 -1.061297 1.061298 .778071 410.4716 -466.346)" cx="-32" cy="-17.5" r="9.5" fill="none" stroke="#fff" stroke-linecap="square" stroke-width=".760894"/>
    </g>
  </g>
  <path id="path308" d="m8.46656 2.4664941c-2.2243505 0-4.0390783 1.755991-4.0390783 3.8633972 0 0.8195101 0.4684125 1.931725 1.229371 2.7511028 0.5177301 0.5575495 0.9265327 1.3319489 1.1353128 2.1202649 0.088436-0.08409 0.2083541-0.129708 0.3281321-0.129708h2.7511028c0.1146372 0 0.2110846 0.03576 0.2862756 0.09354 0.213505-0.767071 0.614143-1.541179 1.118274-2.0840972 0.760958-0.81951 1.229371-2.0488016 1.229371-2.7511028 0-2.1073003-1.814622-3.8633972-4.0390785-3.8633972z" fill="url(#radialGradient22954)" stroke-width=".0148625"/>
  <path id="path310" d="m7.1002689 13.997869 0.1953341 0.351389c0.058536 0.05853 0.1171613 0.117304 0.175697 0.117304h1.9905412c0.058536 0 0.175697-0.05876 0.175697-0.117304l0.1560598-0.350886h-2.6733163c-0.00673 0-0.013552-2.64e-4 -0.020153-5.29e-4z" fill="#fff" opacity=".5" stroke-width=".0148625"/>
  <path id="path312" d="m9.8715 13.998h-2.7512c-0.29268 0-0.46829-0.23415-0.46829-0.46829v-1.9902c0-0.29268 0.23415-0.46829 0.46829-0.46829h2.7512c0.29268 0 0.46829 0.23415 0.46829 0.46829v1.9902c0 0.29268-0.17561 0.46829-0.46829 0.46829" fill="#fff" stroke-width=".014863" p-id="5160"/>
  <g id="g322" fill="#efeff3">
    <path id="path316" transform="scale(.26458)" d="m25.141 43.615v1.5488h8.1875c0.44248 0 0.88477-0.44281 0.88477-0.66406 0-0.44248-0.44228-0.88477-0.88477-0.88477h-8.1875z" stroke-width=".056174"/>
    <path id="path318" transform="scale(.26458)" d="m25.141 46.713v1.5488h13.939v-1.5488h-13.939z" stroke-width=".056174"/>
    <path id="path320" d="m10.34 13.589h-2.0488c-0.11707 0-0.23415-0.11707-0.23415-0.23415s0.11707-0.23415 0.23415-0.23415h2.0488z" stroke-width=".014863"/>
  </g>
</svg>
