<svg id="svg290" version="1.1" viewBox="0 0 64 64" xmlns="http://www.w3.org/2000/svg">
  <defs id="defs278">
    <style id="style266" type="text/css"/>
    <style id="style268" type="text/css"/>
    <filter id="filter1057" x="-.026999999" y="-.026999999" width="1.054" height="1.054" color-interpolation-filters="sRGB">
      <feGaussianBlur id="feGaussianBlur270" stdDeviation="0.61875"/>
    </filter>
    <linearGradient id="linearGradient1053" x1="-127" x2="-72" y1="60" y2="5" gradientTransform="translate(131.5 -.51)" gradientUnits="userSpaceOnUse">
      <stop id="stop273" stop-color="#861e1e" offset="0"/>
      <stop id="stop275" stop-color="#d64747" offset="1"/>
    </linearGradient>
    <linearGradient id="linearGradient4557" x1="76.566559" x2="14.575706" y1="71.37812" y2="14.695784" gradientUnits="userSpaceOnUse">
      <stop id="stop4551" stop-color="#9b9b9b" offset="0"/>
      <stop id="stop4553" stop-color="#f6f6f6" offset="1"/>
    </linearGradient>
    <filter id="filter6819" x="-.026488892" y="-.027531217" width="1.0529778" height="1.0550624" color-interpolation-filters="sRGB">
      <feGaussianBlur id="feGaussianBlur6821" stdDeviation="0.50770387"/>
    </filter>
  </defs>
  <rect id="rect280" x="4.5" y="4.5" width="55" height="55" ry="15" fill="#141414" filter="url(#filter1057)" opacity=".3" stroke-linecap="round" stroke-width="2.7444"/>
  <rect id="rect282" x="4.5" y="4.5" width="55" height="55" ry="15" fill="url(#linearGradient1053)" stroke-linecap="round" stroke-width="2.7444"/>
  <circle id="circle284" cx="-1326.3" cy="-1241.6" r="0" fill="#5e4aa6"/>
  <g fill-rule="evenodd">
    <circle id="circle286" cx="-226.72" cy="23.855" r="0" fill="#5e4aa6"/>
    <path id="path6806" d="m31.999997 9.8707714a21.095711 22.129715 0 0 0-17.249143 9.4670596 4.65939 4.5716989 0 0 0-1.091892-0.128559 4.65939 4.5716989 0 0 0-4.6589653 4.571546 4.65939 4.5716989 0 0 0 2.3500523 3.959606 21.095711 22.129715 0 0 0-0.44567 4.259577 21.095711 22.129715 0 0 0 21.095618 22.129229 21.095711 22.129715 0 0 0 1.897526-0.142272l-0.07199 0.05828c9.756149-0.515653 17.374458-2.0493 20.296839-2.956852-4.092178-1.326119-4.227555-6.038285-3.123118-9.530481a21.095711 22.129715 0 0 0 0.618796-1.570131c0.03653-0.07597 0.07218-0.152923 0.109703-0.226262l-0.04113 0.03257a21.095711 22.129715 0 0 0 1.408998-7.794082 21.095711 22.129715 0 0 0-0.380533-3.951036 4.65939 4.5716989 0 0 0 2.284915-3.92361 4.65939 4.5716989 0 0 0-4.658965-4.571546 4.65939 4.5716989 0 0 0-0.874199 0.09085 21.095711 22.129715 0 0 0-17.466836-9.7738856z" fill="#141414" filter="url(#filter6819)" opacity=".3"/>
    <g id="g5384" transform="matrix(.87762707 0 0 .87762707 3.9159338 3.9159337)" stroke-width="1.13944">
      <path id="path3757" d="m32 6.7851562a24.037216 25.215397 0 0 0-19.654297 10.78711 5.3090773 5.2091589 0 0 0-1.244141-0.146485 5.3090773 5.2091589 0 0 0-5.3085932 5.208985 5.3090773 5.2091589 0 0 0 2.6777343 4.511718 24.037216 25.215397 0 0 0-0.5078125 4.853516 24.037216 25.215397 0 0 0 24.037109 25.214844 24.037216 25.215397 0 0 0 2.162109-0.16211l-0.08203 0.06641c11.116509-0.587554 19.797085-2.335046 23.126952-3.369144-4.662775-1.511028-4.817029-6.88024-3.558593-10.859375a24.037216 25.215397 0 0 0 0.705078-1.789063c0.04162-0.08656 0.08225-0.174246 0.125-0.257812l-0.04687 0.03711a24.037216 25.215397 0 0 0 1.605463-8.88086 24.037216 25.215397 0 0 0-0.433593-4.501953 5.3090773 5.2091589 0 0 0 2.603515-4.470703 5.3090773 5.2091589 0 0 0-5.308593-5.208985 5.3090773 5.2091589 0 0 0-0.996094 0.103516 24.037216 25.215397 0 0 0-19.902344-11.136719z" fill="url(#linearGradient4557)"/>
      <ellipse id="path3783" transform="matrix(.98470648 .17422157 -.17307653 .98490838 0 0)" cx="28.36474" cy="19.965029" rx="5.8020458" ry="7.7477031"/>
      <ellipse id="path3783-5" transform="matrix(.98470648 -.17422157 .17307653 .98490838 0 0)" cx="34.669434" cy="31.115322" rx="5.7762117" ry="7.7477031"/>
    </g>
  </g>
</svg>
