<svg id="svg34" width="64" height="64" version="1.1" viewBox="0 0 16.933 16.933" xmlns="http://www.w3.org/2000/svg" xmlns:xlink="http://www.w3.org/1999/xlink">
  <defs id="defs12">
    <linearGradient id="linearGradient1475">
      <stop id="stop1471" stop-color="#383838" offset="0"/>
      <stop id="stop1473" offset="1"/>
    </linearGradient>
    <style id="style2" type="text/css"/>
    <style id="style863" type="text/css"/>
    <filter id="filter1057" x="-.026999999" y="-.026999999" width="1.054" height="1.054" color-interpolation-filters="sRGB">
      <feGaussianBlur id="feGaussianBlur865" stdDeviation="0.61875"/>
    </filter>
    <linearGradient id="linearGradient1053" x1="-99.500008" x2="-99.500008" y1="60.009998" y2="5.0100002" gradientTransform="matrix(.26457812 0 0 .26457812 34.792024 -.13493486)" gradientUnits="userSpaceOnUse">
      <stop id="stop868" stop-color="#ccc" offset="0"/>
      <stop id="stop870" stop-color="#fefefe" offset="1"/>
    </linearGradient>
    <style id="style873" type="text/css"/>
    <style id="style875" type="text/css"/>
    <style id="style877" type="text/css"/>
    <style id="style879" type="text/css"/>
    <style id="style881" type="text/css"/>
    <style id="style883" type="text/css"/>
    <style id="style885" type="text/css"/>
    <linearGradient id="linearGradient1477" x1="2.6462855" x2="14.287312" y1="8.3490399" y2="8.3490399" gradientUnits="userSpaceOnUse" xlink:href="#linearGradient1475"/>
    <linearGradient id="linearGradient1479" x1="8.4665117" x2="8.4667969" y1="13.874321" y2="3.0019531" gradientUnits="userSpaceOnUse" xlink:href="#linearGradient1475"/>
    <filter id="filter1493" x="-.026718815" y="-.027287163" width="1.0534376" height="1.0545743" color-interpolation-filters="sRGB">
      <feGaussianBlur id="feGaussianBlur1495" stdDeviation="0.12564348"/>
    </filter>
  </defs>
  <rect id="rect901" transform="scale(.26457812)" x="4.5" y="4.5" width="55" height="55" ry="15" fill="#141414" filter="url(#filter1057)" opacity=".3" stroke-linecap="round" stroke-width="2.7444"/>
  <rect id="rect903" x="1.1906016" y="1.1906016" width="14.551797" height="14.551797" ry="3.9686718" fill="url(#linearGradient1053)" stroke-linecap="round" stroke-width=".726108"/>
  <g id="g1491" transform="matrix(1.031508 0 0 1.031508 -.26677419 -.14549112)" filter="url(#filter1493)" opacity=".3">
    <path id="path1489" d="m8.4665 2.8235447c-3.0997194 1.084e-4 -5.6156666 2.4993927-5.6427348 5.592746-2.427e-4 0.027729-2.32e-4 0.072596 2.42e-5 0.1002085 0.022945 2.4728348 1.6522193 4.6325448 4.0000612 5.3459148 0.158543 0.04817 0.2889385-0.0547 0.2884692-0.220386-8.757e-4 -0.30922-0.00188-0.604164-0.00282-0.764515-1.6209395 0.361311-2.0143039-0.690383-2.0143039-0.690383-0.2651151-0.691064-0.6469762-0.875382-0.6469762-0.875382-0.5291155-0.370804 0.0392733-0.363278 0.0392733-0.363278 0.5849162 0.04219 0.8924345 0.616488 0.8924345 0.616488 0.5197981 0.913902 1.4105206 0.539123 1.742495 0.386015 0.05296-0.38626 0.1576488-0.694939 0.3240048-0.844376-1.2939656-0.150834-2.7791038-0.664438-2.7791038-2.9563505 0-0.6528263 0.218907-1.1866908 0.5916835-1.6045217-0.0600987-0.1512253-0.2610039-0.7601448 0.0563262-1.5833347 0 0 0.030298-0.00942 0.093532-0.012402 0.1896592-0.00894 0.6163254 0.054106 1.4510456 0.6345741 0.5122689-0.1486535 1.0394896-0.1904924 1.5476792-0.1917159 0.5554868-0.0013492 1.0881086 0.0509539 1.5549133 0.1917158 0.8344757-0.5804931 1.3685417-0.6439308 1.5580137-0.6350908 0.06317 0.00295 0.09405 0.012919 0.09405 0.012919 0.318035 0.8232136 0.117607 1.4320545 0.05788 1.5833347 0.373474 0.4179092 0.554994 0.9517112 0.554994 1.6045217 0 2.2977793-1.362882 2.8037293-2.6607674 2.9516993 0.2089148 0.184718 0.4397574 0.549659 0.4397574 1.107404 0 0.3212-0.0013 0.869459-0.0024 1.383586-3.77e-4 0.165685 0.128894 0.264187 0.285694 0.210717 2.256833-0.769599 3.79697-2.884776 3.819504-5.2871041 2.6e-4 -0.02764 2.72e-4 -0.072435 3.1e-5 -0.1000483-0.02698-3.0934501-2.54297-5.5928473-5.64276-5.5929559z" color="#000000" fill-rule="evenodd" style="-inkscape-stroke:none"/>
  </g>
  <g id="path1134" transform="matrix(1.031508 0 0 1.031508 -.26677419 -.14549112)" fill="url(#linearGradient1477)">
    <path id="path1467" d="m8.4665 2.8235447c-3.0997194 1.084e-4 -5.6156666 2.4993927-5.6427348 5.592746-2.427e-4 0.027729-2.32e-4 0.072596 2.42e-5 0.1002085 0.022945 2.4728348 1.6522193 4.6325448 4.0000612 5.3459148 0.158543 0.04817 0.2889385-0.0547 0.2884692-0.220386-8.757e-4 -0.30922-0.00188-0.604164-0.00282-0.764515-1.6209395 0.361311-2.0143039-0.690383-2.0143039-0.690383-0.2651151-0.691064-0.6469762-0.875382-0.6469762-0.875382-0.5291155-0.370804 0.0392733-0.363278 0.0392733-0.363278 0.5849162 0.04219 0.8924345 0.616488 0.8924345 0.616488 0.5197981 0.913902 1.4105206 0.539123 1.742495 0.386015 0.05296-0.38626 0.1576488-0.694939 0.3240048-0.844376-1.2939656-0.150834-2.7791038-0.664438-2.7791038-2.9563505 0-0.6528263 0.218907-1.1866908 0.5916835-1.6045217-0.0600987-0.1512253-0.2610039-0.7601448 0.0563262-1.5833347 0 0 0.030298-0.00942 0.093532-0.012402 0.1896592-0.00894 0.6163254 0.054106 1.4510456 0.6345741 0.5122689-0.1486535 1.0394896-0.1904924 1.5476792-0.1917159 0.5554868-0.0013492 1.0881086 0.0509539 1.5549133 0.1917158 0.8344757-0.5804931 1.3685417-0.6439308 1.5580137-0.6350908 0.06317 0.00295 0.09405 0.012919 0.09405 0.012919 0.318035 0.8232136 0.117607 1.4320545 0.05788 1.5833347 0.373474 0.4179092 0.554994 0.9517112 0.554994 1.6045217 0 2.2977793-1.362882 2.8037293-2.6607674 2.9516993 0.2089148 0.184718 0.4397574 0.549659 0.4397574 1.107404 0 0.3212-0.0013 0.869459-0.0024 1.383586-3.77e-4 0.165685 0.128894 0.264187 0.285694 0.210717 2.256833-0.769599 3.79697-2.884776 3.819504-5.2871041 2.6e-4 -0.02764 2.72e-4 -0.072435 3.1e-5 -0.1000483-0.02698-3.0934501-2.54297-5.5928473-5.64276-5.5929559z" color="#000000" fill="url(#linearGradient1479)" fill-rule="evenodd" style="-inkscape-stroke:none"/>
  </g>
  <g fill="#5e4aa6">
    <circle id="circle22" cx="-327.3" cy="-349.81" r="0" stroke-width=".26458"/>
    <g id="g32" transform="translate(3.0582 -21.439)" stroke-width=".26458">
      <circle id="circle24" cx="-299.02" cy="-338.77" r="0"/>
      <circle id="circle26" cx="-8.1062" cy="-3.9487" r="0" fill-rule="evenodd"/>
      <circle id="circle28" cx="-278.25" cy="-357.69" r="0"/>
      <circle id="circle30" cx="12.663" cy="-22.859" r="0" fill-rule="evenodd"/>
    </g>
    <circle id="circle889" cx="-315.28427" cy="-338.47479" r="0" stroke-width=".264578"/>
    <g stroke-width=".26458">
      <circle id="circle891" cx="-283.94406" cy="-348.87265" r="0"/>
      <circle id="circle893" cx="6.9697165" cy="-14.051351" r="0" fill-rule="evenodd"/>
      <circle id="circle895" cx="-263.17407" cy="-367.79266" r="0"/>
      <circle id="circle897" cx="27.738916" cy="-32.961651" r="0" fill-rule="evenodd"/>
    </g>
  </g>
</svg>
