<svg id="svg26" version="1.1" viewBox="0 0 64 64" xmlns="http://www.w3.org/2000/svg">
    <defs id="defs12">
        <filter id="filter1057" x="-.026999999" y="-.026999999" width="1.054" height="1.054" color-interpolation-filters="sRGB">
            <feGaussianBlur id="feGaussianBlur2" stdDeviation="0.61875"/>
        </filter>
        <style id="style333">.cls-1{fill:#fff;}.cls-2{fill:#c7c7c7;}.cls-3{fill:#ff8898;}.cls-4{fill:#e07885;fill-rule:evenodd;}.cls-5{fill:#e6e6e6;}.cls-6{fill:#94d5d2;}.cls-7{fill:#ffeb97;}.cls-8{fill:#576065;}</style>
        <filter id="filter17695" x="-.018247883" y="-.051885517" width="1.0364958" height="1.103771" color-interpolation-filters="sRGB">
            <feGaussianBlur id="feGaussianBlur17697" stdDeviation="0.26850585"/>
        </filter>
        <filter id="filter17701" x="-.0081101712" y="-.023060232" width="1.0162203" height="1.0461205" color-interpolation-filters="sRGB">
            <feGaussianBlur id="feGaussianBlur17703" stdDeviation="0.11933594"/>
        </filter>
        <filter id="filter20906" x="-.060723437" y="-.039604542" width="1.1214469" height="1.0792091" color-interpolation-filters="sRGB">
            <feGaussianBlur id="feGaussianBlur20908" stdDeviation="0.48087546"/>
        </filter>
        <filter id="filter20916" x="-.048001493" y="-.047998505" width="1.096003" height="1.095997" color-interpolation-filters="sRGB">
            <feGaussianBlur id="feGaussianBlur20918" stdDeviation="0.39190612"/>
        </filter>
        <linearGradient id="linearGradient8287" x1="4.4999967" x2="59.497841" y1="59.499802" y2="19.269283" gradientTransform="matrix(3.7796,0,0,3.7796,68.778,0)" gradientUnits="userSpaceOnUse">
            <stop id="stop5" stop-color="#ff8228" offset="0"/>
            <stop id="stop7" stop-color="#ff7346" offset=".49173"/>
            <stop id="stop9" stop-color="#ff8c55" offset="1"/>
        </linearGradient>
    </defs>
    <rect id="rect14" x="4.4999967" y="4.4997997" width="55" height="55" ry="15" fill="#141414" filter="url(#filter1057)" opacity=".3" stroke-linecap="round" stroke-width="2.7444"/>
    <rect id="rect16" x="4.4999967" y="4.4997997" width="55" height="55" ry="14.895" fill="#f95428"/>
    <path id="rect718" d="m14.33964 19.269332c-2.3738 2.596731-5.91915 3.274696-8.90235 2.03125-0.20914-0.08849-0.44942-0.221915-0.69922-0.378906-0.0833-0.05252-0.16237-0.109436-0.24023-0.167969v23.851562c0 8.251822 6.64271 14.894531 14.89453 14.894531h25.21094c8.25182 1e-6 14.89453-6.642709 14.89453-14.894531v-23.8125c-0.17391 0.126921-0.35904 0.240586-0.55664 0.335938-8e-3 0.0047-0.0186 0.0091-0.0274 0.01367-3.05431 1.452238-6.78828 0.829362-9.25585-1.871094l-2e-3 -2e-3h-2e-3c-3.20825 3.512568-8.55982 3.512568-11.76953 0h-2e-3c-3.20971 3.512568-8.56164 3.511091-11.77148 0-1.60627 1.755432-3.74595 2.634765-5.88672 2.634765-2.13939 0-4.27997-0.877743-5.88476-2.634765z" fill="url(#linearGradient8287)"/>
    <path id="path20910" d="m52.329542 49.784972h-17.368836a1.1129303 1.1129303 45 0 1-1.11293-1.11293v-17.370056a1.1129303 1.1129303 135 0 1 1.11293-1.11293h17.368836a1.1129303 1.1129303 45 0 1 1.11293 1.11293v17.370056a1.1129303 1.1129303 135 0 1-1.11293 1.11293zm-16.806643-1.674946h16.244713v-16.246023h-16.244713z" filter="url(#filter20916)" opacity=".6" stroke-width=".0935782"/>
    <path id="path20900" transform="matrix(1.0006368 0 0 .98890239 -.01165823 .33084066)" d="m9.7460938 30.359375a0.943359 0.943359 0 0 0-0.9433594 0.943359v23.791016c0.5798494 0.585465 1.2162596 1.112871 1.8867186 1.595703v-24.441406h15.230469v27.251953h1.888672v-28.197266a0.943359 0.943359 0 0 0-0.94336-0.943359z" filter="url(#filter20906)" opacity=".6"/>
    <g id="g206" fill="#f95428" stroke-width=".113599">
        <path id="path512" d="m61.02164 18.894079c0.2556 1.42475-0.32966 2.858247-1.46985 3.680358-0.1888 0.136545-0.39362 0.255596-0.6115 0.35579-8e-3 0.0043-0.0173 0.0088-0.0261 0.01306-3.05431 1.384082-6.7884 0.790077-9.25598-1.783493l-3e-3 -3e-3h-1e-3l-2.98457-4.753634 2.98457-5.703429 8.278607 2.016766z"/>
        <path id="path514" d="m37.88246 21.156844v0.0015c-3.20971 3.347742-8.56167 3.346265-11.7715 0v-0.0015l-1.3725-4.608342 1.3725-5.848721h11.7715l1.67024 5.122488z"/>
        <path id="path516" d="m14.33956 10.699781 2.4109 5.9939-2.4109 4.463163-1e-3 0.0015c-2.37318 2.474853-5.91836 3.119637-8.90156 1.93458-0.20913-0.08429-0.44883-0.210612-0.69863-0.360221-0.10167-0.06101-0.20039-0.126322-0.29342-0.19607-1.14008-0.838015-1.72102-2.256971-1.4669-3.670133l3.1012559-6.174206 8.2607341-1.992489z"/>
    </g>
    <path id="path520" d="m59.55179 22.574323v3.703531c-0.1888 0.136545-0.39362 0.255596-0.6115 0.35579-8e-3 0.0043-0.0173 0.0088-0.0261 0.01306-3.05431 1.384081-6.7884 0.790076-9.25598-1.783494l-3e-3 -3e-3 -1e-3 0.0015c-3.20825 3.347741-8.56032 3.347741-11.77004 0h-1e-3c-3.20973 3.347741-8.56169 3.346264-11.77151 0-1.60629 1.673075-3.74568 2.509727-5.88645 2.509727-2.13939 0-4.28015-0.836538-5.88495-2.51109l-1e-3 0.0015c-2.37318 2.474853-5.91836 3.119636-8.90157 1.93458-0.20913-0.08429-0.44882-0.210612-0.69862-0.360221-0.10167-0.061-0.20039-0.126322-0.29343-0.196071v-3.70353c0.0929 0.06975 0.19176 0.135068 0.29343 0.196069 0.2498 0.14961 0.48949 0.275931 0.69862 0.360221 2.98321 1.185171 6.52839 0.540274 8.90157-1.934579l1e-3 -0.0015c1.60491 1.674553 3.74568 2.511091 5.88495 2.511091 2.14077 0 4.28016-0.836538 5.88645-2.509728 3.20972 3.346264 8.56167 3.347742 11.77151 0h1e-3c3.20972 3.347742 8.56169 3.347742 11.77004 0l1e-3 -0.0015 3e-3 3e-3c2.46758 2.573569 6.20167 3.167575 9.25598 1.783493 8e-3 -0.0043 0.0173-0.0088 0.0261-0.01306 0.21788-0.100198 0.4227-0.219244 0.6115-0.355789z" fill-opacity=".30000001" stroke-width=".113599"/>
    <g id="g212" stroke-width=".0935782">
        <rect id="rect1456" x="34.68576" y="31.026293" width="17.919752" height="17.920967" fill="#e5e5e1"/>
        <path id="path1453" d="m34.685383 44.203906c-0.190149 0-0.379737-0.07504-0.520946-0.223839-0.272871-0.287657-0.260802-0.741977 0.02677-1.014756l13.134283-12.458933c0.287756-0.27278 0.741986-0.260802 1.014757 0.02677 0.27287 0.287658 0.260811 0.741978-0.02677 1.014757l-13.1342 12.458929c-0.138961 0.131663-0.316571 0.197074-0.493902 0.197074z" fill="#f6f5f4"/>
        <path id="path1444" d="m36.586603 49.665473c-0.190148 0-0.379737-0.07504-0.520945-0.223837-0.27278-0.287658-0.260893-0.741978 0.02677-1.014757l16.01863-15.196736c0.287657-0.272779 0.741887-0.260801 1.014757 0.02677 0.272771 0.287657 0.260893 0.741976-0.02677 1.014757l-16.018532 15.196729c-0.138779 0.131758-0.31657 0.197075-0.493901 0.197075z" fill="#f6f5f4"/>
    </g>
    <path id="path1441" d="m52.329542 49.784972h-17.368836a1.1129303 1.1129303 45 0 1-1.11293-1.11293v-17.370056a1.1129303 1.1129303 135 0 1 1.11293-1.11293h17.368836a1.1129303 1.1129303 45 0 1 1.11293 1.11293v17.370056a1.1129303 1.1129303 135 0 1-1.11293 1.11293zm-16.806643-1.674946h16.244713v-16.246023h-16.244713z" fill="#e54728" stroke-width=".0935782"/>
    <g id="g223">
        <path id="path542" d="m49.65387 21.156844h1e-3l-1e-3 0.0015c-3.20825 3.347742-8.56032 3.347742-11.77004 0h-1e-3v-10.458563h11.77152z" fill="#ff7547" stroke-width=".113599"/>
        <path id="path544" d="m26.11096 21.156844v0.0015c-1.60628 1.673076-3.74568 2.509727-5.88644 2.509727-2.13939 0-4.28016-0.836538-5.88496-2.51109v-10.457176h11.77151v10.457063z" fill="#ff7547" stroke-width=".113599"/>
        <path id="rect853" d="m9.74589 31.302535v24.658203c2.5962 2.205613 5.95741 3.539062 9.64648 3.539062h7.4707v-28.197265z" fill="#f95428"/>
        <rect id="rect1459" x="14.103384" y="35.659939" width="8.4034328" height="19.482107" fill="#e5e5e1" stroke-width=".113599"/>
        <rect id="rect1450" transform="rotate(226.50328)" x="-43.446037" y="-20.953709" width="1.7427919" height="11.583625" fill="#f6f5f4" stroke-width=".113596"/>
        <rect id="rect1447" transform="rotate(226.50328)" x="-48.378418" y="-25.634632" width="1.7427919" height="11.583625" fill="#f6f5f4" stroke-width=".113596"/>
        <path id="path1438" d="m24.01291 56.767521h-11.41663v-22.051359h11.41663zm-9.52862-1.888117h7.6405v-18.275124h-7.6405z" fill="#da391b" stroke-width=".113599"/>
        <path id="rect855" d="m8.80253 31.302535v23.791015c0.57985 0.585466 1.21625 1.112871 1.88671 1.595704v-24.441407h15.23047v27.251953h1.88868v-28.197265a0.943359 0.943359 45 0 0-0.943359-0.943359h-17.119142a0.943359 0.943359 135 0 0-0.943359 0.943359z" fill="#e54728"/>
    </g>
    <g id="g228" fill-rule="evenodd" stroke-opacity=".233111" stroke-width="58.1278">
        <rect id="rect17699" x="14.339844" y="5.3004065" width="35.314453" height="12.419921" ry="1.2910312" fill-opacity=".3" filter="url(#filter17701)"/>
        <rect id="rect17693" x="14.339844" y="4.5" width="35.314453" height="12.419921" ry="1.2910312" fill-opacity=".3" filter="url(#filter17695)"/>
        <rect id="rect17482" x="14.339844" y="4.5" width="35.314453" height="12.419921" ry="1.2910312" fill="#da391b"/>
    </g>
    <g id="g234" fill="#e6e6e6">
        <path id="path3130" d="m21.798374 7.161175h-0.887188c-1.223101 0-2.217592 0.994302-2.217592 2.217593 0 1.22329 0.994491 2.217781 2.217781 2.217781h0.887188c0.243939 0 0.443595 0.199656 0.443595 0.443594 0 0.243939-0.199656 0.443595-0.443595 0.443595h-0.887188c-0.243939 0-0.443594-0.199656-0.443594-0.443595v-0.443594h-1.774187v0.443594c0 1.223291 0.994491 2.217782 2.217781 2.217782h0.887188c1.223291 0 2.217782-0.994491 2.217782-2.217782 0-1.22329-0.99468-2.217781-2.217971-2.217781h-0.887188c-0.243939 0-0.443594-0.199655-0.443594-0.443594s0.199655-0.443594 0.443594-0.443594h0.887188c0.243939 0 0.443594 0.199655 0.443594 0.443594v0.443594h1.774188v-0.443594c0-1.223291-0.994491-2.217593-2.217782-2.217593z" stroke-width=".189247"/>
        <polygon id="polygon263" transform="matrix(.18924666 0 0 .18924666 4.500094 -.822952)" points="121.875 65.626 131.25 65.626 131.25 79.689 140.625 79.689 140.625 42.189 131.25 42.189 131.25 56.251 121.875 56.251 121.875 42.189 112.5 42.189 112.5 79.689 121.875 79.689"/>
        <path id="path265" d="m35.548469 7.161175c-1.46723 0-2.661376 1.193958-2.661376 2.661187v1.774187c0 1.46723 1.193957 2.661376 2.661376 2.661376 1.467229 0 2.661376-1.193957 2.661376-2.661376v-1.774187c-1.9e-4 -1.467229-1.194147-2.661187-2.661376-2.661187zm0.886999 4.435374c0 0.489771-0.397418 0.887189-0.887188 0.887189-0.489582 0-0.887189-0.397418-0.887189-0.887189v-1.774187c0-0.489581 0.397418-0.887188 0.887189-0.887188 0.48977 0 0.887188 0.397418 0.887188 0.887188z" stroke-width=".189247"/>
        <path id="path267" d="m43.088813 7.161175h-3.10497v7.096939h1.774187v-2.661565h1.330593c1.223291 0 2.217782-0.994491 2.217782-2.217781 0-1.223291-0.994302-2.217593-2.217592-2.217593zm0 2.661187h-1.330594v-0.887188h1.330594c0.243939 0 0.443594 0.199655 0.443594 0.443594-1.89e-4 0.244128-0.199655 0.443594-0.443594 0.443594z" stroke-width=".189247"/>
    </g>
    <path id="path21877" d="m48.760233 32.019023c-3.31428 0-3.936139 4.722025-2.071418 4.722025 1.864702 0 5.386562-4.722025 2.071418-4.722025zm-5.122338 0.579183c-0.0524 0-0.108503 0.0027-0.166947 0.0102-1.866461 0.241584-1.206334 3.486439-0.21293 3.546623 0.96201 0.05926 2.011722-3.550743 0.379877-3.556841zm-3.231484 1.281008c-0.09856 3e-3 -0.206789 0.02787-0.32367 0.07668-1.500134 0.619251-0.228349 3.170766 0.611549 2.999812 0.775361-0.15873 0.875594-3.100929-0.287879-3.074768zm-2.38997 2.003277a0.69861408 0.69861408 0 0 0-0.420767 0.143102c-1.200115 0.828555 0.4025 2.834204 1.108959 2.52284 0.617502-0.272119 0.224971-2.635407-0.688192-2.665942zm6.662266 1.533135c-2.546746 0.02177-5.788773 1.313757-6.353949 3.841327-0.626212 2.805783 2.581549 6.698052 5.928079 6.698052 1.646679 0 3.545988-1.48727 3.900962-3.371174 0.271236-1.436479-3.193506-0.860391-3.069665 0.09024 0.14915 1.13906-0.835942 1.701111-1.800562 0.965865-3.070058-2.337432 5.084691-3.502437 4.546561-6.696347-0.174429-1.035265-1.519585-1.541966-3.151426-1.528002z" opacity=".1" stroke-width=".872175"/>
</svg>
