<svg id="svg326" version="1.1" viewBox="0 0 64 64" xmlns="http://www.w3.org/2000/svg">
    <defs id="defs296">
        <style id="style284" type="text/css"/>
        <style id="style286" type="text/css"/>
        <filter id="filter1057" x="-.026999999" y="-.026999999" width="1.054" height="1.054" color-interpolation-filters="sRGB">
            <feGaussianBlur id="feGaussianBlur288" stdDeviation="0.61875"/>
        </filter>
        <linearGradient id="linearGradient1053" x1="-127" x2="-72" y1="60" y2="5" gradientTransform="translate(131.5 -.51)" gradientUnits="userSpaceOnUse">
            <stop id="stop291" stop-color="#91bfff" offset="0"/>
            <stop id="stop293" stop-color="#255fdb" offset="1"/>
        </linearGradient>
        <filter id="filter1119" x="-.027002692" y="-.026997308" width="1.0540054" height="1.0539946" color-interpolation-filters="sRGB">
            <feGaussianBlur id="feGaussianBlur1121" stdDeviation="0.54005428"/>
        </filter>
    </defs>
    <circle id="circle298" cx="-1248.7" cy="-1241.6" r="0" fill="#5e4aa6"/>
    <circle id="circle300" cx="-149.15" cy="23.855" r="0" fill="#5e4aa6" fill-rule="evenodd"/>
    <rect id="rect302" x="4.5" y="4.5" width="55" height="55" ry="15" fill="#141414" filter="url(#filter1057)" opacity=".3" stroke-linecap="round" stroke-width="2.7444"/>
    <rect id="rect304" x="4.5" y="4.5" width="55" height="55" ry="15" fill="url(#linearGradient1053)" stroke-linecap="round" stroke-width="2.7444"/>
    <path id="path1093" d="m32.583984 8.0019531c-2.364123-0.0571935-4.77779 0.2363734-7.171875 0.9179688-0.724096 0.206112-1.437173 0.44759-2.138671 0.7207031-3.794652 1.488353-7.148417 3.91396-9.751954 7.048828-0.021994 0.022474-0.044475 0.043817-0.066406 0.066406-3.5357015 4.293995-5.4650275 9.685754-5.455078 15.248047-0.0045238 3.433229 0.7324927 6.826549 2.158203 9.949219 0.001498 0.005203 0.002398 0.010422 0.003906 0.015625 0.006086 0.01331 0.013425 0.025769 0.019532 0.039062 5.528538 12.034463 19.759129 17.325705 31.808593 11.816407 4.144969-1.895142 7.664563-4.931293 10.148438-8.751953 4.93e-4 -7.59e-4 0.00146-0.001195 0.001953-0.001954 0.006713-0.010305 0.012834-0.020935 0.019531-0.03125 1.902307-2.930066 3.136733-6.242232 3.621094-9.701171 0.002204-0.009917 0.005642-0.019368 0.007812-0.029297v-0.011719c0.003494-0.010715 0.008258-0.020511 0.011719-0.03125v-0.046875c-0.003267 0.024223-0.008378 0.048057-0.011719 0.072266v-0.058594c0.152295-1.083949 0.218768-2.179101 0.195313-3.273438v-1.050781c0.004695-0.005796 0.010974-0.011786 0.015625-0.017578-0.08547-1.838996-0.383246-3.662819-0.886719-5.433594-2.953562-10.374425-12.284764-17.207239-22.529297-17.455078z" clip-rule="evenodd" filter="url(#filter1119)" opacity=".3" stroke-linejoin="round" stroke-miterlimit="1.41421" stroke-width=".0107099"/>
    <g id="g503" transform="matrix(.16002976 0 0 .16002976 -12.808354 -.00591468)" clip-rule="evenodd" fill-rule="evenodd" stroke-linejoin="round" stroke-miterlimit="1.41421">
        <g id="g489" transform="matrix(.0669245 0 0 .0669245 130.028 50)" fill-rule="nonzero">
            <path id="path479" d="m1545.47 2708.41c-763.948-1010.7-1548.267-242.68-1343.529 463.72 514.98 1126.31 1845.519 1621.9 2971.839 1106.92 388.22-177.5 717.72-462.14 949.76-820.44-590.53 553.09-1662.86 460.66-2578.07-750.2z" fill="#255fdb"/>
            <path id="path481" d="m2228.44 2012.45c-1050.68-1593.592-2228.436-744.34-2228.436 229.19-0.425 322.42 69.079 641.09 203.719 934.05-139.802-659.8 618.289-1168.58 1324.177-221.54 1024.96 1375.1 2030.83 1133.19 2593.6 507.51 180.74-277.45 297.48-591.64 341.74-919.79v4.33c-241.66 749.69-1308.13 871.66-2234.8-533.75z" fill="#4285f4"/>
            <path id="path483" d="m2948.59 1299.43c-780.25-1287.247-1769.56-1171.382-2439.288-481.537-330.134 400.937-510.227 904.387-509.298 1423.747 70.029-942.2 1209.586-1597.926 2240.916 0 916.74 1422.22 2058.84 1051.7 2221.3 308.63v-7.13c14.22-101.21 20.27-203.4 18.08-305.58v-101.86c-396.99 284.19-919.03 174.44-1531.71-836.27z" fill="#91bfff"/>
            <path id="path485" d="m2953.94 1528.62c714.54 1148.72 1330.54 854.86 1527.89 609.12-7.98-171.71-35.75-341.92-82.76-507.26-333.08 6.88-410.75-48.64-738.48-547.75-500.9-767.514-1131.92-1285.726-2234.55-929.217-357.25 140.122-672.802 369.158-916.738 665.399 757.578-697.23 1687.048-508.025 2444.638 709.708z" fill="#c4e1ff"/>
            <path id="path487" d="m3611.7 1181.53c326.71 499.88 525.59 525.35 787.37 448.95-339.42-1192.217-1581.06-1883.545-2773.27-1544.123-67.61 19.245-134.26 41.656-199.76 67.157 984.98-310.673 1683.49 260.251 2185.66 1028.016z" fill="#f5f5f5"/>
        </g>
    </g>
    <g id="g5577" transform="translate(39.823034,30.620157)">
        <rect id="rect3967" x="-23.823034" y="15.648737" width="32" height="15.806211" ry="4.1142426" fill="#102b63" fill-rule="evenodd" opacity=".7"/>
        <text id="text4023" x="-8.231041" y="28.879843" fill="#f5f5f5" font-family="'Input Sans Compressed'" font-size="16px" style="line-height:0" xml:space="preserve"><tspan id="tspan4021" x="-8.231041" y="28.879843" fill="#f5f5f5" font-family="'YouTube Sans'" font-size="16px" text-align="center" text-anchor="middle">Pro</tspan></text>
    </g>
</svg>
