<svg id="svg342" version="1.1" viewBox="0 0 64 64" xmlns="http://www.w3.org/2000/svg">
    <defs id="defs334">
        <filter id="filter1057-1" x="-.026999999" y="-.026999999" width="1.054" height="1.054" color-interpolation-filters="sRGB">
            <feGaussianBlur id="feGaussianBlur326" stdDeviation="0.61875"/>
        </filter>
        <linearGradient id="linearGradient1053-2" x1="-127" x2="-80.659" y1="60" y2="13.659" gradientTransform="translate(131.5 -.51)" gradientUnits="userSpaceOnUse">
            <stop id="stop329" stop-color="#f37329" offset="0"/>
            <stop id="stop331" stop-color="#ffa154" offset="1"/>
        </linearGradient>
        <style id="style544">.cls-1{fill:url(#linear-gradient);}.cls-2{fill:#fff;}</style>
        <linearGradient id="linear-gradient" x1="2.47" x2="103.76" y1="103.51" y2="9.96" gradientTransform="translate(-112.22457,-53.719467)" gradientUnits="userSpaceOnUse">
            <stop id="stop546" stop-color="#f37329" offset="0"/>
            <stop id="stop548" stop-color="#ffa154" offset="1"/>
        </linearGradient>
    </defs>
    <rect id="rect336" x="4.5" y="4.5" width="55" height="55" ry="15" fill="#141414" filter="url(#filter1057-1)" opacity=".3" stroke-linecap="round" stroke-width="2.7444"/>
    <rect id="rect338" x="4.5" y="4.5" width="55" height="55" ry="15" fill="url(#linearGradient1053-2)" stroke-linecap="round" stroke-width="2.7444"/>
    <g id="g1282" transform="matrix(.53077225 0 0 .53077225 62.373581 31.323706)">
        <path id="path555" class="cls-2" d="m-32.79457-4.079467s2.12-0.78 2.46-4.15a8.53 8.53 0 0 0-0.57-3.92c-0.82-2-2.39-6-2.39-6.82 0 0-0.27 4.42 0.83 7.21a9.69 9.69 0 0 1 0.6 4.69 7.93 7.93 0 0 1-0.93 2.99z"/>
        <path id="path557" class="cls-2" d="m-36.16457-5.559467s2.47 0.27 2.5-4.06a10.14 10.14 0 0 0-0.65-3.64 30.59 30.59 0 0 1-1.85-6.84 29.49 29.49 0 0 1 0.4-6.36s-2.31 1.79-1.91 7.18a18.22 18.22 0 0 0 0.56 3.18c0.29 1.08 0.77 2.75 1.52 4.83a6.94 6.94 0 0 1 0.37 3.28 5.5 5.5 0 0 1-0.94 2.43z"/>
        <path id="path559" class="cls-2" d="m-39.06457-16.939467a28.13 28.13 0 0 0 1.19 3.71 6.29 6.29 0 0 1 0.4 3.51c-0.16 0.92-0.53 1.72-1.34 1.72a8.89 8.89 0 0 0 0.18-3 3.46 3.46 0 0 0-0.19-0.8 9.89 9.89 0 0 1-0.24-5.14z"/>
        <path id="path561" class="cls-2" d="m-60.56457-13.319467a0.6 0.6 0 0 0 0.49-0.4 0.57 0.57 0 0 0-0.38-0.73c-8.1-2.59-15.62 1.8-15.93 2a0.58053854 0.58053854 0 0 0 0.59 1c0.08 0 7.4-4.3 15-1.88a0.49 0.49 0 0 0 0.23 0.01z"/>
        <path id="path563" class="cls-2" d="m-83.08457-6.719467c-0.2 0.12-5 3.1-5.73 7.17a0.58 0.58 0 0 0 0.47 0.68h0.17a0.59 0.59 0 0 0 0.51-0.48c0.66-3.55 5.15-6.36 5.2-6.39a0.58830264 0.58830264 0 1 0-0.62-1z"/>
        <path id="path565" class="cls-2" d="m-52.29457-9.469467s5.1 1.63 6.61 4.91a0.59 0.59 0 0 0 0.61 0.34h0.17a0.59 0.59 0 0 0 0.28-0.78c-1.73-3.76-7.1-5.47-7.32-5.54a0.58 0.58 0 0 0-0.73 0.38 0.59 0.59 0 0 0 0.38 0.69z"/>
        <path id="path567" class="cls-2" d="m-91.47457 6.830533a0.59 0.59 0 0 0-0.76 0.32 11.28 11.28 0 0 0-0.51 6.74 0.59 0.59 0 0 0 0.63 0.4h0.1a0.59 0.59 0 0 0 0.39-0.73c-0.84-2.71 0.46-5.91 0.47-6a0.58 0.58 0 0 0-0.32-0.73z"/>
        <path id="path569" class="cls-2" d="m-75.40457-4.949467a0.58 0.58 0 0 0-0.65-0.5 0.58 0.58 0 0 0-0.5 0.65c0 0.23 0.77 5.75 4.8 8.55a0.58 0.58 0 0 0 0.4 0.09 0.55 0.55 0 0 0 0.41-0.24 0.58 0.58 0 0 0-0.14-0.81c-3.61-2.51-4.32-7.69-4.32-7.74z"/>
        <path id="path571" class="cls-2" d="m-59.32457-7.549467a0.58 0.58 0 0 0-0.5 0.65s0.6 5.26-2.27 8.56a0.58 0.58 0 0 0 0 0.82 0.58 0.58 0 0 0 0.46 0.14 0.57 0.57 0 0 0 0.37-0.2c3.22-3.7 2.57-9.23 2.55-9.46a0.59 0.59 0 0 0-0.61-0.51z"/>
        <path id="path573" class="cls-2" d="m-17.69457 13.800533c-0.46-3.52-4.25-6.52-6.13-7.86a6.89 6.89 0 0 0-2-3.59c-3.72-3.42-9.62-3.59-11.1-3.57a5.28 5.28 0 0 0-3-2.19c-0.57-0.55-1.09-1-1.52-1.39a8.43 8.43 0 0 0-2-4.7c-4.13-4.75-11.42-5.72-13.25-5.91-2.44-5.14-11.63-4.26-12.06-4.21-9.47 1.19-11.47 5.31-11.91 7.3-2.22 0.84-8.42 3.58-11.1 8.87a8.58 8.58 0 0 0-0.83 4.73c-1.26 1.74-5.1 7.48-4 12.21 0 0.17 1 4.11 4.38 5.1a3.24 3.24 0 0 0 1.3 0.11 6 6 0 0 0 2.63-1.21 15.48 15.48 0 0 0 4.75-5.6 8.23 8.23 0 0 0 2.27 0 9.19 9.19 0 0 0 1.74-0.41 13.18 13.18 0 0 0 6.08-4.87 12.77 12.77 0 0 0 7.09 1.14 16.68 16.68 0 0 0 7.52-3.11l0.34 0.26a14.59 14.59 0 0 0-5.44 6.42 6.88 6.88 0 0 0-0.24 3.85c-0.87 1.48-3.44 6.4-2.15 10.09 0 0.13 1.14 3.2 3.94 3.7a2.72 2.72 0 0 0 1 0 4.55 4.55 0 0 0 2-1.19 12.3 12.3 0 0 0 3.32-4.87 7.31 7.31 0 0 0 1.84-0.18 7.11 7.11 0 0 0 1.36-0.44 10.49 10.49 0 0 0 4.43-4.41 10.23 10.23 0 0 0 5.77 0.3 13.38 13.38 0 0 0 5.73-3.14 10.7 10.7 0 0 0 6.08 2.06 6.91 6.91 0 0 0 1.43-0.18 7.29 7.29 0 0 0 1.5-0.63 12.57 12.57 0 0 0 5.1 2.84 4.66 4.66 0 0 0 2.32 0.16 2.37 2.37 0 0 0 0.94-0.44c2.28-1.66 1.88-4.9 1.87-5.04zm-71.74 2.11c-1 0.72-1.68 1-2.23 0.81-2.3-0.67-3-3.65-3-3.68-0.72-3.09 1.32-7 2.73-9.22a16.25 16.25 0 0 0 2.5 4.52 10.09 10.09 0 0 0 4 3 13.65 13.65 0 0 1-4 4.57zm9.26-6.25a6.24 6.24 0 0 1-3.68 0.17 7.84 7.84 0 0 1-4.1-2.73 14.53 14.53 0 0 1-2.41-4.58 9.18 9.18 0 0 1-0.26-1.12 6.59 6.59 0 0 1 0.6-4c2.12-4.18 7-6.64 9.3-7.63 0.36 6.24 1.69 10.18 2.78 12.4a9.39 9.39 0 0 0 2.82 3.43 11.2 11.2 0 0 1-5.05 4.06zm20.7-7a5.45 5.45 0 0 1-0.46 0.38c-2 1.48-7.25 4.59-13 1.65-0.09 0-0.18-0.11-0.29-0.16a7.3 7.3 0 0 1-3-3.19c-1.05-2.17-2.38-6.14-2.64-12.72v-0.15c0.08-0.82 0.87-5 10.32-6.15 0.09 0 9.13-0.89 10.34 3.78 0 0.11 2.43 10.1-0.29 15.26a5.42 5.42 0 0 1-0.98 1.3zm2.06 0.64a7.09 7.09 0 0 0 0.67-1 17 17 0 0 0 1.52-7.75 43 43 0 0 0-0.84-7.93c2.38 0.34 8 1.48 11.19 5.16a6.59 6.59 0 0 1 1.57 4v0.35a18.71 18.71 0 0 0-3.58 0.36c-7.46 1.75-8.73 5.22-8.91 6.84-0.25 0.12-0.55 0.29-0.92 0.5a7.64 7.64 0 0 1-0.7-0.55zm-3 23.3c-0.74 0.65-1.27 0.93-1.73 0.84-1.89-0.34-2.73-2.64-2.73-2.68-0.84-2.41 0.45-5.71 1.39-7.6a12.38 12.38 0 0 0 2.38 3.39 8 8 0 0 0 3.46 2.06 10.89 10.89 0 0 1-2.74 3.99zm6.84-5.77a5.13 5.13 0 0 1-2.92 0.44 6.27 6.27 0 0 1-3.51-1.82 11.4 11.4 0 0 1-2.32-3.46 6 6 0 0 1-0.29-0.88 5.35 5.35 0 0 1 0.12-3.22 13.44 13.44 0 0 1 5.31-6c0.55-0.37 1.07-0.67 1.47-0.9 0.12 0.68 0.24 1.34 0.38 2a24.07 24.07 0 0 0 2.9 7.71 7.49 7.49 0 0 0 2.55 2.49 9.08 9.08 0 0 1-3.66 3.64zm16.65-8.55a4 4 0 0 1-0.68 1.13c-0.11 0.12-0.23 0.24-0.34 0.34-1.47 1.4-5.4 4.34-10.28 2.53a1.2 1.2 0 0 1-0.23-0.11 5.72 5.72 0 0 1-2.61-2.29 21.26 21.26 0 0 1-2.47-6.2c-0.17-0.68-0.34-1.45-0.49-2.26-0.08-0.45-0.17-1-0.25-1.46a0.68 0.68 0 0 0 0-0.12c0-0.68 0.27-4 7.71-5.81a18.37 18.37 0 0 1 3.17-0.3 9.3 9.3 0 0 1 2 0.15 4 4 0 0 1 3.42 2.29c0 0.06 2.17 6 1.54 10.46a7.16 7.16 0 0 1-0.49 1.65zm8.7 2.39a4.81 4.81 0 0 1-2.64 0.8 8.87 8.87 0 0 1-5-1.7 5.07 5.07 0 0 0 0.44-0.87 11.28 11.28 0 0 0 0.68-4.12 19.09 19.09 0 0 0-0.13-2.15 30.38 30.38 0 0 0-0.84-4.35c-0.21-0.78-0.41-1.45-0.56-1.92 1.93 0.06 6.52 0.5 9.39 3.16a5.39 5.39 0 0 1 1.6 3 0.91 0.91 0 0 0 0 0.23v0.06h0.06v0.37a11.26 11.26 0 0 1-0.52 4.13 6.22 6.22 0 0 1-2.48 3.36zm7.73 3c-0.37 0.27-1 0.29-1.91 0a10.86 10.86 0 0 1-4.18-2.22 8.17 8.17 0 0 0 2.36-3.59 12.42 12.42 0 0 0 0.63-3.85c2.12 1.67 4.12 3.9 4.4 6-0.03 0.02 0.23 2.46-1.31 3.61z"/>
        <path id="path575" class="cls-2" d="m-39.50457 0.410533a0.47 0.47 0 0 0-0.36-0.55 11.87 11.87 0 0 0-1.91-0.24 15.1 15.1 0 0 0-2 0 18.24 18.24 0 0 0-8.62 3.19 0.47 0.47 0 0 0-0.1 0.66 0.48 0.48 0 0 0 0.66 0.09 17.59 17.59 0 0 1 7.76-2.95 10.1 10.1 0 0 1 2.07-0.07 4.78 4.78 0 0 1 0.66 0 8.39 8.39 0 0 1 0.86 0.1l0.45 0.09h0.2a0.44 0.44 0 0 0 0.33-0.32z"/>
        <path id="path577" class="cls-2" d="m-57.22457 8.010533c-0.15 0.11-3.71 2.91-4 6.22a0.46 0.46 0 0 0 0.43 0.5 0.38 0.38 0 0 0 0.15 0 0.47 0.47 0 0 0 0.36-0.42c0.22-2.9 3.57-5.52 3.6-5.55a0.47010637 0.47010637 0 1 0-0.58-0.74z"/>
        <path id="path579" class="cls-2" d="m-32.74457 2.220533a0.47 0.47 0 0 0-0.55 0.37 0.47 0.47 0 0 0 0.37 0.55s4.21 0.86 5.71 3.36a0.45 0.45 0 0 0 0.51 0.21h0.13a0.47 0.47 0 0 0 0.16-0.65c-1.71-2.9-6.14-3.78-6.33-3.84z"/>
        <path id="path581" class="cls-2" d="m-62.48457 20.110533a0.47 0.47 0 0 0-0.9-0.26 9 9 0 0 0 0.16 5.43 0.47 0.47 0 0 0 0.54 0.28h0.07a0.47 0.47 0 0 0 0.25-0.62 8.21 8.21 0 0 1-0.12-4.83z"/>
        <path id="path583" class="cls-2" d="m-23.30457 10.210533a0.47 0.47 0 0 0 0 0.66 8.24 8.24 0 0 1 2 4.35 0.46 0.46 0 0 0 0.49 0.44h0.08a0.47 0.47 0 0 0 0.36-0.49 9.09 9.09 0 0 0-2.27-4.89 0.46 0.46 0 0 0-0.66-0.07z"/>
        <path id="path585" class="cls-2" d="m-50.99457 8.740533a0.47 0.47 0 0 0-0.56-0.35 0.48 0.48 0 0 0-0.35 0.57c0 0.18 1.11 4.53 4.57 6.41a0.48 0.48 0 0 0 0.33 0 0.47 0.47 0 0 0 0.12-0.87c-3.09-1.64-4.1-5.72-4.11-5.76z"/>
        <path id="path587" class="cls-2" d="m-38.22457 5.280533h-0.23a0.51 0.51 0 0 0-0.23 0.52 10.19 10.19 0 0 1 0.2 1.58 11 11 0 0 1-0.12 2.5 7.57 7.57 0 0 1-0.77 2.26 3.13 3.13 0 0 1-0.38 0.66 0.47 0.47 0 0 0 0.13 0.66 0.46 0.46 0 0 0 0.36 0.07 0.44 0.44 0 0 0 0.28-0.2 7.13 7.13 0 0 0 0.76-1.36 9.39 9.39 0 0 0 0.68-3.21 12 12 0 0 0-0.24-3.12 0.48 0.48 0 0 0-0.44-0.36z"/>
    </g>
</svg>
