<svg id="svg5" version="1.1" viewBox="0 0 64 64" xmlns="http://www.w3.org/2000/svg" xmlns:xlink="http://www.w3.org/1999/xlink">
  <defs id="defs3">
    <linearGradient id="linearGradient28">
      <stop id="stop28" stop-color="#572390" offset="0"/>
      <stop id="stop30" stop-color="#582392" offset=".5"/>
      <stop id="stop31" stop-color="#8b35a8" offset=".5"/>
      <stop id="stop29" stop-color="#8b35a8" offset="1"/>
    </linearGradient>
    <linearGradient id="linearGradient22">
      <stop id="stop22" stop-color="#1b3c77" offset="0"/>
      <stop id="stop25" stop-color="#1b3c77" offset=".49518406"/>
      <stop id="stop24" stop-color="#152f64" offset=".49518406"/>
      <stop id="stop23" stop-color="#152f64" offset="1"/>
    </linearGradient>
    <style id="style1" type="text/css"/>
    <style id="style2" type="text/css"/>
    <filter id="filter1057" x="-.026999999" y="-.026999999" width="1.054" height="1.054" color-interpolation-filters="sRGB">
      <feGaussianBlur id="feGaussianBlur2" stdDeviation="0.61875"/>
    </filter>
    <linearGradient id="linearGradient1053" x1="-127" x2="-72" y1="60" y2="5" gradientTransform="translate(131.5 -.51)" gradientUnits="userSpaceOnUse">
      <stop id="stop2" stop-color="#f2f2f2" offset="0"/>
      <stop id="stop3" stop-color="#f7f7f7" stop-opacity=".99607998" offset="1"/>
    </linearGradient>
    <linearGradient id="linearGradient23" x1="-104.48438" x2="-82.523438" y1="22.554688" y2="60.328125" gradientUnits="userSpaceOnUse" xlink:href="#linearGradient22"/>
    <linearGradient id="linearGradient27" x1="-104.42003" x2="-95.899971" y1="38.002312" y2="52.830963" gradientUnits="userSpaceOnUse" xlink:href="#linearGradient22"/>
    <linearGradient id="linearGradient29" x1="-82.405457" x2="-58.834908" y1="60.159435" y2="23.070887" gradientUnits="userSpaceOnUse" xlink:href="#linearGradient28"/>
    <linearGradient id="linearGradient33" x1="-101.13672" x2="-54.652344" y1="1.4384766" y2="33.146484" gradientUnits="userSpaceOnUse" xlink:href="#linearGradient28"/>
    <filter id="filter45" x="-.035815743" y="-.033614076" width="1.0716315" height="1.0672282" color-interpolation-filters="sRGB">
      <feGaussianBlur id="feGaussianBlur45" stdDeviation="0.53222285"/>
    </filter>
  </defs>
  <rect id="rect3" x="4.5" y="4.5" width="55" height="55" ry="15" fill="#141414" filter="url(#filter1057)" opacity=".3" stroke-linecap="round" stroke-width="2.7444"/>
  <rect id="rect4" x="4.5" y="4.5" width="55" height="55" ry="15" fill="url(#linearGradient1053)" stroke-linecap="round" stroke-width="2.7444"/>
  <circle id="circle4" cx="-1326.3" cy="-1241.6" r="0" fill="#5e4aa6"/>
  <circle id="circle5" cx="-226.72" cy="23.855" r="0" fill="#5e4aa6" fill-rule="evenodd"/>
  <path id="path33" d="m29.736328 13c-0.851538 0-1.543685 0.690963-1.542969 1.546875v7.40625l1.542969 0.876953v-5.949219h18.548828v13.123047h-1.611328v1.542969h1.611328c0.856784 0 1.546875-0.692508 1.546875-1.544922v-15.455078c0-0.855912-0.690091-1.546875-1.546875-1.546875h-18.548828zm12.703125 1.160156c0.428396 0 0.776629 0.345045 0.777344 0.773438 0 0.42577-0.349828 0.773437-0.777344 0.773437-0.422269 0-0.771484-0.347667-0.771484-0.773437 0-0.427519 0.348335-0.773438 0.771484-0.773438zm2.369141 0c0.427522 0 0.773437 0.345045 0.773437 0.773438 0 0.42577-0.345915 0.773437-0.773437 0.773437-0.425769 0-0.773438-0.347667-0.773438-0.773437 0-0.427519 0.347669-0.773438 0.773438-0.773438zm2.320312 0c0.424023 0 0.770768 0.345045 0.771485 0.773438 0 0.42577-0.346588 0.773437-0.771485 0.773437-0.425768 0-0.77539-0.347667-0.77539-0.773437 0-0.427519 0.349622-0.773438 0.77539-0.773438zm-19.566406 1.486328-4.291016 2.453125 4.291016 2.410157v-4.863282zm9.150391 2.738282-6.353516 3.693359 8.720703 4.894531 6.367188-3.699218-8.734375-4.888672zm-14.373047 0.240234-7.75 4.408203 15.810547 8.873047 6.597656-3.775391-9.435547-5.455078v-1.082031l-5.222656-2.96875zm-8.171875 5.341797 0.009765 9.884765 7.269532 4.050782-0.003907 8.390625 8.441407 4.707031-0.123047-18.283203-15.59375-8.75zm31.654297 0.25-14.900391 8.564453 0.025391 18.201172 14.933593-8.542969-0.058593-18.222656zm-31.607422 10.804687-0.046875 6.986328 6.144531 3.626954 0.005859-7.140625-6.103515-3.472657z" fill="#141414" filter="url(#filter45)" opacity=".3" stroke-width=".214699"/>
  <g id="g45">
    <g id="g33" transform="matrix(.71566247 0 0 .71566247 88.944151 7.8254249)">
      <g stroke-width=".3">
        <path id="rect1" d="m-104.48438 22.554688 0.0137 13.8125 10.156247 5.660156-0.0059 11.722656 11.796874 6.578125-0.171874-25.546875z" fill="url(#linearGradient23)"/>
        <path id="rect2" d="m-104.42003 38.00231 8.529657 4.850121-0.0096 9.978531-8.584577-5.068035z" fill="url(#linearGradient27)"/>
        <path id="rect5" d="m-81.075763 34.869886 20.821737-11.965972 0.0802 25.462347-20.865978 11.937398z" fill="url(#linearGradient29)"/>
        <path id="rect6" d="m-93.066406 15.089844-10.828124 6.160156 22.091796 12.398438 9.216796-5.275391-13.183593-7.623047v-1.511719z" fill="#25529b"/>
        <path id="path8" d="m-72.982422 14.755859-8.878906 5.160157 12.185547 6.839843 8.896484-5.169921z" fill="#9133ad"/>
        <path id="path6" d="m-85.769531 10.929688-5.996094 3.427734 5.996094 3.365234z" fill="#27559e"/>
      </g>
      <path id="path11" d="m-82.730469 7.2304688c-1.18986 0-2.15725 0.9661382-2.15625 2.1621093v10.347656l2.15625 1.226563v-8.3125h25.917969v18.335937h-2.251953v2.15625h2.251953c1.19719 0 2.160156-0.967118 2.160156-2.158203v-21.595703c0-1.1959711-0.962966-2.1621095-2.160156-2.1621093zm17.748047 1.6210937c0.5986 0 1.084938 0.4834348 1.085938 1.0820313 0 0.5949312-0.488568 1.0781252-1.085938 1.0781252-0.59004 0-1.076172-0.483194-1.076172-1.0781252 0-0.5973748 0.484902-1.0820313 1.076172-1.0820313zm3.310547 0c0.59738 0 1.082031 0.4834348 1.082031 1.0820313 0 0.5949312-0.484651 1.0781252-1.082031 1.0781252-0.59493 0-1.080078-0.483194-1.080078-1.0781252 0-0.5973748 0.485148-1.0820313 1.080078-1.0820313zm3.242187 0c0.59249 0 1.077124 0.4834348 1.078126 1.0820313 0 0.5949312-0.484415 1.0781252-1.078126 1.0781252-0.594929 0-1.082031-0.483194-1.082031-1.0781252 0-0.5973748 0.487102-1.0820313 1.082031-1.0820313z" fill="url(#linearGradient33)" stroke-width="1.22162"/>
    </g>
    <path id="path2" d="m38.018659 41.401253c-0.164679 7.59e-4 -0.321422-0.06439-0.437227-0.179138l-2.340933-2.319489c-0.239885-0.237687-0.2417-0.632914-4e-3 -0.872793 0.237684-0.239879 0.632913-0.241695 0.872789-4e-3l1.902535 1.885097 4.212777-4.25166c0.237692-0.239879 0.632921-0.241694 0.872798-4e-3 0.239876 0.237686 0.241691 0.632913 4e-3 0.872794l-4.647176 4.690058c-0.114746 0.115804-0.270884 0.182393-0.435563 0.18315z" fill="#52d379" stroke-width=".823394"/>
  </g>
</svg>
