<?xml version="1.0" encoding="UTF-8" standalone="no"?>
<svg
   inkscape:version="1.2 (dc2aedaf03, 2022-05-15)"
   sodipodi:docname="harmonoid.svg"
   id="svg26"
   viewBox="0 0 16.933 16.933"
   version="1.1"
   height="64"
   width="64"
   xml:space="preserve"
   xmlns:inkscape="http://www.inkscape.org/namespaces/inkscape"
   xmlns:sodipodi="http://sodipodi.sourceforge.net/DTD/sodipodi-0.dtd"
   xmlns:xlink="http://www.w3.org/1999/xlink"
   xmlns="http://www.w3.org/2000/svg"
   xmlns:svg="http://www.w3.org/2000/svg"
   xmlns:rdf="http://www.w3.org/1999/02/22-rdf-syntax-ns#"
   xmlns:cc="http://creativecommons.org/ns#"
   xmlns:dc="http://purl.org/dc/elements/1.1/"><sodipodi:namedview
     inkscape:current-layer="svg26"
     inkscape:window-maximized="1"
     inkscape:window-y="28"
     inkscape:window-x="0"
     inkscape:cy="-53.682831"
     inkscape:cx="-153.6671"
     inkscape:zoom="1.4902344"
     showgrid="false"
     id="namedview28"
     inkscape:window-height="1052"
     inkscape:window-width="1920"
     inkscape:pageshadow="2"
     inkscape:pageopacity="0"
     guidetolerance="10"
     gridtolerance="10"
     objecttolerance="10"
     borderopacity="1"
     bordercolor="#666666"
     pagecolor="#ffffff"
     inkscape:showpageshadow="2"
     inkscape:pagecheckerboard="0"
     inkscape:deskcolor="#d1d1d1"
     showguides="true" /><metadata
     id="metadata2"><rdf:RDF><cc:Work
         rdf:about=""><dc:format>image/svg+xml</dc:format><dc:type
           rdf:resource="http://purl.org/dc/dcmitype/StillImage" /></cc:Work></rdf:RDF></metadata><defs
     id="defs14"><filter
   color-interpolation-filters="sRGB"
   height="1.048"
   width="1.048"
   y="-.024"
   x="-.024"
   id="filter2761"><feGaussianBlur
     id="feGaussianBlur4"
     stdDeviation="0.14552168" /></filter><linearGradient
   gradientUnits="userSpaceOnUse"
   gradientTransform="translate(31.146088,0.14045)"
   y2="1.1082"
   y1="14.536"
   x2="15.644"
   x1="2.2495"
   id="linearGradient4673"><stop
     id="stop7"
     offset="0"
     stop-color="#ff5050" /><stop
     id="stop9"
     offset=".47728"
     stop-color="#fa4b5a" /><stop
     id="stop11"
     offset="1"
     stop-color="#ff7864" /></linearGradient><linearGradient
   gradientUnits="userSpaceOnUse"
   gradientTransform="matrix(0.32664815,0,0,0.32664815,0.63054332,0.95372475)"
   y2="4"
   y1="44"
   x2="0"
   id="linearGradient890"><stop
     id="stop4"
     offset="0"
     stop-color="#FFB900" /><stop
     id="stop6"
     offset="1"
     stop-color="#ff0" /></linearGradient><filter
   color-interpolation-filters="sRGB"
   height="1.048"
   width="1.048"
   y="-.024"
   x="-.024"
   id="filter2761-67"><feGaussianBlur
     id="feGaussianBlur9"
     stdDeviation="0.14552168" /></filter><linearGradient
   gradientUnits="userSpaceOnUse"
   gradientTransform="matrix(3.7796,0,0,3.7796,66.443573,0.53068)"
   y2="1.1082"
   y1="15.601"
   x2="15.644"
   x1="1.4377"
   id="linearGradient4673-5"><stop
     id="stop12"
     offset="0"
     stop-color="#dc2828" /><stop
     id="stop14"
     offset="1"
     stop-color="#fa4141" /></linearGradient><linearGradient
   gradientTransform="scale(0.26457812)"
   gradientUnits="userSpaceOnUse"
   y2="9.67"
   y1="54.592"
   x2="34.134"
   x1="34.134"
   id="linearGradient915"><stop
     id="stop17"
     offset="0"
     stop-color="#ffb900" /><stop
     id="stop19"
     offset="1"
     stop-color="#ff0" /></linearGradient><filter
   inkscape:collect="always"
   style="color-interpolation-filters:sRGB"
   id="filter1057"
   x="-0.026999999"
   width="1.054"
   y="-0.026999999"
   height="1.054"><feGaussianBlur
     inkscape:collect="always"
     stdDeviation="0.61875"
     id="feGaussianBlur1059" /></filter><linearGradient
   inkscape:collect="always"
   id="linearGradient1051"><stop
     style="stop-color:#6200ea;stop-opacity:1;"
     offset="0"
     id="stop1047" /><stop
     style="stop-color:#b388ff;stop-opacity:1;"
     offset="1"
     id="stop1049" /></linearGradient><linearGradient
   id="linearGradient890-3"
   x2="0"
   y1="44"
   y2="4"
   gradientTransform="matrix(1.2346,0,0,1.2346,3.1419,3.6047)"
   gradientUnits="userSpaceOnUse"><stop
     stop-color="#FFB900"
     offset="0"
     id="stop861" /><stop
     stop-color="#ff0"
     offset="1"
     id="stop863" /></linearGradient><filter
   id="filter2761-6"
   x="-.024"
   y="-.024"
   width="1.048"
   height="1.048"
   color-interpolation-filters="sRGB"><feGaussianBlur
     stdDeviation="0.14552168"
     id="feGaussianBlur866" /></filter><filter
   id="filter2761-3"
   x="-.024"
   y="-.024"
   width="1.048"
   height="1.048"
   color-interpolation-filters="sRGB"><feGaussianBlur
     stdDeviation="0.14552168"
     id="feGaussianBlur935" /></filter><linearGradient
   id="linearGradient4673-56"
   x1="1.4377"
   x2="15.644"
   y1="15.601"
   y2="1.1082"
   gradientTransform="translate(-8.4984e-4,0.14045)"
   gradientUnits="userSpaceOnUse"><stop
     stop-color="#dc2828"
     offset="0"
     id="stop938" /><stop
     stop-color="#fa4141"
     offset="1"
     id="stop940" /></linearGradient><filter
   id="filter909"
   x="-.084"
   y="-.084"
   width="1.168"
   height="1.168"
   color-interpolation-filters="sRGB"><feGaussianBlur
     stdDeviation="0.27781045"
     id="feGaussianBlur943" /></filter>










	
	





<linearGradient
   inkscape:collect="always"
   xlink:href="#linearGradient1051"
   id="linearGradient3886"
   x1="-35.844135"
   y1="17.300928"
   x2="-21.292337"
   y2="17.300928"
   gradientUnits="userSpaceOnUse" /><linearGradient
   inkscape:collect="always"
   xlink:href="#linearGradient1051"
   id="linearGradient3898"
   gradientUnits="userSpaceOnUse"
   x1="-35.844135"
   y1="24.576828"
   x2="-21.689205"
   y2="10.421897" /><linearGradient
   inkscape:collect="always"
   xlink:href="#linearGradient1051"
   id="linearGradient3900"
   gradientUnits="userSpaceOnUse"
   x1="-35.844135"
   y1="17.300928"
   x2="-21.292337"
   y2="17.300928" /></defs><g
     transform="scale(0.26457812)"
     fill="#5e4aa6"
     id="g30"><circle
       cx="-1248.7"
       cy="-1241.6"
       r="0"
       id="circle24" /><circle
       cx="-1140.3"
       cy="-1301.8"
       r="0"
       id="circle26" /><circle
       cx="-1158.1"
       cy="-1246"
       r="0"
       id="circle28" /></g><circle
     style="stroke-width:0.264578"
     cx="-306.19626"
     cy="-335.40567"
     r="0"
     fill="#5e4aa6"
     id="circle36" /><circle
     style="stroke-width:0.264578"
     cx="-15.280974"
     cy="-0.57754755"
     r="0"
     fill="#5e4aa6"
     fill-rule="evenodd"
     id="circle38" /><rect
     transform="scale(0.26457812)"
     ry="15"
     y="4.5"
     x="4.5"
     height="55"
     width="55"
     id="rect1055"
     style="opacity:0.3;fill:#141414;fill-opacity:1;stroke-width:2.74436;stroke-linecap:round;filter:url(#filter1057)" /><rect
     style="fill:#fbfbfb;fill-opacity:1;stroke-width:0.686498;stroke-linecap:round"
     id="rect1045"
     width="13.758063"
     height="13.758063"
     x="1.5874684"
     y="1.5874684"
     ry="3.7521994" /><g
     id="g3878"
     style="fill:url(#linearGradient3886);fill-opacity:1"
     transform="translate(37.034736,-8.834429)"><path
       id="rect3541"
       style="fill:url(#linearGradient3898);fill-opacity:1;stroke-width:0.726098;stroke-linecap:round"
       d="m -31.875463,10.025031 c -2.198634,0 -3.968672,1.770042 -3.968672,3.968671 v 6.614454 c 0,2.198629 1.770038,3.968671 3.968672,3.968671 h 6.614453 c 2.198634,0 3.968672,-1.770042 3.968672,-3.968671 v -6.614454 c 0,-2.198629 -1.770038,-3.968671 -3.968672,-3.968671 z m -1.746112,2.222559 h 1.587468 v 1.587469 h -1.587468 z m 8.519209,0 h 1.587468 v 1.587469 h -1.587468 z m -3.46587,1.587469 a 3.4659727,3.4659727 0 0 1 3.46587,3.46587 3.4659727,3.4659727 0 0 1 -3.46587,3.46587 3.4659727,3.4659727 0 0 1 -3.465871,-3.46587 3.4659727,3.4659727 0 0 1 3.465871,-3.46587 z m -5.053339,6.93174 h 1.587468 v 1.587469 h -1.587468 z m 8.519209,0 h 1.587468 v 1.587469 h -1.587468 z" /><path
       id="path3691"
       style="opacity:1;fill:url(#linearGradient3900);fill-opacity:1;fill-rule:evenodd;stroke-width:0.419554"
       d="m -28.612417,14.999306 a 2.3018296,2.3018296 0 0 0 -2.30214,2.301623 2.3018296,2.3018296 0 0 0 2.30214,2.301623 2.3018296,2.3018296 0 0 0 2.301623,-2.301623 2.3018296,2.3018296 0 0 0 -2.301623,-2.301623 z m 0,1.309455 a 0.99216795,0.99216795 0 0 1 0.992168,0.992168 0.99216795,0.99216795 0 0 1 -0.992168,0.992168 0.99216795,0.99216795 0 0 1 -0.992168,-0.992168 0.99216795,0.99216795 0 0 1 0.992168,-0.992168 z" /></g></svg>
