<svg id="svg44" version="1.1" viewBox="0 0 64 64" xmlns="http://www.w3.org/2000/svg" xmlns:xlink="http://www.w3.org/1999/xlink">
    <defs id="defs22">
        <filter id="filter1057" x="-.026999999" y="-.026999999" width="1.054" height="1.054" color-interpolation-filters="sRGB">
            <feGaussianBlur id="feGaussianBlur1059" stdDeviation="0.61875"/>
        </filter>
        <linearGradient id="linearGradient1053" x1="-127" x2="-72" y1="60" y2="5" gradientTransform="translate(131.5 -.50999746)" gradientUnits="userSpaceOnUse">
            <stop id="stop12" stop-color="#0f587b" offset="0"/>
            <stop id="stop14" stop-color="#115f86" offset="1"/>
        </linearGradient>
        <filter id="filter1683" x="-.029181565" y="-.025121926" width="1.0583631" height="1.0502439" color-interpolation-filters="sRGB">
            <feGaussianBlur id="feGaussianBlur1685" stdDeviation="0.61863591"/>
        </filter>
    </defs>
    <g>
        <rect id="rect1055" x="4.5" y="4.5" width="55" height="55" ry="15" fill="#141414" filter="url(#filter1057)" opacity=".3" stroke-linecap="round" stroke-width="2.74436"/>
        <rect id="rect1045" x="4.5000019" y="4.5000019" width="54.999996" height="54.999996" ry="14.999999" fill="url(#linearGradient1053)" stroke-linecap="round" stroke-width="2.74436"/>
        <path id="path1668" d="m20.632813 0.4003896c-0.325376-0.03055-0.801144 0.523714-1.628906 1.521484-5.415344 6.5276314-9.6106211 13.929013-11.541016 20.365235l-0.46289 1.544922 2.154296 2.214843c2.5289181 2.599147 2.7817421 2.958337 2.8417971 4.027344 0.07743 1.378481 0.0086 1.614692-0.708984 2.453125l-0.697266 0.814453 0.410157 2.19336 0.410156 2.193359 1.515625 0.867188c1.303732 0.747345 1.394531 1.30664 1.394531 1.30664h0.08789c-0.10466 0.375766-0.200445 0.755495-0.28125 1.140625-0.177427 0.84483 0.466749 1.638672 1.330078 1.638672h4.001953c-0.0098 0.125606-0.02192 0.251048-0.02539 0.376953h0.136719l0.234375 0.511719c0.128494 0.282018 0.232422 0.555323 0.232422 0.605469l0.123047 0.498047c0.302059 0.192682 0.590156 0.542315 0.861328 0.958984h-12.564453c-1.047364 0-1.896485 0.84912-1.896485 1.896484v4.554688c2.599133 4.438982 7.4035551 7.416016 12.939454 7.416016h25c5.535898 0 10.34032-2.977034 12.939453-7.416016v-4.554688c-2.25e-4 -1.047364-0.851075-1.896483-1.898438-1.896484h-12.5625c0.271292-0.416959 0.559116-0.766204 0.861328-0.958984l0.123047-0.498047c0-0.05018 0.10588-0.323451 0.234375-0.605469l0.232422-0.511719h0.136719c-0.0035-0.125905-0.01563-0.251347-0.02539-0.376953h4.003907c0.863169 0 1.50539-0.793842 1.328124-1.638672-0.08081-0.385151-0.176579-0.764835-0.28125-1.140625h0.08789s0.09275-0.559295 1.396485-1.30664l1.513671-0.867188 0.410157-2.193359 0.410156-2.19336-0.697266-0.814453c-0.717663-0.838433-0.786416-1.074644-0.708984-2.453125 0.06006-1.069007 0.312877-1.428197 2.841797-4.027344l2.154297-2.214843-0.462891-1.544922c-1.930394-6.436222-6.123714-13.837604-11.539063-20.365235-0.82776-0.99777-1.303525-1.552012-1.628906-1.521484-0.418345 0.03927-0.588812 1.044375-0.935547 3.3144532l-0.449218 2.9492188 0.78125 1.9472654c1.307852 3.259834 1.691692 5.14644 1.685547 8.275391-0.0044 2.293208-0.07366 2.905414-0.447266 3.917969-0.478029 1.295562-1.708768 3.287238-2.13086 3.449219-0.143171 0.05491-0.72654-0.213847-1.296874-0.597656-2.096829-1.411061-4.927876-2.115586-8.576172-2.146485-3.648292 0.03091-6.479343 0.735424-8.576172 2.146485-0.570335 0.383809-1.153697 0.652591-1.296875 0.597656-0.208942-0.08018-0.617633-0.610928-1.033203-1.281251-0.0087-0.01411-0.01664-0.02678-0.02539-0.04102l-0.0078-0.01367c-0.412884-0.672928-0.829561-1.476636-1.064467-2.11328-0.373606-1.012555-0.442761-1.624761-0.447265-3.917969-0.0062-3.128951 0.377697-5.015557 1.685547-8.275391l0.783203-1.9472634-0.451172-2.9492188c-0.346733-2.2700782-0.515248-3.2752002-0.933594-3.3144532zm3.033203 33.136719c0.849657 0 1.539063 0.689245 1.539063 1.539062 0 0.849657-0.689246 1.539063-1.539063 1.539063-0.849656 0-1.539062-0.689245-1.539062-1.539063 0-0.849656 0.689245-1.539062 1.539062-1.539062zm16.667969 0c0.849817 0 1.539063 0.689406 1.539062 1.539062 0 0.849657-0.689245 1.539063-1.539062 1.539063-0.849656 0-1.537109-0.689245-1.537109-1.539063 0-0.849656 0.687292-1.539062 1.537109-1.539062zm-16.888672 9.144531h17.109375c-0.04796 0.06298-0.102209 0.119884-0.164062 0.169922l0.15039 0.207031v1.207031c0 0.460817 1.51e-4 0.916434 0.01172 1.367188h-17.103517c0.01156-0.450719 0.01172-0.906408 0.01172-1.367188v-1.207031l0.148438-0.207031c-0.06185-0.05004-0.116102-0.106939-0.164063-0.169922z" filter="url(#filter1683)" opacity=".15" stroke-width=".22466"/>
        <path id="path1540" d="m8.4570312 45.632812c-1.0473637 0-1.8964843 0.849121-1.8964843 1.896485v4.554687c2.1634267 4.081347 7.0922121 7.416016 12.939453 7.416016h25c5.535904 0 10.391789-2.967914 12.939453-7.416016v-4.554687c-2.25e-4 -1.047364-0.851074-1.896484-1.898437-1.896485z" fill="#fff" stroke-width=".22466"/>
    </g>
    <g id="g984" transform="matrix(.160859 0 0 .160859 69.41642 51.767973)">
        <path id="path895" d="m-335.44968-56.48436h205.692c5.366 0 9.368-4.943 8.266-10.195-6.804-32.428-27.45-59.756-55.465-75.543l17.584-31.727c1.19-2.148 0.414-4.855-1.734-6.045-2.153-1.193-1.85638 1.589-3.04638 3.737l-20.71662 29.963c-14.511-6.734-30.683-10.495-47.734-10.495-17.052 0-33.224 3.761-47.735 10.495l-20.27526-33.05569c-1.191-2.149-1.33974-1.83531-3.48674-0.64531-2.148 1.19-2.924 3.897-1.734 6.045l17.584 31.727c-28.015 15.788-48.661 43.115-55.465 75.544-1.103 5.252 2.899 10.195 8.266 10.195zm164.222-47.283c0 5.282-4.282 9.565-9.565 9.565-5.282 0-9.565-4.282-9.565-9.565 0-5.282 4.282-9.565 9.565-9.565s9.565 4.283 9.565 9.565zm-113.189-9.565c5.282 0 9.565 4.282 9.565 9.565 0 5.282-4.282 9.565-9.565 9.565-5.282 0-9.565-4.282-9.565-9.565 0-5.282 4.282-9.565 9.565-9.565z" fill="#fff"/>
        <path id="path980" d="m-303.2748-319.32794c-2.02274-0.18989-4.9827 3.25298-10.12859 9.45575-33.66519 40.57987-59.73367 86.58753-71.73422 126.59914l-2.88183 9.61158 13.39358 13.76573c15.72135 16.15793 17.29347 18.38342 17.66681 25.02904 0.48138 8.56951 0.056 10.04207-4.40525 15.2543l-4.33743 5.06526 2.54819 13.63186 2.55003 13.631865 9.41729 5.398851c8.10482 4.64597 8.67852 8.121232 8.67852 8.121232h3.1513s3.47232-7.644927 7.35857-10.251434c5.56661-3.530423 13.0656-5.608873 17.96015 0.119254 7.89685 9.243445 3.59857 19.431191 3.31447 29.7496h0.84879l1.45193 3.188c0.7988 1.753201 1.45374 3.442709 1.45374 3.754446l0.76262 3.105485c6.69792 4.272573 12.39738 20.28055 15.50728 27.496582 5.34134-9.396089 5.00471-19.530656 5.00471-30.035621v-7.508892l0.92946-1.285088c-6.29621-5.093506-0.38329-21.609551-2.93134-28.750527-3.54042-9.924226-19.06537-16.638413-10.83439-28.710173 2.67631-3.92619 6.06496-5.58864 9.66296-5.67749 10.79403-0.26674 23.47174 13.63596 24.44977 23.124324h63.62769c0.97802-9.488364 13.65574-23.390994 24.44977-23.124324 3.598 0.0886 6.98666 1.7513 9.66294 5.67749 8.23101 12.07176-7.29395 18.785947-10.83436 28.710173-2.54803 7.140976 3.36486 23.657021-2.93135 28.750527l0.92944 1.285088v7.508892c0 10.504965-0.33658 20.639532 5.00472 30.035621 3.10992-7.216032 8.80938-23.224009 15.50729-27.496582l0.76263-3.105485c0-0.311963 0.65493-2.001245 1.45374-3.754446l1.45191-3.188h0.84881c-0.28411-10.318409-4.58238-20.506155 3.31445-29.7496 4.89455-5.728057 12.39355-3.649608 17.96014-0.119254 3.88628 2.606507 7.35859 10.251434 7.35859 10.251434h3.1513s0.57368-3.475262 8.67852-8.121232l9.41729-5.398851 2.55003-13.631865 2.548191-13.63186-4.337431-5.06526c-4.46145-5.21223-4.88662-6.68479-4.40525-15.2543 0.37335-6.64562 1.94546-8.87111 17.666816-25.02904l13.39358-13.76573-2.881836-9.61158c-12.000547-40.01161-38.06902-86.01927-71.73424-126.59914-5.14588-6.20277-8.10582-9.64553-10.12859-9.45575-2.6007 0.24414-3.65214 6.49326-5.80766 20.6055l-2.79933 18.32492 4.85804 12.11031c8.13044 20.26518 10.52062 31.99804 10.48241 51.44957-0.0276 14.25603-0.46211 18.05975-2.78468 24.35443-2.97173 8.05403-10.61558 20.43082-13.23957 21.4378-0.89005 0.34135-4.52063-1.33183-8.06619-3.71783-13.03521-8.77204-30.63387-13.15195-53.31398-13.34404-22.68008 0.19216-40.27873 4.572-53.31394 13.34404-3.54556 2.386-7.17614 4.05934-8.06622 3.71783-2.62397-1.00698-10.26782-13.38377-13.23956-21.4378-2.32257-6.29468-2.75667-10.0984-2.78467-24.35443-0.0384-19.45153 2.35197-31.18439 10.48239-51.44957l4.85806-12.11031-2.79934-18.32492c-2.15551-14.11224-3.20697-20.36148-5.80767-20.6055z" fill="#bbd651" stroke-width="1.25148"/>
    </g>
</svg>
