<svg id="svg8" width="64" height="64" version="1.1" viewBox="0 0 16.933333 16.933334" xmlns="http://www.w3.org/2000/svg" xmlns:xlink="http://www.w3.org/1999/xlink">
    <defs id="defs2">
        <filter id="filter1057" x="-.026999999" y="-.026999999" width="1.054" height="1.054" color-interpolation-filters="sRGB">
            <feGaussianBlur id="feGaussianBlur1059" stdDeviation="0.61875"/>
        </filter>
        <linearGradient id="linearGradient1053" x1="-127" x2="-72" y1="60" y2="5" gradientTransform="matrix(.26458333 0 0 .26458333 34.792707 -.1349368)" gradientUnits="userSpaceOnUse">
            <stop id="stop1047" stop-color="#0f17a3" offset="0"/>
            <stop id="stop1049" stop-color="#1e33f0" offset="1"/>
        </linearGradient>
        <linearGradient id="linearGradient3265" x1="8.4686394" x2="8.4627199" y1="13.012689" y2="3.247159" gradientUnits="userSpaceOnUse">
            <stop id="stop3261" stop-color="#f69607" offset="0"/>
            <stop id="stop3259" stop-color="#fed200" offset="1"/>
        </linearGradient>
    </defs>
    <g id="layer1">
        <rect id="rect1055" transform="scale(.26458333)" x="4.5" y="4.5" width="55" height="55" ry="15" fill="#141414" filter="url(#filter1057)" opacity=".3" stroke-linecap="round" stroke-width="2.74436"/>
        <rect id="rect1045" x="1.1906254" y="1.1906255" width="14.552082" height="14.552082" ry="3.9687498" fill="url(#linearGradient1053)" stroke-linecap="round" stroke-width=".726112"/>
        <path id="path2112" d="m8.4666662 2.9897917-4.630208 1.5032872 2.3654778 8.1397331 2.2647302 1.754415 2.2647308-1.754415 2.365478-8.1397331z" opacity=".3" stroke-width=".356169"/>
        <g stroke-width=".336742">
            <path id="path2114" d="m8.4666662 2.9104166-4.3776512 1.4212898 2.2364517 7.6957486 2.1411995 1.658719 2.1411998-1.658719 2.236452-7.6957486z" fill="#19191a"/>
            <path id="path2116" d="m8.4627195 3.5839015-1.0062806 1.2588378 0.5064284 5.8660267 0.5031409 0.620211 0.5005102-0.615607 0.5103751-5.869315zm-1.6396457 7.4083335-0.2084905 0.503141 0.2117792 0.507086 1.0825743-0.19139 0.2209874-0.314381-0.2209874-0.315696zm3.2871852 0-1.0858633 0.18876-0.2209875 0.315696 0.2209875 0.314381 1.0825743 0.19139 0.211779-0.507086zm-1.6422781 0.841856-0.3150381 0.220987-0.1913902 1.083232 0.5070863 0.211122 0.503141-0.208491-0.1894175-1.085863z" opacity=".2"/>
            <path id="path2118" d="m8.4627195 3.2471591-1.0062806 1.2588378 0.5064284 5.8660271 0.5031409 0.620211 0.5005102-0.615607 0.5103751-5.8693155zm-1.6396457 7.4083329-0.2084905 0.503141 0.2117792 0.507087 1.0825743-0.191391 0.2209874-0.314381-0.2209874-0.315696zm3.2871852 0-1.0858633 0.18876-0.2209875 0.315696 0.2209875 0.314381 1.0825743 0.191391 0.211779-0.507087zm-1.6422781 0.841857-0.3150381 0.220987-0.1913902 1.083232 0.5070863 0.211121 0.503141-0.208491-0.1894175-1.085862z" fill="url(#linearGradient3265)"/>
            <path id="path2120" d="m8.4627195 3.2471591-1.0062806 1.2588378 0.0263073 0.3038575 0.979972-1.2259529 0.9878655 1.2272682 0.0263073-0.3038572zm-1.6396457 7.4083329-0.2084905 0.503141 0.06972 0.167714 0.1387743-0.334112 1.085863 0.18876 0.1025945 0.146667 0.1183891-0.167714-0.2209874-0.315696zm3.2871852 0-1.0858633 0.18876-0.2209875 0.315696 0.1183891 0.167714 0.1025946-0.146667 1.0858631-0.18876 0.138774 0.334112 0.06972-0.167714zm-1.6422781 0.841857-0.3150381 0.220987-0.1913902 1.083232 0.055249 0.02302 0.1361436-0.769509 0.3150382-0.220988 0.3143815 0.220988 0.1348289 0.77214 0.054587-0.02302-0.1894174-1.085863z" fill="#fff" opacity=".2"/>
        </g>
    </g>
</svg>
