<svg id="svg5" version="1.1" viewBox="0 0 64 64" xmlns="http://www.w3.org/2000/svg">
  <defs id="defs3">
    <style id="style1" type="text/css"/>
    <style id="style2" type="text/css"/>
    <filter id="filter1057" x="-.026999999" y="-.026999999" width="1.054" height="1.054" color-interpolation-filters="sRGB">
      <feGaussianBlur id="feGaussianBlur2" stdDeviation="0.61875"/>
    </filter>
  </defs>
  <rect id="rect3" x="4.5" y="4.5" width="55" height="55" ry="15" fill="#141414" filter="url(#filter1057)" opacity=".3" stroke-linecap="round" stroke-width="2.7444"/>
  <rect id="rect4" x="4.5" y="4.5" width="55" height="55" ry="15" fill="#00ac70" stroke-linecap="round" stroke-width="2.7444"/>
  <circle id="circle4" cx="-1326.3" cy="-1241.6" r="0" fill="#5e4aa6"/>
  <circle id="circle5" cx="-226.72" cy="23.855" r="0" fill="#5e4aa6" fill-rule="evenodd"/>
  <path id="rect1" d="m19.5 3.6751823c-8.309992 0-15 6.6900077-15 15v12.5h55v-12.5c0-8.309992-6.690009-15-15-15z" fill="#00686e"/>
  <g id="g4" transform="matrix(1.0636686,0,0,1.0636686,-5.1521918,-2.7132954)">
    <path id="path3" d="m20.266278 19.734491q0.448-0.592 1.072-0.976 0.64-0.4 1.632-0.4 1.344 0 2.112 0.8 0.784 0.8 0.784 2.384v5.536h-3.296v-4.816q0-0.704-0.288-1.008-0.272-0.32-0.8-0.32-0.576 0-0.928 0.4-0.352 0.384-0.352 1.184v4.56h-3.296v-11.584h3.296v4.24zm15.140001 4.736q-0.128 0.656-0.656 1.312-0.528 0.64-1.52 1.072t-2.4 0.432q-2.256 0-3.488-1.168t-1.232-3.28q0-2.128 1.232-3.296 1.232-1.184 3.488-1.184 2.208 0 3.456 1.168t1.248 3.44q0 0.32-0.016 0.48h-6.016q0 0.864 0.352 1.344 0.368 0.464 0.976 0.464 0.56 0 0.832-0.256 0.288-0.256 0.352-0.672zm-4.576-4.16q-0.592 0-0.96 0.368-0.352 0.368-0.352 0.992h2.608q0-0.624-0.368-0.992-0.352-0.368-0.928-0.368zm11.027998 6.768q-0.464 1.36-1.072 2.048-0.592 0.688-1.296 0.896-0.688 0.208-1.712 0.208-1.184 0-1.952-0.08v-2.56q0.768 0.064 1.376 0.064 0.448 0 0.672-0.096 0.24-0.08 0.304-0.288l0.064-0.192-3.392-8.512h3.6l1.504 4.752h0.064l1.216-4.752h3.536z" fill="#ffffff"/>
    <path id="path4" d="m20.138278 37.841315q1.008-1.376 2.768-1.376 1.392 0 2.176 0.8t0.784 2.384v5.536h-3.296v-4.816q0-0.704-0.288-1.008-0.272-0.32-0.8-0.32-0.576 0-0.928 0.4-0.352 0.384-0.352 1.184v4.56h-3.296v-8.512h3.168v1.168zm10.708001-1.376q2.256 0 3.488 1.184 1.248 1.168 1.248 3.296 0 2.112-1.248 3.28-1.232 1.168-3.488 1.168-2.272 0-3.504-1.168t-1.232-3.28q0-2.128 1.232-3.296 1.232-1.184 3.504-1.184zm0 6.624q0.672 0 1.024-0.48t0.352-1.664-0.352-1.68-1.024-0.496-1.024 0.496-0.352 1.68 0.352 1.664 1.024 0.48zm10.660019-0.256v2.352q-0.288 0.032-1.936 0.032-1.136 0-1.776-0.192-0.624-0.192-0.928-0.704-0.288-0.512-0.288-1.504v-4.16h-1.264v-1.984h1.264v-2.32h3.296v2.32h1.632v1.984h-1.632v3.392q0 0.512 0.208 0.656 0.224 0.128 0.864 0.128zm9.219995-0.256q-0.128 0.656-0.656 1.312-0.528 0.64-1.52 1.072t-2.4 0.432q-2.256 0-3.488-1.168t-1.232-3.28q0-2.128 1.232-3.296 1.232-1.184 3.488-1.184 2.208 0 3.456 1.168t1.248 3.44q0 0.32-0.016 0.48h-6.016q0 0.864 0.352 1.344 0.368 0.464 0.976 0.464 0.56 0 0.832-0.256 0.288-0.256 0.352-0.672zm-4.576-4.16q-0.592 0-0.96 0.368-0.352 0.368-0.352 0.992h2.608q0-0.624-0.368-0.992-0.352-0.368-0.928-0.368z" fill="#ffffff"/>
    <g id="path2">
      <path id="path5" d="m50.854293 46.338195h5.856704" color="#000000" fill="#ffffff" style="-inkscape-stroke:none"/>
      <path id="path6" d="m50.853516 45.392578v1.890625h5.857421v-1.890625z" color="#000000" fill="#fefefe" style="-inkscape-stroke:none"/>
    </g>
  </g>
</svg>
