<svg id="svg290" version="1.1" viewBox="0 0 64 64" xmlns="http://www.w3.org/2000/svg">
    <defs id="defs278">
        <style id="style266" type="text/css"/>
        <style id="style268" type="text/css"/>
        <filter id="filter1057" x="-.026999999" y="-.026999999" width="1.054" height="1.054" color-interpolation-filters="sRGB">
            <feGaussianBlur id="feGaussianBlur270" stdDeviation="0.61875"/>
        </filter>
        <linearGradient id="linearGradient8669" x1="-127" x2="-72" y1="60" y2="5" gradientTransform="matrix(.94545453 0 0 .94545453 126.07273 1.2632738)" gradientUnits="userSpaceOnUse">
            <stop id="stop273" stop-color="#1ba1b1" offset="0"/>
            <stop id="stop275" stop-color="#26c6da" offset="1"/>
        </linearGradient>
    </defs>
    <rect id="rect280" x="4.5" y="4.5" width="55" height="55" ry="15" fill="#141414" filter="url(#filter1057)" opacity=".3" stroke-linecap="round" stroke-width="2.7444"/>
    <rect id="rect282" x="4.5" y="4.5" width="55" height="55" ry="15" fill="#37474f" stroke-linecap="round" stroke-width="2.7444"/>
    <g id="g198" fill="#5e4aa6">
        <circle id="circle284-3" cx="-1400.387" cy="-1288.85" r="0"/>
        <circle id="circle286-5" cx="-300.80695" cy="-23.395" r="0" fill-rule="evenodd"/>
        <circle id="circle8743" cx="-1562.6782" cy="-1386.9908" r="0"/>
        <circle id="circle8745" cx="-463.11832" cy="-121.50192" r="0" fill-rule="evenodd"/>
        <circle id="circle284" cx="-1326.3" cy="-1241.6" r="0"/>
        <circle id="circle286" cx="-226.72" cy="23.855" r="0" fill-rule="evenodd"/>
    </g>
    <g id="g204" stroke-linecap="round">
        <rect id="rect8655" x="6.0000005" y="6.0000005" width="52" height="52" ry="14.181818" fill="url(#linearGradient8669)" stroke-width="2.59471"/>
        <rect id="rect8657" x="19.747913" y="19.747915" width="24.504171" height="24.504171" ry="6.6829553" fill="#263238" stroke-width="1.22271"/>
        <rect id="rect8659" x="20.193447" y="20.193445" width="23.61311" height="23.61311" ry="6.439939" fill="#37474f" stroke-width="1.17825"/>
        <rect id="rect8661" x="20.861738" y="20.86174" width="22.276518" height="22.276518" ry="6.0754142" fill="#26c6da" stroke-width="1.11156"/>
    </g>
    <rect id="rect8663" x="26.327272" y="26.327272" width="11.345454" height="11.345454" ry="2.5469875" fill="#f5f5f5" fill-rule="evenodd" opacity=".686364" stroke-width="2.81767"/>
    <path id="path8667" d="m19.286221 33.45142c-2.007196 0-3.938664 0.764609-5.401278 2.138353l-6.3411928 5.955256c-0.2461378 0.251078-0.845919 0.653796-1.5437505 1.106108l-0.3448876 1.167045c-1.2512765 4.234122 1.9966988 8.347636 5.1409089 10.944744 3e-3 0.0026 0.351088 0.0049 0.354188 0.0074 0.02512 0.02003 0.05472 0.03903 0.0794 0.05909l6.784375-6.594176c0.277018-0.268509 0.648347-0.419176 1.034091-0.419176h17.845454v0.0019h0.0019c0.514327 0 1.031285-0.169296 1.466194-0.509659l9.90142-7.790767c1.031489-0.812143 1.210062-2.30341 0.398864-3.33679-0.810253-1.031489-2.307192-1.20727-3.33679-0.397017l-6.437216 5.063353c-0.260944 0.205163-0.581263 0.315766-0.914063 0.315766h-15.28243c-0.816871 0-1.47912-0.662248-1.47912-1.479119s0.662249-1.479119 1.47912-1.479119h8.974431c1.313234 0 2.376562-1.061482 2.376562-2.374716 0-1.313233-1.063328-2.37841-2.376562-2.37841z" fill="#37474f" stroke-width=".945455"/>
    <path id="path431" d="m44.739117 30.570889c2.007196 0 3.938664-0.764609 5.401278-2.138353l6.341193-5.955256c0.246138-0.251078 0.845919-0.653796 1.54375-1.106108l0.344888-1.167045c1.251276-4.234122-1.996699-8.347636-5.140909-10.944744-3e-3 -0.0026-0.351088-0.0049-0.354188-0.0074-0.02512-0.02003-0.05472-0.03903-0.0794-0.05909l-6.784375 6.594176c-0.277018 0.268509-0.648347 0.419176-1.034091 0.419176h-17.845454v-0.0019h-0.0019c-0.514327 0-1.031285 0.169296-1.466194 0.509659l-9.90142 7.790767c-1.031489 0.812143-1.210062 2.30341-0.398864 3.33679 0.810253 1.031489 2.307192 1.20727 3.33679 0.397017l6.437216-5.063353c0.260944-0.205163 0.581263-0.315766 0.914063-0.315766h15.28243c0.816871 0 1.47912 0.662248 1.47912 1.479119s-0.662249 1.479119-1.47912 1.479119h-8.974431c-1.313234 0-2.376562 1.061482-2.376562 2.374716 0 1.313233 1.063328 2.37841 2.376562 2.37841z" fill="#37474f" stroke-width=".945455"/>
</svg>
