<svg id="svg290" version="1.1" viewBox="0 0 64 64" xmlns="http://www.w3.org/2000/svg">
  <defs id="defs278">
    <style id="style266" type="text/css"/>
    <style id="style268" type="text/css"/>
    <filter id="filter1057" x="-.026999999" y="-.026999999" width="1.054" height="1.054" color-interpolation-filters="sRGB">
      <feGaussianBlur id="feGaussianBlur270" stdDeviation="0.61875"/>
    </filter>
    <linearGradient id="linearGradient1053" x1="-127" x2="-72" y1="60" y2="5" gradientTransform="translate(131.5 -.51)" gradientUnits="userSpaceOnUse">
      <stop id="stop273" stop-color="#33d2ff" offset="0"/>
      <stop id="stop275" stop-color="#91e5ff" offset="1"/>
    </linearGradient>
  </defs>
  <rect id="rect280" x="4.5" y="4.5" width="55" height="55" ry="15" fill="#141414" filter="url(#filter1057)" opacity=".3" stroke-linecap="round" stroke-width="2.7444"/>
  <rect id="rect282" x="4.5" y="4.5" width="55" height="55" ry="15" fill="url(#linearGradient1053)" stroke-linecap="round" stroke-width="2.7444"/>
  <circle id="circle284" cx="-1326.3" cy="-1241.6" r="0" fill="#5e4aa6"/>
  <circle id="circle286" cx="-226.72" cy="23.855" r="0" fill="#5e4aa6" fill-rule="evenodd"/>
  <g id="g4000" transform="matrix(1.1436287,0,0,1.1436287,75.717676,-1.3230555)" stroke-width=".87441">
    <ellipse id="path3702" cx="-27.501492" cy="18.362276" rx="2.7076721" ry="2.7167404" fill="#ee628b"/>
    <path id="rect3031-2-3-7" d="m-43.772466 4.7710899c-5.311102-1.1716362-10.56871 2.1857114-11.740358 7.4968021-1.171641 5.311097 2.185507 10.568677 7.496605 11.740317 3.377353 0.74505 6.732863-0.341633 9.030045-2.597152l6.168499 1.360787c1.135013 3.012651 3.721693 5.410212 7.099034 6.155263 5.311103 1.17164 10.568675-2.185512 11.740315-7.496611 1.176252-5.332002-2.18546-10.568869-7.496562-11.740509-0.04666-0.010291-0.09329-0.019365-0.139969-0.02887l-22.018489-4.8573223c-0.04633-0.011038-0.09246-0.022429-0.13912-0.03272zm-1.627935 3.7803571 1.365893 0.3013209c0.310053 0.068397 0.553873 0.2983434 0.66972 0.5439778 0.115843 0.2456303 0.133558 0.5115525 0.07703 0.7677883l-0.0047 2.355705 2.13904 0.986845c0.238261 0.10992 0.489477 0.183628 0.663572 0.39206 0.174094 0.208433 0.280817 0.526522 0.212419 0.836583l-0.301321 1.365897c-0.0684 0.310065-0.299046 0.553719-0.544677 0.669558-0.24563 0.115851-0.510849 0.13372-0.767089 0.07719l-2.355705-0.0047-0.986693 2.13834c-0.109939 0.238262-0.18448 0.490028-0.392913 0.664118-0.20844 0.174095-0.526522 0.280825-0.836586 0.212424l-1.365894-0.301321c-0.31006-0.0684-0.553719-0.299047-0.669562-0.544681-0.115847-0.245623-0.132863-0.511388-0.07633-0.767635l0.0046-2.355002-2.139044-0.98685c-0.238265-0.109924-0.490015-0.184473-0.664114-0.392917-0.17409-0.208437-0.280121-0.526369-0.21172-0.836422l0.301321-1.365896c0.0684-0.310052 0.298343-0.553868 0.543977-0.669715 0.245635-0.115851 0.511396-0.132863 0.767636-0.07634l2.355701 0.0047 0.986846-2.1390398c0.109928-0.2382655 0.183781-0.4901806 0.392218-0.6642752 0.20844-0.1740906 0.526368-0.2801138 0.836425-0.2117164zm23.264722 4.510849c1.185581 0.261543 1.936514 1.437573 1.674976 2.623146-0.261543 1.185585-1.437571 1.936518-2.623156 1.674976-1.185573-0.261539-1.936518-1.437567-1.674975-2.623151 0.261542-1.185577 1.437578-1.936514 2.623155-1.674971zm-4.93825 3.192581c1.185554 0.261539 1.936558 1.437382 1.67502 2.622955-0.261543 1.185585-1.437575 1.936522-2.623156 1.67498-1.185577-0.261543-1.936514-1.437575-1.674972-2.623156 0.261539-1.185573 1.437555-1.936314 2.623108-1.674779zm8.074945 1.781353c1.18555 0.261534 1.936562 1.437382 1.675019 2.622954-0.261542 1.185585-1.437578 1.936519-2.623155 1.67498-1.185581-0.261542-1.936514-1.437574-1.674968-2.623159 0.261539-1.185573 1.437547-1.936314 2.623104-1.674775zm-4.900325 3.129031c1.18555 0.261535 1.936562 1.437383 1.675019 2.622959-0.261538 1.185569-1.437574 1.936511-2.623151 1.674972-1.185573-0.261538-1.936518-1.437578-1.674976-2.623147 0.261539-1.185577 1.437563-1.936318 2.623108-1.674784z" fill="#005a76"/>
    <ellipse id="path3704" cx="-47.622475" cy="33.80114" rx="3.7209339" ry="3.2274661" fill="#005a76"/>
    <path id="path1873-2-8" d="m-52.72968 29.417166c-0.605638 0.133585-0.988374 0.732951-0.854776 1.33859l1.765318 8.003063c0.133586 0.605639 0.732901 0.988166 1.338539 0.854573l8.003064-1.765311c0.605635-0.133586 0.988217-0.732712 0.854619-1.338343l-1.765306-8.003064c-0.13359-0.605639-0.732759-0.988418-1.338394-0.854828zm4.74415 2.1499c0.183879-0.0449 0.3777 0.01261 0.506816 0.151041l2.500324 2.677813c0.275966 0.295928 0.125816 0.779596-0.269257 0.867036l-3.642493 0.803466c-0.395199 0.08689-0.735093-0.288704-0.609237-0.673266l1.141972-3.481236c0.05613-0.171467 0.196685-0.301741 0.371875-0.344854zm-13.843684 11.948248c-0.605639 0.133586-0.988418 0.732755-0.85482 1.338386l1.765314 8.003075c0.13359 0.605627 0.732956 0.988363 1.338587 0.854773l8.003067-1.765318c0.605635-0.133586 0.988182-0.732909 0.85458-1.338547l-1.765314-8.003064c-0.133586-0.605638-0.732708-0.988213-1.338351-0.854619zm11.642815-2.568168c-0.605643 0.133586-0.988418 0.732755-0.854816 1.338386l1.765307 8.003072c0.133585 0.60563 0.732951 0.988366 1.33859 0.854772l8.003063-1.765314c0.605635-0.133582 0.988174-0.732909 0.854577-1.338547l-1.765315-8.003068c-0.133586-0.605634-0.732708-0.988209-1.338347-0.854615zm11.543143-2.546183c-0.605642 0.133586-0.988217 0.732704-0.854623 1.338343l1.765314 8.003063c0.13359 0.605643 0.732755 0.988418 1.338394 0.854824l8.003067-1.765311c0.605631-0.133589 0.988371-0.732955 0.854777-1.338594l-1.765314-8.003063c-0.13359-0.605639-0.732913-0.988174-1.338543-0.85458zm3.478137 2.134373c0.09078-0.01991 0.185034-0.01524 0.273424 0.01347l3.481247 1.141973c0.377473 0.124096 0.484057 0.607304 0.193821 0.878682l-2.677785 2.500525c-0.295889 0.276964-0.780668 0.126503-0.867869-0.269285l-0.803242-3.641511c-0.06236-0.282895 0.117269-0.562608 0.400404-0.623865zm-20.760599 4.579581c0.28474-0.06896 0.570625 0.109456 0.633719 0.395556l0.803242 3.641508c0.0869 0.395206-0.288696 0.735096-0.673258 0.609236l-3.481243-1.141984c-0.37748-0.1241-0.484018-0.607104-0.193778-0.878486l2.677785-2.500525c0.06581-0.06122 0.146132-0.104432 0.233533-0.125309zm8.674369-1.619018 3.64249-0.803463c0.395199-0.08685 0.735088 0.288697 0.609225 0.673259l-1.14184 3.481829c-0.124107 0.377472-0.607292 0.48406-0.878678 0.19382l-2.500485-2.677585c-0.276952-0.29588-0.126512-0.780664 0.269288-0.86786z" color="#000000" color-rendering="auto" dominant-baseline="auto" fill="#ee628b" image-rendering="auto" shape-rendering="auto" solid-color="#000000" stop-color="#000000" style="font-feature-settings:normal;font-variant-alternates:normal;font-variant-caps:normal;font-variant-east-asian:normal;font-variant-ligatures:normal;font-variant-numeric:normal;font-variant-position:normal;font-variation-settings:normal;inline-size:0;isolation:auto;mix-blend-mode:normal;shape-margin:0;shape-padding:0;text-decoration-color:#000000;text-decoration-line:none;text-decoration-style:solid;text-indent:0;text-orientation:mixed;text-transform:none;white-space:normal"/>
  </g>
</svg>
