<svg id="svg8" width="64" height="64" version="1.1" viewBox="0 0 16.933333 16.933334" xmlns="http://www.w3.org/2000/svg" xmlns:xlink="http://www.w3.org/1999/xlink">
    <defs id="defs2">
        <filter id="filter1057" x="-.026999999" y="-.026999999" width="1.054" height="1.054" color-interpolation-filters="sRGB">
            <feGaussianBlur id="feGaussianBlur1059" stdDeviation="0.61875"/>
        </filter>
        <linearGradient id="linearGradient1053" x1="-127" x2="-72" y1="60" y2="5" gradientTransform="matrix(.26458333 0 0 .26458333 34.792707 -.1349368)" gradientUnits="userSpaceOnUse">
            <stop id="stop1047" stop-color="#30c1f1" offset="0"/>
            <stop id="stop1049" stop-color="#22acdd" offset="1"/>
        </linearGradient>
    </defs>
    <g id="layer1">
        <rect id="rect1055" transform="scale(.26458333)" x="4.5" y="4.5" width="55" height="55" ry="15" fill="#141414" filter="url(#filter1057)" opacity=".3" stroke-linecap="round" stroke-width="2.74436"/>
        <rect id="rect1045" x="1.1906257" y="1.1906257" width="14.552082" height="14.552082" ry="3.9687498" fill="url(#linearGradient1053)" stroke-linecap="round" stroke-width=".726112"/>
        <g id="g1298" transform="translate(1.3919927,1.4894398)">
            <g fill="none" stroke="#fff" stroke-linecap="square" stroke-width="1.05833">
                <path id="path1086" d="m5.751757 8.1336187a4.2333333 4.2333333 0 0 1 4.233333-4.2333333"/>
                <path id="path1088" d="m7.868424 8.1336187a2.1166666 2.1166666 0 0 1 2.116666-2.1166667"/>
                <path id="path1090" d="m3.63509 8.1336187a6.3499999 6.3499999 0 0 1 6.35-6.35"/>
            </g>
            <circle id="circle1094" cx="10.249673" cy="8.3982019" r=".79374999" fill="#fff" stroke-width=".264583"/>
            <path id="XMLID_13_" d="m10.684083 9.5634617h-0.8688207c-0.1663268 0-0.3024183 0.1360916-0.3024183 0.3024182v2.5317021c0 0.166326 0.1360915 0.302418 0.3024183 0.302418h0.8688207c0.166327 0 0.302418-0.136092 0.302418-0.302418v-2.5317021c0-0.1663266-0.136091-0.3024182-0.302418-0.3024182z" fill="#fff" stroke-width=".022648"/>
        </g>
    </g>
</svg>
