<svg id="svg88" version="1.1" viewBox="0 0 64 64" xmlns="http://www.w3.org/2000/svg" xmlns:xlink="http://www.w3.org/1999/xlink">
    <defs id="defs34">
        <style id="style4" type="text/css"/>
        <style id="style6" type="text/css"/>
        <style id="style16" type="text/css"/>
        <style id="style18" type="text/css"/>
        <style id="style20" type="text/css"/>
        <style id="style14" type="text/css"/>
        <style id="style16-7" type="text/css"/>
        <filter id="filter1057" x="-.026999999" y="-.026999999" width="1.054" height="1.054" color-interpolation-filters="sRGB">
            <feGaussianBlur id="feGaussianBlur1059" stdDeviation="0.61875"/>
        </filter>
        <linearGradient id="linearGradient1053" x1="-127" x2="-72" y1="60" y2="5" gradientTransform="translate(131.5 -.50999931)" gradientUnits="userSpaceOnUse">
            <stop id="stop1047" stop-color="#039be5" offset="0"/>
            <stop id="stop1049" stop-color="#03a9fc" offset="1"/>
        </linearGradient>
        <filter id="filter2060" x="-.047999998" y="-.048000001" width="1.096" height="1.096" color-interpolation-filters="sRGB">
            <feGaussianBlur id="feGaussianBlur2062" stdDeviation="0.80000002"/>
        </filter>
    </defs>
    <g fill="#5e4aa6">
        <g id="g44">
            <circle id="circle36" cx="-1248.7" cy="-1241.6" r="0"/>
            <circle id="circle38" cx="-149.15" cy="23.855" r="0" fill-rule="evenodd"/>
            <circle id="circle40" cx="-1248.7" cy="-1241.6" r="0"/>
            <circle id="circle42" cx="-149.15" cy="23.855" r="0" fill-rule="evenodd"/>
        </g>
        <g id="g80" transform="matrix(3.7796 0 0 3.7796 95.458 -72.949)" stroke-width=".26458">
            <g id="g58" transform="translate(-.0272 .0065001)">
                <circle id="circle50" cx="-330.35" cy="-328.38" r="0"/>
                <circle id="circle52" cx="-312.11" cy="-326.25" r="0"/>
                <circle id="circle54" cx="-306.02" cy="-333.07" r="0"/>
                <circle id="circle56" cx="-308.84" cy="-326.01" r="0"/>
            </g>
            <g id="g68" transform="translate(-.0272 .0065001)">
                <circle id="circle60" cx="-330.35" cy="-328.38" r="0"/>
                <circle id="circle62" cx="-312.11" cy="-326.25" r="0"/>
                <circle id="circle64" cx="-306.02" cy="-333.07" r="0"/>
                <circle id="circle66" cx="-308.84" cy="-326.01" r="0"/>
            </g>
            <g id="g78" transform="translate(-.02705 .0064503)">
                <circle id="circle70" cx="-330.35" cy="-328.38" r="0"/>
                <circle id="circle72" cx="-312.11" cy="-326.25" r="0"/>
                <circle id="circle74" cx="-306.02" cy="-333.07" r="0"/>
                <circle id="circle76" cx="-308.84" cy="-326.01" r="0"/>
            </g>
        </g>
        <circle id="circle41" cx="-1248.7" cy="-1241.6" r="0"/>
        <circle id="circle43" cx="-149.14999" cy="23.855" r="0" fill-rule="evenodd"/>
    </g>
    <g stroke-linecap="round">
        <rect id="rect1055" x="4.5" y="4.5" width="55" height="55" ry="15" fill="#141414" filter="url(#filter1057)" opacity=".3" stroke-width="2.74436"/>
        <rect id="rect1045" x="4.5000019" y="4.5000019" width="54.999996" height="54.999996" ry="14.999999" fill="url(#linearGradient1053)" stroke-width="2.74436"/>
        <path id="path2058" d="m22.908202 12c-6.04363 0-10.908203 4.866526-10.908203 10.910156v18.181641c0 6.04363 4.864573 10.908203 10.908203 10.908203h18.183599c6.04363 0 10.9082-4.864573 10.9082-10.908203v-18.181641c0-6.04363-4.86457-10.910156-10.9082-10.910156zm2.240235 10.001953a2.0996793 2.0854523 0 0 1 1 0.279297l6.902343 3.957031 6.900391 3.958985a2.0996793 2.0854523 0 0 1 0 3.609375l-6.900391 3.958984-6.902343 3.957031a2.0996793 2.0854523 0 0 1-3.148438-1.80664v-15.828125a2.0996793 2.0854523 0 0 1 2.148438-2.085938z" filter="url(#filter2060)" opacity=".2" stroke-width="1.9959"/>
        <path id="rect1327" d="m22.908202 12c-6.04363 0-10.908203 4.866526-10.908203 10.910156v18.181641c0 6.04363 4.864573 10.908203 10.908203 10.908203h18.183599c6.04363 0 10.9082-4.864573 10.9082-10.908203v-18.181641c0-6.04363-4.86457-10.910156-10.9082-10.910156zm2.240235 10.001953a2.0996793 2.0854523 0 0 1 1 0.279297l6.902343 3.957031 6.900391 3.958985a2.0996793 2.0854523 0 0 1 0 3.609375l-6.900391 3.958984-6.902343 3.957031a2.0996793 2.0854523 0 0 1-3.148438-1.80664v-15.828125a2.0996793 2.0854523 0 0 1 2.148438-2.085938z" fill="#fff" stroke-width="1.9959"/>
    </g>
</svg>
