<svg id="svg5" version="1.1" viewBox="0 0 64 64" xmlns="http://www.w3.org/2000/svg">
  <defs id="defs3">
    <style id="style1" type="text/css"/>
    <style id="style2" type="text/css"/>
    <filter id="filter1057" x="-.026999999" y="-.026999999" width="1.054" height="1.054" color-interpolation-filters="sRGB">
      <feGaussianBlur id="feGaussianBlur2" stdDeviation="0.61875"/>
    </filter>
    <linearGradient id="linearGradient1053" x1="-127" x2="-72" y1="60" y2="5" gradientTransform="translate(131.5 -.51)" gradientUnits="userSpaceOnUse">
      <stop id="stop2" stop-color="#8f3ded" offset="0"/>
      <stop id="stop3" stop-color="#8f3ded" offset="1"/>
    </linearGradient>
    <filter id="filter5" x="-.026690477" y="-.027316787" width="1.053381" height="1.0546336" color-interpolation-filters="sRGB">
      <feGaussianBlur id="feGaussianBlur5" stdDeviation="0.40035715"/>
    </filter>
  </defs>
  <rect id="rect3" x="4.5" y="4.5" width="55" height="55" ry="15" fill="#141414" filter="url(#filter1057)" opacity=".3" stroke-linecap="round" stroke-width="2.7444"/>
  <rect id="rect4" x="4.5" y="4.5" width="55" height="55" ry="15" fill="url(#linearGradient1053)" stroke-linecap="round" stroke-width="2.7444"/>
  <circle id="circle4" cx="-1326.3" cy="-1241.6" r="0" fill="#08e808"/>
  <circle id="circle5" cx="-226.72" cy="23.855" r="0" fill="#08e808" fill-rule="evenodd"/>
  <path id="path5" d="m33.49206 49.587302c-3.89342 0-7.32426-0.761905-10.28571-2.285714-2.92064-1.52381-5.18594-3.598641-6.79365-6.222222-1.60998-2.666668-2.4127-5.691611-2.4127-9.079366 0-3.428572 0.78231-6.455783 2.34921-9.079365a16.804989 16.804989 0 0 1 6.53968-6.222223c2.75057-1.523809 5.86168-2.285714 9.33333-2.285714 3.344673 0 6.349209 0.718821 9.015875 2.15873a15.598639 15.598639 0 0 1 6.412699 6.095238c1.564626 2.623584 2.349206 5.777778 2.349206 9.460318 0 0.380952-0.02268 0.825398-0.06349 1.333334a149.45578 149.45578 0 0 1-0.126984 1.333333h-27.746036v-5.777777h22.539687l-3.809524 1.714285c0-1.777777-0.360544-3.321996-1.079365-4.634921a7.6575964 7.6575964 0 0 0-2.984127-3.047618c-1.269842-0.761905-2.750571-1.142858-4.444451-1.142858-1.69387 0-3.19727 0.380953-4.50793 1.142858-1.26984 0.71882-2.26531 1.757368-2.98413 3.111111-0.71882 1.312925-1.07936 2.879818-1.07936 4.698412v1.523809c0 1.861678 0.40136 3.514739 1.20634 4.952382a8.5941043 8.5941043 0 0 0 3.49207 3.238095c1.52381 0.718821 3.30159 1.079365 5.33333 1.079365 1.820865 0 3.408167-0.274376 4.761909-0.825397a11.587302 11.587302 0 0 0 3.809523-2.476191l5.269842 5.714287c-1.564626 1.777777-3.535148 3.151927-5.904762 4.126983-2.369615 0.929705-5.102041 1.396826-8.190482 1.396826z" fill="#000000" filter="url(#filter5)" opacity=".3" stroke-width="2.26757"/>
  <path id="path2" d="m33.49206 49.587302c-3.89342 0-7.32426-0.761905-10.28571-2.285714-2.92064-1.52381-5.18594-3.598641-6.79365-6.222222-1.60998-2.666668-2.4127-5.691611-2.4127-9.079366 0-3.428572 0.78231-6.455783 2.34921-9.079365a16.804989 16.804989 0 0 1 6.53968-6.222223c2.75057-1.523809 5.86168-2.285714 9.33333-2.285714 3.344673 0 6.349209 0.718821 9.015875 2.15873a15.598639 15.598639 0 0 1 6.412699 6.095238c1.564626 2.623584 2.349206 5.777778 2.349206 9.460318 0 0.380952-0.02268 0.825398-0.06349 1.333334a149.45578 149.45578 0 0 1-0.126984 1.333333h-27.746036v-5.777777h22.539687l-3.809524 1.714285c0-1.777777-0.360544-3.321996-1.079365-4.634921a7.6575964 7.6575964 0 0 0-2.984127-3.047618c-1.269842-0.761905-2.750571-1.142858-4.444451-1.142858-1.69387 0-3.19727 0.380953-4.50793 1.142858-1.26984 0.71882-2.26531 1.757368-2.98413 3.111111-0.71882 1.312925-1.07936 2.879818-1.07936 4.698412v1.523809c0 1.861678 0.40136 3.514739 1.20634 4.952382a8.5941043 8.5941043 0 0 0 3.49207 3.238095c1.52381 0.718821 3.30159 1.079365 5.33333 1.079365 1.820865 0 3.408167-0.274376 4.761909-0.825397a11.587302 11.587302 0 0 0 3.809523-2.476191l5.269842 5.714287c-1.564626 1.777777-3.535148 3.151927-5.904762 4.126983-2.369615 0.929705-5.102041 1.396826-8.190482 1.396826z" fill="#ffffff" stroke-width="2.26757"/>
</svg>
