<svg id="svg290" version="1.1" viewBox="0 0 64 64" xmlns="http://www.w3.org/2000/svg">
  <defs id="defs278">
    <style id="style266" type="text/css"/>
    <style id="style268" type="text/css"/>
    <filter id="filter1057" x="-.026999999" y="-.026999999" width="1.054" height="1.054" color-interpolation-filters="sRGB">
      <feGaussianBlur id="feGaussianBlur270" stdDeviation="0.61875"/>
    </filter>
  </defs>
  <rect id="rect280" x="4.5" y="4.5" width="55" height="55" ry="15" fill="#141414" filter="url(#filter1057)" opacity=".3" stroke-linecap="round" stroke-width="2.7444"/>
  <circle id="circle284" cx="-1326.3" cy="-1241.6" r="0" fill="#5e4aa6"/>
  <circle id="circle286" cx="-226.72" cy="23.855" r="0" fill="#5e4aa6" fill-rule="evenodd"/>
  <path id="path512" d="m19.500001 4.500067c-8.309994 0-15.000002 6.690009-15.000002 15v25c0 8.309992 6.690008 15 15.000002 15h25c8.30999 0 15-6.690008 15-15v-25c0-8.309992-6.69001-15-15-15z" fill="#1c71d9" stroke-width="2.18182"/>
  <g id="g336" transform="translate(-82.835939,17.527411)" fill="#3584e4" stroke-width=".999999">
    <path id="path514" d="m89.892578-6.4277344c-0.467002 0.6921182-0.865014 1.4326604-1.21289 2.2011719h52.312502c-0.34788-0.7685115-0.74589-1.5090537-1.21289-2.2011719z"/>
    <path id="path516" d="m88.679688 33.171875c0.347876 0.768512 0.745888 1.509054 1.21289 2.201172h49.886722c0.467-0.692118 0.86501-1.43266 1.21289-2.201172z"/>
    <path id="path518" d="m87.335938 13.373047v2.199219h55.000002v-2.199219z"/>
    <path id="path520" d="m133.53516-11.683594v52.3125c0.76851-0.347876 1.50905-0.745889 2.20117-1.21289v-49.886719c-0.69212-0.467002-1.43266-0.865014-2.20117-1.212891z"/>
    <path id="path522" d="m96.136719-11.683594c-0.768512 0.347877-1.509054 0.745889-2.201172 1.212891v49.886719c0.692118 0.467001 1.432661 0.865014 2.201172 1.21289z"/>
    <path id="path524" d="m115.93596-13.027479v55h-2.2v-55z"/>
  </g>
  <g id="g649" transform="matrix(.41666667 0 0 .41666667 -46.223317 32.844783)">
    <g id="g342" stroke-width="7.99239">
      <path id="path528" d="m127.99768 21.972521c-0.13281 1.332031-0.21875 2.664062-0.26172 4v8h24v-8h72v8h24v-8c-0.043-1.335938-0.12891-2.667969-0.26172-4z" fill="#77767b"/>
      <path id="path530" d="m187.73596-14.027479c-15.22266 0.03906-28.77344 9.648438-33.84766 24h4.28907c4.875-12.050781 16.55859-19.957031 29.55859-20 13.03516 0.0039 24.76562 7.914062 29.65625 20h4.28125c-5.08203-14.382812-18.68359-24-33.9375-24z" fill="#77767b"/>
      <path id="path532" d="m187.73596-38.027479c-33.13672 0-60 26.863281-60 60v8h24v-8h72v8h24v-8c0-33.136719-26.86328-60-60-60zm0 24c15.25391 0 28.85547 9.617188 33.9375 24h-67.8125c5.07812-14.359375 18.64453-23.972656 33.875-24z" fill="#c0bfbc"/>
    </g>
    <g id="g356" stroke-width="2.40001">
      <g id="g536" transform="translate(115.73596,-82.027479)" clip-path="url(#d)" mask="url(#c)">
        <path id="path534" d="m54.539062 46.5625 3.863282-1.035156 2.589844 9.660156-3.863282 1.035156z" fill="#3d3846" stroke-width="5.23637"/>
      </g>
      <g id="g540" transform="translate(115.73596,-82.027479)" clip-path="url(#f)" mask="url(#e)">
        <path id="path538" d="m85.597656 45.527344 3.863282 1.035156-2.589844 9.660156-3.863282-1.035156z" fill="#3d3846" stroke-width="5.23637"/>
      </g>
      <g id="g544" transform="translate(115.73596,-82.027479)" clip-path="url(#h)" mask="url(#g)">
        <path id="path542" d="m113.01172 60.160156 2.82812 2.828125-7.07031 7.070313-2.82812-2.828125z" fill="#3d3846" stroke-width="5.23637"/>
      </g>
      <g id="g548" transform="translate(115.73596,-82.027479)" clip-path="url(#j)" mask="url(#i)">
        <path id="path546" d="m28.160156 62.988281 2.828125-2.828125 7.070313 7.070313-2.828125 2.828125z" fill="#3d3846" stroke-width="5.23637"/>
      </g>
      <g id="g552" transform="translate(115.73596,-82.027479)" clip-path="url(#l)" mask="url(#k)">
        <path id="path550" d="m13.527344 90.402344 1.035156-3.863282 9.660156 2.589844-1.035156 3.863282z" fill="#3d3846" stroke-width="5.23637"/>
      </g>
      <g id="g556" transform="translate(115.73596,-82.027479)" clip-path="url(#n)" mask="url(#m)">
        <path id="path554" d="m129.4375 86.539062 1.03516 3.863282-9.66016 2.589844-1.03516-3.863282z" fill="#3d3846" stroke-width="5.23637"/>
      </g>
    </g>
    <path id="path558" d="m187.73596-38.027479c-33.13672 0-60 26.863281-60 60v12h24v-12h72v12h24v-12c0-33.136719-26.86328-60-60-60zm0 28c13.03516 0.0039 24.76562 7.914062 29.65625 20h-59.21484c4.875-12.050781 16.55859-19.957031 29.55859-20z" fill="url(#o)" stroke-width="5.23637"/>
    <path id="path560" d="m187.73596-38.027479c-33.13672 0-60 26.863281-60 60v12h24v-12h72v12h24v-12c0-33.136719-26.86328-60-60-60zm0 28c13.03516 0.0039 24.76562 7.914062 29.65625 20h-59.21484c4.875-12.050781 16.55859-19.957031 29.55859-20z" fill="url(#p)" stroke-width="5.23637"/>
  </g>
</svg>
