<?xml version="1.0" encoding="utf-8"?>
<svg width="64" height="64" viewBox="0 0 64 64" xmlns="http://www.w3.org/2000/svg">
  <defs>
    <filter id="shadow" x="-0.03" y="-0.03" width="1.06" height="1.06">
      <feGaussianBlur stdDeviation="0.65"/>
    </filter>
    <linearGradient id="bgGradient" x1="0" y1="0" x2="1" y2="1">
      <stop offset="0" stop-color="#1ccba4"/>
      <stop offset="1" stop-color="#009b74"/>
    </linearGradient>
    <linearGradient id="icon" x1="0" y1="0" x2="1" y2="1">
      <stop offset="0" stop-color="#ecebe4"/>
      <stop offset="1" stop-color="#f0fbf4"/>
    </linearGradient>
  </defs>
  <rect x="4.5" y="4.5" width="55" height="55" ry="15" fill="#000" opacity="0.3" filter="url(#shadow)"/>
  <rect x="4" y="4" width="56" height="56" ry="15" fill="url(#bgGradient)"/>
  <path stroke="url(#icon)" fill="url(#icon)" d="M 30.063 37.554 C 32.409 37.554 38.826 38.462 43.676 39.439 L 39.685 41.448 C 39.346 41.614 39.308 42.176 39.614 42.391 L 42.203 44.106 L 38.541 46.404 C 38.229 46.588 38.203 47.096 38.487 47.311 L 40.198 48.683 C 36.781 49.068 33.401 49.626 30.063 49.626 C 26.231 49.724 22.859 46.96 22.937 43.039 C 22.932 38.693 27.284 37.613 30.063 37.554 Z M 30.063 36.457 C 24.361 36.457 21.841 40.006 21.841 43.039 C 21.894 47.991 25.911 50.701 30.063 50.726 C 33.966 50.726 37.82 49.974 41.623 49.607 C 42.04 49.561 42.233 48.926 41.913 48.648 L 39.774 46.934 L 43.504 44.6 C 43.816 44.411 43.829 43.879 43.521 43.676 L 41.005 41.996 L 45.643 39.68 C 46.053 39.483 45.965 38.75 45.525 38.649 C 40.4 37.909 35.436 36.619 30.063 36.457 Z M 16.412 19.871 C 16.632 22.187 17.617 24.142 18.981 26.029 L 18.243 27.124 C 11.452 27.5 9.076 23.481 9.22 20.609 C 10.952 20.792 13.167 21.806 16.412 19.871 Z M 22.937 17.794 C 22.03 17.794 21.292 18.529 21.292 19.441 C 21.292 20.35 22.03 21.086 22.937 21.086 C 23.844 21.086 24.582 20.35 24.582 19.441 C 24.582 18.529 23.844 17.794 22.937 17.794 Z M 27.322 10.11 C 33.827 10.092 38.778 14.434 38.829 21.086 C 38.829 22.955 38.566 24.761 37.664 26.442 C 36.764 28.116 35.223 29.687 32.562 31.018 C 32.331 31.139 32.212 31.436 32.291 31.682 C 32.374 31.927 32.651 32.089 32.906 32.051 C 38.796 30.975 42.006 32.685 45.25 34.072 C 48.306 35.373 51.507 36.212 56.301 33.983 C 56.117 39.053 54.332 43.974 51.605 47.658 C 48.733 51.539 44.898 54.02 41.023 54.02 C 35.541 54.02 30.063 54.02 24.582 54.02 C 20.888 53.743 18.314 52.3 16.635 50.297 C 14.952 48.283 14.171 45.675 14.171 43.039 C 14.171 37.809 17.859 34.084 20.626 30.761 C 20.766 30.586 20.779 30.318 20.661 30.125 L 19.205 27.691 L 20.113 26.316 C 20.236 26.13 20.231 25.867 20.094 25.682 C 18.546 23.261 17.42 21.612 17.454 18.894 C 17.454 13.732 22.096 10.11 27.322 10.11 Z M 27.322 9.014 C 21.709 9.014 16.609 12.912 16.394 18.534 C 12.863 20.954 11.104 19.441 8.69 19.441 C 8.435 19.436 8.189 19.635 8.142 19.89 C 7.54 23.502 10.599 28.603 18.243 28.221 L 19.529 30.349 C 16.824 33.559 13.07 37.456 13.07 43.039 C 13.07 45.893 13.916 48.759 15.797 50.999 C 17.67 53.24 20.586 54.831 24.546 55.116 C 30.037 55.116 35.532 55.116 41.023 55.116 C 45.363 55.116 49.478 52.383 52.499 48.306 C 55.516 44.229 57.463 38.777 57.463 33.163 C 57.473 32.782 56.993 32.489 56.656 32.663 C 51.577 35.343 48.89 34.418 45.698 33.058 C 42.965 31.896 39.794 30.472 35.098 30.761 C 36.739 29.617 37.886 28.344 38.623 26.972 C 39.642 25.082 39.927 23.06 39.927 21.086 C 39.86 13.35 34.441 9.035 27.322 9.014"/>
</svg>