<svg id="svg44" version="1.1" viewBox="0 0 64 64" xmlns="http://www.w3.org/2000/svg" xmlns:xlink="http://www.w3.org/1999/xlink">
    <defs id="defs22">
        <filter id="filter1057" x="-.026999999" y="-.026999999" width="1.054" height="1.054" color-interpolation-filters="sRGB">
            <feGaussianBlur id="feGaussianBlur1059" stdDeviation="0.61875"/>
        </filter>
        <linearGradient id="linearGradient1747" x1="-127" x2="-72" y1="60" y2="5" gradientTransform="matrix(.92727279 0 0 .92727279 124.26364 1.8543639)" gradientUnits="userSpaceOnUse">
            <stop id="stop1047" stop-color="#111" offset="0"/>
            <stop id="stop1049" stop-color="#2b2b2b" offset="1"/>
        </linearGradient>
    </defs>
    <g fill="#5e4aa6">
        <g id="g30">
            <circle id="circle24" cx="-1248.7" cy="-1241.6" r="0"/>
            <circle id="circle26" cx="-1140.3" cy="-1301.8" r="0"/>
            <circle id="circle28" cx="-1158.1" cy="-1246" r="0"/>
        </g>
        <circle id="circle36" cx="-1157.3" cy="-1267.7" r="0"/>
        <circle id="circle38" cx="-57.756" cy="-2.1829" r="0" fill-rule="evenodd"/>
    </g>
    <g stroke-linecap="round">
        <rect id="rect1055" x="4.4999995" y="4.4999995" width="55" height="55" ry="15" fill="#141414" filter="url(#filter1057)" opacity=".3" stroke-width="2.74436"/>
        <rect id="rect1045" x="4.7477474" y="4.7477474" width="54.504505" height="54.504505" ry="14.864865" fill="#ddd" stroke="#7a797e" stroke-width=".495496"/>
        <rect id="rect1745" x="6.5" y="6.5" width="51" height="51" ry="13.909091" fill="url(#linearGradient1747)" stroke-width="2.54477"/>
    </g>
    <g id="g3772" transform="matrix(.63766052 0 0 .63766052 82.887007 12.18977)">
        <path id="path24" d="m-72.408133 35.332031c3.71094-3.484375 4.97266-4.226562-7.17578-12.6875-4.13672 2.949219-6.875 7.832031-7.6875 12.847657 4.9375 2.1875 10.94141 3.523437 14.86328-0.160157z" fill="#fff"/>
        <path id="path26" d="m-80.021413-2.125c-7.50391-0.105469-14.77734 4.585938-17.78125 11.460938-3.316407 7.164062-1.72266 16.257812 3.9375 21.789062 1.71484 1.730469 3.75781 3.132812 5.98828 4.109375 0.81641-5.015625 4.15625-9.640625 8.29297-12.589844 4.14453 2.9375 6.60938 7.574219 7.41016 12.59375 7.21484-3.054687 12.05859-10.796875 11.63672-18.621093-0.17969-7.566407-5.2461-14.707032-12.32032-17.394532-2.27343-0.894531-4.71875-1.351562-7.16406-1.347656z" fill="#e01b24"/>
        <path id="path28" d="m-80.021413 54.355469c5.93359 4.519531 14.62109 4.851562 20.89063 0.828125 6.26562-3.828125 9.8164-11.421875 9.01171-18.683594-0.63281-7.414062-5.86328-14.257812-12.98046-16.554688-5.63672-1.910156-11.72657-0.882812-16.48438 2.699219 6.02344 4.34375 8.08984 12.277344 7.12109 19.554688-0.8789 4.808593-3.60156 9.265625-7.55859 12.15625z" fill="#3584e4"/>
        <path id="path30" d="m-80.021413 54.355469c-5.93359 4.519531-14.18359 4.851562-20.453117 0.828125-6.26563-3.828125-9.81641-11.421875-9.01172-18.683594 0.63281-7.414062 5.86328-14.257812 12.980467-16.554688 5.63671-1.910156 12.16406-0.882812 16.92187 2.699219-6.09375 4.390625-9.03906 12.484375-7.51172 19.792969 0.92188 4.71875 3.1836 9.078125 7.07422 11.917969z" fill="#33d17a"/>
        <path id="path32" d="m-60.830003 20.871094s-9.94141-5.425782-18.75391 1.773437c0 0 5.42969 4.558594 7.17578 12.6875 0 0 6.875-1.867187 11.57813-14.460937z" fill="#9141ac"/>
        <path id="path34" d="m-99.173753 21.074219s10.44922-6.292969 19.58984 1.570312c0 0-6.32812 4.355469-7.67578 12.878907 0 0-7.06641-1.375-11.91406-14.449219z" fill="#f6d32d"/>
        <path id="path36" d="m-79.673753 54.242188s9.30859-6.472657 7.26562-18.910157c0 0-7.26172 3.109375-14.86328 0.160157 0 0-3.48437 10.5625 7.25 18.863281z" fill="#35e4dc"/>
    </g>
</svg>
