<svg id="svg290" version="1.1" viewBox="0 0 64 64" xmlns="http://www.w3.org/2000/svg">
  <defs id="defs278">
    <style id="style266" type="text/css"/>
    <style id="style268" type="text/css"/>
    <filter id="filter1057" x="-.026999999" y="-.026999999" width="1.054" height="1.054" color-interpolation-filters="sRGB">
      <feGaussianBlur id="feGaussianBlur270" stdDeviation="0.61875"/>
    </filter>
  </defs>
  <rect id="rect280" x="4.5" y="4.5" width="55" height="55" ry="15" fill="#141414" filter="url(#filter1057)" opacity=".3" stroke-linecap="round" stroke-width="2.7444"/>
  <rect id="rect282" x="5.5" y="5.5" width="53" height="53" ry="14.454545" fill="#fff" stroke-linecap="round" stroke-width="2.6446"/>
  <circle id="circle284" cx="-1326.3" cy="-1241.6" r="0" fill="#5e4aa6"/>
  <g fill-rule="evenodd">
    <circle id="circle286" cx="-226.72" cy="23.855" r="0" fill="#5e4aa6"/>
    <path id="path61" d="m20.5 5.5c-8.309992 0-15 6.690008-15 15v10.082031c1.3255643-0.764307 4.2511077-1.26014 7.490234-1.267578 0.958776 1.26e-4 1.910743 0.04273 2.8125 0.126953 5.082735-1.947604 10.68884-5.671064 13.650391-12.746094-0.148517-1.146786-0.225827-2.410799-0.226563-3.693359 0.0075-3.2493004 0.505539-6.182534 1.273438-7.501953z" fill="#1970d7"/>
    <path id="path511" d="m58.5 33.417969c-1.325566 0.764307-4.251109 1.26014-7.490234 1.267578-0.958776-1.26e-4 -1.910743-0.04272-2.8125-0.126953-5.082736 1.947603-10.688848 5.671064-13.650391 12.746094 0.148515 1.146788 0.22583 2.410802 0.226563 3.693359-0.0075 3.249301-0.505539 6.182534-1.273438 7.501953h10c8.309992 0 15-6.690008 15-15z" fill="#1970d7"/>
  </g>
  <path id="rect1188" d="m19.499998 4.5c-8.309987 0-14.999996 6.690008-14.999996 15v25c0 8.309992 6.690009 15 14.999996 15h25c8.31 0 15-6.690008 15-15v-25c0-8.309992-6.69-15-15-15zm2 2h23.035c7.47451 0 12.9108 6.765695 12.965 13.060547l0.21497 24.969116c0.0601 6.981375-5.70546 12.970337-13.19812 12.970337h-23.01685c-8.30999 0-14.999996-4.70014-14.999996-13.010132v-24.973082c0-8.309992 6.690006-13.016786 14.999996-13.016786z" fill="#2e3436"/>
</svg>
