<svg id="svg5" version="1.1" viewBox="0 0 64 64" xmlns="http://www.w3.org/2000/svg">
  <defs id="defs3">
    <style id="style1" type="text/css"/>
    <style id="style2" type="text/css"/>
    <filter id="filter1057" x="-.026999999" y="-.026999999" width="1.054" height="1.054" color-interpolation-filters="sRGB">
      <feGaussianBlur id="feGaussianBlur2" stdDeviation="0.61875"/>
    </filter>
    <filter id="filter32" x="-.016430932" y="-.016430932" width="1.0328619" height="1.0328619" color-interpolation-filters="sRGB">
      <feGaussianBlur id="feGaussianBlur32" stdDeviation="0.34231107"/>
    </filter>
  </defs>
  <rect id="rect3" x="4.5" y="4.5" width="55" height="55" ry="15" fill="#141414" filter="url(#filter1057)" opacity=".3" stroke-linecap="round" stroke-width="2.7444"/>
  <rect id="rect4" x="4.5" y="4.5" width="55" height="55" ry="15" fill="#a84300" stroke-linecap="round" stroke-width="2.7444"/>
  <circle id="circle4" cx="-1326.3" cy="-1241.6" r="0" fill="#5e4aa6"/>
  <circle id="circle5" cx="-226.72" cy="23.855" r="0" fill="#5e4aa6" fill-rule="evenodd"/>
  <path id="rect31" d="M 20.636718,7 C 13.082173,7 7.0000002,13.082173 7.0000002,20.636719 V 43.365234 C 7.0000002,50.91978 13.082173,57 20.636718,57 H 43.363281 C 50.917827,57 57,50.91978 57,43.365234 V 20.636719 C 57,13.082173 50.917827,7 43.363281,7 Z m 0.226563,0.5 H 43.136718 C 50.540173,7.5 56.5,13.46178 56.5,20.865234 V 43.136719 C 56.5,50.540174 50.540173,56.5 43.136718,56.5 H 20.863281 C 13.459826,56.5 7.5000002,50.540174 7.5000002,43.136719 V 20.865234 C 7.5000002,13.46178 13.459826,7.5 20.863281,7.5 Z" fill="#222222" filter="url(#filter32)"/>
  <rect id="rect17" x="7" y="7" width="50" height="50" ry="13.636364" fill="#e5e5e5" stroke-linecap="round" stroke-width="2.49491"/>
  <g id="g23" transform="matrix(.56009058 0 0 .56009058 -13.884347 23.236184)" stroke-width="1.37687">
    <path id="path5-3-2" d="m50.08799 37.689503c-0.18761-0.04861-0.20135-0.143138-0.12846-0.883025 0.1279-1.298174 0.86184-2.551748 2.90928-4.969006 0.19581-0.231184 0.55872-0.70889 0.80645-1.061552 0.24773-0.352676 0.50715-0.693688 0.57649-0.757815 0.0693-0.06417 0.27914-0.32643 0.46623-0.582923 1.54055-2.111923 3.40137-4.06081 4.67207-4.893189 1.17601-0.770345 1.944-1.452398 2.4138-2.143704 0.20227-0.297637 0.56357-0.766421 0.80289-1.041737 0.25967-0.298725 0.56648-0.862866 0.76087-1.399026 0.17915-0.494148 0.58242-1.344387 0.89614-1.889429 1.24123-2.1564 1.51038-2.886702 1.24599-3.380809-0.1662-0.310622 0.26522-0.432045 0.64672-0.182025 0.39159 0.256617 0.37844 0.318527-0.40123 1.8883-1.28321 2.583598-1.41992 4.020299-0.32089 3.37234 1.172-0.690975 2.33846-1.253753 3.05109-1.472047 0.4469-0.136874 1.5285-0.582386 2.40355-0.989976 0.875058-0.407577 1.7335-0.776818 1.907654-0.820537 0.364686-0.09157 1.430368-1.118229 1.688434-1.626643 0.09617-0.189447 0.38466-0.612046 0.641101-0.93911 0.256441-0.32705 0.931709-1.229807 1.500597-2.006142 1.056422-1.44163 2.215215-2.7313371 2.796159-3.1120621 0.178568-0.117044 0.525515-0.50588 0.770994-0.864105 0.245478-0.358238 0.661249-0.858721 0.923933-1.112198 0.262686-0.253477 0.47761-0.507876 0.47761-0.565352 0-0.286525 0.970057-1.620543 1.717592-2.362027 0.800435-0.79396 1.425646-1.795531 1.428493-2.288426 6.26e-4 -0.108369 0.05342-0.229462 0.117325-0.268968 0.204015-0.126133 0.662046-1.2635295 0.737555-1.8315533 0.0777-0.5844926 0.237713-0.9855008 1.130061-2.8320909 0.309864-0.6412247 0.598676-1.3494815 0.641805-1.573904 0.116445-0.6059049 0.42118-1.5162493 0.505891-1.511237 0.04071 0.00275 0.283821 0.1851643 0.540262 0.4061305 0.466255 0.4017518 0.466255 0.4017518 0.189094 0.8991633-0.762295 1.3680434-1.156397 2.200987-1.23193 2.6036889-0.122282 0.651924-0.811454 2.7044022-1.122009 3.3415235-0.365838 0.750544-0.318521 0.755267 1.067918 0.106579 0.667419-0.3122468 1.580666-0.6775495 2.029437-0.8117926 0.799127-0.2390599 2.134896-0.875892 3.052871-1.4554963 0.587874-0.3711825 2.451175-1.3052663 2.833602-1.4205207 0.160276-0.048332 0.534307-0.2604997 0.831181-0.4715516 0.850956-0.6049822 1.21352-0.7538766 1.835673-0.7538766 1.119195 0 1.206245 0.7517561 0.15427 1.3322829-0.464483 0.2563274-2.71366 1.3491787-2.776701 1.3491787-0.02978 0-0.388159 0.1561924-0.796399 0.3470988s-1.101065 0.4587731-1.53961 0.5952745c-1.291101 0.4018481-1.434616 0.4713037-1.931746 0.9349651-1.174074 1.0949988-2.123084 1.6494318-3.250944 1.8992328-0.16808 0.03718-0.561483 0.252995-0.874229 0.479469-0.678255 0.491146-1.322602 0.912093-2.193777 1.433162-0.463488 0.27723-0.916956 0.726653-1.624606 1.610118-0.539908 0.674053-1.238918 1.419117-1.553353 1.655684-0.838586 0.630925-1.097737 0.906792-1.882644 2.004036-0.389888 0.5450421-1.021812 1.4198041-1.404276 1.9439431-0.382463 0.524126-0.781142 1.118822-0.885953 1.321543s-0.474365 0.718226-0.821231 1.145576c-1.148935 1.415508-0.710877 1.897801 1.489113 1.639463 1.410894-0.165666 3.043949-0.134946 6.36524 0.119661 1.437493 0.110159 1.437493 0.110159 2.039868-0.27449 1.086131-0.693689 1.756398-0.986988 2.536374-1.109858 0.4226-0.06651 1.159237-0.245118 1.636974-0.39678 0.477736-0.151649 1.181047-0.314575 1.562914-0.362067 0.381867-0.04751 1.297522-0.219823 2.034788-0.382983s1.760114-0.337887 2.272994-0.388299c2.542234-0.249869 4.423171-0.353061 5.478501-0.300584 5.51056 0.274091 5.65334 0.297596 5.65334 0.930848 0 0.613175-0.24185 0.730027-1.12459 0.543348-1.27259-0.26912-8.067749-0.20732-8.550261 0.0778-0.371663 0.219589-0.464261 0.585966-0.176053 0.69658 0.09546 0.03663 0.232132 0.284101 0.303695 0.549916 0.139199 0.517048 0.774222 1.204305 1.788937 1.936123 0.307452 0.221723 0.677032 0.588967 0.821292 0.816089 0.14427 0.227135 0.58741 0.71718 0.98477 1.089009 0.7821 0.731859 0.83514 0.935984 0.25797 0.992882-0.47707 0.04709-1.13087-0.452866-1.6495-1.26123-0.20557-0.320413-0.420427-0.582579-0.477451-0.582579-0.05702 0-0.261948-0.218529-0.455385-0.485597-0.193436-0.267082-0.547828-0.616177-0.787537-0.775771-0.662305-0.440941-1.805817-1.545414-2.068605-1.997977-0.434884-0.74896-2.722325-0.684723-3.727235 0.104652-0.312265 0.245298-1.153204 0.406833-2.15836 0.414599-0.935433 0.0069-1.279281 0.06802-2.214714 0.391521-0.735774 0.254441-1.224698 0.361034-1.457047 0.317659-0.286462-0.05343-0.244309-0.0069 0.233127 0.254151 0.453282 0.248438 0.591079 0.391342 0.619978 0.642905 0.02584 0.224891 0.403884 0.704525 1.240576 1.573904 2.20818 2.294471 2.443795 2.78464 1.558596 3.242476-0.50351 0.260417-0.758394 0.114291-1.322612-0.758007-0.279092-0.431523-0.594643-0.856959-0.701225-0.94543-0.106587-0.0884-0.483185-0.545455-0.8369-1.01552-1.59573-2.120625-2.220045-1.645356-2.486372 1.892775-0.125944 1.673158-0.449742 3.564362-0.685795 4.00551-0.07297 0.136322-0.203537 1.153356-0.290158 2.259991-0.184251 2.353902 0.04005 3.246938 0.92107 3.667141 0.256335 0.122277 0.5552 0.422077 0.784349 0.786842 0.363395 0.578462 2.162776 2.642135 3.004365 3.445652 0.900644 0.859905 1.526095 2.338631 0.911421 2.15483-0.532561-0.159235-0.741047-0.393159-1.079222-1.210887-0.192488-0.465438-0.461714-0.9081-0.61236-1.00683-0.147864-0.09694-0.40786-0.397828-0.577767-0.668724-0.169909-0.270896-0.543739-0.754854-0.830735-1.075459-0.286996-0.320606-0.728589-0.887308-0.981318-1.25933-0.514906-0.757939-1.53418-1.844015-1.920374-2.046213-0.541242-0.283385-0.851764 0.213751-0.855826 1.370136-0.0013 0.359134-0.07812 1.072679-0.170779 1.58565-0.09267 0.512972-0.170316 1.252445-0.172552 1.643277-3e-3 0.539892-0.0559 0.757498-0.21984 0.905897-0.242205 0.219231-0.247769-0.961885-0.01019-2.176008 0.0602-0.307745 0.11069-0.832379 0.112191-1.16586 0.0015-0.33348 0.139537-1.262125 0.306751-2.063646 0.184602-0.884883 0.34032-2.121355 0.396423-3.147808 0.0527-0.964157 0.196634-2.141322 0.334998-2.739763 0.137971-0.596748 0.273457-1.702915 0.314151-2.564885 0.07064-1.496228 0.138864-1.907784 0.616967-3.721712 0.338774-1.285314 0.210345-1.415481-1.291493-1.308846-0.609356 0.04324-1.269638 0.02231-1.589874-0.05054-1.479151-0.336317-5.426561-0.05026-7.133554 0.516951-0.288495 0.09584-1.337569 0.394192-2.331276 0.662968-1.742707 0.471345-2.411197 0.728016-3.030657 1.163628-0.16028 0.112776-0.55511 0.283193-0.87741 0.378839-1.29779 0.385145-3.1727 1.450594-3.93574 2.236568-0.398 0.409959-0.92027 0.847705-1.1606 0.972764-0.48285 0.251288-0.51526 0.223982 1.39721 1.176889 0.64144 0.3196 0.7583 0.573325 0.4927 1.069676-0.15415 0.288109-0.84715 0.299676-2.17375 0.03635-1.34289-0.2666-1.63401-0.185591-2.57689 0.717111-0.43012 0.41179-0.96224 0.841825-1.18249 0.955648-0.22025 0.113877-0.50023 0.303351-0.62217 0.421194-0.12196 0.117871-0.40336 0.290147-0.62535 0.382915-0.3025 0.126408-0.46155 0.303847-0.63486 0.708243-0.28771 0.671326-0.93933 1.588831-1.53548 2.162018-0.39531 0.380078-0.91656 1.022459-1.77675 2.189654-0.36052 0.489191-1.51948 2.24059-1.67114 2.525393-0.0746 0.140055-0.13559 0.421595-0.13559 0.625638 0 0.34926-1.45709 2.006899-1.72508 1.962519-0.0449-0.0069-0.1762-0.038-0.29175-0.06802z" fill="#a84300"/>
    <path id="path4-9" d="m90.827386 45.925304c-2.712806-1.355857-3.125659-5.174633-0.790235-7.309483 2.252958-2.059446 5.435899-0.718337 6.014446 2.534164 0.604059 3.395929-2.431825 6.170957-5.224211 4.775319zm-9.890554-0.865097c-3.86603-1.953293-2.596864-8.216935 1.669314-8.238458 3.894721-0.01969 5.033626 6.369822 1.459505 8.188102-0.853132 0.434014-2.322669 0.457671-3.128819 0.0504zm18.181568-6.639451c-2.601092-1.2113-3.250972-5.171659-1.181174-7.198057 3.295204-3.226118 7.940834 0.957107 5.843474 5.261852-0.91341 1.874722-2.96487 2.726682-4.6623 1.936205zm10.0976-1.978727c-3.70422-1.980709-2.62006-8.230994 1.42773-8.230994 3.48387 0 5.19205 4.281321 2.84862 7.139685-1.04154 1.270387-3.00456 1.771352-4.27635 1.091309zm-16.344796-5.911352c-3.054905-0.707293-4.131535-4.955085-1.885991-7.441096 1.676637-1.856174 4.547121-1.470602 5.73079 0.769781 1.738937 3.291373-0.637007 7.413997-3.844799 6.671315zm11.224246-2.864891c-3.23239-1.18427-3.24572-6.677195-0.0198-8.171164 2.49923-1.157446 4.97063 0.857702 4.97063 4.052989 0 3.079757-2.38047 5.059888-4.95079 4.118175zm6.75812-9.093846c-1.59448-0.585994-2.82943-2.919654-2.56231-4.841965 0.57602-4.1451931 5.78485-4.9451301 7.23938-1.111785 1.2912 3.402896-1.60079 7.084303-4.67707 5.95375zm-8.93821-19.558519c-2.440279-0.7631713-3.656985-3.8885481-2.425964-6.2316272 1.776164-3.3806578 5.818924-3.0426468 6.946454 0.5807885 1.00374 3.2256357-1.65359 6.5474407-4.52049 5.6508387zm-11.950489-5.4272011c-2.682763-0.4733004-4.052523-3.8949239-2.628783-6.5666219 1.623882-3.047288 5.826001-2.544616 6.88755 0.823896 0.96371 3.0580422-1.401112 6.2468846-4.258767 5.7427259z" fill="#a90000"/>
    <path id="path3-1" d="m65.10168 37.904397c-0.26551-0.163642-0.41542-0.409105-0.62275-1.019692-0.15019-0.442276-0.36834-1.014004-0.48478-1.270497-1.03538-2.280674-0.76905-6.245617 0.55151-8.210464 0.28006-0.416706 0.47814-0.960866 0.74577-2.048801 0.28085-1.14168 0.23994-1.104763 1.0917-0.985157 0.798 0.112087 1.85149-0.253436 2.27213-0.788301 1.27536-1.621645 5.690283-2.025613 6.926092-0.63372 0.12213 0.137561 0.281616 0.250089 0.354415 0.250089 0.238747 0 1.780915 1.563067 2.018834 2.046186 0.318025 0.645782-0.30114 1.398791-1.464866 1.781527-1.30647 0.429663-2.469972 1.324475-2.259514 1.737697 0.05759 0.113051 0.166384 0.458429 0.24178 0.767481 0.07539 0.309053 0.266063 0.756851 0.423703 0.995113 0.296701 0.448418 0.988132 2.350143 0.988132 2.717773 0 0.114841 0.112686 0.552188 0.250415 0.971813 0.232666 0.708876 0.240343 0.834954 0.108322 1.778911-0.163791 1.171037-0.168352 1.180125-0.459926 0.91621-0.207682-0.187987-0.237667-0.182851-0.571218 0.09791-0.404674 0.340571-0.783251 0.382198-0.939313 0.103274-0.08957-0.160075-0.22766-0.180483-0.809701-0.119661-0.722622 0.0756-1.256145-0.271777-1.736631-1.130512-0.06932-0.123929-0.309294-0.231982-0.602235-0.271281-0.440609-0.05907-0.525629-0.127648-0.892529-0.720223-0.90289-1.458099-1.57076-1.855362-1.67195-0.99452-0.0246 0.208917-0.21225 0.495842-0.4954 0.757291-0.25072 0.231501-0.45586 0.501061-0.45586 0.59902 0 0.268376-0.56971 1.252776-1.04028 1.797473-0.22922 0.265333-0.51101 0.619468-0.62619 0.786952-0.24844 0.361227-0.37499 0.374501-0.83965 0.08813zm-6.69741-23.170098c-0.41741-0.130952-0.64738-0.136598-1.17004-0.0285-0.55367 0.114428-0.70194 0.106304-0.99581-0.05453-0.1899-0.103825-0.52373-0.273512-0.74183-0.376938-0.2181-0.103412-0.48037-0.282559-0.58282-0.398089-0.10244-0.11553-0.47476-0.300226-0.82737-0.410482-0.5649-0.176613-1.24751-0.687299-1.87372-1.40178-1.88689-2.1529021-3.79407-5.3585851-4.11627-6.9188301-0.23567-1.141225-0.0673-1.509997 0.81814-1.791951 2.15262-0.685467 2.25761-0.699361 5.46326-0.723445 3.03066-0.02272 3.03066-0.02272 2.99387-0.307441-0.0626-0.484275-0.48533-1.529661-0.81945-2.026343-0.72234-1.0737798-0.89348-1.7338832-0.87842-3.3881073 0.0306-3.3645193 0.16487-4.3178122 0.86184-6.1207378 0.11154-0.2885491 0.23862-0.8096448 0.28238-1.1579828 0.28716-2.285617 1.72741-3.405816 3.06598-2.384651 0.23482 0.179147 0.86195 0.544064 1.39361 0.810953 1.15296 0.578751 2.3544 1.468344 2.73375 2.0241675 0.1509 0.2211039 0.58092 0.7148389 0.9556 1.097175 0.94673 0.9660989 1.95963 3.3098527 2.27524 5.2647296 0.0621 0.3847321 0.16979 0.8472093 0.23927 1.0277194 0.0695 0.1805101 0.12633 0.5608634 0.12633 0.8452402 0 0.6318474 0.12956 0.6539895 0.4672 0.079866 0.888-1.5100115 2.79228-3.5267154 3.330119-3.5267154 0.04404 0 0.584568-0.3600977 1.201176-0.8002263 1.0406-0.742778 2.396715-1.5068582 3.015265-1.6989213 0.239598-0.074358 0.262978-0.042962 0.270462 0.363609 0.0098 0.5283526 0.194937 1.0810917 0.227255 0.6782246 0.01267-0.1586572 0.05367-0.1120873 0.128092 0.1457273 0.06016 0.208408 0.157962 0.3789074 0.217333 0.3789074 0.05938 0 0.138703 0.1967449 0.17629 0.4371955 0.03759 0.2404645 0.149177 0.7257447 0.247978 1.0784204 0.322528 1.1512495 0.165402 6.226504-0.225586 7.286583-0.16555 0.448859-0.346364 1.105547-0.40181 1.459324-0.09261 0.590965-0.559057 1.445899-1.620902 2.970934-0.0893 0.128198-0.35903 0.524979-0.599414 0.881648-0.815835 1.210487-2.392897 2.5153541-4.276178 3.5381441-1.61768 0.878536-2.05375 1.22003-2.87403 2.250683-0.16926 0.212677-0.37112 0.251425-1.69018 0.324475-1.09604 0.06073-1.82395 0.173515-2.71295 0.420465-1.37968 0.383258-3.13687 0.448459-4.08365 0.151524z" fill="#215400"/>
  </g>
  <g fill="#a84300">
    <path id="rect23" d="m31.981908 52.851251c-0.275345 0-0.550901 0.105786-0.761886 0.316769l-6.147651 6.147652c-0.05707 0.05707-0.106513 0.119118-0.148144 0.184328h14.151546l-6.332666-6.331974c-0.210983-0.210984-0.485858-0.31677-0.761203-0.31677z"/>
    <path id="path24" d="m31.981908 11.148749c-0.275345 0-0.550901-0.105786-0.761886-0.316769l-6.147651-6.147652c-0.05707-0.05707-0.106513-0.119118-0.148144-0.184328h14.151546l-6.332666 6.331974c-0.210983 0.210984-0.485858 0.31677-0.761203 0.31677z"/>
    <path id="path25" d="m52.851251 31.981908c0-0.275345 0.105786-0.550901 0.316769-0.761886l6.147652-6.147651c0.05707-0.05707 0.119118-0.106513 0.184328-0.148144v14.151546l-6.331974-6.332666c-0.210984-0.210983-0.31677-0.485858-0.31677-0.761203z"/>
    <path id="path26" d="m11.148749 31.981908c0-0.275345-0.105786-0.550901-0.316769-0.761886l-6.147652-6.147651c-0.05707-0.05707-0.119118-0.106513-0.184328-0.148144v14.151546l6.331974-6.332666c0.210984-0.210983 0.31677-0.485858 0.31677-0.761203z"/>
  </g>
  <g fill="#d1d1d1">
    <circle id="path27" cx="8.155632" cy="32" r="1.155632"/>
    <circle id="circle27" cx="32" cy="8.155632" r="1.155632"/>
    <circle id="circle28" cx="55.844368" cy="32" r="1.155632"/>
    <circle id="circle29" cx="32" cy="55.844368" r="1.155632"/>
  </g>
</svg>
