<svg id="svg5" version="1.1" viewBox="0 0 64 64" xmlns="http://www.w3.org/2000/svg">
  <defs id="defs3">
    <style id="style1" type="text/css"/>
    <style id="style2" type="text/css"/>
    <filter id="filter1057" x="-.026999999" y="-.026999999" width="1.054" height="1.054" color-interpolation-filters="sRGB">
      <feGaussianBlur id="feGaussianBlur2" stdDeviation="0.61875"/>
    </filter>
    <linearGradient id="linearGradient1053" x1="-127" x2="-72" y1="60" y2="5" gradientTransform="translate(131.5 -.51)" gradientUnits="userSpaceOnUse">
      <stop id="stop2" stop-color="#f0f0f0" offset="0"/>
      <stop id="stop3" stop-color="#ffffff" offset="1"/>
    </linearGradient>
  </defs>
  <rect id="rect3" x="4.5" y="4.5" width="55" height="55" ry="15" fill="#141414" filter="url(#filter1057)" opacity=".3" stroke-linecap="round" stroke-width="2.7444"/>
  <rect id="rect4" x="4.5" y="4.5" width="55" height="55" ry="15" fill="url(#linearGradient1053)" stroke-linecap="round" stroke-width="2.7444"/>
  <circle id="circle4" cx="-1326.3" cy="-1241.6" r="0" fill="#5e4aa6"/>
  <circle id="circle5" cx="-226.72" cy="23.855" r="0" fill="#5e4aa6" fill-rule="evenodd"/>
  <g id="g1" transform="matrix(.50953308 0 0 .50953308 62.979651 17.121635)" stroke-width=".64">
    <path id="path72" class="cls-1" d="m-96.604935 11.240173c2.024697 0.121709 4.055788 0.18384 6.03664 0.184864h1e-3c1.980339-1e-3 4.011174-0.06315 6.035488-0.184864a3.4977728 3.4977728 0 0 0 3.28704-3.312493c0.104832-1.999513 0.158656-4.0136 0.160064-5.988057-0.0014-1.970874-0.05523-3.984455-0.159936-5.984224a3.4982912 3.4982912 0 0 0-3.286797-3.313517c-2.024698-0.121709-4.055789-0.18384-6.037664-0.184864-1.980467 1e-3 -4.011303 0.06315-6.035488 0.184864a3.4980864 3.4980864 0 0 0-3.287181 3.312493c-0.104704 1.998233-0.158531 4.012326-0.159931 5.988057 1e-3 1.973434 0.05522 3.987008 0.159931 5.984224a3.4982912 3.4982912 0 0 0 3.28681 3.313517zm6.037536-3.40864c-1.880999-7.68e-4 -3.811476-0.05906-5.740039-0.173357-0.09869-1.90976-0.149453-3.832825-0.150861-5.715744 0.0014-1.88471 0.05216-3.808 0.150861-5.71856 1.927917-0.114297 3.858266-0.172595 5.73888-0.173357 1.880871 7.68e-4 3.8112 0.05906 5.739655 0.173357 0.09869 1.90976 0.149452 3.832826 0.15086 5.715744-0.0014 1.884711-0.05216 3.808-0.15086 5.71856-1.928301 0.114298-3.858778 0.172595-5.738496 0.173363z" fill="#2d3e50"/>
    <path id="path74" class="cls-2" d="m-84.531399 19.900723c-2.02624-0.121708-4.057325-0.18384-6.037536-0.184608-1.979188 7.68e-4 -4.009895 0.0629-6.035616 0.184608a3.4981312 3.4981312 0 0 0-3.287181 3.312749c-0.104704 1.997978-0.158528 4.012071-0.159938 5.988058 1e-3 1.973689 0.05523 3.987008 0.159938 5.983968a3.498336 3.498336 0 0 0 3.286797 3.313773c2.02624 0.121708 4.057324 0.18384 6.036768 0.184608h7.68e-4c1.979059-7.68e-4 4.009766-0.0629 6.035616-0.184608a3.4978112 3.4978112 0 0 0 3.28704-3.312749c0.104832-1.999514 0.158656-4.0136 0.160064-5.987802-0.0014-1.971129-0.05523-3.98471-0.159936-5.984224a3.498336 3.498336 0 0 0-3.286784-3.313773z" fill="#1d75b8"/>
    <g fill="#2d3e50">
      <path id="path76" class="cls-1" d="m-84.531399 47.159827c-2.024698-0.121708-4.055789-0.18384-6.037664-0.184864-1.980468 1e-3 -4.011303 0.06315-6.035488 0.184864a3.4980864 3.4980864 0 0 0-3.287181 3.312493c-0.104704 1.998234-0.158528 4.012327-0.159938 5.988058 1e-3 1.97343 0.05523 3.987006 0.159938 5.984222a3.4982912 3.4982912 0 0 0 3.286797 3.31352c2.024697 0.1217 4.055788 0.18384 6.03664 0.18486h1e-3c1.980339-8e-4 4.011174-0.0632 6.035488-0.18486a3.4977728 3.4977728 0 0 0 3.28704-3.312496c0.104832-1.999512 0.158656-4.0136 0.160064-5.988056-0.0014-1.970873-0.05523-3.984454-0.159936-5.984224a3.4982912 3.4982912 0 0 0-3.286784-3.313517zm-6.036 15.189661c-1.880999-7.68e-4 -3.811476-0.05904-5.740039-0.17336-0.09869-1.90976-0.149453-3.832824-0.150861-5.715744 0.0014-1.88471 0.05216-3.808 0.150861-5.71856 1.927917-0.114297 3.858266-0.172595 5.73888-0.173357 1.880871 7.68e-4 3.8112 0.05906 5.739655 0.173357 0.09869 1.90976 0.149452 3.832826 0.15086 5.715744-0.0014 1.884712-0.05216 3.808-0.15086 5.71856-1.928301 0.114288-3.858778 0.172592-5.738496 0.173352z"/>
      <rect id="rect78" class="cls-1" x="-68.950279" y="-.022560883" width="47.207699" height="3.9274304"/>
      <rect id="rect80" class="cls-1" x="-68.950279" y="54.495121" width="47.207699" height="3.9274304"/>
    </g>
    <g fill="#1d75b8">
      <path id="path82" class="cls-2" d="m-58.15458 31.163719h-8.755456a1.9644928 1.9644928 0 0 1 0-3.927431h8.755456a1.9644928 1.9644928 0 0 1 0 3.927431z"/>
      <path id="path84" class="cls-2" d="m-40.806139 31.163719h-8.755475a1.9644928 1.9644928 0 0 1 0-3.927431h8.755456a1.9644928 1.9644928 0 0 1 0 3.927431z"/>
      <path id="path86" class="cls-2" d="m-23.45769 31.163719h-8.755585a1.9644928 1.9644928 0 0 1 0-3.927431h8.755585a1.9644928 1.9644928 0 0 1 0 3.927431z"/>
    </g>
  </g>
</svg>
