<svg id="svg44" version="1.1" viewBox="0 0 64 64" xmlns="http://www.w3.org/2000/svg">
  <defs id="defs22">
    <filter id="filter1057" x="-.026999999" y="-.026999999" width="1.054" height="1.054" color-interpolation-filters="sRGB">
      <feGaussianBlur id="feGaussianBlur1059" stdDeviation="0.61875"/>
    </filter>
    <filter id="filter2" x="-.037427331" y="-.037422199" width="1.0748545" height="1.0748389" color-interpolation-filters="sRGB">
      <feGaussianBlur id="feGaussianBlur2" stdDeviation="0.50692797"/>
    </filter>
  </defs>
  <g id="g1" fill="#5e4aa6">
    <g id="g30">
      <circle id="circle24" cx="-1248.7" cy="-1241.6" r="0"/>
      <circle id="circle26" cx="-1140.3" cy="-1301.8" r="0"/>
      <circle id="circle28" cx="-1158.1" cy="-1246" r="0"/>
    </g>
    <circle id="circle36" cx="-1157.3" cy="-1267.7" r="0"/>
    <circle id="circle38" cx="-57.756" cy="-2.1829" r="0" fill-rule="evenodd"/>
  </g>
  <rect id="rect1055" x="4.5" y="4.5" width="55" height="55" ry="15" fill="#141414" filter="url(#filter1057)" opacity=".3" stroke-linecap="round" stroke-width="2.74436"/>
  <rect id="rect1045" x="4.5000019" y="4.5000019" width="54.999996" height="54.999996" ry="14.999999" fill="#33d17a" stroke-linecap="round" stroke-width="2.74436"/>
  <path id="path2" d="m29.740174 54.329413c-0.381811-0.30028-0.421278-0.419535-0.689539-2.082351-0.136022-0.842779-0.278754-1.558587-0.317016-1.590697-0.133142-0.111699-1.992405-0.478785-2.055168-0.405761-0.03414 0.04042-0.462269 0.645071-0.950189 1.343655-0.981585 1.40563-1.159168 1.539474-1.941078 1.46438-0.599385-0.05754-3.187975-1.312201-3.484009-1.688661-0.359288-0.456815-0.347287-0.655038 0.14448-2.370742l0.4671-1.630153-0.214029-0.149905c-0.117826-0.082464-0.478986-0.362553-0.802527-0.622169l-0.588464-0.472195-0.302678 0.15576c-0.166559 0.0856-0.781359 0.426622-1.366317 0.75787-0.585 0.33104-1.197626 0.63113-1.36114 0.666644-0.607696 0.131985-1.051511-0.193397-2.164511-1.587242-1.017902-1.274654-1.164179-1.522711-1.164179-1.974251 0-0.493453 0.08266-0.61556 1.319405-1.948738l0.992937-1.070684-0.442961-0.911561c-0.24378-0.501449-0.454532-0.924791-0.468247-0.940956-0.01424-0.01681-0.766129 0.022-1.671786 0.08174-1.852729 0.124946-2.025978 0.0911-2.401278-0.46623-0.2805118-0.416802-0.7293271-2.282215-0.786437-3.268698-0.043968-0.759518-0.037097-0.790722 0.245455-1.11194 0.2288232-0.260133 0.601634-0.453888 1.751794-0.910493l1.461118-0.579994v-2.031274l-1.461118-0.580005c-1.8062465-0.717056-2.0199328-0.907847-2.0199328-1.804497 0-0.613521 0.3964807-2.567017 0.6492028-3.198652 0.08012-0.200081 0.281025-0.47787 0.44649-0.617151 0.32525-0.273615 0.426363-0.275948 3.06224-0.07355l0.725164 0.05556 0.454174-0.9462 0.453967-0.946199-0.991974-1.069193c-1.234614-1.331046-1.318213-1.454485-1.318213-1.945237 0-0.436386 0.311716-0.945988 1.357098-2.218325 0.979118-1.191849 1.38956-1.471984 1.971592-1.34559 0.163514 0.03508 0.77614 0.335634 1.36114 0.666646 0.584958 0.331262 1.199758 0.672212 1.366317 0.757883l0.302678 0.155791 0.588464-0.472255c0.323541-0.2596 0.684704-0.539604 0.802527-0.622184l0.214029-0.149831-0.4671-1.630254c-0.491767-1.715661-0.503768-1.913884-0.14448-2.370639 0.296034-0.37649 2.884624-1.63108 3.484009-1.688724 0.78191-0.07514 0.959493 0.05873 1.941078 1.464367 0.48792 0.698615 0.915496 1.303286 0.950189 1.343685 0.06203 0.07223 1.921443-0.293553 2.052778-0.403727 0.03684-0.03032 0.179281-0.730919 0.315992-1.555222 0.303909-1.8301927 0.286183-1.773123 0.644621-2.0747914l0.292336-0.2458787h2.01015c2.699549 0 2.570598-0.099746 2.9552 2.2831611 0.135876 0.842796 0.278666 1.55856 0.31684 1.590699 0.132993 0.111406 1.992346 0.478865 2.05368 0.405761 0.03325-0.04042 0.465434-0.64654 0.959005-1.347207 0.988965-1.404107 1.162167-1.534871 1.933854-1.460846 0.599364 0.05758 3.187882 1.312235 3.483931 1.688725 0.359462 0.456755 0.347279 0.654978-0.144479 2.370639l-0.467116 1.630254 0.214168 0.149832c0.117737 0.08262 0.478851 0.362583 0.802446 0.622183l0.588408 0.472256 0.302772-0.155791c0.166501-0.0856 0.781271-0.426621 1.366298-0.757883 0.585131-0.331013 1.197614-0.631161 1.361086-0.666646 0.582021-0.12638 0.992447 0.153741 1.971592 1.34559 1.045437 1.272337 1.357188 1.781939 1.357188 2.218325 0 0.490752-0.08379 0.614191-1.318322 1.945235l-0.991962 1.069193 0.45417 0.946199 0.453978 0.9462 0.725214-0.05557c2.635871-0.202457 2.736952-0.200139 3.062141 0.07355 0.165596 0.139326 0.366442 0.417071 0.446513 0.617152 0.252725 0.631635 0.649217 2.585131 0.649217 3.198652 0 0.895787-0.214124 1.087117-2.019185 1.804649l-1.459506 0.580122-0.0012 1.017877-0.0011 1.017958 1.460667 0.577467c1.151478 0.455329 1.522411 0.647712 1.751837 0.908189 0.282988 0.321296 0.28975 0.352156 0.245754 1.11194-0.05704 0.986482-0.505908 2.851896-0.786338 3.268697-0.375362 0.55748-0.548639 0.591133-2.401275 0.466238-0.905653-0.06091-1.656939-0.09772-1.669345-0.08174-0.01294 0.01681-0.222787 0.439931-0.467366 0.941725l-0.444824 0.912635 0.992228 1.069642c1.235858 1.332318 1.318662 1.454528 1.318662 1.947936 0 0.451541-0.146367 0.699598-1.164241 1.974252-1.113056 1.393845-1.556738 1.719177-2.164541 1.587241-0.163457-0.03507-0.775967-0.335603-1.361082-0.666644-0.585027-0.331248-1.199797-0.672198-1.366299-0.757869l-0.30277-0.155761-0.58841 0.472196c-0.323583 0.259615-0.684738 0.539619-0.802461 0.622169l-0.214137 0.149904 0.467112 1.630153c0.491762 1.715704 0.503914 1.913928 0.144468 2.370742-0.296038 0.37646-2.884582 1.631044-3.483947 1.688662-0.771676 0.07414-0.944862-0.05674-1.933838-1.460828-0.49356-0.700593-0.925012-1.306792-0.95902-1.347207-0.0612-0.07311-1.9206 0.294312-2.05367 0.405759-0.03817 0.03136-0.180913 0.74792-0.316866 1.590698-0.268385 1.662817-0.307843 1.782072-0.689523 2.082352-0.239885 0.188689-0.376931 0.200824-2.259973 0.200824-1.883025 0-2.020067-0.01294-2.259828-0.200824z" fill="#000000" filter="url(#filter2)" opacity=".5" stroke="#000000" stroke-width=".938754"/>
  <path id="path1" d="m29.740174 54.329413c-0.381811-0.30028-0.421278-0.419535-0.689539-2.082351-0.136022-0.842779-0.278754-1.558587-0.317016-1.590697-0.133142-0.111699-1.992405-0.478785-2.055168-0.405761-0.03414 0.04042-0.462269 0.645071-0.950189 1.343655-0.981585 1.40563-1.159168 1.539474-1.941078 1.46438-0.599385-0.05754-3.187975-1.312201-3.484009-1.688661-0.359288-0.456815-0.347287-0.655038 0.14448-2.370742l0.4671-1.630153-0.214029-0.149905c-0.117826-0.082464-0.478986-0.362553-0.802527-0.622169l-0.588464-0.472195-0.302678 0.15576c-0.166559 0.0856-0.781359 0.426622-1.366317 0.75787-0.585 0.33104-1.197626 0.63113-1.36114 0.666644-0.607696 0.131985-1.051511-0.193397-2.164511-1.587242-1.017902-1.274654-1.164179-1.522711-1.164179-1.974251 0-0.493453 0.08266-0.61556 1.319405-1.948738l0.992937-1.070684-0.442961-0.911561c-0.24378-0.501449-0.454532-0.924791-0.468247-0.940956-0.01424-0.01681-0.766129 0.022-1.671786 0.08174-1.852729 0.124946-2.025978 0.0911-2.401278-0.46623-0.2805118-0.416802-0.7293271-2.282215-0.786437-3.268698-0.043968-0.759518-0.037097-0.790722 0.245455-1.11194 0.2288232-0.260133 0.601634-0.453888 1.751794-0.910493l1.461118-0.579994v-2.031274l-1.461118-0.580005c-1.8062465-0.717056-2.0199328-0.907847-2.0199328-1.804497 0-0.613521 0.3964807-2.567017 0.6492028-3.198652 0.08012-0.200081 0.281025-0.47787 0.44649-0.617151 0.32525-0.273615 0.426363-0.275948 3.06224-0.07355l0.725164 0.05556 0.454174-0.9462 0.453967-0.946199-0.991974-1.069193c-1.234614-1.331046-1.318213-1.454485-1.318213-1.945237 0-0.436386 0.311716-0.945988 1.357098-2.218325 0.979118-1.191849 1.38956-1.471984 1.971592-1.34559 0.163514 0.03508 0.77614 0.335634 1.36114 0.666646 0.584958 0.331262 1.199758 0.672212 1.366317 0.757883l0.302678 0.155791 0.588464-0.472255c0.323541-0.2596 0.684704-0.539604 0.802527-0.622184l0.214029-0.149831-0.4671-1.630254c-0.491767-1.715661-0.503768-1.913884-0.14448-2.370639 0.296034-0.37649 2.884624-1.63108 3.484009-1.688724 0.78191-0.07514 0.959493 0.05873 1.941078 1.464367 0.48792 0.698615 0.915496 1.303286 0.950189 1.343685 0.06203 0.07223 1.921443-0.293553 2.052778-0.403727 0.03684-0.03032 0.179281-0.730919 0.315992-1.555222 0.303909-1.8301927 0.286183-1.773123 0.644621-2.0747914l0.292336-0.2458787h2.01015c2.699549 0 2.570598-0.099746 2.9552 2.2831611 0.135876 0.842796 0.278666 1.55856 0.31684 1.590699 0.132993 0.111406 1.992346 0.478865 2.05368 0.405761 0.03325-0.04042 0.465434-0.64654 0.959005-1.347207 0.988965-1.404107 1.162167-1.534871 1.933854-1.460846 0.599364 0.05758 3.187882 1.312235 3.483931 1.688725 0.359462 0.456755 0.347279 0.654978-0.144479 2.370639l-0.467116 1.630254 0.214168 0.149832c0.117737 0.08262 0.478851 0.362583 0.802446 0.622183l0.588408 0.472256 0.302772-0.155791c0.166501-0.0856 0.781271-0.426621 1.366298-0.757883 0.585131-0.331013 1.197614-0.631161 1.361086-0.666646 0.582021-0.12638 0.992447 0.153741 1.971592 1.34559 1.045437 1.272337 1.357188 1.781939 1.357188 2.218325 0 0.490752-0.08379 0.614191-1.318322 1.945235l-0.991962 1.069193 0.45417 0.946199 0.453978 0.9462 0.725214-0.05557c2.635871-0.202457 2.736952-0.200139 3.062141 0.07355 0.165596 0.139326 0.366442 0.417071 0.446513 0.617152 0.252725 0.631635 0.649217 2.585131 0.649217 3.198652 0 0.895787-0.214124 1.087117-2.019185 1.804649l-1.459506 0.580122-0.0012 1.017877-0.0011 1.017958 1.460667 0.577467c1.151478 0.455329 1.522411 0.647712 1.751837 0.908189 0.282988 0.321296 0.28975 0.352156 0.245754 1.11194-0.05704 0.986482-0.505908 2.851896-0.786338 3.268697-0.375362 0.55748-0.548639 0.591133-2.401275 0.466238-0.905653-0.06091-1.656939-0.09772-1.669345-0.08174-0.01294 0.01681-0.222787 0.439931-0.467366 0.941725l-0.444824 0.912635 0.992228 1.069642c1.235858 1.332318 1.318662 1.454528 1.318662 1.947936 0 0.451541-0.146367 0.699598-1.164241 1.974252-1.113056 1.393845-1.556738 1.719177-2.164541 1.587241-0.163457-0.03507-0.775967-0.335603-1.361082-0.666644-0.585027-0.331248-1.199797-0.672198-1.366299-0.757869l-0.30277-0.155761-0.58841 0.472196c-0.323583 0.259615-0.684738 0.539619-0.802461 0.622169l-0.214137 0.149904 0.467112 1.630153c0.491762 1.715704 0.503914 1.913928 0.144468 2.370742-0.296038 0.37646-2.884582 1.631044-3.483947 1.688662-0.771676 0.07414-0.944862-0.05674-1.933838-1.460828-0.49356-0.700593-0.925012-1.306792-0.95902-1.347207-0.0612-0.07311-1.9206 0.294312-2.05367 0.405759-0.03817 0.03136-0.180913 0.74792-0.316866 1.590698-0.268385 1.662817-0.307843 1.782072-0.689523 2.082352-0.239885 0.188689-0.376931 0.200824-2.259973 0.200824-1.883025 0-2.020067-0.01294-2.259828-0.200824z" fill="#33d17a" stroke="#000000" stroke-width=".938754"/>
  <path id="path12" d="M 32,17.385416 A 14.614599,14.614599 0 0 0 17.385418,32 14.614599,14.614599 0 0 0 32,46.614584 14.614599,14.614599 0 0 0 46.614582,32 14.614599,14.614599 0 0 0 32,17.385416 Z m -6.29472,9.754955 A 4.8593667,4.8593667 0 0 1 30.56491,32 4.8593667,4.8593667 0 0 1 25.70528,36.85963 4.8593667,4.8593667 0 0 1 20.845653,32 4.8593667,4.8593667 0 0 1 25.70528,27.140371 Z m 17.449067,0 v 9.718531 L 34.51541,32 Z" fill="#000000" stroke-width=".932443"/>
</svg>
