<svg id="svg44" version="1.1" viewBox="0 0 64 64" xmlns="http://www.w3.org/2000/svg">
  <defs id="defs22">
    <filter id="filter1057" x="-.026999999" y="-.026999999" width="1.054" height="1.054" color-interpolation-filters="sRGB">
      <feGaussianBlur id="feGaussianBlur1059" stdDeviation="0.61875"/>
    </filter>
    <filter id="filter21" x="-.026999984" y="-.027000017" width="1.054" height="1.054" color-interpolation-filters="sRGB">
      <feGaussianBlur id="feGaussianBlur21" stdDeviation="0.5399996"/>
    </filter>
  </defs>
  <g fill="#5e4aa6">
    <g id="g30">
      <circle id="circle24" cx="-1248.7" cy="-1241.6" r="0"/>
      <circle id="circle26" cx="-1140.3" cy="-1301.8" r="0"/>
      <circle id="circle28" cx="-1158.1" cy="-1246" r="0"/>
    </g>
    <circle id="circle36" cx="-1157.3" cy="-1267.7" r="0"/>
    <circle id="circle38" cx="-57.756" cy="-2.1829" r="0" fill-rule="evenodd"/>
  </g>
  <rect id="rect1055" x="4.5" y="4.5" width="55" height="55" ry="15" fill="#141414" filter="url(#filter1057)" opacity=".3" stroke-linecap="round" stroke-width="2.74436"/>
  <rect id="rect1045" x="4.5000019" y="4.5000019" width="54.999996" height="54.999996" ry="14.999999" fill="#33d17a" stroke-linecap="round" stroke-width="2.74436"/>
  <path id="path21" d="m29.592731 55.386006c-0.40672-0.319862-0.44876-0.446905-0.734524-2.218198-0.144888-0.897766-0.29694-1.660271-0.337696-1.694478-0.141824-0.118978-2.122384-0.510012-2.189248-0.432232-0.03632 0.04308-0.492428 0.687162-1.012172 1.431315-1.045624 1.497335-1.234792 1.63991-2.067716 1.559921-0.638488-0.06133-3.395951-1.397813-3.711303-1.798829-0.382728-0.486616-0.369944-0.697772 0.153904-2.52541l0.49758-1.736504-0.228-0.159686c-0.125512-0.08785-0.510232-0.386204-0.854876-0.662753l-0.626864-0.503006-0.322424 0.165926c-0.177424 0.09123-0.832328 0.454449-1.455452 0.807306-0.623168 0.352642-1.275752 0.672305-1.44994 0.710145-0.64734 0.140597-1.120112-0.20602-2.305716-1.690798-1.084312-1.357811-1.240132-1.622048-1.240132-2.103052 0-0.525637 0.08805-0.655716 1.40548-2.075868l1.05772-1.140538-0.47186-0.971024c-0.259684-0.534161-0.484184-0.98513-0.498796-1.002348-0.01516-0.01794-0.816116 0.02346-1.780848 0.08709-1.9736039 0.133084-2.1581559 0.09705-2.5579399-0.496659-0.298812-0.443992-0.7769079-2.431102-0.8377439-3.481946-0.04684-0.809068-0.03952-0.842309 0.261468-1.184479 0.2437519-0.2771 0.6408839-0.483504 1.8660838-0.96989l1.556436-0.617831v-2.163799l-1.556436-0.617845c-1.9240878-0.763839-2.1517158-0.967068-2.1517158-1.922223 0-0.653539 0.4223479-2.734482 0.6915559-3.407324 0.08534-0.213134 0.29936-0.509047 0.47562-0.657417 0.346468-0.291467 0.454176-0.293951 3.2620119-0.07835l0.77248 0.05918 0.4838-1.007929 0.483584-1.007929-1.056684-1.138943c-1.31516-1.417884-1.404216-1.549373-1.404216-2.072143 0-0.464859 0.332056-1.007698 1.445632-2.363041 1.043-1.269605 1.480216-1.568017 2.100216-1.433385 0.174188 0.03741 0.826772 0.357534 1.44994 0.710146 0.623124 0.352872 1.278028 0.716063 1.455452 0.807321l0.322424 0.165957 0.626864-0.503068c0.344644-0.276533 0.729368-0.574807 0.854876-0.662768l0.228-0.15961-0.49758-1.73661c-0.523848-1.827593-0.536632-2.038749-0.153904-2.525303 0.315352-0.401047 3.072815-1.737485 3.711303-1.798891 0.832924-0.080034 1.022092 0.062556 2.067716 1.559906 0.519744 0.744183 0.97522 1.388308 1.012172 1.431345 0.06608 0.07697 2.046796-0.312702 2.186704-0.43007 0.03924-0.03235 0.19098-0.778604 0.336608-1.656684 0.32374-1.949591 0.304852-1.8887986 0.686672-2.2101478l0.311412-0.2619215h2.141292c2.87566 0 2.7383-0.1062528 3.147992 2.4321143 0.144736 0.897781 0.296848 1.66024 0.337512 1.694477 0.141668 0.118672 2.122324 0.510105 2.187656 0.432232 0.0354-0.04308 0.4958-0.688726 1.021572-1.435101 1.053484-1.49571 1.237992-1.6350036 2.060016-1.55615 0.638467 0.061329 3.395855 1.397844 3.711223 1.798891 0.382908 0.486554 0.369936 0.69771-0.153904 2.525303l-0.497596 1.73661 0.228144 0.15961c0.12542 0.08801 0.510092 0.386235 0.854792 0.662768l0.6268 0.503068 0.322528-0.165957c0.177364-0.09123 0.832236-0.454449 1.455432-0.807321 0.623304-0.352612 1.27574-0.672336 1.449884-0.710146 0.619988-0.134617 1.057188 0.16378 2.100216 1.433385 1.113643 1.355343 1.445725 1.898182 1.445725 2.363041 0 0.52277-0.08923 0.654259-1.404329 2.072143l-1.056672 1.138943 0.483796 1.007929 0.483596 1.007929 0.772532-0.05918c2.807831-0.215664 2.915509-0.213195 3.261912 0.07835 0.176397 0.148416 0.390344 0.444283 0.475638 0.657417 0.269219 0.672842 0.691577 2.753785 0.691577 3.407324 0 0.954235-0.228098 1.158047-2.150919 1.922392l-1.554724 0.617967-0.0012 1.084284-0.0012 1.08436 1.555966 0.615147c1.226597 0.485036 1.621726 0.689968 1.866122 0.967436 0.301448 0.342262 0.308655 0.375135 0.261784 1.184479-0.06072 1.050844-0.538915 3.037954-0.837633 3.481946-0.399851 0.59385-0.584436 0.629697-2.557931 0.496659-0.964738-0.06486-1.765036-0.104106-1.778252-0.08709-0.0138 0.01794-0.237328 0.468632-0.497856 1.003161l-0.473844 0.972174 1.05696 1.139433c1.316477 1.419233 1.404684 1.549419 1.404684 2.07501 0 0.481004-0.155914 0.745241-1.240196 2.103052-1.185664 1.484778-1.658296 1.831334-2.305748 1.690798-0.174128-0.03741-0.826592-0.357503-1.44988-0.710145-0.623196-0.352857-1.278068-0.716048-1.455432-0.807306l-0.322532-0.165926-0.626796 0.503006c-0.344688 0.276549-0.729404 0.574823-0.854808 0.662753l-0.228112 0.159686 0.497592 1.736504c0.523844 1.827638 0.536784 2.038794 0.153892 2.52541-0.315356 0.401016-3.072772 1.737454-3.711239 1.798829-0.822024 0.07896-1.006504-0.06041-2.06-1.556134-0.52576-0.746299-0.98536-1.392049-1.021588-1.435102-0.06516-0.07789-2.045896 0.313515-2.187644 0.432232-0.04063 0.03342-0.192724 0.796712-0.33754 1.694478-0.2859 1.771293-0.327924 1.898336-0.734508 2.218198-0.25554 0.201006-0.40152 0.213931-2.407412 0.213931-2.005876 0-2.151856-0.0138-2.40726-0.213931z" fill="#222222" filter="url(#filter21)"/>
  <path id="path1" d="m29.592731 55.386006c-0.40672-0.319862-0.44876-0.446905-0.734524-2.218198-0.144888-0.897766-0.29694-1.660271-0.337696-1.694478-0.141824-0.118978-2.122384-0.510012-2.189248-0.432232-0.03632 0.04308-0.492428 0.687162-1.012172 1.431315-1.045624 1.497335-1.234792 1.63991-2.067716 1.559921-0.638488-0.06133-3.395951-1.397813-3.711303-1.798829-0.382728-0.486616-0.369944-0.697772 0.153904-2.52541l0.49758-1.736504-0.228-0.159686c-0.125512-0.08785-0.510232-0.386204-0.854876-0.662753l-0.626864-0.503006-0.322424 0.165926c-0.177424 0.09123-0.832328 0.454449-1.455452 0.807306-0.623168 0.352642-1.275752 0.672305-1.44994 0.710145-0.64734 0.140597-1.120112-0.20602-2.305716-1.690798-1.084312-1.357811-1.240132-1.622048-1.240132-2.103052 0-0.525637 0.08805-0.655716 1.40548-2.075868l1.05772-1.140538-0.47186-0.971024c-0.259684-0.534161-0.484184-0.98513-0.498796-1.002348-0.01516-0.01794-0.816116 0.02346-1.780848 0.08709-1.9736039 0.133084-2.1581559 0.09705-2.5579399-0.496659-0.298812-0.443992-0.7769079-2.431102-0.8377439-3.481946-0.04684-0.809068-0.03952-0.842309 0.261468-1.184479 0.2437519-0.2771 0.6408839-0.483504 1.8660838-0.96989l1.556436-0.617831v-2.163799l-1.556436-0.617845c-1.9240878-0.763839-2.1517158-0.967068-2.1517158-1.922223 0-0.653539 0.4223479-2.734482 0.6915559-3.407324 0.08534-0.213134 0.29936-0.509047 0.47562-0.657417 0.346468-0.291467 0.454176-0.293951 3.2620119-0.07835l0.77248 0.05918 0.4838-1.007929 0.483584-1.007929-1.056684-1.138943c-1.31516-1.417884-1.404216-1.549373-1.404216-2.072143 0-0.464859 0.332056-1.007698 1.445632-2.363041 1.043-1.269605 1.480216-1.568017 2.100216-1.433385 0.174188 0.03741 0.826772 0.357534 1.44994 0.710146 0.623124 0.352872 1.278028 0.716063 1.455452 0.807321l0.322424 0.165957 0.626864-0.503068c0.344644-0.276533 0.729368-0.574807 0.854876-0.662768l0.228-0.15961-0.49758-1.73661c-0.523848-1.827593-0.536632-2.038749-0.153904-2.525303 0.315352-0.401047 3.072815-1.737485 3.711303-1.798891 0.832924-0.080034 1.022092 0.062556 2.067716 1.559906 0.519744 0.744183 0.97522 1.388308 1.012172 1.431345 0.06608 0.07697 2.046796-0.312702 2.186704-0.43007 0.03924-0.03235 0.19098-0.778604 0.336608-1.656684 0.32374-1.949591 0.304852-1.8887986 0.686672-2.2101478l0.311412-0.2619215h2.141292c2.87566 0 2.7383-0.1062528 3.147992 2.4321143 0.144736 0.897781 0.296848 1.66024 0.337512 1.694477 0.141668 0.118672 2.122324 0.510105 2.187656 0.432232 0.0354-0.04308 0.4958-0.688726 1.021572-1.435101 1.053484-1.49571 1.237992-1.6350036 2.060016-1.55615 0.638467 0.061329 3.395855 1.397844 3.711223 1.798891 0.382908 0.486554 0.369936 0.69771-0.153904 2.525303l-0.497596 1.73661 0.228144 0.15961c0.12542 0.08801 0.510092 0.386235 0.854792 0.662768l0.6268 0.503068 0.322528-0.165957c0.177364-0.09123 0.832236-0.454449 1.455432-0.807321 0.623304-0.352612 1.27574-0.672336 1.449884-0.710146 0.619988-0.134617 1.057188 0.16378 2.100216 1.433385 1.113643 1.355343 1.445725 1.898182 1.445725 2.363041 0 0.52277-0.08923 0.654259-1.404329 2.072143l-1.056672 1.138943 0.483796 1.007929 0.483596 1.007929 0.772532-0.05918c2.807831-0.215664 2.915509-0.213195 3.261912 0.07835 0.176397 0.148416 0.390344 0.444283 0.475638 0.657417 0.269219 0.672842 0.691577 2.753785 0.691577 3.407324 0 0.954235-0.228098 1.158047-2.150919 1.922392l-1.554724 0.617967-0.0012 1.084284-0.0012 1.08436 1.555966 0.615147c1.226597 0.485036 1.621726 0.689968 1.866122 0.967436 0.301448 0.342262 0.308655 0.375135 0.261784 1.184479-0.06072 1.050844-0.538915 3.037954-0.837633 3.481946-0.399851 0.59385-0.584436 0.629697-2.557931 0.496659-0.964738-0.06486-1.765036-0.104106-1.778252-0.08709-0.0138 0.01794-0.237328 0.468632-0.497856 1.003161l-0.473844 0.972174 1.05696 1.139433c1.316477 1.419233 1.404684 1.549419 1.404684 2.07501 0 0.481004-0.155914 0.745241-1.240196 2.103052-1.185664 1.484778-1.658296 1.831334-2.305748 1.690798-0.174128-0.03741-0.826592-0.357503-1.44988-0.710145-0.623196-0.352857-1.278068-0.716048-1.455432-0.807306l-0.322532-0.165926-0.626796 0.503006c-0.344688 0.276549-0.729404 0.574823-0.854808 0.662753l-0.228112 0.159686 0.497592 1.736504c0.523844 1.827638 0.536784 2.038794 0.153892 2.52541-0.315356 0.401016-3.072772 1.737454-3.711239 1.798829-0.822024 0.07896-1.006504-0.06041-2.06-1.556134-0.52576-0.746299-0.98536-1.392049-1.021588-1.435102-0.06516-0.07789-2.045896 0.313515-2.187644 0.432232-0.04063 0.03342-0.192724 0.796712-0.33754 1.694478-0.2859 1.771293-0.327924 1.898336-0.734508 2.218198-0.25554 0.201006-0.40152 0.213931-2.407412 0.213931-2.005876 0-2.151856-0.0138-2.40726-0.213931z" fill="#33d17a"/>
  <path id="path12" d="m31.999995 15.926563a15.673452 15.673452 0 0 0-15.673435 15.673437 15.673452 15.673452 0 0 0 15.673435 15.673437 15.673452 15.673452 0 0 0 15.673435-15.673437 15.673452 15.673452 0 0 0-15.673435-15.673437zm-6.750784 10.461719a5.2114365 5.2114365 0 0 1 5.21172 5.211718 5.2114365 5.2114365 0 0 1-5.21172 5.211719 5.2114365 5.2114365 0 0 1-5.211715-5.211719 5.2114365 5.2114365 0 0 1 5.211715-5.211718zm18.713283 0v10.422656l-9.264843-5.210938z" fill="#000000"/>
</svg>
