<svg id="svg290" version="1.1" viewBox="0 0 64 64" xmlns="http://www.w3.org/2000/svg" xmlns:xlink="http://www.w3.org/1999/xlink">
    <defs id="defs278">
        <linearGradient id="linearGradient6786">
            <stop id="stop6782" stop-color="#31c6a1" offset="0"/>
            <stop id="stop6845" stop-color="#58d5b8" offset=".40000001"/>
            <stop id="stop6847" stop-color="#31c6a1" offset=".60000002"/>
            <stop id="stop6849" stop-color="#02ab90" offset=".875"/>
            <stop id="stop6784" stop-color="#068677" offset="1"/>
        </linearGradient>
        <style id="style266" type="text/css"/>
        <style id="style268" type="text/css"/>
        <filter id="filter1057" x="-.026999999" y="-.026999999" width="1.054" height="1.054" color-interpolation-filters="sRGB">
            <feGaussianBlur id="feGaussianBlur270" stdDeviation="0.61875"/>
        </filter>
        <linearGradient id="linearGradient6788" x1="261.65601" x2="331.6525" y1="66.580498" y2="136.5775" gradientUnits="userSpaceOnUse" xlink:href="#linearGradient6786"/>
        <linearGradient id="linearGradient6790" x1="21.837061" x2="21.940224" y1="-54.658165" y2="-61.233894" gradientUnits="userSpaceOnUse" xlink:href="#linearGradient6786"/>
        <filter id="filter891" x="-.07919481" y="-.016274192" width="1.1583896" height="1.0325484" color-interpolation-filters="sRGB">
            <feGaussianBlur id="feGaussianBlur893" stdDeviation="0.085940189"/>
        </filter>
    </defs>
    <rect id="rect280" x="4.5" y="4.5" width="55" height="55" ry="15" fill="#141414" filter="url(#filter1057)" opacity=".3" stroke-linecap="round" stroke-width="2.7444"/>
    <path id="path335" d="m59.904573 27.425024c-0.689505-0.539581-1.019144-1.409629-0.860277-2.270621l1.555619-8.42829c0.03663-0.198204-0.0061-0.398745-0.120416-0.564705-0.114242-0.165962-0.286345-0.277496-0.484457-0.314109l-0.629881-0.116259 0.180758-0.979853 0.629881 0.116259c0.459947 0.08485 0.8593 0.343743 1.124475 0.72896 0.265211 0.385272 0.364452 0.85068 0.279514 1.310611l-1.555565 8.428253c-0.09133 0.494814 0.09815 0.994886 0.494393 1.305037z" filter="url(#filter891)" opacity=".3" stroke-width=".0664296"/>
    <path id="path6279" d="m59.904573 27.425024c-0.689505-0.539581-1.019144-1.409629-0.860277-2.270621l1.555619-8.42829c0.03663-0.198204-0.0061-0.398745-0.120416-0.564705-0.114242-0.165962-0.286345-0.277496-0.484457-0.314109l-0.629881-0.116259 0.180758-0.979853 0.629881 0.116259c0.459947 0.08485 0.8593 0.343743 1.124475 0.72896 0.265211 0.385272 0.364452 0.85068 0.279514 1.310611l-1.555565 8.428253c-0.09133 0.494814 0.09815 0.994886 0.494393 1.305037z" fill="#c0bfbc" stroke-width=".0664296"/>
    <rect id="rect282" x="4.5" y="4.5" width="55" height="55" ry="15" fill="#f3ffe0" stroke-linecap="round" stroke-width="2.7444"/>
    <circle id="circle284" cx="-1326.3" cy="-1241.6" r="0" fill="#5e4aa6"/>
    <circle id="circle286" cx="-226.72" cy="23.855" r="0" fill="#5e4aa6" fill-rule="evenodd"/>
    <g id="g26" stroke-width=".572917">
        <path id="path2997" d="m4.5 22.833984v9.166016h6.875v-9.166016h-6.875z" fill="#51dcab"/>
        <path id="path3001" d="m11.375 6.8886719c-2.1707084 1.3976115-3.9531389 3.3349191-5.1582031 5.6328121h5.1582031v-5.6328121z" fill="#8aefbc"/>
        <path id="path3015" d="m4.5 21.6875v1.146484h6.875v-1.146484h-6.875z" fill="#8aefbc"/>
        <path id="path3027" d="m4.5 32v9.166016h6.875v-9.166016h-6.875z" fill="#31c6a1"/>
        <path id="path3013" d="m4.5 41.166016v3.333984c0 2.071595 0.4169638 4.042286 1.1699219 5.833984h5.7050781v-9.167968h-6.875z" fill="#02ab90"/>
        <path id="path3029" d="m5.6699219 50.333984c1.1765622 2.799685 3.1814941 5.152533 5.7050781 6.777344v-6.777344h-5.7050781z" fill="#068677"/>
    </g>
    <g id="g6277" transform="matrix(1.2098001,0,0,1.2098001,312.71878,16.008268)">
        <path id="path3810" d="m-244.88416 2.024823v4h1v-1h2v-3zm4 0v4h1v-1h1v1h1v-4zm4 0v4h1v-1h2v-3zm4 0v4h3v-1h-2v-0.5h1.5v-1h-1.5v-0.5h2v-1zm4 0v4h1v-1h1v-1h-1v-1h1v1h1v-2zm2 3v1h1v-1zm-17-2h1v1h-1zm4 0h1v1h-1zm4 0h1v1h-1z" fill-opacity=".996"/>
        <circle id="circle3812" cx="-243.88416" cy="25.024822" r="1" fill="#a5d6a7"/>
        <circle id="circle3814" cx="-243.88416" cy="30.024822" r="1" fill="#a5d6a7"/>
        <g id="g36" fill="#00796b">
            <rect id="rect3816" x="-239.88416" y="24.024822" width="13.182" height="2" rx="1"/>
            <rect id="rect3818" x="-239.88416" y="29.024822" width="7.9089999" height="2" rx="1"/>
            <rect id="rect3820" x="-244.88416" y="19.024822" width="10" height="2" rx="1"/>
            <rect id="rect3822" x="-244.88416" y="9.0248232" width="29" height="2" rx="1"/>
            <rect id="rect3824" x="-244.88416" y="14.024823" width="29" height="2" rx="1"/>
        </g>
    </g>
    <path id="rect9420" d="M 19.5,4.5 C 13.714285,4.5 8.720836,7.7467151 6.2167972,12.521484 H 57.781251 C 55.277212,7.7467151 50.285715,4.5 44.5,4.5 Z" fill="#00bfa5"/>
    <path id="path9592" d="m6.2167972 12.521484c-0.1756903 0.324079-0.3896785 0.790901-0.541641 1.128985l52.497696-0.128985c-0.151962-0.338084-0.304778-0.675921-0.480469-1z" color="#000000" fill-opacity=".1"/>
    <path id="path6281" d="m53.862993 13.701996 0.218363-1.183084c0.119123-0.645402 0.738853-1.071444 1.384255-0.952321l2.562116 0.472892c0.645402 0.119123 1.07221 0.738326 0.953087 1.383728l-0.218363 1.183083z" fill="#c0bfbc" stroke-width=".0664295"/>
    <g id="g8975">
        <rect id="rect6283" transform="rotate(100.45746)" x="15.569096" y="-61.233894" width="12.742254" height="6.5757279" fill="url(#linearGradient6790)" stroke-width=".0664289"/>
        <g id="g46">
            <rect id="rect6285" transform="rotate(100.45746)" x="13.944792" y="-61.233894" width="1.624186" height="6.5757279" fill="#c0bfbc" stroke-width=".0664289"/>
            <polygon id="polygon6287" transform="matrix(.05471835 -.03766673 .03766673 .05471835 35.323868 24.808094)" points="277.117 191.113 207.12 121.116 316.192 12.045 324.677 20.531 377.71 73.564 386.188 82.042" fill="url(#linearGradient6788)"/>
            <path id="path6289" d="m48.61154 37.761909 6.466679 1.193563c-0.496526 2.690161-2.150232 5.025495-4.522013 6.387275-1.730024-2.118855-2.441137-4.890714-1.944666-7.580838z" fill="#c0bfbc" stroke-width=".0664295"/>
        </g>
        <path id="path6296" d="m50.73454 46.316465c-0.105004 0.07228-0.237636 0.10455-0.372925 0.07953-0.270596-0.04995-0.449438-0.309747-0.399494-0.580343l0.211488-1.146092 0.979836 0.18085-0.211488 1.146091c-0.02497 0.135253-0.102363 0.247644-0.207417 0.319963z" fill="#008db3" stroke-width=".0664296"/>
    </g>
    <path id="path1631" d="m19.5 4.5c-3.058017 0-5.893158 0.911456-8.259766 2.4707031 2.150204-0.7715968 4.560699-1.2089843 7.117188-1.2089843h27.287109c2.555418 0 4.96432 0.4360429 7.113281 1.2070312-2.366159-1.5583442-5.200758-2.46875-8.257812-2.46875h-25z" fill="#fff" fill-opacity=".2" stroke-width=".862723"/>
</svg>
