<svg id="svg8" width="64" height="64" version="1.1" viewBox="0 0 16.933333 16.933334" xmlns="http://www.w3.org/2000/svg">
  <defs id="defs2">
    <filter id="filter1057" x="-.026999999" y="-.026999999" width="1.054" height="1.054" color-interpolation-filters="sRGB">
      <feGaussianBlur id="feGaussianBlur1059" stdDeviation="0.61875"/>
    </filter>
    <linearGradient id="linearGradient15870" x1="1.1906254" x2="15.742707" y1="15.742707" y2="1.1906255" gradientUnits="userSpaceOnUse">
      <stop id="stop15864" stop-color="#8937fb" offset="0"/>
      <stop id="stop15866" stop-color="#e01d85" offset="1"/>
    </linearGradient>
    <linearGradient id="linearGradient20241" x1="2.8414917" x2="14.091842" y1="8.4226438" y2="8.4226438" gradientUnits="userSpaceOnUse">
      <stop id="stop20235" stop-color="#e4e7e7" offset="0"/>
      <stop id="stop20243" stop-color="#ffffff" stop-opacity=".49803922" offset=".5"/>
      <stop id="stop20237" stop-color="#e3e8e8" offset="1"/>
    </linearGradient>
  </defs>
  <g id="layer1">
    <rect id="rect1055" transform="scale(.26458333)" x="4.5" y="4.5" width="55" height="55" ry="15" fill="#141414" filter="url(#filter1057)" opacity=".3" stroke-linecap="round" stroke-width="2.74436"/>
    <rect id="rect1045" x="1.1906254" y="1.1906255" width="14.552082" height="14.552082" ry="3.9687498" fill="url(#linearGradient15870)" stroke-linecap="round" stroke-width=".726112"/>
    <g id="g20251" transform="matrix(1.0909091 0 0 1.0909091 -.76969703 -.76969703)" stroke-width=".0978291">
      <path id="path14570" class="cls-1" d="m2.6458333 5.0622233v6.8088867s4.3631807-0.293522 5.8208334-0.293522c1.4576525 0 5.8208333 0.293522 5.8208333 0.293522v-6.8088867s-4.3631808 0.1958537-5.8208333 0.1958537c-1.4576527 0-5.8208334-0.1958537-5.8208334-0.1958537zm1.3229167 2.0737752h0.686263v2.6613363h-0.686263zm1.3580566 0h1.1389486c0.3387156 0 0.5986798 0.075433 0.7797974 0.225826 0.1812831 0.150393 0.271818 0.3643264 0.271818 0.6423381 0 0.279171-0.090535 0.4940121-0.271818 0.6444051-0.1811176 0.150393-0.4410818 0.2253093-0.7797974 0.2253093h-0.4526855v0.9234578h-0.6862631zm2.3579956 0h2.4530798v0.5188314h-0.882633v2.1425049h-0.686263v-2.1425049h-0.8841838zm2.4902878 0h0.689363l0.706417 1.9642212 0.703833-1.9642212h0.68988l-0.985986 2.6613363h-0.818038zm-4.1620203 0.4976441v0.7431071h0.379305c0.1331672 0 0.2360447-0.03239 0.3085083-0.097152 0.0723809-0.0646787 0.1085205-0.1565949 0.1085205-0.2754351 0-0.1187575-0.0361395-0.2103026-0.1085205-0.2744019-0.0724636-0.0642648-0.1753411-0.0961181-0.3085083-0.0961181z" fill="#ffffff"/>
      <path id="path14572" class="cls-2" d="m2.841687 5.2286214v6.3882406s4.2064587-0.293522 5.6249797-0.293522c1.4185208 0 5.6249793 0.293522 5.6249793 0.293522v-6.3882406s-4.2162413 0.2935222-5.6249793 0.2935222c-1.4087381 0-5.6249797-0.2935222-5.6249797-0.2935222zm1.127063 1.9073771h0.686263v2.6613363h-0.686263zm1.3580566 0h1.1389486c0.3387156 0 0.5986798 0.075433 0.7797974 0.225826 0.1812831 0.150393 0.271818 0.3643264 0.271818 0.6423381 0 0.279171-0.090535 0.4940121-0.271818 0.6444051-0.1811176 0.150393-0.4410818 0.2253093-0.7797974 0.2253093h-0.4526855v0.9234578h-0.6862631zm2.3579956 0h2.4530798v0.5188314h-0.882633v2.1425049h-0.686263v-2.1425049h-0.8841838zm2.4902878 0h0.689363l0.706417 1.9642212 0.703833-1.9642212h0.68988l-0.985986 2.6613363h-0.818038zm-4.1620203 0.4976441v0.7431071h0.379305c0.1331672 0 0.2360447-0.03239 0.3085083-0.097152 0.0723809-0.0646787 0.1085205-0.1565949 0.1085205-0.2754351 0-0.1187575-0.0361395-0.2103026-0.1085205-0.2744019-0.0724636-0.0642648-0.1753411-0.0961181-0.3085083-0.0961181z" fill="url(#linearGradient20241)"/>
    </g>
  </g>
</svg>
