<svg id="svg44" version="1.1" viewBox="0 0 64 64" xmlns="http://www.w3.org/2000/svg" xmlns:xlink="http://www.w3.org/1999/xlink">
  <defs id="defs22">
    <filter id="filter1057" x="-.026999999" y="-.026999999" width="1.054" height="1.054" color-interpolation-filters="sRGB">
      <feGaussianBlur id="feGaussianBlur1059" stdDeviation="0.61875"/>
    </filter>
    <linearGradient id="linearGradient4828" x1="63.977543" x2="63.991207" y1="37.38036" y2="6.4651842" gradientTransform="translate(-354.04297,-26.125341)" gradientUnits="userSpaceOnUse">
      <stop id="stop4822" stop-color="#a7aaac" offset="0"/>
      <stop id="stop4824" stop-color="#c2c5c7" offset="1"/>
    </linearGradient>
    <linearGradient id="linearGradient4199" x1="39.50985" x2="88.451172" y1="20.251953" y2="20.251953" gradientTransform="translate(-354.04297,-26.125341)" gradientUnits="userSpaceOnUse" xlink:href="#linearGradient9163">
      <stop id="stop41" stop-color="#2e4a5a" offset="0"/>
      <stop id="stop43" stop-color="rgb(240, 240, 241)" offset=".0427581"/>
      <stop id="stop45" stop-color="#2e4a5a" offset=".08955724"/>
      <stop id="stop47" stop-color="#2e4a5a" offset=".207"/>
      <stop id="stop49" stop-color="#2e4a5a" offset=".90799999"/>
      <stop id="stop51" stop-color="rgb(240, 240, 241)" offset=".95360261"/>
      <stop id="stop53" stop-color="#2e4a5a" offset="1"/>
    </linearGradient>
    <clipPath id="clip1">
      <rect id="rect27" width="128" height="128"/>
    </clipPath>
    <clipPath id="clip2">
      <path id="path38-3" d="m21.945312 37h84.105468v52h-84.105468z"/>
    </clipPath>
    <linearGradient id="linearGradient9165" x1="-.040162001" x2="-.040162001" y1=".99435699" y2=".0054060002" gradientTransform="matrix(0,51.477591,-84.082726,0,106.03078,37.350773)" gradientUnits="userSpaceOnUse">
      <stop id="stop9530" stop-color="#2e4a5a" offset="0"/>
      <stop id="stop9532" stop-color="rgb(240, 240, 241)" offset=".019"/>
      <stop id="stop9534" stop-color="#2e4a5a" offset=".055"/>
      <stop id="stop9536" stop-color="#2e4a5a" offset=".207"/>
      <stop id="stop9538" stop-color="#2e4a5a" offset=".90799999"/>
      <stop id="stop9540" stop-color="rgb(240, 240, 241)" offset=".986"/>
      <stop id="stop9542" stop-color="#2e4a5a" offset="1"/>
    </linearGradient>
    <clipPath id="clip7">
      <path id="path56" d="m21.945312 40.488281h84.105468v52.367188h-84.105468z"/>
    </clipPath>
    <clipPath id="clip8">
      <path id="path59" d="m106.05078 49.59375c0.0781-2.34375-1.22265-4.605469-3.61328-6.28125-2.39062-1.675781-5.664062-2.617188-9.085938-2.617188h-13.480468c-5.285156 0-10.574219 0.0039-15.859375 0h-13.089844c-5.414063 0-10.832031 0.0039-16.246094 0-1.289062-0.01953-2.550781 0.121094-3.753906 0.386719-0.01172 0-0.01953 0.0039-0.03516 0.0078-0.332031 0.07422-0.664063 0.152344-0.992188 0.246094-0.28125 0.08203-0.5625 0.171874-0.839843 0.265624-0.02734 0.0078-0.05469 0.02344-0.08984 0.02734-0.128906 0.04297-0.253906 0.08594-0.382813 0.132813-0.742187 0.273437-1.445312 0.601562-2.097656 0.976562-1.039063 0.605469-1.925781 1.316407-2.636719 2.117188-0.191406 0.207048-0.367187 0.425798-0.535156 0.644548-0.707031 0.941406-1.152344 1.976562-1.273438 3.054688-0.0039 0.03125-0.01172 0.06641-0.01562 0.101562-0.01563 0.132812-0.02734 0.265625-0.03125 0.398438-0.01563 0.195312-0.02734 0.386718-0.01953 0.582031 0.0039 0.01172 0.0039 0.02734 0.0078 0.03906 0.01172 0.246094 0.03516 0.488281 0.08594 0.730469 0.199219 1.175781 0.746094 2.304688 1.605469 3.328125l0.121094 0.144531c0.246093 0.316406 0.511719 0.636719 0.792969 0.941406l13.753906 16.300782 14.671875 17.386718c2.402343 2.847657 6.949219 4.523438 11.75 4.332032 1.613281-0.05469 3.210937-0.3125 4.691406-0.816406 1.222656-0.363282 2.28125-0.890626 3.222656-1.503907 0.03906-0.02734 0.08203-0.05469 0.121094-0.08203 0.207031-0.140625 0.414063-0.28125 0.605469-0.433594 0.160156-0.121094 0.316406-0.246094 0.46875-0.375 0.109375-0.09375 0.21875-0.1875 0.328125-0.285156 0.08984-0.08203 0.179687-0.164062 0.265625-0.25 0.562504-0.531249 1.06641-1.093749 1.507816-1.671874 0.027344-0.042969 0.050782-0.089844 0.074219-0.132813l28.304685-33.554687c1.0625-1.261719 1.64453-2.6875 1.69922-4.140625z"/>
    </clipPath>
    <linearGradient id="gradient-0" x1="63.935001" x2="63.935001" y1="33.574001" y2="97.82" gradientUnits="userSpaceOnUse">
      <stop id="stop62" stop-color="#b8b8b8" offset="0"/>
      <stop id="stop64" stop-color="#2e4a5a" offset="1"/>
    </linearGradient>
    <radialGradient id="radial1" cx="64" cy="85.972267" r="52.956207" gradientTransform="matrix(1 0 0 .758736 -354.04297 -8.289497)" gradientUnits="userSpaceOnUse">
      <stop id="stop7-5" stop-color="rgb(75.686276%,75.686276%,75.686276%)" offset="0"/>
      <stop id="stop9-6" stop-color="rgb(65.490198%,65.490198%,65.490198%)" offset="1"/>
    </radialGradient>
    <radialGradient id="radial0" cx="63.999996" cy="89.047478" r="52.956203" gradientTransform="matrix(1.000001 0 0 .796791 -354.04305 -11.996218)" gradientUnits="userSpaceOnUse">
      <stop id="stop2-2" stop-color="rgb(69.803923%,69.803923%,69.803923%)" offset=".4535"/>
      <stop id="stop2177" stop-color="#cfcfcf" offset=".75652176"/>
      <stop id="stop4-9" stop-color="#8b8b8b" offset=".9130435"/>
    </radialGradient>
    <linearGradient id="linearGradient44" x1="4.5000019" x2="59.5" y1="59.5" y2="4.5" gradientUnits="userSpaceOnUse">
      <stop id="stop42" stop-color="#d8e4ee" offset="0"/>
      <stop id="stop44" stop-color="#eaf0f6" offset="1"/>
    </linearGradient>
    <radialGradient id="radialGradient62" cx="64" cy="85.972267" r="52.956207" gradientTransform="matrix(.38662285 0 0 .29334467 7.2568962 7.1873571)" gradientUnits="userSpaceOnUse">
      <stop id="stop68" stop-color="rgb(75.686276%,75.686276%,75.686276%)" offset="0"/>
      <stop id="stop69" stop-color="#222222" offset="1"/>
    </radialGradient>
    <filter id="filter69" x="-.080029573" y="-.070565227" width="1.1600591" height="1.1411305" color-interpolation-filters="sRGB">
      <feGaussianBlur id="feGaussianBlur69" stdDeviation="1.3654785"/>
    </filter>
  </defs>
  <g fill="#5e4aa6">
    <g id="g30">
      <circle id="circle24" cx="-1248.7" cy="-1241.6" r="0"/>
      <circle id="circle26" cx="-1140.3" cy="-1301.8" r="0"/>
      <circle id="circle28" cx="-1158.1" cy="-1246" r="0"/>
    </g>
    <circle id="circle36" cx="-1157.3" cy="-1267.7" r="0"/>
    <circle id="circle38" cx="-57.756" cy="-2.1829" r="0" fill-rule="evenodd"/>
  </g>
  <rect id="rect1055" x="4.5" y="4.5" width="55" height="55" ry="15" fill="#141414" filter="url(#filter1057)" opacity=".3" stroke-linecap="round" stroke-width="2.74436"/>
  <rect id="rect1045" x="4.5000019" y="4.5000019" width="54.999996" height="54.999996" ry="14.999999" fill="url(#linearGradient44)" stroke-linecap="round" stroke-width="2.74436"/>
  <path id="path45" d="m24.719498 1.5003889c-1.207419 0-2.1875 1.5904055-2.1875 3.5507813v7.7324218c0 0.198124-1.1e-4 0.375406 0 0.535156-2.644882 0.108533-5.051798 1.276495-6.378906 3.109376-1.35984 1.883083-1.381396 4.189933-0.06641 6.083984l-0.513672 0.388672c1.271625 2.02977 2.345417 3.15115 1.445312 4.798828-0.900108 1.646168-2.702765 1.861622-5.492187 2.615234v4.183594c2.784891 0.750592 4.592079 0.970578 5.492187 2.615234 0.904636 1.65976-0.194831 2.80184-1.445312 4.796876l0.533203 0.404296 3.365234 2.556641c2.665583-0.962025 4.154442-1.781796 6.326172-1.097656 2.167202 0.681121 2.451573 2.044567 3.445313 4.167969h5.515625c0.992229-2.117363 1.279699-3.483203 3.458984-4.171876 2.152102-0.678097 3.617336 0.132432 6.308594 1.103516l3.90039-2.960937c-1.270118-2.023727-2.345862-3.149641-1.447265-4.798829 0.898597-1.644657 2.70969-1.863131 5.496093-2.615234v-4.183594c-2.816604-0.759653-4.59661-0.973154-5.492187-2.613281v-2e-3c-0.898593-1.64461 0.170672-2.762971 1.445317-4.798781l-0.570313-0.433594c0.608719-0.877284 0.940582-1.859815 0.966797-2.863281 0.0438-1.670332-0.763216-3.284979-2.240234-4.476563-1.362645-1.100436-3.191289-1.756532-5.121094-1.845703v-6.8496094c0-0.11715-0.0033-0.2333305-0.0098-0.3476563v-1.0332031c0-1.9603758-0.980507-3.5507813-2.189453-3.5507813z" fill="url(#radialGradient62)" filter="url(#filter69)" opacity=".5"/>
  <g id="g41" transform="matrix(.38662285 0 0 .38662285 144.13724 10.392326)">
    <path id="path122" d="m-237.08594 64.636378v-11.363281c-7.28515-2.0625-11.89062-2.644532-14.20703-7.097657v-0.0039c-2.32422-4.46875 0.44141-7.503906 3.73828-13.035156 6e-3 -0.275423-6e-3 -1.045611-2.5e-4 -0.792521 2.5e-4 0.01127-6.81779-4.64131-10.08178-7.242642-6.89063 2.609376-10.73828 4.835938-16.35938 2.976563h-0.0039c-5.60156-1.847656-6.33594-5.539063-8.91016-11.316406h-14.26562c-2.56641 5.75-3.30469 9.464843-8.91016 11.320312h-4e-3c-5.60938 1.855469-9.40626-0.347656-16.35938-2.980469-3.25573 2.594742-10.08203 7.253907-10.08225 7.261819-7e-3 0.246551-7e-3 0.504151 2.2e-4 0.773338 3.28906 5.511719 6.0664 8.558593 3.73828 13.035156-2.32813 4.46875-6.99219 5.054687-14.20703 7.101563v11.363281c7.20312 2.042969 11.8789 2.636719 14.20703 7.101562 1.9666 3.788739-3.73828 9.785159-3.73828 9.785159v3.25l10.08203 8.03906c6.89453-2.61328 10.74219-4.83594 16.35937-2.98047h4e-3c5.60547 1.85156 6.33985 5.55078 8.91016 11.320311h14.26563c2.5664-5.753901 3.30859-9.460931 8.94531-11.332031h4e-3c5.56641-1.83984 9.35547 0.35547 16.31641 2.99219l10.12743-7.77082-0.0415-3.51434s-5.70233-6.00592-3.74219-9.781246c2.32422-4.46875 7.00781-5.066406 14.21484-7.109375zm-52.95703 8.382812c-9.75 0-17.65234-6.296875-17.65234-14.0625 0-7.769531 7.90234-14.066406 17.65234-14.066406s17.65234 6.296875 17.65234 14.066406c0 7.765625-7.90234 14.0625-17.65234 14.0625z" fill="url(#radial0)"/>
    <path id="path124" d="m-237.08594 62.351221v-10.820312c-7.28515-1.964844-11.89062-2.519531-14.20703-6.761719v-0.0039c-2.32422-4.253906 0.44141-7.144531 3.73828-12.410156l-10.08203-7.65235c-6.89063 2.484375-10.73828 4.605469-16.35938 2.835937h-0.0039c-5.60156-1.761718-6.33594-5.277343-8.91016-10.777343h-14.26562c-2.56641 5.472656-3.30469 9.011719-8.91016 10.777343h-4e-3c-5.60938 1.769532-9.40626-0.328124-16.35938-2.835937l-10.08203 7.652344c3.28906 5.25 6.0664 8.148437 3.73828 12.410156-2.32813 4.257813-6.99219 4.816406-14.20703 6.765625v10.820312c7.20312 1.941407 11.8789 2.507813 14.20703 6.761719 2.33984 4.292969-0.50391 7.249999-3.73828 12.410159l1.37818 1.04659 8.70385 6.60966c6.89453-2.48828 10.74219-4.60547 16.35937-2.83594h4e-3c5.60547 1.76172 6.33985 5.28516 8.91016 10.77734h14.26563c2.5664-5.47656 3.30859-9.00781 8.94531-10.78906h4e-3c5.56641-1.7539 9.35547 0.33985 16.31641 2.85156l10.08594-7.65625c-3.28516-5.23437-6.06641-8.144528-3.74219-12.410152 2.32422-4.253907 7.00781-4.820313 14.21484-6.765626zm-52.95703 7.984376c-9.75 0-17.65234-6-17.65234-13.394532 0-7.398437 7.90234-13.394531 17.65234-13.394531s17.65234 5.996094 17.65234 13.394531c0 7.394532-7.90234 13.394532-17.65234 13.394532z" fill="url(#radial1)"/>
    <g id="g174" transform="translate(-354.05371,-26.125341)" clip-path="url(#clip1)" style="mix-blend-mode:normal">
      <g id="g130" transform="translate(0 .02489107)" clip-path="url(#clip2)">
        <path id="path128" d="m106.02734 48.113281c0.082-2.308593 0.26563-5.3125-2.59765-7.621093-2.39453-1.652344-4.11719-3.136719-10.101565-3.136719h-13.480469c-5.285156 0-10.574218 0.0039-15.859375 0h-13.089843c-5.417969 0-10.832032 0.0039-16.246094 0-1.289063-0.01953-2.550782 0.121093-3.75 0.378906-0.01563 0.0039-0.02344 0.0039-0.03516 0.0078-0.335938 0.07422-0.667969 0.152343-0.996094 0.246093-0.28125 0.07813-0.5625 0.167969-0.835938 0.261719-0.03516 0.0078-0.05859 0.01953-0.08984 0.02734-0.132812 0.03906-0.257812 0.08203-0.390624 0.125-0.742188 0.277361-1.441407 0.597673-2.089844 0.972673-1.042969 0.59375-1.933594 1.292969-2.640625 2.082031-0.1875 0.207031-0.371094 0.421875-0.535157 0.640625-0.707031 0.929688-1.152343 1.949219-1.273437 3.015625-0.0039 0.03125-0.01172 0.0625-0.01953 0.09766-0.01172 0.128906-0.01953 0.265624-0.02734 0.394531-0.01563 0.191406-0.02344 0.382812-0.01953 0.574219 0.0039 0.01172 0.0039 0.02734 0.0078 0.03906 0.01172 0.242188-0.02734 2.390625 0.02344 2.628906 0.199219 1.15625 0.804687 0.363282 1.667969 1.375l0.117187 0.144532c0.253906 0.3125 0.519531 0.628906 0.796875 0.925781v0.0039l13.753906 16.085937 14.667969 17.160157c2.40625 2.808593 6.953125 4.460937 11.753906 4.273437 1.613281-0.05469 3.210938-0.3125 4.691407-0.804687 1.222656-0.363281 2.28125-0.878907 3.222656-1.488281 0.03906-0.02344 0.08203-0.05469 0.121094-0.07813 0.207031-0.140624 0.410156-0.277343 0.609374-0.425781 0.160157-0.125 0.316407-0.25 0.460938-0.371093 0.113281-0.09375 0.222656-0.1875 0.328125-0.285157 0.09375-0.07813 0.183594-0.160156 0.269531-0.246093 0.5625-0.527344 1.0625-1.078126 1.511719-1.648438 0.02344-0.04687 0.04687-0.08984 0.07031-0.132812l10.453131-33.378898c-2.484374-3.960937 19.636718 9.59375 19.550778-1.84375z" fill="url(#linearGradient9165)"/>
      </g>
      <g id="g136" clip-path="url(#clip7)">
        <g id="g134" clip-path="url(#clip8)">
          <path id="path132" d="m107.52734 49.953125c0.11329-4.320313-1.97656-8.496094-5.79687-11.578125-3.816408-3.082031-9.04297-4.816406-14.488282-4.800781l-46.730469 0.101562c-7.226563 0.01563-13.894531 3.09375-17.492188 8.0625-3.59375 4.976563-3.574219 11.09375 0.05469 16.050781l23.480469 32.046876c3.628906 4.953124 10.320312 8 17.550781 7.984374 7.22656-0.015624 13.894529-3.089843 17.492185-8.0625l23.253904-32.152343c1.6875-2.332031 2.60547-4.960938 2.67578-7.652344z" fill="url(#gradient-0)" image-rendering="auto"/>
        </g>
      </g>
    </g>
    <path id="path4329-0" d="m-265.5918 11.253223-48.92578-0.04619s-0.0155 0.04949-0.0155-5.021018v-20.001555c0-5.070512 2.53472-9.18446 5.65771-9.18446h37.62196c3.12694 0 5.66165 4.113948 5.66165 9.18446v25.068763z" fill="url(#linearGradient4199)"/>
    <path id="path4329" d="m-265.56641 15.458876-48.96355-0.02191s-3e-3 0.02529-3e-3 -5.173374v-20.507136c0-5.198678 2.53603-9.416613 5.66064-9.416613h37.64152c3.12856 0 5.66459 4.217935 5.66459 9.416613v25.70242z" fill="url(#linearGradient4828)"/>
  </g>
</svg>
