<?xml version="1.0" encoding="UTF-8" standalone="no"?>
<svg
   id="svg8"
   width="64"
   height="64"
   version="1.1"
   viewBox="0 0 16.933333 16.933334"
   sodipodi:docname="iwgtk.svg"
   inkscape:version="1.2.2 (b0a8486541, 2022-12-01)"
   xml:space="preserve"
   xmlns:inkscape="http://www.inkscape.org/namespaces/inkscape"
   xmlns:sodipodi="http://sodipodi.sourceforge.net/DTD/sodipodi-0.dtd"
   xmlns="http://www.w3.org/2000/svg"
   xmlns:svg="http://www.w3.org/2000/svg"><sodipodi:namedview
     id="namedview380"
     pagecolor="#ffffff"
     bordercolor="#666666"
     borderopacity="1.0"
     inkscape:showpageshadow="2"
     inkscape:pageopacity="0.0"
     inkscape:pagecheckerboard="0"
     inkscape:deskcolor="#d1d1d1"
     showgrid="false"
     inkscape:zoom="6.5390625"
     inkscape:cx="14.986858"
     inkscape:cy="21.945042"
     inkscape:window-width="1920"
     inkscape:window-height="1014"
     inkscape:window-x="0"
     inkscape:window-y="0"
     inkscape:window-maximized="1"
     inkscape:current-layer="svg8" /><defs
     id="defs2"><filter
       id="filter1057"
       x="-0.026999999"
       y="-0.026999999"
       width="1.054"
       height="1.054"
       color-interpolation-filters="sRGB"><feGaussianBlur
         id="feGaussianBlur1059"
         stdDeviation="0.61875" /></filter><linearGradient
       id="linearGradient1053"
       x1="-127"
       x2="-72"
       y1="60"
       y2="5"
       gradientTransform="matrix(0.26458333,0,0,0.26458333,34.792707,-0.1349368)"
       gradientUnits="userSpaceOnUse"><stop
         id="stop1049"
         stop-color="#22acdd"
         offset="0"
         style="stop-color:#22222f;stop-opacity:1;" /><stop
         id="stop1047"
         stop-color="#30c1f1"
         offset="1"
         style="stop-color:#666666;stop-opacity:1;" /></linearGradient></defs><rect
     id="rect1055"
     transform="scale(0.26458333)"
     x="4.5"
     y="4.5"
     width="55"
     height="55"
     ry="15"
     fill="#141414"
     filter="url(#filter1057)"
     opacity="0.3"
     stroke-linecap="round"
     stroke-width="2.74436" /><rect
     id="rect1045"
     x="1.1906257"
     y="1.1906257"
     width="14.552082"
     height="14.552082"
     ry="3.9687498"
     fill="url(#linearGradient1053)"
     stroke-linecap="round"
     stroke-width="0.726112"
     style="fill:url(#linearGradient1053)" /><path
     id="path1207"
     style="color:#000000;fill:#ffffff;stroke-width:0.264583;-inkscape-stroke:none"
     d="M 8.4459962 6.0528606 C 8.0151729 6.0612855 7.6822529 6.3335411 7.5411418 6.6776286 C 7.397791 7.0271778 7.4465775 7.4631366 7.7576661 7.7773031 C 8.0687549 8.0914698 8.5025393 8.1410506 8.8495891 7.9958944 C 9.1966389 7.8507384 9.4666057 7.5061807 9.4666057 7.0626181 C 9.4660243 6.5076748 9.0182717 6.0534499 8.4666667 6.0528606 C 8.4597795 6.0528606 8.4528346 6.0527268 8.4459962 6.0528606 z " /><path
     id="path1213"
     style="color:#000000;fill:#ffffff;stroke-width:0.264583;-inkscape-stroke:none"
     d="M 6.9540976 5.120101 C 6.8476585 5.120101 6.7411256 5.1598144 6.6600587 5.2399903 L 6.6579916 5.2420573 C 5.6627135 6.2481865 5.6627135 7.8806669 6.6579916 8.8867961 L 6.6600587 8.8867961 C 6.8220668 9.0485296 7.0881955 9.0485296 7.2502035 8.8867961 L 7.2517538 8.8847291 C 7.4108495 8.72096 7.4108495 8.4568031 7.2517538 8.2930339 L 7.2502035 8.2930339 C 6.5791661 7.6135688 6.5783868 6.5160861 7.2481365 5.8358196 L 7.2502035 5.8337525 C 7.3288644 5.7554486 7.3736159 5.6482176 7.3731934 5.5371298 C 7.3735092 5.425049 7.3282224 5.3183661 7.2481365 5.2399903 C 7.1670695 5.1598144 7.0605366 5.120101 6.9540976 5.120101 z " /><path
     id="path1219"
     style="color:#000000;fill:#ffffff;stroke-width:0.264583;-inkscape-stroke:none"
     d="M 9.9787192 5.1185507 C 9.8717912 5.1182107 9.7650067 5.1582153 9.6836467 5.23844 C 9.5210542 5.4020845 9.5210542 5.670108 9.6836467 5.8337525 C 10.35728 6.5136741 10.35728 7.6151793 9.6836467 8.295101 L 9.6815797 8.295101 C 9.5231749 8.4586853 9.5231749 8.7232118 9.6815797 8.8867961 L 9.6836467 8.8867961 C 9.8456548 9.0485296 10.111266 9.0485296 10.273275 8.8867961 C 11.270746 7.8807117 11.270746 6.2460748 10.273275 5.2399903 C 10.192503 5.1591722 10.085647 5.1188906 9.9787192 5.1185507 z " /><path
     id="path1225"
     style="color:#000000;fill:#ffffff;stroke-width:0.264583;-inkscape-stroke:none"
     d="M 11.259778 3.8230225 C 11.152865 3.8230225 11.045802 3.8630798 10.964706 3.9434286 L 10.962638 3.9454956 C 10.803543 4.1092649 10.803543 4.3734216 10.962638 4.5371908 L 10.962638 4.5392579 C 12.343101 5.9345461 12.343101 8.1927571 10.962638 9.5880453 L 10.962638 9.5895956 C 10.804063 9.7531515 10.804063 10.016184 10.962638 10.17974 L 10.964706 10.181808 C 11.126713 10.34354 11.392842 10.34354 11.55485 10.181808 C 13.256932 8.4628853 13.25694 5.6642345 11.55485 3.9454956 L 11.55485 3.9434286 C 11.473753 3.8630798 11.36669 3.8230225 11.259778 3.8230225 z " /><path
     id="path1231"
     style="color:#000000;fill:#ffffff;stroke-width:0.264583;-inkscape-stroke:none"
     d="M 5.6740723 3.8245728 C 5.5671598 3.8245728 5.4600965 3.8651467 5.3789999 3.9454956 C 3.6769182 5.6644175 3.6769183 8.462885 5.3789999 10.181808 C 5.541008 10.34354 5.80662 10.34354 5.968628 10.181808 L 5.970695 10.181808 C 6.129791 10.018038 6.129791 9.7533649 5.970695 9.5895956 L 5.970695 9.5880453 L 5.968628 9.5880453 C 4.588757 8.1928607 4.588757 5.9344425 5.968628 4.5392579 L 5.970695 4.5392579 C 6.1303079 4.3755156 6.1303079 4.1107882 5.970695 3.9470459 L 5.968628 3.9454956 C 5.8875315 3.8651467 5.7809849 3.8245728 5.6740723 3.8245728 z " /><path
     id="path1237"
     style="color:#000000;fill:#ffffff;stroke-width:0.264583;-inkscape-stroke:none"
     d="M 8.4666667 8.7421021 C 8.2371958 8.7421021 8.0584229 8.9375403 8.0584229 9.1622315 L 8.0584229 12.689665 C 8.0584229 12.914465 8.2373005 13.109277 8.4666667 13.109277 C 8.6961374 13.109277 8.8749106 12.914357 8.8749106 12.689665 L 8.8749106 9.1622315 C 8.8749106 8.9377559 8.6967641 8.7421021 8.4666667 8.7421021 z " /></svg>
