<svg id="svg5" version="1.1" viewBox="0 0 64 64" xmlns="http://www.w3.org/2000/svg" xmlns:xlink="http://www.w3.org/1999/xlink">
  <defs id="defs3">
    <style id="style1" type="text/css"/>
    <style id="style2" type="text/css"/>
    <filter id="filter1057" x="-.026999999" y="-.026999999" width="1.054" height="1.054" color-interpolation-filters="sRGB">
      <feGaussianBlur id="feGaussianBlur2" stdDeviation="0.61875"/>
    </filter>
    <linearGradient id="linearGradient1053" x1="-127" x2="-72" y1="60" y2="5" gradientTransform="translate(131.5 -.51)" gradientUnits="userSpaceOnUse">
      <stop id="stop2" stop-color="#fde681" offset="0"/>
      <stop id="stop3" stop-color="#fefdcd" stop-opacity=".99607998" offset="1"/>
    </linearGradient>
    <path id="SVGID_1_" d="m93.3 60c0.2 0.3 0.7 0.1 0.7-0.2 0.6-5.4 2.2-20.3 12.8-23.5 3.4-1 6.8 1.4 7.2 4.5 0.7 5-5 17.9-4.5 29.7 0.1 1.9 3.3 22-5.2 33.9s-28.7 24-48.8 5.6c-10.4-9.5-10.4-13.3-23.3-26.6-2.6-2.6-13-14-15.8-17.5-3.7-4.7 2.2-10.9 6.7-7.7 2.1 1.5 20.7 17.1 21.4 17.8 1.4 1.2 3.1-0.5 2.1-1.7-11.4-15-22.4-28.5-25.4-33.7s4.2-10.8 8.4-6.3c2.9 3 24.4 28.1 25.4 29.2s2.7-0.3 2.1-1.7c-0.7-1.3-18.1-31.6-21.2-38.5-2.7-6.1 6.3-11.8 10.5-5.5 3.4 5 22.4 36.6 23.1 37.7 0.9 1.6 2.9 0.6 2.1-1.2-0.6-1.3-12.3-33.3-13.2-36.6-1.6-5.8 6.7-10.6 10.6-4 5.3 9.1 15.8 36.9 24.3 46.3z"/>
    <path id="SVGID_00000099634796062580657540000018168663086138831493_" d="m93.3 60c0.2 0.3 0.7 0.1 0.7-0.2 0.6-5.4 2.2-20.3 12.8-23.5 3.4-1 6.8 1.4 7.2 4.5 0.7 5-5 17.9-4.5 29.7 0.1 1.9 3.3 22-5.2 33.9s-28.7 24-48.8 5.6c-10.4-9.5-10.4-13.3-23.3-26.6-2.6-2.6-13-14-15.8-17.5-3.7-4.7 2.2-10.9 6.7-7.7 2.1 1.5 20.7 17.1 21.4 17.8 1.4 1.2 3.1-0.5 2.1-1.7-11.4-15-22.4-28.5-25.4-33.7s4.2-10.8 8.4-6.3c2.9 3 24.4 28.1 25.4 29.2s2.7-0.3 2.1-1.7c-0.7-1.3-18.1-31.6-21.2-38.5-2.7-6.1 6.3-11.8 10.5-5.5 3.4 5 22.4 36.6 23.1 37.7 0.9 1.6 2.9 0.6 2.1-1.2-0.6-1.3-12.3-33.3-13.2-36.6-1.6-5.8 6.7-10.6 10.6-4 5.3 9.1 15.8 36.9 24.3 46.3z"/>
    <clipPath id="clipPath18">
      <use id="use18" transform="matrix(.37135861 0 0 .37135861 9.3408454 8.6401965)" xlink:href="#SVGID_1_"/>
    </clipPath>
    <clipPath id="clipPath19">
      <use id="use19" transform="matrix(.37135861 0 0 .37135861 9.3408454 8.6401965)" xlink:href="#SVGID_1_"/>
    </clipPath>
    <clipPath id="clipPath20">
      <use id="use20" transform="matrix(.37135861 0 0 .37135861 9.3408454 8.6401965)" xlink:href="#SVGID_00000099634796062580657540000018168663086138831493_"/>
    </clipPath>
    <clipPath id="clipPath21">
      <use id="use21" transform="matrix(.37135861 0 0 .37135861 9.3408454 8.6401965)" xlink:href="#SVGID_00000099634796062580657540000018168663086138831493_"/>
    </clipPath>
    <clipPath id="clipPath22">
      <use id="use22" transform="matrix(.37135861 0 0 .37135861 9.3408454 8.6401965)" xlink:href="#SVGID_00000099634796062580657540000018168663086138831493_"/>
    </clipPath>
    <clipPath id="clipPath23">
      <use id="use23" transform="matrix(.37135861 0 0 .37135861 9.3408454 8.6401965)" xlink:href="#SVGID_00000099634796062580657540000018168663086138831493_"/>
    </clipPath>
    <clipPath id="clipPath24">
      <use id="use24" transform="matrix(.37135861 0 0 .37135861 9.3408454 8.6401965)" xlink:href="#SVGID_00000099634796062580657540000018168663086138831493_"/>
    </clipPath>
    <filter id="filter26" x="-.028040738" y="-.020439642" width="1.0326954" height="1.0187191" color-interpolation-filters="sRGB">
      <feGaussianBlur id="feGaussianBlur26" stdDeviation="0.47130807"/>
    </filter>
  </defs>
  <rect id="rect3" x="4.5" y="4.5" width="55" height="55" ry="15" fill="#141414" filter="url(#filter1057)" opacity=".3" stroke-linecap="round" stroke-width="2.7444"/>
  <rect id="rect4" x="4.5" y="4.5" width="55" height="55" ry="15" fill="url(#linearGradient1053)" stroke-linecap="round" stroke-width="2.7444"/>
  <circle id="circle4" cx="-1326.3" cy="-1241.6" r="0" fill="#5e4aa6"/>
  <circle id="circle5" cx="-226.72" cy="23.855" r="0" fill="#5e4aa6" fill-rule="evenodd"/>
  <g id="g26" transform="translate(70.549938,3.6300857)" fill="#000000" filter="url(#filter26)" opacity=".3" stroke-width="1.00157">
    <path id="path3" d="m-26.561334 27.291627c0.07427 0.111408 0.259951 0.03714 0.259951-0.07427 0.222815-2.005336 0.816989-7.538579 4.75339-8.726927 1.262619-0.371359 2.525238 0.519902 2.673782 1.671114 0.259951 1.856793-1.856793 6.647319-1.671114 11.029351 0.03714 0.705581 1.225484 8.169889-1.931065 12.589056-3.156548 4.419168-10.657992 8.912608-18.1223 2.079609-3.862129-3.527907-3.862129-4.93907-8.652655-9.878139-0.965533-0.965533-4.827662-5.199021-5.867466-6.498776-1.374027-1.745386 0.816989-4.047809 2.488102-2.859461 0.779853 0.557038 7.687124 6.350232 7.947075 6.610183 0.519902 0.44563 1.151211-0.185679 0.779853-0.63131-4.233489-5.570379-8.318433-10.58372-9.432509-12.514785s1.559706-4.010673 3.119412-2.339559c1.07694 1.114076 9.06115 10.435177 9.432509 10.843671 0.371359 0.408495 1.002668-0.111407 0.779853-0.631309-0.259951-0.482767-6.721591-11.734932-7.872802-14.297307-1.002669-2.265287 2.339559-4.3820313 3.899265-2.042472 1.262619 1.856793 8.318433 13.591725 8.578384 14.000219 0.334223 0.594174 1.07694 0.222816 0.779853-0.44563-0.222815-0.482766-4.567711-12.366242-4.901934-13.591725-0.594174-2.1538803 2.488103-3.9364013 3.936401-1.485435 1.968201 3.379364 5.867467 13.703133 9.024015 17.193904z"/>
    <path id="path4" transform="translate(-70.549938,-3.6300863)" d="m43.214844 30.96875-0.0059 0.02734c-4.604847 3.750722-6.647233 9.09759-2.859375 14.667969 0.334223 0.482767 1.039274 0.03751 0.742187-0.519531-1.559706-2.78519-2.710871-7.799 2.673829-13.035156 0.01303 0.0061 0.02594 0.01027 0.03906 0.01562v-1.15625z" clip-path="url(#clipPath19)"/>
    <path id="path5" transform="translate(-70.549938,-3.6300863)" d="m43.802924 50.826535c-6.016009 2.859461-10.509448 0.631309-13.406045-2.191016-3.305092-3.23082-4.864798-6.201689-7.055814-8.207025-0.742717-0.705582-6.610183-6.944406-7.315765-8.021346-0.557038-0.891261 0.557038-2.413831 1.782522-1.559707 0.779853 0.519902 1.151211-0.594173 0.631309-0.89126s-1.671113-0.928397-2.896597 0c-1.225483 0.89126-1.262619 2.488102-0.965532 3.008004 0.297087 0.519903 18.345115 21.241713 18.345115 21.241713l7.352901-0.185679 3.936401-2.413831z" clip-path="url(#clipPath18)"/>
    <path id="path7" transform="translate(-70.549938,-3.6300863)" d="m50.74733 22.009106c0.18568 0.482767 0.408495 1.336891 0.18568 2.488103-0.854125 4.30776-2.265288 6.832999-1.819657 11.474981 0.816988 8.912607-2.302424 15.671334-13.034688 17.008225-1.07694 0.148543-0.779853 0.965532-0.222815 0.89126 0.259951-0.03714 7.909939-1.411163 7.909939-1.411163s7.092949-6.053145 7.092949-6.127417c0-0.07427 1.782521-23.172777 1.782521-23.172777z" clip-path="url(#clipPath24)"/>
    <path id="path8" transform="translate(-70.549938,-3.6300863)" d="m32.1794 12.539462c0.482766 0.07427 1.52257 0.482766 2.265287 1.931065 0.742718 1.448298 4.382032 9.803867 4.864798 10.695128 0.482766 0.89126 2.450967 5.310428 4.047809 6.647319 0.519902 0.408494 0.779853-0.297087 0.779853-0.297087l0.03714-1.151212-8.61552-19.607734-2.859461 0.111407z" clip-path="url(#clipPath23)"/>
    <path id="path18" transform="translate(-70.549938,-3.6300863)" d="m35.781578 29.473415c-0.705581 0.334222-1.225483 0.631309-1.745385-0.18568-0.334223-0.594174-3.936401-6.758726-8.466976-13.963084-0.371359-0.557037-1.225484-1.039804-1.893929-0.779853-0.668446 0.297087-0.816989-0.557038-0.482766-0.742717 0.334222-0.185679 2.413831-1.336891 3.824993 1.039804 1.411163 2.376695 8.764063 14.63153 8.764063 14.63153z" clip-path="url(#clipPath22)"/>
    <path id="path19" transform="translate(-70.549938,-3.6300863)" d="m30.396879 32.258604c-0.557038 0.408495-1.114076 0.928397-1.819658 0.07427-0.668445-0.816989-8.281297-9.878139-8.726927-10.435177s-1.374027-1.039804-2.079608-0.594174c-0.482766 0.297087-0.928397-0.594174-0.63131-0.816989s1.968201-1.708249 3.082277-0.44563 10.175226 12.217698 10.175226 12.217698z" clip-path="url(#clipPath21)"/>
    <path id="path20" transform="translate(-70.549938,-3.6300863)" d="m26.683292 36.826315c-0.482766 0.519902-1.002668 0.816989-1.708249 0.297087s-7.018678-5.83033-7.427172-6.201689c-0.408495-0.371359-1.596842-0.928396-2.488103-0.03714-0.334223 0.334223-0.928397-0.222815-0.594174-0.557038 0.334223-0.371358 2.15388-2.228151 3.602179-1.002668 1.448298 1.225483 8.615519 7.501444 8.615519 7.501444z" clip-path="url(#clipPath20)"/>
    <path id="path21" d="m-57.272691 35.201565c1.151211 3.4165 2.896597 5.533244 5.756058 7.464309 0.519902 0.371358 0.222815 1.114075-0.371358 0.854124-2.673782-1.07694-5.644651-3.453635-6.350233-8.169889-0.111407-0.63131 0.779853-0.742717 0.965533-0.148544z"/>
    <path id="path22" d="m-55.04454 33.159093c1.151212 3.416499 2.896597 5.533243 5.756059 7.464308 0.519902 0.371359 0.222815 1.114076-0.371359 0.854125-2.673782-1.07694-5.644651-3.453635-6.350232-8.169889-0.07427-0.63131 0.779853-0.742718 0.965532-0.148544z"/>
    <path id="path23" d="m-26.487063 17.859118c-0.89126-3.490771-2.525238-5.718922-5.236156-7.79853-0.519902-0.3713593-0.148543-1.1140763 0.44563-0.8541253 2.599511 1.2254833 5.421836 3.8249933 5.793195 8.5783843 0.03714 0.631309-0.854125 0.705581-1.002669 0.07427z"/>
    <path id="path24" d="m-24.073232 16.076597c-0.89126-3.490771-2.525238-5.718923-5.236156-7.7985313-0.519902-0.371358-0.148543-1.114076 0.44563-0.854125 2.599511 1.225484 5.421836 3.8249943 5.793195 8.5783843 0.03714 0.594174-0.816989 0.668446-1.002669 0.07427z"/>
  </g>
  <g id="g24" stroke-width=".371">
    <path id="path1" d="m43.988604 30.921713c0.07427 0.111408 0.259951 0.03714 0.259951-0.07427 0.222815-2.005336 0.816989-7.538579 4.75339-8.726927 1.262619-0.371359 2.525238 0.519902 2.673782 1.671114 0.259951 1.856793-1.856793 6.647319-1.671114 11.029351 0.03714 0.705581 1.225484 8.169889-1.931065 12.589056-3.156548 4.419168-10.657992 8.912608-18.1223 2.079609-3.862129-3.527907-3.862129-4.93907-8.652655-9.878139-0.965533-0.965533-4.827662-5.199021-5.867466-6.498776-1.374027-1.745386 0.816989-4.047809 2.488102-2.859461 0.779853 0.557038 7.687124 6.350232 7.947075 6.610183 0.519902 0.44563 1.151211-0.185679 0.779853-0.63131-4.233489-5.570379-8.318433-10.58372-9.432509-12.514785s1.559706-4.010673 3.119412-2.339559c1.07694 1.114076 9.06115 10.435177 9.432509 10.843671 0.371359 0.408495 1.002668-0.111407 0.779853-0.631309-0.259951-0.482767-6.721591-11.734932-7.872802-14.297307-1.002669-2.265287 2.339559-4.382031 3.899265-2.042472 1.262619 1.856793 8.318433 13.591725 8.578384 14.000219 0.334223 0.594174 1.07694 0.222816 0.779853-0.44563-0.222815-0.482766-4.567711-12.366242-4.901934-13.591725-0.594174-2.15388 2.488103-3.936401 3.936401-1.485435 1.968201 3.379364 5.867467 13.703133 9.024015 17.193904z" fill="#ffca28"/>
    <path id="path2" d="m43.214844 30.96875-0.0059 0.02734c-4.604847 3.750722-6.647233 9.09759-2.859375 14.667969 0.334223 0.482767 1.039274 0.03751 0.742187-0.519531-1.559706-2.78519-2.710871-7.799 2.673829-13.035156 0.01303 0.0061 0.02594 0.01027 0.03906 0.01562v-1.15625z" clip-path="url(#clipPath19)" fill="#faa700"/>
    <path id="path6" d="m43.802924 50.826535c-6.016009 2.859461-10.509448 0.631309-13.406045-2.191016-3.305092-3.23082-4.864798-6.201689-7.055814-8.207025-0.742717-0.705582-6.610183-6.944406-7.315765-8.021346-0.557038-0.891261 0.557038-2.413831 1.782522-1.559707 0.779853 0.519902 1.151211-0.594173 0.631309-0.89126s-1.671113-0.928397-2.896597 0c-1.225483 0.89126-1.262619 2.488102-0.965532 3.008004 0.297087 0.519903 18.345115 21.241713 18.345115 21.241713l7.352901-0.185679 3.936401-2.413831z" clip-path="url(#clipPath18)" fill="#ffca28"/>
    <g id="g1" fill="#faa700">
      <path id="path9" d="m50.74733 22.009106c0.18568 0.482767 0.408495 1.336891 0.18568 2.488103-0.854125 4.30776-2.265288 6.832999-1.819657 11.474981 0.816988 8.912607-2.302424 15.671334-13.034688 17.008225-1.07694 0.148543-0.779853 0.965532-0.222815 0.89126 0.259951-0.03714 7.909939-1.411163 7.909939-1.411163s7.092949-6.053145 7.092949-6.127417c0-0.07427 1.782521-23.172777 1.782521-23.172777z" clip-path="url(#clipPath24)"/>
      <path id="path10" d="m32.1794 12.539462c0.482766 0.07427 1.52257 0.482766 2.265287 1.931065 0.742718 1.448298 4.382032 9.803867 4.864798 10.695128 0.482766 0.89126 2.450967 5.310428 4.047809 6.647319 0.519902 0.408494 0.779853-0.297087 0.779853-0.297087l0.03714-1.151212-8.61552-19.607734-2.859461 0.111407z" clip-path="url(#clipPath23)"/>
      <path id="path11" d="m35.781578 29.473415c-0.705581 0.334222-1.225483 0.631309-1.745385-0.18568-0.334223-0.594174-3.936401-6.758726-8.466976-13.963084-0.371359-0.557037-1.225484-1.039804-1.893929-0.779853-0.668446 0.297087-0.816989-0.557038-0.482766-0.742717 0.334222-0.185679 2.413831-1.336891 3.824993 1.039804 1.411163 2.376695 8.764063 14.63153 8.764063 14.63153z" clip-path="url(#clipPath22)"/>
      <path id="path12" d="m30.396879 32.258604c-0.557038 0.408495-1.114076 0.928397-1.819658 0.07427-0.668445-0.816989-8.281297-9.878139-8.726927-10.435177s-1.374027-1.039804-2.079608-0.594174c-0.482766 0.297087-0.928397-0.594174-0.63131-0.816989s1.968201-1.708249 3.082277-0.44563 10.175226 12.217698 10.175226 12.217698z" clip-path="url(#clipPath21)"/>
      <path id="path13" d="m26.683292 36.826315c-0.482766 0.519902-1.002668 0.816989-1.708249 0.297087s-7.018678-5.83033-7.427172-6.201689c-0.408495-0.371359-1.596842-0.928396-2.488103-0.03714-0.334223 0.334223-0.928397-0.222815-0.594174-0.557038 0.334223-0.371358 2.15388-2.228151 3.602179-1.002668 1.448298 1.225483 8.615519 7.501444 8.615519 7.501444z" clip-path="url(#clipPath20)"/>
    </g>
    <g id="g2" fill="#b0bec5">
      <path id="path14" d="m13.277247 38.831651c1.151211 3.4165 2.896597 5.533244 5.756058 7.464309 0.519902 0.371358 0.222815 1.114075-0.371358 0.854124-2.673782-1.07694-5.644651-3.453635-6.350233-8.169889-0.111407-0.63131 0.779853-0.742717 0.965533-0.148544z"/>
      <path id="path15" d="m15.505398 36.789179c1.151212 3.416499 2.896597 5.533243 5.756059 7.464308 0.519902 0.371359 0.222815 1.114076-0.371359 0.854125-2.673782-1.07694-5.644651-3.453635-6.350232-8.169889-0.07427-0.63131 0.779853-0.742718 0.965532-0.148544z"/>
      <path id="path16" d="m44.062875 21.489204c-0.89126-3.490771-2.525238-5.718922-5.236156-7.79853-0.519902-0.371359-0.148543-1.114076 0.44563-0.854125 2.599511 1.225483 5.421836 3.824993 5.793195 8.578384 0.03714 0.631309-0.854125 0.705581-1.002669 0.07427z"/>
      <path id="path17" d="m46.476706 19.706683c-0.89126-3.490771-2.525238-5.718923-5.236156-7.798531-0.519902-0.371358-0.148543-1.114076 0.44563-0.854125 2.599511 1.225484 5.421836 3.824994 5.793195 8.578384 0.03714 0.594174-0.816989 0.668446-1.002669 0.07427z"/>
    </g>
  </g>
</svg>
