<svg id="svg290" version="1.1" viewBox="0 0 64 64" xmlns="http://www.w3.org/2000/svg">
    <defs id="defs278">
        <style id="style266" type="text/css"/>
        <style id="style268" type="text/css"/>
        <filter id="filter1057" x="-.026999999" y="-.026999999" width="1.054" height="1.054" color-interpolation-filters="sRGB">
            <feGaussianBlur id="feGaussianBlur270" stdDeviation="0.61875"/>
        </filter>
        <linearGradient id="linearGradient1777" x1="-127" x2="-72" y1="60" y2="5" gradientTransform="matrix(.96363636 0 0 .96363636 127.88182 .67218182)" gradientUnits="userSpaceOnUse">
            <stop id="stop273" stop-color="#e74c3c" offset="0"/>
            <stop id="stop275" stop-color="#ec7063" offset="1"/>
        </linearGradient>
        <filter id="filter2678" x="-.040436478" y="-.019002778" width="1.080873" height="1.0380056" color-interpolation-filters="sRGB">
            <feGaussianBlur id="feGaussianBlur2680" stdDeviation="0.16776119"/>
        </filter>
        <filter id="filter2682" x="-.046733244" y="-.02747863" width="1.0934665" height="1.0549573" color-interpolation-filters="sRGB">
            <feGaussianBlur id="feGaussianBlur2684" stdDeviation="0.16776119"/>
        </filter>
        <filter id="filter2686" x="-.02075215" y="-.11844168" width="1.0415043" height="1.2368834" color-interpolation-filters="sRGB">
            <feGaussianBlur id="feGaussianBlur2688" stdDeviation="0.16776119"/>
        </filter>
        <filter id="filter2690" x="-.065607878" y="-.05297459" width="1.1312158" height="1.1059492" color-interpolation-filters="sRGB">
            <feGaussianBlur id="feGaussianBlur2692" stdDeviation="0.16776119"/>
        </filter>
        <filter id="filter2694" x="-.027097567" y="-.12874104" width="1.0541951" height="1.2574821" color-interpolation-filters="sRGB">
            <feGaussianBlur id="feGaussianBlur2696" stdDeviation="0.16776119"/>
        </filter>
        <filter id="filter2698" x="-.030899514" y="-.12621085" width="1.061799" height="1.2524217" color-interpolation-filters="sRGB">
            <feGaussianBlur id="feGaussianBlur2700" stdDeviation="0.16776119"/>
        </filter>
        <filter id="filter2702" x="-.015033984" y="-.098029066" width="1.030068" height="1.1960581" color-interpolation-filters="sRGB">
            <feGaussianBlur id="feGaussianBlur2704" stdDeviation="0.16776119"/>
        </filter>
        <filter id="filter2706" x="-.017244377" y="-.11002686" width="1.0344888" height="1.2200537" color-interpolation-filters="sRGB">
            <feGaussianBlur id="feGaussianBlur2708" stdDeviation="0.16776119"/>
        </filter>
    </defs>
    <rect id="rect280" x="4.5" y="4.5" width="55" height="55" ry="15" fill="#141414" filter="url(#filter1057)" opacity=".3" stroke-linecap="round" stroke-width="2.7444"/>
    <rect id="rect282" x="4.5" y="4.5" width="55" height="55" ry="15" fill="#fff" stroke-linecap="round" stroke-width="2.7444"/>
    <circle id="circle284" cx="-1326.3" cy="-1241.6" r="0" fill="#5e4aa6"/>
    <circle id="circle286" cx="-226.72" cy="23.855" r="0" fill="#5e4aa6" fill-rule="evenodd"/>
    <rect id="rect1775" x="5.5" y="5.5" width="53" height="53" ry="14.454545" fill="url(#linearGradient1777)" stroke-linecap="round" stroke-width="2.6446"/>
    <g id="g2726" transform="translate(0 .2486867)" stroke-width=".661333">
        <path id="path1830" d="m26.931648 38.346466s-1.474971 0.858543 1.050924 1.148207c3.060517 0.349422 4.624504 0.299101 7.996178-0.338233 0 0 0.888237 0.555659 2.126583 1.036905-7.561021 3.239341-17.111993-0.1877-11.173884-1.846905z" filter="url(#filter2698)" opacity=".2" style="mix-blend-mode:normal"/>
        <path id="path1832" d="m26.007104 34.118564s-1.654589 1.225053 0.873224 1.48628c3.269631 0.337544 5.850682 0.365228 10.319442-0.494829 0 0 0.616653 0.626394 1.587794 0.96872-9.140284 2.673505-19.320184 0.210337-12.780923-1.960191z" filter="url(#filter2694)" opacity=".2" style="mix-blend-mode:normal"/>
        <path id="path1834" d="m33.794962 26.945084c1.863968 2.145629-0.488764 4.07487-0.488764 4.07487s4.730184-2.441443 2.5583-5.500175c-2.029234-2.851139-3.584954-4.26745 4.837453-9.152188 8.6e-5 0-13.22137 3.301242-6.906962 10.577361z" filter="url(#filter2682)" opacity=".2" style="mix-blend-mode:normal"/>
        <path id="path1836" d="m43.79498 41.47391s1.091927 0.900141-1.202634 1.59626c-4.363145 1.321542-18.163513 1.720193-21.9966 0.05288-1.376895-0.599736 1.206404-1.430992 2.019182-1.606576 0.847499-0.183342 1.331396-0.149852 1.331396-0.149852-1.532441-1.079097-9.904785 2.119308-4.252173 3.036643 15.414351 2.498583 28.098719-1.12539 24.1003-2.929308z" filter="url(#filter2702)" opacity=".2" style="mix-blend-mode:normal"/>
        <path id="path1838" d="m27.641258 29.737232s-7.018728 1.667552-2.485422 2.273597c1.914692 0.256214 5.729393 0.197263 9.285117-0.101065 2.905236-0.243827 5.820789-0.765294 5.820789-0.765294s-1.023678 0.439125-1.764768 0.944912c-7.12917 1.875012-20.898125 1.001788-16.933433-0.915152 3.351305-1.621258 6.077519-1.437011 6.077519-1.437011z" filter="url(#filter2686)" opacity=".2" style="mix-blend-mode:normal"/>
        <path id="path1840" d="m40.23304 36.774477c7.246226-3.76444 3.895516-7.382461 1.556844-6.895058-0.571888 0.119351-0.828452 0.222724-0.828452 0.222724s0.213068-0.333788 0.61879-0.477397c4.62662-1.625821 8.183996 4.796715-1.491968 7.340136-8.6e-5 0 0.111236-0.100814 0.144806-0.190517z" filter="url(#filter2690)" opacity=".2" style="mix-blend-mode:normal"/>
        <path id="path1842" d="m35.864935 8.4793421s4.012175 4.0144899-3.806633 10.185852c-6.270165 4.952459-1.429604 7.775293-0.0022 11.001937-3.660346-3.302234-6.34516-6.209587-4.54435-8.91477 2.644473-3.970842 9.97158-5.896644 8.353298-12.273019z" filter="url(#filter2678)" opacity=".2" style="mix-blend-mode:normal"/>
        <path id="path1844" d="m28.353514 46.978847c6.953917 0.444594 17.635769-0.247412 17.888398-3.538198 0 0-0.485941 1.247472-5.747579 2.237289-5.935994 1.117521-13.259067 0.987437-17.600719 0.270565 0 0 0.889427 0.736196 5.459768 1.030291z" filter="url(#filter2706)" opacity=".2" style="mix-blend-mode:normal"/>
        <g id="g47" fill="#fff">
            <path id="path1848" d="m26.931648 37.867125s-1.474971 0.858542 1.050924 1.148206c3.060517 0.349422 4.624504 0.299101 7.996178-0.338232 0 0 0.888237 0.555659 2.126583 1.036904-7.561021 3.239342-17.111993-0.1877-11.173884-1.846905z"/>
            <path id="path1850" d="m26.007104 33.639222s-1.654589 1.225054 0.873224 1.48628c3.269631 0.337545 5.850682 0.365228 10.319442-0.494829 0 0 0.616653 0.626395 1.587794 0.968721-9.140284 2.673505-19.320184 0.210337-12.780923-1.960192z"/>
            <path id="path1852" d="m33.794962 26.465742c1.863968 2.145629-0.488764 4.07487-0.488764 4.07487s4.730184-2.441443 2.5583-5.500175c-2.029234-2.851139-3.584954-4.26745 4.837453-9.152188 8.6e-5 0-13.22137 3.301242-6.906962 10.577361z"/>
            <path id="path1854" d="m43.79498 40.994569s1.091927 0.90014-1.202634 1.596259c-4.363145 1.321542-18.163513 1.720194-21.9966 0.05288-1.376895-0.599737 1.206404-1.430993 2.019182-1.606577 0.847499-0.183341 1.331396-0.149851 1.331396-0.149851-1.532441-1.079098-9.904785 2.119308-4.252173 3.036643 15.414351 2.498582 28.098719-1.125391 24.1003-2.929309z"/>
            <path id="path1856" d="m27.641258 29.257891s-7.018728 1.667551-2.485422 2.273597c1.914692 0.256213 5.729393 0.197262 9.285117-0.101065 2.905236-0.243827 5.820789-0.765295 5.820789-0.765295s-1.023678 0.439125-1.764768 0.944913c-7.12917 1.875011-20.898125 1.001787-16.933433-0.915153 3.351305-1.621258 6.077519-1.437011 6.077519-1.437011z"/>
            <path id="path1858" d="m40.23304 36.295136c7.246226-3.76444 3.895516-7.382461 1.556844-6.895059-0.571888 0.119351-0.828452 0.222724-0.828452 0.222724s0.213068-0.333788 0.61879-0.477396c4.62662-1.625822 8.183996 4.796714-1.491968 7.340135-8.6e-5 0 0.111236-0.100813 0.144806-0.190517z"/>
            <path id="path1860" d="m35.864935 8.0000005s4.012175 4.0144905-3.806633 10.185852c-6.270165 4.952459-1.429604 7.775293-0.0022 11.001937-3.660346-3.302234-6.34516-6.209586-4.54435-8.914769 2.644473-3.970843 9.97158-5.896644 8.353298-12.27302z"/>
            <path id="path1862" d="m28.353514 46.499505c6.953917 0.444595 17.635769-0.247411 17.888398-3.538198 0 0-0.485941 1.247473-5.747579 2.23729-5.935994 1.11752-13.259067 0.987436-17.600719 0.270564 0 0 0.889427 0.736196 5.459768 1.030291z"/>
        </g>
    </g>
</svg>
