<svg id="svg290" version="1.1" viewBox="0 0 64 64" xmlns="http://www.w3.org/2000/svg" xmlns:xlink="http://www.w3.org/1999/xlink">
    <defs id="defs278">
        <style id="style266" type="text/css"/>
        <style id="style268" type="text/css"/>
        <filter id="filter1057" x="-.026999999" y="-.026999999" width="1.054" height="1.054" color-interpolation-filters="sRGB">
            <feGaussianBlur id="feGaussianBlur270" stdDeviation="0.61875"/>
        </filter>
        <linearGradient id="linearGradient1053" x1="-127" x2="-72" y1="60" y2="5" gradientTransform="translate(131.5 -.51)" gradientUnits="userSpaceOnUse">
            <stop id="stop273" stop-color="#205360" offset="0"/>
            <stop id="stop275" stop-color="#2d7385" stop-opacity=".99607843" offset="1"/>
        </linearGradient>
        <linearGradient id="linearGradient1841" x1="28.551" x2="28.551" y1="1052.4" y2="1004.4" gradientTransform="matrix(1.1667,0,0,1.1667,3.999865,-1167.7998)" gradientUnits="userSpaceOnUse">
            <stop id="stop1863" stop-color="#a6c208" offset="0"/>
            <stop id="stop1865" stop-color="#8db30b" offset="1"/>
        </linearGradient>
        <linearGradient id="linearGradient5986" x1="27.25" x2="27.25" y1="48.015625" y2="-.037262004" gradientTransform="matrix(1.1690506,0,0,1.1690506,7.3481377,3.9475846)" gradientUnits="userSpaceOnUse">
            <stop id="stop4579-4" stop-color="#e9b912" offset="0"/>
            <stop id="stop4581-8" stop-color="#edc919" offset=".69803011"/>
            <stop id="stop4577-2" stop-color="#f7e772" offset="1"/>
        </linearGradient>
        <filter id="filter2992" x="-.03193468" y="-.023386256" width="1.0638694" height="1.0467725" color-interpolation-filters="sRGB">
            <feGaussianBlur id="feGaussianBlur2994" stdDeviation="0.53593506"/>
        </filter>
    </defs>
    <rect id="rect280" x="4.5" y="4.5" width="55" height="55" ry="15" fill="#141414" filter="url(#filter1057)" opacity=".3" stroke-linecap="round" stroke-width="2.7444"/>
    <rect id="rect282" x="4.5" y="4.5" width="55" height="55" ry="15" fill="url(#linearGradient1053)" stroke-linecap="round" stroke-width="2.7444"/>
    <g fill="#5e4aa6">
        <circle id="circle284" cx="-1326.3" cy="-1241.6" r="0"/>
        <circle id="circle286" cx="-226.72" cy="23.855" r="0" fill-rule="evenodd"/>
        <g id="g1414" transform="translate(-36.134651,-102.18244)">
            <circle id="circle1402" cx="-964.82001" cy="-1279.3" r="0"/>
            <g id="g1412">
                <circle id="circle1404" cx="-846.37" cy="-1318.6" r="0"/>
                <circle id="circle1406" cx="253.17" cy="-53.109001" r="0" fill-rule="evenodd"/>
                <circle id="circle1408" cx="-767.87" cy="-1390.1" r="0"/>
                <circle id="circle1410" cx="331.67001" cy="-124.58" r="0" fill-rule="evenodd"/>
            </g>
        </g>
    </g>
    <path id="path1416" d="m19.917865 4.5001588c0.09394 0.17443 0.1714 0.37368 0.32031 0.45898 0.131 0.08 0.36048 0.05956 0.52148 0.10156 0.511 0.155 0.93609 0.43345 1.4961 0.31445 0.192-0.337-0.39388-0.43327-0.17188-0.69727 0.375 0.028 0.6163 0.19455 0.9043 0.31055 0.28802-0.2096 0.50323-0.2902 0.60156-0.48828h-3.6719zm-3.1992 0.53125c-0.47 0.102-0.45125 0.83656-0.90625 0.97656 0.061 0.34-0.40017 0.56694-0.45117 0.83594-0.035 0.181 0.05736 0.39264 0.06836 0.55664 0.105 1.667-1.2715 2.4512-2.8945 2.4062-0.318 0.3040002-0.24397 0.8691102-0.41797 1.2871002-0.146 0.35-0.65777 0.72727-1.0098 0.69727-0.259-0.017-0.55564-0.38495-0.55664-0.62695 0-0.298 0.43378-0.46078 0.17578-0.80078 0.037-0.232 0.55033-0.3644202 0.48633-0.7324202-0.065-0.384-0.60108-0.18514-1.0801-0.24414-0.348-0.045-0.80623-0.24602-1.1152-0.41602-0.0454-0.02515-0.08849-0.06016-0.13281-0.08984-1.3071 1.3066002-2.3637 2.8598002-3.1172 4.5781002 0.06868-0.01243 0.13996-0.03382 0.20508-0.03516v0.01563c0.077 0 0.15166-4.22e-4 0.22266 0.01758 0.315 0.085 1.1442 0.99502 0.44922 1.291-0.065 0.022-1.0166 0.13661-1.1816 0.09961-0.06971-0.01017-0.13126-0.04906-0.18945-0.0957-0.07621 0.22976-0.14369 0.46266-0.20898 0.69727 0.19297-0.10521 0.61169-0.22904 0.88477-0.21875 0.096 0 0.17298 0.01927 0.20898 0.07227-0.046 0.37-0.33995 0.34848-0.62695 0.52148-0.35209 0.21339-0.59528 0.50959-0.76562 0.89062-0.16839 0.90292-0.26562 1.832-0.26562 2.7852v5.6445c0.1761-0.7306 0.8434-1.1226 1.4141-1.459 0.288-0.17 0.51953-0.4668 0.76953-0.5918 0.353-0.177 0.6123-0.21881 0.9043-0.38281 0.528-0.297 0.98153-0.53509 1.3945-0.87109 0.19-0.45 0.01216-1.056 0.03516-1.5 0.19-0.114 0.35464 0.0573 0.55664 0.0293 0.319-0.071 0.34244-0.51631 0.52344-0.69531 0.104-0.1 0.39148-0.1763 0.52148-0.2793 0.318-0.248 0.42122-0.62152 0.69922-0.72852 0.099-0.034 0.33128-0.02813 0.48828-0.07813 0.207-0.06 0.49994-0.30002 0.83594-0.41602 0.218-0.08 0.71778-0.09178 0.80078-0.17578 0.103-0.1 0.0012-0.39964 0.03516-0.55664 0.169-0.786 1.3527-0.95475 2.0527-1.2188 0.491-0.188 0.99711-0.52492 1.5371-0.41992-0.106 0.374-0.61039 0.24227-0.52539 0.69727 0.12 0.63 0.96255-0.18534 1.1855-0.27734 0.425-0.18 1.15-0.28923 1.709-0.49023 0.489-0.179 1.3653-0.44977 0.9043-1.0098-0.385-0.017-0.5703 0.45075-0.9043 0.59375-0.232 0.03-0.18777-0.19294-0.38477-0.21094-0.187-0.015-0.29628 0.17458-0.48828 0.14258-0.192-0.03-0.46023-0.33359-0.49023-0.55859-0.076-0.581 0.49338-0.81991 0.73438-1.2539-0.16-0.526-0.88422-0.10345-1.3242-0.31445 0.042-0.313 0.36642-0.5318 0.73242-0.5918 0.3-0.054 0.97044-0.01337 1.1484 0.14062 0.105 0.089 0.01574 0.30712 0.17774 0.45312 0.178 0.161 0.395 0.14556 0.625 0.10156 0.084-0.396-0.51812-0.29559-0.45312-0.55859 0.47-0.308 1.2355-0.06062 1.8125-0.14062 0.331-0.053 0.68256-0.28517 0.97656-0.45117 0.28-0.158 0.64245-0.43578 0.93945-0.17578 0.08 0.285-0.25997 0.38144-0.41797 0.52344-0.534 0.474-1.084 1.0184-1.498 1.5684 0.254 0.249 0.72039 0.11983 1.1504 0.17383 0.168 0.015 0.37864 0.07661 0.55664 0.09961 0.207 0.032 0.42784 0.02326 0.58984 0.07226 0.294 0.077 0.37406 0.38672 0.66406 0.38672 0.476-1e-3 0.47898-0.51784 0.20898-0.83984 0.086-0.33 0.22147-0.49852 0.10547-0.72852-0.215-0.43-1.0039-5.94e-4 -1.0449-0.55859-0.025-0.348 0.29002-0.3318 0.41602-0.5918-0.057-0.671 0.55328-0.72222 0.48828-1.3242-0.027-0.252-0.23997-0.25228-0.41797-0.48828-0.091-0.119-0.13219-0.3601202-0.24219-0.4531202-0.364-0.308-1.1054-0.24794-1.1504-0.83594-0.017-0.347 0.08316-0.63472 0.03516-1.0117-0.045-0.352-0.2848-1.3256-0.5918-1.3926-0.389-0.087-0.79181 0.58173-1.2578 0.80273-0.253 0.117-0.61514 0.25403-0.86914 0.20703-0.166-0.028-0.49844-0.2718-0.52344-0.5918-0.028-0.366 0.2445-0.37362 0.3125-0.76562-0.058-0.23-0.29353-0.17561-0.51953-0.34961-0.256-0.194-0.46173-0.61511-0.80273-0.66211-0.17-0.017-0.39155 0.12467-0.56055 0.13867-0.518 0.031-0.96147-0.33314-1.3555-0.24414zm34.516 1.0684c0.03879 0.17059 0.09487 0.32565 0.11719 0.47656 0.03 0.196-0.02789 0.37159 0.03711 0.55859 0.115 0.326 0.57476 0.66406 1.0098 0.66406 0.3422 0 0.64562-0.22051 0.93164-0.42188-0.66028-0.48083-1.3593-0.90803-2.0957-1.2773zm-4.3398 1.1211c-0.179 0.232-0.49678 0.13714-0.80078 0.24414-0.246 0.087-0.70262 0.51306-0.76562 0.66406-0.105 0.248 0.025 0.52134 0 0.90234 0.198 0.087 0.32016 0.47611 0.66016 0.66211 0.128 0.076 0.30492 0.03952 0.41992 0.10352 0.199 0.106 0.35545 0.3595902 0.31445 0.5585902-0.059 0.286-0.43391 0.20302-0.62891 0.41602 0.034 0.405-0.28081 0.46338-0.38281 0.73438 0.061 0.171 0.31966 0.1417 0.34766 0.3457-0.039 0.222-0.43366 0.25624-0.34766 0.49024 0.374 0.29 0.75928-0.06652 1.1133-0.10352 0.78-0.095 1.5806 0.09766 2.0586-0.27734-0.065-0.372 0.38766-0.50489 0.34766-0.83789-0.03-0.25-0.44591-0.27817-0.62891-0.45117-0.098-0.092-0.12414-0.30828-0.24414-0.48828-0.137-0.2070002-0.40559-0.3536902-0.55859-0.5546902-0.205-0.272-0.625-0.66605-0.625-0.87305 3e-3 -0.237 0.29466-0.30095 0.34766-0.62695-0.06-0.3-0.61716-0.10187-0.66016-0.42188 0.023-0.197 0.20698-0.22922 0.20898-0.44922a0.245 0.245 0 0 0-0.12109-0.0332h-0.05469v-0.0039zm6.9668 0.85547c-0.527 0.25-0.89697 0.1778-1.043 0.5918-0.185 0.524 0.31719 0.90558 0.24219 1.3926002-0.079 0.511-1.1365 0.33392-1.6035 0.41992-0.35 0.065-0.47762 0.49094-0.76562 0.83594-0.2 0.24-0.57605 0.49995-0.87305 0.62695-0.145 0.068-0.31817 0.05758-0.45117 0.14258-0.196 0.126-0.26238 0.44375-0.48438 0.59375-0.16 0.103-0.77436 0.41397-0.94336 0.41797-0.198 0-0.38339-0.18458-0.52539-0.14258-0.21 0.071-0.18002 0.47459-0.41602 0.55859-0.462 0.163-1.2335-0.40966-1.3945 0.27734 0.198 0.399 0.69992 0.30444 1.0449 0.52344 0.218 0.136 0.67638 0.74256 0.73437 0.97656 0.048 0.197-0.02642 0.97459-0.10742 1.1836-0.215 0.556-0.71647 0.36361-1.3555 0.34961-0.175 0-0.36339 0.04834-0.52539 0.02734-1.079-0.079-2.1604-0.45355-2.6484 0.31445 0.04 0.591 0.1632 0.986 0.0332 1.5-0.096 0.378-0.43302 0.71792-0.41602 1.0449 8e-3 0.168 0.20414 0.32764 0.24414 0.55664 0.021 0.119-0.056 0.37828 0 0.48828 0.177 0.343 0.65961 0.05661 0.97461 0.09961 0.308 0.05 0.66706 0.49484 0.66406 0.83984-3e-3 0.24-0.23472 0.63814-0.38672 0.86914-0.304 0.462-0.71148 0.48542-1.1465 0.73242-0.364 0.206-0.51847 0.54825-0.73047 0.90625-0.231 0.387-0.3782 0.62259-0.2832 1.1836-0.311 0.618-0.77978 0.99802-1.4258 1.291-0.19 0.087-0.45391 0.11214-0.62891 0.24414-0.139 0.098-0.21802 0.36684-0.41602 0.58984-0.243 0.273-0.49991 0.3848-0.62891 0.5918-0.099 0.162-0.13514 0.48126-0.24414 0.69726-0.148 0.292-0.46611 0.43642-0.66211 0.73242-0.09 0.139-0.14319 0.4118-0.24219 0.5918-0.22 0.4-0.59959 0.69388-0.55859 1.0469 0.04 0.341 0.42712 0.40027 0.45312 0.69727 0.016 0.168-0.11247 0.27012-0.10547 0.45312 0.01 0.267 0.18994 0.45516 0.21094 0.66016 0.053 0.518-0.1823 0.72708-0.2793 1.0801-0.047 0.17-0.02631 0.35628-0.07031 0.48828-0.085 0.258-0.44612 0.49574-0.45312 0.80274-4e-3 0.218 0.22614 0.39126 0.24414 0.69726 0.013 0.21-0.10731 0.431-0.07031 0.625 0.074 0.38 0.74992 0.82219 1.0449 1.1172 0.394 0.394 0.91008 0.70023 1.0801 1.1152 0.144 0.353 0.14592 0.81408 0.41992 1.0801 0.203 0.195 0.54078 0.31844 0.80078 0.52344 0.243 0.188 0.50662 0.35464 0.76562 0.55664 0.425 0.332 1.0691 0.99045 1.7441 0.93945 0.353-0.018 0.71424-0.31181 1.1152-0.38281a5.675 5.675 0 0 1 1.3594-0.07227c0.318 0.03 0.64361 0.22303 0.97461 0.20703 0.349-0.014 0.75144-0.28012 1.1484-0.45312 0.687-0.3 1.7148-0.70169 2.7188-0.55469 0.765 0.106 0.72781 0.98727 1.2578 1.3223 0.615 0.056 1.1136-0.22361 1.5996-0.09961 0.368 0.092 0.80094 0.65041 0.83594 0.94141 0.037 0.303-0.16498 0.75245-0.20898 0.93945-0.096 0.406-0.09887 0.89044-0.17188 1.1484-0.057 0.2-0.21394 0.32639-0.21094 0.52539 4e-3 0.183 0.23292 0.62914 0.41992 0.86914 0.23 0.293 0.59309 0.51989 0.87109 0.83789 0.51 0.583 0.72708 1.2876 1.0801 2.0566 0.128 0.279 0.37581 0.71576 0.38281 1.0098 3e-3 0.217-0.12547 0.40695-0.10547 0.62695 0.044 0.467 0.33772 0.66908 0.38672 1.0801 0.114 0.968-0.76731 1.2587-0.94531 2.0547-0.042 0.19 0.0048 0.38759-0.03516 0.55859-0.06 0.258-0.24034 0.45326-0.27734 0.69726-8.37e-4 0.0055-0.0011 0.01577-2e-3 0.02148 2.8511-2.7273 4.6289-6.5665 4.6289-10.842v-19.301c-0.03188 0.0087-0.05846 0.02082-0.09766 0.02539-0.37 0.044-0.74786-0.37828-1.2559-0.48828-0.207-0.046-0.49816-0.01513-0.66016-0.07813-0.38-0.131-0.33511-0.50047-0.66211-0.73047a2.861 2.861 0 0 0-0.97461-0.34961c-0.187-0.015-0.36255 0.06425-0.56055 0.03125-0.233-0.02-0.56762-0.1915-0.76562-0.3125-0.189-0.11-0.576-0.28812-0.625-0.45312-0.074-0.257 0.46928-0.55053 0.48828-0.76953 0.012-0.164-0.20414-0.26848-0.24414-0.52148-0.024-0.155 0.06416-0.31402 0.03516-0.41602-0.051-0.18-0.34695-0.37977-0.62695-0.38477-0.249 0-0.48622 0.20198-0.69922 0.20898-0.306 0.014-0.80459-0.16862-1.1836-0.14063-0.232 0.013-0.44611 0.15488-0.66211 0.17188-0.607 0.05-1.1003-0.022-1.5703 0-0.342 0.016-0.93295 0.13425-1.252 0.28125-0.161 0.079-0.28124 0.24366-0.49024 0.34766-0.094 0.044-0.2217 0.04356-0.3457 0.10156-0.198 0.09-0.4038 0.30066-0.5918 0.34766-0.273 0.072-0.6945-0.0583-1.1875-0.0293-0.353 0.014-0.93345 0.01503-0.93945-0.41797-8e-3 -0.644 1.098-0.41044 1.707-0.52344 0.23-0.041 0.35391-0.25597 0.62891-0.41797 0.131-0.082 0.29497-0.08983 0.41797-0.17383 0.21-0.148 0.52564-0.49316 0.55664-0.66016 0.028-0.156-0.08831-0.37328-0.07031-0.48828 0.024-0.15 0.19576-0.30128 0.38476-0.48828 0.294-0.29 0.61461-0.68009 0.97461-0.87109 0.247-0.125 0.58326-0.11545 0.69726-0.31445 0.025-0.224-0.04016-0.35364-0.03516-0.55664 0.15-0.139 0.25486-0.25034 0.38086-0.27734 0.376-0.084 0.74855 0.25824 1.1855 0.24024 0.189 0 0.35559-0.14534 0.55859-0.27734 0.171-0.107 0.35448-0.19234 0.52148-0.27734 0.184-0.094 0.36975-0.30045 0.59375-0.31445 0.548-0.03 0.76077 0.57625 1.0098 0.90625 0.209 0.275 0.80644 0.74941 1.1484 0.94141 0.193 0.104 0.45206 0.10598 0.66406 0.20898 0.452 0.202 1.3424 0.88022 1.3574 1.3242 8e-3 0.221-0.20588 0.3878-0.17188 0.5918 0.343 0.06 0.72247-0.31811 0.73047-0.66211 7e-3 -0.214-0.21483-0.33064-0.17383-0.55664 0.16-0.346 0.63089 3.75e-4 0.83789-0.14062-0.04-0.39-0.57425-0.42691-0.90625-0.62891-0.18-0.104-0.30128-0.33997-0.48828-0.41797-0.27-0.105-0.55562-0.08119-0.76562-0.24219-0.197-0.153-0.29428-0.50142-0.48828-0.73242-0.283-0.337-0.90438-0.39039-0.73438-1.1504 0.074-0.098 0.24019-0.24991 0.36719-0.25391v0.01367h0.05273c0.259 0.067 0.22697 0.28592 0.41797 0.41992 0.139 0.094 0.33033 0.08078 0.48633 0.17578 0.183 0.109 0.28324 0.41584 0.49024 0.58984 0.292 0.245 0.80775 0.43391 1.2188 0.62891 0.386 0.184 1.0051 0.43362 1.0801 0.76562 0.043 0.188-0.06016 0.39659-0.03516 0.55859 0.02911 0.19436 0.16279 0.38833 0.26172 0.52539-0.0904-3.371-1.286-6.453-3.2344-8.9102-0.0085-1.1e-5 -0.0169 0.0042-0.02539 0.0039-0.26 0-0.52545-0.3184502-0.93945-0.3144502-0.212 0-0.37475 0.1557802-0.59375 0.1757802-0.276 0.022-0.71531-0.09145-0.69531-0.3144502 0.03-0.343 0.49862-0.06256 0.76562-0.10156 0.337-0.063 0.26123-0.33981 0.49023-0.38281 0.0765-0.013 0.14955 0.01733 0.23242 0.04883-0.14678-0.15805-0.28797-0.3211-0.44141-0.47266-0.18852 0.19749-0.70346 0.26817-0.97852 0.26562-0.028-0.315 0.04602-0.82977-0.20898-1.0098zm-9.25 1.3145v0.0098c-0.18 0-0.35891 0.03805-0.50391 0.12305-0.265 0.162-0.35164 0.41323-0.55664 0.4902302-0.282 0.103-0.48144 0.0153-0.52344 0.2793-0.035 0.214 0.17983 0.31853 0.17383 0.51953-0.103 0.257-0.40212 0.32086-0.45312 0.63086 0.352 0.575 1.2007 0.06388 1.6387-0.07813 0.197-0.063 0.4858-0.05403 0.5918-0.20703 0.121-0.183 0.01252-0.50153 0.10352-0.76953 0.102-0.292 0.38361-0.32884 0.34961-0.5898402-0.03-0.238-0.42631-0.4142-0.82031-0.4082zm-37.195 5.7188002v0.01367h0.10352c0.163 0.014 0.35964 0.19298 0.55664 0.20898 0.186 0.013 0.33912-0.10012 0.45312-0.07813 0.291 0.081 0.41167 0.52038 0.13867 0.73438-0.228 0.026-0.31433-0.09717-0.48633-0.07617-0.473 0.084-0.65577 1.0076-1.0098 0.97656-0.333-0.025-0.51478-0.83908-0.17578-1.0801 0.013-0.212-0.14967-0.24512-0.13867-0.45312 0.09-0.108 0.31659-0.23409 0.55859-0.24609zm2.6602 1.3691v2e-3c0.177 0 0.33425 0.02375 0.40625 0.09375-0.113 0.46-1.1018 0.33983-1.4648 0.17383 0.024-0.172 0.29348-0.22014 0.52148-0.24414 0.161-0.014 0.36011-0.02839 0.53711-0.02539zm43.211 0.83789c-0.263 0-0.42478 0.56-0.05078 0.625 0.16-0.093 0.28414-0.22944 0.24414-0.52344-0.066-0.077-0.13236-0.09766-0.19336-0.09766zm-45.471 0.01367c0.119 0 0.24123 0.0145 0.36523 0.0625-0.32 0.268-0.6707 0.4178-1.2207 0.5918-0.265 0.086-0.72062 0.18944-0.76562-0.10156-0.055-0.363 0.38495-0.2795 0.62695-0.3125 0.304-0.033 0.63714-0.21947 0.99414-0.23047v-0.0098zm45.402 0.9668c-0.133 0.014-0.2875 0.09009-0.4375 0.24609 0.01 0.39 0.0438 0.63661-0.0332 0.97461 0.225 0.43 0.72389 0.04486 0.83789-0.24414 0.124-0.664-0.07519-0.99656-0.36719-0.97656zm2.666 1.9277v2e-3c-0.222 0.014-0.42159 0.05611-0.55859 0.16211 0.256 0.418 0.78838 0.55616 1.3594 0.66016 0.206-0.155 0.2185-0.49962 0.3125-0.76562-0.313 0-0.74328-0.07459-1.1133-0.05859zm-51.385 5.578102v1.9297c0.02965 0.01086 0.06302 0.01748 0.0918 0.0293 0.305-0.252 0.041-0.71412 0-1.0781-0.018-0.161 0.017-0.30512 0-0.45312-0.01611-0.149123-0.05709-0.291133-0.0918-0.427743zm4.0527 11.066c-0.147 0-0.28025 0.1952-0.40625 0.2832-0.193 0.134-0.3778 0.26866-0.5918 0.34766-0.479 0.179-0.77639 0.0863-1.1504 0.2793-0.347 0.18-0.35964 0.47894-0.55664 0.83594-0.161 0.291-0.52853 0.71347-0.76953 0.73047-0.19963 0.01094-0.39095-0.18138-0.57812-0.3418v1.3457c0.06912 0.10327 0.13288 0.20863 0.16016 0.32227 0.107 0.433 0.05775 1.7254-0.03125 1.9844-0.02582 0.07538-0.07358 0.14017-0.12891 0.20117v1.6426c0 8.31 6.69 15 15 15h8.4766c0.36684-0.31902 0.46788-0.8607 0.72656-1.3379 0.153-0.282 0.35672-0.56953 0.38672-0.76953 0.027-0.18-0.06811-0.34169-0.03711-0.55469 0.03-0.21 0.2223-0.39595 0.2793-0.62695 0.076-0.302 0.10742-0.74408 0.10742-1.0801 0-0.277-0.12958-0.51958-0.14258-0.76758-0.045-0.904 0.33006-1.008 0.66406-1.5 0.167-0.245 0.22966-0.52031 0.34766-0.69531 0.561-0.838 1.5329-1.2438 1.4629-2.5098-0.023-0.42-0.2828-1.364-0.5918-1.498-0.176-0.08-0.57994-0.01456-0.83594-0.10156-0.824-0.307-1.3072-1.3305-2.1602-1.3945-0.182-0.014-0.35555 0.07917-0.56055 0.07617-0.338-0.014-0.84475-0.2363-1.2188-0.2793-0.237-0.02-0.55427 0.075-0.69727 0-0.218-0.1-0.24097-0.505-0.41797-0.625-0.141-0.094-0.41395-0.12394-0.62695-0.21094-0.343-0.127-0.61476-0.28645-1.0098-0.31445-0.123-0.014-0.27697 0.06225-0.41797 0.03125-0.22-0.03-0.38784-0.29592-0.58984-0.41992-0.253-0.154-0.48975-0.23312-0.59375-0.45312 0.229-0.75-0.40655-0.95958-0.56055-1.3926-0.072-0.204-0.03856-0.444-0.10156-0.625-0.09-0.26-0.34595-0.41091-0.62695-0.62891-0.504-0.386-0.95088-0.74889-1.6719-0.83789-0.317-0.032-0.63067 0.09422-1.0137 0.07422-0.405-0.018-0.91575-0.38447-1.2188-0.73047-0.295-0.34-0.44122-0.64269-0.69922-0.80469-0.243-0.155-0.56252-0.15159-0.72852-0.30859-0.074-0.076-0.06163-0.18856-0.14063-0.35156-0.122-0.253-0.32778-0.39231-0.17578-0.69531-0.278-0.146-0.28684 0.26098-0.58984 0.20898-0.271-0.385-0.50119-0.56612-1.1172-0.45312-0.28 0.058-0.43567 0.40897-0.76367 0.41797-0.27 0-0.48289-0.29961-0.83789-0.34961-0.268-0.032-0.57658 0.07825-0.76758 0.03125-0.297-0.064-0.38816-0.31028-0.66016-0.48828-0.199-0.13-0.58527-0.35261-0.69727-0.34961-0.35 0.014-0.59708 0.74428-1.0801 0.48828-0.236-0.297 0.38152-0.45442 0.10352-0.73242-0.053-0.053-0.10139-0.07426-0.15039-0.07227zm0.01953 1.4355c0.235 0.014 0.26834 0.50788 0.02734 0.54687-0.26 0.036-0.39067-0.40448-0.13867-0.52148 0.042-0.014 0.07733-0.02458 0.11133-0.01758v-0.0078z" fill="url(#linearGradient1841)" opacity=".8"/>
    <g id="g2036" transform="matrix(1.1 0 0 .44444 -462.70309 -106.25022)"/>
    <g id="g4076" transform="translate(-1163.3035,-716.61109)"/>
    <path id="path2990" d="m19.5 4.5c-2.472483 0-4.795532 0.6033733-6.847656 1.6542969 8.51479 6.3315981 15.925517 14.143946 21.798828 22.980469a81.161202 81.161202 0 0 1-19.738281 29.578125c1.503575 0.503381 3.109857 0.787109 4.787109 0.787109h1.285156a81.161202 81.161202 0 0 0 17.632813-23.748047c1.038767 2.000584 2.010693 4.121161 2.910156 6.109375l-7.408203 2.199219 14.490234 8.992187 4.519532-14.820312-5.546876 1.984375c-1.35701-3.235413-2.897736-6.391435-4.615234-9.451172-0.41387-0.714858-0.838321-1.425603-1.271484-2.128906a81.161202 81.161202 0 0 0 5.15625-23.966797c-0.704495-0.1006771-1.419145-0.1699219-2.152344-0.1699219h-4.710938a81.161202 81.161202 0 0 1-2.923828 17.326172c-4.846559-6.485205-10.552094-12.32644-16.919922-17.326172h-0.445312z" fill-rule="evenodd" filter="url(#filter2992)" opacity=".3"/>
    <path id="path3995-4" d="m19.5 4.5c-2.472483 0-4.795532 0.6033733-6.847656 1.6542969 8.51479 6.3315981 15.925517 14.143946 21.798828 22.980469a81.161202 81.161202 0 0 1-19.738281 29.578125c1.503575 0.503381 3.109857 0.787109 4.787109 0.787109h1.285156a81.161202 81.161202 0 0 0 17.632813-23.748047c1.038767 2.000584 2.010693 4.121161 2.910156 6.109375l-7.408203 2.199219 14.490234 8.992187 4.519532-14.820312-5.546876 1.984375c-1.35701-3.235413-2.897736-6.391435-4.615234-9.451172-0.41387-0.714858-0.838321-1.425603-1.271484-2.128906a81.161202 81.161202 0 0 0 5.15625-23.966797c-0.704495-0.1006771-1.419145-0.1699219-2.152344-0.1699219h-4.710938a81.161202 81.161202 0 0 1-2.923828 17.326172c-4.846559-6.485205-10.552094-12.32644-16.919922-17.326172h-0.445312z" fill="url(#linearGradient5986)" fill-rule="evenodd"/>
</svg>
