<svg id="svg290" version="1.1" viewBox="0 0 64 64" xmlns="http://www.w3.org/2000/svg">
  <defs id="defs278">
    <style id="style266" type="text/css"/>
    <style id="style268" type="text/css"/>
    <filter id="filter1057" x="-.026999999" y="-.026999999" width="1.054" height="1.054" color-interpolation-filters="sRGB">
      <feGaussianBlur id="feGaussianBlur270" stdDeviation="0.61875"/>
    </filter>
    <linearGradient id="linearGradient1053" x1="-127" x2="-72" y1="60" y2="5" gradientTransform="translate(131.5 -.51)" gradientUnits="userSpaceOnUse">
      <stop id="stop273" stop-color="#e4e4e4" offset="0"/>
      <stop id="stop275" stop-color="#f0f0f0" offset="1"/>
    </linearGradient>
  </defs>
  <rect id="rect280" x="4.5" y="4.5" width="55" height="55" ry="15" fill="#141414" filter="url(#filter1057)" opacity=".3" stroke-linecap="round" stroke-width="2.7444"/>
  <rect id="rect282" x="4.5" y="4.5" width="55" height="55" ry="15" fill="url(#linearGradient1053)" stroke-linecap="round" stroke-width="2.7444"/>
  <circle id="circle284" cx="-1326.3" cy="-1241.6" r="0" fill="#5e4aa6"/>
  <circle id="circle286" cx="-226.72" cy="23.855" r="0" fill="#5e4aa6" fill-rule="evenodd"/>
  <path id="path438" d="m23.371887 16.161116c-9.968 0.14-17.561 10.778-7.824 20.364l2.593 6.578c0.432 1.502-1.031 4.814-0.382 5.738 0.746-1.419 0.933-3.448 1.918-3.684 1.733 1.181 4.297 1.58 5.746 3.098 0.541-1.472-1.654-2.224-3.493-3.066 1.72 0.275 2.906-0.622 4.18 0.82 0.187-0.73-0.05-1.29-0.547-1.742l-0.777-1.02c1.437 0.735 5.015 0.728 5.836 2.016 0.317-2.438-2.69-1.604-4.11-2.332 0.92 0.11 1.837-0.332 2.747-0.211-0.245-0.684-0.661-0.977-1.282-0.926-4.883 1.12-5.228-6.824-5.16-9.078 1.587-0.648 3.155-1.145 4.692-1.156 4.812-0.034 9.14 2.168 13.136-1.328 1.727-2.483 9.473 4.401 11.668 9.894 3.28-1.337-6.695-10.459-9.414-12.82 1.166-2.982-2.353-7.062-6.414-7.145-0.887-0.018-1.8 0.277-2.695 0.696-3.518-3.216-6.813-4.747-10.418-4.696zm18.66 18a7 7 0 0 0-7 7 7 7 0 0 0 7 7 7 7 0 0 0 7-7 7 7 0 0 0-7-7zm-21.305 1.711c0.479-0.01 0.865 0.242 0.942 0.758l1.058 4.875c-0.571 0.159-0.819 0.71-0.707 1.703 0.243-0.275 0.341-0.745 0.899-0.594l1.312 1.625c-4.466 0.336-4.807-2.09-5.582-6.109 0.234-1.49 1.283-2.241 2.078-2.258z" opacity=".1"/>
  <circle id="circle440" cx="42.031887" cy="40.161114" r="7" fill="#343434"/>
  <path id="path442" d="m23.372887 15.161116c-9.968 0.14-17.563 10.777-7.826 20.363l2.595 6.58c0.432 1.502-1.031 4.811-0.383 5.735 0.747-1.419 0.934-3.446 1.918-3.682 1.734 1.18 4.296 1.58 5.745 3.099 0.541-1.473-1.654-2.226-3.493-3.069 1.72 0.276 2.907-0.62 4.181 0.822 0.187-0.73-0.049-1.288-0.546-1.741l-0.777-1.022c1.438 0.735 5.015 0.73 5.836 2.018 0.317-2.438-2.69-1.605-4.11-2.333 0.92 0.11 1.837-0.331 2.747-0.21-0.245-0.684-0.662-0.98-1.283-0.929-4.884 1.12-5.227-6.822-5.16-9.076 1.588-0.648 3.154-1.145 4.69-1.156 4.813-0.034 9.142 2.167 13.139-1.33 1.727-2.482 9.472 4.404 11.668 9.897 3.28-1.337-6.698-10.461-9.416-12.822 1.166-2.982-2.352-7.061-6.412-7.144-0.887-0.018-1.8 0.278-2.696 0.696-3.516-3.215-6.812-4.748-10.417-4.697zm-2.646 19.712c0.479-0.01 0.864 0.24 0.94 0.756l1.06 4.876c-0.572 0.159-0.82 0.71-0.707 1.704 0.243-0.276 0.34-0.747 0.898-0.595l1.314 1.626c-4.466 0.336-4.81-2.093-5.584-6.111 0.234-1.491 1.284-2.24 2.08-2.256z" fill="#343434"/>
  <path id="path444" d="m40.031887 25.161116a2.022 1.98 0 0 1-2.001 2 2.022 1.98 0 0 1-1.999-2c0-1.106 0.895-2 1.999-2 1.106 0 2 0.894 2 1.998z" opacity=".2"/>
  <path id="path446" d="m40.031887 24.161116a2.022 1.98 0 0 1-2.001 2 2.022 1.98 0 0 1-1.999-2c0-1.106 0.895-2 1.999-2 1.106 0 2 0.894 2 1.998z" fill="#fff"/>
  <path id="path448" d="m40.031887 24.912116a1.264 1.236 0 0 1-1.252 1.249 1.264 1.236 0 0 1-1.248-1.249 1.25 1.25 0 1 1 2.5 0z" fill="#343434"/>
</svg>
