<?xml version="1.0" encoding="UTF-8" standalone="no"?>
<svg
   id="svg72"
   version="1.1"
   viewBox="0 0 64 64"
   sodipodi:docname="koi.svg"
   inkscape:version="1.2 (dc2aedaf03, 2022-05-15)"
   xmlns:inkscape="http://www.inkscape.org/namespaces/inkscape"
   xmlns:sodipodi="http://sodipodi.sourceforge.net/DTD/sodipodi-0.dtd"
   xmlns:xlink="http://www.w3.org/1999/xlink"
   xmlns="http://www.w3.org/2000/svg"
   xmlns:svg="http://www.w3.org/2000/svg">
  <sodipodi:namedview
     id="namedview56"
     pagecolor="#ffffff"
     bordercolor="#666666"
     borderopacity="1.0"
     inkscape:showpageshadow="2"
     inkscape:pageopacity="0.0"
     inkscape:pagecheckerboard="0"
     inkscape:deskcolor="#d1d1d1"
     showgrid="false"
     inkscape:zoom="5.6568543"
     inkscape:cx="-8.4852813"
     inkscape:cy="12.551145"
     inkscape:window-width="1920"
     inkscape:window-height="1052"
     inkscape:window-x="0"
     inkscape:window-y="28"
     inkscape:window-maximized="1"
     inkscape:current-layer="svg72" />
  <defs
     id="defs18">
    <linearGradient
       id="linearGradient1910">
      <stop
         id="stop1906"
         stop-color="#f95"
         offset="0" />
      <stop
         id="stop1908"
         stop-color="#d45500"
         offset="1" />
    </linearGradient>
    <style
       id="style4"
       type="text/css" />
    <style
       id="style6"
       type="text/css" />
    <style
       id="style8"
       type="text/css" />
    <filter
       id="filter1057"
       x="-0.026999999"
       y="-0.026999999"
       width="1.054"
       height="1.054"
       color-interpolation-filters="sRGB">
      <feGaussianBlur
         id="feGaussianBlur1059"
         stdDeviation="0.61875" />
    </filter>
    <style
       id="style872"
       type="text/css" />
    <style
       id="style874"
       type="text/css" />
    <style
       id="style876"
       type="text/css" />
    <linearGradient
       id="linearGradient1825"
       x1="-127"
       x2="-72"
       y1="60"
       y2="5"
       gradientTransform="translate(228.02764,-14.019456)"
       gradientUnits="userSpaceOnUse"
       xlink:href="#linearGradient1910" />
    <linearGradient
       id="linearGradient1904"
       x1="78.856239"
       x2="131.81664"
       y1="32.149841"
       y2="13.325729"
       gradientUnits="userSpaceOnUse">
      <stop
         id="stop1898"
         stop-color="#333"
         offset="0" />
      <stop
         id="stop1900"
         offset="1" />
    </linearGradient>
    <linearGradient
       id="linearGradient1912"
       x1="-63.734924"
       x2="-118.62919"
       y1="24.300934"
       y2="44.11673"
       gradientTransform="translate(228.02764,-14.019456)"
       gradientUnits="userSpaceOnUse"
       xlink:href="#linearGradient1910" />
  </defs>
  <g
     id="g64"
     fill="#5e4aa6">
    <circle
       id="circle20"
       cx="-1248.7"
       cy="-1241.6"
       r="0" />
    <circle
       id="circle22"
       cx="-149.15"
       cy="23.855"
       r="0"
       fill-rule="evenodd" />
    <circle
       id="circle24"
       cx="-1248.7"
       cy="-1241.6"
       r="0" />
    <circle
       id="circle26"
       cx="-149.15"
       cy="23.855"
       r="0"
       fill-rule="evenodd" />
    <circle
       id="circle28"
       cx="-1150.9"
       cy="-1256.6"
       r="0" />
    <circle
       id="circle30"
       cx="-51.327"
       cy="8.8744"
       r="0"
       fill-rule="evenodd" />
    <g
       id="g62"
       transform="matrix(3.7796,0,0,3.7796,167.86,4.61)"
       stroke-width=".26458">
      <g
         id="g40"
         transform="translate(-.0272 .0065001)">
        <circle
           id="circle32"
           cx="-330.35"
           cy="-328.38"
           r="0" />
        <circle
           id="circle34"
           cx="-312.11"
           cy="-326.25"
           r="0" />
        <circle
           id="circle36"
           cx="-306.02"
           cy="-333.07"
           r="0" />
        <circle
           id="circle38"
           cx="-308.84"
           cy="-326.01"
           r="0" />
      </g>
      <g
         id="g50"
         transform="translate(-.0272 .0065001)">
        <circle
           id="circle42"
           cx="-330.35"
           cy="-328.38"
           r="0" />
        <circle
           id="circle44"
           cx="-312.11"
           cy="-326.25"
           r="0" />
        <circle
           id="circle46"
           cx="-306.02"
           cy="-333.07"
           r="0" />
        <circle
           id="circle48"
           cx="-308.84"
           cy="-326.01"
           r="0" />
      </g>
      <g
         id="g60"
         transform="translate(-.02705 .0064503)">
        <circle
           id="circle52"
           cx="-330.35"
           cy="-328.38"
           r="0" />
        <circle
           id="circle54"
           cx="-312.11"
           cy="-326.25"
           r="0" />
        <circle
           id="circle56"
           cx="-306.02"
           cy="-333.07"
           r="0" />
        <circle
           id="circle58"
           cx="-308.84"
           cy="-326.01"
           r="0" />
      </g>
    </g>
  </g>
  <rect
     id="rect1055"
     x="4.5"
     y="4.5"
     width="55"
     height="55"
     ry="15"
     fill="#141414"
     filter="url(#filter1057)"
     opacity=".3"
     stroke-linecap="round"
     stroke-width="2.74436" />
  <g
     id="g3328"
     transform="translate(-82.480259,10.132813)">
    <path
       id="path1894"
       d="m 107.48633,43.328125 c 0.59079,0.40883 1.21062,0.779678 1.85937,1.101563 -0.0313,-0.02208 -1.01554,-0.564165 -1.85937,-1.101563 z"
       fill="url(#linearGradient1825)"
       stroke-linecap="round"
       stroke-width="2.74436"
       style="fill:url(#linearGradient1825)" />
    <path
       id="rect1823"
       d="m 101.98026,-5.6327951 c -8.309991,0 -15.000001,6.6900088 -15.000001,15 V 34.367205 c 0,4.678878 2.12032,8.845016 5.45704,11.591797 -0.002,-0.0027 -0.008,-0.0071 -0.01,-0.0098 -0.38245,-0.510756 -0.1303,-0.107719 4.11523,-8.556641 4.245541,-8.448922 6.584691,-12.279316 22.052741,-21.365234 15.45392,-9.0776317 13.09416,-20.8866601 13.08984,-20.9082041 -1.47908,-0.4852544 -3.05959,-0.7519531 -4.70508,-0.7519531 z"
       fill="url(#linearGradient1904)"
       stroke-linecap="round"
       stroke-width="2.74436"
       style="fill:url(#linearGradient1904)" />
    <path
       id="path1075"
       d="m 124.35138,4.525686 c 0,0 -5.6899,2.8953824 -4.2635,5.491917 1.42639,2.596536 7.4217,-6.0466633 4.2635,-5.491917 z"
       fill="#d45500" />
    <path
       id="path5241-5-6"
       d="m 121.25851,-2.8118882 c 0,0 -5.86239,-2.5279377 -6.94884,0.2281865 -1.08646,2.7561264 9.39317,1.8472124 6.94884,-0.2281865 z"
       fill="#d45500" />
  </g>
  <g
     id="g3322"
     transform="translate(-96.52735,13.509783)">
    <path
       id="path1892"
       d="m 150.48438,-5.6640625 c 0.10919,0.1533737 0.0645,0.375363 0.0918,0.5625 1.35233,9.3024281 -9.13507,19.3919155 -21.14062,25.4042955 -12.24825,6.133921 -20.03128,24.1408 -20.03711,24.154298 1.99728,0.981057 4.24547,1.533203 6.6289,1.533203 h 25 c 8.30999,0 15,-6.690008 15,-15 V 5.9902335 c 0,-4.7175806 -2.15843,-8.908519 -5.54296,-11.654297 z"
       fill="url(#linearGradient1912)"
       stroke-linecap="round"
       stroke-width="2.74436"
       style="fill:url(#linearGradient1912)" />
    <g
       id="g2695"
       transform="rotate(180,120.68675,20.627399)"
       fill="#1a1a1a">
      <path
         id="path2689"
         d="m 124.35138,4.525686 c 0,0 -5.6899,2.8953824 -4.2635,5.491917 1.42639,2.596536 7.4217,-6.0466633 4.2635,-5.491917 z" />
      <path
         id="path2691"
         d="m 121.25851,-2.8118882 c 0,0 -5.86239,-2.5279377 -6.94884,0.2281865 -1.08646,2.7561264 9.39317,1.8472124 6.94884,-0.2281865 z" />
    </g>
  </g>
</svg>
