<?xml version="1.0" encoding="UTF-8" standalone="no"?>
<svg
   width="64"
   height="64"
   viewBox="0 0 16.933333 16.933334"
   version="1.1"
   id="svg8"
   inkscape:version="1.2 (dc2aedaf03, 2022-05-15)"
   sodipodi:docname="koko.svg"
   xml:space="preserve"
   xmlns:inkscape="http://www.inkscape.org/namespaces/inkscape"
   xmlns:sodipodi="http://sodipodi.sourceforge.net/DTD/sodipodi-0.dtd"
   xmlns="http://www.w3.org/2000/svg"
   xmlns:svg="http://www.w3.org/2000/svg"
   xmlns:rdf="http://www.w3.org/1999/02/22-rdf-syntax-ns#"
   xmlns:cc="http://creativecommons.org/ns#"
   xmlns:dc="http://purl.org/dc/elements/1.1/"><defs
     id="defs2"><filter
       id="filter2076"
       x="-0.048"
       y="-0.048"
       width="1.096"
       height="1.096"
       color-interpolation-filters="sRGB"><feGaussianBlur
         stdDeviation="1.1"
         id="feGaussianBlur161" /></filter><linearGradient
       id="linearGradient2070"
       x1="145"
       x2="200"
       y1="59"
       y2="4"
       gradientTransform="matrix(0.26458333,0,0,0.26458333,-33.450892,3.3356404)"
       gradientUnits="userSpaceOnUse"><stop
         stop-color="#ffc841"
         offset="0"
         id="stop154" /><stop
         stop-color="#ffbe37"
         offset=".4925"
         id="stop156" /><stop
         stop-color="#ffc841"
         offset="1"
         id="stop158" /></linearGradient><filter
       inkscape:collect="always"
       style="color-interpolation-filters:sRGB"
       id="filter1057"
       x="-0.026999999"
       width="1.054"
       y="-0.026999999"
       height="1.054"><feGaussianBlur
         inkscape:collect="always"
         stdDeviation="0.61875"
         id="feGaussianBlur1059" /></filter></defs><sodipodi:namedview
     id="base"
     pagecolor="#ffffff"
     bordercolor="#666666"
     borderopacity="1.0"
     inkscape:pageopacity="0.0"
     inkscape:pageshadow="2"
     inkscape:zoom="2.8"
     inkscape:cx="-50.178571"
     inkscape:cy="43.392857"
     inkscape:document-units="mm"
     inkscape:current-layer="layer1"
     inkscape:document-rotation="0"
     showgrid="false"
     units="px"
     inkscape:window-width="1920"
     inkscape:window-height="1015"
     inkscape:window-x="0"
     inkscape:window-y="28"
     inkscape:window-maximized="1"
     inkscape:showpageshadow="2"
     inkscape:pagecheckerboard="0"
     inkscape:deskcolor="#d1d1d1" /><metadata
     id="metadata5"><rdf:RDF><cc:Work
         rdf:about=""><dc:format>image/svg+xml</dc:format><dc:type
           rdf:resource="http://purl.org/dc/dcmitype/StillImage" /></cc:Work></rdf:RDF></metadata><g
     inkscape:label="图层 1"
     inkscape:groupmode="layer"
     id="layer1"><rect
       ry="15"
       y="4.5"
       x="4.5"
       height="55"
       width="55"
       id="rect1055"
       style="opacity:0.3;fill:#141414;fill-opacity:1;stroke-width:2.74436;stroke-linecap:round;filter:url(#filter1057)"
       transform="scale(0.26458333)" /><rect
       style="fill:#e7dfd7;fill-opacity:1;stroke-width:0.05291667;stroke-linecap:round;stroke:#a8a49d;stroke-opacity:1;stroke-dasharray:none"
       id="rect1045"
       width="14.552082"
       height="14.552082"
       x="1.1906254"
       y="1.1906255"
       ry="3.9687498" /><rect
       ry="2.2558064"
       y="3.175"
       x="3.175"
       height="10.583333"
       width="10.583333"
       id="rect3162"
       style="fill:#a69782;fill-opacity:1;stroke-width:0.528082;stroke-linecap:round" /><path
       id="path2904"
       style="fill:#1e1816;stroke:none;stroke-width:0.146991"
       d="m 5.4306762,3.1750001 c -1.249715,0 -2.255676,1.0059608 -2.255676,2.2556763 v 6.0719806 c 0,1.249716 1.005961,2.255677 2.255676,2.255677 h 0.757577 C 5.7171772,11.996151 5.9942402,11.202795 6.4822922,9.4955448 4.0140122,10.095722 3.2899572,6.489316 4.7681842,4.9872926 6.2129272,3.5192799 11.725509,3.1118432 12.540837,5.5273113 c 0.452568,1.34076 -0.852077,2.5667387 -1.098125,3.6876305 -0.128288,0.584478 0.55812,1.1906762 0.694015,1.7507972 0.229543,0.946171 -0.06924,1.829821 -0.209806,2.752804 1.045416,-0.197503 1.831412,-1.111347 1.831412,-2.215886 V 5.4306764 c 0,-1.2497155 -1.00596,-2.2556763 -2.255676,-2.2556763 z m 2.668571,2.2050334 0.294039,0.587561 -3.233911,0.5880778 v 0.1472778 l 0.882117,-0.1472778 c -0.213459,0.2507365 -0.470934,0.480666 -0.662492,0.7487915 -0.376987,0.5277255 -0.442035,1.713328 0.517798,1.499133 1.051865,-0.234713 1.585932,-1.4625885 2.643249,-1.62419 0.886795,-0.1355409 2.4621808,1.309874 3.1248738,0.835608 0.409912,-0.293364 0.436581,-1.6987056 0.549837,-2.1941814 -1.126507,-0.4722367 -2.125822,-0.00831 -3.2339108,0.2940389 l 0.294039,-0.7348388 z m 1.763717,1.3229166 h 0.5880778 l -0.147278,0.4408 h -0.293522 z m -2.645834,0.1467611 h 0.294039 v 0.4408 z m 3.6747118,0 H 11.18588 L 10.891842,7.1437501 Z M 6.9230922,6.996989 V 7.1437501 L 6.7763312,7.437789 6.3350142,7.2905112 Z m 3.2178908,2.0923788 c -0.1756518,0.00659 -0.3664108,0.052034 -0.5720578,0.112138 l 0.147278,0.441317 1.1756388,-0.147278 c -0.207367,-0.319806 -0.458105,-0.41716 -0.750859,-0.406177 z m -2.6298138,0.112138 v 0.441317 c 0.88844,0.01053 1.24188,0.351126 1.910995,0.8816002 C 9.0558082,9.4110728 8.6579752,9.2023878 7.5111692,9.2015058 Z m 2.205034,0.588078 0.146761,0.146761 z m -0.038241,2.1145992 c -0.705768,0.0136 -1.393277,0.26793 -2.166793,0.531234 v 0.146761 L 11.18588,12.288656 C 10.652119,11.998608 10.160856,11.894881 9.6779622,11.904183 Z m -2.509924,0.727088 0.098185,0.04909 z" /><text
       xml:space="preserve"
       style="font-style:normal;font-variant:normal;font-weight:800;font-stretch:normal;font-size:1.64816px;line-height:1.25;font-family:'SF Pro Rounded';-inkscape-font-specification:'SF Pro Rounded Ultra-Bold';fill:#000000;fill-opacity:1;stroke:none;stroke-width:0.041204"
       x="6.4640074"
       y="15.356475"
       id="text8327"><tspan
         sodipodi:role="line"
         id="tspan8325"
         style="font-style:normal;font-variant:normal;font-weight:600;font-stretch:normal;font-family:'SF Pro Rounded';-inkscape-font-specification:'SF Pro Rounded Semi-Bold';fill:#e80a0a;fill-opacity:1;stroke-width:0.041204"
         x="6.4640074"
         y="15.356475">KoKo</tspan></text></g></svg>
