<svg id="svg5" version="1.1" viewBox="0 0 64 64" xmlns="http://www.w3.org/2000/svg">
  <defs id="defs3">
    <style id="style1" type="text/css"/>
    <style id="style2" type="text/css"/>
    <filter id="filter1057" x="-.026999999" y="-.026999999" width="1.054" height="1.054" color-interpolation-filters="sRGB">
      <feGaussianBlur id="feGaussianBlur2" stdDeviation="0.61875"/>
    </filter>
    <linearGradient id="linearGradient1053" x1="-127" x2="-72" y1="60" y2="5" gradientTransform="translate(131.5 -.51)" gradientUnits="userSpaceOnUse">
      <stop id="stop2" stop-color="#902a97" offset="0"/>
      <stop id="stop3" stop-color="#6f42cc" offset="1"/>
    </linearGradient>
    <filter id="filter54" x="-.019959814" y="-.037021331" width="1.0399196" height="1.0740427" color-interpolation-filters="sRGB">
      <feGaussianBlur id="feGaussianBlur54" stdDeviation="0.4828332"/>
    </filter>
  </defs>
  <rect id="rect3" x="4.5" y="4.5" width="55" height="55" ry="15" fill="#141414" filter="url(#filter1057)" opacity=".3" stroke-linecap="round" stroke-width="2.7444"/>
  <rect id="rect4" x="4.5" y="4.5" width="55" height="55" ry="15" fill="url(#linearGradient1053)" stroke-linecap="round" stroke-width="2.7444"/>
  <circle id="circle4" cx="-1326.3" cy="-1241.6" r="0" fill="#5e4aa6"/>
  <circle id="circle5" cx="-226.72" cy="23.855" r="0" fill="#5e4aa6" fill-rule="evenodd"/>
  <g fill="#fafafa">
    <path id="path17" d="m17.686705 17.600936a0.5 0.5 0 1 0 0 1 0.5 0.5 0 1 0 0-1z"/>
    <path id="path18" d="m25.207151 22.317074 0.231 1.591c0.011 0.073 0.044 0.14 0.097 0.193 0.053 0.052 0.12 0.087 0.193 0.097l1.59 0.23-1.591 0.231c-0.073 0.011-0.14 0.044-0.193 0.097-0.052 0.052-0.087 0.12-0.097 0.193l-0.23 1.59-0.231-1.591c-0.011-0.073-0.044-0.14-0.097-0.193-0.053-0.052-0.12-0.087-0.193-0.097l-1.59-0.23 1.591-0.231c0.073-0.011 0.14-0.044 0.193-0.097 0.052-0.052 0.087-0.12 0.097-0.193z"/>
    <path id="path19" d="m42.360964 35.32154a0.5 0.5 0 1 0 0 1 0.5 0.5 0 1 0 0-1z"/>
    <path id="path21" d="m39.893538 17.825247a0.5 0.5 0 1 0 0 1 0.5 0.5 0 1 0 0-1z"/>
    <path id="path22" d="m42.893538 14.214247 0.231 1.591c0.011 0.073 0.044 0.14 0.097 0.193 0.053 0.052 0.12 0.087 0.193 0.097l1.59 0.23-1.591 0.231c-0.073 0.011-0.14 0.044-0.193 0.097-0.052 0.052-0.087 0.12-0.097 0.193l-0.23 1.59-0.231-1.591c-0.011-0.073-0.044-0.14-0.097-0.193-0.053-0.052-0.12-0.087-0.193-0.097l-1.59-0.23 1.591-0.231c0.073-0.011 0.14-0.044 0.193-0.097 0.052-0.052 0.087-0.12 0.097-0.193z"/>
    <path id="path23" d="m10.957362 47.434358a0.5 0.5 0 1 0 0 1 0.5 0.5 0 1 0 0-1z"/>
    <path id="path25" d="m23.294491 47.882981a0.5 0.5 0 1 0 0 1 0.5 0.5 0 1 0 0-1z"/>
    <path id="path26" d="m23.122248 52.281894 0.231 1.591c0.011 0.073 0.044 0.14 0.097 0.193 0.053 0.052 0.12 0.087 0.193 0.097l1.59 0.23-1.591 0.231c-0.073 0.011-0.14 0.044-0.193 0.097-0.052 0.052-0.087 0.12-0.097 0.193l-0.23 1.59-0.231-1.591c-0.011-0.073-0.044-0.14-0.097-0.193-0.053-0.052-0.12-0.087-0.193-0.097l-1.59-0.23 1.591-0.231c0.073-0.011 0.14-0.044 0.193-0.097 0.052-0.052 0.087-0.12 0.097-0.193z"/>
    <path id="path27" d="m23.294491 39.882981a0.5 0.5 0 1 0 0 1 0.5 0.5 0 1 0 0-1z"/>
    <path id="path28" d="m29.466734 37.858102 0.231 1.591c0.011 0.073 0.044 0.14 0.097 0.193 0.053 0.052 0.12 0.087 0.193 0.097l1.59 0.23-1.591 0.231c-0.073 0.011-0.14 0.044-0.193 0.097-0.052 0.052-0.087 0.12-0.097 0.193l-0.23 1.59-0.231-1.591c-0.011-0.073-0.044-0.14-0.097-0.193-0.053-0.052-0.12-0.087-0.193-0.097l-1.59-0.23 1.591-0.231c0.073-0.011 0.14-0.044 0.193-0.097 0.052-0.052 0.087-0.12 0.097-0.193z"/>
    <path id="path29" d="m33.294491 45.882981a0.5 0.5 0 1 0 0 1 0.5 0.5 0 1 0 0-1z"/>
    <path id="path31" d="m33.294491 55.882981a0.5 0.5 0 1 0 0 1 0.5 0.5 0 1 0 0-1z"/>
    <path id="path32" d="m37.64036 49.019465 0.231 1.591c0.011 0.073 0.044 0.14 0.097 0.193 0.053 0.052 0.12 0.087 0.193 0.097l1.59 0.23-1.591 0.231c-0.073 0.011-0.14 0.044-0.193 0.097-0.052 0.052-0.087 0.12-0.097 0.193l-0.23 1.59-0.231-1.591c-0.011-0.073-0.044-0.14-0.097-0.193-0.053-0.052-0.12-0.087-0.193-0.097l-1.59-0.23 1.591-0.231c0.073-0.011 0.14-0.044 0.193-0.097 0.052-0.052 0.087-0.12 0.097-0.193z"/>
    <path id="path33" d="m47.294491 55.882981a0.5 0.5 0 1 0 0 1 0.5 0.5 0 1 0 0-1z"/>
    <path id="path34" d="m54.368305 51.439085 0.231 1.591c0.011 0.073 0.044 0.14 0.097 0.193 0.053 0.052 0.12 0.087 0.193 0.097l1.59 0.23-1.591 0.231c-0.073 0.011-0.14 0.044-0.193 0.097-0.052 0.052-0.087 0.12-0.097 0.193l-0.23 1.59-0.231-1.591c-0.011-0.073-0.044-0.14-0.097-0.193-0.053-0.052-0.12-0.087-0.193-0.097l-1.59-0.23 1.591-0.231c0.073-0.011 0.14-0.044 0.193-0.097 0.052-0.052 0.087-0.12 0.097-0.193z"/>
    <path id="path35" d="m47.294491 45.882981a0.5 0.5 0 1 0 0 1 0.5 0.5 0 1 0 0-1z"/>
    <path id="path36" d="m53.547007 38.122219 0.231 1.591c0.011 0.073 0.044 0.14 0.097 0.193 0.053 0.052 0.12 0.087 0.193 0.097l1.59 0.23-1.591 0.231c-0.073 0.011-0.14 0.044-0.193 0.097-0.052 0.052-0.087 0.12-0.097 0.193l-0.23 1.59-0.231-1.591c-0.011-0.073-0.044-0.14-0.097-0.193-0.053-0.052-0.12-0.087-0.193-0.097l-1.59-0.23 1.591-0.231c0.073-0.011 0.14-0.044 0.193-0.097 0.052-0.052 0.087-0.12 0.097-0.193z"/>
    <path id="path37" d="m33.294491 27.882981a0.5 0.5 0 1 0 0 1 0.5 0.5 0 1 0 0-1z"/>
    <path id="path39" d="m9.294491 27.882981a0.5 0.5 0 1 0 0 1 0.5 0.5 0 1 0 0-1z"/>
    <path id="path40" d="m11.50143 19.434311 0.231 1.591c0.011 0.073 0.044 0.14 0.097 0.193 0.053 0.052 0.12 0.087 0.193 0.097l1.59 0.23-1.591 0.231c-0.073 0.011-0.14 0.044-0.193 0.097-0.052 0.052-0.087 0.12-0.097 0.193l-0.23 1.59-0.231-1.591c-0.011-0.073-0.044-0.14-0.097-0.193-0.053-0.052-0.12-0.087-0.193-0.097l-1.5899997-0.23 1.5909997-0.231c0.073-0.011 0.14-0.044 0.193-0.097 0.052-0.052 0.087-0.12 0.097-0.193z"/>
    <path id="path41" d="m11.294491 37.882981a0.5 0.5 0 1 0 0 1 0.5 0.5 0 1 0 0-1z"/>
    <path id="path42" d="m14.294491 34.271981 0.231 1.591c0.011 0.073 0.044 0.14 0.097 0.193 0.053 0.052 0.12 0.087 0.193 0.097l1.59 0.23-1.591 0.231c-0.073 0.011-0.14 0.044-0.193 0.097-0.052 0.052-0.087 0.12-0.097 0.193l-0.23 1.59-0.231-1.591c-0.011-0.073-0.044-0.14-0.097-0.193-0.053-0.052-0.12-0.087-0.193-0.097l-1.59-0.23 1.591-0.231c0.073-0.011 0.14-0.044 0.193-0.097 0.052-0.052 0.087-0.12 0.097-0.193z"/>
    <path id="path43" d="m11.294491 11.882981a0.5 0.5 0 1 0 0 1 0.5 0.5 0 1 0 0-1z"/>
    <path id="path44" d="m17.783958 7.5582264 0.231 1.591c0.011 0.073 0.044 0.14 0.097 0.193 0.053 0.052 0.12 0.087 0.193 0.097l1.59 0.23-1.591 0.231c-0.073 0.011-0.14 0.044-0.193 0.097-0.052 0.052-0.087 0.1199996-0.097 0.1929996l-0.23 1.59-0.231-1.591c-0.011-0.073-0.044-0.14-0.097-0.1929996-0.053-0.052-0.12-0.087-0.193-0.097l-1.59-0.23 1.591-0.231c0.073-0.011 0.14-0.044 0.193-0.097 0.052-0.052 0.087-0.12 0.097-0.193z"/>
    <path id="path45" d="m31.294491 11.882981a0.5 0.5 0 1 0 0 1 0.5 0.5 0 1 0 0-1z"/>
    <path id="path46" d="m34.294491 8.271981 0.231 1.591c0.011 0.073 0.044 0.14 0.097 0.193 0.053 0.052 0.12 0.087 0.193 0.097l1.59 0.23-1.591 0.231c-0.073 0.011-0.14 0.044-0.193 0.097-0.052 0.052-0.087 0.12-0.097 0.193l-0.23 1.59-0.231-1.591c-0.011-0.073-0.044-0.14-0.097-0.193-0.053-0.052-0.12-0.087-0.193-0.097l-1.59-0.23 1.591-0.231c0.073-0.011 0.14-0.044 0.193-0.097 0.052-0.052 0.087-0.12 0.097-0.193z"/>
    <path id="path47" d="m49.294491 15.882981a0.5 0.5 0 1 0 0 1 0.5 0.5 0 1 0 0-1z"/>
    <path id="path48" d="m52.393046 10.221528 0.231 1.591c0.011 0.073 0.044 0.14 0.097 0.193 0.053 0.052 0.12 0.087 0.193 0.097l1.59 0.23-1.591 0.230999c-0.073 0.011-0.14 0.044-0.193 0.097-0.052 0.052-0.087 0.12-0.097 0.193l-0.23 1.59-0.231-1.591c-0.011-0.073-0.044-0.14-0.097-0.193-0.053-0.052-0.12-0.087-0.193-0.097l-1.59-0.229999 1.591-0.231c0.073-0.011 0.14-0.044 0.193-0.097 0.052-0.052 0.087-0.12 0.097-0.193z"/>
    <path id="path49" d="m54.052855 31.451754a0.5 0.5 0 1 0 0 1 0.5 0.5 0 1 0 0-1z"/>
    <path id="path50" d="m51.025594 19.672229 0.231 1.591c0.011 0.073 0.044 0.14 0.097 0.193 0.053 0.052 0.12 0.087 0.193 0.097l1.59 0.23-1.591 0.231c-0.073 0.011-0.14 0.044-0.193 0.097-0.052 0.052-0.087 0.12-0.097 0.193l-0.23 1.59-0.231-1.591c-0.011-0.073-0.044-0.14-0.097-0.193-0.053-0.052-0.12-0.087-0.193-0.097l-1.59-0.23 1.591-0.231c0.073-0.011 0.14-0.044 0.193-0.097 0.052-0.052 0.087-0.12 0.097-0.193z"/>
    <path id="path52" d="m26.315557 31.689672a0.5 0.5 0 1 0 0 1 0.5 0.5 0 1 0 0-1z"/>
    <path id="path53" d="m44.315557 27.689672a0.5 0.5 0 1 0 0 1 0.5 0.5 0 1 0 0-1z"/>
  </g>
  <g id="text54" filter="url(#filter54)" opacity=".4">
    <path id="path56" d="m24.544193 46.784598q-0.228628 0-0.101613-0.355644 0.152419-0.33024 0.279434-0.609674 0.228628-0.457256 0.228628-1.422574 0-0.838302-0.304837-1.80362t-1.193946-1.752814q-1.219348-1.117736-2.743534-1.778217-1.524186-0.66048-3.200791-1.06693-1.651201-0.406449-3.277-0.711286-0.990721 1.371767-2.13386 2.4641-1.117736 1.092333-2.3878913 1.676605-0.7112868 0.33024-1.3717674 0.482659-0.6604806 0.177821-1.2447518 0.177821-1.4225736 0-2.3370851-0.762093-0.8891085-0.73669-0.8891085-1.752814 0-0.965317 0.8637054-1.879829 0.8891084-0.939915 2.9213563-1.549589 0.8128992-0.228628 1.8036201-0.33024 0.9907213-0.127016 2.0576513-0.127016 0.66048 0 1.295558 0.05081 0.66048 0.0254 1.219349 0.152419 0.736689-1.117736 1.371767-2.311682 0.635077-1.219349 1.320961-2.641922-2.006845 0.05081-3.480225-0.584272-1.473379-0.66048-2.286278-1.752813-0.787497-1.092334-0.787497-2.337085 0-1.016124 0.584272-1.981442 0.584271-0.990721 1.829023-1.778217 1.270155-0.812899 3.226193-1.270155 0.127016-0.05081 0.228628-0.05081 0.127016 0 0.228628 0 0.381047 0 0.381047 0.152418 0 0.254031-0.812899 0.355644-1.320962 0.152418-2.337086 0.939914-0.99072 0.787496-1.549589 1.87983-0.533465 1.092333-0.533465 2.210069 0 0.965318 0.457256 1.80362 0.457256 0.838303 1.447977 1.371768 0.990721 0.508062 2.565713 0.508062 0.558868 0 1.193945-0.07621 0.101613-0.203224 0.330241-0.812899 0.254031-0.635077 0.558868-1.422573t0.584271-1.524186q0.304837-0.73669 0.482659-1.219349 0.203225-0.508062 0.203225-0.508062 1.168542-2.921356 2.387891-4.572558 1.244752-1.676604 2.387891-2.362488 1.168543-0.685884 2.083055-0.685884 0.99072 0 1.625798 0.584272 0.66048 0.584271 0.711287 1.320961 0.0254 0.228628 0.0254 0.33024t0 0.254031q0 1.498783-0.609675 2.997566-0.584271 1.498782-1.651201 2.845147-1.041527 1.346364-2.413294 2.438697-1.346365 1.092334-2.895954 1.829023-1.524186 0.73669-3.099178 1.016124-0.381046 0.762093-0.685884 1.371768-0.279434 0.584271-0.635077 1.270155-0.355643 0.685883-0.939915 1.752813-0.177821 0.330241-0.279434 0.482659-0.07621 0.127016-0.254031 0.40645 1.270155 0.304837 2.768938 0.863705 1.498783 0.533465 2.94676 1.295558 1.473379 0.73669 2.616519 1.625799 1.422573 1.092333 2.006845 2.4641 0.609674 1.371768 0.609674 2.413295 0 0.73669-0.228628 1.117736-0.33024 0.558868-0.66048 0.711287-0.330241 0.177822-0.508062 0.177822zm-6.401581-16.63903q1.72741-0.381047 3.378612-1.371768 1.651201-1.016124 2.972162-2.438697 1.320961-1.447977 2.108458-3.124581 0.787496-1.702008 0.787496-3.454822 0-0.431853-0.228628-0.711287t-0.660481-0.279434q-0.584271 0-1.498783 0.660481-0.914511 0.635077-2.083054 2.159263-1.168542 1.498783-2.514907 4.140705 0 0-0.355643 0.660481-0.33024 0.660481-0.863705 1.676605-0.508062 0.99072-1.041527 2.083054zm-11.405992 11.202766q0.5588682 0 1.1939456-0.152418 0.6604806-0.152419 1.3717674-0.482659 2.1338599-1.041527 3.9374799-3.60724-0.584271-0.127016-1.219348-0.177822-0.635078-0.07621-1.295558-0.07621-0.685884 0-1.4225739 0.07621-0.7112868 0.07621-1.3971705 0.279434-1.7020076 0.457256-2.6165192 1.168543-0.8891084 0.711287-0.8891084 1.447976 0 0.635078 0.6350774 1.066931 0.6350775 0.457255 1.7020077 0.457255zm22.354716-2.159263q-0.279434 0.0254-0.635077-0.127016-0.355643-0.152418-0.635077-0.558868-0.254031-0.406449-0.254031-1.143139 0-0.609675 0.228627-1.47338-0.304837 0.482659-0.787496 1.193946-0.482659 0.685883-1.041527 1.219348-0.482659 0.457256-0.914511 0.660481-0.431853 0.203225-0.787496 0.203225-0.660481 0-1.06693-0.584271-0.40645-0.609675-0.40645-1.574993 0-1.016124 0.508062-2.311682t1.651201-2.692728q0.73669-0.889109 1.778217-1.422574 1.06693-0.558868 2.083054-0.558868 0.584272 0 1.117737 0.203225 0.533465 0.177822 0.939914 0.609674 0.177822 0.177822 0.177822 0.40645 0 0.152419-0.127015 0.254031-0.127016 0.101612-0.330241 0.05081-0.279434-0.889108-1.193945-0.889108-0.431853 0-0.990721 0.279434-0.863706 0.457256-1.80362 1.498783-0.914512 1.041527-1.600395 2.159263-0.101613 0.152419-0.330241 0.584271-0.203225 0.431853-0.406449 0.965318-0.203225 0.533465-0.279434 1.041527-0.0254 0.152419-0.0254 0.228628 0 0.05081 0 0.177822 0 0.838302 0.635078 0.838302 0.762093 0 1.727411-1.117736 0.66048-0.8129 1.193945-1.702008 0.533465-0.889109 1.092334-1.905232 0.381046-0.685884 0.711286-1.14314 0.330241-0.457256 0.939915-0.457256 0.279434 0 0.558868 0.07621t0.584272 0.0254q-0.203225 0.203224-0.558869 0.762093-0.33024 0.558868-0.711286 1.270155-0.381047 0.711286-0.685884 1.447976t-0.431853 1.270155q-0.0254 0.152419-0.07621 0.431853-0.0254 0.279434-0.0254 0.406449 0 0.711287 0.406449 0.711287 0.40645 0 0.863706-0.482659 0.482659-0.482659 0.939914-1.193945 0.457256-0.711287 0.838303-1.422574 0.381046-0.73669 0.609674-1.193945 0.101612-0.254031 0.304837-0.254031 0.127016 0 0.127016 0.177821 0 0.07621-0.07621 0.279434-0.304837 0.635078-0.736689 1.447977-0.431853 0.787496-0.939915 1.549589-0.508062 0.73669-1.06693 1.244752-0.533465 0.482659-1.092334 0.533465zm22.583338 7.595527q-0.228628 0-0.101612-0.355644 0.152418-0.33024 0.279434-0.609674 0.228628-0.457256 0.228628-1.422574 0-0.838302-0.304837-1.80362-0.304838-0.965318-1.193946-1.752814-1.219349-1.117736-2.743535-1.778217-1.524186-0.66048-3.20079-1.06693-1.651202-0.406449-3.277-0.711286-0.990721 1.371767-2.13386 2.4641-1.117737 1.092333-2.387892 1.676605-0.711286 0.33024-1.371767 0.482659-0.660481 0.177821-1.244752 0.177821-1.422573 0-2.337085-0.762093-0.889108-0.73669-0.889108-1.752814 0-0.965317 0.863705-1.879829 0.889108-0.939915 2.921356-1.549589 0.8129-0.228628 1.80362-0.33024 0.990721-0.127016 2.057651-0.127016 0.660481 0 1.295558 0.05081 0.660481 0.0254 1.219349 0.152419 0.73669-1.117736 1.371768-2.311682 0.635077-1.219349 1.320961-2.641922-2.006845 0.05081-3.480225-0.584272-1.47338-0.66048-2.286279-1.752813-0.787496-1.092334-0.787496-2.337085 0-1.016124 0.584271-1.981442 0.584272-0.990721 1.829024-1.778217 1.270155-0.812899 3.226193-1.270155 0.127016-0.05081 0.228628-0.05081 0.127016 0 0.228628 0 0.381046 0 0.381046 0.152418 0 0.254031-0.812899 0.355644-1.320961 0.152418-2.337085 0.939914-0.990721 0.787496-1.549589 1.87983-0.533465 1.092333-0.533465 2.210069 0 0.965318 0.457256 1.80362 0.457256 0.838303 1.447976 1.371768 0.990721 0.508062 2.565713 0.508062 0.558869 0 1.193946-0.07621 0.101613-0.203224 0.33024-0.812899 0.254031-0.635077 0.558869-1.422573 0.304837-0.787496 0.584271-1.524186 0.304837-0.73669 0.482659-1.219349 0.203225-0.508062 0.203225-0.508062 1.168542-2.921356 2.387891-4.572558 1.244752-1.676604 2.387891-2.362488 1.168543-0.685884 2.083054-0.685884 0.990721 0 1.625799 0.584272 0.66048 0.584271 0.711286 1.320961 0.0254 0.228628 0.0254 0.33024t0 0.254031q0 1.498783-0.609674 2.997566-0.584271 1.498782-1.651201 2.845147-1.041527 1.346364-2.413295 2.438697-1.346364 1.092334-2.895953 1.829023-1.524186 0.73669-3.099178 1.016124-0.381047 0.762093-0.685884 1.371768-0.279434 0.584271-0.635077 1.270155-0.355644 0.685883-0.939915 1.752813-0.177822 0.330241-0.279434 0.482659-0.07621 0.127016-0.254031 0.40645 1.270155 0.304837 2.768938 0.863705 1.498783 0.533465 2.946759 1.295558 1.47338 0.73669 2.616519 1.625799 1.422574 1.092333 2.006845 2.4641 0.609675 1.371768 0.609675 2.413295 0 0.73669-0.228628 1.117736-0.33024 0.558868-0.660481 0.711287-0.33024 0.177822-0.508062 0.177822zm-6.401581-16.63903q1.727411-0.381047 3.378612-1.371768 1.651202-1.016124 2.972163-2.438697 1.320961-1.447977 2.108457-3.124581 0.787496-1.702008 0.787496-3.454822 0-0.431853-0.228628-0.711287-0.228627-0.279434-0.66048-0.279434-0.584271 0-1.498783 0.660481-0.914512 0.635077-2.083054 2.159263-1.168543 1.498783-2.514907 4.140705 0 0-0.355643 0.660481-0.330241 0.660481-0.863706 1.676605-0.508062 0.99072-1.041527 2.083054zm-11.405991 11.202766q0.558868 0 1.193945-0.152418 0.660481-0.152419 1.371768-0.482659 2.13386-1.041527 3.93748-3.60724-0.584271-0.127016-1.219349-0.177822-0.635077-0.07621-1.295558-0.07621-0.685883 0-1.422573 0.07621-0.711287 0.07621-1.397171 0.279434-1.702007 0.457256-2.616519 1.168543-0.889108 0.711287-0.889108 1.447976 0 0.635078 0.635077 1.066931 0.635078 0.457255 1.702008 0.457255zm22.354714-2.159263q-0.279434 0.0254-0.635077-0.127016-0.355644-0.152418-0.635078-0.558868-0.254031-0.406449-0.254031-1.143139 0-0.609675 0.228628-1.47338-0.304837 0.482659-0.787496 1.193946-0.482659 0.685883-1.041527 1.219348-0.482659 0.457256-0.914511 0.660481-0.431853 0.203225-0.787497 0.203225-0.66048 0-1.06693-0.584271-0.406449-0.609675-0.406449-1.574993 0-1.016124 0.508062-2.311682t1.651201-2.692728q0.73669-0.889109 1.778217-1.422574 1.06693-0.558868 2.083054-0.558868 0.584271 0 1.117737 0.203225 0.533465 0.177822 0.939914 0.609674 0.177822 0.177822 0.177822 0.40645 0 0.152419-0.127016 0.254031-0.127015 0.101612-0.33024 0.05081-0.279434-0.889108-1.193946-0.889108-0.431852 0-0.99072 0.279434-0.863706 0.457256-1.80362 1.498783-0.914512 1.041527-1.600396 2.159263-0.101612 0.152419-0.33024 0.584271-0.203225 0.431853-0.40645 0.965318-0.203224 0.533465-0.279434 1.041527-0.0254 0.152419-0.0254 0.228628 0 0.05081 0 0.177822 0 0.838302 0.635078 0.838302 0.762093 0 1.727411-1.117736 0.66048-0.8129 1.193945-1.702008 0.533465-0.889109 1.092333-1.905232 0.381047-0.685884 0.711287-1.14314t0.939915-0.457256q0.279434 0 0.558868 0.07621t0.584271 0.0254q-0.203224 0.203224-0.558868 0.762093-0.33024 0.558868-0.711287 1.270155-0.381046 0.711286-0.685883 1.447976t-0.431853 1.270155q-0.0254 0.152419-0.07621 0.431853-0.0254 0.279434-0.0254 0.406449 0 0.711287 0.406449 0.711287 0.40645 0 0.863706-0.482659 0.482658-0.482659 0.939914-1.193945 0.457256-0.711287 0.838303-1.422574 0.381046-0.73669 0.609674-1.193945 0.101612-0.254031 0.304837-0.254031 0.127016 0 0.127016 0.177821 0 0.07621-0.07621 0.279434-0.304837 0.635078-0.73669 1.447977-0.431852 0.787496-0.939914 1.549589-0.508062 0.73669-1.06693 1.244752-0.533466 0.482659-1.092334 0.533465z" stop-color="#000000"/>
    <path id="path57" d="m26.09375 16.349609c-0.826206 0-1.657389 0.297501-2.521484 0.804688l-0.0078 4e-3c-0.910146 0.546088-1.764935 1.415606-2.636719 2.589844h-2e-3v2e-3c-0.879358 1.190797-1.697429 2.773847-2.49414 4.765625l-0.208985 0.517578-0.0039 0.01172c-0.112462 0.305254-0.27028 0.703144-0.470703 1.1875l-0.0039 0.01172-0.0059 0.01172c-0.185544 0.489163-0.379467 0.99624-0.582031 1.519532-0.202281 0.52256-0.386813 0.994375-0.554688 1.414062l-0.0039 0.0078-2e-3 0.0098c-0.05868 0.156473-0.07199 0.174335-0.117187 0.28711-0.200662 0.01394-0.415245 0.03906-0.597657 0.03906-0.952548 0-1.665718-0.158483-2.160156-0.410156-0.537488-0.291095-0.877088-0.623945-1.091797-1.017578-0.237914-0.436176-0.351562-0.881883-0.351562-1.388672 0-0.60538 0.140896-1.20287 0.443359-1.824219 0.315658-0.613989 0.74448-1.135505 1.310547-1.585937 0.553304-0.426896 1.164533-0.675085 1.898438-0.759766h0.0039l0.0039-2e-3c0.31504-0.03938 0.575371-0.0851 0.849609-0.205078 0.13712-0.05999 0.287449-0.139399 0.4375-0.298828 0.150052-0.15943 0.285157-0.437633 0.285157-0.710938 0-0.205847-0.08753-0.456604-0.22461-0.621094-0.137075-0.164489-0.289874-0.2472-0.414062-0.296875-0.248376-0.09935-0.422665-0.09961-0.607422-0.09961h-0.230469c-0.196305 0-0.358053 0.04887-0.507812 0.105469-1.332442 0.319725-2.479895 0.754945-3.41211 1.351562-0.913222 0.578394-1.630892 1.261733-2.105468 2.064453-0.4570881 0.757203-0.7070317 1.584413-0.7070317 2.425782 0 1.012486 0.3329526 1.986976 0.9492187 2.841796l0.0078 0.0118c0.641642 0.862207 1.536321 1.536487 2.626953 2.025391l0.0059 0.0039 0.0059 2e-3c0.738598 0.318364 1.655295 0.343413 2.533204 0.431641-0.268848 0.542234-0.543168 1.10874-0.798829 1.599609-0.327368 0.614993-0.691782 1.201914-1.060546 1.785156-0.240275-0.03135-0.467505-0.08181-0.722657-0.0918h-0.0059c-0.436045-0.03395-0.879466-0.05273-1.330078-0.05273-0.737585 0-1.452223 0.04509-2.1445315 0.132813-0.00136 1.39e-4 -0.00255-1.4e-4 -0.00391 0-0.7005869 0.07205-1.350403 0.189554-1.9472657 0.357422l-0.00586 2e-3 -0.00781 2e-3c-1.438781 0.431327-2.5477597 0.9868-3.3026454 1.784822-0.6802563 0.720272-1.0996094 1.572747-1.0996094 2.474609 0 0.930036 0.4597392 1.803974 1.203125 2.419922 0.77907 0.6483 1.7865929 0.960938 2.8886719 0.960938 0.4723208 0 0.9584235-0.07262 1.4550781-0.205078 0.5024284-0.11723 1.011756-0.295777 1.527344-0.535157h-0.0039c0.945312-0.434844 1.823621-1.054858 2.630859-1.84375 0.661285-0.632595 1.261541-1.368804 1.845703-2.128906 0.912308 0.179057 1.828516 0.369868 2.753906 0.597656h2e-3c1.071744 0.259817 2.091259 0.60146 3.060547 1.021485 0.929887 0.402951 1.760878 0.939984 2.503906 1.621094l0.0039 0.0059 0.0059 0.0039c0.498025 0.441107 0.792583 0.887775 0.943359 1.365235 0.181545 0.574892 0.263672 1.089085 0.263672 1.542968 0 0.575167-0.09333 0.948379-0.136718 1.035157l-0.0078 0.01367-0.0059 0.01563c-0.08386 0.184489-0.176322 0.386589-0.277344 0.605469l-0.01563 0.03516-0.01367 0.03516c-0.07002 0.196055-0.165902 0.407624-0.05469 0.796875 0.05561 0.194625 0.210246 0.428892 0.414062 0.558593 0.203816 0.129702 0.408214 0.158204 0.558594 0.158204 0.392577 0 0.620195-0.128899 0.884765-0.271485 0.472551-0.224394 0.762951-0.593994 1.025391-1.037109v-2e-3c0.278293-0.464761 0.351563-0.982465 0.351563-1.5625 0-0.860336-0.245041-1.770987-0.681641-2.75586-0.332197-0.777985-1.004896-1.406899-1.654297-2.042968 0.325457-0.03121 0.646167-0.09084 0.951172-0.234375 0.401865-0.189114 0.771733-0.464977 1.140625-0.814454l2e-3 -2e-3v-2e-3c0.144841-0.138257 0.263473-0.317921 0.400391-0.46875 0.05595 0.161784 0.02836 0.357482 0.121093 0.50586l0.01172 0.01563 0.0098 0.01563c0.254838 0.370673 0.589994 0.684216 1.007812 0.863281 0.328598 0.140825 0.679865 0.22743 1.054688 0.193359 0.359883-0.03272 0.651848-0.2752 0.966797-0.455078 0.0087 0.920089 0.460966 1.784455 1.197265 2.394531 0.779071 0.6483 1.786594 0.960938 2.888672 0.960938 0.472321 0 0.958424-0.07262 1.455078-0.205078 0.501851-0.117096 1.008461-0.296186 1.523438-0.535157 0.945312-0.434844 1.823621-1.054858 2.630859-1.84375 0.661232-0.632545 1.259629-1.368874 1.84375-2.128906 0.912917 0.179145 1.829842 0.369714 2.75586 0.597656h2e-3c1.071743 0.259817 2.091258 0.60146 3.060547 1.021485 0.929887 0.402951 1.760877 0.939984 2.503906 1.621094l0.0039 0.0059 0.0059 0.0039c0.498025 0.441107 0.792583 0.887775 0.94336 1.365235 0.181545 0.574892 0.263672 1.089085 0.263672 1.542968 0 0.575167-0.09333 0.948379-0.136719 1.035157l-0.0078 0.01367-0.0059 0.01563c-0.08386 0.18449-0.176322 0.386587-0.277344 0.605469l-0.01758 0.03516-0.01172 0.03516c-0.07002 0.196054-0.165901 0.407623-0.05469 0.796875 0.05561 0.194625 0.210246 0.428892 0.414062 0.558593 0.203817 0.129702 0.406261 0.158204 0.556641 0.158204 0.390782 0 0.619747-0.127781 0.882813-0.269532 0.474167-0.224249 0.766355-0.5951 1.029296-1.039062v-2e-3c0.278294-0.464761 0.351563-0.982465 0.351563-1.5625 0-0.860337-0.24504-1.770987-0.681641-2.75586-0.332197-0.777986-1.004895-1.406899-1.654297-2.042968 0.324782-0.03142 0.644804-0.09112 0.949219-0.234375 0.401865-0.189114 0.773687-0.464977 1.142578-0.814454v-2e-3l2e-3 -2e-3c0.144841-0.138257 0.263474-0.317921 0.400391-0.46875 0.05595 0.161784 0.02836 0.357482 0.121094 0.50586l0.0098 0.01563 0.01172 0.01563c0.254838 0.370673 0.589993 0.684216 1.007813 0.863281 0.328598 0.140825 0.679865 0.22743 1.054687 0.193359 0.594111-0.05401 1.137732-0.339366 1.59375-0.751953l2e-3 -2e-3c0.430094-0.390994 0.827123-0.857824 1.197266-1.394531l0.0078-0.0118c0.352259-0.528388 0.678399-1.066007 0.978516-1.613281l0.0039-0.0039 2e-3 -0.0059c0.292132-0.549894 0.542068-1.041253 0.751954-1.478516l0.01758-0.03516 0.01367-0.03711c0.062963-0.168474 0.130517-0.242179 0.130517-0.581694 0-0.162385-0.01345-0.386803-0.193359-0.638672-0.179909-0.25187-0.554396-0.40625-0.798829-0.40625-0.248184 0-0.536178 0.100135-0.732421 0.263672-0.196244 0.163536-0.306109 0.358045-0.376954 0.535156l0.0293-0.06641c-0.149549 0.299098-0.352557 0.694632-0.605468 1.183593-0.241087 0.449286-0.506295 0.899549-0.796875 1.351563-0.158151 0.246012-0.312551 0.405142-0.46875 0.597656 0.07449-0.267226 0.162503-0.560035 0.320312-0.941406 0.19213-0.464314 0.409737-0.91992 0.650391-1.369141 0.247904-0.462753 0.478014-0.872387 0.689453-1.230469 0.0013-0.0022 0.0026-0.0056 0.0039-0.0078 0.211353-0.328052 0.393618-0.55768 0.425781-0.589844l1.910157-1.912109-2.013672 0.335937c2e-6 -8.64e-4 2e-3 -0.0011 2e-3 -2e-3 0-0.372777-0.182238-0.757693-0.427735-1.007812-0.354649-0.373203-0.789272-0.658971-1.271484-0.822266-0.447417-0.167333-0.922383-0.255859-1.404297-0.255859-0.834814 0-1.670331 0.232576-2.480469 0.65625-0.792748 0.406686-1.483021 0.958159-2.046875 1.638672l-4e-3 4e-3c-0.805354 0.984322-1.406429 1.955048-1.787109 2.925781-0.366806 0.935356-0.566406 1.805183-0.566406 2.626953 0 0.452021 0.199339 0.816801 0.326171 1.214844-0.390822-0.234346-0.722708-0.500803-1.15039-0.714844-0.993126-0.522147-2.006237-0.968261-3.03711-1.335937-6.36e-4 -2.38e-4 -0.0013 2.37e-4 -2e-3 0-0.630683-0.235126-1.185576-0.37945-1.763672-0.550782 0.383751-0.701105 0.69718-1.286387 0.935547-1.746093 0.238074-0.459144 0.45109-0.885371 0.640625-1.28125l0.0078-0.01367 0.521484-1.044922c0.966127-0.211821 1.924062-0.484722 2.853516-0.933594l0.0039-2e-3c1.090717-0.518919 2.112029-1.164655 3.058594-1.931641l2e-3 -2e-3c0.962765-0.766921 1.815282-1.626867 2.550781-2.576172 0.759719-0.958692 1.355-1.982286 1.777344-3.064453 0.442345-1.090042 0.671875-2.202425 0.671875-3.316406v-0.253906c0-0.12965-0.01305-0.246356-0.0293-0.394531-0.0515-0.72719-0.434395-1.396356-0.996094-1.896485-0.587919-0.537785-1.375204-0.810547-2.203125-0.810547-0.826205 0-1.657389 0.297501-2.521484 0.804688l-0.0078 4e-3c-0.910146 0.546088-1.764935 1.415606-2.636718 2.589844h-2e-3v2e-3c-0.879358 1.190797-1.699383 2.773847-2.496094 4.765625l-0.207031 0.517578-0.0039 0.01172c-0.112462 0.305254-0.27028 0.703144-0.470703 1.1875l-0.0039 0.01172-0.0059 0.01172c-0.185545 0.489163-0.379467 0.99624-0.582032 1.519532-0.202282 0.522561-0.386812 0.994375-0.554687 1.414062l-0.0039 0.0078-0.0039 0.0098c-0.05859 0.156249-0.07008 0.174426-0.115234 0.28711-0.200662 0.01394-0.415244 0.03906-0.597656 0.03906-0.952549 0-1.665719-0.158483-2.160157-0.410156-0.537487-0.291095-0.877087-0.623945-1.091796-1.017578-0.237915-0.436176-0.351563-0.881883-0.351563-1.388672 0-0.60538 0.140897-1.20287 0.443359-1.824219 0.315658-0.613989 0.744479-1.135505 1.310547-1.585937 0.553305-0.426896 1.164534-0.675085 1.898438-0.759766h0.0039l0.0039-2e-3c0.31504-0.03938 0.575371-0.0851 0.84961-0.205078 0.137119-0.05999 0.285495-0.139399 0.435547-0.298828 0.150051-0.15943 0.287109-0.437633 0.287109-0.710938 0-0.205846-0.08753-0.456604-0.224609-0.621094-0.136942-0.16457-0.291695-0.247281-0.415883-0.296956-0.248376-0.09935-0.422665-0.099609-0.607422-0.099609h-0.228516c-0.196305 0-0.358053 0.04887-0.507812 0.105469-1.332462 0.319726-2.481837 0.754938-3.414063 1.351562-0.913221 0.578394-1.628938 1.261735-2.103515 2.064453-0.457087 0.757203-0.708984 1.584413-0.708985 2.425782 1e-6 1.012486 0.334907 1.986976 0.951172 2.841796l0.0078 0.0118c0.641642 0.862207 1.53632 1.536487 2.626953 2.025391l0.0059 0.0039 0.0059 2e-3c0.738598 0.318364 1.655294 0.343413 2.533203 0.431641-0.268848 0.542234-0.543167 1.10874-0.798828 1.599609-0.327369 0.614993-0.691783 1.201914-1.060547 1.785156-0.240274-0.03135-0.467505-0.08181-0.722656-0.0918h-0.0059c-0.436044-0.03395-0.879465-0.05273-1.330078-0.05273-0.738254 0-1.453589 0.04493-2.146484 0.132813-2e-3 2.09e-4 -0.0038-2.1e-4 -0.0059 0-0.699802 0.07207-1.347077 0.189717-1.943359 0.357422l-0.0078 2e-3 -0.0059 2e-3c-0.514754 0.154426-0.936202 0.349653-1.365234 0.541015 0.19312-0.371917 0.39023-0.748362 0.541015-1.0625l0.01563-0.03516 0.01367-0.03711c0.0633-0.168811 0.13086-0.242516 0.13086-0.582031 0-0.162385-0.01345-0.386803-0.19336-0.638672-0.179908-0.25187-0.554395-0.40625-0.798828-0.40625-0.248184 0-0.536178 0.100135-0.732422 0.263672-0.196243 0.163536-0.306109 0.358045-0.376953 0.535156l0.0293-0.06641c-0.14955 0.299098-0.350605 0.694632-0.603516 1.183593-0.241087 0.449288-0.508245 0.899546-0.798828 1.351563-0.15815 0.246012-0.31255 0.405142-0.46875 0.597656 0.07449-0.267241 0.16444-0.559993 0.322266-0.941406 0.19213-0.464314 0.407783-0.91992 0.648437-1.369141 0.247903-0.462753 0.478015-0.872387 0.689453-1.230469 0.0013-0.0022 0.0026-0.0056 0.0039-0.0078 0.211353-0.328052 0.393618-0.557681 0.425781-0.589844l1.910156-1.912109-2.013672 0.335937c3e-6 -8.64e-4 2e-3 -0.0011 2e-3 -2e-3 0-0.372777-0.182238-0.757693-0.427734-1.007812-0.354649-0.373203-0.789272-0.658971-1.271484-0.822266-0.447409-0.167326-0.920441-0.255859-1.402344-0.255859-0.834815 0-1.672284 0.232575-2.482422 0.65625-0.792749 0.406686-1.483022 0.958159-2.046875 1.638672l-2e-3 2e-3v2e-3c-0.805354 0.984322-1.408383 1.955048-1.789063 2.925781-0.366806 0.935356-0.566406 1.805183-0.566406 2.626953 0 0.451839 0.197493 0.816934 0.324219 1.214844-0.390209-0.233904-0.721497-0.501174-1.148438-0.714844-0.993657-0.522426-2.005665-0.968148-3.037109-1.335937-0.631374-0.235428-1.186946-0.379277-1.765625-0.550782 0.383752-0.701105 0.69718-1.286386 0.935547-1.746093 0.238074-0.459144 0.451089-0.885371 0.640625-1.28125l0.0078-0.01367 0.523438-1.046875c0.964798-0.211711 1.923338-0.483519 2.851562-0.931641 1.095131-0.520635 2.120465-1.168821 3.070313-1.939453 0.961322-0.766324 1.812307-1.623982 2.546875-2.572266l2e-3 -0.0039c0.756512-0.955313 1.349849-1.97485 1.771484-3.052734v-2e-3c0.443926-1.091937 0.673829-2.206267 0.673829-3.322266v-0.253906c0-0.12965-0.01305-0.246356-0.0293-0.394531-0.05155-0.727776-0.433648-1.398182-0.996094-1.898438-0.587724-0.536642-1.376086-0.808594-2.203125-0.808594zm-0.25 1.81836c-0.444368 0.133038-0.885625 0.223434-1.339844 0.550781-0.731547 0.508924-1.462879 1.28258-2.269531 2.333984-0.127456 0.163476-0.269618 0.476068-0.398438 0.65625 0.160294-0.255187 0.324128-0.715236 0.482422-0.929687l2e-3 -2e-3c0.786352-1.058647 1.521627-1.762493 2.134766-2.13086 5.62e-4 -3.37e-4 0.0014-0.0016 2e-3 -2e-3 0.583888-0.34131 1.013707-0.433992 1.386719-0.476562zm27.130859 0c-0.444367 0.133038-0.885625 0.223434-1.339843 0.550781-0.731549 0.508924-1.46288 1.28258-2.269532 2.333984-0.13096 0.167971-0.277753 0.488219-0.410156 0.673828 0.16357-0.261153 0.332645-0.728509 0.494141-0.947265v-2e-3c0.785677-1.057999 1.517948-1.759952 2.130859-2.128907l0.0039-2e-3c0.586187-0.34336 1.016513-0.435819 1.390625-0.478515zm-26.476562 1.464843c0.01135 0.01638 0.02539 0.0205 0.02539 0.123047 1e-6 1.037444-0.228961 2.057467-0.705078 3.087891-0.486114 1.034565-1.13796 2.001608-1.96289 2.90625-6.38e-4 6.99e-4 -0.0013 0.0013-2e-3 2e-3 -0.825469 0.887883-1.752513 1.646402-2.783204 2.28125-0.373425 0.223786-0.756754 0.288814-1.132812 0.460938 0.0047-0.0092 9e-3 -0.02014 0.01367-0.0293l0.0039-0.0078c0.350184-0.667112 0.633669-1.21702 0.855469-1.660156l0.01172-0.02344 0.347656-0.646484 0.0059-0.0078c0.881635-1.729999 1.699307-3.070171 2.425781-4.001954l2e-3 -2e-3 2e-3 -0.0039c0.74799-0.975639 1.405629-1.637807 1.890625-1.974609l0.0059-0.0039 0.0059-0.0059c0.537428-0.388142 0.925698-0.493633 0.990235-0.494141zm27.130859 0c0.01135 0.01638 0.02539 0.0205 0.02539 0.123047 0 1.038834-0.231569 2.059962-0.708985 3.091797-0.485269 1.031477-1.134823 1.99616-1.957031 2.898438-0.826903 0.89051-1.754057 1.650806-2.787109 2.287109-0.373426 0.223786-0.756755 0.288814-1.132813 0.460938 0.0047-0.0092 9e-3 -0.02014 0.01367-0.0293l0.0039-0.0078c0.350185-0.667112 0.633669-1.217021 0.855469-1.660156l0.01172-0.02344 0.347656-0.646484 0.0039-0.0078c0.881634-1.729999 1.70126-3.070171 2.427735-4.001954l2e-3 -2e-3 2e-3 -0.0039c0.74799-0.975639 1.403676-1.637807 1.888672-1.974609l0.0078-0.0039 0.0059-0.0059c0.53732-0.388087 0.925589-0.493578 0.990126-0.494086zm-24.232422 11.886719c0.141468 0 0.174525 0.02316 0.205078 0.04297-0.356875 0.13724-0.763651 0.182665-0.984375 0.488281-0.247932 0.343292-0.499689 0.751785-0.765625 1.230469v2e-3l-2e-3 2e-3c-0.367906 0.668919-0.726769 1.294616-1.076172 1.876953-0.329882 0.549804-0.69931 1.075833-1.107421 1.580078-6.57e-4 7.6e-4 -0.0013-7.58e-4 -2e-3 0-0.44401 0.513534-0.661012 0.571815-0.833984 0.638672 0.0012-0.0086 0.0011-0.0048 0.0098-0.05664v-0.0059l2e-3 -0.0078c0.04065-0.270994 0.11668-0.557507 0.232422-0.861328 0.126778-0.332794 0.25267-0.627676 0.375-0.888672 0.138927-0.260925 0.249774-0.452787 0.273437-0.488281l0.0078-0.01367 0.0098-0.01367c0.4295-0.699926 0.93185-1.378567 1.509766-2.03711 9.8e-4 -0.0011 9.72e-4 -0.0028 2e-3 -0.0039 0.575267-0.63574 1.107578-1.063281 1.554688-1.300781 0.282504-0.138513 0.491026-0.183594 0.589843-0.183594zm27.13086 0c0.141468 0 0.174525 0.02316 0.205078 0.04297-0.357011 0.137223-0.763582 0.184521-0.984375 0.490234-0.247933 0.343292-0.499689 0.749832-0.765625 1.228516l-2e-3 2e-3v2e-3c-0.367906 0.668919-0.72677 1.294616-1.076172 1.876953-0.329883 0.549804-0.699311 1.075833-1.107422 1.580078-6.56e-4 7.6e-4 -0.0013-7.58e-4 -2e-3 0-0.442344 0.511606-0.658376 0.56905-0.832031 0.636719 0.0013-0.01068-4.94e-4 -0.0048 0.0078-0.05469v-0.0059l2e-3 -0.0078c0.04065-0.270995 0.116681-0.557506 0.232422-0.861328 0.128635-0.337665 0.254875-0.638615 0.378906-0.902344 3.25e-4 -6.89e-4 0.0016-0.0013 2e-3 -2e-3 0.132569-0.247915 0.24465-0.438262 0.267579-0.472656l0.0078-0.01367 0.0098-0.01367c0.4295-0.699926 0.931849-1.378567 1.509765-2.03711 9.81e-4 -0.0011 9.73e-4 -0.0028 2e-3 -0.0039 0.575267-0.63574 1.107578-1.063281 1.554688-1.300781 0.282505-0.138513 0.491028-0.183594 0.589844-0.183594zm-0.769532 3.890625c-0.0909 0.222443-0.135433 0.40341-0.205078 0.605469l-0.113281-0.04883c0.104292-0.174559 0.212812-0.375247 0.318359-0.556641zm-27.132812 0.003906c-0.09014 0.22079-0.133952 0.400872-0.203125 0.601563l-0.113281-0.04883c0.103626-0.173438 0.21154-0.372548 0.316406-0.552735zm-16.535156 0.650391 0.0332 0.0039c-0.0038-4.59e-4 -0.0079 4.56e-4 -0.01172 0-0.0074-6.09e-4 -0.01405-0.0033-0.02148-0.0039zm27.130859 0 0.0332 0.0039c-0.0038-4.59e-4 -0.0079 4.56e-4 -0.01172 0-0.0074-6.09e-4 -0.01405-0.0033-0.02148-0.0039zm-28.496094 1.654297c0.2751 0 0.540267 0.02554 0.806641 0.04687-0.842602 0.947505-1.7050303 1.726354-2.6035156 2.166016-0.4235218 0.195873-0.8213321 0.33452-1.1914063 0.419921l-0.00391 2e-3h-0.00391c-0.3673228 0.08816-0.698347 0.128906-0.9921875 0.128906-0.5875549 0-0.9585748-0.124471-1.1953125-0.294922l-0.01954-0.0118c-0.2601161-0.17685-0.2558431-0.216845-0.2558431-0.351522 0-0.141635 0.090967-0.387376 0.5605469-0.765625 0.4754099-0.368601 1.2437464-0.728643 2.3046875-1.013672l0.01954-0.0078c0.4061092-0.120328 0.8191371-0.202697 1.2402344-0.248047 0.4637602-0.04798 0.908807-0.07031 1.333984-0.07031zm27.13086 0c0.275549 0 0.539845 0.02548 0.80664 0.04687-0.842602 0.947505-1.70503 1.726354-2.603515 2.166016-0.423522 0.195873-0.821332 0.33452-1.191407 0.419921l-0.0039 2e-3h-0.0039c-0.367322 0.08816-0.698347 0.128906-0.992188 0.128906-0.587554 0-0.958574-0.124471-1.195312-0.294922l-0.0196-0.0118c-0.260132-0.17689-0.25586-0.216885-0.25586-0.351562 0-0.141635 0.09097-0.387376 0.560547-0.765625 0.475411-0.368601 1.241796-0.728644 2.302735-1.013672l0.01172-0.0039 0.0098-0.0039c0.406109-0.120328 0.819137-0.202697 1.240234-0.248047 0.463761-0.04798 0.908808-0.07031 1.333985-0.07031zm-13.830078 2.472656 0.01172 0.0098c-0.0028-0.0026-0.0069-0.0033-0.0098-0.0059-0.0012-1e-3 -8.01e-4 -0.0029-2e-3 -0.0039zm27.130859 0 0.01172 0.0098c-0.0028-0.0026-0.0069-0.0033-0.0098-0.0059-0.0012-1e-3 -8e-4 -0.0029-2e-3 -0.0039zm-46.626953 1.402344c0.00164 0.0012 0.00422 7.75e-4 0.00586 2e-3 0.00456 0.0031 0.00714 0.0086 0.011719 0.01172zm27.128906 0c0.0026 0.0019 0.0071 6.2e-5 0.0098 2e-3 0.0042 0.0029 0.0056 0.0089 0.0098 0.01172z" stop-color="#000000"/>
  </g>
  <g id="text53">
    <path id="path54" d="m24.544193 46.784598q-0.228628 0-0.101613-0.355644 0.152419-0.33024 0.279434-0.609674 0.228628-0.457256 0.228628-1.422574 0-0.838302-0.304837-1.80362t-1.193946-1.752814q-1.219348-1.117736-2.743534-1.778217-1.524186-0.66048-3.200791-1.06693-1.651201-0.406449-3.277-0.711286-0.990721 1.371767-2.13386 2.4641-1.117736 1.092333-2.3878913 1.676605-0.7112868 0.33024-1.3717674 0.482659-0.6604806 0.177821-1.2447518 0.177821-1.4225736 0-2.3370851-0.762093-0.8891085-0.73669-0.8891085-1.752814 0-0.965317 0.8637054-1.879829 0.8891084-0.939915 2.9213563-1.549589 0.8128992-0.228628 1.8036201-0.33024 0.9907213-0.127016 2.0576513-0.127016 0.66048 0 1.295558 0.05081 0.66048 0.0254 1.219349 0.152419 0.736689-1.117736 1.371767-2.311682 0.635077-1.219349 1.320961-2.641922-2.006845 0.05081-3.480225-0.584272-1.473379-0.66048-2.286278-1.752813-0.787497-1.092334-0.787497-2.337085 0-1.016124 0.584272-1.981442 0.584271-0.990721 1.829023-1.778217 1.270155-0.812899 3.226193-1.270155 0.127016-0.05081 0.228628-0.05081 0.127016 0 0.228628 0 0.381047 0 0.381047 0.152418 0 0.254031-0.812899 0.355644-1.320962 0.152418-2.337086 0.939914-0.99072 0.787496-1.549589 1.87983-0.533465 1.092333-0.533465 2.210069 0 0.965318 0.457256 1.80362 0.457256 0.838303 1.447977 1.371768 0.990721 0.508062 2.565713 0.508062 0.558868 0 1.193945-0.07621 0.101613-0.203224 0.330241-0.812899 0.254031-0.635077 0.558868-1.422573t0.584271-1.524186q0.304837-0.73669 0.482659-1.219349 0.203225-0.508062 0.203225-0.508062 1.168542-2.921356 2.387891-4.572558 1.244752-1.676604 2.387891-2.362488 1.168543-0.685884 2.083055-0.685884 0.99072 0 1.625798 0.584272 0.66048 0.584271 0.711287 1.320961 0.0254 0.228628 0.0254 0.33024t0 0.254031q0 1.498783-0.609675 2.997566-0.584271 1.498782-1.651201 2.845147-1.041527 1.346364-2.413294 2.438697-1.346365 1.092334-2.895954 1.829023-1.524186 0.73669-3.099178 1.016124-0.381046 0.762093-0.685884 1.371768-0.279434 0.584271-0.635077 1.270155-0.355643 0.685883-0.939915 1.752813-0.177821 0.330241-0.279434 0.482659-0.07621 0.127016-0.254031 0.40645 1.270155 0.304837 2.768938 0.863705 1.498783 0.533465 2.94676 1.295558 1.473379 0.73669 2.616519 1.625799 1.422573 1.092333 2.006845 2.4641 0.609674 1.371768 0.609674 2.413295 0 0.73669-0.228628 1.117736-0.33024 0.558868-0.66048 0.711287-0.330241 0.177822-0.508062 0.177822zm-6.401581-16.63903q1.72741-0.381047 3.378612-1.371768 1.651201-1.016124 2.972162-2.438697 1.320961-1.447977 2.108458-3.124581 0.787496-1.702008 0.787496-3.454822 0-0.431853-0.228628-0.711287t-0.660481-0.279434q-0.584271 0-1.498783 0.660481-0.914511 0.635077-2.083054 2.159263-1.168542 1.498783-2.514907 4.140705 0 0-0.355643 0.660481-0.33024 0.660481-0.863705 1.676605-0.508062 0.99072-1.041527 2.083054zm-11.405992 11.202766q0.5588682 0 1.1939456-0.152418 0.6604806-0.152419 1.3717674-0.482659 2.1338599-1.041527 3.9374799-3.60724-0.584271-0.127016-1.219348-0.177822-0.635078-0.07621-1.295558-0.07621-0.685884 0-1.4225739 0.07621-0.7112868 0.07621-1.3971705 0.279434-1.7020076 0.457256-2.6165192 1.168543-0.8891084 0.711287-0.8891084 1.447976 0 0.635078 0.6350774 1.066931 0.6350775 0.457255 1.7020077 0.457255zm22.354716-2.159263q-0.279434 0.0254-0.635077-0.127016-0.355643-0.152418-0.635077-0.558868-0.254031-0.406449-0.254031-1.143139 0-0.609675 0.228627-1.47338-0.304837 0.482659-0.787496 1.193946-0.482659 0.685883-1.041527 1.219348-0.482659 0.457256-0.914511 0.660481-0.431853 0.203225-0.787496 0.203225-0.660481 0-1.06693-0.584271-0.40645-0.609675-0.40645-1.574993 0-1.016124 0.508062-2.311682t1.651201-2.692728q0.73669-0.889109 1.778217-1.422574 1.06693-0.558868 2.083054-0.558868 0.584272 0 1.117737 0.203225 0.533465 0.177822 0.939914 0.609674 0.177822 0.177822 0.177822 0.40645 0 0.152419-0.127015 0.254031-0.127016 0.101612-0.330241 0.05081-0.279434-0.889108-1.193945-0.889108-0.431853 0-0.990721 0.279434-0.863706 0.457256-1.80362 1.498783-0.914512 1.041527-1.600395 2.159263-0.101613 0.152419-0.330241 0.584271-0.203225 0.431853-0.406449 0.965318-0.203225 0.533465-0.279434 1.041527-0.0254 0.152419-0.0254 0.228628 0 0.05081 0 0.177822 0 0.838302 0.635078 0.838302 0.762093 0 1.727411-1.117736 0.66048-0.8129 1.193945-1.702008 0.533465-0.889109 1.092334-1.905232 0.381046-0.685884 0.711286-1.14314 0.330241-0.457256 0.939915-0.457256 0.279434 0 0.558868 0.07621t0.584272 0.0254q-0.203225 0.203224-0.558869 0.762093-0.33024 0.558868-0.711286 1.270155-0.381047 0.711286-0.685884 1.447976t-0.431853 1.270155q-0.0254 0.152419-0.07621 0.431853-0.0254 0.279434-0.0254 0.406449 0 0.711287 0.406449 0.711287 0.40645 0 0.863706-0.482659 0.482659-0.482659 0.939914-1.193945 0.457256-0.711287 0.838303-1.422574 0.381046-0.73669 0.609674-1.193945 0.101612-0.254031 0.304837-0.254031 0.127016 0 0.127016 0.177821 0 0.07621-0.07621 0.279434-0.304837 0.635078-0.736689 1.447977-0.431853 0.787496-0.939915 1.549589-0.508062 0.73669-1.06693 1.244752-0.533465 0.482659-1.092334 0.533465zm22.583338 7.595527q-0.228628 0-0.101612-0.355644 0.152418-0.33024 0.279434-0.609674 0.228628-0.457256 0.228628-1.422574 0-0.838302-0.304837-1.80362-0.304838-0.965318-1.193946-1.752814-1.219349-1.117736-2.743535-1.778217-1.524186-0.66048-3.20079-1.06693-1.651202-0.406449-3.277-0.711286-0.990721 1.371767-2.13386 2.4641-1.117737 1.092333-2.387892 1.676605-0.711286 0.33024-1.371767 0.482659-0.660481 0.177821-1.244752 0.177821-1.422573 0-2.337085-0.762093-0.889108-0.73669-0.889108-1.752814 0-0.965317 0.863705-1.879829 0.889108-0.939915 2.921356-1.549589 0.8129-0.228628 1.80362-0.33024 0.990721-0.127016 2.057651-0.127016 0.660481 0 1.295558 0.05081 0.660481 0.0254 1.219349 0.152419 0.73669-1.117736 1.371768-2.311682 0.635077-1.219349 1.320961-2.641922-2.006845 0.05081-3.480225-0.584272-1.47338-0.66048-2.286279-1.752813-0.787496-1.092334-0.787496-2.337085 0-1.016124 0.584271-1.981442 0.584272-0.990721 1.829024-1.778217 1.270155-0.812899 3.226193-1.270155 0.127016-0.05081 0.228628-0.05081 0.127016 0 0.228628 0 0.381046 0 0.381046 0.152418 0 0.254031-0.812899 0.355644-1.320961 0.152418-2.337085 0.939914-0.990721 0.787496-1.549589 1.87983-0.533465 1.092333-0.533465 2.210069 0 0.965318 0.457256 1.80362 0.457256 0.838303 1.447976 1.371768 0.990721 0.508062 2.565713 0.508062 0.558869 0 1.193946-0.07621 0.101613-0.203224 0.33024-0.812899 0.254031-0.635077 0.558869-1.422573 0.304837-0.787496 0.584271-1.524186 0.304837-0.73669 0.482659-1.219349 0.203225-0.508062 0.203225-0.508062 1.168542-2.921356 2.387891-4.572558 1.244752-1.676604 2.387891-2.362488 1.168543-0.685884 2.083054-0.685884 0.990721 0 1.625799 0.584272 0.66048 0.584271 0.711286 1.320961 0.0254 0.228628 0.0254 0.33024t0 0.254031q0 1.498783-0.609674 2.997566-0.584271 1.498782-1.651201 2.845147-1.041527 1.346364-2.413295 2.438697-1.346364 1.092334-2.895953 1.829023-1.524186 0.73669-3.099178 1.016124-0.381047 0.762093-0.685884 1.371768-0.279434 0.584271-0.635077 1.270155-0.355644 0.685883-0.939915 1.752813-0.177822 0.330241-0.279434 0.482659-0.07621 0.127016-0.254031 0.40645 1.270155 0.304837 2.768938 0.863705 1.498783 0.533465 2.946759 1.295558 1.47338 0.73669 2.616519 1.625799 1.422574 1.092333 2.006845 2.4641 0.609675 1.371768 0.609675 2.413295 0 0.73669-0.228628 1.117736-0.33024 0.558868-0.660481 0.711287-0.33024 0.177822-0.508062 0.177822zm-6.401581-16.63903q1.727411-0.381047 3.378612-1.371768 1.651202-1.016124 2.972163-2.438697 1.320961-1.447977 2.108457-3.124581 0.787496-1.702008 0.787496-3.454822 0-0.431853-0.228628-0.711287-0.228627-0.279434-0.66048-0.279434-0.584271 0-1.498783 0.660481-0.914512 0.635077-2.083054 2.159263-1.168543 1.498783-2.514907 4.140705 0 0-0.355643 0.660481-0.330241 0.660481-0.863706 1.676605-0.508062 0.99072-1.041527 2.083054zm-11.405991 11.202766q0.558868 0 1.193945-0.152418 0.660481-0.152419 1.371768-0.482659 2.13386-1.041527 3.93748-3.60724-0.584271-0.127016-1.219349-0.177822-0.635077-0.07621-1.295558-0.07621-0.685883 0-1.422573 0.07621-0.711287 0.07621-1.397171 0.279434-1.702007 0.457256-2.616519 1.168543-0.889108 0.711287-0.889108 1.447976 0 0.635078 0.635077 1.066931 0.635078 0.457255 1.702008 0.457255zm22.354714-2.159263q-0.279434 0.0254-0.635077-0.127016-0.355644-0.152418-0.635078-0.558868-0.254031-0.406449-0.254031-1.143139 0-0.609675 0.228628-1.47338-0.304837 0.482659-0.787496 1.193946-0.482659 0.685883-1.041527 1.219348-0.482659 0.457256-0.914511 0.660481-0.431853 0.203225-0.787497 0.203225-0.66048 0-1.06693-0.584271-0.406449-0.609675-0.406449-1.574993 0-1.016124 0.508062-2.311682t1.651201-2.692728q0.73669-0.889109 1.778217-1.422574 1.06693-0.558868 2.083054-0.558868 0.584271 0 1.117737 0.203225 0.533465 0.177822 0.939914 0.609674 0.177822 0.177822 0.177822 0.40645 0 0.152419-0.127016 0.254031-0.127015 0.101612-0.33024 0.05081-0.279434-0.889108-1.193946-0.889108-0.431852 0-0.99072 0.279434-0.863706 0.457256-1.80362 1.498783-0.914512 1.041527-1.600396 2.159263-0.101612 0.152419-0.33024 0.584271-0.203225 0.431853-0.40645 0.965318-0.203224 0.533465-0.279434 1.041527-0.0254 0.152419-0.0254 0.228628 0 0.05081 0 0.177822 0 0.838302 0.635078 0.838302 0.762093 0 1.727411-1.117736 0.66048-0.8129 1.193945-1.702008 0.533465-0.889109 1.092333-1.905232 0.381047-0.685884 0.711287-1.14314t0.939915-0.457256q0.279434 0 0.558868 0.07621t0.584271 0.0254q-0.203224 0.203224-0.558868 0.762093-0.33024 0.558868-0.711287 1.270155-0.381046 0.711286-0.685883 1.447976t-0.431853 1.270155q-0.0254 0.152419-0.07621 0.431853-0.0254 0.279434-0.0254 0.406449 0 0.711287 0.406449 0.711287 0.40645 0 0.863706-0.482659 0.482658-0.482659 0.939914-1.193945 0.457256-0.711287 0.838303-1.422574 0.381046-0.73669 0.609674-1.193945 0.101612-0.254031 0.304837-0.254031 0.127016 0 0.127016 0.177821 0 0.07621-0.07621 0.279434-0.304837 0.635078-0.73669 1.447977-0.431852 0.787496-0.939914 1.549589-0.508062 0.73669-1.06693 1.244752-0.533466 0.482659-1.092334 0.533465z" fill="#d22aa3" stop-color="#000000"/>
    <path id="path55" d="m26.09375 16.349609c-0.826206 0-1.657389 0.297501-2.521484 0.804688l-0.0078 4e-3c-0.910146 0.546088-1.764935 1.415606-2.636719 2.589844h-2e-3v2e-3c-0.879358 1.190797-1.697429 2.773847-2.49414 4.765625l-0.208985 0.517578-0.0039 0.01172c-0.112462 0.305254-0.27028 0.703144-0.470703 1.1875l-0.0039 0.01172-0.0059 0.01172c-0.185544 0.489163-0.379467 0.99624-0.582031 1.519532-0.202281 0.52256-0.386813 0.994375-0.554688 1.414062l-0.0039 0.0078-2e-3 0.0098c-0.05868 0.156473-0.07199 0.174335-0.117187 0.28711-0.200662 0.01394-0.415245 0.03906-0.597657 0.03906-0.952548 0-1.665718-0.158483-2.160156-0.410156-0.537488-0.291095-0.877088-0.623945-1.091797-1.017578-0.237914-0.436176-0.351562-0.881883-0.351562-1.388672 0-0.60538 0.140896-1.20287 0.443359-1.824219 0.315658-0.613989 0.74448-1.135505 1.310547-1.585937 0.553304-0.426896 1.164533-0.675085 1.898438-0.759766h0.0039l0.0039-2e-3c0.31504-0.03938 0.575371-0.0851 0.849609-0.205078 0.13712-0.05999 0.287449-0.139399 0.4375-0.298828 0.150052-0.15943 0.285157-0.437633 0.285157-0.710938 0-0.205847-0.08753-0.456604-0.22461-0.621094-0.137075-0.164489-0.289874-0.2472-0.414062-0.296875-0.248376-0.09935-0.422665-0.09961-0.607422-0.09961h-0.230469c-0.196305 0-0.358053 0.04887-0.507812 0.105469-1.332442 0.319725-2.479895 0.754945-3.41211 1.351562-0.913222 0.578394-1.630892 1.261733-2.105468 2.064453-0.4570881 0.757203-0.7070317 1.584413-0.7070317 2.425782 0 1.012486 0.3329526 1.986976 0.9492187 2.841796l0.0078 0.0118c0.641642 0.862207 1.536321 1.536487 2.626953 2.025391l0.0059 0.0039 0.0059 2e-3c0.738598 0.318364 1.655295 0.343413 2.533204 0.431641-0.268848 0.542234-0.543168 1.10874-0.798829 1.599609-0.327368 0.614993-0.691782 1.201914-1.060546 1.785156-0.240275-0.03135-0.467505-0.08181-0.722657-0.0918h-0.0059c-0.436045-0.03395-0.879466-0.05273-1.330078-0.05273-0.737585 0-1.452223 0.04509-2.1445315 0.132813-0.00136 1.39e-4 -0.00255-1.4e-4 -0.00391 0-0.7005869 0.07205-1.350403 0.189554-1.9472657 0.357422l-0.00586 2e-3 -0.00781 2e-3c-1.438781 0.431327-2.5477597 0.9868-3.3026454 1.784822-0.6802563 0.720272-1.0996094 1.572747-1.0996094 2.474609 0 0.930036 0.4597392 1.803974 1.203125 2.419922 0.77907 0.6483 1.7865929 0.960938 2.8886719 0.960938 0.4723208 0 0.9584235-0.07262 1.4550781-0.205078 0.5024284-0.11723 1.011756-0.295777 1.527344-0.535157h-0.0039c0.945312-0.434844 1.823621-1.054858 2.630859-1.84375 0.661285-0.632595 1.261541-1.368804 1.845703-2.128906 0.912308 0.179057 1.828516 0.369868 2.753906 0.597656h2e-3c1.071744 0.259817 2.091259 0.60146 3.060547 1.021485 0.929887 0.402951 1.760878 0.939984 2.503906 1.621094l0.0039 0.0059 0.0059 0.0039c0.498025 0.441107 0.792583 0.887775 0.943359 1.365235 0.181545 0.574892 0.263672 1.089085 0.263672 1.542968 0 0.575167-0.09333 0.948379-0.136718 1.035157l-0.0078 0.01367-0.0059 0.01563c-0.08386 0.184489-0.176322 0.386589-0.277344 0.605469l-0.01563 0.03516-0.01367 0.03516c-0.07002 0.196055-0.165902 0.407624-0.05469 0.796875 0.05561 0.194625 0.210246 0.428892 0.414062 0.558593 0.203816 0.129702 0.408214 0.158204 0.558594 0.158204 0.392577 0 0.620195-0.128899 0.884765-0.271485 0.472551-0.224394 0.762951-0.593994 1.025391-1.037109v-2e-3c0.278293-0.464761 0.351563-0.982465 0.351563-1.5625 0-0.860336-0.245041-1.770987-0.681641-2.75586-0.332197-0.777985-1.004896-1.406899-1.654297-2.042968 0.325457-0.03121 0.646167-0.09084 0.951172-0.234375 0.401865-0.189114 0.771733-0.464977 1.140625-0.814454l2e-3 -2e-3v-2e-3c0.144841-0.138257 0.263473-0.317921 0.400391-0.46875 0.05595 0.161784 0.02836 0.357482 0.121093 0.50586l0.01172 0.01563 0.0098 0.01563c0.254838 0.370673 0.589994 0.684216 1.007812 0.863281 0.328598 0.140825 0.679865 0.22743 1.054688 0.193359 0.359883-0.03272 0.651848-0.2752 0.966797-0.455078 0.0087 0.920089 0.460966 1.784455 1.197265 2.394531 0.779071 0.6483 1.786594 0.960938 2.888672 0.960938 0.472321 0 0.958424-0.07262 1.455078-0.205078 0.501851-0.117096 1.008461-0.296186 1.523438-0.535157 0.945312-0.434844 1.823621-1.054858 2.630859-1.84375 0.661232-0.632545 1.259629-1.368874 1.84375-2.128906 0.912917 0.179145 1.829842 0.369714 2.75586 0.597656h2e-3c1.071743 0.259817 2.091258 0.60146 3.060547 1.021485 0.929887 0.402951 1.760877 0.939984 2.503906 1.621094l0.0039 0.0059 0.0059 0.0039c0.498025 0.441107 0.792583 0.887775 0.94336 1.365235 0.181545 0.574892 0.263672 1.089085 0.263672 1.542968 0 0.575167-0.09333 0.948379-0.136719 1.035157l-0.0078 0.01367-0.0059 0.01563c-0.08386 0.18449-0.176322 0.386587-0.277344 0.605469l-0.01758 0.03516-0.01172 0.03516c-0.07002 0.196054-0.165901 0.407623-0.05469 0.796875 0.05561 0.194625 0.210246 0.428892 0.414062 0.558593 0.203817 0.129702 0.406261 0.158204 0.556641 0.158204 0.390782 0 0.619747-0.127781 0.882813-0.269532 0.474167-0.224249 0.766355-0.5951 1.029296-1.039062v-2e-3c0.278294-0.464761 0.351563-0.982465 0.351563-1.5625 0-0.860337-0.24504-1.770987-0.681641-2.75586-0.332197-0.777986-1.004895-1.406899-1.654297-2.042968 0.324782-0.03142 0.644804-0.09112 0.949219-0.234375 0.401865-0.189114 0.773687-0.464977 1.142578-0.814454v-2e-3l2e-3 -2e-3c0.144841-0.138257 0.263474-0.317921 0.400391-0.46875 0.05595 0.161784 0.02836 0.357482 0.121094 0.50586l0.0098 0.01563 0.01172 0.01563c0.254838 0.370673 0.589993 0.684216 1.007813 0.863281 0.328598 0.140825 0.679865 0.22743 1.054687 0.193359 0.594111-0.05401 1.137732-0.339366 1.59375-0.751953l2e-3 -2e-3c0.430094-0.390994 0.827123-0.857824 1.197266-1.394531l0.0078-0.0118c0.352259-0.528388 0.678399-1.066007 0.978516-1.613281l0.0039-0.0039 2e-3 -0.0059c0.292132-0.549894 0.542068-1.041253 0.751954-1.478516l0.01758-0.03516 0.01367-0.03711c0.062963-0.168474 0.130517-0.242179 0.130517-0.581694 0-0.162385-0.01345-0.386803-0.193359-0.638672-0.179909-0.25187-0.554396-0.40625-0.798829-0.40625-0.248184 0-0.536178 0.100135-0.732421 0.263672-0.196244 0.163536-0.306109 0.358045-0.376954 0.535156l0.0293-0.06641c-0.149549 0.299098-0.352557 0.694632-0.605468 1.183593-0.241087 0.449286-0.506295 0.899549-0.796875 1.351563-0.158151 0.246012-0.312551 0.405142-0.46875 0.597656 0.07449-0.267226 0.162503-0.560035 0.320312-0.941406 0.19213-0.464314 0.409737-0.91992 0.650391-1.369141 0.247904-0.462753 0.478014-0.872387 0.689453-1.230469 0.0013-0.0022 0.0026-0.0056 0.0039-0.0078 0.211353-0.328052 0.393618-0.55768 0.425781-0.589844l1.910157-1.912109-2.013672 0.335937c2e-6 -8.64e-4 2e-3 -0.0011 2e-3 -2e-3 0-0.372777-0.182238-0.757693-0.427735-1.007812-0.354649-0.373203-0.789272-0.658971-1.271484-0.822266-0.447417-0.167333-0.922383-0.255859-1.404297-0.255859-0.834814 0-1.670331 0.232576-2.480469 0.65625-0.792748 0.406686-1.483021 0.958159-2.046875 1.638672l-4e-3 4e-3c-0.805354 0.984322-1.406429 1.955048-1.787109 2.925781-0.366806 0.935356-0.566406 1.805183-0.566406 2.626953 0 0.452021 0.199339 0.816801 0.326171 1.214844-0.390822-0.234346-0.722708-0.500803-1.15039-0.714844-0.993126-0.522147-2.006237-0.968261-3.03711-1.335937-6.36e-4 -2.38e-4 -0.0013 2.37e-4 -2e-3 0-0.630683-0.235126-1.185576-0.37945-1.763672-0.550782 0.383751-0.701105 0.69718-1.286387 0.935547-1.746093 0.238074-0.459144 0.45109-0.885371 0.640625-1.28125l0.0078-0.01367 0.521484-1.044922c0.966127-0.211821 1.924062-0.484722 2.853516-0.933594l0.0039-2e-3c1.090717-0.518919 2.112029-1.164655 3.058594-1.931641l2e-3 -2e-3c0.962765-0.766921 1.815282-1.626867 2.550781-2.576172 0.759719-0.958692 1.355-1.982286 1.777344-3.064453 0.442345-1.090042 0.671875-2.202425 0.671875-3.316406v-0.253906c0-0.12965-0.01305-0.246356-0.0293-0.394531-0.0515-0.72719-0.434395-1.396356-0.996094-1.896485-0.587919-0.537785-1.375204-0.810547-2.203125-0.810547-0.826205 0-1.657389 0.297501-2.521484 0.804688l-0.0078 4e-3c-0.910146 0.546088-1.764935 1.415606-2.636718 2.589844h-2e-3v2e-3c-0.879358 1.190797-1.699383 2.773847-2.496094 4.765625l-0.207031 0.517578-0.0039 0.01172c-0.112462 0.305254-0.27028 0.703144-0.470703 1.1875l-0.0039 0.01172-0.0059 0.01172c-0.185545 0.489163-0.379467 0.99624-0.582032 1.519532-0.202282 0.522561-0.386812 0.994375-0.554687 1.414062l-0.0039 0.0078-0.0039 0.0098c-0.05859 0.156249-0.07008 0.174426-0.115234 0.28711-0.200662 0.01394-0.415244 0.03906-0.597656 0.03906-0.952549 0-1.665719-0.158483-2.160157-0.410156-0.537487-0.291095-0.877087-0.623945-1.091796-1.017578-0.237915-0.436176-0.351563-0.881883-0.351563-1.388672 0-0.60538 0.140897-1.20287 0.443359-1.824219 0.315658-0.613989 0.744479-1.135505 1.310547-1.585937 0.553305-0.426896 1.164534-0.675085 1.898438-0.759766h0.0039l0.0039-2e-3c0.31504-0.03938 0.575371-0.0851 0.84961-0.205078 0.137119-0.05999 0.285495-0.139399 0.435547-0.298828 0.150051-0.15943 0.287109-0.437633 0.287109-0.710938 0-0.205846-0.08753-0.456604-0.224609-0.621094-0.136942-0.16457-0.291695-0.247281-0.415883-0.296956-0.248376-0.09935-0.422665-0.099609-0.607422-0.099609h-0.228516c-0.196305 0-0.358053 0.04887-0.507812 0.105469-1.332462 0.319726-2.481837 0.754938-3.414063 1.351562-0.913221 0.578394-1.628938 1.261735-2.103515 2.064453-0.457087 0.757203-0.708984 1.584413-0.708985 2.425782 1e-6 1.012486 0.334907 1.986976 0.951172 2.841796l0.0078 0.0118c0.641642 0.862207 1.53632 1.536487 2.626953 2.025391l0.0059 0.0039 0.0059 2e-3c0.738598 0.318364 1.655294 0.343413 2.533203 0.431641-0.268848 0.542234-0.543167 1.10874-0.798828 1.599609-0.327369 0.614993-0.691783 1.201914-1.060547 1.785156-0.240274-0.03135-0.467505-0.08181-0.722656-0.0918h-0.0059c-0.436044-0.03395-0.879465-0.05273-1.330078-0.05273-0.738254 0-1.453589 0.04493-2.146484 0.132813-2e-3 2.09e-4 -0.0038-2.1e-4 -0.0059 0-0.699802 0.07207-1.347077 0.189717-1.943359 0.357422l-0.0078 2e-3 -0.0059 2e-3c-0.514754 0.154426-0.936202 0.349653-1.365234 0.541015 0.19312-0.371917 0.39023-0.748362 0.541015-1.0625l0.01563-0.03516 0.01367-0.03711c0.0633-0.168811 0.13086-0.242516 0.13086-0.582031 0-0.162385-0.01345-0.386803-0.19336-0.638672-0.179908-0.25187-0.554395-0.40625-0.798828-0.40625-0.248184 0-0.536178 0.100135-0.732422 0.263672-0.196243 0.163536-0.306109 0.358045-0.376953 0.535156l0.0293-0.06641c-0.14955 0.299098-0.350605 0.694632-0.603516 1.183593-0.241087 0.449288-0.508245 0.899546-0.798828 1.351563-0.15815 0.246012-0.31255 0.405142-0.46875 0.597656 0.07449-0.267241 0.16444-0.559993 0.322266-0.941406 0.19213-0.464314 0.407783-0.91992 0.648437-1.369141 0.247903-0.462753 0.478015-0.872387 0.689453-1.230469 0.0013-0.0022 0.0026-0.0056 0.0039-0.0078 0.211353-0.328052 0.393618-0.557681 0.425781-0.589844l1.910156-1.912109-2.013672 0.335937c3e-6 -8.64e-4 2e-3 -0.0011 2e-3 -2e-3 0-0.372777-0.182238-0.757693-0.427734-1.007812-0.354649-0.373203-0.789272-0.658971-1.271484-0.822266-0.447409-0.167326-0.920441-0.255859-1.402344-0.255859-0.834815 0-1.672284 0.232575-2.482422 0.65625-0.792749 0.406686-1.483022 0.958159-2.046875 1.638672l-2e-3 2e-3v2e-3c-0.805354 0.984322-1.408383 1.955048-1.789063 2.925781-0.366806 0.935356-0.566406 1.805183-0.566406 2.626953 0 0.451839 0.197493 0.816934 0.324219 1.214844-0.390209-0.233904-0.721497-0.501174-1.148438-0.714844-0.993657-0.522426-2.005665-0.968148-3.037109-1.335937-0.631374-0.235428-1.186946-0.379277-1.765625-0.550782 0.383752-0.701105 0.69718-1.286386 0.935547-1.746093 0.238074-0.459144 0.451089-0.885371 0.640625-1.28125l0.0078-0.01367 0.523438-1.046875c0.964798-0.211711 1.923338-0.483519 2.851562-0.931641 1.095131-0.520635 2.120465-1.168821 3.070313-1.939453 0.961322-0.766324 1.812307-1.623982 2.546875-2.572266l2e-3 -0.0039c0.756512-0.955313 1.349849-1.97485 1.771484-3.052734v-2e-3c0.443926-1.091937 0.673829-2.206267 0.673829-3.322266v-0.253906c0-0.12965-0.01305-0.246356-0.0293-0.394531-0.05155-0.727776-0.433648-1.398182-0.996094-1.898438-0.587724-0.536642-1.376086-0.808594-2.203125-0.808594zm-0.25 1.81836c-0.444368 0.133038-0.885625 0.223434-1.339844 0.550781-0.731547 0.508924-1.462879 1.28258-2.269531 2.333984-0.127456 0.163476-0.269618 0.476068-0.398438 0.65625 0.160294-0.255187 0.324128-0.715236 0.482422-0.929687l2e-3 -2e-3c0.786352-1.058647 1.521627-1.762493 2.134766-2.13086 5.62e-4 -3.37e-4 0.0014-0.0016 2e-3 -2e-3 0.583888-0.34131 1.013707-0.433992 1.386719-0.476562zm27.130859 0c-0.444367 0.133038-0.885625 0.223434-1.339843 0.550781-0.731549 0.508924-1.46288 1.28258-2.269532 2.333984-0.13096 0.167971-0.277753 0.488219-0.410156 0.673828 0.16357-0.261153 0.332645-0.728509 0.494141-0.947265v-2e-3c0.785677-1.057999 1.517948-1.759952 2.130859-2.128907l0.0039-2e-3c0.586187-0.34336 1.016513-0.435819 1.390625-0.478515zm-26.476562 1.464843c0.01135 0.01638 0.02539 0.0205 0.02539 0.123047 1e-6 1.037444-0.228961 2.057467-0.705078 3.087891-0.486114 1.034565-1.13796 2.001608-1.96289 2.90625-6.38e-4 6.99e-4 -0.0013 0.0013-2e-3 2e-3 -0.825469 0.887883-1.752513 1.646402-2.783204 2.28125-0.373425 0.223786-0.756754 0.288814-1.132812 0.460938 0.0047-0.0092 9e-3 -0.02014 0.01367-0.0293l0.0039-0.0078c0.350184-0.667112 0.633669-1.21702 0.855469-1.660156l0.01172-0.02344 0.347656-0.646484 0.0059-0.0078c0.881635-1.729999 1.699307-3.070171 2.425781-4.001954l2e-3 -2e-3 2e-3 -0.0039c0.74799-0.975639 1.405629-1.637807 1.890625-1.974609l0.0059-0.0039 0.0059-0.0059c0.537428-0.388142 0.925698-0.493633 0.990235-0.494141zm27.130859 0c0.01135 0.01638 0.02539 0.0205 0.02539 0.123047 0 1.038834-0.231569 2.059962-0.708985 3.091797-0.485269 1.031477-1.134823 1.99616-1.957031 2.898438-0.826903 0.89051-1.754057 1.650806-2.787109 2.287109-0.373426 0.223786-0.756755 0.288814-1.132813 0.460938 0.0047-0.0092 9e-3 -0.02014 0.01367-0.0293l0.0039-0.0078c0.350185-0.667112 0.633669-1.217021 0.855469-1.660156l0.01172-0.02344 0.347656-0.646484 0.0039-0.0078c0.881634-1.729999 1.70126-3.070171 2.427735-4.001954l2e-3 -2e-3 2e-3 -0.0039c0.74799-0.975639 1.403676-1.637807 1.888672-1.974609l0.0078-0.0039 0.0059-0.0059c0.53732-0.388087 0.925589-0.493578 0.990126-0.494086zm-24.232422 11.886719c0.141468 0 0.174525 0.02316 0.205078 0.04297-0.356875 0.13724-0.763651 0.182665-0.984375 0.488281-0.247932 0.343292-0.499689 0.751785-0.765625 1.230469v2e-3l-2e-3 2e-3c-0.367906 0.668919-0.726769 1.294616-1.076172 1.876953-0.329882 0.549804-0.69931 1.075833-1.107421 1.580078-6.57e-4 7.6e-4 -0.0013-7.58e-4 -2e-3 0-0.44401 0.513534-0.661012 0.571815-0.833984 0.638672 0.0012-0.0086 0.0011-0.0048 0.0098-0.05664v-0.0059l2e-3 -0.0078c0.04065-0.270994 0.11668-0.557507 0.232422-0.861328 0.126778-0.332794 0.25267-0.627676 0.375-0.888672 0.138927-0.260925 0.249774-0.452787 0.273437-0.488281l0.0078-0.01367 0.0098-0.01367c0.4295-0.699926 0.93185-1.378567 1.509766-2.03711 9.8e-4 -0.0011 9.72e-4 -0.0028 2e-3 -0.0039 0.575267-0.63574 1.107578-1.063281 1.554688-1.300781 0.282504-0.138513 0.491026-0.183594 0.589843-0.183594zm27.13086 0c0.141468 0 0.174525 0.02316 0.205078 0.04297-0.357011 0.137223-0.763582 0.184521-0.984375 0.490234-0.247933 0.343292-0.499689 0.749832-0.765625 1.228516l-2e-3 2e-3v2e-3c-0.367906 0.668919-0.72677 1.294616-1.076172 1.876953-0.329883 0.549804-0.699311 1.075833-1.107422 1.580078-6.56e-4 7.6e-4 -0.0013-7.58e-4 -2e-3 0-0.442344 0.511606-0.658376 0.56905-0.832031 0.636719 0.0013-0.01068-4.94e-4 -0.0048 0.0078-0.05469v-0.0059l2e-3 -0.0078c0.04065-0.270995 0.116681-0.557506 0.232422-0.861328 0.128635-0.337665 0.254875-0.638615 0.378906-0.902344 3.25e-4 -6.89e-4 0.0016-0.0013 2e-3 -2e-3 0.132569-0.247915 0.24465-0.438262 0.267579-0.472656l0.0078-0.01367 0.0098-0.01367c0.4295-0.699926 0.931849-1.378567 1.509765-2.03711 9.81e-4 -0.0011 9.73e-4 -0.0028 2e-3 -0.0039 0.575267-0.63574 1.107578-1.063281 1.554688-1.300781 0.282505-0.138513 0.491028-0.183594 0.589844-0.183594zm-0.769532 3.890625c-0.0909 0.222443-0.135433 0.40341-0.205078 0.605469l-0.113281-0.04883c0.104292-0.174559 0.212812-0.375247 0.318359-0.556641zm-27.132812 0.003906c-0.09014 0.22079-0.133952 0.400872-0.203125 0.601563l-0.113281-0.04883c0.103626-0.173438 0.21154-0.372548 0.316406-0.552735zm-16.535156 0.650391 0.0332 0.0039c-0.0038-4.59e-4 -0.0079 4.56e-4 -0.01172 0-0.0074-6.09e-4 -0.01405-0.0033-0.02148-0.0039zm27.130859 0 0.0332 0.0039c-0.0038-4.59e-4 -0.0079 4.56e-4 -0.01172 0-0.0074-6.09e-4 -0.01405-0.0033-0.02148-0.0039zm-28.496094 1.654297c0.2751 0 0.540267 0.02554 0.806641 0.04687-0.842602 0.947505-1.7050303 1.726354-2.6035156 2.166016-0.4235218 0.195873-0.8213321 0.33452-1.1914063 0.419921l-0.00391 2e-3h-0.00391c-0.3673228 0.08816-0.698347 0.128906-0.9921875 0.128906-0.5875549 0-0.9585748-0.124471-1.1953125-0.294922l-0.01954-0.0118c-0.2601161-0.17685-0.2558431-0.216845-0.2558431-0.351522 0-0.141635 0.090967-0.387376 0.5605469-0.765625 0.4754099-0.368601 1.2437464-0.728643 2.3046875-1.013672l0.01954-0.0078c0.4061092-0.120328 0.8191371-0.202697 1.2402344-0.248047 0.4637602-0.04798 0.908807-0.07031 1.333984-0.07031zm27.13086 0c0.275549 0 0.539845 0.02548 0.80664 0.04687-0.842602 0.947505-1.70503 1.726354-2.603515 2.166016-0.423522 0.195873-0.821332 0.33452-1.191407 0.419921l-0.0039 2e-3h-0.0039c-0.367322 0.08816-0.698347 0.128906-0.992188 0.128906-0.587554 0-0.958574-0.124471-1.195312-0.294922l-0.0196-0.0118c-0.260132-0.17689-0.25586-0.216885-0.25586-0.351562 0-0.141635 0.09097-0.387376 0.560547-0.765625 0.475411-0.368601 1.241796-0.728644 2.302735-1.013672l0.01172-0.0039 0.0098-0.0039c0.406109-0.120328 0.819137-0.202697 1.240234-0.248047 0.463761-0.04798 0.908808-0.07031 1.333985-0.07031zm-13.830078 2.472656 0.01172 0.0098c-0.0028-0.0026-0.0069-0.0033-0.0098-0.0059-0.0012-1e-3 -8.01e-4 -0.0029-2e-3 -0.0039zm27.130859 0 0.01172 0.0098c-0.0028-0.0026-0.0069-0.0033-0.0098-0.0059-0.0012-1e-3 -8e-4 -0.0029-2e-3 -0.0039zm-46.626953 1.402344c0.00164 0.0012 0.00422 7.75e-4 0.00586 2e-3 0.00456 0.0031 0.00714 0.0086 0.011719 0.01172zm27.128906 0c0.0026 0.0019 0.0071 6.2e-5 0.0098 2e-3 0.0042 0.0029 0.0056 0.0089 0.0098 0.01172z" fill="#f2bfda" stop-color="#000000"/>
  </g>
</svg>
