<svg id="svg290" version="1.1" viewBox="0 0 64 64" xmlns="http://www.w3.org/2000/svg">
  <defs id="defs278">
    <style id="style266" type="text/css"/>
    <style id="style268" type="text/css"/>
    <filter id="filter1057" x="-.026999999" y="-.026999999" width="1.054" height="1.054" color-interpolation-filters="sRGB">
      <feGaussianBlur id="feGaussianBlur270" stdDeviation="0.61875"/>
    </filter>
    <linearGradient id="linearGradient1053" x1="-127" x2="-72" y1="60" y2="5" gradientTransform="translate(131.5 -.51)" gradientUnits="userSpaceOnUse">
      <stop id="stop273" stop-color="#ebebeb" offset="0"/>
      <stop id="stop275" stop-color="#f2f2f2" offset="1"/>
    </linearGradient>
  </defs>
  <rect id="rect280" x="4.5" y="4.5" width="55" height="55" ry="15" fill="#141414" filter="url(#filter1057)" opacity=".3" stroke-linecap="round" stroke-width="2.7444"/>
  <rect id="rect282" x="4.5" y="4.5" width="55" height="55" ry="15" fill="url(#linearGradient1053)" stroke-linecap="round" stroke-width="2.7444"/>
  <circle id="circle284" cx="-1326.3" cy="-1241.6" r="0" fill="#5e4aa6"/>
  <circle id="circle286" cx="-226.72" cy="23.855" r="0" fill="#5e4aa6" fill-rule="evenodd"/>
  <g id="g696" transform="matrix(.04034992 0 0 .04034992 36.597798 -5.7089683)" fill="#028080" stroke-width="24.7832">
    <path id="path685" d="m-260.19583 1432.6117c90.5893 34.176 202.0506 25.712 293.3333 0-24.808-72.8587-84.8587-58.6667-146.6667-58.6667-61.9546 0-121.7973-14.3707-146.6666 58.6667z"/>
    <path id="path683" d="m134.47077 1389.945c83.7867-35.0667 172.912-124.1627 208-208-72.2053-27.8533-99.448 16.84-146.6666 64-45.7227 45.6667-89.8854 74.032-61.3334 144"/>
    <path id="path681" d="m-569.52912 1181.945c23.853 65.152 87.28799 125.7147 141.33329 166.328 20.5547 15.448 42.3253 32.76 66.6667 41.672 27.8533-72.2053-16.84-99.448-64-146.6667-46.424-46.48-73.26669-88.6186-143.99999-61.3333"/>
    <path id="path679" d="m385.13747 1080.6117c30.2187-94.50933 26.6907-198.57866 0-293.33333-74.72 25.44267-58.6667 86.72-58.6667 149.33334 0 61.02666-14.528 119.98129 58.6667 143.99999"/>
    <path id="path677" d="m-612.19582 787.27837c-29.6016 92.57334-29.5968 200.77334 0 293.33333 72.8589-24.808 58.6667-84.85866 58.6667-146.66666 0-61.95467 14.3714-121.79733-58.6667-146.66667"/>
    <path id="path675" d="m-134.86253 655.07571c-51.3413 6.76267-98.6 20.00533-141.3333 50.67733-29.8213 21.40533-55.1013 47.608-74.4907 78.85867-85.76 138.224-34.8533 331.01069 114.4907 401.81329 51.7013 24.5093 109 31.6773 165.3333 24.0827 37.6107-5.0667 74.592-19.3894 106.6667-39.4027 202.3733-126.2746 155.0533-447.93329-77.3334-507.47996-29.9573-7.67733-62.439997-12.616-93.333297-8.54933"/>
    <path id="path673" d="m134.47077 477.94505c-27.9573 72.47467 16.7307 99.248 63.9974 146.66666 46.6026 46.752 72.9466 88.744 144.0026 61.33333-35.0026-83.62933-124.32-172.97626-208-207.99999"/>
    <path id="path671" d="m-364.19583 477.94505c-81.6187 48.13333-167.63599 117.93333-205.33329 207.99999 78.98659 32.232 107.92259-29.84266 159.99999-76.87999 35.5653-32.12533 86.416-80.21867 45.3333-131.12"/>
    <path id="path667" d="m-260.19583 435.27839c24.992 73.39706 84.4027 58.66666 146.6666 58.66666 61.954697 0 121.7974 14.37147 146.6667-58.66666-94.5093-30.22-198.5786-26.6896-293.3333 0"/>
  </g>
</svg>
