<svg id="svg61" version="1.1" viewBox="0 0 64 64" xmlns="http://www.w3.org/2000/svg" xmlns:xlink="http://www.w3.org/1999/xlink">
    <defs id="defs21">
        <linearGradient id="b" x1="399.57" x2="399.57" y1="545.8" y2="517.8" gradientTransform="matrix(2.1429 0 0 2.1429 -826.36 -1107.5)" gradientUnits="userSpaceOnUse">
            <stop id="stop4" stop-color="#3889e9" offset="0"/>
            <stop id="stop6" stop-color="#5ea5fb" offset="1"/>
        </linearGradient>
        <style id="style4" type="text/css"/>
        <filter id="filter1057" x="-.027000001" y="-.027000001" width="1.054" height="1.054" color-interpolation-filters="sRGB">
            <feGaussianBlur id="feGaussianBlur1059" stdDeviation="0.61875"/>
        </filter>
        <linearGradient id="linearGradient1053" x1="-127" x2="-72" y1="60" y2="5" gradientTransform="translate(131.5 -.5099984)" gradientUnits="userSpaceOnUse">
            <stop id="stop1047" stop-color="#32d7ff" offset="0"/>
            <stop id="stop1049" stop-color="#329bff" offset="1"/>
        </linearGradient>
        <style id="style872" type="text/css"/>
        <style id="style4-5" type="text/css"/>
        <style id="style6" type="text/css"/>
        <style id="style8" type="text/css"/>
        <style id="style872-0" type="text/css"/>
        <style id="style874" type="text/css"/>
        <style id="style876" type="text/css"/>
    </defs>
    <circle id="circle43" cx="32.02" cy="32.044" r="0" fill="url(#b)" stroke-width="1.5715"/>
    <circle id="circle16" cx="-1124.8" cy="-1279.3" r="0" fill="#5e4aa6" image-rendering="optimizeSpeed"/>
    <g id="g26" transform="matrix(3.7796,0,0,3.7796,123.83,-38.184)" fill="#5e4aa6" image-rendering="optimizeSpeed" stroke-width=".26458">
        <circle id="circle18" cx="-299.01999" cy="-338.76999" r="0"/>
        <circle id="circle20" cx="-8.1062002" cy="-3.9487" r="0" fill-rule="evenodd"/>
        <circle id="circle22" cx="-278.25" cy="-357.69" r="0"/>
        <circle id="circle24" cx="12.663" cy="-22.858999" r="0" fill-rule="evenodd"/>
    </g>
    <rect id="rect1055" x="4.4999995" y="4.4999995" width="55" height="55" ry="15" fill="#141414" filter="url(#filter1057)" image-rendering="optimizeSpeed" opacity=".3" stroke-linecap="round" stroke-width="2.74436"/>
    <rect id="rect1045" x="4.5000019" y="4.5000019" width="54.999996" height="54.999996" ry="14.999999" fill="url(#linearGradient1053)" image-rendering="optimizeSpeed" stroke-linecap="round" stroke-width="2.74436"/>
    <g id="g1047" transform="matrix(2.250225,0,0,2.250225,-40.008323,-40.008999)">
        <path id="path1033" d="m24.502396 23.668091h14.996207c1.382701 0 2.500896 1.121278 2.500896 2.500896v11.663624c0 1.385867-1.118195 2.500895-2.500896 2.500895h-14.996207a2.4977289 2.4977289 0 0 1-2.500895-2.500895v-11.663624c0-1.379618 1.121278-2.500896 2.500895-2.500896" fill="#fff" fill-opacity=".987" opacity=".3" stroke-width="3.14974"/>
        <g id="g1037" transform="scale(3.7796)" opacity=".1">
            <path id="path1035" d="m7.673 8.864a0.397 0.397 0 1 1-0.794 0 0.397 0.397 0 0 1 0.794 0m1.058 0a0.397 0.397 0 1 1-0.794 0 0.397 0.397 0 0 1 0.794 0m1.059 0a0.397 0.397 0 1 1-0.794 0 0.397 0.397 0 0 1 0.794 0"/>
        </g>
        <g id="g1045" stroke-width="3.7796">
            <path id="path1039" d="m25.002 30.002h14c0.55182 0 0.99782 0.44599 0.99782 0.99782v3.001a1.0016 1.0016 0 0 1-0.99782 0.99782h-14a1.0016 1.0016 0 0 1-1.0016-0.99782v-3.001c0-0.55182 0.44977-0.99782 1.0016-0.99782" fill="#f9f9f9"/>
            <path id="path1041" d="m27.999 32.501a1.5005 1.5005 0 1 1-3.001 0 1.5005 1.5005 0 0 1 3.001 0m4.0026 0a1.5005 1.5005 0 1 1-3.001 0 1.5005 1.5005 0 0 1 3.001 0m3.9988 0a1.5005 1.5005 0 1 1-3.001 0 1.5005 1.5005 0 0 1 3.001 0" fill="#2d2d2d"/>
            <path id="path1043" d="m24.242 27.001h7.5214c0.13229 0 0.24189 0.10583 0.24189 0.23812v0.51781a0.24189 0.24189 0 0 1-0.24189 0.24189h-7.5214a0.24189 0.24189 0 0 1-0.2419-0.24189v-0.51781c0-0.13229 0.10961-0.23812 0.2419-0.23812" fill="#f9f9f9"/>
        </g>
    </g>
</svg>
