<svg id="svg65" version="1.1" viewBox="0 0 64 64" xmlns="http://www.w3.org/2000/svg">
    <defs id="defs7">
        <style id="style858" type="text/css"/>
        <filter id="filter1057" x="-.027000001" y="-.027000001" width="1.054" height="1.054" color-interpolation-filters="sRGB">
            <feGaussianBlur id="feGaussianBlur860" stdDeviation="0.61875"/>
        </filter>
        <linearGradient id="linearGradient1053" x1="-127" x2="-72" y1="60" y2="5" gradientTransform="translate(131.5 -.51)" gradientUnits="userSpaceOnUse">
            <stop id="stop863" stop-color="#32d7ff" offset="0"/>
            <stop id="stop865" stop-color="#329bff" offset="1"/>
        </linearGradient>
        <style id="style868" type="text/css"/>
        <style id="style870" type="text/css"/>
        <style id="style872" type="text/css"/>
        <style id="style874" type="text/css"/>
        <style id="style876" type="text/css"/>
        <style id="style878" type="text/css"/>
        <style id="style880" type="text/css"/>
    </defs>
    <circle id="circle884" cx="-1124.8" cy="-1279.3" r="0" fill="#5e4aa6"/>
    <g id="g894" transform="matrix(3.7796,0,0,3.7796,123.83,-38.184)" fill="#5e4aa6" stroke-width=".26458">
        <circle id="circle886" cx="-299.01999" cy="-338.76999" r="0"/>
        <circle id="circle888" cx="-8.1062002" cy="-3.9487" r="0" fill-rule="evenodd"/>
        <circle id="circle890" cx="-278.25" cy="-357.69" r="0"/>
        <circle id="circle892" cx="12.663" cy="-22.858999" r="0" fill-rule="evenodd"/>
    </g>
    <rect id="rect896" x="4.5" y="4.5" width="55" height="55" ry="15" fill="#141414" filter="url(#filter1057)" opacity=".3" stroke-linecap="round" stroke-width="2.7444"/>
    <rect id="rect898" x="4.5" y="4.5" width="55" height="55" ry="15" fill="url(#linearGradient1053)" stroke-linecap="round" stroke-width="2.7444"/>
    <g id="g985" transform="matrix(1.1510408,0,0,1.1510408,-77.030112,-7.0252827)" fill="#fff" stroke-width="1.01144">
        <path id="path957" d="m96.67615 26.161793c-0.285225-2.827978-2.76628-5.257449-5.402085-5.257449-2.692445 0-5.167432 0.931533-7.137711 2.479032-0.522913-0.01618-1.120672 0.04147-1.744729 0.191161-1.756866 0.419747-3.035322 1.37252-2.855287 2.128064 0.11935 0.500661 0.853653 0.782852 1.839804 0.799035-1.062009 1.749786-1.685054 3.7939-1.685054 5.985684 0 4.24399 2.303042 7.944838 5.716642 9.958609-0.339843 0.368163-0.652377 0.883996-0.870847 1.500973-0.48549 1.370497-0.321637 2.676262 0.363106 2.917995 0.684743 0.242745 1.631448-0.671594 2.116937-2.04108 0.103167-0.295339 0.171945-0.585622 0.217459-0.864778 0.269043 0.08901 0.557302 0.163853 0.866802 0.208356 1.438263 0.207344 2.687388-0.207345 2.791566-0.926477 0.103167-0.71812-0.977048-1.470629-2.416323-1.677973-0.615965-0.08901-1.192484-0.05866-1.663814 0.05664-0.02124-0.07485-0.867813-1.614253-0.941648-2.808761-0.09508-1.554578 0.368163-3.08994 1.376566-4.275344 0.394461-0.461215 0.868824-0.832412 1.374543-1.147981-0.09103 1.21777 0.191162 2.16751 0.765658 2.311134 0.75352 0.189139 1.720454-1.080215 2.159418-2.831012 0.03742-0.150704 0.06473-0.298374 0.09204-0.446044l0.400529-0.06979c2.843149-0.603828 4.936824-3.218393 4.636427-6.189995z"/>
        <path id="path959" d="m92.768969 41.646894c0.285225 2.827978 2.76628 5.257449 5.402085 5.257449 2.692446 0 5.167436-0.931533 7.137706-2.479032 0.52393 0.01618 1.12068-0.04147 1.74574-0.19015 1.75687-0.419746 3.03533-1.373531 2.85529-2.129075-0.11935-0.500661-0.85365-0.782852-1.8398-0.799035 1.06201-1.749786 1.68505-3.792889 1.68505-5.984673 0-4.243989-2.30304-7.944837-5.71664-9.958608 0.33984-0.368164 0.65339-0.883996 0.87085-1.500973 0.48448-1.370497 0.32163-2.676262-0.36311-2.917996-0.68474-0.242745-1.63145 0.671594-2.11694 2.04108-0.10316 0.29534-0.17194 0.585622-0.21746 0.863767-0.26904-0.08901-0.5573-0.163852-0.8668-0.208356-1.43826-0.207344-2.687385 0.207345-2.791563 0.926477-0.103167 0.71812 0.977048 1.470629 2.416323 1.677974 0.61597 0.08901 1.19248 0.05866 1.66483-0.05664 0.0212 0.07485 0.86781 1.614254 0.94164 2.808761 0.0951 1.554578-0.36816 3.08994-1.37656 4.275344-0.39446 0.462227-0.86782 0.834435-1.37353 1.150004 0.091-1.21777-0.19015-2.16751-0.76566-2.311134-0.753523-0.188127-1.720456 1.080215-2.15942 2.831012-0.03742 0.150704-0.06473 0.298374-0.09204 0.446044l-0.400529 0.06979c-2.847195 0.601805-4.939858 3.217381-4.639461 6.187972z"/>
    </g>
</svg>
