<svg id="svg306" version="1.1" viewBox="0 0 64 64" xmlns="http://www.w3.org/2000/svg">
  <defs id="defs294">
    <style id="style282" type="text/css"/>
    <style id="style284" type="text/css"/>
    <filter id="filter1057" x="-.026999999" y="-.026999999" width="1.054" height="1.054" color-interpolation-filters="sRGB">
      <feGaussianBlur id="feGaussianBlur286" stdDeviation="0.61875"/>
    </filter>
    <linearGradient id="b" x1="-895.96997" x2="-894.96997" y1="-475.62" y2="-475.62" gradientTransform="matrix(45.336596,-49.536314,-49.536314,-45.336596,17047.336,-65886.251)" gradientUnits="userSpaceOnUse">
      <stop id="stop403" stop-color="#ffbe00" offset="0"/>
      <stop id="stop405" stop-color="#ffbe00" offset=".00048203"/>
      <stop id="stop407" stop-color="#f39060" offset="1"/>
    </linearGradient>
    <linearGradient id="a" x1="-895.96997" x2="-894.96997" y1="-475.62" y2="-475.62" gradientTransform="matrix(-68.758875,56.211829,80.41958,48.061207,-23260.918,73233.906)" gradientUnits="userSpaceOnUse">
      <stop id="stop396" stop-color="#251480" offset="0"/>
      <stop id="stop398" stop-color="#251480" offset=".00048203"/>
      <stop id="stop400" stop-color="#e96bc3" offset="1"/>
    </linearGradient>
  </defs>
  <rect id="rect296" x="4.5" y="4.5" width="55" height="55" ry="15" fill="#141414" filter="url(#filter1057)" opacity=".3" stroke-linecap="round" stroke-width="2.7444"/>
  <rect id="rect298" x="4.5" y="4.5" width="55" height="55" ry="15" stroke-linecap="round" stroke-width="2.7444"/>
  <circle id="circle300" cx="-1326.3" cy="-1241.6" r="0" fill="#5e4aa6"/>
  <circle id="circle302" cx="-226.72" cy="23.855" r="0" fill="#5e4aa6" fill-rule="evenodd"/>
  <g id="g27" transform="matrix(.96153846 0 0 .96153846 1.2307693 1.2307693)" stroke-width="1.0816">
    <path id="path418" d="m 34.152344,6 -9.771485,52 h 19.4375 C 51.675079,58 58,51.675079 58,43.818359 V 20.181641 C 58,12.324921 51.675079,6 43.818359,6 Z" fill="url(#a)"/>
    <path id="path420" d="M 20.181641,6 C 12.324921,6 6,12.324921 6,20.181641 V 43.818359 C 6,51.675079 12.324921,58 20.181641,58 h 8.470703 L 35.482422,6 Z" fill="url(#b)"/>
    <path id="path422" d="m46.890625 25.095703c-2.821568 0.300217-5.164279 2.28199-5.945313 5.044922-0.47847 1.8013-0.23854 3.660549 0.66211 5.28125 0.90065 1.623047 2.401825 2.763324 4.203125 3.244141 0.600433 0.180598 1.260895 0.238281 1.861328 0.238281 2.160153 0 4.202953-1.019446 5.523437-2.759766v-0.123047l-0.11914-0.05859c-0.842013 0.119617-1.681423 9.12e-4 -2.523438-0.179688-3.541619-0.961629-5.643271-4.68299-4.68164-8.224609 0.239236-0.842014 0.601172-1.563153 1.140625-2.283203v-0.119144z" fill="#fff"/>
    <path id="path424" d="m18.310547 22.511719c-0.419835 0-0.720703 0.300868-0.720703 0.720703v2.582031c0 0.419835 0.36185 0.722656 0.720703 0.722656 0.419834 0 0.71875-0.302821 0.71875-0.722656v-2.582031c0-0.419835-0.298916-0.720703-0.71875-0.720703zm-3.949219 1.738281c-0.146952-5e-3 -0.300098 0.03441-0.435547 0.125-0.358853 0.1806-0.477517 0.658334-0.238281 1.019531l0.900391 1.621094c0.119618 0.241581 0.359939 0.361328 0.660156 0.361328 0.119618 0 0.239757-0.0605 0.359375-0.119141 0.361198-0.180598 0.481423-0.662238 0.242187-1.023437l-0.90039-1.621094c-0.112875-0.224283-0.342971-0.354989-0.587891-0.363281zm7.97461 0.04297c-0.232415 0.01734-0.452528 0.132677-0.603516 0.320312l-0.902344 1.621094c-0.239235 0.42218-0.119011 0.842839 0.242188 1.023437 0.119618 0.05864 0.239758 0.119141 0.359375 0.119141 0.24158 0 0.48151-0.119747 0.662109-0.361328l0.900391-1.621094c0.180598-0.361197 0.05998-0.780295-0.240235-1.019531-0.135449-0.06772-0.27852-0.09243-0.417968-0.08203zm3.013671 2.960937c-0.146828-0.0049-0.300097 0.03333-0.435547 0.123047l-1.621093 0.900391c-0.300217 0.1806-0.41888 0.662631-0.238281 1.021484 0.119617 0.241581 0.357986 0.361328 0.658203 0.361328 0.119618 0 0.24171-0.06246 0.361328-0.121094l1.621093-0.90039c0.361198-0.180599 0.481815-0.660286 0.240235-1.021484-0.111409-0.224283-0.341224-0.355105-0.585938-0.363282zm-14.001953 0.04102c-0.232208 0.01734-0.45204 0.134631-0.601562 0.322266-0.180599 0.361198-0.06194 0.840885 0.238281 1.021484l1.621094 0.90039c0.119618 0.05864 0.24171 0.121094 0.361328 0.121094 0.239236 0 0.479948-0.119747 0.658203-0.361328 0.180599-0.358853 0.06193-0.782248-0.238281-1.021484l-1.621094-0.900391c-0.135449-0.06772-0.278644-0.09244-0.417969-0.08203zm7.023438 0.74414c-2.162499 0-3.964844 1.800785-3.964844 3.960938 0 2.162499 1.802345 3.962891 3.964844 3.962891 2.160153 0 3.960937-1.800392 3.960937-3.962891 0-2.160153-1.800784-3.960937-3.960937-3.960938zm-8.7675784 3.240235c-0.4198345 0-0.7207031 0.300868-0.7207031 0.720703s0.3008686 0.720703 0.7207031 0.720703h2.5820314c0.361198 0 0.720703-0.300868 0.720703-0.720703s-0.300869-0.720703-0.720703-0.720703zm14.890625 0c-0.419835 0-0.71875 0.300868-0.71875 0.720703s0.298915 0.720703 0.71875 0.720703h2.582031c0.419834 0 0.720703-0.300868 0.720703-0.720703 0.06098-0.419835-0.300869-0.720703-0.720703-0.720703zm-0.898438 3.101562c-0.232322 0.01734-0.45204 0.132679-0.601562 0.320313-0.180599 0.361199-0.06193 0.782249 0.238281 1.021484l1.623047 0.900391c0.119618 0.06098 0.239757 0.121094 0.359375 0.121094 0.24158 0 0.48151-0.122094 0.662109-0.361329 0.239236-0.361198 0.11901-0.780296-0.242187-1.019531l-1.621094-0.90039c-0.13457-0.06772-0.278575-0.09244-0.417969-0.08203zm-10.554687 0.01563c-0.146829-5e-3 -0.300098 0.03529-0.435547 0.125l-1.560547 0.841797c-0.361198 0.180599-0.479469 0.658333-0.240234 1.019531 0.119617 0.239235 0.359939 0.361329 0.660156 0.361329 0.119618 0 0.239758-0.06011 0.359375-0.121094l1.623047-0.900391c0.239235-0.178254 0.358333-0.658767 0.177734-0.958984-0.111409-0.225749-0.339271-0.358805-0.583984-0.367188zm8.464843 2.222657c-0.146608-0.0047-0.299024 0.03441-0.433593 0.125-0.361199 0.178252-0.481423 0.660285-0.242188 1.021484l0.902344 1.621094c0.121963 0.239236 0.359939 0.359375 0.660156 0.359375 0.119618 0 0.239366-0.06011 0.361328-0.121094 0.358854-0.178254 0.47947-0.658333 0.240235-1.019531l-0.900391-1.621104c-0.112874-0.225749-0.343543-0.357424-0.587891-0.365234zm-6.316406 0.04297c-0.232322 0.01734-0.45204 0.134632-0.601562 0.322266l-0.900391 1.621082c-0.180599 0.361198-0.06193 0.780295 0.238281 1.019531 0.121962 0.06098 0.24171 0.121094 0.361328 0.121094 0.239236 0 0.481511-0.120139 0.66211-0.359375l0.90039-1.621094c0.239236-0.361199 0.119011-0.843232-0.242187-1.021484-0.13457-0.06772-0.278575-0.09244-0.417969-0.08203zm3.181641 0.802735c-0.419835 0-0.720703 0.300869-0.720703 0.720703v2.582031c0 0.419834 0.300868 0.720703 0.720703 0.720703 0.419833 0 0.71875-0.300869 0.71875-0.720703v-2.582031c0-0.419834-0.359898-0.720703-0.71875-0.720703z" fill="#fff"/>
  </g>
</svg>
