<svg id="svg343" version="1.1" viewBox="0 0 64 64" xmlns="http://www.w3.org/2000/svg">
  <defs id="defs331">
    <style id="style319" type="text/css"/>
    <style id="style321" type="text/css"/>
    <filter id="filter1057" x="-.026999999" y="-.026999999" width="1.054" height="1.054" color-interpolation-filters="sRGB">
      <feGaussianBlur id="feGaussianBlur323" stdDeviation="0.61875"/>
    </filter>
  </defs>
  <rect id="rect333" x="4.5" y="4.5" width="55" height="55" ry="15" fill="#141414" filter="url(#filter1057)" opacity=".3" stroke-linecap="round" stroke-width="2.7444"/>
  <circle id="circle337" cx="-1326.3" cy="-1241.6" r="0" fill="#5e4aa6"/>
  <circle id="circle339" cx="-226.72" cy="23.855" r="0" fill="#5e4aa6" fill-rule="evenodd"/>
  <g id="g3439" transform="translate(278.77539,63.113281)">
    <g stroke-width="2.61818">
      <path id="path591" d="m-246.77539-58.613281v27.5h27.5v-12.5c0-8.309992-6.69001-15-15-15z" fill="#64e9ee"/>
      <path id="path593" d="m-223.6582-54.230469-23.11719 23.117188h27.5v-12.5c0-4.154996-1.67157-7.90594-4.38281-10.617188z" fill="#97c8eb"/>
      <path id="path599" d="m-246.77539-31.113281v27.5h12.5c8.30999 0 15-6.6900088 15-15v-12.5z" fill="#8b94a3"/>
      <path id="path601" d="m-246.77539-31.113281 23.11523 23.115234h2e-3c2.71124-2.7112471 4.38281-6.4602381 4.38281-10.615234v-12.5z" fill="#3aafb9"/>
      <path id="path607" d="m-259.27539-58.613281c-8.30999 0-15 6.690008-15 15v12.5h27.5v-27.5z" fill="#8cfbde"/>
      <path id="path609" d="m-269.89062-54.228516c-2.71065 2.711168-4.38477 6.460761-4.38477 10.615235v12.5h27.5z" fill="#0fff95"/>
      <path id="path615" d="m-274.27539-31.113281v12.5c0 8.309991 6.69001 15 15 15h12.5v-27.5z" fill="#093a3e"/>
      <path id="path617" d="m-274.27539-31.113281v12.5c0 4.154996 1.67352 7.903987 4.38477 10.615234l23.11523-23.115234z" fill="#06ba63"/>
    </g>
    <path id="path589" d="m-233.02479-31.114046c0 7.594129-6.15587 13.75-13.75 13.75s-13.75-6.155871-13.75-13.75c0-7.59413 6.15587-13.75 13.75-13.75s13.75 6.15587 13.75 13.75z" fill="#f6f5f4" stroke-width="2.61818"/>
    <path id="path623" d="m-249.06348-26.154737v-1.330837c-1.12942 0-1.39797-0.462511-1.39797-1.462132v-1.577012c0-0.750461-0.29839-1.384549-1.59641-1.644152v-0.183512c1.29802-0.259603 1.59641-0.898166 1.59641-1.648627v-1.577013c0-0.995144 0.26855-1.456163 1.39797-1.456163v-1.336806c-1.92314 0-3.05256 0.484891-3.05256 2.654216v1.224908c0 1.010063-0.37449 1.423339-1.46661 1.423339v1.615804c1.09212 0 1.46661 0.413276 1.46661 1.42334v1.221924c0 2.167833 1.12942 2.652723 3.05256 2.652723z" stroke-width=".999999"/>
    <path id="path625" d="m-244.49058-38.366515v1.33233c1.12942 0 1.39797 0.461019 1.39797 1.460639v1.577012c0 0.750462 0.2984 1.384549 1.59641 1.644152v0.183512c-1.29801 0.259603-1.59641 0.899659-1.59641 1.648628v1.577012c0 0.995145-0.26855 1.457656-1.39797 1.457656v1.336805c1.92315 0 3.05257-0.486382 3.05257-2.654215v-1.2264c0-1.010064 0.37448-1.42334 1.4666-1.42334v-1.615804c-1.09212 0-1.4666-0.413276-1.4666-1.423339v-1.220432c0-2.169325-1.12942-2.654216-3.05257-2.654216z" stroke-width=".999999"/>
    <path id="path627" d="m-252.8859-23.897385h12.22222v1.572536h-12.22222z" fill="#62a0ea" fill-rule="evenodd" stroke-width="2.61818"/>
  </g>
</svg>
