<svg id="svg1591" version="1.1" viewBox="0 0 64 64" xmlns="http://www.w3.org/2000/svg">
  <defs id="defs1559">
    <style id="style1535" type="text/css"/>
    <filter id="filter1057" x="-.026999999" y="-.026999999" width="1.054" height="1.054" color-interpolation-filters="sRGB">
      <feGaussianBlur id="feGaussianBlur1537" stdDeviation="0.61875"/>
    </filter>
    <style id="style1545" type="text/css"/>
    <style id="style1547" type="text/css"/>
    <style id="style1549" type="text/css"/>
    <style id="style1551" type="text/css"/>
    <style id="style1553" type="text/css"/>
    <style id="style1555" type="text/css"/>
    <style id="style1557" type="text/css"/>
    <linearGradient id="linearGradient5" x1="4.5" x2="59.5" y1="59.5" y2="4.5" gradientUnits="userSpaceOnUse">
      <stop id="stop4" stop-color="#e6e6e6" offset="0"/>
      <stop id="stop5" stop-color="#f5f5f5" offset="1"/>
    </linearGradient>
    <filter id="filter4" x="-.027029" y="-.026971063" width="1.054058" height="1.0539421" color-interpolation-filters="sRGB">
      <feGaussianBlur id="feGaussianBlur4" stdDeviation="0.53942126"/>
    </filter>
    <linearGradient id="linearGradient2" x1="8.0514402" x2="55.948555" y1="56" y2="8" gradientUnits="userSpaceOnUse">
      <stop id="stop1" stop-color="#788976" offset="0"/>
      <stop id="stop2" stop-color="#8e9d8c" offset="1"/>
    </linearGradient>
  </defs>
  <circle id="circle1561" cx="-1124.8" cy="-1279.3" r="0" fill="#5e4aa6"/>
  <g id="g1571" transform="matrix(3.7796,0,0,3.7796,123.83,-38.184)" fill="#5e4aa6" stroke-width=".26458">
    <circle id="circle1563" cx="-299.02" cy="-338.77" r="0"/>
    <circle id="circle1565" cx="-8.1062" cy="-3.9487" r="0" fill-rule="evenodd"/>
    <circle id="circle1567" cx="-278.25" cy="-357.69" r="0"/>
    <circle id="circle1569" cx="12.663" cy="-22.859" r="0" fill-rule="evenodd"/>
  </g>
  <rect id="rect1573" x="4.5" y="4.5" width="55" height="55" ry="15" fill="#141414" filter="url(#filter1057)" opacity=".3" stroke-linecap="round" stroke-width="2.7444"/>
  <rect id="rect1575" x="4.5" y="4.5" width="55" height="55" ry="15" fill="url(#linearGradient5)" stroke-linecap="round" stroke-width="2.7444"/>
  <g stroke-width=".935308">
    <path id="path3" d="m43.71473 17.708497-0.477007-0.477007-1.010132 1.000779a10.194856 10.194856 0 0 1-1.056898 0.991426s-2.534685-2.525331-5.611848-5.611847c-3.077162-3.086515-5.527669-5.6118471-5.546375-5.6118471-0.01871 0-2.899455 2.8059241-6.416215 6.3320341l-6.36009 6.434918 1.01949 1.028839 1.01948 1.019486-5.61185 5.611847-5.6118399 5.611847 3.6289899 3.563523c2.00156 2.029618 4.8636 4.910366 6.34139 6.397506l2.69369 2.712393 1.01948-0.935308c0.56119-0.551832 1.02884-0.991426 1.03819-1.00078 9e-3 -0.0094 2.52533 2.525332 5.61185 5.611848l5.537022 5.611847 0.374123-0.36477 11.410756-11.279813 1.028838-1.028839-1.028838-1.047545a13.870616 13.870616 0 0 1-0.982073-1.056897s2.515978-2.515979 5.611847-5.555729c3.095869-3.039751 5.611847-5.537023 5.611847-5.555729 0-0.01871-7.239283-7.388932-12.233827-12.402182z" fill="#000000" filter="url(#filter4)" opacity=".3"/>
    <path id="path5" class="cls-2" d="m26.420887 41.212783 7.968823-4.601715c4.358534-2.525331 7.912704-4.611068 7.903351-4.629774-0.0094-0.01871-15.685113-9.156664-15.900234-9.231489 0 0-0.05612 1.870616-0.05612 9.222136 0.02806 6.71551 0.04677 9.250195 0.08418 9.240842z" fill="#ffffff"/>
    <path id="path6" class="cls-3" d="m43.714729 17.708496-0.477007-0.477007-1.010132 1.000779a10.194856 10.194856 0 0 1-1.056898 0.991426s-2.534685-2.525331-5.611848-5.611847c-3.077162-3.086516-5.527669-5.611847-5.546375-5.611847-0.01871 0-2.899455 2.805924-6.416212 6.332034l-6.360094 6.434918 1.019486 1.028839 1.019485 1.019486-11.223694 11.223694 3.628995 3.563523c2.001558 2.029618 4.8636 4.910366 6.341387 6.397506l2.693687 2.712393 1.019485-0.935308c0.561185-0.551832 1.028839-0.991426 1.038192-1.00078 0.0094-0.0094 2.525331 2.525332 5.611847 5.611848l5.537023 5.611847 0.374123-0.36477 11.410756-11.279813 1.028838-1.028839-1.028838-1.047545a13.870616 13.870616 0 0 1-0.982073-1.056897s2.515978-2.515979 5.611847-5.555729c3.095869-3.039751 5.611847-5.537023 5.611847-5.555729 0-0.01871-7.239283-7.388932-12.233827-12.402182zm-9.353079 18.902572-7.968823 4.601715s-0.05612-2.525332-0.05612-9.240842c0-7.379579 0-9.240842 0.05612-9.222136 0.187062 0.07483 15.900234 9.194077 15.900234 9.231489 0 0.03741-3.544817 2.104443-7.903351 4.629774z" fill="url(#linearGradient2)"/>
  </g>
</svg>
