<svg id="svg27" width="64" height="64" version="1.1" viewBox="0 0 16.933 16.933" xmlns="http://www.w3.org/2000/svg" xmlns:xlink="http://www.w3.org/1999/xlink">
    <defs id="defs17">
        <filter id="filter1057" x="-.026999999" y="-.026999999" width="1.054" height="1.054" color-interpolation-filters="sRGB">
            <feGaussianBlur id="feGaussianBlur1059" stdDeviation="0.61875"/>
        </filter>
        <radialGradient id="radialGradient2403" cx="8.4664998" cy="8.4664998" r="7.2758982" gradientUnits="userSpaceOnUse">
            <stop id="stop2397" stop-color="#ff9632" offset="0"/>
            <stop id="stop2399" stop-color="#eb4700" offset="1"/>
        </radialGradient>
        <radialGradient id="radialGradient2405" cx="8.4665003" cy="8.4665003" r="7.275898" gradientUnits="userSpaceOnUse">
            <stop id="stop1159" stop-color="#3583e3" offset="0"/>
            <stop id="stop1161" stop-color="#1b6aca" offset="1"/>
        </radialGradient>
    </defs>
    <g fill="#5e4aa6">
        <g id="g30" transform="scale(.26457812)">
            <circle id="circle24" cx="-1248.7" cy="-1241.6" r="0"/>
            <circle id="circle26" cx="-1140.3" cy="-1301.8" r="0"/>
            <circle id="circle28" cx="-1158.1" cy="-1246" r="0"/>
        </g>
        <circle id="circle36" cx="-306.19626" cy="-335.40567" r="0" stroke-width=".264578"/>
        <circle id="circle38" cx="-15.280974" cy="-.57754755" r="0" fill-rule="evenodd" stroke-width=".264578"/>
    </g>
    <g>
        <rect id="rect1055" transform="scale(.26457812)" x="4.5" y="4.5" width="55" height="55" ry="15" fill="#141414" filter="url(#filter1057)" opacity=".3" stroke-linecap="round" stroke-width="2.74436"/>
        <rect id="rect1045" x="1.1906021" y="1.1906021" width="14.551796" height="14.551796" ry="3.9686716" fill="url(#radialGradient2405)" stroke-linecap="round" stroke-width=".726098"/>
        <path id="path880" d="m5.1592734 1.1906016c-2.1986418 0-3.9686718 1.77003-3.9686718 3.9686718v2.3729351c0.3382216 0.8667721 0.8254711 1.6768116 1.4841179 2.3858539 0.7700262 0.8289406 1.9144071 1.5225636 3.0984579 1.7797016 1.1840508 0.257135 2.4074727 0.07809 3.3382318-0.836109 0.3187947-0.313122 0.5878443-0.776789 0.6826322-1.2520948 0.0947899-0.4753045 0.015729-0.9619195-0.3601776-1.3218571-0.1193029-0.1142339-0.2959033-0.211631-0.4748971-0.243908-0.1778928-0.03208-0.3578503-2.97e-5 -0.4872992 0.1426242 0.1444379 0.1312458 0.1770402 0.3140993 0.1446912 0.4935002-0.03257 0.1806168-0.1307301 0.3586742-0.245975 0.4790311-0.3617796 0.3778326-0.8511216 0.4568398-1.3280581 0.3617279-0.4769336-0.0951099-0.9415489-0.3643268-1.2557126-0.6841825-0.6870223-0.6994633-0.9594498-1.5641229-0.9441099-2.453032 0.0051-0.2963037 0.0420815-0.5954969 0.1064514-0.8919176 0.2574927-1.1856869 0.9512024-2.3305042 1.7812516-3.1015585 0.5299884-0.4923215 1.1164386-0.8886376 1.7404279-1.1993863zm5.1106986 3.3790554c-0.8873689-0.01546-1.7503119 0.2563895-2.4483812 0.9420428-0.3187937 0.3131207-0.5873276 0.7773065-0.6821155 1.252612-0.0947899 0.4753036-0.0157299 0.9614028 0.3601777 1.3213404 0.1193009 0.1142349 0.2959042 0.211631 0.474897 0.243908 0.1779559 0.0320899 0.3573236-3.541e-4 0.4867825-0.1431409-0.1444439-0.1312319-0.1765214-0.3135947-0.1441744-0.4929835 0.0325699-0.1806028 0.1302223-0.3586822 0.2454582-0.4790311 0.3617626-0.3778156 0.8511356-0.4568358 1.3280581-0.3617279 0.4769206 0.09511 0.9415566 0.3643358 1.2557126 0.6841825 0.687013 0.6994543 0.959968 1.5641358 0.944627 2.4530319-0.0051 0.2962968-0.0426 0.5954998-0.106968 0.8919178-0.25749 1.185672-0.951213 2.330512-1.781252 3.101558-0.5299943 0.492327-1.4802388 1.44828-2.1042571 1.759031l0.3638291-5.16e-4 1.823109 5.16e-4h1.488252c2.198641 0 3.968671-1.77003 3.968671-3.968671v-2.9325802c-0.338248-0.8667742-0.825469-1.6768117-1.484117-2.385854-0.77003-0.8289411-1.913891-1.5220458-3.097942-1.7791845-0.296013-0.0642799-0.594578-0.1012964-0.890367-0.1064513z" enable-background="new" fill="#ff9632" stroke-width=".139919"/>
        <path id="path2114" d="m5.1592734 1.1906016c-2.1986418 0-3.9686718 1.77003-3.9686718 3.9686718v2.3729351c0.3382216 0.8667721 0.8254711 1.6768116 1.4841179 2.3858539 0.7700262 0.8289406 1.9144071 1.5225636 3.0984579 1.7797016 1.1840508 0.257135 2.4074727 0.07809 3.3382318-0.836109 0.3187947-0.313122 0.5878443-0.776789 0.6826322-1.2520948 0.0947899-0.4753045 0.015729-0.9619195-0.3601776-1.3218571-0.1193029-0.1142339-0.2959033-0.211631-0.4748971-0.243908-0.1778928-0.03208-0.3578503-2.97e-5 -0.4872992 0.1426242 0.1444379 0.1312458 0.1770402 0.3140993 0.1446912 0.4935002-0.03257 0.1806168-0.1307301 0.3586742-0.245975 0.4790311-0.3617796 0.3778326-0.8511216 0.4568398-1.3280581 0.3617279-0.4769336-0.0951099-0.9415489-0.3643268-1.2557126-0.6841825-0.6870223-0.6994633-0.9594498-1.5641229-0.9441099-2.453032 0.0051-0.2963037 0.0420815-0.5954969 0.1064514-0.8919176 0.2574927-1.1856869 0.9512024-2.3305042 1.7812516-3.1015585 0.5299884-0.4923215 1.1164386-0.8886376 1.7404279-1.1993863zm5.1106986 3.3790554c-0.8873689-0.01546-1.7503119 0.2563895-2.4483812 0.9420428-0.3187937 0.3131207-0.5873276 0.7773065-0.6821155 1.252612-0.0947899 0.4753036-0.0157299 0.9614028 0.3601777 1.3213404 0.1193009 0.1142349 0.2959042 0.211631 0.474897 0.243908 0.1779559 0.0320899 0.3573236-3.541e-4 0.4867825-0.1431409-0.1444439-0.1312319-0.1765214-0.3135947-0.1441744-0.4929835 0.0325699-0.1806028 0.1302223-0.3586822 0.2454582-0.4790311 0.3617626-0.3778156 0.8511356-0.4568358 1.3280581-0.3617279 0.4769206 0.09511 0.9415566 0.3643358 1.2557126 0.6841825 0.687013 0.6994543 0.959968 1.5641358 0.944627 2.4530319-0.0051 0.2962968-0.0426 0.5954998-0.106968 0.8919178-0.25749 1.185672-0.951213 2.330512-1.781252 3.101558-0.5299943 0.492327-1.4802388 1.44828-2.1042571 1.759031l0.3638291-5.16e-4 1.823109 5.16e-4h1.488252c2.198641 0 3.968671-1.77003 3.968671-3.968671v-2.9325802c-0.338248-0.8667742-0.825469-1.6768117-1.484117-2.385854-0.77003-0.8289411-1.913891-1.5220458-3.097942-1.7791845-0.296013-0.0642799-0.594578-0.1012964-0.890367-0.1064513z" enable-background="new" fill="url(#radialGradient2403)" stroke-width=".139919"/>
    </g>
</svg>
