<svg id="svg373" version="1.1" viewBox="0 0 64 64" xmlns="http://www.w3.org/2000/svg">
  <defs id="defs361">
    <style id="style349" type="text/css"/>
    <style id="style351" type="text/css"/>
    <filter id="filter1057" x="-.026999999" y="-.026999999" width="1.054" height="1.054" color-interpolation-filters="sRGB">
      <feGaussianBlur id="feGaussianBlur353" stdDeviation="0.61875"/>
    </filter>
    <linearGradient id="linearGradient1053" x1="-127" x2="-72" y1="60" y2="5" gradientTransform="translate(131.5 -.51)" gradientUnits="userSpaceOnUse">
      <stop id="stop356" stop-color="#f2f2f2" offset="0"/>
      <stop id="stop358" stop-color="#fff" offset="1"/>
    </linearGradient>
    <radialGradient id="a" cx="0" cy="0" r="1" gradientTransform="matrix(-247.11879,588.24594,-736.74978,-309.50442,267.33067,139.46933)" gradientUnits="userSpaceOnUse">
      <stop id="stop540" stop-color="#ae7fe2" offset=".0598494"/>
      <stop id="stop542" stop-color="#0078d4" offset="1"/>
    </radialGradient>
    <linearGradient id="b" x1="245.09724" x2="197.42661" y1="511.85574" y2="398.10132" gradientUnits="userSpaceOnUse">
      <stop id="stop545" stop-color="#114a8b" offset="0"/>
      <stop id="stop547" stop-color="#0078d4" stop-opacity="0" offset="1"/>
    </linearGradient>
    <radialGradient id="c" cx="0" cy="0" r="1" gradientTransform="matrix(417.2837,-141.42622,108.6791,320.66203,142.81027,521.86223)" gradientUnits="userSpaceOnUse">
      <stop id="stop550" stop-color="#d59dff" offset=".110651"/>
      <stop id="stop552" stop-color="#5e438f" offset="1"/>
    </radialGradient>
    <linearGradient id="d" x1="551.90454" x2="472.50629" y1="331.49005" y2="444.07239" gradientUnits="userSpaceOnUse">
      <stop id="stop555" stop-color="#493474" offset="0"/>
      <stop id="stop557" stop-color="#8c66ba" stop-opacity="0" offset="1"/>
    </linearGradient>
    <radialGradient id="e" cx="0" cy="0" r="1" gradientTransform="matrix(-499.80128,-176.44916,175.0654,-495.88168,620.54097,334.1078)" gradientUnits="userSpaceOnUse">
      <stop id="stop560" stop-color="#50e6ff" offset=".0960063"/>
      <stop id="stop562" stop-color="#436dcd" offset="1"/>
    </radialGradient>
    <linearGradient id="f" x1="195.35368" x2="302.23819" y1="15.638529" y2="15.638529" gradientUnits="userSpaceOnUse">
      <stop id="stop565" stop-color="#2d3f80" offset="0"/>
      <stop id="stop567" stop-color="#436dcd" stop-opacity="0" offset="1"/>
    </linearGradient>
  </defs>
  <rect id="rect363" x="4.5" y="4.5" width="55" height="55" ry="15" fill="#141414" filter="url(#filter1057)" opacity=".3" stroke-linecap="round" stroke-width="2.7444"/>
  <rect id="rect365" x="4.5" y="4.5" width="55" height="55" ry="15" fill="url(#linearGradient1053)" stroke-linecap="round" stroke-width="2.7444"/>
  <circle id="circle367" cx="-1326.3" cy="-1241.6" r="0" fill="#5e4aa6"/>
  <circle id="circle369" cx="-226.72" cy="23.855" r="0" fill="#5e4aa6" fill-rule="evenodd"/>
  <g id="g582" transform="matrix(.06581439 0 0 .06581439 11.999999 10.569034)" stroke-width="21.7059">
    <path id="path570" d="m249.69673 12.135403c0.42544-0.304317 0.85087-0.606464 1.28065-0.906224-3.06488 1.362701-6.08852 2.849342-9.0644 4.459925l-173.64859 93.946246c-42.058344 22.75436-68.264389 66.72738-68.264389 114.54692v202.91169c0 47.82258 26.21082 91.79886 68.275028 114.55107l42.083302 22.76304h41.58342l173.67159-96.48517-62.84528-34.60585c-41.58429-22.89978-67.41438-66.61125-67.41438-114.08219v-61.67533c6.80482-13.29056 20.67276-39.98238 21.70596-40.44689 1.03321-0.46453 58.31307-14.66455 86.82386-21.70596v-183.27128z" fill="url(#a)"/>
    <path id="path572" d="m249.69673 12.135403c0.42544-0.304317 0.85087-0.606464 1.28065-0.906224-3.06488 1.362701-6.08852 2.849342-9.0644 4.459925l-173.64859 93.946246c-42.058344 22.75436-68.264389 66.72738-68.264389 114.54692v202.91169c0 47.82258 26.21082 91.79886 68.275028 114.55107l42.083302 22.76304h41.58342l173.67159-96.48517-62.84528-34.60585c-41.58429-22.89978-67.41438-66.61125-67.41438-114.08219v-61.67533c6.80482-13.29056 20.67276-39.98238 21.70596-40.44689 1.03321-0.46453 58.31307-14.66455 86.82386-21.70596v-183.27128z" fill="url(#b)"/>
    <path id="path574" d="m412.41115 232.61938v88.85336c0 47.82257-26.20995 91.79888-68.27394 114.55104l-173.64771 93.92606c-34.96028 18.91023-76.412808 20.72052-112.61576 5.42866 3.347277 2.2379 6.816113 4.33034 10.399977 6.26869l173.64793 93.92385c38.66049 20.91157 85.26104 20.91157 123.92153 0l173.64768-93.92385c42.06401-22.75217 68.27399-66.72845 68.27399-114.55323v-54.93779l-130.23582-111.62943z" fill="url(#c)"/>
    <path id="path576" d="m412.41115 232.61938v88.85336c0 47.82257-26.20995 91.79888-68.27394 114.55104l-173.64771 93.92606c-34.96028 18.91023-76.412808 20.72052-112.61576 5.42866 3.347277 2.2379 6.816113 4.33034 10.399977 6.26869l173.64793 93.92385c38.66049 20.91157 85.26104 20.91157 123.92153 0l173.64768-93.92385c42.06401-22.75217 68.27399-66.72845 68.27399-114.55323v-54.93779l-130.23582-111.62943z" fill="url(#d)"/>
    <path id="path578" d="m539.50174 109.63556-173.64773-93.946239c-35.68893-19.308454-78.1458-20.795074-114.87663-4.459925-34.61884 24.188692-55.6237 63.939259-55.6237 106.74689v136.08641l49.79348-25.16155c36.93487-18.66279 80.53781-18.66279 117.47267 0l173.64775 87.74419c42.98653 21.72116 70.40545 65.34798 71.46687 113.342 0.0249-0.96155 0.0354-1.92747 0.0354-2.89338v-202.91169c0-47.81932-26.20566-91.79256-68.26527-114.54671z" fill="url(#e)"/>
    <path id="path580" d="m539.50174 109.63556-173.64773-93.946239c-35.68893-19.308454-78.1458-20.795074-114.87663-4.459925-34.61884 24.188692-55.6237 63.939259-55.6237 106.74689v136.08641l49.79348-25.16155c36.93487-18.66279 80.53781-18.66279 117.47267 0l173.64775 87.74419c42.98653 21.72116 70.40545 65.34798 71.46687 113.342 0.0249-0.96155 0.0354-1.92747 0.0354-2.89338v-202.91169c0-47.81932-26.20566-91.79256-68.26527-114.54671z" fill="url(#f)"/>
  </g>
</svg>
