<svg id="svg290" version="1.1" viewBox="0 0 64 64" xmlns="http://www.w3.org/2000/svg">
  <defs id="defs278">
    <style id="style266" type="text/css"/>
    <style id="style268" type="text/css"/>
    <filter id="filter1057" x="-.026999999" y="-.026999999" width="1.054" height="1.054" color-interpolation-filters="sRGB">
      <feGaussianBlur id="feGaussianBlur270" stdDeviation="0.61875"/>
    </filter>
    <linearGradient id="linearGradient1053" x1="-127" x2="-72" y1="60" y2="5" gradientTransform="translate(131.5 -.51)" gradientUnits="userSpaceOnUse">
      <stop id="stop273" stop-color="#ace87b" offset="0"/>
      <stop id="stop275" stop-color="#c6fa9e" offset="1"/>
    </linearGradient>
    <linearGradient id="linearGradient4008" x1="357.73288" x2="317.74298" y1="462.28265" y2="416.5321" gradientTransform="translate(-228.14059,-405.73246)" gradientUnits="userSpaceOnUse">
      <stop id="stop3460" stop-color="#41a100" offset="0"/>
      <stop id="stop3462" stop-color="#ffffff" stop-opacity="0" offset="1"/>
    </linearGradient>
  </defs>
  <rect id="rect280" x="4.5" y="4.5" width="55" height="55" ry="15" fill="#141414" filter="url(#filter1057)" opacity=".3" stroke-linecap="round" stroke-width="2.7444"/>
  <rect id="rect282" x="4.5" y="4.5" width="55" height="55" ry="15" fill="url(#linearGradient1053)" stroke-linecap="round" stroke-width="2.7444"/>
  <circle id="circle284" cx="-1326.3" cy="-1241.6" r="0" fill="#5e4aa6"/>
  <circle id="circle286" cx="-226.72" cy="23.855" r="0" fill="#5e4aa6" fill-rule="evenodd"/>
  <g id="g2104" transform="translate(-90.015725,-10.58639)">
    <path id="path3795" d="m141.09965 21.69031c-5.61147 1.04083-32.35902 1.28709-38.19377 20.78086-1.70407 6.5967-0.87149 14.81309 6.84744 15.24002 0.53772 0.0297 0.97284 0.15389 1.16395 0.60688 2.74693 6.51107 10.81924 6.04989 12.54934 3.15135 6.99641 3.59201 11.53822-1.52009 14.57146-8.67558 3.58269-6.30866 4.67619-29.80776 3.24369-28.09343-23.13589 27.68766-26.72536 5.82966-0.18211-3.02762" fill="#c5f199"/>
    <path id="path3805" d="m104.39333 43.01206c-1.70407 6.5967-0.53344 14.40742 7.52354 13.00885 0.9116 6.06096 7.81355 7.73774 10.97612 3.8422 7.19924 3.25395 10.08351-0.31945 13.72525-7.47494 3.24463-7.25521 4.26359-23.82237 3.64423-24.10962-21.22156 23.83174-26.04413 4.88836-8.96643-3.62211-5.61147 0.57631-22.62302 4.0679-26.90271 18.35562z" fill="#73d216"/>
    <path id="path3996" d="m104.38353 43.0196c-1.70407 6.5967-0.53344 14.40742 7.52354 13.00885 0.9116 6.06096 7.81355 7.73774 10.97612 3.8422 7.19924 3.25395 10.08351-0.31945 13.72525-7.47494 3.24463-7.25521 4.26359-23.82237 3.64423-24.10962-21.22156 23.83174-26.04413 4.88836-8.96643-3.62211-5.61147 0.57631-22.62302 4.0679-26.90271 18.35562z" fill="url(#linearGradient4008)"/>
    <g fill="none" stroke-linecap="round">
      <path id="path3814" d="m122.95042 48.35562c-3.23015 3.19703-2.32589 9.37761-0.11812 12.59849" stroke="#c5f199" stroke-linejoin="round" stroke-miterlimit="0" stroke-width="3"/>
      <path id="path3608" d="m123.44552 61.39652c-3.44795-3.15069-3.37417-10.53534-0.41561-13.08155" stroke="#204c00" stroke-linejoin="bevel"/>
      <path id="path3812" d="m110.37989 56.00631c-1.13622-4.72104-0.01-8.89052 1.70871-10.88214" stroke="#c5f199" stroke-linejoin="round" stroke-width="3"/>
      <path id="path3598" d="m141.09965 21.69031c-5.61147 1.04083-32.35902 1.28709-38.19377 20.78086-1.70407 6.5967-0.87149 14.81309 6.84744 15.24002 0.53772 0.0297 0.97284 0.15389 1.16395 0.60688 2.74693 6.51107 10.81924 6.04989 12.54934 3.15135 6.99641 3.59201 11.20016-1.45248 14.57146-8.67558 3.44747-7.72849 4.67619-29.80776 3.24369-28.09343-23.13589 27.68766-26.72536 5.82966-0.18211-3.02762" stroke="#204c00" stroke-linejoin="round"/>
      <path id="path3606" d="m110.71795 57.89942c-2.23983-6.49011 0.18094-11.70206 1.43826-13.04569" stroke="#204c00" stroke-linejoin="bevel"/>
    </g>
  </g>
  <path id="rect2106" d="m19.499999 4.4999998c-8.30999 0-14.999998 6.6900082-14.999998 15v25c0 8.309991 6.6900075 15 14.999998 15h25c8.30999 0 15-6.690009 15-15v-25c0-8.309992-6.69001-15-15-15zm0.45313 1.0000004h24.091799c8.0078 0 14.455071 6.4472678 14.455071 14.455078v24.089844c0 8.007809-6.447271 14.455078-14.455071 14.455078h-24.091799c-8.00781 0-14.453128-6.447269-14.453128-14.455078v-24.089844c0-8.00781 6.4453175-14.455078 14.453128-14.455078z" fill="#204c00"/>
</svg>
