<svg id="svg290" version="1.1" viewBox="0 0 64 64" xmlns="http://www.w3.org/2000/svg">
  <defs id="defs278">
    <style id="style266" type="text/css"/>
    <style id="style268" type="text/css"/>
    <filter id="filter1057" x="-.026999999" y="-.026999999" width="1.054" height="1.054" color-interpolation-filters="sRGB">
      <feGaussianBlur id="feGaussianBlur270" stdDeviation="0.61875"/>
    </filter>
    <linearGradient id="linearGradient5096" x1="110.62798" x2="111.95164" y1="97.985451" y2="102.71423" gradientTransform="matrix(.41810435 0 0 .42433938 -63.413752 16.76127)" gradientUnits="userSpaceOnUse">
      <stop id="stop5240-7" stop-color="#fff" offset="0"/>
      <stop id="stop5242-7" stop-color="#808080" offset="1"/>
    </linearGradient>
    <radialGradient id="radialGradient4466-8" cx="189" cy="-122.25826" r="114.29688" gradientTransform="matrix(-.07505937 .15958788 -.14096142 -.08443103 30.070893 -14.854492)" gradientUnits="userSpaceOnUse">
      <stop id="stop3977-5" stop-color="#fff" offset="0"/>
      <stop id="stop3979-5" stop-color="#fff" stop-opacity="0" offset="1"/>
    </radialGradient>
    <radialGradient id="radialGradient1293" cx="31.745386" cy="21.633692" r="21.5625" gradientTransform="matrix(1.3520919,0,0,1.4656017,-11.165988,-10.361131)" gradientUnits="userSpaceOnUse">
      <stop id="stop3962-9-0" stop-color="#73d1ff" offset="0"/>
      <stop id="stop3964-6-2" stop-color="#4a79b8" offset="1"/>
    </radialGradient>
    <style id="style266-7" type="text/css"/>
    <style id="style268-5" type="text/css"/>
    <filter id="filter4911-1-95" x="-.024" y="-.024" width="1.048" height="1.048" color-interpolation-filters="sRGB">
      <feGaussianBlur id="feGaussianBlur4913-6-0" stdDeviation="0.155"/>
    </filter>
    <radialGradient id="radialGradient5715" cx="115.95312" cy="38.515625" r="9.078125" gradientTransform="matrix(.37533095 0 0 .38092811 -58.556933 18.391673)" gradientUnits="userSpaceOnUse">
      <stop id="stop4917-2-8" stop-color="#4d4d4d" offset="0"/>
      <stop id="stop4919-5-7" stop-color="#4d4d4d" stop-opacity="0" offset="1"/>
    </radialGradient>
    <radialGradient id="radialGradient5717" cx="111.25" cy="71.5" r="7.75" gradientTransform="matrix(.38938019 0 0 .39518687 -59.623834 2.9242173)" gradientUnits="userSpaceOnUse">
      <stop id="stop4590-3-5-7" stop-color="#d4d4d4" offset="0"/>
      <stop id="stop4592-9-4-2" stop-color="#808080" offset="1"/>
    </radialGradient>
    <radialGradient id="radialGradient5721" cx="113.39778" cy="76.378975" r="7.75" gradientTransform="matrix(.38956818 0 0 .23463245 -59.917483 14.403859)" gradientUnits="userSpaceOnUse">
      <stop id="stop4897-7-1" stop-color="#333" offset="0"/>
      <stop id="stop4899-0-0" stop-color="#808080" offset="1"/>
    </radialGradient>
    <radialGradient id="radialGradient5723" cx="111.25" cy="71.5" r="7.75" gradientTransform="matrix(.176884 0 0 .1795218 -35.983633 18.344271)" gradientUnits="userSpaceOnUse">
      <stop id="stop4889-6-1" stop-color="#ccc" offset="0"/>
      <stop id="stop4891-2-5" stop-color="#b3b3b3" offset="1"/>
    </radialGradient>
    <linearGradient id="linearGradient6012" x1="109.48217" x2="108.68206" y1="28.91128" y2="34.568138" gradientTransform="matrix(.41810435 0 0 .42433938 -63.682307 16.76127)" gradientUnits="userSpaceOnUse">
      <stop id="stop5286-8" stop-color="#ccc" offset="0"/>
      <stop id="stop5288-5" stop-color="#ccc" stop-opacity="0" offset="1"/>
    </linearGradient>
  </defs>
  <rect id="rect280" x="4.5" y="4.5" width="55" height="55" ry="15" fill="#141414" filter="url(#filter1057)" opacity=".3" stroke-linecap="round" stroke-width="2.7444"/>
  <circle id="circle284" cx="-1326.3" cy="-1241.6" r="0" fill="#5e4aa6"/>
  <circle id="circle286" cx="-226.72" cy="23.855" r="0" fill="#5e4aa6" fill-rule="evenodd"/>
  <rect id="rect1045" x="4.5000019" y="4.5000019" width="54.999996" height="54.999996" ry="14.999999" fill="#652e0f" stroke-linecap="round" stroke-width="2.74436"/>
  <g id="g6051" transform="matrix(1.4229869,0,0,1.4229869,55.28807,-77.16368)">
    <path id="rect4975-7" d="m-19.691174 58.322286h6.651098v1.648924h-6.651098z" color="#000000" fill="url(#linearGradient5096)"/>
    <g id="text5234-0" transform="matrix(.10742187 0 0 .10902381 -98.426992 28.849133)" fill="#4d4d4d">
      <path id="path5042" d="m756.30291 274.04429h-7.09481v2.7491h1.5543v-1.3534h0.90932v4.58889h-0.86702v1.40627h3.93333v-1.40627h-0.8776v-4.58889h0.88818v1.3534h1.5543v-2.7491"/>
      <path id="path5044" d="m756.62193 274.04429v1.37455h0.59212v2.61165c0 2.40018 1.14193 3.52097 3.27778 3.58441 1.98781 0 3.03459-1.13137 3.03459-3.63728v-2.56936h0.57096v-1.36397h-3.12975v1.3957h0.57097v2.24157c0 1.81864-0.42294 2.07241-1.06792 2.07241-0.6767 0-1.05735-0.3595-1.05735-2.06183v-2.28388h0.57097v-1.36397h-3.36237"/>
      <path id="path5046" d="m764.51322 281.43515h4.01792c2.04068 0 2.87599-0.65556 2.87599-2.14642 0-1.02562-0.63441-1.58602-1.3957-1.79749 0.79301-0.3172 1.0362-0.75072 1.0362-1.63889 0-1.15251-0.8353-1.80806-2.5905-1.80806h-3.94391v1.36397h0.61326v4.65234h-0.61326v1.37455m2.80197-5.99516h0.66613c0.40179 0 0.69785 0.28548 0.69785 0.77186 0 0.50753-0.1586 0.81416-0.719 0.81416h-0.64498v-1.58602m0 4.62061v-1.83979h0.81416c0.58154 0 0.88817 0.39122 0.88817 0.93047 0 0.57097-0.41236 0.90932-0.85645 0.90932h-0.84588"/>
      <path id="path5048" d="m771.78249 274.04429v1.3957h0.66613v4.58889h-0.66613v1.40627h6.37581v-2.38961h-1.82921v0.98334h-1.69176v-1.72348h2.00896v-1.40627h-2.00896v-1.45914h1.69176v0.94104h1.82921v-2.33674h-6.37581"/>
    </g>
    <path id="rect5246-4" d="m-19.691174 59.862191h6.651098v0.109024h-6.651098z" color="#000000" fill="#e6e6e6"/>
    <path id="rect4330-5" d="m-19.691174 58.32036h6.651098v0.109024h-6.651098z" color="#000000" fill="#4d4d4d"/>
  </g>
  <rect id="rect4929" x="9.5" y="9.5" width="45" height="45" ry="9.5916176" fill="#542910" stroke-linecap="round" stroke-width="2.24539"/>
  <rect id="rect3162" x="9.9787235" y="9.9787235" width="44.042553" height="44.042553" ry="9.3875408" stroke-linecap="round" stroke-width="2.19761"/>
  <g id="g5576" transform="matrix(.93161502 0 0 .93161502 2.1883194 2.1883194)">
    <g stroke-linecap="round">
      <rect id="rect4712" x="9.4584999" y="9.4584999" width="45.083" height="45.083" ry="9.6093092" fill="#b5cee7" stroke-width="2.24952"/>
      <rect id="rect2999" x="9.958333" y="9.958333" width="44.083332" height="44.083332" ry="9.3962326" fill="#548ec9" stroke-width="2.19964"/>
      <rect id="rect3001" x="10.4375" y="10.4375" width="43.125" height="43.125" ry="9.191967" fill="url(#radialGradient1293)" stroke-width="2.15182"/>
      <rect id="rect1297" x="10.4375" y="10.4375" width="43.125" height="43.125" ry="9.191967" fill="#fff" opacity=".3" stroke-width="2.15182"/>
    </g>
    <g id="g1280" transform="translate(-.90651082 -2.0128437)" fill="#fff" stroke-width="1.29729">
      <path id="path4063-3" d="m16.142502 15.673699c-1.328896 0.111646-2.580378 1.329515-2.725623 2.854368-0.05742 0.770463 0.817105 1.261733 1.378968 0.898562 1.051432-0.486641 2.093201-1.174198 2.739937-2.258527 0.251123-0.47748 0.0145-1.114088-0.419427-1.328565-0.301103-0.16364-0.645146-0.184647-0.973855-0.165838z" color="#000000" opacity=".3"/>
      <path id="path4066-3" d="m13.196657 20.287449c-0.500616 0.674775-0.55833 1.76417-0.05057 2.454999 0.263058 0.341478 0.802455 0.12781 0.896629-0.286376 0.24799-0.696374 0.417339-1.470132 0.278009-2.218706-0.07505-0.313693-0.408314-0.461355-0.665073-0.343385-0.183674 0.07583-0.331842 0.230155-0.458934 0.393468z" color="#000000" opacity=".1"/>
    </g>
    <path id="path4398-9" d="m34.622023 9.9634389c-0.16512 0-0.3267 0.0036-0.48956 0.0044l-18.591825 36.23962c0.491967 1.730925 1.600165 2.125183 2.591581 2.771132 0.940671 0.612881 5.840604 1.923533 13.991474 2.1529l11.83894-40.576116c-2.51935-0.338529-5.64274-0.5919361-9.34061-0.5919361z" color="#000000" fill="url(#radialGradient4466-8)" opacity=".2" stroke-width="1.29729"/>
  </g>
  <g id="g6314" transform="translate(.00278406)">
    <g id="g5969" transform="matrix(-.61358802 0 0 .61358802 27.992487 37.82251)">
      <path id="path5927" transform="matrix(.43934087 0 0 .44589259 -65.181959 -.289036)" d="m119 71.5c0 4.280207-3.46979 7.75-7.75 7.75s-7.75-3.469793-7.75-7.75 3.46979-7.75 7.75-7.75 7.75 3.469793 7.75 7.75z" color="#000000" filter="url(#filter4911-1-95)" opacity=".55"/>
      <path id="path5929" d="m-12.900395 31.180079c0 1.908513-1.524421 3.455668-3.404892 3.455668s-3.404892-1.547155-3.404892-3.455668c0-1.908512 1.524421-3.455667 3.404892-3.455667s3.404892 1.547155 3.404892 3.455667z" color="#000000" fill="#1a1a1a"/>
      <path id="path5931" d="m-16.308738 27.724411c-1.880474 0-3.401442 1.543649-3.401442 3.452162 0 1.908512 1.520968 3.464065 3.401442 3.464065 1.880462 0 3.413162-1.555553 3.413162-3.464065 0-1.908513-1.5327-3.452162-3.413162-3.452162zm0 0.285697c1.725002 0 3.131665 1.415737 3.131665 3.166465 0 1.750726-1.406663 3.178369-3.131665 3.178369-1.725007 0-3.11994-1.427643-3.11994-3.178369 0-1.750728 1.394933-3.166465 3.11994-3.166465z" color="#000000" fill="url(#radialGradient5715)"/>
      <path id="path5933" d="m-19.303482 32.775528 0.09495 0.166906 0.296014-0.173466-0.09495-0.166905z" color="#000000" fill="#fff"/>
      <path id="path5935" d="m-13.287591 31.180079c0 1.691481-1.351068 3.062698-3.017697 3.062698s-3.017696-1.371217-3.017696-3.062698c0-1.691482 1.351067-3.062699 3.017696-3.062699s3.017697 1.371217 3.017697 3.062699z" color="#000000" fill="url(#radialGradient5717)"/>
      <path id="path5937" d="m-16.564551 28.356109c-0.362446 0.05878-0.734325 0.142535-1.055496 0.329649-0.332138 0.218941-0.626404 0.50246-0.866007 0.822843-0.197049 0.280916-0.343197 0.602986-0.431772 0.936062-0.06385 0.319885-0.09733 0.660345-8.59e-4 0.97741 0.04718 0.138556 0.123751 0.302689 0.243287 0.383458 0.231788 0.05916 0.401651-0.19916 0.541202-0.351533 0.218916-0.277112 0.382499-0.598409 0.638617-0.845878 0.284382-0.293337 0.61953-0.558899 1.029293-0.631919 0.399662-0.0886 0.821337-2.18e-4 1.182509 0.185924 0.350045 0.177746 0.65113 0.436837 0.935002 0.706937 0.17945 0.13704 0.426542 0.335961 0.652422 0.211431 0.160189-0.204915 0.01187-0.483568 0-0.714052-0.127685-0.38187-0.299216-0.75231-0.573447-1.049616-0.309012-0.342318-0.679055-0.640286-1.111467-0.803247-0.332042-0.12223-0.690474-0.167244-1.042735-0.168454-0.04691 0.0037-0.09381 0.0073-0.140713 0.01099z" color="#000000" fill="url(#linearGradient6012)"/>
      <path id="path5939" d="m-19.282639 32.740641 2.111465-0.346845-0.391873-0.677564-0.391864-0.677565z" color="#000000"/>
      <path id="path5941" d="m-19.178343 32.672794 1.326989-0.791235-0.165875-0.606054z" color="#000000" fill="#808080"/>
      <path id="path5943" d="m-14.513605 31.180079c0 1.004275-0.802163 1.818401-1.791683 1.818401s-1.791683-0.814126-1.791683-1.818401c0-1.004276 0.802163-1.818402 1.791683-1.818402s1.791683 0.814126 1.791683 1.818402z" color="#000000" fill="url(#radialGradient5721)"/>
      <path id="path5945" d="m-15.153771 29.799215c0.170645 0.278424 0.273787 0.589648 0.273787 0.941674 0 1.004276-0.805319 1.8216-1.794833 1.8216-0.435084 0-0.830406-0.15506-1.140785-0.416807 0.317457 0.509527 0.867921 0.849051 1.505835 0.849051 0.989516 0 1.794835-0.817324 1.794835-1.8216 0-0.557179-0.250002-1.04036-0.638839-1.373918z" color="#000000" fill="#333"/>
      <path id="path5947" d="m-14.934437 31.180079c0 0.768391-0.61375 1.391294-1.370851 1.391294s-1.370851-0.622903-1.370851-1.391294c0-0.76839 0.61375-1.391293 1.370851-1.391293s1.370851 0.622903 1.370851 1.391293z" color="#000000" fill="url(#radialGradient5723)"/>
      <path id="path5949" d="m-15.260245 30.293207c0.01827 0.09057 0.03044 0.181824 0.03044 0.277871 0 0.768392-0.627052 1.389356-1.384152 1.389356-0.420048 0-0.782849-0.192046-1.03431-0.493992 0.127823 0.633989 0.676058 1.111485 1.338519 1.111485 0.757099 0 1.368941-0.636404 1.368941-1.404794 0-0.340144-0.119682-0.638213-0.319419-0.879926z" color="#000000" fill="#999"/>
      <path id="path5951" d="m-16.309767 29.783777c-0.757103 0-1.36894 0.620966-1.36894 1.389356 0 0.340146 0.134893 0.65365 0.33463 0.895364-0.115543-0.203935-0.182528-0.442551-0.182528-0.694679 0-0.76839 0.611841-1.389356 1.368945-1.389356 0.378548 0 0.725395 0.149595 0.973468 0.40137-0.247806-0.359803-0.660216-0.602055-1.125575-0.602055z" color="#000000" fill="#fff"/>
      <path id="path5953" d="m-15.407677 31.18008c0 0.50313-0.401874 0.910998-0.897612 0.910998s-0.897613-0.407868-0.897613-0.910998c0-0.503131 0.401875-0.910998 0.897613-0.910998s0.897612 0.407867 0.897612 0.910998z" color="#000000" fill="#800000"/>
      <path id="path5955" d="m-16.460682 30.455841c-0.268259 0.07578-0.49013 0.344277-0.558202 0.672229 0.371674 0.05839 0.747934-0.04048 1.11939 0.02572 0.126381 0.05834 0.373122-0.122795 0.226869-0.286525-0.171373-0.306228-0.491144-0.465833-0.788057-0.411418z" color="#000000" fill="#f55"/>
      <path id="path5957" d="m-16.400667 30.492778c-0.151085 0.04268-0.276044 0.193897-0.314382 0.378601 0.209328 0.03289 0.42124-0.0228 0.630445 0.01448 0.07118 0.03286 0.210143-0.06916 0.127773-0.161372-0.09652-0.172469-0.276614-0.26236-0.443836-0.231713z" color="#000000" fill="#ffd5d5"/>
      <g id="g458" fill="#fff">
        <path id="path5959" d="m-16.469403 27.745639h0.189897v0.346912h-0.189897z" color="#000000"/>
        <path id="path5961" d="m-19.370619 29.729932 0.09495-0.166904 0.296014 0.173466-0.09495 0.166904z" color="#000000"/>
        <path id="path5963" d="m-13.242096 29.72993-0.09495-0.166905-0.296014 0.173466 0.09495 0.166905z" color="#000000"/>
        <path id="path5965" d="m-13.295806 32.761893-0.09495 0.166904-0.296014-0.173465 0.09495-0.166904z" color="#000000"/>
        <path id="path5967" d="m-16.469403 34.259812h0.189897v0.346911h-0.189897z" color="#000000"/>
      </g>
    </g>
    <g id="g6256" transform="matrix(-.61358802 0 0 .61358802 15.992487 37.82251)">
      <path id="path6212" transform="matrix(.43934087 0 0 .44589259 -65.181959 -.289036)" d="m119 71.5c0 4.280207-3.46979 7.75-7.75 7.75s-7.75-3.469793-7.75-7.75 3.46979-7.75 7.75-7.75 7.75 3.469793 7.75 7.75z" color="#000000" filter="url(#filter4911-1-95)" opacity=".55"/>
      <path id="path6214" d="m-12.900395 31.180079c0 1.908513-1.524421 3.455668-3.404892 3.455668s-3.404892-1.547155-3.404892-3.455668c0-1.908512 1.524421-3.455667 3.404892-3.455667s3.404892 1.547155 3.404892 3.455667z" color="#000000" fill="#1a1a1a"/>
      <path id="path6216" d="m-16.308738 27.724411c-1.880474 0-3.401442 1.543649-3.401442 3.452162 0 1.908512 1.520968 3.464065 3.401442 3.464065 1.880462 0 3.413162-1.555553 3.413162-3.464065 0-1.908513-1.5327-3.452162-3.413162-3.452162zm0 0.285697c1.725002 0 3.131665 1.415737 3.131665 3.166465 0 1.750726-1.406663 3.178369-3.131665 3.178369-1.725007 0-3.11994-1.427643-3.11994-3.178369 0-1.750728 1.394933-3.166465 3.11994-3.166465z" color="#000000" fill="url(#radialGradient5715)"/>
      <path id="path6218" d="m-19.303482 32.775528 0.09495 0.166906 0.296014-0.173466-0.09495-0.166905z" color="#000000" fill="#fff"/>
      <path id="path6220" d="m-13.287591 31.180079c0 1.691481-1.351068 3.062698-3.017697 3.062698s-3.017696-1.371217-3.017696-3.062698c0-1.691482 1.351067-3.062699 3.017696-3.062699s3.017697 1.371217 3.017697 3.062699z" color="#000000" fill="url(#radialGradient5717)"/>
      <path id="path6222" d="m-16.564551 28.356109c-0.362446 0.05878-0.734325 0.142535-1.055496 0.329649-0.332138 0.218941-0.626404 0.50246-0.866007 0.822843-0.197049 0.280916-0.343197 0.602986-0.431772 0.936062-0.06385 0.319885-0.09733 0.660345-8.59e-4 0.97741 0.04718 0.138556 0.123751 0.302689 0.243287 0.383458 0.231788 0.05916 0.401651-0.19916 0.541202-0.351533 0.218916-0.277112 0.382499-0.598409 0.638617-0.845878 0.284382-0.293337 0.61953-0.558899 1.029293-0.631919 0.399662-0.0886 0.821337-2.18e-4 1.182509 0.185924 0.350045 0.177746 0.65113 0.436837 0.935002 0.706937 0.17945 0.13704 0.426542 0.335961 0.652422 0.211431 0.160189-0.204915 0.01187-0.483568 0-0.714052-0.127685-0.38187-0.299216-0.75231-0.573447-1.049616-0.309012-0.342318-0.679055-0.640286-1.111467-0.803247-0.332042-0.12223-0.690474-0.167244-1.042735-0.168454-0.04691 0.0037-0.09381 0.0073-0.140713 0.01099z" color="#000000" fill="url(#linearGradient6012)"/>
      <path id="path6224" d="m-19.282639 32.740641 2.111465-0.346845-0.391873-0.677564-0.391864-0.677565z" color="#000000"/>
      <path id="path6226" d="m-19.178343 32.672794 1.326989-0.791235-0.165875-0.606054z" color="#000000" fill="#808080"/>
      <path id="path6228" d="m-14.513605 31.180079c0 1.004275-0.802163 1.818401-1.791683 1.818401s-1.791683-0.814126-1.791683-1.818401c0-1.004276 0.802163-1.818402 1.791683-1.818402s1.791683 0.814126 1.791683 1.818402z" color="#000000" fill="url(#radialGradient5721)"/>
      <path id="path6230" d="m-15.153771 29.799215c0.170645 0.278424 0.273787 0.589648 0.273787 0.941674 0 1.004276-0.805319 1.8216-1.794833 1.8216-0.435084 0-0.830406-0.15506-1.140785-0.416807 0.317457 0.509527 0.867921 0.849051 1.505835 0.849051 0.989516 0 1.794835-0.817324 1.794835-1.8216 0-0.557179-0.250002-1.04036-0.638839-1.373918z" color="#000000" fill="#333"/>
      <path id="path6232" d="m-14.934437 31.180079c0 0.768391-0.61375 1.391294-1.370851 1.391294s-1.370851-0.622903-1.370851-1.391294c0-0.76839 0.61375-1.391293 1.370851-1.391293s1.370851 0.622903 1.370851 1.391293z" color="#000000" fill="url(#radialGradient5723)"/>
      <path id="path6234" d="m-15.260245 30.293207c0.01827 0.09057 0.03044 0.181824 0.03044 0.277871 0 0.768392-0.627052 1.389356-1.384152 1.389356-0.420048 0-0.782849-0.192046-1.03431-0.493992 0.127823 0.633989 0.676058 1.111485 1.338519 1.111485 0.757099 0 1.368941-0.636404 1.368941-1.404794 0-0.340144-0.119682-0.638213-0.319419-0.879926z" color="#000000" fill="#999"/>
      <path id="path6236" d="m-16.309767 29.783777c-0.757103 0-1.36894 0.620966-1.36894 1.389356 0 0.340146 0.134893 0.65365 0.33463 0.895364-0.115543-0.203935-0.182528-0.442551-0.182528-0.694679 0-0.76839 0.611841-1.389356 1.368945-1.389356 0.378548 0 0.725395 0.149595 0.973468 0.40137-0.247806-0.359803-0.660216-0.602055-1.125575-0.602055z" color="#000000" fill="#fff"/>
      <path id="path6238" d="m-15.407677 31.18008c0 0.50313-0.401874 0.910998-0.897612 0.910998s-0.897613-0.407868-0.897613-0.910998c0-0.503131 0.401875-0.910998 0.897613-0.910998s0.897612 0.407867 0.897612 0.910998z" color="#000000" fill="#800000"/>
      <path id="path6240" d="m-16.460682 30.455841c-0.268259 0.07578-0.49013 0.344277-0.558202 0.672229 0.371674 0.05839 0.747934-0.04048 1.11939 0.02572 0.126381 0.05834 0.373122-0.122795 0.226869-0.286525-0.171373-0.306228-0.491144-0.465833-0.788057-0.411418z" color="#000000" fill="#f55"/>
      <path id="path6242" d="m-16.400667 30.492778c-0.151085 0.04268-0.276044 0.193897-0.314382 0.378601 0.209328 0.03289 0.42124-0.0228 0.630445 0.01448 0.07118 0.03286 0.210143-0.06916 0.127773-0.161372-0.09652-0.172469-0.276614-0.26236-0.443836-0.231713z" color="#000000" fill="#ffd5d5"/>
      <g id="g6254" fill="#fff">
        <path id="path6244" d="m-16.469403 27.745639h0.189897v0.346912h-0.189897z" color="#000000"/>
        <path id="path6246" d="m-19.370619 29.729932 0.09495-0.166904 0.296014 0.173466-0.09495 0.166904z" color="#000000"/>
        <path id="path6248" d="m-13.242096 29.72993-0.09495-0.166905-0.296014 0.173466 0.09495 0.166905z" color="#000000"/>
        <path id="path6250" d="m-13.295806 32.761893-0.09495 0.166904-0.296014-0.173465 0.09495-0.166904z" color="#000000"/>
        <path id="path6252" d="m-16.469403 34.259812h0.189897v0.346911h-0.189897z" color="#000000"/>
      </g>
    </g>
  </g>
</svg>
