<?xml version="1.0" encoding="UTF-8" standalone="no"?>
<svg
   width="64px"
   height="64px"
   version="1.1"
   viewBox="0 0 64 64"
   id="svg290"
   sodipodi:docname="mkvtoolnix-gui.svg"
   inkscape:version="1.2.1 (9c6d41e410, 2022-07-14)"
   xml:space="preserve"
   xmlns:inkscape="http://www.inkscape.org/namespaces/inkscape"
   xmlns:sodipodi="http://sodipodi.sourceforge.net/DTD/sodipodi-0.dtd"
   xmlns="http://www.w3.org/2000/svg"
   xmlns:svg="http://www.w3.org/2000/svg"
   xmlns:rdf="http://www.w3.org/1999/02/22-rdf-syntax-ns#"
   xmlns:cc="http://creativecommons.org/ns#"
   xmlns:dc="http://purl.org/dc/elements/1.1/"><sodipodi:namedview
     id="namedview292"
     pagecolor="#ffffff"
     bordercolor="#666666"
     borderopacity="1.0"
     inkscape:showpageshadow="2"
     inkscape:pageopacity="0.0"
     inkscape:pagecheckerboard="0"
     inkscape:deskcolor="#d1d1d1"
     showgrid="false"
     inkscape:zoom="8"
     inkscape:cx="14.1875"
     inkscape:cy="22.625"
     inkscape:window-width="1920"
     inkscape:window-height="1052"
     inkscape:window-x="0"
     inkscape:window-y="28"
     inkscape:window-maximized="1"
     inkscape:current-layer="svg290" /><metadata
     id="metadata264"><rdf:RDF><cc:Work
         rdf:about=""><dc:format>image/svg+xml</dc:format><dc:type
           rdf:resource="http://purl.org/dc/dcmitype/StillImage" /></cc:Work></rdf:RDF></metadata><defs
     id="defs278"><style
       type="text/css"
       id="style266" /><style
       type="text/css"
       id="style268" /><filter
       id="filter1057"
       x="-0.026999999"
       y="-0.026999999"
       width="1.054"
       height="1.054"
       color-interpolation-filters="sRGB"><feGaussianBlur
         stdDeviation="0.61875"
         id="feGaussianBlur270" /></filter><linearGradient
       id="linearGradient1053"
       x1="-127"
       x2="-72"
       y1="60"
       y2="5"
       gradientTransform="translate(131.5 -.51)"
       gradientUnits="userSpaceOnUse"><stop
         stop-color="#faeb1e"
         stop-opacity=".99608"
         offset="0"
         id="stop275"
         style="stop-color:#80cdff;stop-opacity:1;" /><stop
         stop-color="#fad21e"
         offset="1"
         id="stop273"
         style="stop-color:#1aa5ff;stop-opacity:1;" /></linearGradient><filter
       inkscape:collect="always"
       style="color-interpolation-filters:sRGB"
       id="filter3664"
       x="-0.023492572"
       y="-0.031738548"
       width="1.0469851"
       height="1.0634771"><feGaussianBlur
         inkscape:collect="always"
         stdDeviation="4.8710632"
         id="feGaussianBlur3666" /></filter></defs><rect
     x="4.5"
     y="4.5"
     width="55"
     height="55"
     ry="15"
     fill="#141414"
     filter="url(#filter1057)"
     opacity=".3"
     stroke-linecap="round"
     stroke-width="2.7444"
     id="rect280" /><rect
     x="4.5"
     y="4.5"
     width="55"
     height="55"
     ry="15"
     fill="url(#linearGradient1053)"
     stroke-linecap="round"
     stroke-width="2.7444"
     id="rect282" /><circle
     cx="-1326.3"
     cy="-1241.6"
     r="0"
     fill="#5e4aa6"
     id="circle284" /><circle
     cx="-226.72"
     cy="23.855"
     r="0"
     fill="#5e4aa6"
     fill-rule="evenodd"
     id="circle286" /><g
     id="g3662"
     transform="matrix(0.09243861,0,0,0.09243861,70.044057,62.403467)"
     style="fill:#000000;fill-opacity:1;filter:url(#filter3664);opacity:0.3"><path
       style="fill:#000000;fill-opacity:1"
       d="m -247.39216,-366.86427 c -2.924,-6.73937 -12.7776,-26.48272 -14.3066,-28.66562 -1.4756,-2.10678 -1.445,-2.5236 0.4167,-5.67902 1.1051,-1.87295 2.3967,-3.40536 2.8703,-3.40536 0.4736,0 4.9323,8.19312 9.9082,18.20694 l 9.047,18.20695 -2.7569,2.25709 c -1.5163,1.2414 -2.9846,2.27328 -3.2628,2.29306 -0.2782,0.0198 -1.1404,-1.42654 -1.9159,-3.21404 z"
       id="path3640" /><path
       style="fill:#000000;fill-opacity:1"
       d="m -584.97036,-344.61427 c 0.9955,-1.1 2.035,-2 2.31,-2 0.275,0 -0.3145,0.9 -1.31,2 -0.9955,1.1 -2.035,2 -2.31,2 -0.275,0 0.3145,-0.9 1.31,-2 z"
       id="path3642" /><path
       style="fill:#000000;fill-opacity:1"
       d="m -510.55656,-244.30273 c -6.5294,-7.84596 -21.027,-36.08497 -27.716,-53.98643 -17.9201,-47.95822 -18.9162,-100.5924 -2.6505,-140.04259 15.0925,-36.60442 41.1674,-60.4975 77.9527,-71.42995 10.9058,-3.24117 11.1841,-3.26952 32.5,-3.31086 24.0938,-0.0467 31.4469,0.9978 50,7.10281 12.3579,4.06642 29.1871,11.39638 29.6956,12.93393 0.1962,0.59314 -1.1176,1.87181 -2.9195,2.84147 -3.2718,1.7607 -3.288,1.7578 -12.2761,-2.18998 -11.9436,-5.24591 -21.962,-8.63671 -33.5,-11.33835 -12.9637,-3.03547 -43.4799,-3.35999 -55,-0.5849 -21.6636,5.21856 -37.5498,13.81614 -52.5,28.41283 -17.2125,16.80553 -28.1744,37.40642 -34.47,64.78048 -2.3285,10.12456 -4.4289,34.74933 -3.6537,42.83471 0.3251,3.39091 0.8608,9.76529 1.1905,14.16529 2.159,28.81092 17.6364,72.06133 35.71,99.78863 5.9215,9.08446 6.5961,10.70183 4.4732,10.72502 -0.6875,0.008 -2.1677,0.26021 -3.2893,0.56154 -1.2723,0.3418 -2.6064,-0.13351 -3.5469,-1.26365 z"
       id="path3644" /><path
       style="fill:#000000;fill-opacity:1"
       d="m -421.23242,-270.76562 c 0.14141,0.27368 0.27944,0.54909 0.41406,0.82617 -0.14731,-0.28399 -0.25226,-0.53526 -0.41406,-0.82617 z"
       id="path3646" /><path
       style="fill:#000000;fill-opacity:1"
       d="m -275.28125,-304.75195 -3.84375,2.12695 c -2.1145,1.16938 -6.99572,3.95946 -10.8457,6.20117 -10.24718,5.96656 -13.40301,7.66754 -32.07227,17.28125 l -16.92773,8.7168 -3.5,6.05078 c -4.9242,8.51265 -15.21859,19.27863 -23.79297,24.88281 -12.86108,8.40589 -25.93172,12.13363 -42.23828,12.04883 -9.93278,-0.0516 -15.98608,-1.15031 -15.95508,-2.89648 0.003,-0.14278 -0.004,-0.55866 0.32659,-1.31507 -1.97287,2.6327 -2.80451,3.55946 -5.09612,5.6471 l 6.36718,2.28125 c 14.15708,5.07726 23.296,6.61133 39.38868,6.61133 25.55614,0 46.61189,-6.9754 66.78125,-22.125 20.06296,-15.06964 35.64957,-38.89421 40.68945,-62.19336 z"
       id="path3648" /><path
       style="fill:#000000;fill-opacity:1"
       d="m -587.51758,-342.56055 c -0.28683,-0.18025 -2.25947,1.41627 -15.45312,12.1875 -23.05576,18.82254 -42.33094,40.5111 -50.57422,56.90625 -16.27668,32.37262 -3.2783,53.83769 37.07422,61.22461 11.37608,2.08252 56.18232,1.58003 73,-0.81836 10.38448,-1.48095 37.00866,-6.70601 57.20312,-11.22656 3.69915,-0.82806 5.64182,-1.21193 6.91211,-1.19531 -5.13215,-4.53988 -8.92235,-10.39912 -10.95898,-16.94141 0.0112,0.11548 0.0204,0.6674 0.0312,0.75195 0.2574,2.00467 -0.22452,2.55947 -2.6875,3.10157 -39.61252,8.7186 -60.82575,11.39945 -88.72071,11.21289 -35.10632,-0.2348 -55.7795,-8.01091 -62.1875,-23.39258 -8.73978,-20.97868 8.53429,-51.21417 48.15821,-84.29492 4.53748,-3.78822 8.25,-7.09695 8.25,-7.35156 0,-0.0767 -0.006,-0.13832 -0.0469,-0.16407 z"
       id="path3650" /><path
       style="fill:#000000;fill-opacity:1"
       d="m -382.67969,-433.76953 -8.80859,0.54687 c -42.45522,2.63081 -81.69352,31.61323 -95.9043,70.83789 -9.32628,25.74225 -8.97039,52.61267 1.02149,77.17579 l 2.80859,6.90625 -1.48242,3.03906 c 2.59878,-3.67256 5.83723,-6.84751 9.56054,-9.37305 -1.97022,0.77089 -3.58683,1.26845 -3.9707,1.03125 -3.14718,-1.94514 -4.11197,-24.73201 -1.51367,-35.75195 3.8627,-16.38257 14.84137,-32.9561 28.49805,-43.01953 30.20814,-22.25999 71.94908,-19.20273 98.23632,7.19336 11.12978,11.17587 18.57582,25.28949 20.9375,39.69336 0.6651,4.0563 1.29309,7.50926 1.39649,7.67187 0.222,0.34921 22.2562,-11.60388 23.8418,-12.93359 0.598,-0.50149 4.91289,-3.18989 9.58789,-5.97461 4.67498,-2.78474 11.98022,-7.34027 16.23242,-10.125 8.58648,-5.62326 8.16406,-4.33429 5.13476,-15.76367 -1.74118,-6.5694 -4.84292,-14.76891 -8.0039,-21.15821 l -2.30469,-4.66015 -7.2793,2.58203 c -9.91478,3.5166 -27.66001,4.06286 -38.65039,1.1914 -25.97604,-6.78671 -45.27127,-28.12177 -48.63867,-53.78125 z"
       id="path3652" /><path
       style="fill:#000000;fill-opacity:1"
       d="m -235.4707,-473.0332 c -12.37498,-0.0445 -25.72333,0.27969 -29.66211,0.7207 -1.08536,0.12152 -1.78875,0.17764 -2.58594,0.25 v 1.01758 c 6.76394,-0.8402 7.41186,-0.58322 13.53711,-0.38672 58.66297,1.88195 85.56316,23.15073 64.5918,59.36914 -5.7703,9.96543 -18.6032,25.41503 -29.76758,35.83594 -3.0124,2.81182 -6.19632,5.78633 -7.07422,6.61133 -0.8779,0.82498 -4.50721,3.98194 -8.06641,7.01367 -28.47884,24.25793 -70.19075,50.57943 -115.97265,73.18359 -21.75986,10.74361 -36.17492,17.16631 -44.5,19.82813 -2.2,0.70341 -4.9,1.83478 -6,2.51367 -3.5008,2.16063 -15.6456,5.71697 -16.4668,4.82226 -0.4347,-0.47361 -1.31282,-2.49256 -1.94922,-4.48632 -0.096,-0.30065 -0.32711,-0.69155 -0.45508,-1.01563 1.83975,4.49981 2.78702,9.31441 2.78907,14.17578 -0.0278,4.14086 -0.7412,8.24853 -2.11133,12.15625 l 2.19336,-4.28711 19.5,-7.82812 c 19.03756,-7.64211 25.35022,-10.28376 33.5,-14.01758 2.19998,-1.00793 6.925,-3.09826 10.5,-4.64648 11.35138,-4.91598 42.71882,-21.13697 58.5,-30.25196 3.84998,-2.22371 8.8,-5.03016 11,-6.23633 11.85448,-6.49931 58.45137,-38.98507 60.73437,-42.34179 0.4041,-0.59414 0.74,-0.72014 0.75,-0.2793 0.008,0.44084 1.02813,-0.24089 2.26563,-1.51562 1.2375,-1.27475 5.607,-5.23665 9.70898,-8.80274 36.15304,-31.42972 53.59977,-63.07882 46.02149,-83.48437 -4.7101,-12.68251 -17.59615,-21.2113 -38.97071,-25.79688 -7.88568,-1.69177 -13.3527,-2.05399 -32.00976,-2.12109 z"
       id="path3654" /><path
       style="fill:#000000;fill-opacity:1"
       d="m -365.47036,-145.31571 c -33.2824,-5.71232 -62.7362,-18.86167 -90.9329,-40.59601 -10.0055,-7.71232 -32.0671,-28.17957 -32.0671,-29.74962 0,-0.40169 1.6137,-1.03309 3.5861,-1.40311 3.4263,-0.64278 3.9944,-0.30247 12.75,7.63789 5.0402,4.57086 9.7906,8.90558 10.5566,9.63271 2.5704,2.44014 14.5459,11.70882 21.1073,16.33645 21.8567,15.41516 53.1889,27.79639 77.9738,30.81209 57.1856,6.95805 105.8928,-23.68496 124.119,-78.08663 5.9645,-17.80284 7.0417,-24.621 7.6186,-48.2226 0.5354,-21.90473 0.1304,-27.25897 -3.3769,-44.6363 l -1.509,-7.47657 2.7205,-2.34012 c 1.4963,-1.28708 3.0987,-1.96205 3.5608,-1.49994 1.2201,1.22012 3.8166,14.95969 5.4413,28.7932 3.9846,33.92696 -1.2441,68.58282 -14.3331,95 -17.0534,34.41856 -46.0875,56.9339 -83.1598,64.48875 -7.6932,1.56778 -13.3626,1.98122 -25.7123,1.87507 -8.7136,-0.0749 -16.9679,-0.32927 -18.3429,-0.56526 z"
       id="path3656" /><ellipse
       style="opacity:1;fill:#000000;fill-opacity:1;fill-rule:evenodd;stroke:none;stroke-width:1.85748"
       id="ellipse3658"
       cx="-316.19025"
       cy="-436.96292"
       rx="56.096375"
       ry="54.140938" /><circle
       style="opacity:1;fill:#000000;fill-opacity:1;fill-rule:evenodd;stroke:none;stroke-width:2.83936"
       id="circle3660"
       cx="-454.55347"
       cy="-253.57954"
       r="37.5" /></g><path
     style="fill:#333333;stroke-width:0.0924386;fill-opacity:1"
     d="m 47.17547,28.491044 c -0.270291,-0.622978 -1.181144,-2.448026 -1.322483,-2.64981 -0.136402,-0.194748 -0.133573,-0.233278 0.03852,-0.524961 0.102153,-0.173133 0.221547,-0.314787 0.265326,-0.314787 0.04378,0 0.455935,0.757361 0.9159,1.683025 l 0.836292,1.683025 -0.254844,0.208642 c -0.140164,0.114753 -0.275892,0.210139 -0.301608,0.211967 -0.02572,0.0018 -0.105417,-0.131867 -0.177103,-0.297101 z"
     id="path479" /><path
     style="fill:#333333;stroke-width:0.0924386;fill-opacity:1"
     d="M 22.848918,39.820462 C 22.24535,39.095193 20.905212,36.484818 20.28689,34.830032 18.630381,30.39684 18.538303,25.53141 20.041881,21.884689 c 1.39513,-3.383661 3.805457,-5.592304 7.205839,-6.602885 1.008117,-0.299609 1.033843,-0.30223 3.004255,-0.306051 2.227198,-0.0043 2.906908,0.09224 4.621931,0.656574 1.142347,0.375894 2.698015,1.053465 2.74502,1.195594 0.01814,0.05483 -0.10331,0.173028 -0.269875,0.262662 -0.30244,0.162756 -0.303938,0.162488 -1.134785,-0.202439 -1.10405,-0.484925 -2.030137,-0.798366 -3.096694,-1.048101 -1.198346,-0.280595 -4.019221,-0.310593 -5.084123,-0.05407 -2.002553,0.482397 -3.471052,1.277145 -4.853027,2.626443 -1.5911,1.55348 -2.604403,3.457797 -3.186359,5.988217 -0.215244,0.935901 -0.409402,3.21218 -0.337743,3.959581 0.03005,0.313451 0.07957,0.90269 0.110048,1.30942 0.199575,2.663241 1.630284,6.661249 3.300983,9.224322 0.547375,0.839755 0.609734,0.989263 0.413496,0.991406 -0.06355,7.4e-4 -0.200379,0.02405 -0.304058,0.05191 -0.11761,0.0316 -0.240932,-0.01234 -0.327871,-0.11681 z"
     id="path475" /><path
     style="fill:#000000;stroke-width:0.0924386"
     d="m 31.105918,37.374269 c 0.01307,0.0253 0.02583,0.05076 0.03828,0.07637 -0.01362,-0.02625 -0.02332,-0.04948 -0.03828,-0.07637 z"
     id="path2641" /><path
     style="fill:#0202a5;fill-opacity:1;stroke-width:0.0924386"
     d="m 44.597441,34.23262 -0.355311,0.196613 c -0.195461,0.108096 -0.646675,0.366007 -1.002561,0.573227 -0.947236,0.551541 -1.238956,0.708777 -2.964717,1.597455 l -1.564775,0.805769 -0.323535,0.559325 c -0.455187,0.786898 -1.406786,1.78209 -2.19939,2.300133 -1.18886,0.777029 -2.397092,1.121616 -3.904447,1.113777 -0.918173,-0.0048 -1.477731,-0.106333 -1.474866,-0.267747 2.77e-4,-0.0132 -3.7e-4,-0.05164 0.03019,-0.121563 -0.18237,0.243363 -0.259245,0.329032 -0.471079,0.52201 l 0.588574,0.210876 c 1.30866,0.469335 2.15345,0.611142 3.641035,0.611142 2.362374,0 4.308738,-0.644796 6.173165,-2.045204 1.854593,-1.393017 3.295397,-3.595327 3.761277,-5.749068 z"
     id="path2639" /><path
     id="path2637"
     style="fill:#e5e5e5;fill-opacity:1;stroke-width:0.0924386"
     d="m 48.277344,18.677734 c -1.143925,-0.0041 -2.378093,0.02564 -2.742188,0.06641 -0.10033,0.01123 -0.16459,0.01675 -0.238281,0.02344 v 0.09375 c 0.625248,-0.07767 0.685744,-0.05527 1.251953,-0.03711 5.422718,0.173965 7.909264,2.140305 5.970703,5.488281 -0.533398,0.92119 -1.719934,2.349206 -2.751953,3.3125 -0.278462,0.25992 -0.573145,0.535066 -0.654297,0.611328 -0.08115,0.07626 -0.417086,0.368189 -0.746093,0.648438 -2.632542,2.242366 -6.488693,4.67613 -10.720704,6.765625 -2.01145,0.993124 -3.343724,1.585976 -4.113281,1.832031 -0.203365,0.06502 -0.453005,0.169666 -0.554687,0.232422 -0.323609,0.199726 -1.445575,0.528018 -1.521485,0.445312 -0.04018,-0.04378 -0.12086,-0.229762 -0.179687,-0.414062 -0.0087,-0.02731 -0.03103,-0.06216 -0.04297,-0.0918 -2.09e-4,-5.19e-4 2.04e-4,-0.0014 0,-0.002 -0.532315,-1.303896 -1.800615,-2.156119 -3.208984,-2.15625 -1.914739,-1.93e-4 -3.46699,1.552058 -3.466797,3.466797 0.0015,0.350617 0.05613,0.698982 0.162109,1.033203 9.67e-4,0.01249 9.81e-4,0.06076 0.002,0.06836 0.02379,0.185309 -0.02037,0.235045 -0.248047,0.285156 -3.661722,0.805935 -5.622603,1.054355 -8.201171,1.03711 -3.245176,-0.0217 -5.155701,-0.740251 -5.748047,-2.16211 -0.8078928,-1.939238 0.788395,-4.735032 4.451171,-7.792968 0.419438,-0.350177 0.761719,-0.656152 0.761719,-0.679688 0,-0.0071 -1.6e-4,-0.01129 -0.0039,-0.01367 -0.02652,-0.01666 -0.208134,0.129324 -1.427734,1.125 -2.131241,1.739929 -3.913785,3.746176 -4.6757816,5.261719 -1.5045922,2.992477 -0.3023924,4.975367 3.4277346,5.658203 1.051588,0.192505 5.193445,0.147487 6.748047,-0.07422 0.959926,-0.136896 3.420363,-0.621189 5.287109,-1.039062 0.341944,-0.07654 0.521248,-0.110912 0.638672,-0.109375 -0.101956,-0.09019 -0.19699,-0.188191 -0.28711,-0.289063 0.08995,0.1019 0.185822,0.198421 0.28711,0.289063 0.6329,0.559408 1.44828,0.868474 2.292969,0.869141 1.478785,-0.0035 2.792544,-0.944666 3.271484,-2.34375 l 0.002,-0.002 L 31.5,39.689453 33.302734,38.966797 c 1.759805,-0.706425 2.34235,-0.949773 3.095704,-1.294922 0.203363,-0.09317 0.640235,-0.286573 0.970703,-0.429687 1.049305,-0.454426 3.949413,-1.954299 5.408203,-2.796876 0.355885,-0.205556 0.814213,-0.464674 1.017578,-0.576171 1.095811,-0.600787 5.402244,-3.603773 5.543289,-3.752215 0.141044,-0.148442 0.234897,-0.210032 0.349289,-0.327864 0.114392,-0.117835 0.517304,-0.484809 0.896484,-0.814453 3.341934,-2.905317 4.954431,-5.830537 4.253907,-7.716797 C 54.402496,20.08546 53.21216,19.296931 51.236328,18.873047 50.507387,18.716662 50.001974,18.683936 48.277344,18.677734 Z M 31.46875,38.578125 c 0.0037,0.03255 0.007,0.065 0.0098,0.09766 -0.0028,-0.0326 -0.006,-0.06515 -0.0098,-0.09766 z m 0.02344,0.384766 c -9.11e-4,0.134005 -0.01298,0.267798 -0.0293,0.40039 0.01749,-0.132785 0.02727,-0.266473 0.0293,-0.40039 z m -0.05078,0.570312 c -0.01737,0.100048 -0.04029,0.198645 -0.06641,0.296875 0.02647,-0.09794 0.04863,-0.196993 0.06641,-0.296875 z m -6.708984,0.496094 c 0.03315,0.101298 0.07095,0.201013 0.113281,0.298828 -0.04182,-0.09766 -0.08046,-0.197222 -0.113281,-0.298828 z m 0.158203,0.40625 c 0.05177,0.108375 0.109141,0.213986 0.171875,0.316406 -0.06211,-0.103035 -0.120706,-0.207236 -0.171875,-0.316406 z m 0.277344,0.480469 c 0.06446,0.09451 0.133551,0.185763 0.207031,0.273437 -0.07368,-0.08784 -0.14252,-0.178905 -0.207031,-0.273437 z"
     sodipodi:nodetypes="cscccssscsssscscccccssssscscsssccccccccsssscscssccccccccccccccccccc" /><path
     style="fill:#0202a5;fill-opacity:1;stroke-width:0.0924386"
     d="m 34.669678,22.306415 -0.814253,0.05055 c -3.924502,0.243189 -7.551636,2.922284 -8.865261,6.548157 -0.862108,2.379577 -0.82921,4.863442 0.09443,7.134022 l 0.259623,0.638404 -0.137033,0.280927 c 0.240227,-0.339486 0.539585,-0.632974 0.883763,-0.866432 -0.182125,0.07126 -0.331562,0.117254 -0.367046,0.09533 -0.290921,-0.179806 -0.380105,-2.286193 -0.139922,-3.304861 0.357063,-1.514382 1.371916,-3.046416 2.63432,-3.976666 2.792399,-2.057682 6.650873,-1.775073 9.080829,0.664945 1.028822,1.033082 1.717123,2.337725 1.935434,3.669199 0.06148,0.374958 0.119531,0.694145 0.129089,0.709177 0.02052,0.03228 2.057332,-1.072647 2.203903,-1.195563 0.05528,-0.04636 0.454141,-0.294869 0.886291,-0.552285 0.432149,-0.257418 1.107435,-0.678524 1.500503,-0.935941 0.793722,-0.519806 0.754674,-0.400656 0.47465,-1.457172 -0.160952,-0.607266 -0.447673,-1.365217 -0.73987,-1.955835 l -0.213042,-0.430778 -0.672888,0.238679 c -0.916509,0.32507 -2.556853,0.375565 -3.572789,0.110132 C 36.82922,27.14305 35.045596,25.170866 34.734318,22.79894 Z"
     id="path2635" /><path
     style="fill:#333333;stroke-width:0.0924386;fill-opacity:1"
     d="m 36.260485,48.970685 c -3.076579,-0.528039 -5.799247,-1.743547 -8.405711,-3.752639 -0.924894,-0.712916 -2.964238,-2.60488 -2.964238,-2.750014 0,-0.03713 0.149168,-0.0955 0.331494,-0.129701 0.316722,-0.05942 0.369237,-0.02796 1.178592,0.706036 0.465909,0.422524 0.90503,0.823219 0.975838,0.890434 0.237604,0.225563 1.344602,1.082347 1.951129,1.510119 2.020403,1.424956 4.916708,2.56946 7.20779,2.848227 5.286157,0.643192 9.788583,-2.189405 11.473388,-7.21822 0.55135,-1.64567 0.650925,-2.275931 0.704252,-4.45763 0.04949,-2.024843 0.01205,-2.519781 -0.312155,-4.126117 l -0.13949,-0.691124 0.251479,-0.216318 c 0.138316,-0.118976 0.286439,-0.181369 0.329155,-0.138652 0.112785,0.112786 0.352802,1.382853 0.502987,2.661603 0.36833,3.136161 -0.115003,6.339701 -1.324932,8.781668 -1.576393,3.181604 -4.260265,5.262891 -7.687177,5.961251 -0.711148,0.144923 -1.23522,0.183141 -2.376809,0.173329 -0.805473,-0.0069 -1.568489,-0.03044 -1.695592,-0.05225 z"
     id="path469" /><ellipse
     style="fill:#c00101;fill-opacity:1;fill-rule:evenodd;stroke:none;stroke-width:0.171703"
     id="path2277"
     cx="40.815868"
     cy="22.011223"
     rx="5.1854711"
     ry="5.0047131" /></svg>
