<svg id="svg27" width="64" height="64" version="1.1" viewBox="0 0 16.933 16.933" xmlns="http://www.w3.org/2000/svg" xmlns:xlink="http://www.w3.org/1999/xlink">
    <defs id="defs17">
        <filter id="filter1057" x="-.026999999" y="-.026999999" width="1.054" height="1.054" color-interpolation-filters="sRGB">
            <feGaussianBlur id="feGaussianBlur1059" stdDeviation="0.61875"/>
        </filter>
        <linearGradient id="linearGradient1051">
            <stop id="stop1049" stop-color="#7d70dd" offset="0"/>
            <stop id="stop1047" stop-color="#c27dd4" offset="1"/>
        </linearGradient>
        <linearGradient id="linearGradient2445" x1="-127" x2="-72" y1="60" y2="5" gradientTransform="matrix(.24052558 0 0 .24052558 32.398795 .64701366)" gradientUnits="userSpaceOnUse" xlink:href="#linearGradient1051"/>
        <filter id="filter8893" x="-.018142089" y="-.018142089" width="1.0362842" height="1.0362842" color-interpolation-filters="sRGB">
            <feFlood id="feFlood8883" flood-color="rgb(0,0,0)" flood-opacity=".501961" result="flood"/>
            <feComposite id="feComposite8885" in="flood" in2="SourceGraphic" operator="out" result="composite1"/>
            <feGaussianBlur id="feGaussianBlur8887" in="composite1" result="blur" stdDeviation="0.1"/>
            <feOffset id="feOffset8889" dx="2.77556e-17" dy="0" result="offset"/>
            <feComposite id="feComposite8891" in="offset" in2="SourceGraphic" operator="in" result="composite2"/>
        </filter>
        <linearGradient id="linearGradient10660" x1="-127" x2="-72" y1="60" y2="5" gradientTransform="matrix(.24052558 0 0 .24052558 32.398791 .64701245)" gradientUnits="userSpaceOnUse" xlink:href="#linearGradient1051"/>
        <filter id="filter15286" x="-.06977726" y="-.3023683" width="1.1395545" height="1.6047366" color-interpolation-filters="sRGB">
            <feFlood id="feFlood15276" flood-color="rgb(0,0,0)" flood-opacity=".501961" result="flood"/>
            <feComposite id="feComposite15278" in="flood" in2="SourceGraphic" operator="out" result="composite1"/>
            <feGaussianBlur id="feGaussianBlur15280" in="composite1" result="blur" stdDeviation="0.1"/>
            <feOffset id="feOffset15282" dx="2.77556e-17" dy="0" result="offset"/>
            <feComposite id="feComposite15284" in="offset" in2="SourceGraphic" operator="in" result="composite2"/>
        </filter>
        <filter id="filter15676" x="-.027000001" y="-.027000001" width="1.054" height="1.054" color-interpolation-filters="sRGB">
            <feGaussianBlur id="feGaussianBlur15678" stdDeviation="0.10120113"/>
        </filter>
    </defs>
    <g fill="#5e4aa6">
        <g id="g30" transform="scale(.26457812)">
            <circle id="circle24" cx="-1248.7" cy="-1241.6" r="0"/>
            <circle id="circle26" cx="-1140.3" cy="-1301.8" r="0"/>
            <circle id="circle28" cx="-1158.1" cy="-1246" r="0"/>
        </g>
        <circle id="circle36" cx="-306.19626" cy="-335.40567" r="0" stroke-width=".264578"/>
        <circle id="circle38" cx="-15.280974" cy="-.57754755" r="0" fill-rule="evenodd" stroke-width=".264578"/>
    </g>
    <g stroke-linecap="round">
        <rect id="rect1055" transform="scale(.26457812)" x="4.5" y="4.5" width="55" height="55" ry="15" fill="#141414" filter="url(#filter1057)" opacity=".3" stroke-width="2.74436"/>
        <rect id="rect1045" x="1.1906021" y="1.1906021" width="14.551796" height="14.551796" ry="3.9686716" fill="#e3e5ed" stroke-width=".726098"/>
        <rect id="rect2443" x="1.8520467" y="1.8520467" width="13.228907" height="13.228907" ry="3.6078835" fill="url(#linearGradient2445)" stroke-width=".660089"/>
    </g>
    <g id="g11741" transform="translate(-18.331002,-13.117034)" fill-opacity=".05">
        <path id="path9651" d="m23.481309 15.096973c-0.142063 0.01203-0.281771 0.03153-0.418571 0.05943 5.1e-5 1.62e-4 -5.2e-5 3.55e-4 0 5.17e-4 0.0056 0.01762 0.01372 0.03488 0.02429 0.05064 0.05846 0.08941 0.184597 0.121237 0.283181 0.07079 0.06799-0.03436 0.107985-0.106274 0.111103-0.18138z"/>
        <path id="path9653" d="m24.463141 15.08302c-0.0011 0.01345-4.05e-4 0.02605 0.0021 0.03824 0.01376 0.06305 0.05808 0.127402 0.108519 0.15606 0.06763 0.03783 0.174367 0.03086 0.235123-0.01499 0.05572-0.04261 0.08455-0.11123 0.08371-0.179314z"/>
        <path id="path9655" d="m25.881115 15.08302c-2.5e-4 0.03302 0.0041 0.06673 0.0124 0.08888 0.0298 0.07795 0.10868 0.129705 0.201534 0.129705 0.131354 0 0.21249-0.108115 0.209802-0.218587z"/>
        <path id="path9657" d="m27.29237 15.08302c-0.0029 0.128351 0.08278 0.218587 0.210319 0.218587 0.08597 0 0.157391-0.04279 0.196367-0.117303 0.01127-0.0212 0.0165-0.06182 0.0155-0.101284z"/>
        <path id="path9659" d="m28.702593 15.08302c-0.0018 0.06862 0.02861 0.136595 0.08423 0.179314 0.06076 0.04585 0.16749 0.05282 0.235124 0.01499 0.05044-0.02866 0.09477-0.09301 0.108518-0.15606 0.0025-0.01215 0.0036-0.02483 0.0026-0.03824z"/>
        <path id="path9661" d="m30.116432 15.096973c0.0016 0.20594 0.277682 0.284676 0.392216 0.110585 0.0104-0.01532 0.01817-0.03307 0.02377-0.05168-0.135875-0.02758-0.274928-0.04697-0.415987-0.05891z"/>
        <path id="path9671" d="m22.555802 15.578071c-0.01691 7.18e-4 -0.03398 0.0058-0.06149 0.0155-0.08941 0.0321-0.144174 0.11041-0.144174 0.206702 0 0.06878 0.02191 0.11807 0.07234 0.162777 0.03668 0.0321 0.102841 0.06046 0.139524 0.06046 0.06878 0 0.170001-0.0685 0.196367-0.13384 0.02063-0.047 0.02063-0.131797 0-0.178797-0.01949-0.04929-0.08719-0.106535-0.141074-0.121437-0.02751-8e-3 -0.04459-0.01209-0.06149-0.01137z"/>
        <path id="path9673" d="m23.962407 15.580138c-0.0055 1.44e-4 -0.01003 8.12e-4 -0.01344 0.0021-0.0057 0.0023-0.02518 0.0069-0.04237 0.01033-0.04242 0.0092-0.09743 0.05866-0.126088 0.113686-0.0172 0.03554-0.02153 0.06158-0.01809 0.113169 0.01146 0.159341 0.181164 0.248818 0.319871 0.167428 0.139853-0.08139 0.139853-0.295662 0-0.373613-0.03482-0.01935-0.0904-0.03385-0.119887-0.03307z"/>
        <path id="path9675" d="m25.373146 15.581688c-0.01419 7.78e-4 -0.02821 0.0036-0.04237 0.0078-0.167365 0.04929-0.214622 0.267989-0.08165 0.380331 0.138706 0.116926 0.349842 0.01392 0.349842-0.169495 0-0.124557-0.110242-0.224925-0.225821-0.218587z"/>
        <path id="path9677" d="m26.786985 15.582721c-0.01694 5.01e-4 -0.03418 0.0032-0.05116 0.0078-0.02407 0.0069-0.06429 0.03174-0.08836 0.05581-0.137561 0.137561-0.04233 0.371546 0.151409 0.371546 0.123804 0 0.210836-0.09175 0.210836-0.220137 0-0.05961-0.0043-0.07758-0.03411-0.118853-0.0447-0.06334-0.115197-0.09829-0.188615-0.09612z"/>
        <path id="path9679" d="m28.205475 15.580654c-0.0155 1.64e-4 -0.03094 0.0025-0.04599 0.0072-0.165073 0.05044-0.21884 0.248823-0.100767 0.366895 0.135269 0.135268 0.365749 0.03808 0.366895-0.154509 0-0.116353-0.111635-0.220765-0.220137-0.219621z"/>
        <path id="path9681" d="m29.607946 15.581688c-0.01348 5.58e-4 -0.02642 0.0025-0.03824 0.0062-0.100878 0.03095-0.159565 0.109216-0.160711 0.212386-0.0023 0.182268 0.208665 0.285275 0.346226 0.169495 0.09858-0.08254 0.106872-0.225645 0.0186-0.321938-0.03819-0.04284-0.107448-0.06856-0.165878-0.06614z"/>
        <path id="path9683" d="m31.027469 15.578071c-0.01691 7.18e-4 -0.03398 0.0058-0.06149 0.0155-0.08941 0.0321-0.144691 0.11041-0.144691 0.206702 0 0.06878 0.02191 0.11807 0.07235 0.162777 0.03668 0.0321 0.103358 0.06046 0.140041 0.06046 0.06878 0 0.169483-0.0685 0.195849-0.13384 0.02063-0.047 0.02063-0.131797 0-0.178797-0.01949-0.04929-0.08719-0.106535-0.141074-0.121437-0.02751-8e-3 -0.04407-0.01209-0.06098-0.01137z"/>
        <path id="path9691" d="m21.854567 16.289641c-0.02247 3.92e-4 -0.04598 0.0051-0.06976 0.01395-0.202903 0.07451-0.185491 0.370021 0.02429 0.417021 0.08139 0.01834 0.147722-0.0043 0.206185-0.0708 0.127512-0.144716 0.0085-0.363133-0.16071-0.360178z"/>
        <path id="path9693" d="m23.264272 16.288608c-0.02139 1.74e-4 -0.04199 0.0057-0.07183 0.01602-0.09171 0.0321-0.153392 0.139525-0.13849 0.239257 0.02293 0.141 0.179999 0.2225 0.309536 0.161744 0.0642-0.03095 0.121437-0.121563 0.121437-0.193783 0-0.09056-0.07197-0.188943-0.15451-0.211869-0.0274-0.0075-0.04727-0.01152-0.06614-0.01137z"/>
        <path id="path9695" d="m24.667259 16.288608c-0.01655 9.04e-4 -0.03427 0.0049-0.05684 0.01137-0.05503 0.01605-0.121295 0.08848-0.13849 0.150376-0.03783 0.132975 0.06328 0.271474 0.1974 0.274913 0.06305 0.0011 0.09603-0.0094 0.144175-0.04496 0.135268-0.102024 0.08808-0.33551-0.077-0.381364-0.02837-0.0077-0.04797-0.0115-0.06924-0.01034z"/>
        <path id="path9697" d="m26.077481 16.288608c-0.0128 4.71e-4 -0.02505 0.0027-0.03617 0.0067-0.10661 0.03898-0.160711 0.107713-0.160711 0.205152 0 0.03324 6e-3 0.07468 0.01292 0.09302 0.0149 0.04012 0.06301 0.09139 0.105418 0.113169 0.03898 0.02063 0.127146 0.02298 0.174146 0.0046 0.105463-0.04012 0.161607-0.180997 0.115753-0.289899-0.03152-0.07586-0.133146-0.135684-0.211353-0.132805z"/>
        <path id="path9699" d="m27.500106 16.288608c-0.01866 9.53e-4 -0.03878 0.0064-0.06511 0.01602-0.05617 0.01949-0.116645 0.07875-0.13384 0.129188-0.04815 0.144439 0.05601 0.29145 0.206185 0.29145 0.0619 0 0.107736-0.01956 0.152443-0.0677 0.04012-0.04241 0.05529-0.08384 0.05529-0.15606 0-0.09285-0.05608-0.169549-0.147791-0.2005-0.02619-0.0091-0.04603-0.01348-0.06718-0.0124z"/>
        <path id="path9701" d="m28.916529 16.290675c-0.0235-1.4e-4 -0.04767 0.0042-0.07131 0.01292-0.134122 0.04929-0.185887 0.214313-0.103351 0.33124 0.121512 0.170804 0.386307 0.08576 0.388599-0.124021 9.11e-4 -0.123411-0.10072-0.219464-0.213936-0.220137z"/>
        <path id="path9703" d="m30.315382 16.291708c-0.01816 2.92e-4 -0.03603 0.0031-0.05323 0.0083-0.05388 0.01605-0.125138 0.09192-0.140041 0.150376-0.03783 0.139853 0.06341 0.274913 0.206702 0.274913 0.07107 0 0.140854-0.03651 0.17983-0.09612 0.04127-0.0619 0.04446-0.16547 0.0078-0.227372-0.04005-0.06893-0.122325-0.111336-0.201018-0.110069z"/>
        <path id="path9705" d="m31.728705 16.288608c-0.01655 9.04e-4 -0.03427 0.0049-0.05684 0.01137-0.05846 0.0172-0.122441 0.08945-0.13849 0.157093-0.04356 0.179976 0.141071 0.329142 0.303851 0.245459 0.05502-0.02751 0.07888-0.05401 0.101801-0.109035 0.04929-0.118073-0.01956-0.26016-0.141074-0.29455-0.02837-0.0077-0.04797-0.0115-0.06924-0.01034z"/>
        <path id="path9711" d="m21.145063 17.001728c-0.0062-5.4e-5 -0.01158 7.79e-4 -0.01602 0.0021-0.0057 0.0023-0.02518 0.0069-0.04237 0.01034-0.03898 0.0092-0.107812 0.06742-0.130739 0.112136-0.02293 0.04356-0.02293 0.147121 0 0.190682 0.02522 0.04929 0.09315 0.102966 0.139007 0.112136 0.224683 0.04127 0.357323-0.199239 0.202568-0.364312-0.02908-0.0311-0.109092-0.06266-0.152443-0.06304z"/>
        <path id="path9713" d="m22.559419 17.004312c-0.01426 1.99e-4 -0.02901 0.0019-0.04341 0.0052-0.05044 0.01146-0.07885 0.02867-0.11782 0.07338-0.118073 0.134122-0.01617 0.350876 0.163811 0.350876 0.179975 0 0.281884-0.216754 0.163811-0.350876-0.04564-0.05216-0.10458-0.07941-0.166395-0.07855z"/>
        <path id="path9715" d="m23.977909 17.004312c-0.01478 6.99e-4 -0.03862 0.0048-0.06098 0.01085-0.126097 0.0321-0.189961 0.167354-0.139523 0.288865 0.03439 0.08254 0.106548 0.129706 0.194816 0.129706 0.103171 0 0.180965-0.05954 0.206185-0.158127 0.02407-0.08941 0.0024-0.156167-0.06873-0.21807-0.03554-0.0321-0.05392-0.0401-0.120404-0.05271-0.0026-5.75e-4 -0.0064-7.5e-4 -0.01137-5.17e-4z"/>
        <path id="path9717" d="m25.383997 17.005862c-0.01523 2.99e-4 -0.03074 0.0026-0.04651 0.0062-0.145585 0.0321-0.212355 0.203592-0.128672 0.32969 0.08368 0.127242 0.286699 0.120456 0.361211-0.01137 0.04012-0.07222 0.04269-0.128282 0.0083-0.200501-0.03966-0.08028-0.112079-0.125632-0.1943-0.124021z"/>
        <path id="path9719" d="m26.799904 17.004312c-0.01389 9.3e-5 -0.02819 0.0018-0.04237 0.0052-0.06076 0.01376-0.107313 0.0459-0.140557 0.09405-0.02522 0.03898-0.03101 0.06051-0.03101 0.11782 0 0.05846 0.0056 0.07948 0.03204 0.117303 0.105463 0.152463 0.327552 0.119179 0.386016-0.05736 0.04364-0.135053-0.06981-0.277882-0.204118-0.27698z"/>
        <path id="path9721" d="m28.203925 17.004312c-0.01272 4.37e-4 -0.02586 0.0022-0.03876 0.0052-0.161634 0.03668-0.223104 0.226958-0.114202 0.351909 0.123804 0.141 0.354237 0.06657 0.372579-0.121437 0.01247-0.12882-0.09669-0.239863-0.21962-0.23564z"/>
        <path id="path9723" d="m29.608463 17.002245c-3e-3 2.12e-4 -0.0056 9.05e-4 -0.0078 0.0016-0.0057 0.0023-0.02518 0.0069-0.04237 0.01034-0.04012 0.0092-0.107699 0.06772-0.131772 0.11472-0.01032 0.01949-0.0186 0.06041-0.0186 0.0925 0 0.22239 0.303741 0.295982 0.404618 0.09767 0.04471-0.08827 0.02059-0.201707-0.05736-0.268195-0.01949-0.01605-0.04804-0.03222-0.06408-0.03566-0.0475-0.01025-0.06975-0.01384-0.08268-0.01292z"/>
        <path id="path9725" d="m31.017134 17.005346c-0.01004 4.93e-4 -0.01978 0.0019-0.02945 0.0041-0.01834 0.0034-0.04578 0.0138-0.05839 0.02067-0.04241 0.02178-0.09533 0.09194-0.103351 0.134356-0.02751 0.149024 0.06559 0.269229 0.207736 0.269229 0.140999 0 0.23473-0.121351 0.207218-0.269229-0.01766-0.08934-0.126686-0.163935-0.223755-0.15916z"/>
        <path id="path9727" d="m32.44906 17.004312c-0.01478 6.99e-4 -0.03811 0.0048-0.06046 0.01085-0.129537 0.03324-0.192707 0.173104-0.13539 0.299201 0.05732 0.126097 0.229507 0.160659 0.333823 0.06666 0.05044-0.04585 0.07195-0.09871 0.0708-0.172079-0.0011-0.0619-0.02261-0.105555-0.07648-0.151409-0.03554-0.0321-0.05392-0.0401-0.120404-0.05271-0.0026-5.75e-4 -7e-3 -7.5e-4 -0.01188-5.17e-4z"/>
        <path id="path9731" d="m20.429359 17.713816c-0.01886 8.75e-4 -0.03788 0.0043-0.05581 0.01085-0.02654 0.0099-0.04982 0.02376-0.06976 0.04082-0.02202 0.08379-0.04026 0.169176-0.05633 0.255276 0.02075 0.04707 0.05897 0.08451 0.111619 0.106452 0.09171 0.03783 0.195554 0.0094 0.25631-0.06976 0.02522-0.03439 0.03222-0.05643 0.03566-0.118337 0.0034-0.06649 1.22e-4 -0.08109-0.02739-0.123504-0.04384-0.06668-0.120321-0.105236-0.194299-0.1018z"/>
        <path id="path9733" d="m21.843198 17.710198c-0.01712 0.0014-0.03485 0.0065-0.05943 0.0155v5.17e-4c-0.17539 0.0619-0.192463 0.31404-0.02739 0.394283 0.169658 0.08139 0.34948-0.06227 0.305919-0.243391-0.01605-0.06993-0.07666-0.133875-0.143141-0.15451-0.03288-0.0097-0.05396-0.01422-0.07596-0.0124z"/>
        <path id="path9735" d="m23.25342 17.712782c-0.0201 8.6e-4 -0.04077 0.0046-0.06098 0.01188-0.08139 0.03095-0.143141 0.12286-0.143141 0.21342 0.0011 0.06878 0.0723 0.168563 0.141074 0.193783 0.04471 0.0172 0.115487 0.01583 0.160194-0.0036 0.047-0.01949 0.104646-0.08461 0.122987-0.13849 0.04715-0.141429-0.07946-0.282998-0.220137-0.27698z"/>
        <path id="path9737" d="m24.665709 17.710715c-0.0169 0.0011-0.03429 0.0054-0.05736 0.01292-0.09858 0.0321-0.164968 0.156869-0.137456 0.258894 0.0149 0.05732 0.07203 0.12509 0.122471 0.145724 0.09056 0.03783 0.210812 0.0026 0.263544-0.07648 0.0791-0.120366 0.01757-0.292377-0.118853-0.330206-0.02966-0.0084-0.05062-0.01231-0.07235-0.01085z"/>
        <path id="path9739" d="m26.0873 17.710198c-0.01538 5.82e-4 -0.03161 0.0049-0.05633 0.0124-0.05846 0.01605-0.09078 0.04212-0.124021 0.09715-0.02522 0.04242-0.02836 0.06109-0.02377 0.122988 0.0034 0.05732 0.01158 0.08148 0.03566 0.114719 0.124951 0.16278 0.386015 0.07785 0.386015-0.125054 0-0.02866-0.0069-0.06876-0.01602-0.0894-0.01949-0.04929-0.0872-0.106534-0.141074-0.121437-0.0268-0.0079-0.04303-0.01203-0.06046-0.01137z"/>
        <path id="path9741" d="m27.492871 17.713816c-0.01971 5.52e-4 -0.03948 0.0041-0.05788 0.01085-0.08941 0.03324-0.144175 0.111443-0.144175 0.207736 0 0.08827 0.04717 0.160425 0.129705 0.194816 0.09171 0.03783 0.195555 0.0094 0.256311-0.06976 0.04471-0.05961 0.05178-0.166456 0.01395-0.23409-0.03928-0.06851-0.120602-0.111719-0.197917-0.109551z"/>
        <path id="path9743" d="m28.904643 17.710198c-0.01712 0.0014-0.03485 0.0065-0.05943 0.0155v5.17e-4c-0.17539 0.0619-0.192463 0.31404-0.02739 0.394283 0.168512 0.08139 0.349479-0.06227 0.305918-0.243391-0.01605-0.06993-0.07666-0.133875-0.143141-0.15451-0.03288-0.0097-0.05396-0.01422-0.07596-0.0124z"/>
        <path id="path9745" d="m30.32365 17.711232c-0.01831 4.26e-4 -0.03688 0.0031-0.05581 0.0088-0.08483 0.02522-0.157093 0.120726-0.157093 0.206701 0 0.05158 0.03418 0.123803 0.07545 0.162778 0.107756 0.09973 0.274279 0.06285 0.338474-0.077 0.06738-0.145997-0.05189-0.304735-0.201018-0.301267z"/>
        <path id="path9747" d="m31.735939 17.711232c-0.02001 4.44e-4 -0.04031 0.0043-0.06046 0.01137-0.145585 0.05159-0.198206 0.226941-0.100767 0.341575 0.121512 0.145585 0.357517 0.07782 0.379298-0.109035 0.01477-0.132994-0.09575-0.246622-0.218071-0.243908z"/>
        <path id="path9749" d="m33.143061 17.708648c-0.01261 0-0.04403 0.01024-0.06925 0.0217-0.09744 0.04585-0.136067 0.109102-0.129189 0.213419 0.0057 0.08483 0.04106 0.141081 0.112136 0.177764 0.07451 0.03783 0.182523 0.02413 0.244425-0.03204 0.021-0.01899 0.03753-0.04564 0.04857-0.07545-0.0154-0.0817-0.03348-0.162733-0.05426-0.242358-0.04346-0.03709-0.101933-0.06304-0.152442-0.06304z"/>
        <path id="path9753" d="m21.14558 18.422285c-0.01988-1.8e-5 -0.03971 0.0031-0.05891 0.0088-0.150171 0.04471-0.200598 0.246465-0.0894 0.362245 0.04815 0.04815 0.09981 0.06631 0.177764 0.05943 0.171951-0.0149 0.252429-0.230351 0.134356-0.357594-0.04385-0.04729-0.104165-0.07281-0.163811-0.07286z"/>
        <path id="path9755" d="m22.543917 18.423836c-0.01865 9.41e-4 -0.03613 0.0047-0.05064 0.01085v-5.17e-4c-0.06534 0.02636-0.0848 0.04286-0.115753 0.0956-0.02637 0.04471-0.0299 0.06035-0.02532 0.124538 0.0034 0.06076 0.01062 0.08177 0.03927 0.117303 0.04585 0.05732 0.09945 0.08371 0.170529 0.08371 0.07107 0 0.125192-0.02639 0.171046-0.08371 0.07222-0.08941 0.04783-0.244081-0.04961-0.310569-0.03625-0.02554-0.09185-0.03961-0.139523-0.03721z"/>
        <path id="path9757" d="m23.970158 18.423319c-0.02884 7.94e-4 -0.05707 0.0077-0.08268 0.02119-0.112341 0.05846-0.156261 0.175604-0.106968 0.286798 0.04356 0.09973 0.16044 0.149223 0.268196 0.113686 0.158194-0.05273 0.185954-0.292644 0.04496-0.385498-0.03812-0.02518-0.08136-0.03733-0.123504-0.03617z"/>
        <path id="path9759" d="m25.380897 18.421769c-0.02651 0.0011-0.05327 0.0077-0.07906 0.01964-0.214365 0.09629-0.148076 0.41392 0.08578 0.41392 0.06993 0 0.110497-0.01951 0.158643-0.07338 0.06878-0.0791 0.07328-0.186983 0.01137-0.271812-0.04284-0.05933-0.108976-0.09109-0.17673-0.08836z"/>
        <path id="path9761" d="m26.786985 18.420735c-0.02484 0.0015-0.04935 0.0086-0.07493 0.02067-0.165073 0.07566-0.175537 0.292419-0.01964 0.387566 0.05961 0.03668 0.150145 0.03526 0.215486-0.0026 0.05158-0.03095 0.107485-0.121189 0.107485-0.176213 0-0.08941-0.05267-0.173233-0.131772-0.208769-0.03288-0.01547-0.0647-0.0226-0.09663-0.02067z"/>
        <path id="path9763" d="m28.205475 18.420735c-0.0288 2.88e-4 -0.05701 0.0078-0.08682 0.02274-0.129536 0.06419-0.164392 0.229571-0.06924 0.338474 0.04815 0.05388 0.08872 0.07338 0.158644 0.07338 0.233853 0 0.300142-0.317628 0.08578-0.41392-0.03038-0.01375-0.05956-0.02096-0.08836-0.02067z"/>
        <path id="path9765" d="m29.608979 18.421252c-0.01671 9.11e-4 -0.03331 0.0043-0.05064 0.0098-0.08827 0.02637-0.150375 0.113285-0.150375 0.211869 0 0.224683 0.312798 0.295922 0.405652 0.09302 0.05388-0.118073 0.0085-0.239526-0.109552-0.29455-0.0316-0.01505-0.06318-0.02189-0.09508-0.02015z"/>
        <path id="path9767" d="m31.018685 18.424352c-0.02049 5.17e-4 -0.0399 0.0028-0.05064 0.0057-0.05388 0.0172-0.09828 0.05723-0.123505 0.111102-0.05273 0.108903-0.01181 0.239525 0.0925 0.29455 0.05961 0.0321 0.16781 0.02267 0.221688-0.0186 0.155902-0.120366 0.08923-0.374505-0.103351-0.3917-0.01161-8.63e-4 -0.0244-0.0013-0.03669-1e-3z"/>
        <path id="path9769" d="m32.419088 18.423836c-0.01632 8.77e-4 -0.03154 0.0037-0.04444 0.0083-0.04585 0.0172-0.107634 0.07673-0.127122 0.121437-0.02293 0.05273-0.01967 0.134334 0.0067 0.187065 0.06305 0.123805 0.22962 0.154866 0.332789 0.06201 0.103171-0.09285 0.09179-0.268613-0.0217-0.343125-0.03783-0.02493-0.09729-0.03829-0.146242-0.03566z"/>
        <path id="path9773" d="m20.440727 19.130755c-0.03167 3.45e-4 -0.06351 0.0085-0.09457 0.02377-0.119219 0.05961-0.153558 0.229168-0.06873 0.336924 0.0642 0.08254 0.210059 0.09956 0.291449 0.03307 0.05846-0.047 0.08475-0.10078 0.08475-0.174146 0-0.09744-0.04488-0.167548-0.129705-0.203084-0.0274-0.01128-0.05526-0.01684-0.0832-0.01654z"/>
        <path id="path9775" d="m21.836997 19.131272c-0.02307 1e-3 -0.04507 6e-3 -0.06563 0.01499-0.202902 0.08941-0.157454 0.395756 0.06149 0.417537 0.07566 0.0069 0.129616-0.01393 0.177763-0.06666 0.0642-0.07107 0.07807-0.168493 0.03566-0.252176-0.03672-0.07254-0.126891-0.117344-0.209285-0.113686z"/>
        <path id="path9777" d="m23.254454 19.131272c-0.02672 9.43e-4 -0.05242 0.0073-0.07338 0.0186-0.05273 0.02751-0.08714 0.06169-0.110068 0.112136-0.02866 0.06305-0.02718 0.116847 0.0072 0.184481 0.08254 0.165073 0.308178 0.158403 0.384982-0.0124 0.05044-0.111195-0.0014-0.237506-0.118337-0.286798-0.02862-0.01157-0.06015-0.01709-0.09043-0.01602z"/>
        <path id="path9779" d="m24.669843 19.130239c-0.02409 0.0014-0.04836 8e-3 -0.07286 0.0186-0.05961 0.02637-0.100803 0.06976-0.121437 0.132806-0.05961 0.182267 0.126103 0.34516 0.2992 0.261477 0.12839-0.0619 0.160259-0.229394 0.06511-0.334856-0.04943-0.05521-0.108436-0.08172-0.170012-0.07803z"/>
        <path id="path9781" d="m26.082132 19.132822c-0.02724 2.9e-4 -0.05352 5e-3 -0.07545 0.01447-0.05273 0.02407-0.0779 0.04844-0.105418 0.102317-0.03324 0.06649-0.02484 0.171605 0.01757 0.228922 0.09858 0.12839 0.292092 0.112687 0.364312-0.02945 0.047-0.09285 0.01363-0.224943-0.07235-0.281114-0.03511-0.02364-0.08327-0.03562-0.128672-0.03514z"/>
        <path id="path9783" d="m27.502173 19.131789c-0.03262 4.71e-4 -0.06533 0.0081-0.09457 0.02274-0.09171 0.04585-0.139696 0.164734-0.106452 0.265612 0.05502 0.163927 0.269072 0.197103 0.375681 0.05839 0.05961-0.0791 0.04712-0.226512-0.02739-0.293-0.03869-0.03583-0.09291-0.05453-0.147275-0.05374z"/>
        <path id="path9785" d="m28.893792 19.132306c-0.0218 0.0013-0.04235 0.0059-0.06098 0.01395-0.04585 0.01949-0.103209 0.08627-0.120404 0.139007-0.01949 0.05846-8e-3 0.13485 0.02635 0.187582 0.05273 0.0791 0.172984 0.11483 0.263545 0.077 0.06878-0.02866 0.133839-0.127425 0.133839-0.203084 0-0.03439-0.03409-0.118101-0.06046-0.146759-0.04299-0.04642-0.116503-0.07156-0.181897-0.06769z"/>
        <path id="path9787" d="m30.310731 19.133856c-0.02084 5.17e-4 -0.03926 0.0028-0.04857 0.0057-0.07681 0.02407-0.151409 0.126232-0.151409 0.208769 0 0.09056 0.08501 0.196854 0.166394 0.212903 0.105464 0.01949 0.194954-0.02302 0.240808-0.11472 0.03554-0.07107 0.03638-0.124823 0.0031-0.190165-0.03898-0.07566-0.09872-0.117999-0.172079-0.121438-0.01246-8.62e-4 -0.02573-0.0013-0.03824-1e-3z"/>
        <path id="path9789" d="m31.734906 19.131272c-0.02773 9.82e-4 -0.05624 0.0076-0.08371 0.02067-0.09171 0.04242-0.14522 0.155884-0.118854 0.252176 0.0069 0.02637 0.03093 0.06895 0.05271 0.09302 0.136415 0.151317 0.386158 0.03766 0.368963-0.166395-0.01005-0.12058-0.110318-0.203318-0.219104-0.199467z"/>
        <path id="path9791" d="m33.136343 19.132306c-0.02122 1.69e-4 -0.0406 0.0032-0.05529 0.0093-0.144438 0.0619-0.186993 0.242105-0.08268 0.360178 0.06993 0.08024 0.216729 0.08458 0.303851 0.0078 0.09515-0.08368 0.08008-0.269354-0.02997-0.341574-0.03389-0.02285-0.08922-0.03603-0.135906-0.03566z"/>
        <path id="path9795" d="m21.139896 19.842843c-0.01848 1e-3 -0.03698 5e-3 -0.05633 0.01189-0.05617 0.02063-0.09673 0.05406-0.121954 0.103351-0.02522 0.04929-0.03074 0.13375-0.0124 0.181897 0.06534 0.168512 0.312715 0.180122 0.390666 0.01964 0.05617-0.118073 0.01173-0.241592-0.107484-0.296617-0.03153-0.01504-0.0617-0.02185-0.0925-0.02015z"/>
        <path id="path9797" d="m22.548567 19.842843c-0.01808 0.0011-0.03598 0.0054-0.05529 0.01292-0.09056 0.03554-0.143141 0.108908-0.143141 0.199468 0 0.138707 0.103182 0.234119 0.236156 0.21807 0.207488-0.02293 0.258976-0.303675 0.07441-0.399968-0.04288-0.02257-0.07762-0.03262-0.112135-0.03049z"/>
        <path id="path9799" d="m23.958789 19.844393c-0.02377 9.77e-4 -0.04432 6e-3 -0.06718 0.01705-0.120364 0.05732-0.163655 0.180094-0.107484 0.298167 0.08368 0.171951 0.346136 0.144368 0.394283-0.04134 0.03554-0.134122-0.04921-0.257944-0.184481-0.272847-0.0129-0.0011-0.02434-0.0015-0.03514-1e-3z"/>
        <path id="path9801" d="m25.373662 19.844393c-0.02502 9.31e-4 -0.04948 0.0064-0.07183 0.01705-0.145584 0.06993-0.176647 0.245591-0.06201 0.354493 0.182268 0.171951 0.459855-0.05653 0.329172-0.269746-0.04041-0.0662-0.120266-0.104594-0.195333-0.1018z"/>
        <path id="path9803" d="m26.791119 19.842326c-0.01934 8.55e-4 -0.03869 0.0063-0.06563 0.01602-0.05732 0.01949-0.09714 0.05741-0.123504 0.11472-0.04929 0.10661-0.0048 0.224314 0.106451 0.281631 0.10661 0.05502 0.23946 2.53e-4 0.289899-0.11782 0.047-0.113488-0.0207-0.249825-0.141074-0.284215-0.02751-0.0075-0.0468-0.01119-0.06614-0.01034z"/>
        <path id="path9805" d="m28.207542 19.843359c-0.01968-7.5e-5 -0.0399 0.0032-0.06046 0.0093-0.10661 0.0321-0.175529 0.154351-0.145725 0.260961 0.047 0.177682 0.283249 0.218091 0.387566 0.06563 0.09903-0.142935-0.02111-0.335274-0.181381-0.335891z"/>
        <path id="path9807" d="m29.606912 19.844393c-0.01648 5.41e-4 -0.03278 0.0034-0.04857 0.0083-0.18456 0.05503-0.202779 0.322937-0.02739 0.402035 0.165073 0.07451 0.334625-0.06412 0.300235-0.247526-0.01773-0.09359-0.123572-0.166085-0.224272-0.162777z"/>
        <path id="path9809" d="m31.014034 19.842843c-0.01172 5.93e-4 -0.02258 0.0028-0.03204 0.0062-0.106609 0.03898-0.16071 0.1076-0.16071 0.206185 0 0.179975 0.183765 0.281 0.332789 0.182414 0.111195-0.07336 0.123506-0.255533 0.02377-0.336924-0.04564-0.03725-0.113017-0.06045-0.163811-0.05788z"/>
        <path id="path9811" d="m32.436658 19.843359c-0.02452 0.0015-0.04895 0.0082-0.07338 0.01964-0.119219 0.05503-0.163656 0.178544-0.107485 0.296617 0.07795 0.160488 0.325325 0.148878 0.390666-0.01964 0.03095-0.08139-0.0035-0.204772-0.0677-0.250626-0.04815-0.0331-0.09529-0.04876-0.142107-0.04599z"/>
        <path id="path9815" d="m20.440727 20.552346c-0.03167 3.45e-4 -0.06351 8e-3 -0.09457 0.02325-0.143293 0.07107-0.155825 0.286896-0.0217 0.375164 0.06649 0.04356 0.16749 0.04363 0.235124-1e-3 0.06076-0.03898 0.09405-0.103542 0.09405-0.180347 0-0.09515-0.04602-0.164965-0.129705-0.200501-0.0274-0.01128-0.05526-0.01684-0.0832-0.01654z"/>
        <path id="path9817" d="m21.839581 20.551829c-0.02224 0.0011-0.04438 0.0063-0.06614 0.01602-0.143292 0.06305-0.178777 0.248626-0.06873 0.352943 0.122658 0.116927 0.306009 0.0677 0.357594-0.09508 0.04433-0.138904-0.08681-0.280498-0.222721-0.27388z"/>
        <path id="path9819" d="m23.258071 20.552863c-0.02526 0.0014-0.05067 0.0083-0.077 0.02067-0.176536 0.08139-0.171682 0.320691 0.0083 0.39635 0.105463 0.04356 0.223441-0.0053 0.27388-0.114202 0.05159-0.110049-0.0014-0.237507-0.118337-0.286799-0.02984-0.01218-0.05819-0.0176-0.08681-0.01602z"/>
        <path id="path9821" d="m24.67191 20.55338c-0.0266 9.21e-4 -0.05321 0.0078-0.08061 0.02015-0.127244 0.05732-0.166137 0.20845-0.08475 0.321938 0.06305 0.08712 0.169657 0.113775 0.262511 0.06563 0.169658-0.08598 0.166864-0.309615-0.0062-0.387566-0.03106-0.01462-0.0608-0.0212-0.09095-0.02015z"/>
        <path id="path9823" d="m26.06818 20.55493c-0.01904 3.87e-4 -0.036 0.0031-0.04858 0.0083-0.08941 0.03783-0.139007 0.111039-0.139007 0.206185 0 0.107756 0.07138 0.193932 0.175697 0.213419 0.09056 0.01605 0.197003-0.04269 0.232539-0.128672 0.03783-0.09056 0.0036-0.211959-0.07545-0.263544-0.03461-0.02307-0.09656-0.03665-0.145208-0.03566z"/>
        <path id="path9825" d="m27.501656 20.552346c-0.03125 1.51e-4 -0.06321 0.0075-0.09405 0.02325-0.127243 0.0642-0.155942 0.231864-0.05736 0.338474 0.134122 0.145585 0.364828 0.05363 0.364828-0.144691 0-0.126277-0.1018-0.217576-0.213419-0.217037z"/>
        <path id="path9827" d="m28.898442 20.553896c-0.01773 8.98e-4 -0.03538 0.0041-0.05322 0.0093-0.04242 0.01376-0.107521 0.07547-0.128155 0.122471-0.05846 0.136415 0.05384 0.301784 0.205151 0.301784 0.05732 0 0.135171-0.0446 0.174146-0.100767 0.02866-0.04127 0.03411-0.06114 0.03411-0.117303 0-0.05617-0.0054-0.07552-0.03411-0.116787-0.0475-0.06706-0.12109-0.102589-0.197917-0.0987z"/>
        <path id="path9829" d="m30.319516 20.552863c-0.02526 0.0014-0.05067 0.0083-0.077 0.02067-0.176536 0.08139-0.171683 0.320691 0.0083 0.39635 0.105464 0.04356 0.223441-0.0053 0.27388-0.114202 0.05158-0.110049-0.0014-0.237507-0.118337-0.286799-0.02984-0.01218-0.05819-0.0176-0.08682-0.01602z"/>
        <path id="path9831" d="m31.73749 20.552863c-0.02794 8.57e-4 -0.05638 0.0076-0.08475 0.02067-0.126097 0.05732-0.166253 0.209483-0.08371 0.322971 0.0619 0.08598 0.168623 0.112736 0.261477 0.0646 0.07451-0.03783 0.11674-0.09768 0.122471-0.171046 0.01118-0.137847-0.09442-0.240905-0.215486-0.23719z"/>
        <path id="path9833" d="m33.153913 20.554413c-0.03271-3.08e-4 -0.06371 0.0054-0.08578 0.01447-0.08139 0.03783-0.126088 0.107648-0.126088 0.200501 0 0.122659 0.08593 0.212386 0.205151 0.212386 0.124951 0 0.20672-0.07445 0.217037-0.194817 0.01032-0.123803-0.07371-0.223998-0.196367-0.232022-0.0047-2.88e-4 -0.0093-4.73e-4 -0.01395-5.17e-4z"/>
        <path id="path9837" d="m21.136278 21.26185c-0.02811 0.0016-0.05647 0.0096-0.08371 0.02377-0.04585 0.02407-0.09321 0.07983-0.106968 0.124538-0.0149 0.04815-0.0069 0.125079 0.01602 0.172079 0.10661 0.207488 0.419973 0.113337 0.400485-0.11937-0.01005-0.123321-0.115546-0.20736-0.225822-0.201017z"/>
        <path id="path9839" d="m22.551151 21.264433c-0.02629 9.77e-4 -0.052 0.0065-0.07493 0.01654-0.08139 0.03554-0.126088 0.105468-0.126088 0.199468 0 0.09515 0.0455 0.164964 0.129188 0.2005 0.07337 0.03095 0.172122 0.01501 0.229439-0.03772 0.08483-0.07681 0.08483-0.248751 0-0.325555-0.03941-0.03625-0.09978-0.05537-0.15761-0.05323z"/>
        <path id="path9841" d="m23.969125 21.2634c-0.03036 6.48e-4 -0.06146 0.0082-0.09198 0.02325-0.143292 0.07107-0.156226 0.286492-0.02325 0.373613 0.12839 0.08483 0.294783 0.01593 0.329173-0.13539 0.0326-0.143435-0.08237-0.264286-0.213936-0.261477z"/>
        <path id="path9843" d="m25.365394 21.265467c-0.0259 0.0012-0.04938 0.0056-0.06356 0.01188-0.108902 0.04929-0.159361 0.182257-0.110068 0.288866 0.05388 0.116927 0.179042 0.165205 0.286798 0.109035 0.199463-0.100878 0.143107-0.396659-0.077-0.409269-0.01218-7.19e-4 -0.0244-0.0011-0.03617-5.17e-4z"/>
        <path id="path9845" d="m26.782334 21.265467c-0.02869 8.07e-4 -0.05481 0.0052-0.07028 0.01292-0.07222 0.03324-0.131773 0.126054-0.131773 0.205151 0 0.02063 0.01144 0.06086 0.02635 0.08837 0.08597 0.169659 0.309097 0.167382 0.387049-0.0057 0.02866-0.0619 0.02781-0.117008-0.0031-0.177764-0.04012-0.07795-0.09856-0.117884-0.178797-0.12247-0.0097-5.75e-4 -0.01989-7.86e-4 -0.02946-5.17e-4z"/>
        <path id="path9847" d="m28.204442 21.263917c-0.03246 0.0013-0.06504 0.0089-0.0894 0.0217-0.113488 0.05961-0.155774 0.200456-0.09043 0.305919 0.05159 0.08483 0.161389 0.12707 0.254243 0.09612 0.07795-0.02522 0.146758-0.125894 0.146758-0.211869-0.0011-0.07566-0.07-0.174135-0.141074-0.200501-0.0231-0.0086-0.05146-0.01249-0.0801-0.01137z"/>
        <path id="path9849" d="m29.607429 21.26185c-0.02811 0.0016-0.05647 0.0096-0.08371 0.02377-0.154756 0.08254-0.153326 0.306805 0.0026 0.387049 0.150169 0.0768 0.320708-0.04014 0.306952-0.209802-0.01005-0.123321-0.115546-0.20736-0.225822-0.201017z"/>
        <path id="path9851" d="m31.022302 21.264433c-0.02629 9.77e-4 -0.052 0.0065-0.07493 0.01654-0.05159 0.02293-0.0775 0.0466-0.103868 0.09818-0.04127 0.08024-0.02078 0.206744 0.04341 0.264061 0.05732 0.05273 0.156073 0.06867 0.229439 0.03772 0.05502-0.02293 0.08112-0.047 0.107485-0.09973 0.04127-0.08024 0.02078-0.206228-0.04341-0.263545-0.03941-0.03625-0.1003-0.05537-0.158127-0.05323z"/>
        <path id="path9853" d="m32.443376 21.262883c-0.03134 4.5e-4 -0.06374 0.0082-0.09508 0.02377-0.103171 0.05158-0.145635 0.183176-0.09405 0.290932 0.06763 0.141 0.266291 0.161527 0.359144 0.03772 0.03554-0.047 0.04558-0.0802 0.04444-0.142107-0.0027-0.124485-0.102522-0.211928-0.214453-0.210319z"/>
        <path id="path9857" d="m20.421091 21.976004c-0.03095 9.14e-4 -0.05326 0.0061-0.07131 0.0155-0.08712 0.04815-0.125214 0.115577-0.118336 0.21187 0.0092 0.127242 0.107007 0.214547 0.227372 0.203084 0.11578-0.01146 0.194816-0.09948 0.194816-0.217554 0-0.07337-0.02629-0.127662-0.08475-0.174662-0.03439-0.02866-0.05408-0.03543-0.113686-0.03772-0.01232-5.75e-4 -0.02379-8.22e-4 -0.03411-5.17e-4z"/>
        <path id="path9859" d="m21.850432 21.972386c-0.03667 8.25e-4 -0.07421 0.01154-0.110068 0.03411-0.127243 0.08139-0.13443 0.255796-0.01292 0.355527 0.116926 0.09629 0.299207 0.02947 0.33589-0.122987 0.03493-0.147771-0.08192-0.269589-0.212903-0.266646z"/>
        <path id="path9861" d="m23.260138 21.972386c-0.03036 9.64e-4 -0.06132 0.0089-0.09147 0.02377-0.07107 0.03554-0.11937 0.115784-0.11937 0.199467 0 0.04585 0.03422 0.120346 0.06976 0.152443 0.111195 0.102025 0.28111 0.06625 0.344158-0.07131 0.02751-0.05846 0.02751-0.113099 0-0.171563-0.0404-0.08671-0.119157-0.135468-0.203084-0.132806z"/>
        <path id="path9863" d="m24.666743 21.972386c-0.02652 8.26e-4 -0.05223 0.0067-0.07545 0.01705-0.04929 0.02178-0.105389 0.08944-0.121438 0.146759-0.04471 0.166219 0.1282 0.320618 0.285249 0.255276 0.165071-0.06993 0.187775-0.290982 0.03876-0.384982-0.03726-0.02364-0.08292-0.03548-0.127121-0.03411z"/>
        <path id="path9865" d="m26.081615 21.972903c-0.02933 3.12e-4 -0.05736 0.0064-0.08061 0.0186-0.08368 0.04356-0.120404 0.104322-0.120404 0.199467 0 0.210926 0.271786 0.298264 0.387566 0.124021 0.05732-0.08712 0.04368-0.222716-0.02739-0.285765-0.04213-0.03686-0.103164-0.05692-0.159161-0.05633z"/>
        <path id="path9867" d="m27.482536 21.976004c-0.03095 9.14e-4 -0.05326 0.0061-0.07131 0.0155-0.0791 0.04356-0.120404 0.109988-0.120404 0.194817 0 0.21895 0.274885 0.303706 0.390666 0.121437 0.0619-0.09744 0.04055-0.219004-0.05116-0.293516-0.03439-0.02866-0.05408-0.03543-0.113686-0.03772-0.01232-5.75e-4 -0.02379-8.22e-4 -0.03411-5.17e-4z"/>
        <path id="path9869" d="m28.912911 21.973937c-0.03668 6.81e-4 -0.07336 0.0086-0.100767 0.02325-0.02293 0.01261-0.05659 0.04339-0.07493 0.06976-0.02637 0.04012-0.03049 0.05971-0.03049 0.125055 0 0.06878 3e-3 0.08132 0.03514 0.121437 0.04127 0.05273 0.12056 0.0956 0.17673 0.0956 0.134122-0.0011 0.242754-0.14331 0.207218-0.272846-0.01605-0.05846-0.07307-0.126125-0.123504-0.146759-0.02472-0.01075-0.05704-0.0161-0.0894-0.0155z"/>
        <path id="path9871" d="m30.311248 21.973937c-0.02482 0.0011-0.04852 0.0065-0.06873 0.0155-0.07107 0.0321-0.131772 0.125651-0.131772 0.203601 0 0.047 0.03422 0.121784 0.06976 0.155027 0.111195 0.102025 0.28111 0.06625 0.344159-0.07131 0.0298-0.0642 0.0275-0.119093-0.01033-0.190166-0.02293-0.04471-0.04382-0.06619-0.08165-0.08682-0.03582-0.01863-0.08007-0.02775-0.121437-0.02584z"/>
        <path id="path9873" d="m31.728188 21.972386c-0.02652 8.26e-4 -0.05223 0.0067-0.07545 0.01705-0.01949 8e-3 -0.05182 0.03288-0.07131 0.05581-0.147878 0.169658 0.02992 0.431054 0.235123 0.346225 0.165073-0.06993 0.187776-0.290982 0.03876-0.384982-0.03726-0.02364-0.08292-0.03548-0.127122-0.03411z"/>
        <path id="path9875" d="m33.140477 21.97342c-0.03054 8.52e-4 -0.0599 0.0071-0.08268 0.01912-0.02178 0.01146-0.05492 0.04001-0.07441 0.06408-0.047 0.05846-0.05632 0.164051-0.01964 0.235124 0.05159 0.100877 0.180124 0.143341 0.282148 0.09405 0.142146-0.06878 0.161866-0.276175 0.03462-0.373613-0.03439-0.02651-0.08914-0.04018-0.140041-0.03876z"/>
        <path id="path9879" d="m21.142996 22.685507c-0.02767 0.0011-0.056 0.0076-0.08371 0.02015-0.04929 0.02178-0.09878 0.07794-0.113686 0.126088-0.02522 0.08254 0.0093 0.194954 0.07235 0.240807 0.09056 0.0642 0.194961 0.05747 0.277497-0.01705 0.05273-0.04815 0.07354-0.102104 0.06666-0.177763-0.01187-0.11784-0.110549-0.196515-0.219104-0.192233z"/>
        <path id="path9881" d="m22.542883 22.685507c-0.01952 9.68e-4 -0.03821 0.0045-0.05426 0.01085-0.08712 0.03554-0.13849 0.110005-0.13849 0.205151 0 0.06878 0.0195 0.110094 0.07338 0.157094 0.102024 0.09056 0.246214 0.07215 0.317287-0.04134 0.05502-0.08483 0.04018-0.214335-0.03204-0.27853-0.03955-0.03611-0.107307-0.05613-0.165878-0.05323z"/>
        <path id="path9883" d="m23.966541 22.686024c-0.03059 8.73e-4 -0.0611 0.0077-0.0894 0.0217-0.122658 0.06076-0.156306 0.230878-0.06459 0.331756 0.188 0.207488 0.497684-0.05086 0.329172-0.274397-0.04098-0.05281-0.107885-0.08098-0.175179-0.07906z"/>
        <path id="path9885" d="m25.368495 22.683957c-0.02265 0.0012-0.04538 0.0066-0.06666 0.01602-0.01834 8e-3 -0.05171 0.03196-0.07234 0.05374-0.111195 0.114634-0.0537 0.313225 0.103351 0.354493 0.154756 0.04241 0.303779-0.106722 0.262511-0.261478-0.02701-0.10059-0.128708-0.168133-0.226855-0.162777z"/>
        <path id="path9887" d="m26.781301 22.68344c-0.02419 0.0013-0.04743 0.0073-0.06924 0.0186-0.07795 0.04012-0.131773 0.121516-0.131773 0.199467 0 0.08941 0.071 0.182629 0.158127 0.206702 0.05273 0.01376 0.06613 0.01376 0.118853 0 0.120366-0.03439 0.188074-0.170727 0.141074-0.284215-0.03762-0.08956-0.130643-0.145258-0.217036-0.140557z"/>
        <path id="path9889" d="m28.19514 22.683957c-0.02763 0.0016-0.05466 0.0091-0.0801 0.02274-0.15017 0.0791-0.162587 0.280873-0.02274 0.37258 0.111195 0.07337 0.256578 0.03119 0.311603-0.09147 0.03898-0.08483 0.02493-0.165309-0.03927-0.234089-0.0465-0.04886-0.108705-0.07339-0.169495-0.06976z"/>
        <path id="path9891" d="m29.615697 22.68499c-0.02745 0.0011-0.05554 0.0077-0.08371 0.02067-0.06305 0.02866-0.09741 0.06983-0.115753 0.137456-0.04356 0.170805 0.114313 0.3212 0.275947 0.260444 0.06305-0.02407 0.12869-0.09535 0.139007-0.150375 0.02848-0.150941-0.08324-0.273465-0.215487-0.268196z"/>
        <path id="path9893" d="m31.014034 22.685507c-0.01952 9.68e-4 -0.03769 0.0045-0.05374 0.01085-0.122657 0.04929-0.173182 0.184519-0.114719 0.304885 0.04127 0.08598 0.157078 0.135626 0.246492 0.106968 0.04929-0.01605 0.112236-0.07031 0.137456-0.117303 0.03554-0.06878 0.01052-0.198298-0.04909-0.252176-0.03955-0.03611-0.107824-0.05613-0.166395-0.05323z"/>
        <path id="path9895" d="m32.439759 22.686024c-0.03088 4.84e-4 -0.06223 0.0074-0.09147 0.0217-0.09171 0.04585-0.139695 0.16525-0.106451 0.266128 0.0172 0.05273 0.08962 0.117049 0.150375 0.13539 0.05617 0.0172 0.13049 0.0023 0.185515-0.03669 0.06305-0.04585 0.09757-0.158271 0.07235-0.240807-0.02751-0.09027-0.117679-0.147176-0.210318-0.145725z"/>
        <path id="path9899" d="m20.422124 23.395011c-0.02642 0.0014-0.05121 0.0077-0.07235 0.01912-0.08712 0.04585-0.125214 0.113396-0.118336 0.210835 0.0057 0.08598 0.04611 0.148024 0.118336 0.182414 0.102024 0.04929 0.230159 0.0066 0.280598-0.09198 0.04241-0.08254 0.02286-0.208407-0.04134-0.264578-0.04414-0.03862-0.108793-0.05888-0.166912-0.05581z"/>
        <path id="path9901" d="m21.8525 23.393977c-0.03174 7.39e-4 -0.0642 9e-3 -0.09612 0.0248-0.124951 0.0619-0.156012 0.230136-0.06201 0.333307 0.07107 0.0791 0.157255 0.09874 0.250109 0.05633 0.130683-0.05961 0.16605-0.232672 0.06976-0.341575-0.04363-0.0489-0.101157-0.07427-0.161744-0.07286z"/>
        <path id="path9903" d="m23.261688 23.395527c-0.03009 7.13e-4 -0.05998 0.0058-0.08061 0.01499-0.07337 0.03324-0.130626 0.121808-0.131772 0.202051 0 0.05617 0.04234 0.134945 0.09508 0.176213 0.04012 0.0321 0.05306 0.03566 0.122987 0.03566 0.06993 0 0.08235-0.0035 0.122471-0.03566 0.05273-0.04127 0.09508-0.120042 0.09508-0.176213-0.0011-0.08024-0.0677-0.177639-0.141074-0.205151-0.02178-0.0086-0.05207-0.0126-0.08216-0.01189z"/>
        <path id="path9905" d="m24.671393 23.39346c-0.02701 2.04e-4 -0.05402 0.0056-0.0801 0.01705-0.06763 0.02866-0.131773 0.128573-0.131773 0.203085 0 0.03439 0.03409 0.1181 0.06046 0.146758 0.03439 0.03668 0.10798 0.06976 0.160711 0.06976 0.123805 0 0.225738-0.119136 0.210836-0.247526-0.01187-0.110532-0.114165-0.189929-0.220138-0.189132z"/>
        <path id="path9907" d="m26.075931 23.396044c-0.02959 0.0015-0.05796 0.0088-0.08268 0.0217-0.06993 0.03668-0.105484 0.09357-0.110069 0.177247-0.0034 0.05503-3.7e-4 0.08062 0.01912 0.117303 0.100878 0.199462 0.402551 0.124724 0.402551-0.09767 0-0.05273-0.02383-0.120119-0.05478-0.154509-0.03941-0.04413-0.109038-0.06742-0.174146-0.06408z"/>
        <path id="path9909" d="m27.483053 23.394494c-0.02553 0.0015-0.05021 0.0081-0.07183 0.01964-0.0791 0.04127-0.120404 0.108953-0.120404 0.193782 0 0.229268 0.299381 0.307286 0.402552 0.104385 0.03439-0.06763 0.02702-0.173156-0.01654-0.230473-0.04546-0.05893-0.123198-0.09156-0.193783-0.08733z"/>
        <path id="path9911" d="m28.910844 23.395527c-0.03238 0.0014-0.06493 0.0095-0.09302 0.02325-0.08597 0.04241-0.132141 0.142288-0.112653 0.245459 0.0092 0.04929 0.07812 0.129111 0.129706 0.150892 0.07566 0.03095 0.18349 0.0072 0.240807-0.05478 0.02637-0.02866 0.06046-0.112368 0.06046-0.146758 0-0.07566-0.06506-0.174427-0.133839-0.203085-0.02694-0.01147-0.05908-0.01642-0.09147-0.01499z"/>
        <path id="path9913" d="m30.310215 23.396561c-0.02568 7.36e-4 -0.04957 0.0053-0.0677 0.01395-0.04585 0.02063-0.09139 0.07129-0.113169 0.124021-0.07336 0.174244 0.121499 0.359855 0.288865 0.27388 0.07681-0.04012 0.128155-0.119223 0.128155-0.199467 0-0.05502-0.05056-0.146699-0.0987-0.178797-0.0331-0.02257-0.08844-0.035-0.137456-0.03359z"/>
        <path id="path9915" d="m31.725604 23.395527c-0.02651 7.69e-4 -0.05191 0.0057-0.07286 0.01499-0.04815 0.02063-0.105502 0.08966-0.120404 0.144691-0.05732 0.212073 0.205018 0.366738 0.358628 0.210836 0.104317-0.104317 0.07671-0.28421-0.05168-0.347259-0.03403-0.01633-0.07494-0.02438-0.113686-0.02325z"/>
        <path id="path9917" d="m33.137893 23.395527c-0.02924 0.0012-0.05749 0.0078-0.08113 0.02067-0.02178 0.01146-0.05504 0.04011-0.07338 0.06304-0.06763 0.08254-0.05009 0.237476 0.03359 0.302818 0.10661 0.08368 0.268238 0.04934 0.325555-0.06873 0.03898-0.08254 0.02631-0.19016-0.03101-0.253209-0.03941-0.04335-0.109301-0.06734-0.17363-0.06459z"/>
        <path id="path9921" d="m21.132144 24.106064c-0.02575 8.98e-4 -0.05055 0.0062-0.07183 0.0155-0.190292 0.08483-0.147544 0.381711 0.05994 0.414954 0.08712 0.01376 0.193498-0.04717 0.227888-0.129706 0.03095-0.07222 0.01283-0.179985-0.03876-0.236156-0.03873-0.04284-0.111448-0.06689-0.177247-0.0646z"/>
        <path id="path9923" d="m22.543917 24.106581c-0.02822 0.0015-0.05475 0.0073-0.07338 0.01705-0.0791 0.04127-0.120403 0.10994-0.120403 0.200501 0 0.113486 0.07771 0.199777 0.191199 0.212386 0.08024 0.0092 0.169905-0.03899 0.207735-0.110069 0.03898-0.07451 0.03213-0.176434-0.01602-0.23719-0.01949-0.02407-0.05263-0.05272-0.07441-0.06304-0.02859-0.01497-0.07348-0.02187-0.114719-0.01964z"/>
        <path id="path9925" d="m23.96499 24.106064c-0.03267 0.0011-0.06469 0.0073-0.08475 0.01757-0.05158 0.02637-0.07526 0.05187-0.09818 0.102317-0.04241 0.09171-0.02325 0.190048 0.05012 0.254243 0.144439 0.126097 0.355527 0.0298 0.355527-0.162777 0-0.08827-0.05485-0.170808-0.132806-0.199467-0.0235-0.0092-0.05724-0.01303-0.08992-0.01189z"/>
        <path id="path9927" d="m25.389165 24.106064c-0.03911 6.81e-4 -0.07999 0.0086-0.108002 0.02325-0.116927 0.0619-0.144595 0.22836-0.05633 0.333823 0.113488 0.135268 0.323513 0.08134 0.370513-0.09405 0.02407-0.09171-0.02852-0.201671-0.116787-0.247525-0.02149-0.01075-0.05489-0.0161-0.0894-0.0155z"/>
        <path id="path9929" d="m26.793703 24.103997c-0.03701 5.74e-4 -0.07506 0.01134-0.111619 0.03462-0.03897 0.02407-0.05865 0.04687-0.077 0.09043-0.01376 0.0321-0.0248 0.06985-0.0248 0.08475 0 0.155902 0.156876 0.267119 0.295584 0.209802 0.05617-0.02407 0.0926-0.05918 0.11782-0.114203 0.07125-0.15438-0.05478-0.307653-0.199984-0.305402z"/>
        <path id="path9931" d="m28.192556 24.105548c-0.03189 0.0014-0.0616 0.0086-0.08216 0.0217-0.08942 0.05388-0.132995 0.15128-0.110068 0.241841 0.04356 0.165073 0.224779 0.223331 0.350876 0.112136 0.110049-0.09629 0.08922-0.287601-0.04031-0.352943-0.03288-0.01676-0.07734-0.02452-0.118337-0.02274z"/>
        <path id="path9933" d="m29.599678 24.105548c-0.02225 9.32e-4 -0.04338 0.0049-0.06201 0.0124-0.116927 0.047-0.165076 0.199261-0.09973 0.311602 0.07222 0.121512 0.218945 0.144641 0.325555 0.05064 0.04929-0.04356 0.07234-0.09404 0.07234-0.157093 0-0.05158-0.02434-0.119198-0.05529-0.152442-0.03869-0.04299-0.114125-0.06791-0.180864-0.06511z"/>
        <path id="path9935" d="m31.021268 24.105548c-0.02992 0.0019-0.06517 0.01067-0.08423 0.02067-0.02178 0.01032-0.05492 0.03897-0.07441 0.06304-0.02866 0.03554-0.03532 0.05603-0.03876 0.116786-0.0046 0.0642-9.99e-4 0.08034 0.02532 0.125055 0.04127 0.06993 0.09856 0.103238 0.178797 0.104384 0.08139 0 0.141888-0.02979 0.180864-0.0894 0.02637-0.04012 0.031-0.05863 0.031-0.129706 0-0.07566-0.0035-0.087-0.03566-0.127121-0.04585-0.05732-0.09945-0.08371-0.170528-0.08371-4e-3 0-0.0081-2.74e-4 -0.0124 0z"/>
        <path id="path9937" d="m32.436141 24.106064c-0.03267 0.0011-0.06417 0.0073-0.08423 0.01757-0.05159 0.02637-0.07577 0.05187-0.0987 0.102317-0.04241 0.09171-0.02273 0.190048 0.05064 0.254243 0.0791 0.06878 0.176536 0.07685 0.262511 0.02067 0.07795-0.05159 0.111159-0.163006 0.07906-0.260445-0.0149-0.04585-0.07352-0.105275-0.119371-0.12247-0.0235-0.0092-0.05724-0.01303-0.08991-0.01189z"/>
        <path id="path9941" d="m20.430392 24.817118c-0.0254 0.0011-0.05087 0.0072-0.07493 0.01757-0.0791 0.03439-0.126088 0.106144-0.126088 0.193266 0 0.06878 0.02191 0.118069 0.07234 0.162777 0.104317 0.09171 0.261425 0.06468 0.330206-0.05684 0.03554-0.0642 0.02702-0.172008-0.01654-0.230472-0.04462-0.05809-0.114783-0.08943-0.184998-0.0863z"/>
        <path id="path9943" d="m21.858184 24.816601c-0.03489-4.34e-4 -0.07021 0.0077-0.101801 0.02377-0.132975 0.06649-0.154826 0.254358-0.04134 0.352943 0.139853 0.123805 0.351796 0.02378 0.352943-0.165361 0-0.06878-0.02647-0.120203-0.08836-0.169496-0.03288-0.02708-0.07658-0.0413-0.121437-0.04186z"/>
        <path id="path9945" d="m23.259104 24.817118c-0.02895 7.2e-4 -0.05707 0.0058-0.07803 0.01499-0.04471 0.02063-0.09139 0.07129-0.113169 0.124021-0.06305 0.15017 0.07183 0.317411 0.234607 0.289899 0.05388-0.0092 0.129515-0.06215 0.152442-0.108002 0.02637-0.05044 0.03465-0.118764 0.0186-0.166911-0.01834-0.05388-0.07599-0.119519-0.122987-0.139007-0.02497-0.01096-0.05865-0.0158-0.09147-0.01499z"/>
        <path id="path9947" d="m24.668293 24.816601c-0.02846 4.77e-4 -0.05611 0.0069-0.08061 0.01912-0.02063 0.0092-0.05132 0.03518-0.0708 0.05581-0.136415 0.155902 0.01602 0.403834 0.215486 0.348809 0.142146-0.03783 0.205928-0.208582 0.124538-0.33124-0.03873-0.0585-0.115895-0.09372-0.188615-0.0925z"/>
        <path id="path9949" d="m26.0873 24.817635c-0.0337 1.6e-4 -0.06654 7e-3 -0.09405 0.02119-0.06993 0.03783-0.105484 0.09397-0.110069 0.178797-0.0046 0.0619-0.0014 0.08068 0.02377 0.121954 0.0298 0.05159 0.08979 0.09269 0.153992 0.106451 0.08024 0.01605 0.194646-0.04728 0.227889-0.128672 0.03324-0.07795 0.01052-0.192097-0.04909-0.245975-0.03797-0.03511-0.09628-0.05401-0.152442-0.05374z"/>
        <path id="path9951" d="m27.498555 24.815568c-0.02402-7.9e-5 -0.04763 0.0041-0.06924 0.01292-0.08483 0.03439-0.13849 0.111199-0.13849 0.199467 0 0.06878 0.02191 0.118069 0.07235 0.162777 0.108902 0.09515 0.267853 0.06443 0.33434-0.06511 0.0298-0.05846 0.01945-0.168326-0.02067-0.222204-0.04209-0.05472-0.111876-0.08763-0.178281-0.08785z"/>
        <path id="path9953" d="m28.913945 24.815568c-0.03174 7.38e-4 -0.0642 9e-3 -0.09612 0.0248-0.132975 0.06534-0.154826 0.254358-0.04134 0.352943 0.122659 0.108903 0.307024 0.04807 0.348293-0.114719 0.0172-0.06878 1.98e-4 -0.132849-0.04909-0.190166-0.04363-0.0489-0.101157-0.07427-0.161744-0.07286z"/>
        <path id="path9955" d="m30.314865 24.817635c-0.02691 0.0011-0.05279 0.0059-0.07235 0.01447-0.0791 0.03439-0.139618 0.142139-0.128155 0.225822 0.02063 0.154755 0.200379 0.240889 0.327622 0.156059 0.116927-0.07795 0.135115-0.220092 0.04341-0.325555-0.02063-0.02293-0.05274-0.04831-0.07338-0.05633-0.02644-0.01096-0.06255-0.01584-0.09715-0.01447z"/>
        <path id="path9957" d="m31.719403 24.816601c-0.02332 0.0013-0.04597 0.0064-0.06666 0.0155-0.04929 0.02063-0.105502 0.08956-0.120404 0.145725-0.04241 0.154755 0.106722 0.304926 0.261478 0.262511 0.142146-0.03783 0.205928-0.208582 0.124538-0.33124-0.04037-0.06056-0.122785-0.09658-0.198951-0.0925z"/>
        <path id="path9959" d="m33.148745 24.817635c-0.0337 1.6e-4 -0.06654 7e-3 -0.09405 0.02119-0.07107 0.03783-0.105483 0.09415-0.110069 0.182414-0.0034 0.06649-1.22e-4 0.08161 0.02739 0.124021 0.03324 0.04929 0.08962 0.08701 0.150376 0.100767 0.08024 0.01605 0.194644-0.04728 0.227888-0.128672 0.03324-0.07795 0.01052-0.192097-0.04909-0.245975-0.03798-0.03511-0.09628-0.05401-0.152443-0.05374z"/>
        <path id="path9963" d="m21.133178 25.529722c-0.03047 8.07e-4 -0.05739 0.0052-0.07286 0.01292-0.07681 0.03554-0.122584 0.111265-0.121437 0.204118 0 0.06076 0.01265 0.09201 0.05736 0.139007 0.04356 0.047 0.08617 0.06655 0.150375 0.06769 0.160488 0.0011 0.262225-0.156087 0.196884-0.302817-0.03324-0.07681-0.09168-0.115818-0.178797-0.120404-0.0106-5.75e-4 -0.02137-7.86e-4 -0.03152-5.17e-4z"/>
        <path id="path9965" d="m22.562003 25.526622c-0.03439 0-0.07308 0.0096-0.09715 0.02222-0.06534 0.03439-0.10692 0.09481-0.112652 0.165878-0.0023 0.03324 0.0014 0.07899 0.0083 0.100767 0.03783 0.114634 0.195869 0.173182 0.305918 0.11472 0.04127-0.02178 0.09533-0.09143 0.103351-0.13384 0.02751-0.149024-0.06559-0.269745-0.207735-0.269745z"/>
        <path id="path9967" d="m23.96499 25.527655c-0.03267 0.0011-0.06469 0.0073-0.08475 0.01757-0.159341 0.08254-0.160422 0.308129-1e-3 0.390666 0.04241 0.02178 0.142068 0.02293 0.184482 0 0.07795-0.04012 0.124021-0.113201 0.124021-0.196884 0-0.08827-0.05485-0.170809-0.132806-0.199467-0.0235-0.0092-0.05724-0.01303-0.08992-0.01188z"/>
        <path id="path9969" d="m25.370562 25.526622c-0.0307 0.0015-0.06135 0.0095-0.0894 0.02429-0.129537 0.06878-0.146493 0.26818-0.02842 0.357594 0.189146 0.144439 0.435585-0.0754 0.31522-0.280598-0.03955-0.06756-0.118934-0.10519-0.1974-0.101283z"/>
        <path id="path9971" d="m26.781301 25.525588c-0.0312 0.0018-0.06166 0.01071-0.08888 0.02739-0.113488 0.06878-0.143357 0.208724-0.0677 0.314187 0.08598 0.119219 0.271553 0.113472 0.352943-0.01034 0.02637-0.03897 0.03204-0.06051 0.03204-0.11782 0-0.05846-0.0056-0.07896-0.03204-0.116786-0.04513-0.06528-0.122484-0.100982-0.196366-0.09663z"/>
        <path id="path9973" d="m28.211159 25.526622c-0.0298 0.0011-0.06992 8e-3 -0.0894 0.01602-0.06878 0.03095-0.113366 0.09293-0.127122 0.177763-0.01146 0.06878 0.0379 0.162963 0.104385 0.203085 0.115781 0.06763 0.26357 0.01827 0.310569-0.104385 0.05388-0.143292-0.04827-0.293628-0.198434-0.292482z"/>
        <path id="path9975" d="m29.606912 25.529722c-0.02929 6.47e-4 -0.05722 0.0046-0.06925 0.0098-0.03783 0.0149-0.08932 0.06518-0.111102 0.106452-0.02063 0.04012-0.02315 0.142001-0.0036 0.17983 0.04127 0.08024 0.112279 0.126491 0.194816 0.127638 0.160487 0.0011 0.262742-0.156087 0.1974-0.302817-0.03439-0.07795-0.09168-0.116965-0.178797-0.120404-0.0095-5.75e-4 -0.01969-7.33e-4 -0.02945-5.17e-4z"/>
        <path id="path9977" d="m31.026953 25.527138c-0.03355 8.4e-4 -0.06677 0.0083-0.09095 0.0217-0.120366 0.0642-0.153264 0.228925-0.06614 0.328656 0.04815 0.05503 0.09171 0.07596 0.162778 0.07596 0.223537 0.0023 0.296495-0.299155 0.09818-0.404618-0.02741-0.01523-0.06585-0.02266-0.103867-0.0217z"/>
        <path id="path9979" d="m32.436141 25.527655c-0.03267 0.0011-0.06417 0.0073-0.08423 0.01757-0.138707 0.07222-0.161658 0.252017-0.04702 0.358627 0.02866 0.02637 0.131648 0.06188 0.15916 0.05271 8e-3 -0.0023 0.02776-0.0069 0.04496-0.01034 0.03898-0.0092 0.107811-0.06742 0.130738-0.112136 0.02293-0.04356 0.02286-0.146717 1e-3 -0.189132-0.02293-0.04241-0.0746-0.09051-0.11472-0.105418-0.0235-0.0092-0.05724-0.01303-0.08991-0.01188z"/>
        <path id="path9983" d="m20.531159 26.253695c0.03717 0.07843 0.07736 0.154789 0.119887 0.229955 0.0079-0.06217-0.0074-0.128559-0.04547-0.172596-0.02165-0.02453-0.04755-0.04385-0.07441-0.05736z"/>
        <path id="path9985" d="m21.850949 26.234058c-0.0145 3.76e-4 -0.02952 0.0023-0.04444 0.0057-0.131828 0.02866-0.202524 0.176834-0.145208 0.301785 0.09629 0.212072 0.406686 0.141873 0.406686-0.09198 0-0.125578-0.09899-0.218544-0.217037-0.215486z"/>
        <path id="path9987" d="m23.265305 26.232508c-0.01288 3.34e-4 -0.02602 0.0021-0.03927 0.0052-0.105463 0.02407-0.171046 0.104114-0.171046 0.211869 0 0.08368 0.0262 0.134156 0.09612 0.183448 0.04012 0.02866 0.05958 0.03462 0.115753 0.03462 0.05617 0 0.07615-0.0059 0.116269-0.03462 0.02637-0.01949 0.06044-0.05712 0.07648-0.08578 0.07609-0.142666-0.04236-0.318643-0.1943-0.314703z"/>
        <path id="path9989" d="m24.679661 26.232508c-0.0147-1.3e-4 -0.02959 0.0018-0.04392 0.0052-0.181121 0.04127-0.231701 0.281877-0.08268 0.389633 0.179975 0.130682 0.412723-0.06673 0.319871-0.270779-0.03385-0.07351-0.11389-0.123323-0.193267-0.124021z"/>
        <path id="path9991" d="m26.0873 26.231991c-6e-3 2.31e-4 -0.01198 9.93e-4 -0.01757 0.0021-0.01261 0.0023-0.0343 0.0069-0.04806 0.01033-0.03783 0.0069-0.10786 0.07219-0.125055 0.115753-0.047 0.110049 2.94e-4 0.237619 0.102318 0.285765 0.03324 0.0149 0.07007 0.02739 0.08268 0.02739 0.08368 0 0.187684-0.07121 0.212903-0.145725 0.02178-0.06649 0.0079-0.157296-0.03101-0.207735-0.04364-0.05402-0.118224-0.09008-0.176213-0.08785z"/>
        <path id="path9993" d="m27.504756 26.232508c-0.01483 0.0011-0.03635 0.0053-0.05684 0.01085-0.0298 8e-3 -0.06766 0.02644-0.08371 0.04134-0.06763 0.06305-0.09289 0.171707-0.05736 0.254243 0.02866 0.07107 0.126974 0.134356 0.207218 0.134356 0.01261 0 0.04943-0.01249 0.08268-0.02739 0.0791-0.03668 0.118336-0.102479 0.118336-0.195333 0-0.07681-0.0171-0.115552-0.07441-0.164845-0.03554-0.0321-0.05392-0.0401-0.120404-0.05271-0.0032-7.18e-4 -0.0088-1e-3 -0.0155-5.16e-4z"/>
        <path id="path9995" d="m28.918079 26.234058c-0.01634-9.9e-5 -0.03336 0.0018-0.05012 0.0057-0.170804 0.03783-0.223114 0.264664-0.08785 0.379298 0.141 0.118073 0.348179 0.01736 0.349325-0.169496 9.63e-4 -0.121368-0.09695-0.214796-0.211352-0.215486z"/>
        <path id="path9997" d="m30.323134 26.234058c-0.01601 1.57e-4 -0.03259 2e-3 -0.04961 0.0057-0.06419 0.01376-0.134214 0.0813-0.151409 0.147792-0.05961 0.21895 0.199513 0.376265 0.356561 0.21807 0.144779-0.143722 0.03339-0.373394-0.155543-0.371546z"/>
        <path id="path9999" d="m31.73749 26.232508c-0.01314 1.88e-4 -0.02654 0.0021-0.03927 0.0052-0.05044 0.01146-0.07885 0.02867-0.11782 0.07338-0.138706 0.158195 0.01281 0.405788 0.21342 0.35191 0.129537-0.03554 0.196728-0.181484 0.140557-0.306435-0.0335-0.07487-0.116602-0.125173-0.196883-0.124021z"/>
        <path id="path10001" d="m33.068648 26.249561c-0.04164 0.02-0.09493 0.07144-0.110585 0.110585-0.01627 0.03797-0.02003 0.08417-0.01344 0.127121 0.04402-0.07759 0.08572-0.156624 0.124021-0.237706z"/>
        <path id="path10005" d="m21.139379 26.942011c-0.01526 2.9e-4 -0.02973 0.0023-0.04134 0.0062-0.03611 0.01118-0.06701 0.02987-0.09198 0.05323 0.09131 0.11078 0.189769 0.215141 0.293517 0.314186 8.87e-4 -9.4e-4 0.0017-0.0016 0.0026-0.0026 0.04815-0.05158 0.06452-0.09997 0.05994-0.171046-0.0057-0.07336-0.04381-0.135284-0.108002-0.173113-0.02966-0.0173-0.07573-0.02761-0.114719-0.02687z"/>
        <path id="path10007" d="m22.552701 26.938394c-0.01589 0.0012-0.0326 0.0064-0.05839 0.0155-0.08827 0.03095-0.144174 0.110006-0.144174 0.205152 0 0.126098 0.08807 0.217037 0.211869 0.217037 0.08827 0 0.170809-0.05538 0.199467-0.133323 0.01719-0.04471 0.01635-0.126855-0.0031-0.171562-0.01949-0.04929-0.08719-0.107051-0.141074-0.121954-0.02923-0.0085-0.04659-0.01221-0.0646-0.01085z"/>
        <path id="path10009" d="m23.96189 26.940978c-0.01907 1e-3 -0.03834 5e-3 -0.05736 0.01188-0.198317 0.07337-0.190499 0.356491 0.0124 0.414954 0.137561 0.04012 0.2686-0.05945 0.269746-0.206185 9.45e-4 -0.128068-0.10825-0.226786-0.224788-0.220654z"/>
        <path id="path10011" d="m25.381414 26.937877c-0.01935 4.25e-4 -0.03812 0.0057-0.06563 0.01602-0.123805 0.04356-0.180126 0.185779-0.11937 0.303852 0.094 0.186853 0.35899 0.14455 0.402551-0.06408 0.02063-0.09515-0.05305-0.214215-0.149342-0.242874-0.02923-0.0086-0.04887-0.01334-0.06821-0.01292z"/>
        <path id="path10013" d="m26.784401 26.940978c-0.01785 4.31e-4 -0.03603 0.0031-0.05323 0.0083-0.05388 0.01605-0.12462 0.09203-0.139523 0.149342-0.03898 0.142147 0.06278 0.277384 0.207218 0.27853 0.06878 0 0.134316-0.03547 0.17673-0.09508 0.04585-0.06534 0.04911-0.166455 0.0067-0.234089-0.04191-0.06799-0.120577-0.108837-0.197917-0.106968z"/>
        <path id="path10015" d="m28.209092 26.939944c-0.02271 2.05e-4 -0.04628 0.0044-0.07028 0.01188-0.08941 0.02866-0.161483 0.150134-0.143141 0.241841 0.02637 0.124951 0.147991 0.208715 0.261477 0.177764 0.174244-0.04585 0.225818-0.265067 0.0894-0.380848-0.04098-0.03389-0.0875-0.05109-0.137457-0.05064z"/>
        <path id="path10017" d="m29.627066 26.939944c-0.03198-3.1e-5 -0.06521 0.0084-0.0987 0.02532-0.155902 0.0791-0.161736 0.299524-0.0093 0.385499 0.08254 0.047 0.194004 0.02991 0.25476-0.03772 0.04815-0.05158 0.06401-0.09997 0.05943-0.171046-0.0034-0.05388-0.0128-0.07568-0.04031-0.110069-0.04815-0.06093-0.10482-0.09192-0.165878-0.09198z"/>
        <path id="path10019" d="m31.024369 26.938394c-0.01589 0.0012-0.0326 0.0064-0.05839 0.0155-0.08941 0.0321-0.144691 0.110409-0.144691 0.206702 0 0.06878 0.02191 0.118071 0.07235 0.162778 0.06878 0.06076 0.156946 0.07176 0.23719 0.03049 0.03898-0.01949 0.08856-0.07213 0.102318-0.111102 0.0172-0.04471 0.01583-0.126855-0.0036-0.171562-0.01949-0.04929-0.08719-0.107051-0.141074-0.121954-0.02923-0.0085-0.04607-0.01221-0.06408-0.01085z"/>
        <path id="path10021" d="m32.428907 26.942528c-0.0179 8.74e-4 -0.03534 0.0043-0.05168 0.01034-0.162477 0.06011-0.18654 0.26099-0.07958 0.363795 0.103966-0.09917 0.202543-0.203752 0.294033-0.314703-0.0434-0.03922-0.10519-0.06224-0.162777-0.05943z"/>
        <path id="path10027" d="m21.85405 27.659266c-0.03625 4.31e-4 -0.07279 0.0066-0.09457 0.01809-3e-3 0.0015-6e-3 0.0031-0.0088 0.0047 0.104234 0.07144 0.21221 0.138067 0.324005 0.198434 2.63e-4 -0.0032 0-0.0063 0-0.0093 0-0.0642-0.06408-0.162606-0.127122-0.19585-0.02121-0.01089-0.05728-0.01645-0.09353-0.01602z"/>
        <path id="path10029" d="m23.258588 27.658232c-0.03373 6.16e-4 -0.06773 0.0087-0.09818 0.0248-0.02293 0.01261-0.05607 0.04339-0.07441 0.06976-0.04241 0.0642-0.04361 0.166278-0.0047 0.230473 0.08598 0.136414 0.30627 0.130668 0.376197-0.01033 0.03324-0.06763 0.02865-0.161561-0.01034-0.221171-0.04019-0.06069-0.114422-0.09489-0.188615-0.09353z"/>
        <path id="path10031" d="m24.649173 27.660816c-0.03407 0.0011-0.0519 0.0077-0.08113 0.02584-0.0791 0.04815-0.120076 0.150181-0.09715 0.236157 0.0149 0.05502 0.0768 0.128191 0.126088 0.148825 0.05732 0.02407 0.162577 0.01044 0.211869-0.02739 0.112342-0.08598 0.112342-0.26025 0-0.346226-0.03554-0.02637-0.05632-0.03325-0.11937-0.03669-0.01605-5.75e-4 -0.02895-8.89e-4 -0.04031-5.17e-4z"/>
        <path id="path10033" d="m26.080065 27.659783c-0.02783 4.19e-4 -0.05475 0.0044-0.07338 0.01188-0.03668 0.0149-0.08944 0.06426-0.110069 0.104384-0.02063 0.03898-0.02063 0.136336 0 0.184482 0.04929 0.119218 0.223644 0.162636 0.324522 0.0801 0.0642-0.05158 0.08624-0.09976 0.08165-0.183447-0.0034-0.05846-0.01061-0.07919-0.03927-0.11472-0.01949-0.02407-0.05263-0.05272-0.07441-0.06304-0.02519-0.01361-0.06836-0.02025-0.109035-0.01964z"/>
        <path id="path10035" d="m27.497005 27.658232c-0.03178 3.03e-4 -0.06324 7e-3 -0.09043 0.02119-0.139854 0.07107-0.156073 0.268536-0.02997 0.364829 0.07337 0.05617 0.195168 0.05148 0.265095-0.0093 0.05388-0.04815 0.07338-0.08832 0.07338-0.157093 0-0.06993-0.01517-0.110949-0.05529-0.15451-0.03987-0.04213-0.102111-0.06569-0.162778-0.06511z"/>
        <path id="path10037" d="m28.908261 27.658749c-0.03274 2.8e-4 -0.06426 0.0066-0.08733 0.0186-0.05159 0.02637-0.07525 0.05136-0.09818 0.101801-0.03554 0.07681-0.02195 0.177984 0.03307 0.23874 0.05388 0.05961 0.168541 0.08234 0.246492 0.04909 0.08139-0.03324 0.144204-0.147645 0.128155-0.227889-0.01376-0.06305-0.05509-0.123784-0.104384-0.152442-0.0316-0.0187-0.07573-0.02827-0.11782-0.02791z"/>
        <path id="path10039" d="m30.312798 27.659783c-0.03282 0.0016-0.06484 0.0092-0.08992 0.02222-0.07451 0.04012-0.121241 0.135196-0.107485 0.221171 0.03095 0.192585 0.28664 0.24741 0.39325 0.08578 0.04585-0.06763 0.04585-0.168522 0-0.236157-0.01719-0.02637-0.05177-0.05818-0.077-0.07079-0.03288-0.01676-0.07665-0.02432-0.118854-0.02222z"/>
        <path id="path10041" d="m31.721987 27.658749c-0.03167 0.0011-0.06041 0.0078-0.08061 0.02067-0.06534 0.04127-0.120403 0.128667-0.120403 0.191716 0 0.0033 1.76e-4 0.0068 5.16e-4 0.01034 0.112071-0.06042 0.22004-0.126892 0.324522-0.198433-0.03523-0.01727-0.08196-0.02579-0.124021-0.02429z"/>
    </g>
    <g>
        <g stroke-width=".264578">
            <path id="rect15658" d="m4.762407 3.968672c-0.439729 0-0.793735 0.354006-0.793735 0.793734v7.408187c0 0.439729 0.354006 0.793735 0.793735 0.793735h7.408187c0.439728 0 0.793734-0.354006 0.793734-0.793735v-7.408187c0-0.439728-0.354006-0.793734-0.793734-0.793734h-6.349875z" filter="url(#filter15676)" opacity=".2"/>
            <rect id="rect436" x="3.9686718" y="3.9686723" width="8.995656" height="8.995656" rx=".79373437" ry=".79373437" fill="#e2e5ec"/>
            <path id="path438" d="m8.995655 11.112281c-0.146576 0-0.264578 0.0885-0.264578 0.198433v0.595301h0.264578v-0.529156h0.264578v0.529156h0.264578v-0.529156h0.264578v0.529156h0.264579v-0.595301c0-0.109932-0.118002-0.198433-0.264579-0.198433zm2.116625 0c-0.146576 0-0.264578 0.0885-0.264578 0.198433v0.396868c0 0.109932 0.118002 0.198433 0.264578 0.198433h0.793734c0.146577 0 0.264579-0.0885 0.264579-0.198433v-0.396868c0-0.109932-0.118002-0.198433-0.264579-0.198433zm-0.661445 0.264578c-0.07329 0-0.132289 0.059-0.132289 0.132289 0 0.07329 0.059 0.132289 0.132289 0.132289 0.07329 0 0.132289-0.059 0.132289-0.132289 0-0.07329-0.059-0.132289-0.132289-0.132289zm0.661445 0h0.793734v0.264578h-0.793734z" fill="#adb2b8"/>
            <path id="path440" d="m5.820718 3.968672v1.32289c0 0.439729 0.354005 0.793735 0.793734 0.793735h3.704094c0.439729 0 0.793734-0.354006 0.793734-0.793735v-1.32289z" fill="#040300"/>
        </g>
        <path id="path442" d="m6.87903 4.7888642v0.4762406h1.0583131v-0.4762406zm2.1166252 0v0.4762406h1.0583128v-0.4762406z" fill="#f7e200" stroke-width=".354968"/>
        <path id="path14755" d="m8.995655 11.112281c-0.146576 0-0.264578 0.0885-0.264578 0.198433v0.595301h0.264578v-0.529156h0.264578v0.529156h0.264578v-0.529156h0.264578v0.529156h0.264579v-0.595301c0-0.109932-0.118002-0.198433-0.264579-0.198433zm2.116625 0c-0.146576 0-0.264578 0.0885-0.264578 0.198433v0.396868c0 0.109932 0.118002 0.198433 0.264578 0.198433h0.793734c0.146577 0 0.264579-0.0885 0.264579-0.198433v-0.396868c0-0.109932-0.118002-0.198433-0.264579-0.198433zm-0.661445 0.264578c-0.07329 0-0.132289 0.059-0.132289 0.132289 0 0.07329 0.059 0.132289 0.132289 0.132289 0.07329 0 0.132289-0.059 0.132289-0.132289 0-0.07329-0.059-0.132289-0.132289-0.132289zm0.661445 0h0.793734v0.264578h-0.793734z" fill="#bbbfc3" filter="url(#filter15286)" stroke-width=".264578"/>
        <rect id="rect8458" x="1.8520465" y="1.8520465" width="13.228907" height="13.228907" ry="3.6078835" fill="url(#linearGradient10660)" filter="url(#filter8893)" stroke-linecap="round" stroke-width=".660089"/>
    </g>
</svg>
