<svg id="svg290" version="1.1" viewBox="0 0 64 64" xmlns="http://www.w3.org/2000/svg">
  <defs id="defs278">
    <style id="style266" type="text/css"/>
    <style id="style268" type="text/css"/>
    <filter id="filter1057" x="-.026999999" y="-.026999999" width="1.054" height="1.054" color-interpolation-filters="sRGB">
      <feGaussianBlur id="feGaussianBlur270" stdDeviation="0.61875"/>
    </filter>
    <radialGradient id="radialGradient899" cx="0" cy="0" r="1" gradientTransform="matrix(-22.362961,53.233187,-66.672009,-28.008534,28.692404,15.154205)" gradientUnits="userSpaceOnUse">
      <stop id="stop293" stop-color="#ae7fe2" offset=".0598494"/>
      <stop id="stop295" stop-color="#0078d4" offset="1"/>
    </radialGradient>
    <linearGradient id="linearGradient901" x1="245.09724" x2="197.42661" y1="511.85574" y2="398.10132" gradientTransform="matrix(.09049478 0 0 .09049478 4.5003747 2.5329577)" gradientUnits="userSpaceOnUse">
      <stop id="stop298" stop-color="#114a8b" offset="0"/>
      <stop id="stop300" stop-color="#0078d4" stop-opacity="0" offset="1"/>
    </linearGradient>
    <radialGradient id="radialGradient903" cx="0" cy="0" r="1" gradientTransform="matrix(37.761997,-12.798335,9.8348912,29.01824,17.423958,49.758766)" gradientUnits="userSpaceOnUse">
      <stop id="stop303" stop-color="#d59dff" offset=".110651"/>
      <stop id="stop305" stop-color="#5e438f" offset="1"/>
    </radialGradient>
    <linearGradient id="linearGradient905" x1="551.90454" x2="472.50629" y1="331.49005" y2="444.07239" gradientTransform="matrix(.09049478 0 0 .09049478 4.5003747 2.5329577)" gradientUnits="userSpaceOnUse">
      <stop id="stop308" stop-color="#493474" offset="0"/>
      <stop id="stop310" stop-color="#8c66ba" stop-opacity="0" offset="1"/>
    </linearGradient>
    <radialGradient id="radialGradient907" cx="0" cy="0" r="1" gradientTransform="matrix(-45.229407,-15.967728,15.842505,-44.874704,60.656093,32.767969)" gradientUnits="userSpaceOnUse">
      <stop id="stop313" stop-color="#50e6ff" offset=".0960063"/>
      <stop id="stop315" stop-color="#436dcd" offset="1"/>
    </radialGradient>
    <linearGradient id="linearGradient909" x1="195.35368" x2="302.23819" y1="15.638529" y2="15.638529" gradientTransform="matrix(.09049478 0 0 .09049478 4.5003747 2.5329577)" gradientUnits="userSpaceOnUse">
      <stop id="stop318" stop-color="#2d3f80" offset="0"/>
      <stop id="stop320" stop-color="#436dcd" stop-opacity="0" offset="1"/>
    </linearGradient>
  </defs>
  <rect id="rect280" x="4.5" y="4.5" width="55" height="55" ry="15" fill="#141414" filter="url(#filter1057)" opacity=".3" stroke-linecap="round" stroke-width="2.7444"/>
  <rect id="rect282" x="18.727348" y="18.727348" width="26.545305" height="26.545305" ry="7.2396288" fill="#4b4c5a" stroke-linecap="round" stroke-width="2.7444"/>
  <circle id="circle284" cx="-1326.3" cy="-1241.6" r="0" fill="#5e4aa6"/>
  <circle id="circle286" cx="-226.72" cy="23.855" r="0" fill="#5e4aa6" fill-rule="evenodd"/>
  <g stroke-width="21.7059">
    <path id="path323" d="m33.965844 44.876862-1.8125-1-0.154298-0.08594-1.423828-0.783203h-0.0039l-2.291016-1.261719c-0.705908-0.388732-1.361593-0.844225-1.960938-1.355469-0.599279-0.510719-1.142073-1.078829-1.623046-1.691406-0.147678-0.188123-0.288017-0.381669-0.423829-0.578125-0.02075-0.03002-0.04203-0.05963-0.0625-0.08984-0.134281-0.198142-0.262814-0.399632-0.384765-0.605469-0.0019-0.0033-0.0039-0.0065-0.0059-0.0098-0.0044-0.0075-0.0073-0.01593-0.01172-0.02344-0.121147-0.205966-0.237229-0.415883-0.345704-0.628906-5e-3 -0.0099-0.01063-0.01941-0.01562-0.0293-0.0026-0.0052-0.0052-0.01043-0.0078-0.01563-0.107241-0.212852-0.206512-0.429196-0.300781-0.648438-0.01533-0.0357-0.02994-0.07156-0.04492-0.107422-0.08457-0.20217-0.16497-0.406278-0.238281-0.613281-0.0097-0.02739-0.0198-0.05456-0.0293-0.08203-0.0792-0.229003-0.149738-0.461076-0.214844-0.695312-0.0017-6e-3 -0.0042-0.01162-0.0059-0.01758-0.0011-4e-3 -0.0028-0.0078-0.0039-0.01172-0.06619-0.240561-0.122885-0.483117-0.173828-0.728516-0.0015-0.0073-0.0044-0.01418-0.0059-0.02148-0.0029-0.01422-0.0049-0.02873-0.0078-0.04297-0.04678-0.231827-0.0863-0.465656-0.11914-0.701172-0.0016-0.01179-0.0043-0.02336-0.0059-0.03516-7.98e-4 -0.0059-0.0012-0.01172-2e-3 -0.01758-0.03397-0.251925-0.05853-0.506277-0.07617-0.761719-2.72e-4 -4e-3 -0.0017-0.0078-2e-3 -0.01172-2.64e-4 -0.0039 2.61e-4 -0.0078 0-0.01172-0.01754-0.261543-0.0293-0.524564-0.0293-0.789062v-5.580078l2.17e-4 -0.318309c0-0.837775 0.15614 0.01932 0.22444-0.113379 0.652621-1.268045 1.655644-3.192438 1.740234-3.230469 0.05657-0.02543 2.67471-0.67123 4.753906-1.1875h3.103686v-16.49209h-12.5c-8.309951 0-14.999999 6.6900498-14.999999 15v21.683595c0 0.890901 0 0.890313-2e-3 1.824219v1.492187c0 8.309952 6.6900483 15 14.999999 15h5.878953l-10.890625-5.890625h3.763672zm-24.056641 6.212891c-0.0568-0.03651-0.115839-0.06996-0.171875-0.107422 0.0097 0.0041 0.01957 0.0076 0.0293 0.01172 0.04781 0.03176 0.09422 0.06459 0.142578 0.0957z" fill="url(#radialGradient899)"/>
    <path id="path325" d="m33.965844 44.876862-5.685548-3.130859c-3.763153-2.072307-6.101563-6.028356-6.101563-10.32422v-5.580078c0.615801-1.202724 1.871345-3.620073 1.964844-3.66211 0.0935-0.04204 5.277351-1.325681 7.857423-1.96289v-15.716797h-6.619142l-14.703125 7.9550788c-3.8060523 2.059147-6.1777333 6.037823-6.1777333 10.365235v21.679687c0 8.309992 6.6900083 15 14.999999 15h6.742187z" fill="url(#linearGradient901)"/>
    <path id="path327" d="m59.499047 36.210845-11.785157-10.101562-5.892578-2.525391v1.9375l2e-3 2e-3v6.09961c0 1.622876-0.333286 3.196451-0.951172 4.638672l-2e-3 2e-3c-0.308759 0.720241-0.688471 1.408636-1.132812 2.052734-0.148277 0.214937-0.302385 0.423985-0.464844 0.628906l-2e-3 2e-3c-0.324444 0.409052-0.676462 0.79758-1.054687 1.162109l-2e-3 2e-3c-0.37832 0.36445-0.782496 0.705736-1.210938 1.019531h-2e-3c-0.428806 0.313973-0.882082 0.602268-1.357422 0.859375l-1.880859 1.017579h-2e-3l-1.607422 0.86914-0.154297-0.08594v0.169921l-2.265868 1.225612c-8.691349 4.168163-20.80173 3.894167-24.945069 2.235326 1.352574 6.9014 7.4036293 12.078125 14.71289 12.078125h25.000047c0.259032 0 0.515754-0.0067 0.771484-0.01953 6.52e-4 -3.3e-5 0.0013 3.3e-5 2e-3 0 0.283583-0.01432 0.564628-0.03864 0.84375-0.06836 0.477605-0.05082 0.949227-0.120603 1.41211-0.214843 0.489111-0.09958 0.969187-0.223484 1.439453-0.369141 0.438434-0.135797 0.867135-0.294982 1.287109-0.46875 0.06133-0.02538 0.122683-0.05001 0.183594-0.07617 0.416855-0.179183 0.824759-0.37347 1.220797-0.588078 0.425149-0.230384 0.837452-0.480968 1.236328-0.75 1.19663-0.807099 2.269926-1.782192 3.185547-2.892579 0.320199-0.388309 0.618121-0.79496 0.898438-1.214843 0.254272-0.38082 0.493668-0.771229 0.71289-1.175782 0.219051-0.404236 0.417683-0.822242 0.59961-1.248046 0.01939-0.0454 0.03768-0.09109 0.05664-0.136719 0.167209-0.402385 0.318806-0.812998 0.451172-1.232422 0.01537-0.0487 0.03004-0.09757 0.04492-0.146485 0.13623-0.447675 0.255015-0.902562 0.349609-1.367187 0.09424-0.462884 0.164029-0.934505 0.214844-1.412109 0.05665-0.53209 0.08789-1.071531 0.08789-1.619141v-1.492187c0-0.467535 2e-3 -1.222963 0-1.824219z" fill="url(#radialGradient903)"/>
    <path id="path329" d="m59.499047 36.210845-11.785157-10.101562-5.892578-2.525391v8.041017c0 4.327685-2.37117 8.306287-6.177734 10.365234l-1.880859 1.017579-1.763672 0.953124-12.070313 6.529297c-3.163715 1.711275-6.915234 1.876018-10.191406 0.492188 0.3029112 0.202518 0.6170872 0.390994 0.9414062 0.566406l14.699219 7.951172h19.121094c8.309975 0 15-6.690024 15-15v-1.492187c-0.01317-1.286504 2e-3 -1.255004 0-1.824219z" fill="url(#linearGradient905)"/>
    <path id="path1629" d="m59.501 19.499908c0-8.309966-6.690033-15-15-15h-18.47461c-2.418996 2.2050371-3.847656 5.3524668-3.847656 8.7089838v12.314453l0.22461-0.113281 4.28125-2.162109c7.75e-4 -3.92e-4 0.0012-0.0016 2e-3 -2e-3 0.208125-0.105164 0.418346-0.202857 0.630859-0.294922 7.79e-4 -3.38e-4 0.0012-0.0016 2e-3 -2e-3 0.212545-0.09202 0.428183-0.176933 0.644533-0.25586 3.040754-1.109288 6.428151-0.925419 9.353514 0.552735l4.50586 2.277344v2e-3l11.206937 5.662157c3.890045 1.965645 6.370744 5.914618 6.466797 10.257814 0.0022-0.08702 0.0039-0.174309 0.0039-0.261719v-20.191409z" fill="url(#radialGradient907)"/>
    <path id="path333" d="m59.501 22.820222c0-4.327396-2.371564-8.306105-6.177735-10.365235l-14.703125-7.9550788h-12.59375c-2.419 2.2050415-3.847656 5.3524595-3.847656 8.7089848v12.314452l4.50586-2.275389c3.342409-1.688884 7.28845-1.688884 10.630859 0l15.714844 7.939453c3.890051 1.965649 6.370744 5.914609 6.466797 10.257813 0.0022-0.08702 0.0039-0.174309 0.0039-0.261719z" fill="url(#linearGradient909)"/>
  </g>
  <g id="g486" transform="matrix(.08557911 0 0 .08557911 16.5801 48.782995)" fill="#cff7ff" stroke-width="2.74419">
    <path id="path474" d="m147.96528-148.30315c3.59648 0.22252 4.83685 7.16359 6.15024 9.85361 3.94441 8.08038 9.11727 16.81639 17.39767 21.09841 9.41732 4.86939 18.15148 1.13823 25.13145-6.01716 2.51275-2.57572 4.18888-5.6306 6.36535-8.44179 0.88635-1.14485 2.2426-1.83753 3.69252-1.39859 6.06319 1.83568-1.53961 10.17587-3.46075 12.48622-6.5196 7.84039-15.48447 13.13867-25.90773 12.12585-12.89077-1.25227-22.40624-13.26594-27.78945-24.0321-1.80658-3.61315-4.05263-7.65704-4.88157-11.64167-0.45111-2.16773 0.99907-4.17539 3.30227-4.03278z"/>
    <path id="path472" d="m248.24236-156.31738c-7.14402 1.31525-5.27394 12.14252 1.85208 10.90163 6.94743-1.20968 5.05592-12.17321-1.85208-10.90163"/>
    <path id="path470" d="m110.39445-156.31738c-6.95775 1.28191-5.16017 12.12242 1.85208 10.90163 7.01305-1.22079 5.14667-12.19094-1.85208-10.90163"/>
    <path id="path468" d="m238.18816-145.85787c-5.75072-10.95745 8.43121-21.56089 17.99167-14.80529 6.92732 4.89506 6.39286 15.75091-0.79375 20.11627-2.76305 1.67852-6.13516 2.10979-9.26042 1.38853-1.18189-0.27278-2.49793-1.28058-3.70417-1.22555-1.67137 0.0762-3.68061 1.57163-5.29166 2.11085-3.68485 1.23296-7.50491 2.05581-11.37709 2.42438-26.86684 2.55852-54.87246-9.81393-76.72916-24.3848-7.8396-5.22631-15.30694-11.22891-21.96015-17.90355-1.92167-1.92776-6.81434-6.6003-2.37093-8.79237 3.37741-1.66608 6.46324 3.36312 8.45608 5.35278 6.83287 6.82202 14.68543 12.63333 22.75417 17.90065 14.6087 9.53638 31.46345 16.93572 48.68333 20.04695 11.46228 2.07116 22.71342 2.29844 33.60208-2.22885"/>
    <path id="path466" d="m178.65691-199.48864c10.25525-1.51527 13.55963 13.97502 3.175 15.7091-10.16344 1.6973-13.40246-14.1978-3.175-15.7091"/>
    <path id="path464" d="m111.45275-162.7912c11.89381 8e-3 16.56053 16.66769 5.82083 22.45677-7.68826 4.14417-17.352692-0.92842-17.967852-9.75677-0.20029-2.87232 0.716232-5.93487 2.494762-8.20209 0.83132-1.05992 2.38918-1.91743 2.87813-3.18531 0.6739-1.74811 0.28946-4.20979 0.58023-6.0751 0.64083-4.11163 1.82828-8.0989 3.51155-11.90625 11.01725-24.91872 35.61133-42.85747 59.30318-54.7034 8.66987-4.33493 17.84376-7.90284 27.25208-10.28514 2.54212-0.64374 9.47923-2.86068 8.92863 2.28229-0.37703 3.52081-5.53111 3.56315-8.13488 4.31033-8.76723 2.51592-17.23522 5.69568-25.4 9.77794-18.33774 9.16887-35.74414 21.7715-48.12056 38.29923-5.76156 7.69382-11.14504 17.09737-11.1461 26.9875"/>
    <path id="path462" d="m219.66759-247.6182c3.41128-0.78767 7.72663 0.16748 11.11224 0.75565 3.63087 0.63076 7.28556 1.79017 10.58333 3.43905 2.49185 1.24592 4.84479 2.80697 6.87811 4.72043 9.85679 9.27656 8.40687 23.55824 3.55203 34.90145-2.43232 5.68352-5.87666 11.02704-9.69222 15.875-1.36128 1.72985-2.76754 4.2418-5.23584 4.22434-2.87946-0.0204-3.89043-3.08716-2.43707-5.28267 7.34668-11.09795 19.96572-25.54049 12.80636-39.95208-3.7465-7.54116-12.05389-10.67938-19.89429-11.83428-2.50137-0.36857-5.87666 0.10054-8.19811-0.8681-2.70113-1.12713-2.29552-5.32712 0.52546-5.97879"/>
    <path id="path460" d="m137.91108-247.91136c5.75786-0.67945 13.48899-0.11642 19.05 1.55787 2.76146 0.83158 3.54277 4.93977 0.52811 6.10764-1.45468 0.56356-3.29062 7e-3 -4.76144-0.22066-2.62784-0.40746-5.28823-0.70089-7.9375-0.88239-9.11543-0.62415-20.59914 0.52467-27.51667 7.13052-8.6561 8.26638-6.20765 20.24856-1.38827 29.8876 1.0885 2.17699 3.81794 7.11755-0.46381 7.87691-3.61421 0.64082-4.90141-3.74968-6.14997-6.28941-3.4589-7.0358-5.48005-15.49109-3.90314-23.28334 3.25861-16.10439 18.44675-20.22157 32.54269-21.88474"/>
    <path id="path458" d="m178.9215-276.95123c-7.0911 1.63936-4.09152 12.23513 2.91041 10.56719 6.84636-1.63115 3.89996-12.14146-2.91041-10.56719"/>
    <path id="path456" d="m190.29861-265.18495c-4.61301 10.34309-21.18519 5.21256-21.9366-5.02708-0.68554-9.3435 8.66986-16.61954 17.43868-12.2211 2.59424 1.30148 4.72969 3.69332 5.75945 6.40027 0.49001 1.28852 0.35587 3.28877 1.27556 4.33678 1.24063 1.41394 3.39407 2.35453 4.87124 3.54912 2.65721 2.14868 5.0038 4.75377 7.08158 7.45993 12.42589 16.18509 16.97593 38.01454 18.34197 57.94375 0.46911 6.84 0.98531 14.07371 0.0886 20.90208-1.26841 9.66126-2.03411 19.05635-4.44447 28.575-0.66516 2.62652-2.30531 9.79567-6.50107 6.49975-2.71913-2.13572-0.25268-6.50663 0.41566-9.14559 2.1254-8.3939 3.45307-17.03519 4.04415-25.66458 1.43457-20.95103-0.99562-44.11874-10.22694-63.23541-3.68855-7.63879-8.54657-16.10334-16.20784-20.37292"/>
  </g>
</svg>
