<svg id="svg290" version="1.1" viewBox="0 0 64 64" xmlns="http://www.w3.org/2000/svg">
  <defs id="defs278">
    <style id="style266" type="text/css"/>
    <style id="style268" type="text/css"/>
    <filter id="filter1057" x="-.026999999" y="-.026999999" width="1.054" height="1.054" color-interpolation-filters="sRGB">
      <feGaussianBlur id="feGaussianBlur270" stdDeviation="0.61875"/>
    </filter>
    <radialGradient id="a" cx="0" cy="0" r="1" gradientTransform="matrix(-22.362961,49.678758,-66.672009,-26.138379,28.692031,16.278515)" gradientUnits="userSpaceOnUse">
      <stop id="stop691" stop-color="#ae7fe2" offset=".0598494"/>
      <stop id="stop693" stop-color="#0078d4" offset="1"/>
    </radialGradient>
    <linearGradient id="b" x1="245.09724" x2="197.42661" y1="511.85574" y2="398.10132" gradientTransform="matrix(.09049478 0 0 .08445236 4.5000006 4.5000011)" gradientUnits="userSpaceOnUse">
      <stop id="stop696" stop-color="#114a8b" offset="0"/>
      <stop id="stop698" stop-color="#0078d4" stop-opacity="0" offset="1"/>
    </linearGradient>
    <radialGradient id="c" cx="0" cy="0" r="1" gradientTransform="matrix(37.761997,-11.943778,9.8348912,27.080665,17.423585,48.572498)" gradientUnits="userSpaceOnUse">
      <stop id="stop701" stop-color="#d59dff" offset=".110651"/>
      <stop id="stop703" stop-color="#5e438f" offset="1"/>
    </radialGradient>
    <linearGradient id="d" x1="551.90454" x2="472.50629" y1="331.49005" y2="444.07239" gradientTransform="matrix(.09049478 0 0 .08445236 4.5000006 4.5000011)" gradientUnits="userSpaceOnUse">
      <stop id="stop706" stop-color="#493474" offset="0"/>
      <stop id="stop708" stop-color="#8c66ba" stop-opacity="0" offset="1"/>
    </linearGradient>
    <radialGradient id="e" cx="0" cy="0" r="1" gradientTransform="matrix(-45.229407,-14.901548,15.842505,-41.878378,60.655719,32.716193)" gradientUnits="userSpaceOnUse">
      <stop id="stop711" stop-color="#50e6ff" offset=".0960063"/>
      <stop id="stop713" stop-color="#436dcd" offset="1"/>
    </radialGradient>
    <linearGradient id="f" x1="195.35368" x2="302.23819" y1="15.638529" y2="15.638529" gradientTransform="matrix(.09049478 0 0 .08445236 4.5000006 4.5000011)" gradientUnits="userSpaceOnUse">
      <stop id="stop716" stop-color="#2d3f80" offset="0"/>
      <stop id="stop718" stop-color="#436dcd" stop-opacity="0" offset="1"/>
    </linearGradient>
  </defs>
  <rect id="rect280" x="4.5" y="4.5" width="55" height="55" ry="15" fill="#141414" filter="url(#filter1057)" opacity=".3" stroke-linecap="round" stroke-width="2.7444"/>
  <rect id="rect282" x="4.5" y="4.5" width="55" height="55" ry="15" fill="#4b4c5a" stroke-linecap="round" stroke-width="2.7444"/>
  <g id="g486" transform="matrix(.09128438 0 0 .09128438 15.552107 49.901861)" fill="#cff7ff" stroke-width="2.57268">
    <path id="path474" d="m147.96528-148.30315c3.59648 0.22252 4.83685 7.16359 6.15024 9.85361 3.94441 8.08038 9.11727 16.81639 17.39767 21.09841 9.41732 4.86939 18.15148 1.13823 25.13145-6.01716 2.51275-2.57572 4.18888-5.6306 6.36535-8.44179 0.88635-1.14485 2.2426-1.83753 3.69252-1.39859 6.06319 1.83568-1.53961 10.17587-3.46075 12.48622-6.5196 7.84039-15.48447 13.13867-25.90773 12.12585-12.89077-1.25227-22.40624-13.26594-27.78945-24.0321-1.80658-3.61315-4.05263-7.65704-4.88157-11.64167-0.45111-2.16773 0.99907-4.17539 3.30227-4.03278z"/>
    <path id="path472" d="m248.24236-156.31738c-7.14402 1.31525-5.27394 12.14252 1.85208 10.90163 6.94743-1.20968 5.05592-12.17321-1.85208-10.90163"/>
    <path id="path470" d="m110.39445-156.31738c-6.95775 1.28191-5.16017 12.12242 1.85208 10.90163 7.01305-1.22079 5.14667-12.19094-1.85208-10.90163"/>
    <path id="path468" d="m238.18816-145.85787c-5.75072-10.95745 8.43121-21.56089 17.99167-14.80529 6.92732 4.89506 6.39286 15.75091-0.79375 20.11627-2.76305 1.67852-6.13516 2.10979-9.26042 1.38853-1.18189-0.27278-2.49793-1.28058-3.70417-1.22555-1.67137 0.0762-3.68061 1.57163-5.29166 2.11085-3.68485 1.23296-7.50491 2.05581-11.37709 2.42438-26.86684 2.55852-54.87246-9.81393-76.72916-24.3848-7.8396-5.22631-15.30694-11.22891-21.96015-17.90355-1.92167-1.92776-6.81434-6.6003-2.37093-8.79237 3.37741-1.66608 6.46324 3.36312 8.45608 5.35278 6.83287 6.82202 14.68543 12.63333 22.75417 17.90065 14.6087 9.53638 31.46345 16.93572 48.68333 20.04695 11.46228 2.07116 22.71342 2.29844 33.60208-2.22885"/>
    <path id="path466" d="m178.65691-199.48864c10.25525-1.51527 13.55963 13.97502 3.175 15.7091-10.16344 1.6973-13.40246-14.1978-3.175-15.7091"/>
    <path id="path464" d="m111.45275-162.7912c11.89381 8e-3 16.56053 16.66769 5.82083 22.45677-7.68826 4.14417-17.352692-0.92842-17.967852-9.75677-0.20029-2.87232 0.716232-5.93487 2.494762-8.20209 0.83132-1.05992 2.38918-1.91743 2.87813-3.18531 0.6739-1.74811 0.28946-4.20979 0.58023-6.0751 0.64083-4.11163 1.82828-8.0989 3.51155-11.90625 11.01725-24.91872 35.61133-42.85747 59.30318-54.7034 8.66987-4.33493 17.84376-7.90284 27.25208-10.28514 2.54212-0.64374 9.47923-2.86068 8.92863 2.28229-0.37703 3.52081-5.53111 3.56315-8.13488 4.31033-8.76723 2.51592-17.23522 5.69568-25.4 9.77794-18.33774 9.16887-35.74414 21.7715-48.12056 38.29923-5.76156 7.69382-11.14504 17.09737-11.1461 26.9875"/>
    <path id="path462" d="m219.66759-247.6182c3.41128-0.78767 7.72663 0.16748 11.11224 0.75565 3.63087 0.63076 7.28556 1.79017 10.58333 3.43905 2.49185 1.24592 4.84479 2.80697 6.87811 4.72043 9.85679 9.27656 8.40687 23.55824 3.55203 34.90145-2.43232 5.68352-5.87666 11.02704-9.69222 15.875-1.36128 1.72985-2.76754 4.2418-5.23584 4.22434-2.87946-0.0204-3.89043-3.08716-2.43707-5.28267 7.34668-11.09795 19.96572-25.54049 12.80636-39.95208-3.7465-7.54116-12.05389-10.67938-19.89429-11.83428-2.50137-0.36857-5.87666 0.10054-8.19811-0.8681-2.70113-1.12713-2.29552-5.32712 0.52546-5.97879"/>
    <path id="path460" d="m137.91108-247.91136c5.75786-0.67945 13.48899-0.11642 19.05 1.55787 2.76146 0.83158 3.54277 4.93977 0.52811 6.10764-1.45468 0.56356-3.29062 7e-3 -4.76144-0.22066-2.62784-0.40746-5.28823-0.70089-7.9375-0.88239-9.11543-0.62415-20.59914 0.52467-27.51667 7.13052-8.6561 8.26638-6.20765 20.24856-1.38827 29.8876 1.0885 2.17699 3.81794 7.11755-0.46381 7.87691-3.61421 0.64082-4.90141-3.74968-6.14997-6.28941-3.4589-7.0358-5.48005-15.49109-3.90314-23.28334 3.25861-16.10439 18.44675-20.22157 32.54269-21.88474"/>
    <path id="path458" d="m178.9215-276.95123c-7.0911 1.63936-4.09152 12.23513 2.91041 10.56719 6.84636-1.63115 3.89996-12.14146-2.91041-10.56719"/>
    <path id="path456" d="m190.29861-265.18495c-4.61301 10.34309-21.18519 5.21256-21.9366-5.02708-0.68554-9.3435 8.66986-16.61954 17.43868-12.2211 2.59424 1.30148 4.72969 3.69332 5.75945 6.40027 0.49001 1.28852 0.35587 3.28877 1.27556 4.33678 1.24063 1.41394 3.39407 2.35453 4.87124 3.54912 2.65721 2.14868 5.0038 4.75377 7.08158 7.45993 12.42589 16.18509 16.97593 38.01454 18.34197 57.94375 0.46911 6.84 0.98531 14.07371 0.0886 20.90208-1.26841 9.66126-2.03411 19.05635-4.44447 28.575-0.66516 2.62652-2.30531 9.79567-6.50107 6.49975-2.71913-2.13572-0.25268-6.50663 0.41566-9.14559 2.1254-8.3939 3.45307-17.03519 4.04415-25.66458 1.43457-20.95103-0.99562-44.11874-10.22694-63.23541-3.68855-7.63879-8.54657-16.10334-16.20784-20.37292"/>
  </g>
  <circle id="circle284" cx="-1326.3" cy="-1241.6" r="0" fill="#5e4aa6"/>
  <circle id="circle286" cx="-226.72" cy="23.855" r="0" fill="#5e4aa6" fill-rule="evenodd"/>
  <g stroke-width="21.7059">
    <path id="path721" d="m19.5 4.5c-0.519374 0-1.031629 0.027097-1.537109 0.078125-0.505481 0.051028-1.00503 0.1250294-1.494141 0.2246094s-0.969187 0.223484-1.439453 0.3691406-0.929962 0.3146486-1.378906 0.5039062c-0.448945 0.1892577-0.887352 0.3985232-1.3125 0.6289063-0.425149 0.2303831-0.837452 0.4809671-1.236329 0.75-0.398876 0.2690329-0.784167 0.5561209-1.1542964 0.8613281-0.370129 0.3052072-0.7255472 0.627891-1.0644531 0.9667969s-0.6615897 0.6943241-0.9667969 1.0644531c-0.3052072 0.3701294-0.5922952 0.7554204-0.8613281 1.1542964-0.2690329 0.398877-0.5196169 0.81118-0.75 1.236329-0.2303831 0.425148-0.4396486 0.863555-0.6289063 1.3125-0.1892576 0.448944-0.3582496 0.90864-0.5039062 1.378906s-0.2695606 0.950342-0.3691406 1.439453-0.1735816 0.98866-0.2246094 1.494141c-0.0510278 0.50548-0.078125 1.017735-0.078125 1.537109v25c0 0.27295 0.00913 0.543285 0.023437 0.8125 0.00614 0.115944 0.016656 0.230488 0.025391 0.345703 0.010374 0.136269 0.019228 0.273012 0.033203 0.408203 0.045071 0.437859 0.1136805 0.869273 0.1953126 1.294922 0.018579 0.09646 0.036227 0.193286 0.056641 0.289063 0.083665 0.394215 0.1830771 0.782142 0.296875 1.164062 0.031718 0.10598 0.065627 0.211443 0.099609 0.316406 0.1172597 0.363728 0.2470266 0.721429 0.390625 1.072266 0.053486 0.130164 0.1129105 0.256492 0.1699218 0.384766 0.1189112 0.268594 0.2449845 0.533036 0.3789063 0.792968 0.105507 0.204009 0.2156097 0.405151 0.3300781 0.603516 0.1136278 0.197587 0.2312723 0.392251 0.3535156 0.583984 0.1508223 0.235817 0.3092385 0.466831 0.4726563 0.69336 0.1044503 0.14516 0.2108533 0.288508 0.3203125 0.429687 0.2338633 0.300952 0.4787003 0.591043 0.734375 0.873047 0.073015 0.08066 0.1440114 0.163143 0.21875 0.242188 0.1634991 0.172672 0.3304814 0.343056 0.5019531 0.507812 0.1890517 0.181647 0.3836825 0.357651 0.5820313 0.529297l4.8027344-3.677734h3.763672l15.716797-8.148438-5.6875-2.923828c-3.763153-1.933937-6.101563-5.623789-6.101563-9.632812v-5.503907c0.615801-1.122417 1.871345-3.081866 1.964844-3.121093 0.0935-0.03923 5.27735-1.239321 7.857422-1.833985v-15.476562c0.653422-0.3852872 1.181251-0.7215686 1.626953-1.0253906h-6.759765c-0.120263 0.02225-0.203228 0.028154-0.207032 0z" fill="url(#a)"/>
    <path id="path723" d="m27.212891 5.4492188c-0.277355 0.1150831-0.551012 0.2389825-0.820313 0.375l-15.714844 7.9355472c-3.8060559 1.921658-6.177734 5.635359-6.177734 9.673828v21.066406c0 3.291343 1.0617699 6.319041 2.8457031 8.787109l7.1406249-1.121093h3.763672l15.716797-8.148438-5.6875-2.923828c-3.763157-1.933939-6.101563-5.623784-6.101563-9.632812v-5.208985c0.615801-1.122418 1.871345-3.376787 1.964844-3.416015 0.0935-0.03923 5.277347-1.239321 7.857422-1.833985v-15.476562h-4.904297c0.0385-0.0256999 0.078296-0.0508559 0.117188-0.0761718z" fill="url(#b)"/>
    <path id="path725" d="m41.820312 24.144531v7.503907c0 4.038724-2.371167 7.752357-6.177734 9.673828l-15.714844 7.933593c-2.183381 1.102148-8.74732 2.155984-13.683593 2.279297 2.5135747 4.744439 7.4925474 7.964844 13.255859 7.964844h25c8.309992 0 15-6.690008 15-15v-8.570312l-11.785156-9.427735-5.894532-2.357422z" fill="url(#c)"/>
    <path id="path727" d="m41.821057 24.145257v7.503876c0 4.038729-2.371864 7.752632-6.178435 9.674105l-15.714212 7.932278c-11.767581 4.055321-6.91496 1.749897-10.191138 0.458463 0.3029108 0.188996 0.6168228 0.365707 0.9411438 0.529406l15.714231 7.93209c3.498573 1.766032 7.715679 1.766032 11.214252 0l15.714208-7.93209c3.806574-1.921475 6.17844-5.635375 6.17844-9.674291v-4.639626l-11.785662-9.427369z" fill="url(#d)"/>
    <path id="path729" d="m32.738281 4.5c-7.718024 1.5146253-10.560547 7.070947-10.560547 9.962891v11.49414l4.50586-2.125c3.342401-1.57611 7.288456-1.57611 10.630859 0l15.714844 7.410157c3.890045 1.834398 6.370744 5.517115 6.466797 9.570312 0.0023-0.0812 0.003906-0.162568 0.003906-0.244141v-17.134765c0-0.504807 0.0031-1.068365 0-1.671875v-2.261719c0-8.064084-6.300843-14.602508-14.267578-14.982422-0.242936-0.0115877-0.486514-0.0175781-0.732422-0.0175781h-11.761719z" fill="url(#e)"/>
    <path id="path731" d="m32.738281 4.5c-8.645351 1.7412297-10.560547 7.935436-10.560547 9.962891v11.49414l4.50586-2.125c3.342405-1.576112 7.288453-1.576112 10.630859 0l15.714844 7.410157c3.890049 1.8344 6.370744 5.517111 6.466797 9.570312 0.0023-0.0812 0.0039-0.162568 0.0039-0.244141v-17.134765c0-4.038447-2.371567-7.75219-6.177734-9.673828l-15.714838-7.9355472c-0.916982-0.4629811-1.865675-0.9219559-2.828125-1.3242188z" fill="url(#f)"/>
  </g>
</svg>
