<svg id="svg25" version="1.1" viewBox="0 0 64 64" xmlns="http://www.w3.org/2000/svg" xmlns:xlink="http://www.w3.org/1999/xlink">
    <defs id="defs7">
        <style id="style864" type="text/css"/>
        <filter id="filter1057" x="-.026999999" y="-.026999999" width="1.054" height="1.054" color-interpolation-filters="sRGB">
            <feGaussianBlur id="feGaussianBlur866" stdDeviation="0.61875"/>
        </filter>
        <style id="style874" type="text/css"/>
        <style id="style876" type="text/css"/>
        <style id="style878" type="text/css"/>
        <style id="style880" type="text/css"/>
        <style id="style882" type="text/css"/>
        <style id="style884" type="text/css"/>
        <style id="style886" type="text/css"/>
        <linearGradient id="linearGradient919" x1="21.237339" x2="47.851002" y1="24.141342" y2="55.983509" gradientUnits="userSpaceOnUse">
            <stop id="stop913" stop-color="#294d73" offset="0"/>
            <stop id="stop915" stop-color="#192e45" offset="1"/>
        </linearGradient>
    </defs>
    <rect id="rect902" x="4.4999995" y="4.4999995" width="55" height="55" ry="15" fill="#141414" filter="url(#filter1057)" opacity=".3" stroke-linecap="round" stroke-width="2.7444"/>
    <rect id="rect904" x="4.5" y="4.5" width="55" height="55" ry="15" fill="url(#linearGradient919)" stroke-linecap="round" stroke-width="2.7444"/>
    <g fill="#5e4aa6">
        <g id="g937" transform="matrix(3.779602,0,0,3.779602,3.9134265,-70.54798)" stroke-width=".26458">
            <circle id="circle929" cx="-330.35001" cy="-328.38" r="0"/>
            <circle id="circle931" cx="-312.10999" cy="-326.25" r="0"/>
            <circle id="circle933" cx="-306.01999" cy="-333.07001" r="0"/>
            <circle id="circle935" cx="-308.84" cy="-326.01001" r="0"/>
        </g>
        <circle id="circle890" cx="-968.94611" cy="-1279.3" r="0"/>
        <g stroke-width="1.00001">
            <circle id="circle892" cx="-850.492" cy="-1318.599" r="0"/>
            <circle id="circle894" cx="249.04576" cy="-53.108505" r="0" fill-rule="evenodd"/>
            <circle id="circle896" cx="-771.98975" cy="-1390.1091" r="0"/>
            <circle id="circle898" cx="327.54501" cy="-124.58187" r="0" fill-rule="evenodd"/>
        </g>
    </g>
    <style id="style149" type="text/css">.st0{clip-path:url(#SVGID_1_);}
	.st1{clip-path:url(#SVGID_2_);}
	.st2{clip-path:url(#SVGID_3_);}
	.st3{clip-path:url(#SVGID_4_);fill:none;stroke:#002C5B;stroke-width:6;stroke-miterlimit:10;}
	.st4{fill-rule:evenodd;clip-rule:evenodd;fill:#192E45;}
	.st5{fill-rule:evenodd;clip-rule:evenodd;fill:#D0933A;}
	.st6{fill-rule:evenodd;clip-rule:evenodd;fill:#FFCC86;}
	.st7{fill-rule:evenodd;clip-rule:evenodd;fill:#FDD321;}
	.st8{fill:#FFFFFF;}
	.st9{fill:#1D2A3A;}
	.st10{fill:#192E45;}</style>
    <g id="Logo" transform="matrix(.17411567 0 0 .1731011 -2.9193869 -2.8886966)">
        <path id="Mullvad_Fur" class="st5" d="m90.6 184.9 9.6-13.4c0 0.1-0.6 19.3-0.6 19.3l2.7-14.5c8 16.2 27.6 38.6 45.5 50.6 1.9 1.3 3.5 2.7 4.6 4.1 2.3 0.9 4.6 1.4 6.9 1.8 1.2 0.2 2.5 0.3 3.7 0.4s2.5 0.1 3.7 0.1 2.4-0.1 3.6-0.2 2.4-0.3 3.6-0.5 2.4-0.4 3.5-0.8c1.2-0.3 2.3-0.6 3.5-1 1.1-0.3 2.3-0.8 3.4-1.2 1.1-0.5 2.2-0.9 3.3-1.5s2.2-1.1 3.2-1.7c1.1-0.5 2.1-1.2 3.2-1.8s2.1-1.3 3.2-1.9 2.1-1.3 3.1-1.9c1-0.7 2.1-1.3 3.1-2s2.1-1.3 3.2-2l1-0.6 0.5 0.3 7.2 4.8-7.3-1.9c-0.7 0.8-1.4 1.6-2.2 2.4-0.9 0.9-1.9 1.8-2.8 2.7-1 0.8-2 1.7-3.1 2.4-1.1 0.8-2.1 1.5-3.3 2.2-2.2 1.4-4.6 2.6-7.1 3.6-1.2 0.5-2.5 1-3.7 1.4-1.3 0.4-2.5 0.8-3.8 1.1s-2.6 0.6-3.9 0.8-2.6 0.3-3.9 0.5c-2.6 0.1-5.3 0.1-7.9-0.3-1.3-0.2-2.6-0.4-3.9-0.7s-2.5-0.7-3.7-1.1c-2.1-0.8-4.2-1.8-6.1-3 0 0-6.9 1-4.1 6.2s7 4.7 5 10.8c-1.4 3.3-3.4 6.5-5.6 9.5-4.6 6.2-11.8 11.7-11.1 15 32.7 40.3 106.4 34.7 134.4-1.3-0.4-5.2-8.6-7.7-14.3-20.4 1.6 0.5 4 1.2 4 1.1s-6.8-11.1-7.1-12.2l4.4 0.3s-5.8-7.2-6-7.9l5.9-0.8s-7.4-8.5-7.5-9.2l7.5 1.2-8.2-9.9h3.9l-4.6-6.7c-0.8-0.3-1.6-0.5-2.4-0.7l-3-0.9c-11.2-3.5-21.8-6.7-32-13.1-14.3-8.9-27.1-19.8-36.7-28.3l-19.3-9.4c-18.5-1.4-35.9-0.9-46.5 1.2l6.8-11.6-10.4 12.5c-0.7-0.2-0.9-0.6-0.9-0.6l0.7-15.4-3.3 13.9c-1-0.5-2.2-0.7-3.4-0.7-4.6 0-8.3 3.7-8.3 8.3 0 4.2 3.1 7.7 7.2 8.2z"/>
        <path id="Mullvad_Nose" class="st6" d="m102.2 154.5c-1-0.4-2.2-0.7-3.3-0.7-4.6 0-8.3 3.7-8.3 8.3 0 4 2.9 7.4 6.7 8.2h0.2c2.5-0.8 7.5-7.5 6.7-11.7-0.3-1.5-1-2.9-2-4.1z"/>
        <path id="Mullvad_Helmet" class="st7" d="m175.1 143.8c-1.5-4.1-1.1-9.4 1-14.4 3-6.9 8.7-11.5 14.1-11.5 1.1 0 2.1 0.2 3.1 0.6 3.1-2.8 6.7-5.1 10.7-6.7 22.1-8.8 54.4 6.9 62.7 28.6 4 10.5 2.8 22-0.6 32.5-2.8 8.6-13 21-9.2 30.4-1.5-0.4-33.1-10.2-41.9-15.8-14.1-8.8-26.8-19.6-36.3-28l-0.3-0.3-32.1-15.2c-0.4-0.2-0.8-0.4-1.1-0.6 4.6 0 22.1 2.1 29.9 0.4"/>
        <g id="Helmet_Lamp">
            <path id="path190" class="st8" d="m184.6 147.4c-0.9 0-1.7-0.2-2.3-0.5-1.6-0.7-2.8-2-3.6-4-1.4-3.4-1-8.1 0.9-12.5 2.5-5.7 7.2-9.7 11.5-9.7 0.8 0 1.6 0.2 2.4 0.5 2.1 0.9 3.6 3 4.1 6 0.6 3.2 0.1 6.9-1.5 10.4-2.5 5.7-7.3 9.8-11.5 9.8z"/>
            <g id="g194">
                <path id="path192" class="st9" d="m191 122.3c0.6 0 1.2 0.1 1.8 0.4 1.6 0.7 2.8 2.5 3.2 4.9 0.5 2.9 0.1 6.3-1.4 9.5-2.2 5.1-6.5 8.8-10.1 8.8-0.6 0-1.2-0.1-1.7-0.3-1.5-0.6-2.3-2-2.7-3.1-1.2-3-0.9-7.4 0.8-11.4 2.3-5.1 6.5-8.8 10.1-8.8m0-3c-4.8 0-10.1 4.4-12.9 10.7-2.1 4.7-2.4 9.8-0.9 13.7 0.9 2.3 2.4 3.9 4.3 4.8 0.9 0.4 1.9 0.6 3 0.6 4.8 0 10.1-4.4 12.8-10.7 1.7-3.8 2.2-7.8 1.6-11.3s-2.4-6-5-7.1c-0.8-0.5-1.8-0.7-2.9-0.7z"/>
            </g>
        </g>
    </g>
</svg>
