<svg id="svg44" version="1.1" viewBox="0 0 64 64" xmlns="http://www.w3.org/2000/svg">
  <defs id="defs22">
    <filter id="filter1057" x="-.026999999" y="-.026999999" width="1.054" height="1.054" color-interpolation-filters="sRGB">
      <feGaussianBlur id="feGaussianBlur1059" stdDeviation="0.61875"/>
    </filter>
    <linearGradient id="linearGradient41" x1="82.547302" x2="75.456398" y1="85.636398" y2="52.909" gradientTransform="translate(-142,-53)" gradientUnits="userSpaceOnUse">
      <stop id="stop7" stop-color="#b0b0b0" offset="0"/>
      <stop id="stop8" stop-color="#e4e4e4" offset="1"/>
    </linearGradient>
  </defs>
  <g fill="#5e4aa6">
    <g id="g30">
      <circle id="circle24" cx="-1248.7" cy="-1241.6" r="0"/>
      <circle id="circle26" cx="-1140.3" cy="-1301.8" r="0"/>
      <circle id="circle28" cx="-1158.1" cy="-1246" r="0"/>
    </g>
    <circle id="circle36" cx="-1157.3" cy="-1267.7" r="0"/>
    <circle id="circle38" cx="-57.756" cy="-2.1829" r="0" fill-rule="evenodd"/>
  </g>
  <g stroke-linecap="round" stroke-width="2.74436">
    <rect id="rect1055" x="4.5" y="4.5" width="55" height="55" ry="15" fill="#141414" filter="url(#filter1057)" opacity=".3"/>
    <rect id="rect1045" x="4.5000019" y="4.5000019" width="54.999996" height="54.999996" ry="14.999999" fill="#eaeaea"/>
    <path id="path2" d="m4.499998 42.5v2c0 8.309999 6.690001 15 15 15h25.000004c8.31 0 15-6.690001 15-15v-2c0 8.309999-6.69 15-15 15h-25.000004c-8.309999 0-15-6.690001-15-15z" fill="#b0b0b0"/>
  </g>
  <path id="rect40-5" d="m18.871095 10.631c-4.56524 0-8.24024 3.674998-8.24024 8.240235v23.572265h42.73828v-23.572265c0-4.565237-3.675-8.240235-8.24023-8.240235z" fill="#363142" stroke="#241f31" stroke-width="2.4"/>
  <g id="g6" transform="matrix(.55408453 0 0 .55408453 21.334308 22.816489)">
    <path id="path3" d="m9.4308551 48.010688h8.7265599v2.179686c0 2.41016-1.95312 4.36328-4.36328 4.36328-2.41015 0-4.3632799-1.95312-4.3632799-4.36328z" fill="#949390"/>
    <path id="path4" d="m20.341015 48.010688h8.72656v2.179686c0 2.41016-1.95313 4.36328-4.36328 4.36328-2.41016 0-4.36328-1.95312-4.36328-4.36328z" fill="#949390"/>
    <path id="path5" d="m18.157415 48.010688c0 2.410156-1.95312 4.363286-4.36328 4.363286-2.41015 0-4.3632799-1.95313-4.3632799-4.363286s1.9531299-4.367188 4.3632799-4.367188c2.41016 0 4.36328 1.957032 4.36328 4.367188z" fill="#d5d3cf"/>
    <path id="path6" d="m29.067575 48.010688c0 2.410156-1.95313 4.363286-4.36328 4.363286-2.41016 0-4.36328-1.95313-4.36328-4.363286s1.95312-4.367188 4.36328-4.367188c2.41015 0 4.36328 1.957032 4.36328 4.367188z" fill="#d5d3cf"/>
  </g>
  <g id="g41" transform="matrix(.42245705 0 0 .42245705 64.952433 26.240413)">
    <path id="path7" d="m-37 26.230469c1.08984 0.191406 2.13281-0.535157 2.27344-1.628907 0.73828-5.691406 0.34375-11.480468-1.16406-17.03125-1.67969-6.195312-4.70704-11.941406-8.867192-16.835937-4.15625-4.890625-9.34375-8.800781-15.1875-11.457031-5.84375-2.660156-12.199219-3.992188-18.621094-3.910156-6.417969 0.08203-12.738282 1.582031-18.511719 4.386718-5.773435 2.804688-10.855465 6.851563-14.886715 11.847656-4.03125 4.996094-6.91016 10.820313-8.42969 17.058594-1.36328 5.585938-1.60938 11.382813-0.72266 17.054688 0.16797 1.089844 1.22656 1.789062 2.3125 1.570312l13.1836-2.679687c1.08203-0.21875 1.77343-1.273438 1.63671-2.371094-0.39062-3.148437-0.20703-6.347656 0.54688-9.4375 0.91016-3.742187 2.64062-7.238281 5.058594-10.234375 2.417968-3 5.46875-5.425781 8.929687-7.109375 3.464844-1.683594 7.257813-2.582031 11.109375-2.632813 3.851563-0.05078 7.667969 0.75 11.171875 2.34375 3.507813 1.59375 6.617188 3.941407 9.113281 6.878907 2.496094 2.933593 4.3125 6.382812 5.320313 10.097656 0.832031 3.074219 1.097656 6.265625 0.789063 9.425781-0.109376 1.097656 0.609374 2.136719 1.695312 2.328125z" fill="#3584e4"/>
    <path id="path8" d="m-37 26.230469c1.08984 0.191406 2.13281-0.535157 2.27344-1.628907 0.82812-6.398437 0.22656-12.90625-1.76563-19.058593-1.99609-6.152344-5.32812-11.773438-9.749998-16.46875-0.757812-0.804688-2.027343-0.78125-2.796874 0.01563l-9.359376 9.664062c-0.769531 0.792969-0.742187 2.054688-0.0078 2.882813 2.386719 2.691406 4.195312 5.851562 5.308594 9.289062 1.113281 3.4375 1.503906 7.058594 1.152344 10.640625-0.109376 1.097656 0.609374 2.136719 1.695312 2.328125z" fill="#ed333b"/>
    <g id="g37" transform="translate(-142,-53)" fill="#ffffff">
      <path id="path9" d="m33.914062 41.914062c0.429688-0.425781 1.117188-0.425781 1.542969 0l3.085938 3.085938c0.425781 0.425781 0.425781 1.117188 0 1.542969s-1.117188 0.425781-1.542969 0l-3.085938-3.085938c-0.425781-0.425781-0.425781-1.117187 0-1.542969z"/>
      <path id="path32" d="m89.457031 46.542969c-0.425781-0.425781-0.425781-1.117188 0-1.542969l3.085938-3.085938c0.425781-0.425781 1.117187-0.425781 1.542969 0 0.425781 0.429688 0.425781 1.117188 0 1.542969l-3.085938 3.085938c-0.425781 0.425781-1.117188 0.425781-1.542969 0z"/>
      <path id="path33" d="m47.722656 32.691406c0.554688-0.230468 1.191406 0.03516 1.421875 0.59375l1.671875 4.03125c0.230469 0.554688-0.03516 1.191406-0.589844 1.421875-0.558593 0.230469-1.195312-0.03125-1.425781-0.589843l-1.671875-4.03125c-0.230468-0.554688 0.03516-1.195313 0.59375-1.425782z"/>
      <path id="path34" d="m97.261719 58.222656c-0.230469-0.554687 0.03516-1.195312 0.589843-1.425781l4.031248-1.667969c0.5586-0.230468 1.19532 0.03125 1.42578 0.589844 0.23047 0.554688-0.0312 1.195312-0.58984 1.425781l-4.03125 1.667969c-0.554688 0.230469-1.195312-0.03125-1.425781-0.589844z"/>
      <path id="path35" d="m80.285156 32.691406c0.554688 0.230469 0.820313 0.871094 0.589844 1.425782l-1.671875 4.03125c-0.230469 0.558593-0.867187 0.820312-1.425781 0.589843-0.554688-0.230469-0.820313-0.867187-0.589844-1.421875l1.671875-4.03125c0.230469-0.558594 0.867187-0.824218 1.425781-0.59375z"/>
      <path id="path36" d="m24.695312 55.71875c0.230469-0.558594 0.871094-0.820312 1.425782-0.589844l4.03125 1.667969c0.558594 0.230469 0.820312 0.871094 0.589844 1.425781-0.230469 0.558594-0.867188 0.820313-1.421876 0.589844l-4.03125-1.667969c-0.558593-0.230469-0.824218-0.871093-0.59375-1.425781z"/>
      <path id="path37" d="m64 29.453125c0.605469 0 1.09375 0.488281 1.09375 1.09375v4.363281c0 0.601563-0.488281 1.089844-1.09375 1.089844-0.601562 0-1.089844-0.488281-1.089844-1.089844v-4.363281c0-0.605469 0.488282-1.09375 1.089844-1.09375z"/>
    </g>
    <path id="path38" d="m-73.425781 21.976562c-0.972657 1.492188-2.660157 2.476563-4.574219 2.476563-3.011719 0-5.453125-2.441406-5.453125-5.453125 0-1.773438 0.847656-3.351562 2.160156-4.347656 0.167969-0.195313 0.359375-0.382813 0.5625-0.5625l34.527344-29.695313c0.644531-0.554687 1.613281-0.519531 2.214844 0.08203 0.597656 0.597657 0.640625 1.550782 0.09766 2.199219l-29.207035 34.941408c-0.105469 0.125-0.214844 0.246093-0.328125 0.359374z" fill="url(#linearGradient41)" fill-rule="evenodd"/>
    <path id="path39" d="m-42.003906 19c0-0.601562 0.492186-1.089844 1.093746-1.089844h4.36329c0.60156 0 1.08984 0.488282 1.08984 1.089844s-0.48828 1.089844-1.08984 1.089844h-4.36329c-0.60156 0-1.093746-0.488282-1.093746-1.089844z" fill="#ffffff"/>
    <path id="path40" d="m-120.54688 19c0-0.601562 0.48829-1.089844 1.08985-1.089844h4.36328c0.60547 0 1.09375 0.488282 1.09375 1.089844s-0.48828 1.089844-1.09375 1.089844h-4.36328c-0.60156 0-1.08985-0.488282-1.08985-1.089844z" fill="#ffffff"/>
    <path id="path41" d="m-78 16.816406c-1.207031 0-2.183594 0.980469-2.183594 2.183594s0.976563 2.183594 2.183594 2.183594c1.203125 0 2.179688-0.980469 2.179688-2.183594s-0.976563-2.183594-2.179688-2.183594z" fill="#68676b"/>
  </g>
</svg>
