<svg id="svg24" width="64" height="64" version="1.1" viewBox="0 0 16.933 16.933" xmlns="http://www.w3.org/2000/svg" xmlns:xlink="http://www.w3.org/1999/xlink">
    <defs id="defs12">
        <filter id="filter1057" x="-.026999999" y="-.026999999" width="1.054" height="1.054" color-interpolation-filters="sRGB">
            <feGaussianBlur id="feGaussianBlur1059" stdDeviation="0.61875"/>
        </filter>
        <linearGradient id="linearGradient1053" x1="-127" x2="-72" y1="60" y2="5" gradientTransform="matrix(.26457812 0 0 .26457812 34.792023 -.13493401)" gradientUnits="userSpaceOnUse">
            <stop id="stop1047" stop-color="#e26c00" offset=".29263905"/>
            <stop id="stop1049" stop-color="#f3b854" offset="1"/>
        </linearGradient>
        <filter id="filter5963" x="-.012" y="-.012" width="1.024" height="1.024" color-interpolation-filters="sRGB">
            <feGaussianBlur id="feGaussianBlur5965" stdDeviation="0.066144533"/>
        </filter>
    </defs>
    <g stroke-linecap="round">
        <rect id="rect1055" transform="scale(.26457812)" x="4.4999995" y="4.4999995" width="55" height="55" ry="15" fill="#141414" filter="url(#filter1057)" opacity=".3" stroke-width="2.74436"/>
        <rect id="rect1045" x="1.1906021" y="1.1906021" width="14.551796" height="14.551796" ry="3.9686716" fill="url(#linearGradient1053)" stroke-width=".726098"/>
        <rect id="rect5961" x="1.8520467" y="1.8520467" width="13.228907" height="13.228907" ry="3.6078835" fill="#020202" filter="url(#filter5963)" opacity=".4" stroke-width=".660089"/>
    </g>
    <g id="g5981">
        <rect id="rect5787" x="1.8520467" y="1.8520467" width="13.228907" height="13.228907" ry="3.6078835" fill="#ececec" stroke-linecap="round" stroke-width=".660089"/>
        <g fill-rule="evenodd">
            <rect id="Separator" x="1.8520471" y="6.6871591" width="13.228907" height=".1147963" fill-opacity=".1"/>
            <rect id="rect469" x="1.8520471" y="10.245845" width="13.228907" height=".1147963" fill-opacity=".1"/>
            <path id="3" d="m4.6009796 11.467345c-0.0033 0-0.00665-6.08e-4 -0.010027-0.0018l-0.5543984-0.198222c-0.016383-0.0059-0.028493-0.01506-0.036737-0.02782-0.00774-0.01197-0.011615-0.02683-0.011615-0.04408 0-0.0072 4.772e-4 -0.01336 0.00178-0.01895 7.81e-4 -0.0036 0.00546-0.01486 0.00735-0.01785l0.033856-0.06093c0.00903-0.01496 0.01926-0.02643 0.030975-0.0345 0.012808-0.0092 0.027599-0.01376 0.04279-0.01376 0.00256 0 0.012908 0.0012 0.01559 0.0019 0.00486 0.0012 0.010027 0.0031 0.014991 0.0057l0.5081319 0.298162c0.013403 0.0079 0.018566 0.02503 0.011615 0.03909l-0.027599 0.05644c-0.00496 0.01017-0.01539 0.01665-0.026706 0.01665zm-0.1689801 0.396685c-0.00814 1e-4 -0.01539 0.0053-0.018267 0.01306l-0.1374081 0.376741c-0.00217 6e-3 -0.0013 0.01286 0.00239 0.01815 0.00377 0.0054 0.00983 0.0086 0.016284 0.0086h0.2896091c0.00655 0 0.012808-0.0033 0.016479-0.0089 0.00369-0.0054 0.00437-0.01247 2e-3 -0.01855l-0.1523081-0.376631c-0.00299-0.0076-0.010326-0.01246-0.018366-0.01246zm0.2901059 1.022129c-0.062548 0-0.099879-0.0069-0.1210264-0.02204-0.02333-0.01695-0.035145-0.04537-0.035145-0.08466 0-0.04687 0.020848-0.0704 0.038325-0.08197 0.021842-0.01446 0.057882-0.02144 0.1104032-0.02144h0.024918c0.00655 0 0.012709-0.0033 0.016483-0.0089 0.00369-0.0054 0.00437-0.01247 0.00187-0.01855l-0.062548-0.153968c-0.00308-0.0075-0.010326-0.01247-0.018366-0.01247h-0.4713021c-0.00834 0-0.015885 0.0052-0.018666 0.01316l-0.055483 0.153963c-0.00217 0.0061-0.0013 0.01286 0.00239 0.01825 0.00369 0.0053 0.00983 0.0085 0.016284 0.0085h0.032364c0.053017 0 0.089454 0.0069 0.1116936 0.02134 0.025911 0.01675 0.039119 0.04438 0.039119 0.08207 0 0.04876-0.01916 0.07299-0.035245 0.08466-0.020848 0.01497-0.05828 0.02204-0.1177505 0.02204h-0.279283c-0.053812 0-0.087071-0.0069-0.1079209-0.02234-0.022935-0.01685-0.03445-0.04527-0.03445-0.08436 0-0.04697 0.018865-0.0704 0.03475-0.08177 0.018366-0.01326 0.047756-0.02025 0.089752-0.02144 0.00804-3.44e-4 0.01519-0.0054 0.017971-0.01296l0.3236638-0.860982c0.0023-0.0061 0.00148-0.01296-0.0023-0.01825-0.00369-0.0055-0.00973-0.0087-0.016284-0.0087h-0.0832c-0.050436 0-0.084589-0.0072-0.1075235-0.02264-0.025912-0.01755-0.039119-0.04597-0.039119-0.08396 0-0.03859 0.012209-0.06781 0.035244-0.08456 0.015091-0.01097 0.043883-0.02214 0.1421735-0.02214h0.3026152c0.046564 0 0.077342 0.0069 0.096901 0.02134 0.018466 0.01386 0.033956 0.0366 0.047557 0.0696l0.4029909 1.01076c0.00286 0.0073 0.00983 0.01227 0.017672 0.01257 0.037232 0.0014 0.063839 0.0085 0.081512 0.02164 0.021941 0.01665 0.033162 0.04398 0.033162 0.08147 0 0.03849-0.010526 0.06651-0.031175 0.08346-0.01936 0.01585-0.049245 0.02323-0.09422 0.02323z" fill="#e3450d"/>
            <path id="2" d="m4.763209 7.8784116c-0.08169 0-0.1501179 0.037098-0.2033751 0.1100694-0.066625 0.099263-0.097497 0.2698263-0.097497 0.5374244 0 0.2307226 0.034693 0.4185536 0.097497 0.5287345 0.049757 0.073417 0.1241257 0.1147486 0.2052846 0.1147486 0.204012 0 0.2989623-0.2050991 0.2989623-0.6454885 0-0.2684894-0.030025-0.4390524-0.09442-0.5366444-0.053894-0.071634-0.1249743-0.108844-0.2064517-0.108844m-0.00191 1.4490625c-0.3654812 0-0.5776615-0.2595768-0.5975004-0.7309372-4.248e-4 -0.011921-0.00987-0.02139-0.021217-0.02139h-0.1524505c-0.011671 0-0.021217 0.010026-0.021217 0.022393v0.4246811c0 0.089571 0.00689 0.1048334 0.014535 0.1138574 0.00934 0.00869 0.022384 0.015374 0.091662 0.015374 0.017611 0 0.031825 0.01504 0.031825 0.033422v0.079433c0 0.018382-0.014214 0.033422-0.031825 0.033422h-0.5141133c-0.017611 0-0.031825-0.01504-0.031825-0.033422v-0.079433c0-0.018382 0.014214-0.033422 0.031825-0.033422 0.1058782 0 0.1156384-0.010806 0.1156384-0.1292314v-0.9965302c0-0.089905-0.00668-0.1046106-0.014748-0.1135231-0.00902-0.00891-0.022705-0.015931-0.100892-0.015931-0.017611 0-0.031825-0.014929-0.031825-0.033422v-0.079321c0-0.018493 0.014214-0.033422 0.031825-0.033422h0.5141135c0.017611 0 0.031825 0.014928 0.031825 0.033422v0.079321c0 0.018493-0.014214 0.033422-0.031825 0.033422-0.068534 0-0.081796 0.00624-0.089434 0.012589-0.010292 0.012366-0.016761 0.027852-0.016761 0.1168653v0.3631847c0 0.012255 0.00955 0.022281 0.021217 0.022281h0.156483c0.011034 0 0.020158-0.00891 0.021113-0.020387 0.035327-0.4261293 0.2523887-0.6704435 0.5954844-0.6704435 0.3829858 0 0.6026988 0.2927759 0.6026988 0.8035741 0 0.2714973-0.056652 0.4791587-0.1682591 0.6170798-0.1066203 0.1218785-0.2575869 0.1864943-0.436349 0.1864943" fill="#1595e0"/>
            <path id="1" d="m4.353574 4.300188c-0.00234 0-0.00457 4.247e-4 -0.00679 0.00117-0.04662 0.015807-0.1025863 0.03257-0.1762868 0.052621-0.00924 0.00255-0.015715 0.010927-0.015715 0.020475v0.2791235c0 0.00923 0.00616 0.017399 0.014973 0.020157 0.00213 7.463e-4 0.00425 0.00105 0.00637 0.00105 0.0068 0 0.013381-0.00329 0.017416-0.00923l0.073595-0.1059842c0.00499-0.00721 0.012852-0.011988 0.021451-0.013368h0.00221c0.010622 0 0.016887 0.00233 0.022302 0.00658l0.1125682 0.089328c0.00382 0.00297 0.0085 0.00467 0.013168 0.00467 0.00317 0 0.00627-7.463e-4 0.00924-0.00212 0.00733-0.00361 0.012001-0.011033 0.012001-0.019202v-0.2632136c0-0.00806 0.00299-0.015701 0.0085-0.021536 0.00627-0.0069 0.00743-0.016974 0.00265-0.025037-0.00382-0.00668-0.010834-0.010609-0.018266-0.010609-0.00161 0-0.00317 2.066e-4 -0.00478 5.293e-4 -0.00988 0.00223-0.020601 0.00339-0.031964 0.00339-0.017629 0-0.036425-0.00265-0.05724-0.00806-0.00182-5.294e-4 -0.0036-7.463e-4 -0.00541-7.463e-4zm-0.1774544 0.4889699c-0.011789 0-0.021347 0.00955-0.021347 0.021218v0.1165935c0 0.00944 0.00627 0.017611 0.015186 0.020369 0.1158605 0.03501 0.2010303 0.082538 0.2529602 0.1412061 0.00412 0.00467 0.00998 0.00721 0.015928 0.00721 0.00256 0 0.0051-4.247e-4 0.00754-0.00138 0.00828-0.00308 0.013698-0.011033 0.013698-0.019839v-0.268086c0-0.00626-0.00278-0.0122-0.00764-0.016232-0.00382-0.00318-0.0086-0.00499-0.013594-0.00499-0.00117 0-0.00256 2.066e-4 -0.00373 4.247e-4 -0.015611 0.00286-0.031648 0.0035-0.047258 0.0035zm0.5695327-0.2666048c-0.01168 0-0.021239 0.00955-0.021239 0.021218v0.9620268c0 0.01167 0.00956 0.021218 0.021239 0.021218h0.2514737c0.01168 0 0.021239-0.00955 0.021239-0.021218v-0.9620268c0-0.01167-0.00956-0.021218-0.021239-0.021218zm-0.8194136 1.361032c-0.017629 0-0.03186-0.014216-0.03186-0.031827v-0.5269505c0-0.00912-0.00595-0.017292-0.014657-0.020157-0.00221-7.463e-4 -0.00446-0.00105-0.00659-0.00105-0.00669 0-0.013064 0.00318-0.017203 0.00881-0.072532 0.099301-0.1571711 0.190326-0.25158 0.2706363-0.00574 0.00488-0.01306 0.00764-0.020709 0.00764-0.00892 0-0.017312-0.00371-0.023365-0.01029l-0.0227235-0.0245168c-0.0100878-0.0110332-0.0112549-0.0277959-0.0025599-0.0399959 0.1235069-0.1748368 0.2268361-0.4237245 0.2909789-0.7007262 0.00148-0.00626 0-0.012943-0.00404-0.017929-0.00404-0.00509-0.010196-0.00806-0.016674-0.00806h-0.2235394c-0.014657 0-0.027291-0.00987-0.030901-0.024083l-0.00945-0.037874c-0.00234-0.00955-2.182e-4 -0.01952 0.00584-0.027265 0.00605-0.00774 0.015186-0.0122 0.02517-0.0122h0.3007487c0.01168 0 0.021239-0.00955 0.021239-0.021218v-0.223114c0-0.00626-0.00286-0.012307-0.00765-0.016338-0.00395-0.00318-0.00871-0.00488-0.013594-0.00488-0.00139 0-0.00256 1.061e-4 -0.00395 3.214e-4 -0.093984 0.017292-0.1934902 0.032252-0.2875802 0.043179h-5.207e-4c-0.017416 0-0.029417-0.00902-0.033557-0.022279l-0.00765-0.024613c-0.00499-0.01655 0.00382-0.033843 0.020176-0.039359 0.224818-0.076703 0.5162217-0.2201374 0.6634104-0.3265458 0.00552-0.00395 0.011997-0.00606 0.018687-0.00606 0.00733 0 0.014231 0.00243 0.019963 7e-3l0.2270596 0.1814198c0.00701 0.00562 0.011364 0.01411 0.011893 0.023128 5.207e-4 0.00902-0.00286 0.017823-0.00935 0.024189-0.0033 0.00339-0.0069 0.00647-0.010834 0.00902-0.00765 0.0053-0.011047 0.014853-0.00839 0.023764 0.00265 0.00881 0.010726 0.014959 0.020072 0.015065 0.00412 1.061e-4 0.00818 9.545e-4 0.012001 0.00265l0.1999681 0.086358 0.3000054 0.0017c0.00669 0 0.013064-0.00318 0.017099-0.00849l0.067329-0.090283c0.00605-0.00806 0.015399-0.012731 0.025595-0.012731 0.00679 0 0.013277 0.00212 0.018692 0.00605l0.2196149 0.1607267c0.013806 0.010078 0.017099 0.029175 0.00765 0.043285-0.011468 0.017187-0.032389 0.031827-0.062337 0.043391-0.00828 0.00308-0.013698 0.011033-0.013698 0.019733v1.1404705c0 0.040845-0.1001431 0.08657-0.2342697 0.08657-0.017629 0-0.03186-0.014216-0.03186-0.031721v-0.1284809c0-0.01167-0.00956-0.021218-0.021239-0.021218h-0.2514722c-0.01168 0-0.021239 0.00955-0.021239 0.021218v0.084978c0 0.023446-0.039397 0.1111826-0.2324644 0.1111826-0.017525 0-0.03186-0.014216-0.03186-0.031827v-0.4658421c0-0.00806-0.00456-0.015383-0.011789-0.01899-0.00299-0.00148-0.00627-0.00223-0.00945-0.00223-0.00456 0-0.00913 0.00148-0.012847 0.00446-0.021347 0.016232-0.046939 0.024825-0.074019 0.024825-0.034724 0-0.068709-0.015595-0.098232-0.045195-0.00489-0.00488-0.00807-0.011245-0.00902-0.018141-0.00574-0.040739-0.02294-0.089116-0.049912-0.139827-0.00373-0.00711-0.011042-0.011351-0.018692-0.011351-0.00169 0-0.00351 2.066e-4 -0.0052 6.335e-4 -0.00945 0.00233-0.016141 0.010927-0.016141 0.020581v0.6321977c-0.00616 0.045831-0.096321 0.088479-0.1926416 0.088479z" fill="#c057ea"/>
        </g>
    </g>
</svg>
