<svg id="svg1591" version="1.1" viewBox="0 0 64 64" xmlns="http://www.w3.org/2000/svg">
  <defs id="defs1559">
    <style id="style1535" type="text/css"/>
    <filter id="filter1057" x="-.026999999" y="-.026999999" width="1.054" height="1.054" color-interpolation-filters="sRGB">
      <feGaussianBlur id="feGaussianBlur1537" stdDeviation="0.61875"/>
    </filter>
    <style id="style1545" type="text/css"/>
    <style id="style1547" type="text/css"/>
    <style id="style1549" type="text/css"/>
    <style id="style1551" type="text/css"/>
    <style id="style1553" type="text/css"/>
    <style id="style1555" type="text/css"/>
    <style id="style1557" type="text/css"/>
    <clipPath id="a">
      <rect id="rect2" width="1024" height="1024" rx="200" fill="#ffffff"/>
    </clipPath>
    <linearGradient id="linearGradient5" x1="4.5" x2="59.5" y1="59.5" y2="4.5" gradientUnits="userSpaceOnUse">
      <stop id="stop4" stop-color="#000000" offset="0"/>
      <stop id="stop5" stop-color="#1a1a1a" offset="1"/>
    </linearGradient>
  </defs>
  <circle id="circle1561" cx="-1124.8" cy="-1279.3" r="0" fill="#5e4aa6"/>
  <g id="g1571" transform="matrix(3.7796,0,0,3.7796,123.83,-38.184)" fill="#5e4aa6" stroke-width=".26458">
    <circle id="circle1563" cx="-299.02" cy="-338.77" r="0"/>
    <circle id="circle1565" cx="-8.1062" cy="-3.9487" r="0" fill-rule="evenodd"/>
    <circle id="circle1567" cx="-278.25" cy="-357.69" r="0"/>
    <circle id="circle1569" cx="12.663" cy="-22.859" r="0" fill-rule="evenodd"/>
  </g>
  <rect id="rect1573" x="4.5" y="4.5" width="55" height="55" ry="15" fill="#141414" filter="url(#filter1057)" opacity=".3" stroke-linecap="round" stroke-width="2.7444"/>
  <rect id="rect1575" x="4.5" y="4.5" width="55" height="55" ry="15" fill="url(#linearGradient5)" stroke-linecap="round" stroke-width="2.7444"/>
  <g id="g3" transform="matrix(.05521409 0 0 .05521409 3.7303859 3.7277655)">
    <g id="g2" clip-path="url(#a)" fill="#ffffff">
      <path id="path1" d="m724.985 682.919c-17.255 50.411-51.835 93.065-97.588 120.372-45.752 27.307-99.71 37.496-152.269 28.753-52.56-8.743-100.314-35.85-134.763-76.498s-53.359-92.199-53.365-145.482v-110.25l79.121 33.053v77.152c-7e-3 20.779 4.434 41.318 13.024 60.237 8.59 18.92 21.131 35.781 36.78 49.451 2.97 2.587 6.053 5.107 9.236 7.459 23.357 17.388 51.402 27.352 80.494 28.597 0.99 0 1.946 0.079 2.925 0.101 0.979 0.023 2.25 0 3.375 0h3.375c1.125 0 1.935 0 2.925-0.101 29.081-1.248 57.116-11.203 80.471-28.575 3.173-2.351 6.255-4.86 9.237-7.447 20.556-17.98 35.656-41.366 43.582-67.5zm12.015-268.919v196.065c0 2.531 0 5.074-0.158 7.605l-78.963-33.019v-170.651c-0.013-37.684-14.607-73.901-40.725-101.066-26.119-27.164-61.735-43.168-99.389-44.66-37.655-1.492-74.426 11.644-102.611 36.657-28.186 25.013-45.6 59.962-48.594 97.526-0.281 3.803-0.439 7.662-0.439 11.543v48.712l-79.121-33.075v-240.637h225c59.674 0 116.903 23.705 159.099 65.901s65.901 99.425 65.901 159.099z"/>
    </g>
  </g>
</svg>
