<svg id="svg475" version="1.1" viewBox="0 0 64 64" xmlns="http://www.w3.org/2000/svg" xmlns:xlink="http://www.w3.org/1999/xlink">
    <defs id="defs461">
        <style id="style449" type="text/css"/>
        <style id="style451" type="text/css"/>
        <filter id="filter1057" x="-.026999999" y="-.026999999" width="1.054" height="1.054" color-interpolation-filters="sRGB">
            <feGaussianBlur id="feGaussianBlur453" stdDeviation="0.61875"/>
        </filter>
        <filter id="filter910-0" x="-.027119026" y="-.026881727" width="1.0542381" height="1.0537635" color-interpolation-filters="sRGB">
            <feGaussianBlur id="feGaussianBlur912-9" stdDeviation="0.36968963"/>
        </filter>
        <linearGradient id="linearGradient1053" x1="-127" x2="-72" y1="60" y2="5" gradientTransform="matrix(.95246726 0 0 .95246726 126.76937 1.0351641)" gradientUnits="userSpaceOnUse">
            <stop id="stop343" stop-color="#f0f0f0" offset="0"/>
            <stop id="stop345" stop-color="#fff" offset="1"/>
        </linearGradient>
        <linearGradient id="linearGradient14229" x1="-127" x2="-72" y1="60" y2="5" gradientTransform="matrix(.99999309 0 0 .99999309 131.49813 -.50990834)" gradientUnits="userSpaceOnUse" xlink:href="#linearGradient1053"/>
        <linearGradient id="linearGradient14231" x1="-127" x2="-72" y1="60" y2="5" gradientTransform="matrix(.86587935 0 0 .86587935 118.15398 3.8501485)" gradientUnits="userSpaceOnUse" xlink:href="#linearGradient1053"/>
    </defs>
    <circle id="circle471" cx="-1320.6" cy="-1254.4" r="0" fill="#5e4aa6"/>
    <circle id="circle473" cx="-221.04" cy="11.089" r="0" fill="#5e4aa6" fill-rule="evenodd"/>
    <g id="g19" stroke-linecap="round">
        <rect id="rect463" x="4.5" y="4.5" width="55" height="55" ry="15" fill="#141414" filter="url(#filter1057)" opacity=".3" stroke-width="2.7444"/>
        <rect id="rect14227" x="4.5" y="4.5" width="55" height="55" ry="14.999896" fill="url(#linearGradient14229)" stroke-width="2.74437"/>
        <rect id="rect368" x="8.1881542" y="8.1881542" width="47.623692" height="47.623692" ry="12.98819" fill="url(#linearGradient14231)" stroke="#333" stroke-width="2.37631"/>
    </g>
    <g id="g14225" transform="matrix(.81179223 0 0 .81179223 6.0276245 6.0251521)">
        <path id="path354-3" d="m39.610778 15.495714c-0.603287-5e-3 -1.207653-2e-3 -1.783204 0.0469l-0.34375 0.0293-0.09375 0.33203c-0.121274 0.42849-0.141035 0.81321 0.02539 1.14648 0.166427 0.33328 0.489045 0.50888 0.769531 0.58985 0.560976 0.16192 1.140245 0.12599 1.546875 0.23242l0.03516 8e-3c0.654694 0.12198 1.094851 0.504625 1.410156 1.058592 0.315304 0.553968 0.471959 1.277732 0.470703 1.941406v14.923843l-15.320319-20.304691h-9.41406c-0.30933 0-0.59017 0.065-0.81055 0.24024-0.22038 0.17527-0.32283 0.43975-0.3457 0.65039-0.0457 0.42128 0.0953 0.76628 0.10938 0.84765l0.0606 0.35352 0.35546 0.0547c0.74612 0.11555 1.33257 0.55333 1.90625 1.158203 0.52657 0.555189 1.02578 1.233876 1.5879 1.83789v21.695313l2e-3 0.02539c0.0667 0.692879-0.10235 1.441736-0.46094 1.988282s-0.8643 0.8978-1.59961 0.916015c-0.56361 6e-3 -1.09693 0.0295-1.55274 0.345703-0.2287 0.158658-0.41648 0.415834-0.48828 0.710938-0.0718 0.295103-0.0475 0.610775 0.043 0.957031l0.0977 0.373047 7.35743 2e-3h6e-3c1.12955-0.026 2.40423 0.05554 3.55468-0.04297l0.3418-0.0293 0.0957-0.330079c0.12203-0.421836 0.13598-0.809087-0.0215-1.140625-0.15747-0.331536-0.46024-0.52388-0.73828-0.626953-0.55608-0.206145-1.14816-0.205021-1.57422-0.318359l-0.0273-0.0078-0.0293-0.0039c-0.71051-0.104102-1.17456-0.495393-1.50195-1.070312-0.3274-0.574919-0.47858-1.335164-0.45508-2.03711v-0.0176c-9e-3 -5.860764 0.0383-11.725724 0.0586-17.591797l18.76553 24.060506h3.060547v-27.583984l-2e-3 -0.01563c-0.04465-0.66831 0.03844-1.431313 0.294922-1.990235 0.255982-0.557841 0.614403-0.911594 1.308593-0.986324h0.0039c0.5437-0.0322 1.062477-0.0695 1.507812-0.38282 0.225914-0.15896 0.414134-0.41579 0.486328-0.71093 0.07219-0.29515 0.04784-0.60988-0.04297-0.95703l-0.09766-0.37305h-6.78715c-0.56524 0.0131-1.168689 1e-3 -1.771484-4e-3z" color="#000000" filter="url(#filter910-0)" opacity=".3"/>
        <path id="path6020-6" d="m39.610778 15.495714c-0.603287-5e-3 -1.207653-2e-3 -1.783204 0.0469l-0.34375 0.0293-0.09375 0.33203c-0.121274 0.42849-0.141035 0.81321 0.02539 1.14648 0.166427 0.33328 0.489045 0.50888 0.769531 0.58985 0.560976 0.16192 1.140245 0.12599 1.546875 0.23242l0.03516 8e-3c0.654694 0.12198 1.094851 0.504625 1.410156 1.058592 0.315304 0.553968 0.471959 1.277732 0.470703 1.941406v14.923843l-15.320319-20.304691h-9.41406c-0.30933 0-0.59017 0.065-0.81055 0.24024-0.22038 0.17527-0.32283 0.43975-0.3457 0.65039-0.0457 0.42128 0.0953 0.76628 0.10938 0.84765l0.0606 0.35352 0.35546 0.0547c0.74612 0.11555 1.33257 0.55333 1.90625 1.158203 0.52657 0.555189 1.02578 1.233876 1.5879 1.83789v21.695313l2e-3 0.02539c0.0667 0.692879-0.10235 1.441736-0.46094 1.988282s-0.8643 0.8978-1.59961 0.916015c-0.56361 6e-3 -1.09693 0.0295-1.55274 0.345703-0.2287 0.158658-0.41648 0.415834-0.48828 0.710938-0.0718 0.295103-0.0475 0.610775 0.043 0.957031l0.0977 0.373047 7.35743 2e-3h6e-3c1.12955-0.026 2.40423 0.05554 3.55468-0.04297l0.3418-0.0293 0.0957-0.330079c0.12203-0.421836 0.13598-0.809087-0.0215-1.140625-0.15747-0.331536-0.46024-0.52388-0.73828-0.626953-0.55608-0.206145-1.14816-0.205021-1.57422-0.318359l-0.0273-0.0078-0.0293-0.0039c-0.71051-0.104102-1.17456-0.495393-1.50195-1.070312-0.3274-0.574919-0.47858-1.335164-0.45508-2.03711v-0.0176c-9e-3 -5.860764 0.0383-11.725724 0.0586-17.591797l18.76553 24.060506h3.060547v-27.583984l-2e-3 -0.01563c-0.04465-0.66831 0.03844-1.431313 0.294922-1.990235 0.255982-0.557841 0.614403-0.911594 1.308593-0.986324h0.0039c0.5437-0.0322 1.062477-0.0695 1.507812-0.38282 0.225914-0.15896 0.414134-0.41579 0.486328-0.71093 0.07219-0.29515 0.04784-0.60988-0.04297-0.95703l-0.09766-0.37305h-6.78715c-0.56524 0.0131-1.168689 1e-3 -1.771484-4e-3z" color="#000000" fill="#333"/>
    </g>
</svg>
