<?xml version="1.0" encoding="UTF-8" standalone="no"?>
<svg
   id="svg30"
   version="1.1"
   viewBox="0 0 64 64"
   sodipodi:docname="obsidian.svg"
   inkscape:version="1.2 (dc2aedaf03, 2022-05-15)"
   xmlns:inkscape="http://www.inkscape.org/namespaces/inkscape"
   xmlns:sodipodi="http://sodipodi.sourceforge.net/DTD/sodipodi-0.dtd"
   xmlns="http://www.w3.org/2000/svg"
   xmlns:svg="http://www.w3.org/2000/svg">
  <sodipodi:namedview
     id="namedview61"
     pagecolor="#ffffff"
     bordercolor="#666666"
     borderopacity="1.0"
     inkscape:showpageshadow="2"
     inkscape:pageopacity="0.0"
     inkscape:pagecheckerboard="0"
     inkscape:deskcolor="#d1d1d1"
     showgrid="false"
     inkscape:zoom="5.6568543"
     inkscape:cx="14.142136"
     inkscape:cy="28.284271"
     inkscape:window-width="1920"
     inkscape:window-height="1052"
     inkscape:window-x="0"
     inkscape:window-y="28"
     inkscape:window-maximized="1"
     inkscape:current-layer="svg30" />
  <defs
     id="defs10">
    <linearGradient
       id="linearGradient862-3"
       x1="7.9373"
       x2="7.9373"
       y1="15.081"
       y2="1.852"
       gradientTransform="matrix(3.7795 0 0 3.7795 .00014324 .031541)"
       gradientUnits="userSpaceOnUse">
      <stop
         id="stop5"
         stop-color="#544296"
         offset="0" />
      <stop
         id="stop7"
         stop-color="#ac9bf4"
         offset="1" />
    </linearGradient>
    <linearGradient
       id="b-3"
       x1="399.57"
       x2="399.57"
       y1="545.8"
       y2="517.8"
       gradientTransform="matrix(2.1429,0,0,2.1429,-1126.4738,-1188.9201)"
       gradientUnits="userSpaceOnUse">
      <stop
         id="stop855"
         stop-color="#3889e9"
         offset="0" />
      <stop
         id="stop857"
         stop-color="#5ea5fb"
         offset="1" />
    </linearGradient>
    <style
       id="style860"
       type="text/css" />
    <style
       id="style867"
       type="text/css" />
    <style
       id="style869"
       type="text/css" />
    <filter
       id="filter1057"
       x="-0.026999999"
       y="-0.026999999"
       width="1.054"
       height="1.054"
       color-interpolation-filters="sRGB">
      <feGaussianBlur
         id="feGaussianBlur871"
         stdDeviation="0.61875" />
    </filter>
  </defs>
  <rect
     id="rect881"
     x="4.4999995"
     y="4.4999995"
     width="55"
     height="55"
     ry="15"
     fill="#141414"
     filter="url(#filter1057)"
     opacity=".3"
     stroke-linecap="round"
     stroke-width="2.7444" />
  <rect
     id="rect24"
     x="4"
     y="4"
     width="56"
     height="56"
     rx="13.002"
     ry="13.002"
     fill="url(#linearGradient862-3)"
     stroke-width="3.7795" />
  <path
     id="path464"
     d="m 44.982422,10.472656 c -0.292017,0.0134 -0.576146,0.08973 -0.835938,0.226563 l -27.875,14.705078 c -0.356406,0.187685 -0.648909,0.480415 -0.828125,0.84375 v 0.0039 l -0.01758,0.0332 L 5.070311,47.402335 C 4.8279311,47.896994 4.8174118,48.4719 5.046874,48.972647 l 3.7089844,8.091797 C 10.996965,58.90039 13.865679,60 17.001953,60 h 29.996094 c 5.616506,0 10.365756,-3.532091 12.191406,-8.5 L 60,46.988281 V 29.042969 L 46.648438,11.246094 c -0.308793,-0.411517 -0.765543,-0.68043 -1.269532,-0.757813 -0.130891,-0.01976 -0.264256,-0.02195 -0.396484,-0.01563 z"
     fill="#251c50"
     style="stroke-width:4.40669" />
  <path
     id="path466"
     d="M 19.482422,39.933594 19.794922,60 h 10.6875 z"
     fill="#4a37a0"
     style="stroke-width:4.40669" />
  <path
     id="path468"
     d="M 45.603516,22.125 19.482422,39.933594 30.482422,60 H 46.998047 C 54.201148,60 60,54.201148 60,46.998047 V 30.744141 Z"
     fill="#6d55d2"
     style="stroke-width:4.40669" />
  <path
     id="path470"
     d="M 44.924807,9.4187483 A 3.099463,2.9399673 0 0 0 43.570055,9.784959 l -27.873722,14.70608 a 3.099463,2.9399673 0 0 0 -1.305244,1.32906 l -0.01797,0.03704 5.108452,14.076519 26.12289,-17.808593 -0.03595,-12.673397 A 3.099463,2.9399673 0 0 0 44.924892,9.418761 Z"
     fill="#4a37a0"
     style="stroke-width:4.40669" />
  <path
     id="path472"
     style="stroke-width:4.40669;fill:#412e8b;fill-opacity:1"
     d="M 14.373047 25.857422 L 4.0175781 46.970703 C 4.0122081 46.987583 4.0070011 47.004514 4.0019531 47.021484 C 4.0019917 47.043237 4.003762 47.06421 4.0039062 47.085938 C 4.006142 47.422724 4.0275464 47.753888 4.0546875 48.083984 C 4.0703448 48.265769 4.0881813 48.447473 4.1113281 48.626953 C 4.1309851 48.785135 4.1583488 48.941325 4.1835938 49.097656 C 4.2566811 49.537342 4.3468736 49.970277 4.4609375 50.394531 C 4.4655989 50.411869 4.4679306 50.429955 4.4726562 50.447266 C 4.4747565 50.454323 4.4764242 50.457816 4.4785156 50.464844 C 4.5605037 50.740359 4.6177016 50.927002 4.6875 51.160156 C 6.2809247 55.902609 10.515244 59.412086 15.666016 59.933594 C 15.669237 59.933893 15.672559 59.933297 15.675781 59.933594 C 16.112066 59.977442 16.553735 60 17.001953 60 L 19.794922 60 L 19.482422 39.933594 L 14.373047 25.857422 z " />
  <path
     id="path474"
     d="M 45.568359,9.4511719 45.603516,22.125 60,30.744141 V 27.179688 L 47.597656,10.648438 A 3.099463,2.9399673 0 0 0 45.568359,9.4511719 Z"
     fill="#9782f1"
     style="stroke-width:4.40669" />
  <path
     id="path476"
     d="m 45.568359,9.4511719 0.0039,2.1074221 a 3.099463,2.9400417 0 0 1 2.02539,1.197265 L 60,29.287109 V 27.179688 L 47.597656,10.650391 A 3.099463,2.9400417 0 0 0 45.568359,9.4511719 Z"
     fill="#ffffff"
     opacity="0.2"
     style="stroke-width:4.40669" />
  <path
     id="path478"
     style="stroke-width:4.40669;fill:#ffffff;fill-opacity:1;opacity:0.1"
     d="M 44.923828 9.4199219 A 3.099463 2.9400417 0 0 0 43.570312 9.7851562 L 15.695312 24.490234 A 3.099463 2.9400417 0 0 0 14.390625 25.820312 L 14.373047 25.857422 L 4.015625 46.96875 A 3.099463 2.9400417 0 0 0 4 47.013672 C 4.0007244 47.628834 4.0580499 48.228433 4.140625 48.820312 L 14.373047 27.962891 L 14.390625 27.927734 A 3.099463 2.9400417 0 0 1 15.695312 26.597656 L 43.570312 11.892578 A 3.099463 2.9400417 0 0 1 44.923828 11.525391 A 3.099463 2.9400417 0 0 1 45.568359 11.558594 A 3.099463 2.9400417 0 0 1 45.572266 11.558594 L 45.568359 9.4511719 A 3.099463 2.9400417 0 0 0 44.923828 9.4199219 z " />
  <g
     fill="#5e4aa6"
     id="g43">
    <circle
       id="circle20"
       cx="-1434.6503"
       cy="-1269.7955"
       r="0"
       stroke-width=".991616" />
    <circle
       id="circle22"
       cx="-335.1225"
       cy="-25.503962"
       r="0"
       fill-rule="evenodd"
       stroke-width=".991616" />
    <circle
       id="circle885"
       cx="-1548.7037"
       cy="-1321.9741"
       r="0"
       image-rendering="optimizeSpeed" />
    <g
       stroke-width="1.00001"
       id="g32">
      <circle
         id="circle887"
         cx="-1548.6954"
         cy="-1322.0186"
         r="0"
         image-rendering="optimizeSpeed" />
      <circle
         id="circle889"
         cx="-1548.6954"
         cy="-1322.0186"
         r="0"
         image-rendering="optimizeSpeed" />
      <circle
         id="circle891"
         cx="-1632.9049"
         cy="-1353.994"
         r="0"
         image-rendering="optimizeSpeed" />
    </g>
    <circle
       id="circle895"
       cx="-1548.7037"
       cy="-1321.9741"
       r="0"
       image-rendering="optimizeSpeed" />
    <circle
       id="circle899"
       cx="-1456.0608"
       cy="-1321.6141"
       r="0"
       image-rendering="optimizeSpeed" />
    <g
       stroke-width="1.00001"
       id="g39">
      <circle
         id="circle901"
         cx="-1456.0524"
         cy="-1321.6587"
         r="0"
         image-rendering="optimizeSpeed" />
      <circle
         id="circle903"
         cx="-1456.0524"
         cy="-1321.6587"
         r="0"
         image-rendering="optimizeSpeed" />
      <circle
         id="circle905"
         cx="-1540.2618"
         cy="-1353.634"
         r="0"
         image-rendering="optimizeSpeed" />
    </g>
    <circle
       id="circle909"
       cx="-1456.0608"
       cy="-1321.6141"
       r="0"
       image-rendering="optimizeSpeed" />
    <circle
       id="circle913"
       cx="-1453.0038"
       cy="-1323.1742"
       r="0" />
  </g>
  <circle
     id="circle917"
     cx="-268.09381"
     cy="-49.330338"
     r="0"
     fill="url(#b-3)"
     stroke-width="1.5715" />
  <g
     fill="#5e4aa6"
     id="g58">
    <circle
       id="circle919"
       cx="-1342.1838"
       cy="-1313.9202"
       r="0" />
    <circle
       id="circle921"
       cx="-1336.4838"
       cy="-1274.8201"
       r="0"
       image-rendering="optimizeSpeed" />
    <circle
       id="circle935"
       cx="-1242.8838"
       cy="-1293.5201"
       r="0" />
    <circle
       id="circle937"
       cx="-143.3378"
       cy="-28.075138"
       r="0"
       fill-rule="evenodd" />
    <circle
       id="circle939"
       cx="-1387.8647"
       cy="-1307.3611"
       r="0" />
    <circle
       id="circle941"
       cx="-1387.0648"
       cy="-1329.061"
       r="0" />
    <circle
       id="circle943"
       cx="-287.52081"
       cy="-63.544037"
       r="0"
       fill-rule="evenodd" />
    <circle
       id="circle945"
       cx="-1551.4227"
       cy="-1302.9611"
       r="0" />
    <circle
       id="circle947"
       cx="-1443.0228"
       cy="-1363.1611"
       r="0" />
    <circle
       id="circle949"
       cx="-1460.8228"
       cy="-1307.3611"
       r="0" />
    <circle
       id="circle953"
       cx="-1460.0648"
       cy="-1329.061"
       r="0" />
    <circle
       id="circle955"
       cx="-360.47479"
       cy="-63.544037"
       r="0"
       fill-rule="evenodd" />
  </g>
</svg>
