<svg id="svg290" version="1.1" viewBox="0 0 64 64" xmlns="http://www.w3.org/2000/svg">
  <defs id="defs278">
    <style id="style266" type="text/css"/>
    <style id="style268" type="text/css"/>
    <filter id="filter1057" x="-.026999999" y="-.026999999" width="1.054" height="1.054" color-interpolation-filters="sRGB">
      <feGaussianBlur id="feGaussianBlur270" stdDeviation="0.61875"/>
    </filter>
    <linearGradient id="linearGradient1053" x1="-127" x2="-72" y1="60" y2="5" gradientTransform="translate(131.5 -.51)" gradientUnits="userSpaceOnUse">
      <stop id="stop273" stop-color="#19a2ff" offset="0"/>
      <stop id="stop275" stop-color="#53b2ff" offset="1"/>
    </linearGradient>
  </defs>
  <rect id="rect280" x="4.5" y="4.5" width="55" height="55" ry="15" fill="#141414" filter="url(#filter1057)" opacity=".3" stroke-linecap="round" stroke-width="2.7444"/>
  <rect id="rect282" x="4.5" y="4.5" width="55" height="55" ry="15" fill="url(#linearGradient1053)" stroke-linecap="round" stroke-width="2.7444"/>
  <circle id="circle284" cx="-1326.3" cy="-1241.6" r="0" fill="#5e4aa6"/>
  <circle id="circle286" cx="-226.72" cy="23.855" r="0" fill="#5e4aa6" fill-rule="evenodd"/>
  <g id="ocs-url" transform="matrix(.05281677 0 0 .05281677 5.1456106 4.2610984)" fill="#fff">
    <path id="slash-2" d="m902.992 380.107h22l-94.339 290.173h-22z"/>
    <path id="slash-1" d="m852.992 380.107h22l-94.339 290.173h-22z"/>
    <path id="colon-2" d="m739.533 556.848h36v36h-36z"/>
    <path id="colon-1" d="m739.505 457.85h36v36h-36z"/>
    <path id="s" d="m619.548 389.93q-38.088 1e-3 -59.958 9.564-21.871 9.563-32.765 26.278t-10.894 35.509q0 28.607 21.289 47.068 21.122 18.462 70.686 29.605 30.269 6.653 38.585 14.137 8.316 7.485 8.316 16.964 0 9.98-8.731 17.547-8.733 7.568-24.865 7.567-21.622 1e-3 -33.264-14.802-7.152-9.147-9.48-26.611l-71.683 4.491q3.159 36.923 27.109 60.873t86.154 23.949q35.425 1e-3 58.71-10.229 23.284-10.228 36.257-30.02 12.973-19.791 12.973-43.243 0-19.958-9.729-36.091-9.73-16.132-31.102-27.027-21.372-10.893-70.768-21.538-19.959-4.157-25.28-8.981-5.49-4.657-5.489-10.478-1e-3 -7.983 6.653-13.555 6.652-5.571 19.791-5.572 15.967 1e-3 25.031 7.484 9.064 7.485 11.892 23.951l71.019-4.159q-4.658-37.92-29.19-55.301-24.532-17.379-71.267-17.38z"/>
    <path id="c" d="m449.767 389.931q-25.024 0-47.83 9.344-22.807 9.345-40.07 25.974-17.263 16.63-27.557 39.595-10.295 22.965-10.295 50.522 0 27.559 10.453 50.84 10.453 23.282 27.716 40.228 17.263 16.947 39.911 26.29 22.648 9.345 47.356 9.345 12.036 0 24.39-2.376 12.353-2.375 26.607-7.444l6.336-2.217v-73.488q-23.757 25.342-53.532 25.341-13.621 1e-3 -25.341-5.068-11.72-5.067-20.431-13.937-8.711-8.869-13.62-20.906-4.91-12.036-4.91-26.291 0-13.937 4.91-25.974 4.909-12.036 13.462-20.748 8.552-8.71 20.431-13.779 11.878-5.067 25.815-5.068 31.676 1e-3 53.216 26.291v-74.121q-15.205-6.334-28.984-9.344-13.779-3.009-28.033-3.009z"/>
    <path id="o" d="m223.997 389.93q28.825 2e-3 53.215 9.661 24.39 9.663 41.971 26.766 17.579 17.106 27.399 40.07 9.819 22.966 9.82 49.572-1e-3 26.609-9.82 49.573-9.82 22.966-27.399 40.069-17.581 17.107-41.971 26.766-24.39 9.663-53.215 9.661-29.142 2e-3 -53.373-9.661-24.232-9.659-41.654-26.766-17.422-17.103-27.241-40.069-9.819-22.964-9.819-49.573 0-26.606 9.819-49.572 9.819-22.964 27.241-40.07 17.422-17.103 41.654-26.766 24.231-9.659 53.373-9.661zm0 60.184q-13.62 1e-3 -25.815 4.91-12.196 4.911-21.381 13.779-9.187 8.87-14.571 20.906-5.385 12.038-5.385 26.29 0 14.256 5.385 26.291 5.384 12.038 14.571 20.906 9.185 8.871 21.381 13.779 12.195 4.911 25.815 4.91 13.621 1e-3 25.816-4.91 12.195-4.908 21.539-13.779 9.345-8.868 14.73-20.906 5.384-12.035 5.384-26.291 0-14.252-5.384-26.29-5.385-12.036-14.73-20.906-9.344-8.868-21.539-13.779-12.195-4.909-25.816-4.91z"/>
  </g>
</svg>
