<svg id="svg290" version="1.1" viewBox="0 0 64 64" xmlns="http://www.w3.org/2000/svg">
    <defs id="defs278">
        <style id="style266" type="text/css"/>
        <style id="style268" type="text/css"/>
        <filter id="filter1057" x="-.026999999" y="-.026999999" width="1.054" height="1.054" color-interpolation-filters="sRGB">
            <feGaussianBlur id="feGaussianBlur270" stdDeviation="0.61875"/>
        </filter>
    </defs>
    <rect id="rect280" x="4.5" y="4.5" width="55" height="55" ry="15" fill="#141414" filter="url(#filter1057)" opacity=".3" stroke-linecap="round" stroke-width="2.7444"/>
    <rect id="rect282" x="4.5" y="4.5" width="55" height="55" ry="15" fill="#394c68" stroke-linecap="round" stroke-width="2.7444"/>
    <circle id="circle284" cx="-1326.3" cy="-1241.6" r="0" fill="#5e4aa6"/>
    <circle id="circle286" cx="-226.72" cy="23.855" r="0" fill="#5e4aa6" fill-rule="evenodd"/>
    <g id="g1143" transform="matrix(.66666666 0 0 .66666666 -15.305457 29.196336)">
        <path id="path740" d="m70.95939 4.705498c-1.724566-2.84e-4 -3.44922 0.344603-4.725434 1.031793l-19.362634 10.424265c-2.552429 1.374374-2.550058 3.714517 0.0024 5.088895l19.360256 10.424264c2.552428 1.374375 6.898444 1.374375 9.450868 0l19.360222-10.424264c2.552422-1.374372 2.550018-3.714526-0.0024-5.088895l-19.35779-10.424265c-1.276214-0.68719-3.000866-1.031514-4.725432-1.031793z" opacity=".2"/>
        <path id="path742" d="m70.95939 3.705498c-1.724566-2.84e-4 -3.44922 0.344604-4.725434 1.031794l-19.362634 10.424264c-2.552429 1.374374-2.550058 3.714518 0.0024 5.088896l19.360256 10.424264c2.552428 1.374374 6.898444 1.374374 9.450868 0l19.360222-10.424264c2.552422-1.374372 2.550018-3.714526-0.0024-5.088896l-19.35779-10.424264c-1.276214-0.68719-3.000866-1.031514-4.725432-1.031794z" fill="#ea6e41"/>
        <path id="path744" d="m70.958184 3.705496c-1.724566-2.84e-4 -3.446442 0.34406-4.722656 1.03125l-19.363281 10.425781c-1.50229 0.808919-2.093047 1.948203-1.820313 3.03125 0.182379-0.749967 0.778259-1.470148 1.820313-2.03125l19.363281-10.425781c1.276214-0.68719 2.99809-1.031534 4.722656-1.03125 1.724566 2.8e-4 3.450348 0.34406 4.726562 1.03125l19.359376 10.425781c1.042265 0.561213 1.63806 1.281332 1.820312 2.03125 0.272451-1.083092-0.317719-2.222171-1.820312-3.03125l-19.359376-10.425781c-1.276214-0.68719-3.001996-1.03097-4.726562-1.03125z" fill="#fff" opacity=".2"/>
        <path id="path746" d="m70.95939-9.294506c-1.724566-2.81e-4 -3.44922 0.344606-4.725434 1.031795l-19.362634 10.424264c-2.552429 1.374378-2.550058 3.714523 0.0024 5.088901l19.360256 10.424259c2.552428 1.374376 6.898444 1.374376 9.450868 0l19.360222-10.42426c2.552422-1.374374 2.550018-3.714528-0.0024-5.0889l-19.357846-10.424263c-1.276214-0.68719-3.000866-1.031514-4.725432-1.031795z" opacity=".2"/>
        <path id="path748" d="m70.95939-10.294504c-1.724566-2.82e-4 -3.44922 0.344605-4.725434 1.031794l-19.362634 10.424264c-2.552429 1.374378-2.550058 3.714522 0.0024 5.0889l19.360256 10.42426c2.552428 1.374376 6.898444 1.374376 9.450868 0l19.360222-10.42426c2.552422-1.374374 2.550018-3.714528-0.0024-5.0889l-19.357846-10.424264c-1.276214-0.687189-3.000866-1.031513-4.725432-1.031794z" fill="#aed351"/>
        <path id="path750" d="m70.958184-10.294504c-1.724566-2.81e-4 -3.446442 0.344061-4.722656 1.03125l-19.363281 10.425781c-1.50229 0.80892-2.093047 1.948203-1.820313 3.03125 0.182379-0.749967 0.778259-1.470147 1.820313-2.03125l19.363281-10.425781c1.276214-0.687189 2.99809-1.031531 4.722656-1.03125s3.450348 0.344061 4.726562 1.03125l19.359376 10.425781c1.042265 0.561214 1.63806 1.281332 1.820312 2.03125 0.272451-1.083092-0.317719-2.222169-1.820312-3.03125l-19.359376-10.425781c-1.276214-0.687189-3.001996-1.030969-4.726562-1.03125z" fill="#fff" opacity=".2"/>
        <path id="path752" d="m70.95939-23.294505c-1.724566-2.82e-4 -3.44922 0.344606-4.725434 1.031794l-19.362634 10.424264c-2.552429 1.374376-2.550058 3.714521 0.0024 5.088898l19.360216 10.424264c2.552428 1.374375 6.898444 1.374373 9.450868 0l19.360262-10.424264c2.552422-1.374374 2.550018-3.714527-0.0024-5.088898l-19.357846-10.424264c-1.276214-0.687188-3.000866-1.031513-4.725432-1.031794z" opacity=".2"/>
        <path id="path754" d="m70.95939-24.294504c-1.724566-2.82e-4 -3.44922 0.344606-4.725434 1.031794l-19.362634 10.424264c-2.552429 1.374376-2.550058 3.714521 0.0024 5.088898l19.360216 10.424264c2.552428 1.374374 6.898444 1.374372 9.450868 0l19.360262-10.424264c2.552422-1.374373 2.550018-3.714526-0.0024-5.088898l-19.357846-10.424264c-1.276214-0.687188-3.000866-1.031513-4.725432-1.031794z" fill="#3b9dda"/>
        <path id="path756" d="m70.958184-24.294504c-1.724566-2.81e-4 -3.446442 0.344061-4.722656 1.03125l-19.363281 10.425781c-1.50229 0.80892-2.093047 1.948203-1.820313 3.03125 0.182379-0.749967 0.778259-1.470147 1.820313-2.03125l19.363281-10.425781c1.276214-0.687189 2.99809-1.031531 4.722656-1.03125s3.450348 0.344061 4.726562 1.03125l19.359376 10.425781c1.04226 0.561215 1.638058 1.281332 1.820312 2.03125 0.272449-1.083091-0.317726-2.222168-1.820312-3.03125l-19.359376-10.425781c-1.276214-0.687189-3.001996-1.030969-4.726562-1.03125z" fill="#fff" opacity=".2"/>
    </g>
</svg>
