<svg id="svg290" version="1.1" viewBox="0 0 64 64" xmlns="http://www.w3.org/2000/svg">
    <defs id="defs278">
        <style id="style266" type="text/css"/>
        <style id="style268" type="text/css"/>
        <filter id="filter1057" x="-.026999999" y="-.026999999" width="1.054" height="1.054" color-interpolation-filters="sRGB">
            <feGaussianBlur id="feGaussianBlur270" stdDeviation="0.61875"/>
        </filter>
        <radialGradient id="radialGradient1231" cx="74.551643" cy="30.117865" r="2.9417212" gradientTransform="matrix(1.4999287,0,0,1.4986658,-79.685238,-17.668011)" gradientUnits="userSpaceOnUse">
            <stop id="stop446" stop-color="#fff" offset="0"/>
            <stop id="stop448" stop-color="#FBC8B4" offset=".0604"/>
            <stop id="stop450" stop-color="#FBC3B0" offset=".0712"/>
            <stop id="stop452" stop-color="#F7978B" offset=".1829"/>
            <stop id="stop454" stop-color="#F4716B" offset=".2995"/>
            <stop id="stop456" stop-color="#F15251" offset=".4199"/>
            <stop id="stop458" stop-color="#EF3A3D" offset=".5453"/>
            <stop id="stop460" stop-color="#EE292F" offset=".6778"/>
            <stop id="stop462" stop-color="#ED1F27" offset=".822"/>
            <stop id="stop464" stop-color="#ED1C24" offset="1"/>
        </radialGradient>
        <filter id="filter1735" x="-.030256164" y="-.024376596" width="1.0605123" height="1.0487532" color-interpolation-filters="sRGB">
            <feGaussianBlur id="feGaussianBlur1737" stdDeviation="0.36565237"/>
        </filter>
        <linearGradient id="linearGradient1777" x1="-127" x2="-72" y1="60" y2="5" gradientTransform="matrix(.96363636 0 0 .96363636 127.88182 .67218182)" gradientUnits="userSpaceOnUse">
            <stop id="stop273" stop-color="#e74c3c" offset="0"/>
            <stop id="stop275" stop-color="#ec7063" offset="1"/>
        </linearGradient>
    </defs>
    <rect id="rect280" x="4.5" y="4.5" width="55" height="55" ry="15" fill="#141414" filter="url(#filter1057)" opacity=".3" stroke-linecap="round" stroke-width="2.7444"/>
    <rect id="rect282" x="4.5" y="4.5" width="55" height="55" ry="15" fill="#333" stroke-linecap="round" stroke-width="2.7444"/>
    <circle id="circle284" cx="-1326.3" cy="-1241.6" r="0" fill="#5e4aa6"/>
    <circle id="circle286" cx="-226.72" cy="23.855" r="0" fill="#5e4aa6" fill-rule="evenodd"/>
    <rect id="rect1775" x="5.5" y="5.5" width="53" height="53" ry="14.454545" fill="url(#linearGradient1777)" stroke-linecap="round" stroke-width="2.6446"/>
    <g id="g1785" transform="matrix(1.1124216,0,0,1.1124216,-3.597474,-3.5974897)">
        <path id="path1718" d="m31.872072 13.99983-0.322265 0.322266c-2.444859 2.444858-4.771964 6.396574-6.683594 10.794922-7.78e-4 3.56e-4 -0.0012 0.0016-2e-3 2e-3 -0.0071 0.01624-0.01444 0.03258-0.02149 0.04883-0.0028 0.0065-5e-3 0.01306-0.0078 0.01953-0.152516 0.352077-0.302199 0.707319-0.449219 1.064453-0.114496 0.278204-0.226895 0.559131-0.33789 0.839844-0.04314 0.109067-0.08827 0.21678-0.13086 0.326172-0.04491 0.115365-0.08657 0.231963-0.130859 0.347656-0.100925 0.263545-0.20313 0.52606-0.300781 0.791016-0.142836 0.387629-0.280496 0.77649-0.416016 1.166015l-2e-3 2e-3c-1.596999 1.536202-5.447502 4.213184-5.564453 5.324219-0.139493 1.304937 2.618204 3.917561 2.324219 4.853516-0.296986 0.937454-1.956464 2.111742-1.521485 2.908203 0.149993 0.281986 1.235049 0.01664 1.916016-0.736328v2e-3a20.082545 20.082545 0 0 0 0 0.0039c-0.04643 0.531373-0.07218 1.062747-0.07617 1.595703a20.082545 20.082545 0 0 0 0 2e-3v2e-3c-0.0037 0.506834 0.01414 1.013507 0.04883 1.519531 5.35e-4 0.0078-5.44e-4 0.01564 0 0.02344a20.082545 20.082545 0 0 0 2e-3 0.06055c0.02472 0.294722 0.06121 0.577985 0.103516 0.851563 0.0065 0.04178 0.01068 0.08569 0.01758 0.126953v2e-3c0.0049 0.02933 0.0105 0.05687 0.01563 0.08594 0.07005 0.396888 0.16052 0.768329 0.275391 1.113282 0.0105 0.03154 0.02034 0.06462 0.03125 0.0957v2e-3c0.139007 0.395799 0.31199 0.753543 0.521484 1.070312 0.139493 0.211115 0.299313 0.402626 0.476562 0.570313 0.08856 0.08392 0.180114 0.16246 0.277344 0.234375h2e-3c0.388634 0.287113 0.843881 0.475264 1.351563 0.539062h2e-3c0.126463 0.01581 0.256029 0.02539 0.388672 0.02539 0.0176 0 0.03335-0.0036 0.05078-0.0039 2e-3 -3.4e-5 0.0039 3.7e-5 0.0059 0 0.112504-2e-3 0.222478-0.01003 0.328125-0.02344 0.42981-0.05473 0.808535-0.194512 1.154297-0.36914 0.446979-0.22349 0.856759-0.495013 1.365235-0.75 0.764961-0.382482 1.760439-0.754137 3.410156-0.876954 0.550004-0.04073 1.171847-0.0545 1.882812-0.03125 1.070386 0.03487 1.94393 0.127014 2.671875 0.251954 0.485226 0.08348 0.906113 0.181956 1.277344 0.289062 0.371302 0.106917 0.6926 0.222428 0.980469 0.339844 0.143918 0.05875 0.279397 0.118862 0.408203 0.177734 0.294201 0.134468 0.560086 0.26863 0.818359 0.398438 0.01008 0.0051 0.01924 0.01059 0.0293 0.01563 0.151508 0.07595 0.301372 0.14827 0.451172 0.214843 0.366323 0.162674 0.739403 0.293579 1.173828 0.34375 0.132283 0.01528 0.270712 0.02344 0.416016 0.02344 0.862833 0 1.60809-0.284406 2.1875-0.783203 0.193186-0.166211 0.366992-0.35687 0.521484-0.568359 0.07693-0.105125 0.150611-0.215647 0.21875-0.330079v-2e-3c0.06838-0.11494 0.133468-0.233455 0.19336-0.357422 0.119881-0.247966 0.222388-0.512985 0.310547-0.794922 0.08785-0.281319 0.161544-0.580281 0.220703-0.892578v-2e-3c0.05915-0.312465 0.105364-0.63991 0.138671-0.980469 0.0225-0.233613 0.03816-0.475697 0.04883-0.722656 0.02133-0.493804 0.01984-1.012807-2e-3 -1.552734-0.01087-0.269383-0.02632-0.543212-0.04688-0.822266 0.680914 0.673456 1.674506 0.904492 1.81836 0.634766 0.434979-0.794962-1.224046-1.971795-1.519531-2.90625-0.296986-0.935955 2.463712-3.548579 2.324218-4.853516-0.120052-1.12219-4.06168-3.852225-5.623105-5.379151-2.233391-6.127203-5.412846-12.096892-8.679687-15.365234zm0.261719 9.056641a4.4247897 4.4247897 0 0 1 0.04102 0.0039 4.4123721 4.4086571 0 0 0-0.03906 0 4.4123721 4.4086571 0 0 0-0.09375 0.0059 4.4247897 4.4247897 0 0 1 0.0918-0.0098zm-0.857422 0.09961a4.4123721 4.4086571 0 0 0-0.214844 0.04492 4.4247897 4.4247897 0 0 1 0.214844-0.04492zm1.8125 0.0078a4.4247897 4.4247897 0 0 1 0.05078 0.01172 4.4123721 4.4086571 0 0 0-0.05078-0.01172zm-2.828125 0.31836a4.4123721 4.4086571 0 0 0-0.125 0.06836 4.4247897 4.4247897 0 0 1 0.125-0.06836zm-2.396484 2.921875a4.4123721 4.4086571 0 0 0-0.01563 0.07227c0.0056-0.02316 0.0077-0.04727 0.01367-0.07031a4.4247897 4.4247897 0 0 1 2e-3 -2e-3zm-0.136719 1.019531a4.4123721 4.4086571 0 0 0-0.0039 0.04492 4.4123721 4.4086571 0 0 0 0.0039 0.04492 4.4247897 4.4247897 0 0 1-0.0059-0.04492 4.4247897 4.4247897 0 0 1 0.0059-0.04492zm0.09375 0.916016a4.4123721 4.4086571 0 0 0 0.04492 0.199218 4.4247897 4.4247897 0 0 1-0.0293-0.07812 4.4247897 4.4247897 0 0 1-2e-3 -0.0098 4.4247897 4.4247897 0 0 1 0-2e-3 4.4247897 4.4247897 0 0 1-0.01367-0.109375zm8.626953 0.0098a4.4247897 4.4247897 0 0 1-0.0098 0.08594c-0.0019 0.0085-0.0039 0.01693-0.0059 0.02539-9.29e-4 4e-3 -3e-3 0.0077-0.0039 0.01172a4.4247897 4.4247897 0 0 1-0.01953 0.05469 4.4123721 4.4086571 0 0 0 0.03906-0.177735zm-8.296875 1.003907a4.4123721 4.4086571 0 0 0 0.0625 0.113281 4.4247897 4.4247897 0 0 1-0.0332-0.05469c-0.0097-0.01961-0.0199-0.03882-0.0293-0.05859zm7.958985 0.01758c-0.0053 0.01102-0.01024 0.02223-0.01563 0.0332-2.58e-4 5.25e-4 2.58e-4 0.0014 0 2e-3a4.4247897 4.4247897 0 0 1-0.02148 0.03125 4.4123721 4.4086571 0 0 0 0.03711-0.06641zm-7.480469 0.75388a4.4123721 4.4086571 0 0 0 0.101562 0.136719 4.4247897 4.4247897 0 0 1-0.0332-0.0332c-0.0072-9e-3 -0.01432-0.01829-0.02148-0.02734a4.4247897 4.4247897 0 0 1-0.0039-0.0059 4.4247897 4.4247897 0 0 1-0.04297-0.07031zm7 0.01758a4.4247897 4.4247897 0 0 1-0.03516 0.05664c-0.0075 0.0095-0.0139 0.01987-0.02148 0.0293a4.4247897 4.4247897 0 0 1-0.02539 0.02539 4.4123721 4.4086571 0 0 0 0.08203-0.111328zm-6.289063 0.728516a4.4123721 4.4086571 0 0 0 0.142579 0.107422 4.4247897 4.4247897 0 0 1-0.07813-0.05078c-0.0088-0.0069-0.01862-0.01253-0.02734-0.01953a4.4247897 4.4247897 0 0 1-0.03711-0.03711zm5.583985 0.0059a4.4247897 4.4247897 0 0 1-0.03125 0.03125c-0.01014 0.0081-0.02104 0.01538-0.03125 0.02344-7.15e-4 5.64e-4 -0.0012 0.0014-2e-3 2e-3a4.4247897 4.4247897 0 0 1-0.06445 0.03906 4.4123721 4.4086571 0 0 0 0.128906-0.0957zm-4.8125 0.498047a4.4123721 4.4086571 0 0 0 0.15039 0.08203c-0.02615-0.01233-0.05226-0.02428-0.07813-0.03711a4.4247897 4.4247897 0 0 1-0.07226-0.04496zm4.023437 0.01367a4.4247897 4.4247897 0 0 1-0.05469 0.0332c-0.01249 0.0062-0.02455 0.01347-0.03711 0.01953-0.0076 0.0037-0.01582 0.0061-0.02344 0.0098a4.4123721 4.4086571 0 0 0 0.115234-0.0625zm-3.08789 0.34375a4.4123721 4.4086571 0 0 0 0.248047 0.05273 4.4247897 4.4247897 0 0 1-0.136719-0.01563c-0.0019-4.22e-4 -4e-3 4.25e-4 -0.0059 0a4.4247897 4.4247897 0 0 1-0.0059-2e-3c-0.0014-3.22e-4 -0.0025-0.0016-0.0039-2e-3a4.4247897 4.4247897 0 0 1-0.0957-0.0332zm2.18164 0a4.4247897 4.4247897 0 0 1-0.08594 0.0293c-0.01451 0.0034-0.0284 0.0084-0.04297 0.01172-6.18e-4 1.39e-4 -0.0013-1.39e-4 -2e-3 0a4.4247897 4.4247897 0 0 1-0.132813 0.01562 4.4123721 4.4086571 0 0 0 0.263672-0.05664zm-1.232422 0.134766a4.4123721 4.4086571 0 0 0 0.138672 0.0098 4.4123721 4.4086571 0 0 0 0.134766-0.0098 4.4247897 4.4247897 0 0 1-0.134766 0.01562c-0.0026-5e-6 -0.0052 1.1e-5 -0.0078 0a4.4247897 4.4247897 0 0 1-0.13086-0.01562zm-10.042968 0.648437a0.3239846 0.3239846 0 0 1 0.195312 0.04687c-0.248988 0.839959-0.485323 1.674587-0.695312 2.498047a50.771087 50.771087 0 0 0-0.820313 3.832031 5.8497219 5.8497219 0 0 0-0.298828-0.585937c-0.869958-1.517927-1.371252-2.462173-1.740234-3.119141 0.472477-0.359983 2.517915-2.632877 3.359375-2.671875zm20.089843 0.01563c0.842959 0.0405 2.888398 2.313846 3.359375 2.673828-0.368982 0.656968-0.868323 1.603168-1.738281 3.121094a6.6416843 6.6416843 0 0 0-0.246094 0.46289 48.528693 48.528693 0 0 0-0.841796-3.734374 60.865607 60.865607 0 0 0-0.722657-2.478516 0.3239846 0.3239846 0 0 1 0.189453-0.04492z" fill-rule="evenodd" filter="url(#filter1735)" opacity=".4" stroke-width="2.10675"/>
        <g id="g1716">
            <path id="rect1285" d="m29.675002 23.847923c-1.705275 0.151447-3.325233 0.591104-4.810318 1.271423-0.650795 1.497426-1.253359 3.046075-1.795814 4.605251-0.729457 1.378599-2.84752 10.906904-2.84752 12.350975-0.09351 1.067921-0.101335 2.141613-0.02344 3.210785 0.113995 1.358934 0.404348 2.499585 0.963821 3.345543 0.557974 0.84446 1.432456 1.3681 2.498906 1.3681 0.59547 0 1.092534-0.1705 1.538011-0.395489 0.446979-0.22349 0.856695-0.494977 1.365171-0.749965 1.01995-0.509975 2.449831-1.001155 5.293692-0.90816 2.854362 0.093 4.307188 0.586591 5.337638 1.057567 1.030445 0.470977 1.726087 0.996047 2.888522 0.996047 1.150446 0 2.091876-0.504562 2.709847-1.350522 0.61797-0.844459 0.947505-1.995258 1.080998-3.360192 0.09-0.934455 0.0825-1.980516 0-3.099461-0.908162-6.097876-0.908162-6.1247-2.999857-12.500384-0.473753-1.299698-0.999013-2.58525-1.549733-3.846496-1.333927-0.792583-2.804835-1.377685-4.370885-1.716715 0.996203 0.827754 1.579706 2.050434 1.596604 3.345544-7e-3 2.434827-1.979999 4.406429-4.41483 4.4119-2.43483-0.0054-4.407742-1.977074-4.414829-4.4119 0.01546-1.45586 0.74614-2.810942 1.954008-3.623851z" fill="#fff" fill-rule="evenodd" stroke-width="2.10675"/>
            <path id="path1347" d="m29.675002 23.847922c-1.705275 0.151448-3.325232 0.591104-4.810318 1.271424-0.650795 1.497425-1.253358 3.046075-1.795813 4.605251-0.729458 1.378599-2.84752 10.906904-2.84752 12.350975-0.09351 1.067921-0.101336 2.141613-0.02344 3.210785 0.113994 1.358934 0.404347 2.499584 0.963821 3.345543 0.557973 0.84446 1.432456 1.3681 2.498905 1.3681 0.59547 0 1.092535-0.1705 1.538012-0.395489 0.446979-0.22349 0.856695-0.494977 1.365171-0.749965 1.01995-0.509976 2.44983-1.001156 5.293692-0.90816 2.854361 0.093 4.307188 0.58659 5.337637 1.057567 1.030446 0.470977 1.726087 0.996047 2.888523 0.996047 1.150445 0 2.091875-0.504563 2.709846-1.350523 0.617972-0.844458 0.947505-1.995257 1.080999-3.360191 0.09-0.934455 0.0825-1.980516 0-3.099462-0.908162-6.097876-0.908162-6.124699-2.999858-12.500383-0.473752-1.299699-0.999012-2.58525-1.549732-3.846496-1.333927-0.792584-2.804835-1.377685-4.370885-1.716715 0.996203 0.827753 1.579705 2.050434 1.596603 3.345544-7e-3 2.434827-1.979999 4.406429-4.41483 4.411899-2.43483-0.0054-4.407741-1.977074-4.414828-4.411899 0.01546-1.455861 0.746139-2.810943 1.954008-3.623852z" fill="#f5f5f5" fill-opacity=".5" stroke-width="1.49993"/>
            <path id="path499" class="UnoptimicedTransforms" transform="matrix(1.4999287,0,0,1.4999287,42.66616,1.7027114)" d="m-7.1961102 8.1985816-0.215 0.215c-2.185 2.1850004-4.2299998 6.1750004-5.6539998 10.268-1.064 1.024-3.633 2.81-3.711 3.551-0.093 0.87 1.746 2.611 1.55 3.235-0.198 0.625-1.304 1.408-1.014 1.939 0.1 0.188 0.823 0.011 1.277-0.491a13.389 13.389 0 0 0-0.017 2.14c0.076 0.906 0.27 1.668 0.643 2.232 0.372 0.563 0.956 0.911 1.667 0.911 0.397 0 0.727-0.114 1.024-0.264 0.298-0.149 0.571-0.33 0.91-0.5 0.68-0.34 1.6339998-0.666 3.5299998-0.604 1.903 0.062 2.872 0.39 3.559 0.704s1.15 0.664 1.925 0.664c0.76699997 0 1.395-0.336 1.807-0.9 0.412-0.563 0.631-1.33 0.72-2.24 0.06-0.623 0.055-1.32 0-2.066 0.45400003 0.45 1.117 0.604 1.213 0.424 0.29-0.53-0.816-1.314-1.013-1.937-0.19800003-0.624 1.642-2.366 1.549-3.236-0.08-0.748-2.707-2.568-3.748-3.586-1.489-4.085-3.609-8.065-5.787-10.244zm0.175 6.0380004a2.95 2.95 0 0 1 2.943 2.942 2.95 2.95 0 0 1-2.943 2.943 2.95 2.95 0 0 1-2.942-2.943 2.95 2.95 0 0 1 2.942-2.942zm-3.4049998 1.945a3.515 3.515 0 0 0-0.145 0.997c0 1.951 1.5999998 3.55 3.5499998 3.55s3.55-1.598 3.55-3.55c0-0.329-0.046-0.648-0.132-0.951 0.334 0.095 0.64 0.208 0.915 0.336a42.699 42.699 0 0 1 2.042 5.829c0.678 2.545 1.01 4.92 0.846 6.607-0.082 0.844-0.29 1.51-0.606 1.94-0.315 0.431-0.71299997 0.651-1.315 0.651-0.593 0-0.932-0.27-1.673-0.61-0.741-0.338-1.825-0.694-3.792-0.758-1.974-0.064-3.0729998 0.293-3.8209998 0.669-0.375 0.188-0.659 0.373-0.911 0.5s-0.466 0.2-0.752 0.2c-0.53 0-0.876-0.209-1.16-0.64-0.285-0.43-0.474-1.101-0.545-1.948-0.141-1.693 0.176-4.069 0.823-6.614a43.155 43.155 0 0 1 1.934-5.783c0.348-0.167 0.749-0.31 1.192-0.425zm-3.382 4.362a0.216 0.216 0 0 1 0.13 0.031c-0.166 0.56-0.323 1.116-0.463 1.665a33.849 33.849 0 0 0-0.547 2.555 3.9 3.9 0 0 0-0.2-0.39c-0.58-1.012-0.914-1.642-1.16-2.08 0.315-0.24 1.679-1.755 2.24-1.781zm13.394 0.01c0.562 0.027 1.926 1.543 2.24 1.783-0.246 0.438-0.58 1.068-1.16 2.08a4.428 4.428 0 0 0-0.163 0.309 32.354 32.354 0 0 0-0.562-2.49 40.579 40.579 0 0 0-0.482-1.652 0.216 0.216 0 0 1 0.127-0.03z" fill="#333"/>
            <ellipse id="path611" cx="32.136913" cy="27.468601" rx="4.4123721" ry="4.4086571" fill="url(#radialGradient1231)" fill-rule="evenodd" stroke-width="1.85361"/>
        </g>
    </g>
</svg>
