<svg id="svg5" version="1.1" viewBox="0 0 64 64" xmlns="http://www.w3.org/2000/svg">
  <defs id="defs3">
    <style id="style1" type="text/css"/>
    <style id="style2" type="text/css"/>
    <filter id="filter832" x="-.02758583" y="-.026438533" width="1.0551717" height="1.0528771" color-interpolation-filters="sRGB">
      <feGaussianBlur id="feGaussianBlur832" stdDeviation="0.63217529"/>
    </filter>
    <filter id="filter845" x="-.033782524" y="-.022485569" width="1.067565" height="1.0449711" color-interpolation-filters="sRGB">
      <feGaussianBlur id="feGaussianBlur845" stdDeviation="0.42228146"/>
    </filter>
  </defs>
  <path id="path832" d="m19.5 4.5004622h25c2.612274 0 5.065664 0.661282 7.392579 1.931641 2.326914 1.270359 4.3992 3.343481 5.671875 5.6738288 1.272675 2.330348 1.935546 4.782858 1.935546 7.39453v25c1e-6 2.61071-0.660828 5.0616-1.824218 7.195313-1.374354 2.520634-3.451349 4.596274-5.970703 5.972656-2.13627 1.167102-4.589911 1.832031-7.205079 1.832031h-6.978515v0.373047c0 1.124128-0.891497 2.013672-2.015625 2.013672h-6.978516c-1.124127 0-2.013672-0.889544-2.013672-2.013672v-0.373047h-7.013672c-2.6142 0-5.067409-0.663786-7.203125-1.830078-2.5196311-1.375943-4.5959101-3.4523-5.9707031-5.972656-1.164191-2.134266-1.826172-4.585593-1.826172-7.197266v-25c0-2.615163 0.664055-5.069546 1.9375-7.40039 1.273445-2.3308438 3.353476-4.4060948 5.6835941-5.6738288 2.330117-1.267733 4.77445-1.925781 7.378906-1.925781z" fill="#141414" filter="url(#filter832)" opacity=".3" stroke-width=".00622992" style="mix-blend-mode:normal"/>
  <path id="path831" d="m0 0"/>
  <circle id="circle4" cx="-1326.3" cy="-1241.6" r="0" fill="#5e4aa6"/>
  <circle id="circle5" cx="-226.72" cy="23.855" r="0" fill="#5e4aa6" fill-rule="evenodd"/>
  <rect id="rect1-1" x="4.5" y="4.5" width="55" height="55" ry="15" fill="#ffffff" stroke-linecap="round" stroke-width="2.7444"/>
  <g stroke-width=".00622992">
    <path id="path13-2" d="m28.380859 4.5 3.617188 27.5 3.621094-27.5h-7.238282z" fill="#ffff00"/>
    <path id="path19-9" d="m31.998047 32-3.617188 27.5h7.238282l-3.621094-27.5z" fill="#0000ff"/>
    <path id="path25-1" d="m35.619141 4.5-3.621094 27.5 11.390625-27.5h-7.769531z" fill="#ffc000"/>
    <path id="path31-2" d="m32.011719 31.980469-11.398438 27.519531h7.779297l3.619141-27.519531z" fill="#003fff"/>
    <path id="path37-7" d="m43.386719 4.5-11.388672 27.494141 19.701172-25.667969c-2.134611-1.1646892-4.586946-1.8261719-7.199219-1.8261719h-1.113281z" fill="#ff8000"/>
    <path id="path43-0" d="m31.998047 31.994141-19.701172 25.675781c2.135716 1.166292 4.588925 1.830078 7.203125 1.830078h1.105469l11.392578-27.505859z" fill="#007fff"/>
    <path id="path49-9" d="m51.701172 6.328125-19.689453 25.652344 25.65625-19.6875c-1.375259-2.516628-3.449444-4.5907336-5.966797-5.964844z" fill="#ff4000"/>
    <path id="path55-3" d="m31.998047 31.994141-25.671875 19.703125c1.3747932 2.520356 3.4510722 4.596712 5.9707031 5.972656l19.701172-25.675781z" fill="#00bfff"/>
    <path id="path61-6" d="m57.673828 12.302734-25.662109 19.691407 27.488281-11.382813v-1.111328c0-2.611673-0.661981-5.062999-1.826172-7.197266z" fill="#ff0000"/>
    <path id="path67-0" d="m31.998047 31.994141-27.498047 11.388671v1.117188c0 2.611673 0.6619814 5.062999 1.8261719 7.197266l25.671875-19.703125z" fill="#00ffff"/>
    <path id="path73-6" d="m59.5 20.605469-27.501953 11.388672 27.501953-3.621094v-7.767578z" fill="#ff003f"/>
    <path id="path79-2" d="m32.011719 31.994141-27.511719 3.623047v7.771484l27.511719-11.394531z" fill="#00ffc0"/>
    <path id="path85-6" d="m59.5 28.373047-27.501953 3.621094 27.501953 3.621093v-7.242187z" fill="#ff007f"/>
    <path id="path91-1" d="m4.5 28.371094v7.246094l27.511719-3.623047-27.511719-3.623047z" fill="#00ff80"/>
    <path id="path97-8" d="m32.011719 31.994141 27.488281 11.382812v-7.763672l-27.488281-3.61914z" fill="#ff00bf"/>
    <path id="path103-7" d="m4.5 20.599609v7.771485l27.511719 3.623047-27.511719-11.394532z" fill="#00ff40"/>
    <path id="path109-9" d="m31.998047 31.994141 25.677734 19.701171c1.16339-2.133713 1.824219-4.584602 1.824219-7.195312v-1.117188l-27.501953-11.388671z" fill="#ff00ff"/>
    <path id="path115-2" d="m6.3320312 12.294922c-1.1670936 2.136269-1.8320312 4.589914-1.8320312 7.205078v1.105469l27.498047 11.388672-25.666016-19.699219z" fill="#00ff00"/>
    <path id="path121-0" d="m31.998047 31.994141 19.707031 25.673828c2.519354-1.376382 4.596349-3.452024 5.970703-5.972657l-25.677734-19.701171z" fill="#c000ff"/>
    <path id="path127-2" d="m12.3125 6.3203125c-2.5223178 1.3733596-4.6007191 3.4492304-5.9785156 5.9687495l25.677735 19.705079-19.699219-25.673828z" fill="#3fff00"/>
    <path id="path133-3" d="m32.011719 31.994141 11.392578 27.505859h1.095703c2.618291 0 5.07483-0.666241 7.212891-1.835938l-19.701172-25.669921z" fill="#8000ff"/>
    <path id="path139-7" d="m19.5 4.5c-2.604456 0-5.049571 0.6582087-7.179688 1.8164062l19.691407 25.664063-11.382813-27.480469h-1.128906z" fill="#7fff00"/>
    <path id="path145-5" d="m32.011719 31.980469 3.623047 27.519531h7.77539l-11.398437-27.519531z" fill="#4000ff"/>
    <path id="path151-9" d="m20.625 4.5 11.386719 27.494141-3.615235-27.494141h-7.771484z" fill="#bfff00"/>
  </g>
  <g stroke-width=".117097">
    <path id="path841" d="m32.000266 16.814916a15 15.184958 0 0 0-15 15.185547 15 15.184958 0 0 0 5.408203 11.65039c1.196781 2.419369 1.976928 5.014605 2.232422 7.697266 0.09366 0.936772 0.8894 1.6875 1.826172 1.6875h0.04687v1.263672h-0.421875c-0.327871 0-0.5625 0.28146-0.5625 0.5625 0 0.327871 0.28147 0.5625 0.5625 0.5625h0.421875v0.888672h-0.421875c-0.327871 0-0.5625 0.281471-0.5625 0.5625 0 0.327871 0.28147 0.5625 0.5625 0.5625h0.421875v0.890625h-0.421875c-0.327871 0-0.5625 0.279507-0.5625 0.560546 0 0.327872 0.28147 0.5625 0.5625 0.5625h0.421875v0.421876c0 1.124127 0.889545 2.013671 2.013672 2.013671h6.978515c1.124128 0 2.015625-0.889545 2.015625-2.013671v-0.421876h0.326172c0.281029 1e-6 0.5625-0.234628 0.5625-0.5625 0-0.327871-0.281471-0.560546-0.5625-0.560546h-0.326172v-0.890625h0.326172c0.281029 0 0.5625-0.234629 0.5625-0.5625s-0.281471-0.5625-0.5625-0.5625h-0.326172v-0.888672h0.326172c0.281029 0 0.5625-0.234629 0.5625-0.5625s-0.281471-0.5625-0.5625-0.5625h-0.326172v-1.263672c0.983613 0 1.732532-0.750728 1.873047-1.6875 0.287279-2.681302 1.053148-5.296336 2.238281-7.728516a15 15.184958 0 0 0 5.367188-11.61914 15 15.184958 0 0 0-15-15.185547z" fill="#141414" filter="url(#filter845)" opacity=".3"/>
    <path id="path1" d="M 32,16.814453 A 15,15.184958 0 0 0 17,32 15,15.184958 0 0 0 22.408203,43.650391 c 1.196781,2.419369 1.976928,5.014604 2.232422,7.697265 0.09366,0.936772 0.8894,1.6875 1.826172,1.6875 h 11.054687 c 0.983613,0 1.732532,-0.750728 1.873047,-1.6875 0.287279,-2.681302 1.053148,-5.296335 2.238281,-7.728515 A 15,15.184958 0 0 0 47,32 15,15.184958 0 0 0 32,16.814453 Z" fill="#ffffff"/>
    <path id="path6-9" d="m37.473784 53.034674h-10.960247v6.83845c0 1.124127 0.889941 2.014057 2.014068 2.014057h6.978953c1.124128 0 2.014068-0.88993 2.014068-2.014057v-6.83845z" fill="#e6e6e6"/>
  </g>
  <g fill="#d8d8d8" stroke-width=".117097">
    <path id="path7-7" d="m37.848497 55.423444h-11.756503c-0.28103 0-0.56207-0.234187-0.56207-0.562058 0-0.28104 0.234199-0.562069 0.56207-0.562069h11.756503c0.281029 0 0.562059 0.234198 0.562059 0.562069s-0.28103 0.562058-0.562059 0.562058z"/>
    <path id="path8-3" d="m37.848497 57.437512h-11.756503c-0.28103 0-0.56207-0.234198-0.56207-0.562069 0-0.281029 0.234199-0.562059 0.56207-0.562059h11.756503c0.281029 0 0.562059 0.234188 0.562059 0.562059s-0.28103 0.562069-0.562059 0.562069z"/>
    <path id="path9-6" d="m37.848497 59.451569h-11.756503c-0.28103 0-0.56207-0.234187-0.56207-0.562058 0-0.28104 0.234199-0.56207 0.56207-0.56207h11.756503c0.281029 0 0.562059 0.234199 0.562059 0.56207s-0.28103 0.562058-0.562059 0.562058z"/>
  </g>
</svg>
