<svg id="svg8" width="64" height="64" version="1.1" viewBox="0 0 16.933333 16.933334" xmlns="http://www.w3.org/2000/svg" xmlns:xlink="http://www.w3.org/1999/xlink">
    <defs id="defs2">
        <filter id="filter1057" x="-.026999999" y="-.026999999" width="1.054" height="1.054" color-interpolation-filters="sRGB">
            <feGaussianBlur id="feGaussianBlur1059" stdDeviation="0.61875"/>
        </filter>
        <linearGradient id="linearGradient1053" x1="-127" x2="-72" y1="60" y2="5" gradientTransform="matrix(.25496212 0 0 .25496212 33.835397 .17784949)" gradientUnits="userSpaceOnUse">
            <stop id="stop1047" stop-color="#57e389" offset="0"/>
            <stop id="stop1049" stop-color="#27a56b" offset="1"/>
        </linearGradient>
    </defs>
    <g stroke-linecap="round">
        <rect id="rect1055" transform="scale(.26458333)" x="4.5" y="4.5" width="55" height="55" ry="15" fill="#141414" filter="url(#filter1057)" opacity=".3" stroke-width="2.74436"/>
        <rect id="rect4719" x="1.1906257" y="1.1906257" width="14.552082" height="14.552082" ry="3.9687498" fill="#082b19" stroke-width=".726112"/>
        <rect id="rect1045" x="1.4552089" y="1.4552097" width="14.022916" height="14.022916" ry="3.8244317" fill="url(#linearGradient1053)" stroke-width=".726112"/>
        <path id="path4282" d="m8.5274203 1.4552078 0.615992 1.0756214-1.2947293 2.2244451-2.4868767-0.0094629-1.2847701-2.2438659h-0.0308749l0.5761543-0.9899702c-0.0640047 0.0110019-0.1273706 0.0237248-0.1902257 0.0378459l-0.5542441 0.9516262-1.2255113-0.0039798c-0.049637 0.046877-0.097847 0.094948-0.1449097 0.1444122l1.4306762 0.00498 1.2832756 2.2438659h0.01245l-1.2782963 2.1945686-2.5003213-0.0094629v0.1523797l2.5122733 0.010956 1.2758064 2.2309185-1.2827783 2.2055184-2.5048032-0.0094c1.879e-4 0.05931 0.00164 0.118152 0.00443 0.176781l2.5237271 0.0094 1.2673408 2.213987-0.7728537 1.328095c0.056113 0.01187 0.1128052 0.02197 0.1698091 0.03138l0.7464607-1.280787 2.5321927 0.0094 0.7579144 1.323611h0.1772783l-0.8027322-1.400299 1.2957257-2.22345 2.4863789 0.0094 1.28477 2.243368h0.01195l-0.757916 1.301701c0.07261-0.01386 0.144559-0.02943 0.215623-0.0473l0.702142-1.207584 1.248916 0.0044c0.05396-0.06228 0.106074-0.126005 0.155916-0.191722l-1.43715-0.0065-1.283773-2.243368h-0.01245l1.277799-2.1925745 2.230918 0.00846v-0.1542163l-2.240878-0.00846-1.276802-2.2319143 1.284272-2.2060201 2.217473 0.00847c-0.0052-0.059439-0.01157-0.1186662-0.01942-0.1772784l-2.222449-0.007906-1.267341-2.2154815 0.573665-0.9844925c-0.0558-0.012938-0.112083-0.024379-0.168813-0.034859l-0.55026 0.9441571-2.5311971-0.0094629-0.5721707-0.9999296zm0.7604045 1.1523093 2.5321932 0.011454 1.2773 2.2304206-1.282779 2.205522-2.5092849-0.00946-1.2852684-2.243368h-0.0104554zm-3.8921563 2.3300152 2.4843866 0.0094629 1.2703291 2.2154815-1.2942321 2.222453-2.4888685-0.0094629-1.2673408-2.2134895zm3.9519133 2.2846997 2.4878722 0.00946 1.267839 2.2139875-1.294729 2.2244455-2.4858816-0.0094-1.2683363-2.2170161zm-3.9568934 2.3305132 2.5077915 0.0089618 1.2847701 2.243866h0.010456l-1.2773001 2.194567-2.5321926-0.0094-1.2773-2.231416z" color="#000000" fill="#1d7c4d" stroke-width=".0264583"/>
    </g>
    <g fill="#03170d">
        <path id="rect3168" d="m5.6103713 4.2573887a0.45103916 0.45103916 0 0 0-0.4509941 0.4509941v2.7059644a0.45103916 0.45103916 0 0 0 0.4509941 0.450994h1.8039763a0.45103916 0.45103916 0 0 0 0.450994-0.450994v-2.7059644a0.45103916 0.45103916 0 0 0-0.450994-0.4509941zm0.4509941 0.9019881h0.9019881v1.8039763h-0.9019881z" color="#000000" style="-inkscape-stroke:none"/>
        <path id="path3170" d="m9.5189866 4.2573887a0.45099407 0.45099407 0 0 0-0.4509941 0.4509941 0.45099407 0.45099407 0 0 0 0.4509941 0.450994h0.4509941v1.8039763h-0.4509941a0.45099407 0.45099407 0 0 0-0.4509941 0.4509941 0.45099407 0.45099407 0 0 0 0.4509941 0.450994h1.8039764a0.45099407 0.45099407 0 0 0 0.450994-0.450994 0.45099407 0.45099407 0 0 0-0.450994-0.4509941h-0.450994v-2.2549703a0.45103916 0.45103916 0 0 0-0.450994-0.4509941z" color="#000000" style="-inkscape-stroke:none"/>
        <path id="rect3172" d="m9.5189866 9.0679922a0.45103916 0.45103916 0 0 0-0.4509941 0.450994v2.7059648a0.45103916 0.45103916 0 0 0 0.4509941 0.450994h1.8039764a0.45103916 0.45103916 0 0 0 0.450994-0.450994v-2.7059648a0.45103916 0.45103916 0 0 0-0.450994-0.450994zm0.4509941 0.9019881h0.9019883v1.8039767h-0.9019883z" color="#000000" style="-inkscape-stroke:none"/>
        <path id="path3174" d="m5.6103713 9.0679922a0.45099407 0.45099407 0 0 0-0.4509941 0.450994 0.45099407 0.45099407 0 0 0 0.4509941 0.4509941h0.4509941v1.8039767h-0.4509941a0.45099407 0.45099407 0 0 0-0.4509941 0.450994 0.45099407 0.45099407 0 0 0 0.4509941 0.450994h1.8039763a0.45099407 0.45099407 0 0 0 0.450994-0.450994 0.45099407 0.45099407 0 0 0-0.450994-0.450994h-0.4509941v-2.2549708a0.45103916 0.45103916 0 0 0-0.4509941-0.450994z" color="#000000" style="-inkscape-stroke:none"/>
    </g>
</svg>
