<?xml version="1.0" encoding="utf-8"?>
<svg width="64" height="64" viewBox="0 0 64 64" xmlns="http://www.w3.org/2000/svg">
  <defs>
    <filter id="shadow" x="-0.03" y="-0.03" width="1.06" height="1.06">
      <feGaussianBlur stdDeviation="0.65"/>
    </filter>
    <linearGradient id="bgGradient" x1="0" y1="0" x2="1" y2="1">
      <stop offset="0" stop-color="#ff7161"/>
      <stop offset="1" stop-color="#dd232b"/>
    </linearGradient>
    <linearGradient id="icon" x1="0" y1="0" x2="1" y2="1">
      <stop offset="0" stop-color="#ddd3db"/>
      <stop offset="1" stop-color="#fff1f1"/>
    </linearGradient>
  </defs>
  <rect x="4.5" y="4.5" width="55" height="55" ry="15" fill="#000" opacity="0.3" filter="url(#shadow)"/>
  <rect x="4" y="4" width="56" height="56" ry="15" fill="url(#bgGradient)"/>
  <path d="M 11.554 13.472 C 9.961 13.426 8.772 14.548 8.772 16.289 L 8.772 41.988 C 8.772 43.978 10.326 46.013 12.263 46.452 C 25.739 49.507 40.347 49.773 53.45 46.289 C 55.37 45.778 56.9 43.66 56.9 41.67 L 56.9 16.289 C 56.9 14.301 55.348 13.118 53.413 13.564 C 39.905 16.68 25.767 16.68 12.258 13.564 C 12.017 13.508 11.782 13.478 11.554 13.472 Z M 15.189 17.813 C 16.077 17.813 16.793 18.529 16.793 19.417 L 16.793 27.439 C 16.793 28.327 16.077 29.043 15.189 29.043 C 14.301 29.043 13.585 28.327 13.585 27.439 L 13.585 19.417 C 13.585 18.529 14.301 17.813 15.189 17.813 Z M 50.483 17.813 C 51.371 17.813 52.087 18.529 52.087 19.417 L 52.087 27.439 C 52.087 28.327 51.371 29.043 50.483 29.043 C 49.595 29.043 48.879 28.327 48.879 27.439 L 48.879 19.417 C 48.879 18.529 49.595 17.813 50.483 17.813 Z M 21.606 18.615 C 22.495 18.615 23.21 19.331 23.21 20.219 L 23.21 28.241 C 23.21 29.129 22.495 29.845 21.606 29.845 C 20.718 29.845 20.002 29.129 20.002 28.241 L 20.002 20.219 C 20.002 19.331 20.718 18.615 21.606 18.615 Z M 44.066 18.615 C 44.954 18.615 45.67 19.331 45.67 20.219 L 45.67 28.241 C 45.67 29.129 44.954 29.845 44.066 29.845 C 43.178 29.845 42.462 29.129 42.462 28.241 L 42.462 20.219 C 42.462 19.331 43.178 18.615 44.066 18.615 Z M 28.023 19.417 C 28.912 19.417 29.628 20.133 29.628 21.022 L 29.628 29.043 C 29.628 29.931 28.912 30.647 28.023 30.647 C 27.135 30.647 26.419 29.931 26.419 29.043 L 26.419 21.022 C 26.419 20.133 27.135 19.417 28.023 19.417 Z M 37.649 19.417 C 38.537 19.417 39.253 20.133 39.253 21.022 L 39.253 29.043 C 39.253 29.931 38.537 30.647 37.649 30.647 C 36.761 30.647 36.045 29.931 36.045 29.043 L 36.045 21.022 C 36.045 20.133 36.761 19.417 37.649 19.417 Z M 15.189 32.252 C 16.077 32.252 16.793 32.967 16.793 33.856 L 16.793 41.877 C 16.793 42.765 16.077 43.481 15.189 43.481 C 14.301 43.481 13.585 42.765 13.585 41.877 L 13.585 33.856 C 13.585 32.967 14.301 32.252 15.189 32.252 Z M 50.483 32.252 C 51.371 32.252 52.087 32.967 52.087 33.856 L 52.087 41.877 C 52.087 42.765 51.371 43.481 50.483 43.481 C 49.595 43.481 48.879 42.765 48.879 41.877 L 48.879 33.856 C 48.879 32.967 49.595 32.252 50.483 32.252 Z M 21.606 33.054 C 22.495 33.054 23.21 33.77 23.21 34.658 L 23.21 42.679 C 23.21 43.568 22.495 44.284 21.606 44.284 C 20.718 44.284 20.002 43.568 20.002 42.679 L 20.002 34.658 C 20.002 33.77 20.718 33.054 21.606 33.054 Z M 44.066 33.054 C 44.954 33.054 45.67 33.77 45.67 34.658 L 45.67 42.679 C 45.67 43.568 44.954 44.284 44.066 44.284 C 43.178 44.284 42.462 43.568 42.462 42.679 L 42.462 34.658 C 42.462 33.77 43.178 33.054 44.066 33.054 Z M 28.023 33.856 C 28.912 33.856 29.628 34.572 29.628 35.46 L 29.628 43.481 C 29.628 44.37 28.912 45.086 28.023 45.086 C 27.135 45.086 26.419 44.37 26.419 43.481 L 26.419 35.46 C 26.419 34.572 27.135 33.856 28.023 33.856 Z M 37.649 33.856 C 38.537 33.856 39.253 34.572 39.253 35.46 L 39.253 43.481 C 39.253 44.37 38.537 45.086 37.649 45.086 C 36.761 45.086 36.045 44.37 36.045 43.481 L 36.045 35.46 C 36.045 34.572 36.761 33.856 37.649 33.856 Z M 37.649 33.856" fill="url(#icon)" style=""/>
  <path d="M 32.936 15.185 C 33.38 15.185 33.739 15.544 33.739 15.987 L 33.739 30.442 C 33.739 30.887 33.38 31.246 32.936 31.246 C 32.492 31.246 32.133 30.887 32.133 30.442 L 32.133 15.987 C 32.133 15.544 32.492 15.185 32.936 15.185 Z M 32.936 15.185" fill="#9a9996" style=""/>
  <path d="M 29.725 11.972 L 29.725 14.8 C 29.725 16.577 31.158 18.01 32.936 18.01 C 34.713 18.01 36.147 16.577 36.147 14.8 L 36.147 11.972 L 29.725 11.972 Z M 29.725 11.972" fill="#9a9996" style=""/>
  <path d="M 36.805 13.774 C 36.805 15.905 35.078 17.632 32.948 17.632 C 30.818 17.632 29.091 15.905 29.091 13.774 C 29.091 11.645 30.818 9.918 32.948 9.918 C 35.078 9.918 36.805 11.645 36.805 13.774 Z M 36.805 13.774" fill="url(#icon)" style=""/>
  <path d="M 34.876 13.774 C 34.876 14.842 34.015 15.704 32.948 15.704 C 31.881 15.704 31.019 14.842 31.019 13.774 C 31.019 12.708 31.881 11.847 32.948 11.847 C 34.015 11.847 34.876 12.708 34.876 13.774 Z M 34.876 13.774" fill="#9a9996" style=""/>
</svg>