<svg id="svg24" width="64" height="64" version="1.1" viewBox="0 0 16.933 16.933" xmlns="http://www.w3.org/2000/svg">
    <defs id="defs12">
        <filter id="filter1057" x="-.026999999" y="-.026999999" width="1.054" height="1.054" color-interpolation-filters="sRGB">
            <feGaussianBlur id="feGaussianBlur1059" stdDeviation="0.61875"/>
        </filter>
        <linearGradient id="linearGradient1053" x1="-127" x2="-72" y1="60" y2="5" gradientTransform="matrix(.26457812 0 0 .26457812 34.792023 -.13493401)" gradientUnits="userSpaceOnUse">
            <stop id="stop1047" stop-color="#c78b3f" offset="0"/>
            <stop id="stop1049" stop-color="#dcb787" stop-opacity=".99607843" offset="1"/>
        </linearGradient>
    </defs>
    <rect id="rect1055" transform="scale(.26457812)" x="4.4999995" y="4.4999995" width="55" height="55" ry="15" fill="#141414" filter="url(#filter1057)" opacity=".3" stroke-linecap="round" stroke-width="2.74436"/>
    <rect id="rect1045" x="1.1906021" y="1.1906021" width="14.551796" height="14.551796" ry="3.9686716" fill="url(#linearGradient1053)" stroke-linecap="round" stroke-width=".726098"/>
    <g id="g522" transform="matrix(.01670034 0 0 .01670034 7.0340996 2.2772664)">
        <polygon id="polygon406" points="201.6 22.4 210.4 29.6 206.4 5.6 243.2 0 245.6 19.2 252 13.6 252 66.4 235.2 66.4 208 75.2 185.6 33.6" fill="#4dc430"/>
        <polygon id="polygon408" points="302.4 22.4 293.6 29.6 297.6 5.6 260.8 0 258.4 19.2 252 13.6 252 66.4 268.8 66.4 296 75.2 318.4 33.6" fill="#3aad1a"/>
        <circle id="circle410" cx="252" cy="274.39999" r="229.60001" fill="#ff4800"/>
        <path id="path412" d="m252 44.8c126.4 0 229.6 102.4 229.6 229.6 0 126.4-102.4 229.6-229.6 229.6" fill="#c92b00"/>
        <circle id="circle414" cx="252" cy="274.39999" r="182.39999" fill="#ff794a"/>
        <path id="path416" d="m252 92c100.8 0 182.4 81.6 182.4 182.4s-81.6 182.4-182.4 182.4" fill="#ef683f"/>
        <circle id="circle418" cx="252" cy="274.39999" r="146.39999" fill="#b21010"/>
        <path id="path420" d="m252 128c80.8 0 146.4 65.6 146.4 146.4s-65.6 146.4-146.4 146.4" fill="#a00000"/>
        <rect id="rect422" x="220" y="116" width="64" height="312" fill="#ef683f"/>
        <g id="g428" fill="#ff794a">
            <rect id="rect424" x="220" y="116" width="32" height="312"/>
            <circle id="circle426" cx="252" cy="274.39999" r="56"/>
        </g>
        <path id="path430" d="m252 218.4c31.2 0 56 25.6 56 56 0 31.2-24.8 56-56 56" fill="#ef683f"/>
        <g id="g448" fill="#ffcd50">
            <path id="path432" d="m169.6 205.6 28 15.2-8-32.8c-0.8 0-1.6-2.4-2.4-4-4.8-6.4-13.6-6.4-19.2-2.4-6.4 4.8-7.2 13.6-2.4 20 0.8 1.6 2.4 3.2 4 4z"/>
            <path id="path434" d="m149.6 255.2 32.8-0.8-23.2-22.4c-1.6-1.6-3.2-2.4-4.8-3.2-7.2-3.2-15.2 0.8-18.4 8-2.4 7.2 0.8 15.2 8 18.4 1.6-0.8 3.2 0 5.6 0z"/>
            <path id="path436" d="m158.4 312 24-22.4-32.8-1.6c-1.6 0-4 0-5.6 0.8-7.2 2.4-11.2 10.4-8 17.6 2.4 7.2 10.4 11.2 17.6 8 1.6 0 3.2-0.8 4.8-2.4z"/>
            <path id="path438" d="m189.6 358.4 8-31.2-28 16c-1.6 0.8-3.2 2.4-4.8 4-4.8 6.4-3.2 15.2 2.4 19.2 6.4 4.8 15.2 3.2 19.2-2.4 2.4-1.6 3.2-4 3.2-5.6z"/>
            <path id="path440" d="m334.4 205.6-28 15.2 8-32.8c0.8 0 1.6-2.4 2.4-4 4.8-6.4 13.6-6.4 19.2-2.4 6.4 4.8 7.2 13.6 2.4 20-0.8 1.6-2.4 3.2-4 4z"/>
            <path id="path442" d="m354.4 255.2-32.8-0.8 23.2-22.4c1.6-1.6 3.2-2.4 4.8-3.2 7.2-3.2 15.2 0.8 18.4 8 2.4 7.2-0.8 15.2-8 18.4-1.6-0.8-3.2 0-5.6 0z"/>
            <path id="path444" d="m345.6 312-24-22.4 32.8-1.6c1.6 0 4 0 5.6 0.8 7.2 2.4 11.2 10.4 8 17.6-2.4 7.2-10.4 11.2-17.6 8-1.6 0-3.2-0.8-4.8-2.4z"/>
            <path id="path446" d="m314.4 358.4-8-31.2 28 16c1.6 0.8 3.2 2.4 4.8 4 4.8 6.4 3.2 15.2-2.4 19.2-6.4 4.8-15.2 3.2-19.2-2.4-2.4-1.6-3.2-4-3.2-5.6z"/>
        </g>
    </g>
    <g id="g592" transform="matrix(-.16327881 -.10666098 .10666098 -.16327881 9.7080058 21.562446)">
        <g id="g534">
            <path id="path524" d="m32.051 25.37s4.991-0.346 9.472-3.666c0 0 5.465-4.594 8.451-9.612 0 0 0.719-1.881 3.624-1.302 0 0 2.437-1.668-2.011-6.117l-2.323-2.323-20.116 20.117z" fill="#a46f3e"/>
            <g id="g331" fill="#d2d5d7">
                <path id="path526" d="M 36.948,30.267 C 20.837,46.378 8.262,53.513 0,51.615 L 29.148,22.467 Z"/>
                <circle id="circle528" cx="35.951" cy="20.414" r="1.5"/>
                <circle id="circle530" cx="47.951" cy="8.4139996" r="1.5"/>
            </g>
            <path id="path532" d="m33.759 27.192c-14.385 13.786-20.187 17.294-29.292 19.956l-2.853 2.852c11.375-2.942 17.194-5.709 33.529-21.365z" fill="#e6e6e6"/>
        </g>
    </g>
    <g id="g650" transform="matrix(.00679731 -.01481805 .01481805 .00679731 -.02327246 11.239581)">
        <path id="path594" d="m499.207 155.955c-141.135-115.577-345.279-115.577-486.414 0-16.067 13.158-17.131 37.38-2.446 52.065l115.713 115.713c3.283 3.283 8.44 3.682 12.229 0.998 7.53-5.331 16.84-8.314 26.866-7.872 22.175 0.977 40.227 19.03 41.204 41.205 0.442 10.027-2.541 19.335-7.872 26.865-2.682 3.789-2.284 8.946 0.998 12.229l37.822 37.822c10.324 10.324 27.061 10.324 37.385 0l81.492-81.492c2.439-2.439 3.313-5.997 2.406-9.327-1.531-5.624-2.146-11.625-1.653-17.842 2.004-25.271 22.405-45.671 47.677-47.672 6.215-0.493 12.215 0.123 17.838 1.653 3.329 0.906 6.887 0.033 9.327-2.406l69.874-69.874c14.684-14.684 13.621-38.907-2.446-52.065zm-379.203 75.716c-23.858 0-43.198-19.34-43.198-43.198s19.34-43.198 43.198-43.198 43.198 19.34 43.198 43.198-19.34 43.198-43.198 43.198zm96.056 53.407c-13.357 0-24.185-10.828-24.185-24.185s10.828-24.185 24.185-24.185 24.185 10.828 24.185 24.185c1e-3 13.357-10.828 24.185-24.185 24.185zm30.491-125.433c-17.722 0-32.089-14.367-32.089-32.089s14.367-32.089 32.089-32.089 32.089 14.367 32.089 32.089-14.366 32.089-32.089 32.089zm48.659 170.872c-13.357 0-24.185-10.828-24.185-24.185s10.828-24.185 24.185-24.185 24.185 10.828 24.185 24.185c0 13.356-10.827 24.185-24.185 24.185zm86.48-105.121c-23.858 0-43.198-19.34-43.198-43.198s19.34-43.198 43.198-43.198 43.198 19.34 43.198 43.198-19.341 43.198-43.198 43.198z" fill="#fdd05f"/>
        <path id="path596" d="m246.551 95.465c17.722 0 32.089 14.367 32.089 32.089 0 2.979-0.414 5.861-1.174 8.598 4.212-5.43 6.725-12.241 6.725-19.645 0-17.722-14.367-32.089-32.089-32.089-14.743 0-27.156 9.946-30.915 23.492 5.87-7.568 15.045-12.445 25.364-12.445zm30.535 194.861c4.431-5.014 10.906-8.179 18.125-8.179 13.357 0 24.185 10.828 24.185 24.185 0 1.7-0.177 3.357-0.511 4.959 3.77-4.264 6.062-9.866 6.062-16.006 0-13.357-10.828-24.185-24.185-24.185-11.659-1e-3 -21.388 8.247-23.676 19.226zm104.604-151.328c23.858 0 43.198 19.34 43.198 43.198 0 4.772-0.785 9.357-2.214 13.649 4.889-7.001 7.765-15.51 7.765-24.696 0-23.858-19.34-43.198-43.198-43.198-19.085 0-35.269 12.383-40.984 29.549 7.805-11.181 20.761-18.502 35.433-18.502zm-165.63 97.71c13.357 0 24.185 10.828 24.185 24.185 0 1.7-0.177 3.358-0.511 4.959 3.77-4.264 6.062-9.866 6.062-16.005 0-13.357-10.828-24.185-24.185-24.185-11.657 0-21.386 8.248-23.674 19.226 4.43-5.015 10.905-8.18 18.123-8.18zm-96.056-91.435c23.858 0 43.198 19.34 43.198 43.198 0 4.772-0.785 9.357-2.214 13.649 4.889-7.001 7.765-15.51 7.765-24.696 0-23.858-19.34-43.198-43.198-43.198-19.085 0-35.27 12.383-40.984 29.549 7.807-11.181 20.762-18.502 35.433-18.502zm160.238 278.662c-10.324 10.324-27.061 10.324-37.385 0l-37.822-37.822c-2.119-2.12-3.029-5.02-2.691-7.828-1.093 2.336-2.382 4.562-3.859 6.648-2.682 3.789-2.284 8.946 0.998 12.229l37.822 37.822c10.324 10.324 27.061 10.324 37.385 0l81.492-81.492c2.152-2.152 3.081-5.176 2.648-8.145zm226.961-226.961-69.874 69.874c-2.439 2.439-5.997 3.313-9.327 2.406-5.623-1.53-11.623-2.146-17.838-1.653-20.642 1.635-38.028 15.547-44.8 34.358 8.611-13.024 22.908-22.017 39.249-23.311 6.215-0.492 12.215 0.123 17.838 1.653 3.329 0.906 6.887 0.033 9.327-2.406l69.874-69.874c4.316-4.316 7.26-9.458 8.874-14.898-1.002 1.34-2.103 2.631-3.323 3.851zm-303.009 176.677c5.23-7.49 8.152-16.708 7.714-26.633-0.977-22.175-19.029-40.227-41.204-41.205-10.027-0.442-19.336 2.541-26.866 7.872-3.789 2.682-8.946 2.284-12.229-0.998l-115.713-115.713c-9.52-9.52-12.413-23.047-8.898-34.972-10.256 13.636-9.306 33.366 3.347 46.019l115.714 115.713c3.283 3.283 8.44 3.682 12.229 0.998 7.53-5.331 16.84-8.314 26.866-7.872 22.175 0.977 40.227 19.03 41.204 41.204 0.24 5.469-0.543 10.719-2.164 15.587z" enable-background="new" opacity=".15"/>
    </g>
</svg>
