<?xml version="1.0" encoding="UTF-8" standalone="no"?>
<svg
   width="64"
   height="64"
   version="1.1"
   viewBox="0 0 16.933 16.933"
   id="svg1215"
   sodipodi:docname="org.kde.plasmatube.svg"
   inkscape:version="1.2 (dc2aedaf03, 2022-05-15)"
   xml:space="preserve"
   xmlns:inkscape="http://www.inkscape.org/namespaces/inkscape"
   xmlns:sodipodi="http://sodipodi.sourceforge.net/DTD/sodipodi-0.dtd"
   xmlns:xlink="http://www.w3.org/1999/xlink"
   xmlns="http://www.w3.org/2000/svg"
   xmlns:svg="http://www.w3.org/2000/svg"
   xmlns:rdf="http://www.w3.org/1999/02/22-rdf-syntax-ns#"
   xmlns:cc="http://creativecommons.org/ns#"
   xmlns:dc="http://purl.org/dc/elements/1.1/"><sodipodi:namedview
     id="namedview1217"
     pagecolor="#ffffff"
     bordercolor="#666666"
     borderopacity="1.0"
     inkscape:showpageshadow="2"
     inkscape:pageopacity="0.0"
     inkscape:pagecheckerboard="0"
     inkscape:deskcolor="#d1d1d1"
     showgrid="false"
     inkscape:zoom="5.6568542"
     inkscape:cx="1.5909903"
     inkscape:cy="0.70710678"
     inkscape:window-width="1920"
     inkscape:window-height="1052"
     inkscape:window-x="0"
     inkscape:window-y="28"
     inkscape:window-maximized="1"
     inkscape:current-layer="svg1215" /><defs
     id="defs1203"><filter
   id="filter1057"
   x="-0.026999999"
   y="-0.026999999"
   width="1.054"
   height="1.054"
   color-interpolation-filters="sRGB"><feGaussianBlur
     stdDeviation="0.61875"
     id="feGaussianBlur1190" /></filter><linearGradient
   id="linearGradient1068"
   x1="1.3315"
   x2="13.449"
   y1="15.576"
   y2="3.4588"
   gradientTransform="translate(-8e-4,0.1405)"
   gradientUnits="userSpaceOnUse"><stop
     stop-color="#3caaff"
     offset="0"
     id="stop1193"
     style="stop-color:#34495e;stop-opacity:1;" /><stop
     stop-color="#b496ff"
     offset="1"
     id="stop1195"
     style="stop-color:#2c3e50;stop-opacity:1;" /></linearGradient><linearGradient
   id="linearGradient853"
   x1="1.3315"
   x2="13.449"
   y1="15.576"
   y2="3.4588"
   gradientTransform="matrix(1.1322 0 0 1.1322 -1.9277 -5.2545)"
   gradientUnits="userSpaceOnUse"><stop
     stop-color="#fff"
     offset="0"
     id="stop1198" /><stop
     stop-color="#e6e6ff"
     offset="1"
     id="stop1200" /></linearGradient><linearGradient
   id="linearGradient1002"
   x1="20.947001"
   x2="11.301"
   y1="6.9204998"
   y2="1.3516999"
   gradientTransform="matrix(0.99998033,0,0,0.99998033,-43.929058,-0.97918649)"
   gradientUnits="userSpaceOnUse"
   xlink:href="#linearGradient990" /><linearGradient
   id="linearGradient990"><stop
     stop-color="#da4453"
     offset="0"
     id="stop1307" /><stop
     stop-color="#da4453"
     stop-opacity=".55844"
     offset="1"
     id="stop1309" /></linearGradient><linearGradient
   id="linearGradient1062"
   x1="50.544998"
   x2="78.199997"
   y1="14.438"
   y2="42.092999"
   gradientTransform="matrix(0.26458,0,0,0.26458,-11.112,2.5058e-4)"
   gradientUnits="userSpaceOnUse"><stop
     offset="0"
     id="stop1319" /><stop
     stop-opacity="0"
     offset="1"
     id="stop1321" /></linearGradient><linearGradient
   id="linearGradient992"
   x1="52.425999"
   x2="79.985001"
   y1="37.034"
   y2="21.122999"
   gradientTransform="matrix(0.26458,0,0,0.26458,-11.112,2.5058e-4)"
   gradientUnits="userSpaceOnUse"
   xlink:href="#linearGradient990" /><linearGradient
   id="linearGradient2155"
   x1="25"
   x2="25"
   y1="5.0001001"
   y2="42.000999"
   gradientTransform="matrix(0.2645748,0,0,0.2645748,-32.816934,-0.97944376)"
   gradientUnits="userSpaceOnUse"><stop
     stop-color="#34495e"
     offset="0"
     id="stop1312" /><stop
     stop-color="#2c3e50"
     offset="1"
     id="stop1314" /></linearGradient>












	
	
	
	
	
	
	
	




		
		
		
		
		
		
	
		
		
		
		
	
		
		
	
		
		
		
		
		
	
		
		
	</defs><metadata
     id="metadata1205"><rdf:RDF><cc:Work
         rdf:about=""><dc:format>image/svg+xml</dc:format><dc:type
           rdf:resource="http://purl.org/dc/dcmitype/StillImage" /></cc:Work></rdf:RDF></metadata><rect
     transform="matrix(0.26458,0,0,0.26458,0.79772,0.7977)"
     x="1.485"
     y="1.485"
     width="55"
     height="55"
     ry="15"
     fill="#141414"
     filter="url(#filter1057)"
     opacity="0.3"
     stroke-linecap="round"
     stroke-width="2.7444"
     id="rect1207" /><path
     id="polygon4332"
     style="fill:#233140;fill-opacity:1;stroke-width:0.0294365"
     d="m 6.224823,1.19036 c -0.665332,0 -1.234978,0.01867 -1.738878,0.06098 -1.604098,0.27254 -2.874827,1.496923 -3.208526,3.078821 -3.5e-5,3.21e-4 3.2e-5,7.45e-4 0,10e-4 -0.06492,0.6219 -0.08682,1.363148 -0.08682,2.246847 v 3.77644 c 0,0.883659 0.02189,1.624947 0.08682,2.246847 3.2e-5,3.21e-4 -3.5e-5,7.47e-4 0,0.001 0.333669,1.581898 1.604428,2.806738 3.208526,3.079338 0.50391,0.0423 1.073576,0.06098 1.738878,0.06098 h 4.483359 c 0.66532,0 1.234978,-0.01867 1.738878,-0.06098 1.604098,-0.27254 2.874827,-1.49744 3.208526,-3.079338 5.9e-5,-3.3e-4 -5.9e-5,-7.39e-4 0,-0.001 0.06492,-0.62187 0.08681,-1.363118 0.08681,-2.246817 V 6.578039 c 0,-0.883659 -0.02189,-1.624948 -0.08681,-2.246847 -5.9e-5,-3.3e-4 5.9e-5,-7.39e-4 0,-10e-4 C 15.321917,2.748294 14.051158,1.523971 12.44706,1.251371 11.94315,1.209061 11.373481,1.190391 10.708182,1.190391 Z" /><text
     xml:space="preserve"
     style="font-style:normal;font-weight:normal;font-size:2.66621px;line-height:1.25;font-family:sans-serif;fill:#ecf0f1;fill-opacity:1;stroke:none;stroke-width:0.44437"
     x="4.2176847"
     y="7.520175"
     id="text489"
     transform="scale(1.0266986,0.97399567)"><tspan
       sodipodi:role="line"
       id="tspan487"
       x="4.2176847"
       y="7.520175"
       style="font-style:normal;font-variant:normal;font-weight:normal;font-stretch:normal;font-size:2.66621px;font-family:'YouTube Sans';-inkscape-font-specification:'YouTube Sans';fill:#ecf0f1;fill-opacity:1;stroke-width:0.44437">Plasma</tspan></text><path
     id="path4334"
     style="fill:#e74c3c;fill-opacity:1;stroke-width:0.0294365"
     d="M 5.348408,1.203279 C 5.03997,1.213179 4.752991,1.228919 4.485945,1.251339 2.881847,1.523879 1.611118,2.748262 1.277419,4.33016 c -3.4e-5,3.21e-4 3.3e-5,7.46e-4 0,10e-4 -0.06492,0.621899 -0.08682,1.363148 -0.08682,2.246847 v 3.447267 c 2.679863,0 4.157804,-3.524257 4.157804,-8.575019 z" /><path
     id="path4336"
     style="fill:#e74c3c;fill-opacity:1;stroke-width:0.0294365"
     d="m 11.584597,1.203279 v 0.247008 c 0,5.050762 1.477941,8.575019 4.157804,8.575019 V 6.578039 c 0,-0.883659 -0.02189,-1.624948 -0.08681,-2.246847 -7e-5,-3.29e-4 6.9e-5,-7.39e-4 0,-10e-4 C 15.321917,2.748294 14.051158,1.523971 12.44706,1.251371 12.180009,1.228951 11.893037,1.213191 11.584597,1.203311 Z" /><path
     style="fill:#c0392b;fill-opacity:1;stroke-width:0.0294365"
     d="m 8.4665036,2.749512 v 0 c -0.5740109,0 -1.0394014,-0.465391 -1.0394014,-1.039402 V 1.19038 H 9.5059345 V 1.710081 C 9.505905,2.284092 9.0405146,2.749512 8.4665036,2.749512"
     id="path4340" /><path
     style="fill:#c0392b;fill-opacity:1;stroke-width:0.0294365"
     d="m 6.3876714,2.749512 v 0 C 5.8136604,2.749512 5.34827,2.284121 5.34827,1.71011 V 1.19038 H 7.4271022 V 1.710081 C 7.4270728,2.284092 6.9616824,2.749512 6.3876714,2.749512"
     id="path4342" /><path
     id="path4344"
     style="fill:#c0392b;fill-opacity:1;stroke-width:0.0294365"
     d="M 3.269506,1.670425 C 2.782343,1.933184 2.357222,2.294342 2.020511,2.72822 c 0.06766,0.01385 0.137534,0.02119 0.209286,0.02119 0.57401,0 1.039709,-0.465182 1.039709,-1.039192 z" /><path
     id="path4346"
     style="fill:#c0392b;fill-opacity:1;stroke-width:0.0294365"
     d="m 13.663499,1.670425 v 0.03979 c 0,0.57401 0.465699,1.039192 1.039709,1.039192 0.07175,0 0.141626,-0.0073 0.209286,-0.02119 C 14.575782,2.294346 14.150665,1.933183 13.663499,1.670422 Z" /><path
     style="fill:#c0392b;fill-opacity:1;stroke-width:0.0294365"
     d="m 10.545306,2.749512 v 0 c -0.5740105,0 -1.039401,-0.465391 -1.039401,-1.039402 V 1.19038 h 2.078832 v 0.519701 c 0,0.574011 -0.46539,1.039431 -1.039431,1.039431"
     id="path4348" /><path
     id="path4352"
     style="fill:#000000;fill-opacity:0.40000001;stroke-width:0.0294365"
     d="m 5.608335,14.183626 c -0.287123,0 -0.519854,0.232732 -0.519854,0.519855 v 1.014905 c 0.347614,0.01571 0.7216613,0.02377 1.1363421,0.02377 h 4.4833589 c 0.414795,0 0.78866,-0.0081 1.136342,-0.02377 v -1.014905 c 0,-0.287123 -0.232731,-0.519855 -0.519854,-0.519855 z" /><path
     id="path4354"
     style="fill:#e74c3c;fill-opacity:1;stroke-width:0.0294365"
     d="m 1.190604,10.025306 v 0.329172 c 0,0.883659 0.02189,1.624948 0.08682,2.246847 3.3e-5,3.22e-4 -3.4e-5,7.47e-4 0,0.001 0.303501,1.438873 1.382445,2.582104 2.782204,2.982188 -0.01438,-1.613454 -0.310381,-5.559241 -2.869019,-5.559241 z" /><path
     id="path4356"
     style="fill:#e74c3c;fill-opacity:1;stroke-width:0.0294365"
     d="m 15.742401,10.025306 c -2.558638,0 -2.854642,3.945787 -2.869019,5.559241 1.399755,-0.400048 2.478676,-1.543316 2.782204,-2.982188 6.9e-5,-3.29e-4 -7e-5,-7.39e-4 0,-0.001 0.06492,-0.621903 0.08681,-1.363152 0.08681,-2.246851 z" /><path
     style="fill:#c0392b;fill-opacity:1;stroke-width:0.0294365"
     d="m 3.009337,7.810022 c -0.03559,0 -0.07171,-0.0075 -0.10653,-0.02314 C 2.771844,7.727892 2.713648,7.574056 2.772874,7.443093 3.105477,6.705622 3.361191,5.810694 3.532953,4.783745 3.556593,4.642126 3.690438,4.546487 3.832057,4.570154 3.973411,4.593794 4.06905,4.727639 4.045383,4.869257 3.866615,5.940627 3.597919,6.878443 3.24633,7.656949 3.20291,7.753119 3.108597,7.810019 3.009337,7.810019"
     id="path4360" /><path
     style="fill:#c0392b;fill-opacity:1;stroke-width:0.0294365"
     d="m 3.958398,3.788913 c -0.0078,0 -0.0161,-2.65e-4 -0.02417,-10e-4 C 3.791314,3.774663 3.686314,3.648119 3.699325,3.50544 3.723755,3.240395 3.739595,2.965193 3.754165,2.688196 3.761665,2.545017 3.874737,2.434071 4.027541,2.442372 4.170455,2.449872 4.280636,2.57204 4.273365,2.715484 4.258295,2.999251 4.241925,3.281193 4.216965,3.552715 4.204485,3.687593 4.091183,3.788943 3.958395,3.788943"
     id="path4362" /><path
     style="fill:#c0392b;fill-opacity:1;stroke-width:0.0294365"
     d="m 13.92367,7.810022 c -0.09926,0 -0.193603,-0.0569 -0.236993,-0.15304 -0.351589,-0.778507 -0.620256,-1.716323 -0.799053,-2.787692 -0.02364,-0.141619 0.07197,-0.275437 0.213327,-0.299104 0.141353,-0.02364 0.275436,0.07197 0.299103,0.213591 0.171762,1.02695 0.427447,1.921877 0.760079,2.659349 0.05926,0.130962 0.001,0.284797 -0.129932,0.343788 -0.03482,0.01557 -0.07094,0.02311 -0.106531,0.02311"
     id="path4364" /><path
     style="fill:#c0392b;fill-opacity:1;stroke-width:0.0294365"
     d="m 12.97458,3.788913 c -0.133053,0 -0.246089,-0.10135 -0.258541,-0.236198 -0.02493,-0.271552 -0.04133,-0.553494 -0.0564,-0.837232 -0.0073,-0.143444 0.10291,-0.265576 0.245824,-0.273111 0.150185,-0.0086 0.265841,0.10238 0.273376,0.245823 0.01454,0.276997 0.03041,0.552199 0.05484,0.817245 0.01298,0.142649 -0.09199,0.269196 -0.234902,0.282472 -0.0081,7.36e-4 -0.0164,10e-4 -0.0242,10e-4"
     id="path4366" /><path
     id="path4372"
     style="fill:#c0392b;fill-opacity:1;stroke-width:0.0294365"
     d="M 5.348408,1.203279 C 5.03997,1.213179 4.752991,1.228919 4.485945,1.251339 4.051975,1.325069 3.642731,1.469122 3.269506,1.670427 v 0.03979 c 0,0.57401 0.465182,1.039192 1.039193,1.039192 0.57404,0 1.039709,-0.465182 1.039709,-1.039192 z" /><path
     id="path4374"
     style="fill:#c0392b;fill-opacity:1;stroke-width:0.0294365"
     d="m 11.584597,1.203279 v 0.506936 c 0,0.57401 0.465699,1.039192 1.039709,1.039192 0.574011,0 1.039164,-0.465182 1.039193,-1.039192 V 1.670425 C 13.290271,1.469117 12.88103,1.325086 12.44706,1.251337 12.180009,1.228917 11.893037,1.213157 11.584597,1.203277 Z" /><path
     style="fill:#c0392b;fill-opacity:1;stroke-width:0.0294365"
     d="m 1.318772,10.06406 c -0.04053,-0.02314 -0.08445,-0.02988 -0.128108,-0.02961 v 0.5683 c 0.585698,0.401484 1.019414,1.183876 1.28602,2.339463 0.02782,0.120306 0.134878,0.201374 0.253095,0.201374 0.01922,0 0.03897,-0.0021 0.05846,-0.0065 0.139794,-0.03247 0.227102,-0.171761 0.194899,-0.31182 C 2.662987,11.438178 2.103282,10.509193 1.318771,10.064055"
     id="path4376" /><path
     id="path4378"
     style="fill:#c0392b;fill-opacity:1;stroke-width:0.0294365"
     d="m 2.906228,13.663255 c -0.0088,2.22e-4 -0.01739,9.3e-4 -0.02635,0.0021 -0.142413,0.01793 -0.243466,0.147767 -0.225304,0.290416 0.04302,0.340425 0.0694,0.668429 0.08526,0.96478 0.167911,0.128712 0.34707,0.243751 0.534841,0.344675 -0.01166,-0.391079 -0.04082,-0.86673 -0.104901,-1.374566 -0.01656,-0.133237 -0.13112,-0.230707 -0.263545,-0.227372 z" /><path
     id="path4380"
     style="fill:#c0392b;fill-opacity:1;stroke-width:0.0294365"
     d="m 14.013858,13.663255 c -0.126321,0.0034 -0.234619,0.09855 -0.250625,0.227372 -0.06408,0.507935 -0.09324,0.983482 -0.104902,1.374566 0.18777,-0.100923 0.366932,-0.215962 0.534841,-0.344675 0.01586,-0.296351 0.04225,-0.624355 0.08526,-0.96478 0.01793,-0.142384 -0.08289,-0.272224 -0.225305,-0.290416 -0.01337,-0.0017 -0.02621,-0.0024 -0.03927,-0.0021 z" /><path
     style="fill:#c0392b;fill-opacity:1;stroke-width:0.0294365"
     d="m 15.742372,10.034329 c -0.04365,-2.65e-4 -0.08757,0.0068 -0.128107,0.02961 -0.784482,0.445138 -1.344216,1.374094 -1.664367,2.761199 -0.03223,0.140058 0.05484,0.279587 0.194899,0.31182 0.01949,0.0044 0.03924,0.0065 0.05846,0.0065 0.118246,0 0.225042,-0.08107 0.253095,-0.201139 0.266605,-1.155823 0.700293,-1.938244 1.28602,-2.339728 z"
     id="path4382" /><path
     d="m 8.4664947,8.2997143 c -1.3029861,0 -2.2682479,0.043285 -2.9109335,0.08657 C 5.3483299,8.4295692 5.1616564,8.5161229 5.0070982,8.6459713 4.8525908,8.7758099 4.746891,8.9489417 4.6977235,9.1220669 4.6063931,9.5116007 4.5711729,10.074258 4.5711729,10.853324 c 0,0.822346 0.035237,1.385005 0.1265506,1.774537 0.045657,0.216407 0.1548673,0.346252 0.3093747,0.519378 0.1580573,0.129838 0.3306705,0.216407 0.5343962,0.216407 0.6461913,0.08657 1.6220142,0.129838 2.9250003,0.129838 1.3027718,0 2.2787663,-0.04329 2.9249573,-0.129838 0.203857,0 0.393861,-0.08657 0.548377,-0.216407 0.154507,-0.173126 0.246271,-0.302971 0.295612,-0.519378 0.09133,-0.389532 0.126387,-0.952191 0.126387,-1.774537 0,-0.779066 -0.03506,-1.3417233 -0.126387,-1.7312571 C 12.189555,8.9489417 12.097799,8.7758164 11.939829,8.6459713 11.785305,8.5161327 11.595309,8.4295643 11.391452,8.3862842 10.745261,8.3429993 9.7692665,8.2997143 8.4664947,8.2997143 Z"
     fill="#c0392b"
     id="path14630"
     style="stroke-width:0.432814" /><path
     d="m 8.4664947,7.8669004 c -1.3029861,0 -2.2682479,0.043285 -2.9109335,0.086554 C 5.3483299,7.996739 5.1616564,8.0832926 5.0070982,8.2131427 4.8525908,8.3429813 4.746891,8.516113 4.6977235,8.6892383 4.6063931,9.0787721 4.5711729,9.6414295 4.5711729,10.420495 c 0,0.822347 0.035237,1.385006 0.1265506,1.774538 0.045657,0.216407 0.1548673,0.346252 0.3093747,0.519377 0.1580573,0.129839 0.3306705,0.216407 0.5343962,0.216407 0.6461913,0.08655 1.6220142,0.129839 2.9250003,0.129839 1.3027718,0 2.2787663,-0.04328 2.9249573,-0.129839 0.203857,0 0.393861,-0.08657 0.548377,-0.216407 0.154507,-0.173125 0.246271,-0.30297 0.295612,-0.519377 0.09133,-0.389532 0.126387,-0.952191 0.126387,-1.774538 0,-0.7790655 -0.03506,-1.3417229 -0.126387,-1.7312567 C 12.189555,8.516113 12.097799,8.3429878 11.939829,8.2131427 11.785305,8.0833041 11.595309,7.9967357 11.391452,7.953454 10.745261,7.910169 9.7692665,7.8669004 8.4664947,7.8669004 Z"
     fill="#e74c3c"
     id="path14632"
     style="stroke-width:0.432814" /><rect
     height="0.43281412"
     width="1.7312565"
     y="8.7325392"
     x="5.2203894"
     id="rect14636"
     style="fill:#ecf0f1;stroke-width:0.432814" /><rect
     height="3.0296986"
     width="0.43281412"
     y="9.1653528"
     x="5.8696079"
     id="rect14638"
     style="fill:#ecf0f1;stroke-width:0.432814" /><path
     d="m 6.7352391,9.5981559 v 0.1298386 0.7357845 1.168596 c 0,0.173127 0.015704,0.302971 0.040602,0.389534 0.040422,0.08657 0.1409298,0.173125 0.284014,0.173125 0.1555544,0 0.3761573,-0.129838 0.5410165,-0.30297 v 0.08657 0.216407 H 8.0336857 V 9.5981559 H 7.6008718 V 11.54582 11.5891 c -0.09331,0.129839 -0.254148,0.216407 -0.3381137,0.216407 -0.056012,0 -0.085343,-0.04329 -0.0947,-0.129839 -0.00311,0 0,-0.08657 0,-0.173125 V 10.463795 9.7280109 9.5981723 Z"
     id="path14640"
     style="fill:#ecf0f1;stroke-width:0.432814" /><path
     d="m 8.4664947,8.7325282 v 0.8656294 2.5968834 h 0.4328155 v -0.189572 -0.108196 c 0.1649017,0.201257 0.3856372,0.297774 0.5410165,0.297774 0.1432691,0 0.2436752,-0.05583 0.2839257,-0.175721 0.025111,-0.0779 0.040684,-0.19996 0.040684,-0.365295 v -0.757425 -0.757425 c 0,-0.1653356 -0.015541,-0.2873891 -0.040684,-0.3652955 -0.040259,-0.1198926 -0.140668,-0.1757214 -0.2839257,-0.1757214 -0.1553744,0 -0.3761148,0.096516 -0.5410165,0.2977749 V 9.5981641 8.7325347 Z m 0.7708425,1.2577577 c 0.056257,0 0.085261,0.03679 0.094782,0.1082121 0.00311,0.0065 0,0.06882 0,0.175723 v 0.622386 0.622387 c 0,0.106903 0.00311,0.16923 0,0.175723 -0.00949,0.07142 -0.038525,0.108212 -0.094782,0.108212 -0.083969,0 -0.2445406,-0.07705 -0.338027,-0.216407 v -0.04068 -1.339126 c 0.09349,-0.139359 0.2540613,-0.2164081 0.338027,-0.2164081 z"
     id="path14642"
     style="fill:#ecf0f1;stroke-width:0.432814" /><path
     d="m 10.846973,9.5981576 c -0.358371,0 -0.649221,0.2908502 -0.649221,0.6492204 v 1.298442 c 0,0.358371 0.29085,0.649221 0.649221,0.649221 0.35837,0 0.649221,-0.29085 0.649221,-0.649221 V 11.329413 H 11.06338 v 0.216407 c 0,0.119451 -0.09694,0.216407 -0.216407,0.216407 -0.119451,0 -0.216407,-0.09694 -0.216407,-0.216407 v -0.216407 -0.432814 h 0.432814 0.432814 v -0.649221 c 0,-0.3583702 -0.290851,-0.6492204 -0.649221,-0.6492204 z m 0,0.4328134 c 0.119451,0 0.216407,0.09694 0.216407,0.216407 v 0.216407 h -0.432814 v -0.216407 c 0,-0.11945 0.09696,-0.216407 0.216407,-0.216407 z"
     id="path14644"
     style="fill:#ecf0f1;stroke-width:0.432814" /></svg>
