<svg id="svg44" version="1.1" viewBox="0 0 64 64" xmlns="http://www.w3.org/2000/svg">
  <defs id="defs22">
    <filter id="filter1057" x="-.026999999" y="-.026999999" width="1.054" height="1.054" color-interpolation-filters="sRGB">
      <feGaussianBlur id="feGaussianBlur1059" stdDeviation="0.61875"/>
    </filter>
    <linearGradient id="linearGradient1053" x1="-127" x2="-72" y1="60" y2="5" gradientTransform="translate(131.5 -.50999746)" gradientUnits="userSpaceOnUse">
      <stop id="stop1047" stop-color="#f7f7f7" offset="0"/>
      <stop id="stop1049" stop-color="#f2f2f2" offset="1"/>
    </linearGradient>
    <filter id="filter9" x="-.031241822" y="-.023772339" width="1.0624836" height="1.0475447" color-interpolation-filters="sRGB">
      <feGaussianBlur id="feGaussianBlur10" stdDeviation="0.11715683"/>
    </filter>
  </defs>
  <g fill="#5e4aa6">
    <g id="g30">
      <circle id="circle24" cx="-1248.7" cy="-1241.6" r="0"/>
      <circle id="circle26" cx="-1140.3" cy="-1301.8" r="0"/>
      <circle id="circle28" cx="-1158.1" cy="-1246" r="0"/>
    </g>
    <circle id="circle36" cx="-1157.3" cy="-1267.7" r="0"/>
    <circle id="circle38" cx="-57.756" cy="-2.1829" r="0" fill-rule="evenodd"/>
  </g>
  <rect id="rect1055" x="4.5" y="4.5" width="55" height="55" ry="15" fill="#141414" filter="url(#filter1057)" opacity=".3" stroke-linecap="round" stroke-width="2.74436"/>
  <rect id="rect1045" x="4.5000019" y="4.5000019" width="54.999996" height="54.999996" ry="14.999999" fill="url(#linearGradient1053)" stroke-linecap="round" stroke-width="2.74436"/>
  <g id="g10" transform="matrix(.86257449 0 0 .86257449 4.3976163 4.3976163)">
    <path id="polygon7" transform="matrix(3.5555556,0,0,3.5555556,3.5555567,3.2488893)" d="m11.292602 2.1723091c-0.12825 0-0.256759 0.048569-0.353759 0.1455689l-1.6820071 1.6820068h-5.7568359l4.000122 4.4999999v4.5000003h-2.000061c-0.275 0-0.4998779 0.224878-0.4998779 0.499878s0.2248779 0.500427 0.4998779 0.500427h4.999878c0.275 0 0.499878-0.225427 0.499878-0.500427s-0.224878-0.499878-0.499878-0.499878h-2.0000611v-4.5000003l4.0001221-4.4999999h-1.829224l0.975037-0.9750366c0.194-0.1940001 0.194-0.5129702 0-0.7069702-0.097-0.097-0.224961-0.1455689-0.353211-0.1455689z" fill="#000000" filter="url(#filter9)" opacity=".3"/>
    <path id="polygon1" transform="matrix(3.5555556,0,0,3.5555556,3.5555554,3.2488904)" d="m11.292602 2.1723091c-0.12825 0-0.256759 0.048569-0.353759 0.1455689l-1.6820071 1.6820068h-5.7568359l4.000122 4.4999999v4.5000003h-2.000061c-0.275 0-0.4998779 0.224878-0.4998779 0.499878s0.2248779 0.500427 0.4998779 0.500427h4.999878c0.275 0 0.499878-0.225427 0.499878-0.500427s-0.224878-0.499878-0.499878-0.499878h-2.0000611v-4.5000003l4.0001221-4.4999999h-1.829224l0.975037-0.9750366c0.194-0.1940001 0.194-0.5129702 0-0.7069702-0.097-0.097-0.224961-0.1455689-0.353211-0.1455689z" fill="#006699"/>
  </g>
  <path id="rect2" d="m16.818366 4.7373046c-6.15156 1.1014792-10.98005 5.9287054-12.08204 12.080077h1.10157c1.20357-5.480371 5.5000905-9.7749441 10.98047-10.978515zm30.363278 0v1.1015625c5.480371 1.2035702 9.776898 5.4981429 10.980468 10.978515h1.101563c-1.101989-6.15139-5.930454-10.978616-12.082031-12.080077zm-42.445318 42.445312c1.10178 6.151659 5.9302805 10.978563 12.08204 12.080078v-1.101563c-5.48038-1.203571-9.7769005-5.498144-10.98047-10.978515zm53.425786 0c-1.203571 5.480372-5.500096 9.774945-10.980468 10.978515v1.101563c6.151778-1.101497 10.980249-5.928401 12.082031-12.080078z" fill="#2539ac" stroke-linecap="round" stroke-width="2.74436"/>
</svg>
