<svg id="svg1050" width="64" height="64" version="1.1" viewBox="0 0 16.933 16.933" xmlns="http://www.w3.org/2000/svg" xmlns:xlink="http://www.w3.org/1999/xlink">
    <defs id="defs1040">
        <filter id="filter1057" x="-.026999999" y="-.026999999" width="1.054" height="1.054" color-interpolation-filters="sRGB">
            <feGaussianBlur id="feGaussianBlur1028" stdDeviation="0.61875"/>
        </filter>
        <linearGradient id="linearGradient1053" x1="-127" x2="-72.055832" y1="60" y2="5.0741572" gradientTransform="matrix(.26458 0 0 .26458 34.792 -.13493)" gradientUnits="userSpaceOnUse">
            <stop id="stop1031" stop-color="#2bc07e" offset="0"/>
            <stop id="stop1033" stop-color="#78e2af" offset="1"/>
        </linearGradient>
    </defs>
    <g id="g1046" stroke-linecap="round">
        <rect id="rect1042" transform="scale(.26458)" x="4.5" y="4.5" width="55" height="55" ry="15" fill="#141414" filter="url(#filter1057)" opacity=".3" stroke-width="2.7444"/>
        <rect id="rect1044" x="1.1906" y="1.1906" width="14.552" height="14.552" ry="3.9687" fill="url(#linearGradient1053)" stroke-width=".72611"/>
    </g>
    <path id="path5609" d="m6.938449 3.6153645-2.4635492 5.7503321c-0.4989856 1.1720934-0.9001428 1.5954004-1.5406411 1.6606194v0.585739h3.1360416v-0.585739c-0.7703207-0.04368-1.074265-0.2498-1.074265-0.748786 0-0.184582 0.043069-0.3580883 0.1624318-0.6183483l0.174122-0.4128475h2.7016595l0.4122322 1.0638048c0.1193628 0.303944 0.1304376 0.358088 0.1304376 0.444842 0 0.195041-0.1519722 0.26026-0.6294233 0.26026l-0.1845816 0.01107v0.585739h3.8085335v-0.585739c-0.618348-0.02215-0.791855-0.130438-1.020121-0.683567l-2.7884125-6.7273795zm-0.2282658 2.3109617 1.0527303 2.5933719h-2.1485298z" fill="#3d3846" stroke-width=".15751"/>
    <path id="path5619" d="m10.088027 7.8318236h1.890115v2.8351734h1.260077l-2.205135 2.205135-2.2051346-2.205135h1.2600776z" fill="#2ec27e" stroke="#2ec27e" stroke-width=".630037"/>
    <path id="path5621" d="m10.088027 7.8318236h1.890115v2.8351734h1.260077l-2.205135 2.205135-2.2051346-2.205135h1.2600776z" fill="#f6f5f4" stroke-width=".15751"/>
</svg>
