<?xml version="1.0" encoding="utf-8"?>
<svg width="64" height="64" version="1.1" viewBox="0 0 64 64" xmlns="http://www.w3.org/2000/svg">
  <defs>
    <filter id="shadow" x="-0.03" y="-0.03" width="1.06" height="1.06">
      <feGaussianBlur stdDeviation="0.65"/>
    </filter>
    <linearGradient id="bgGradient" x1="0" y1="0" x2="0" y2="1">
      <stop offset="0" stop-color="#2b2f33"/>
      <stop offset="1" stop-color="#171a1c"/>
    </linearGradient>
  </defs>
  <rect x="4.5" y="4.5" width="55" height="55" ry="15" fill="#000" opacity="0.35" filter="url(#shadow)"/>
  <rect x="4" y="4" width="56" height="56" ry="15" fill="url(#bgGradient)"/>
  <linearGradient id="a" gradientUnits="userSpaceOnUse">
    <stop offset="0" stop-color="#b3b3b3"/>
    <stop offset="0.5" stop-color="#b3b3b3"/>
    <stop offset="1" stop-color="#b3b3b3"/>
  </linearGradient>
  <linearGradient id="b" x1="26.263471" x2="26.263586" y1="24.848538" y2="37.1125" href="#a" gradientTransform="matrix(0.371281, 0, 0, 0.371281, 9.313282, 9.371106)"/>

  <linearGradient id="d" gradientTransform="matrix(2.571428 0 0 2.454545 22.856596 -228.048061)" x1="16" x2="16" y1="121.582512" y2="127.082512" href="#a"/>
  <linearGradient id="e" gradientTransform="matrix(2.571428 0 0 2.454545 22.856596 -253.563246)" x1="16" x2="16" y1="121.582512" y2="127.082512" href="#a"/>
  <linearGradient id="f" gradientTransform="matrix(2.571428 0 0 2.454545 60.592569 -253.563246)" x1="16" x2="16" y1="121.582512" y2="127.082512" href="#a"/>
  <linearGradient id="g" gradientTransform="matrix(0.954721, 0, 0, 0.911324, 31.810102, -75.298624)" x1="16" x2="16" y1="121.582512" y2="127.082512" href="#a"/>
  <linearGradient id="h" gradientTransform="matrix(0.875663, 0, 0, 0.835862, 5.053769, -66.612481)" gradientUnits="userSpaceOnUse" x1="12.5" x2="19.5" y1="113.832512" y2="113.832512">
    <stop offset="0" stop-color="#b3b3b3"/>
    <stop offset="0.5" stop-color="#b3b3b3"/>
    <stop offset="1" stop-color="#b3b3b3"/>
  </linearGradient>
  <linearGradient id="i" gradientTransform="matrix(0.954721, 0, 0, 0.911324, 3.788685, -75.298624)" x1="16" x2="16" y1="121.582512" y2="127.082512" href="#a"/>
  <path d="M 22.129 20.874 C 22.129 22.13 20.757 23.15 19.063 23.15 C 17.372 23.15 15.999 22.13 15.999 20.874 C 15.999 19.616 17.372 18.597 19.063 18.597 C 20.757 18.597 22.129 19.616 22.129 20.874 Z M 22.129 20.874" fill="url(#b)" fill-rule="evenodd" style=""/>
  <path d="M 54.09 40.138 L 54.09 47.143 C 54.09 49.083 52.529 50.645 50.588 50.645 L 15.56 50.645 C 13.621 50.645 12.059 49.083 12.059 47.143 L 12.059 40.138 L 54.09 40.138 Z M 54.09 40.138" fill="#3e3c44" fill-rule="evenodd" style=""/>
  <path d="M 15.56 22.625 C 13.621 22.625 12.059 24.186 12.059 26.128 L 12.059 40.138 C 12.059 42.078 13.621 43.64 15.56 43.64 L 50.588 43.64 C 52.529 43.64 54.091 42.078 54.091 40.138 L 54.091 26.128 C 54.091 24.186 52.529 22.625 50.588 22.625 L 22.129 22.625 L 22.129 23.498 L 15.999 23.498 L 15.999 22.625 L 15.56 22.625 Z M 15.56 22.625" fill="#57565b" fill-rule="evenodd" style=""/>
  <path d="M 44.02 37.73 L 32.637 28.536" fill="none" stroke="#57565b" stroke-linecap="square" stroke-width="3.74412" style=""/>
  <path d="M 33.075 31.161 L 33.075 35.102" fill="none" stroke="#999999" stroke-width="1.5" style=""/>
  <g fill-rule="evenodd" style="" transform="matrix(0.371281, 0, 0, 0.371281, 9.31328, 9.371105)">
    <path d="m 75 77.132812 c 0 4.554688 -4.925781 8.25 -11 8.25 s -11 -3.695312 -11 -8.25 c 0 -4.558593 4.925781 -8.25 11 -8.25 s 11 3.691407 11 8.25 z m 0 0" fill="#e01b24"/>
    <path d="m 73 77.132812 c 0 3.726563 -4.03125 6.75 -9 6.75 c -4.972656 0 -9 -3.023437 -9 -6.75 c 0 -3.730468 4.027344 -6.75 9 -6.75 c 4.96875 0 9 3.019532 9 6.75 z m 0 0" fill="url(#d)"/>
    <path d="m 71 77.132812 c 0 2.898438 -3.132812 5.25 -7 5.25 s -7 -2.351562 -7 -5.25 c 0 -2.902343 3.132812 -5.25 7 -5.25 s 7 2.347657 7 5.25 z m 0 0" fill="url(#bgGradient)"/>
    <path d="m 75 51.617188 c 0 4.554687 -4.925781 8.25 -11 8.25 s -11 -3.695313 -11 -8.25 c 0 -4.558594 4.925781 -8.25 11 -8.25 s 11 3.691406 11 8.25 z m 0 0" fill="#1c71d8"/>
    <path d="m 73 51.617188 c 0 3.726562 -4.03125 6.75 -9 6.75 c -4.972656 0 -9 -3.023438 -9 -6.75 c 0 -3.730469 4.027344 -6.75 9 -6.75 c 4.96875 0 9 3.019531 9 6.75 z m 0 0" fill="url(#e)"/>
    <path d="m 71 51.617188 c 0 2.898437 -3.132812 5.25 -7 5.25 s -7 -2.351563 -7 -5.25 c 0 -2.898438 3.132812 -5.25 7 -5.25 s 7 2.351562 7 5.25 z m 0 0" fill="url(#bgGradient)"/>
    <path d="m 112.734375 51.617188 c 0 4.554687 -4.921875 8.25 -11 8.25 c -6.074219 0 -11 -3.695313 -11 -8.25 c 0 -4.558594 4.925781 -8.25 11 -8.25 c 6.078125 0 11 3.691406 11 8.25 z m 0 0" fill="#1c71d8"/>
    <path d="m 110.734375 51.617188 c 0 3.726562 -4.027344 6.75 -9 6.75 c -4.96875 0 -9 -3.023438 -9 -6.75 c 0 -3.730469 4.03125 -6.75 9 -6.75 c 4.972656 0 9 3.019531 9 6.75 z m 0 0" fill="url(#f)"/>
    <path d="m 108.734375 51.617188 c 0 2.898437 -3.132813 5.25 -7 5.25 c -3.863281 0 -7 -2.351563 -7 -5.25 c 0 -2.898438 3.136719 -5.25 7 -5.25 c 3.867187 0 7 2.351562 7 5.25 z m 0 0" fill="url(#bgGradient)"/>
  </g>
  <path d="M 47.085 31.161 L 47.085 35.102" fill="none" stroke="#999999" stroke-width="1.5" style=""/>
  <path d="M 51.169 38.009 C 51.169 39.699 49.341 41.071 47.085 41.071 C 44.83 41.071 43.002 39.699 43.002 38.009 C 43.002 36.316 44.83 34.945 47.085 34.945 C 49.341 34.945 51.169 36.316 51.169 38.009 Z M 51.169 38.009" fill="#e01b24" fill-rule="evenodd" style=""/>
  <path d="M 50.427 38.009 C 50.427 39.392 48.931 40.516 47.085 40.516 C 45.24 40.516 43.744 39.392 43.744 38.009 C 43.744 36.623 45.24 35.502 47.085 35.502 C 48.931 35.502 50.427 36.623 50.427 38.009 Z M 50.427 38.009" fill="url(#g)" fill-rule="evenodd" style=""/>
  <path d="M 49.684 38.009 C 49.684 39.084 48.521 39.958 47.085 39.958 C 45.651 39.958 44.486 39.084 44.486 38.009 C 44.486 36.931 45.651 36.06 47.085 36.06 C 48.521 36.06 49.684 36.931 49.684 38.009 Z M 49.684 38.009" fill="url(#bgGradient)" fill-rule="evenodd" style=""/>
  <path d="M 19.063 35.115 L 19.063 31.161" fill="none" stroke="#999999" stroke-width="1.5" style=""/>
  <path d="M 23.147 28.869 C 23.147 30.441 21.321 31.717 19.063 31.717 C 16.808 31.717 14.98 30.441 14.98 28.869 C 14.98 27.297 16.808 26.02 19.063 26.02 C 21.321 26.02 23.147 27.297 23.147 28.869 Z M 23.147 28.869" fill="#1c71d8" fill-rule="evenodd" style=""/>
  <path d="M 15.999 20.874 L 15.999 28.536 C 16.001 29.805 17.373 30.835 19.063 30.835 C 20.754 30.835 22.126 29.808 22.127 28.539 C 22.127 28.539 22.127 28.537 22.127 28.536 L 22.127 20.874 C 21.643 21.837 20.423 23.15 19.063 23.15 C 17.705 23.15 16.486 21.837 15.999 20.874 Z M 15.999 20.874" fill="url(#h)" fill-rule="evenodd" style=""/>
  <path d="M 23.147 38.009 C 23.147 39.699 21.321 41.071 19.063 41.071 C 16.808 41.071 14.98 39.699 14.98 38.009 C 14.98 36.316 16.808 34.945 19.063 34.945 C 21.321 34.945 23.147 36.316 23.147 38.009 Z M 23.147 38.009" fill="#e01b24" fill-rule="evenodd" style=""/>
  <path d="M 22.405 38.009 C 22.405 39.392 20.91 40.516 19.063 40.516 C 17.219 40.516 15.722 39.392 15.722 38.009 C 15.722 36.623 17.219 35.502 19.063 35.502 C 20.91 35.502 22.405 36.623 22.405 38.009 Z M 22.405 38.009" fill="url(#i)" fill-rule="evenodd" style=""/>
  <path d="M 21.662 38.009 C 21.662 39.084 20.5 39.958 19.063 39.958 C 17.629 39.958 16.464 39.084 16.464 38.009 C 16.464 36.931 17.629 36.06 19.063 36.06 C 20.5 36.06 21.662 36.931 21.662 38.009 Z M 21.662 38.009" fill="url(#bgGradient)" fill-rule="evenodd" style=""/>
  <path d="M 22.129 20.874 C 22.129 22.13 20.757 23.15 19.063 23.15 C 17.372 23.15 15.999 22.13 15.999 20.874 C 15.999 19.616 17.372 18.597 19.063 18.597 C 20.757 18.597 22.129 19.616 22.129 20.874 Z M 22.129 20.874" fill="#c0bfbc" fill-rule="evenodd" style=""/>
  <path d="M 20.817 20.874 C 20.817 21.599 20.03 22.186 19.063 22.186 C 18.098 22.186 17.312 21.599 17.312 20.874 C 17.312 20.149 18.098 19.559 19.063 19.559 C 20.03 19.559 20.817 20.149 20.817 20.874 Z M 20.817 20.874" fill="#1a5fb4" fill-rule="evenodd" style=""/>
  <path d="M 19.063 20.874 C 19.063 18.246 19.707 13.635 15.244 12.761 C 11.553 12.038 8.081 8.719 8.081 8.719" fill="none" stroke="#1a5fb4" stroke-width="2" style=""/>
</svg>