<svg id="svg8" width="64" height="64" version="1.1" viewBox="0 0 16.933333 16.933334" xmlns="http://www.w3.org/2000/svg" xmlns:xlink="http://www.w3.org/1999/xlink">
    <defs id="defs2">
        <filter id="filter1057" x="-.026999999" y="-.026999999" width="1.054" height="1.054" color-interpolation-filters="sRGB">
            <feGaussianBlur id="feGaussianBlur1059" stdDeviation="0.61875"/>
        </filter>
        <clipPath id="f">
            <rect id="rect7488" width="192" height="152"/>
        </clipPath>
        <clipPath id="i">
            <rect id="rect7499" width="192" height="152"/>
        </clipPath>
        <clipPath id="l">
            <rect id="rect7510" width="192" height="152"/>
        </clipPath>
        <radialGradient id="radialGradient3620" cx="-8.4946632" cy="6.7959671" r="6.6145835" gradientTransform="translate(16.96133,1.6706995)" gradientUnits="userSpaceOnUse">
            <stop id="stop1047" stop-color="#57e389" offset="0"/>
            <stop id="stop1049" stop-color="#27a56b" offset="1"/>
        </radialGradient>
    </defs>
    <rect id="rect1055" transform="scale(.26458333)" x="4.5" y="4.5" width="55" height="55" ry="15" fill="#141414" filter="url(#filter1057)" opacity=".3" stroke-linecap="round" stroke-width="2.74436"/>
    <g id="g3420" transform="translate(20.234422 -.26458533)">
        <path id="rect1699" d="m-15.075047 1.45521c-2.198685 0-3.96875 1.770065-3.96875 3.96875v6.614584c0 2.198685 1.770065 3.96875 3.96875 3.96875h6.614583c2.198685 0 3.96875-1.770065 3.96875-3.96875v-6.614584c0-2.198685-1.770065-3.96875-3.96875-3.96875z" fill="#fff055" stroke-width=".0535206"/>
        <g fill="#03170d" stroke-width=".0330625">
            <path id="polygon1701" d="m-19.043797 9.39271v2.645834c0 0.24892 0.02427 0.492135 0.0677 0.728121l0.923975 0.923974 2.249475 2.249475c0.235985 0.04343 0.478684 0.06718 0.727604 0.06718h2.645833l-2.316654-2.316655-3.306258-3.306258z"/>
            <path id="polygon1703" d="m-18.467088 3.35742c-0.365988 0.601261-0.576709 1.30832-0.576709 2.06654v0.662492l7.604187 7.604187 2.316654 2.316655h0.662492c0.758377 0 1.466233-0.210065 2.067574-0.576193l-11.659236-11.659236z"/>
            <path id="polygon2102" d="m-15.075047 1.45521c-0.584353 0-1.137459 0.126524-1.636076 0.3514l8.577771 8.577771 2.847371 2.847888 0.443384 0.442867c0.224876-0.498617 0.350883-1.05224 0.350883-1.636592v-1.318783l-9.264551-9.264551z"/>
            <path id="polygon2104" d="m-10.450007 1.45521 5.958293 5.958293v-1.989543c0-0.60668-0.13537-1.180206-0.376721-1.693436l-1.898075-1.898076c-0.513249-0.241372-1.087246-0.377238-1.693954-0.377238z"/>
        </g>
    </g>
    <rect id="rect3616" x="1.8520832" y="1.8520832" width="13.229167" height="13.229167" ry="3.6079545" fill="url(#radialGradient3620)" stroke="#03170d" stroke-linecap="round" stroke-width=".13229167"/>
    <path id="path4282" d="m8.5234135 1.9182442 0.5753136 1.0045902-1.2092288 2.0775487-2.3226499-0.0088381-1.1999274-2.0956868h-0.028836l0.5381066-0.9245953c-0.059779 0.01027-0.1189594 0.022159-0.1776637 0.035347l-0.5176433 0.888783-1.1445819-0.00372c-0.046359 0.043782-0.091385 0.088678-0.1353401 0.1348756l1.3361981 0.00466 1.1985315 2.0956869h0.011628l-1.1938815 2.0496413-2.3352067-0.0088407v0.1423169l2.3463694 0.0102372 1.1915556 2.0835946-1.198067 2.0598713-2.3393927-0.008812c1.755e-4 0.05539 0.00153 0.110349 0.00413 0.165106l2.3570668 0.0088 1.183649 2.067781-0.7218165 1.240392c0.052408 0.01108 0.1053556 0.02052 0.1585954 0.02931l0.6971664-1.196208 2.3649734 0.0088 0.7078638 1.236204h0.1655713l-0.7497219-1.307827 1.2101593-2.07662 2.3221847 0.0088 1.199928 2.095223h0.01116l-0.707866 1.215739c0.06781-0.01295 0.135013-0.02748 0.201384-0.04417l0.655775-1.12784 1.16644 0.0041c0.0504-0.05816 0.09906-0.117683 0.145619-0.179061l-1.342244-0.0061-1.198996-2.095222h-0.01163l1.193417-2.047781 2.083595 0.0079v-0.1440331l-2.092897-0.0079-1.192485-2.0845245 1.199462-2.0603404 2.071037 0.00791c-0.0049-0.055514-0.01077-0.1108298-0.01813-0.1655715l-2.075688-0.00739-1.18365-2.0691769 0.535782-0.9194793c-0.05211-0.012082-0.104679-0.022768-0.157659-0.032556l-0.513921 0.881812-2.3640437-0.0088381-0.5343861-0.9338969zm0.7101894 1.0762139 2.3649731 0.010694 1.192951 2.0831295-1.198068 2.0598748-2.3435777-0.00883-1.2003928-2.0952219h-0.00976zm-3.6351286 2.1761472 2.3203243 0.00884 1.18644 2.069177-1.2087645 2.075688-2.3245103-0.00884-1.1836489-2.0673166zm3.6909395 2.1338241 2.3235802 0.00883 1.184113 2.0677817-1.209227 2.0775479-2.3217214-0.0088-1.1845787-2.070573zm-3.6955908 2.1766128 2.3421837 0.0084 1.1999273 2.0956878h0.00976l-1.1929508 2.049643-2.3649732-0.0088-1.1929504-2.084059z" color="#000000" fill="#1d7c4d" stroke-linecap="round" stroke-width=".024711"/>
    <g fill="#03170d">
        <path id="rect3168" d="m5.6103713 4.2573887a0.45103916 0.45103916 0 0 0-0.4509941 0.4509941v2.7059644a0.45103916 0.45103916 0 0 0 0.4509941 0.450994h1.8039763a0.45103916 0.45103916 0 0 0 0.450994-0.450994v-2.7059644a0.45103916 0.45103916 0 0 0-0.450994-0.4509941zm0.4509941 0.9019881h0.9019881v1.8039763h-0.9019881z" color="#000000" style="-inkscape-stroke:none"/>
        <path id="path3170" d="m9.5189866 4.2573887a0.45099407 0.45099407 0 0 0-0.4509941 0.4509941 0.45099407 0.45099407 0 0 0 0.4509941 0.450994h0.4509941v1.8039763h-0.4509941a0.45099407 0.45099407 0 0 0-0.4509941 0.4509941 0.45099407 0.45099407 0 0 0 0.4509941 0.450994h1.8039764a0.45099407 0.45099407 0 0 0 0.450994-0.450994 0.45099407 0.45099407 0 0 0-0.450994-0.4509941h-0.450994v-2.2549703a0.45103916 0.45103916 0 0 0-0.450994-0.4509941z" color="#000000" style="-inkscape-stroke:none"/>
        <path id="rect3172" d="m9.5189866 9.0679922a0.45103916 0.45103916 0 0 0-0.4509941 0.450994v2.7059648a0.45103916 0.45103916 0 0 0 0.4509941 0.450994h1.8039764a0.45103916 0.45103916 0 0 0 0.450994-0.450994v-2.7059648a0.45103916 0.45103916 0 0 0-0.450994-0.450994zm0.4509941 0.9019881h0.9019883v1.8039767h-0.9019883z" color="#000000" style="-inkscape-stroke:none"/>
        <path id="path3174" d="m5.6103713 9.0679922a0.45099407 0.45099407 0 0 0-0.4509941 0.450994 0.45099407 0.45099407 0 0 0 0.4509941 0.4509941h0.4509941v1.8039767h-0.4509941a0.45099407 0.45099407 0 0 0-0.4509941 0.450994 0.45099407 0.45099407 0 0 0 0.4509941 0.450994h1.8039763a0.45099407 0.45099407 0 0 0 0.450994-0.450994 0.45099407 0.45099407 0 0 0-0.450994-0.450994h-0.4509941v-2.2549708a0.45103916 0.45103916 0 0 0-0.4509941-0.450994z" color="#000000" style="-inkscape-stroke:none"/>
    </g>
    <g fill-opacity="0">
        <rect id="rect2158" x="-226.3517" y="50.833912" width="79.375" height="26.458332"/>
        <rect id="rect2174" x="-199.89337" y="77.292244" width="79.375" height="26.458332"/>
        <rect id="rect2222" x="-14.684679" y="103.75057" width="79.375" height="26.458332"/>
    </g>
</svg>
