<svg id="svg290" version="1.1" viewBox="0 0 64 64" xmlns="http://www.w3.org/2000/svg">
  <defs id="defs278">
    <style id="style266" type="text/css"/>
    <style id="style268" type="text/css"/>
    <filter id="filter1057" x="-.026999999" y="-.026999999" width="1.054" height="1.054" color-interpolation-filters="sRGB">
      <feGaussianBlur id="feGaussianBlur270" stdDeviation="0.61875"/>
    </filter>
    <linearGradient id="linearGradient1144" x1="-127" x2="-72" y1="60" y2="5" gradientTransform="matrix(.96363636 0 0 .96363636 127.88182 .67218182)" gradientUnits="userSpaceOnUse">
      <stop id="stop273" stop-color="#095109" offset="0"/>
      <stop id="stop275" stop-color="#9df79d" stop-opacity=".99607843" offset="1"/>
    </linearGradient>
    <filter id="filter1148" x="-.026799757" y="-.027203257" width="1.0535995" height="1.0544065" color-interpolation-filters="sRGB">
      <feGaussianBlur id="feGaussianBlur1150" stdDeviation="0.4243294"/>
    </filter>
  </defs>
  <rect id="rect280" x="4.5" y="4.5" width="55" height="55" ry="15" fill="#141414" filter="url(#filter1057)" opacity=".3" stroke-linecap="round" stroke-width="2.7444"/>
  <rect id="rect282" x="4.5" y="4.5" width="55" height="55" ry="15" fill="#f5f5f5" stroke-linecap="round" stroke-width="2.7444"/>
  <circle id="circle284" cx="-1326.3" cy="-1241.6" r="0" fill="#5e4aa6"/>
  <circle id="circle286" cx="-226.72" cy="23.855" r="0" fill="#5e4aa6" fill-rule="evenodd"/>
  <rect id="rect1142" x="5.5" y="5.5" width="53" height="53" ry="14.454545" fill="url(#linearGradient1144)" stroke-linecap="round" stroke-width="2.6446"/>
  <path id="path1146" d="m14.136924 13.281967c-0.59168 0.0086-1.13714 0.446727-1.13692 1.157055 5.3e-4 1.36396 1.75861 4.090263 4.98127 7.724466 0.97759 1.10242 2.07658 2.724373 2.89386 4.270656 1.31647 2.49074 1.31741 2.493344 0.86857 3.047642-0.60537 0.7476-0.5654 1.566021 0.13504 2.761242 0.89494 1.52709 2.54125 2.162834 3.62878 1.401103 1.03298-0.723529 0.45323-2.584748-1.28064-4.110967-0.57008-0.501794-1.0366-0.983722-1.0366-1.071309 0-0.08759-0.38731-0.767588-0.86059-1.510802-0.47328-0.743215-0.65967-1.180898-0.4145-0.972719 0.24518 0.20818 1.18901 0.983728 2.09749 1.72326l1.65175 1.344517 0.78317 2.661263c0.77706 2.640898 0.77978 2.669933 0.38951 3.809986-0.49422 1.443689-0.33725 3.410696 0.45719 5.728345 0.73959 2.157628 1.39371 3.416082 2.13499 4.107841l0.59744 0.557526 0.16386-1.093873c0.0902-0.601548 0.12242-2.519065 0.0715-4.261284-0.09-3.079146-0.1165-3.216616-0.95362-4.914622-0.47366-0.960751-1.29507-2.685043-1.82533-3.831857l-0.96404-2.085338 1.35702 1.068532c2.5956 2.043062 2.89308 2.364448 3.22087 3.480887 0.2944 1.002701 0.28469 1.111846-0.12011 1.364652-0.24201 0.151135-0.43968 0.513917-0.43915 0.806085 1e-3 0.763628 0.84264 2.033949 1.56496 2.36306 0.53387 0.243248 0.66703 0.218116 0.96682-0.182602 0.51069-0.68264 0.24997-2.238012-0.47491-2.833102-0.60179-0.494047-1.49287-2.015561-1.18031-2.015561 0.0982 0 1.00737 0.823771 2.02042 1.830876 1.91043 1.899223 2.09478 2.31857 1.4865 3.382643-0.48643 0.850916-0.43412 1.440118 0.23953 2.707087 0.57463 1.08072 3.78611 5.11354 4.07209 5.11354 0.0773 0 0.0828-0.839498 0.0125-1.865593-0.15659-2.284545-0.76333-3.741913-2.19504-5.272534-0.58445-0.624821-1.05784-1.220694-1.05187-1.324036 6e-3 -0.103341 1.42444 1.2519 3.15179 3.011539 1.38582 1.411731 2.02941 2.054424 2.36792 2.386318-0.0687 0.07048-0.39105 0.474964-0.40721 0.482888-0.0795 0.03898-0.15945 0.145767-0.2864 0.31938-0.18374 0.251282-0.33239 0.782997-0.33049 1.181702 4e-3 0.788584 0.52601 3.179756 0.92203 4.221361 0.13617 0.35798 0.35445 0.650909 0.48497 0.650909 0.45522 0 0.99095-1.157389 1.12165-2.423811 0.14427-1.397856-0.34433-2.712642-1.34348-3.616276-0.22369-0.202312-0.275-0.306113-0.37603-0.333265-0.0198-0.0053 0.24677-0.336241 0.28739-0.411678 0.0818 0.0802 0.53151 0.541129 0.51113 0.516865-0.10403-0.123827-0.1892-0.331522-0.1892-0.461365 0-0.129844 0.35928 0.112076 0.79845 0.537737 0.71384 0.69188 0.78652 0.879778 0.68597 1.771861-0.24775 2.198012 0.76683 3.217917 4.12728 4.149502 0.88908 0.246467 1.65086 0.418284 1.69306 0.381518 0.23045-0.200794-0.8335-1.632241-2.38597-3.210108l-1.76457-1.793731 1.55767 0.431856c1.67635 0.464837 3.03149 0.548866 3.55101 0.219746 0.24231-0.153508-0.0861-0.545759-1.30321-1.555932-2.52227-2.093393-3.74809-2.600758-4.85387-2.008966-0.3368 0.18025-0.83903 0.16861-1.77394-0.04062-1.0807-0.241851-1.43401-0.457276-2.06208-1.258424-0.41686-0.531731-1.44339-1.757174-2.28113-2.723056-1.47426-1.699748-1.5001-1.751456-0.80366-1.612171 0.39575 0.07915 1.27817 0.218076 1.96071 0.308618 0.84929 0.112662 1.5892 0.415302 2.34397 0.958832 2.0112 1.448321 3.46397 2.214892 4.20122 2.217256 1.00578 0.0031 5.15361-0.714315 5.38363-0.93106 0.24531-0.231153-3.04691-1.725882-5.16423-2.344661-2.66945-0.78014-4.52653-1.026245-7.26726-0.962998l-2.57135 0.05936-2.1395-1.937799c-1.17674-1.06583-2.82842-2.489815-3.67008-3.164285-0.84167-0.674469-1.49512-1.261611-1.45214-1.304595 0.043-0.04298 1.05498 0.322391 2.24885 0.811641 1.67318 0.685668 2.17107 0.993873 2.17178 1.344864 5.3e-4 0.250444 0.47688 0.911556 1.05881 1.469145 1.80279 1.72738 3.97679 1.969224 4.49353 0.499898 0.26849-0.763447-0.25282-1.620783-1.50282-2.471718-0.90465-0.615844-2.68352-0.9351-3.40833-0.611681-0.38634 0.172387-0.81477 0.09549-1.73402-0.311048-0.67155-0.296987-1.95559-0.763142-2.85359-1.035899-1.29677-0.393882-2.09484-0.863778-3.87872-2.284257-2.6131-2.080781-2.8585-2.302609-2.36445-2.133939 0.19552 0.06675 1.52847 0.456854 2.96225 0.866837 2.36276 0.675622 2.72343 0.855555 3.85095 1.920441 1.51295 1.428912 2.8514 2.051085 4.83616 2.248153 0.82679 0.08209 1.78355 0.310001 2.12596 0.506494 0.56007 0.321403 0.67815 0.318335 1.17823-0.03194 0.30573-0.214143 0.80768-0.389504 1.1154-0.389504 0.85219 0 0.52461-0.498533-0.88732-1.350419-1.57835-0.952291-4.44767-1.998614-8.48681-3.094855-1.72706-0.468729-3.13999-0.924901-3.13999-1.013682 0-0.08878 1.25297-0.232396 2.7845-0.319032 2.07003-0.117097 3.26128-0.06488 4.64211 0.203431 2.33641 0.453991 2.28981 0.45649 2.28981-0.129141 0-0.355319 0.11408-0.456183 0.41485-0.367286 0.94325 0.27879 3.85095 0.436602 3.85095 0.208985 0-0.574583-1.06251-1.493272-2.23392-1.93155-1.61137-0.60289-5.09127-1.074656-6.5011-0.881417-0.59259 0.08122-1.5091 0.347566-2.03674 0.591893s-1.75432 0.568035-2.72618 0.719298c-1.46327 0.227744-2.89136 0.68969-4.90143 1.586134-0.39674 0.176937-5.27322-4.75951-6.43411-6.513254-1.09354-1.65202-1.29772-2.863615-0.61029-3.623219 0.31158-0.344284 0.33085-0.49818 0.0972-0.779702-0.28049-0.337965-0.65208-0.487373-1.00709-0.482193zm27.48259 29.659572c0.0923-0.01191 0.27308 0.05391 0.59814 0.190587 0.40207 0.169057 0.82015 0.547995 0.92898 0.842189 0.27947 0.755492 0.11817 0.793173-0.51414 0.120114-0.30022-0.319579-0.65104-0.559002-0.77935-0.532183-0.12831 0.02682-0.26331-0.128146-0.29994-0.344374-0.0296-0.174809-0.0259-0.264424 0.0663-0.276333z" filter="url(#filter1148)" opacity=".3" stroke-width=".236988"/>
  <path id="path466" d="m14.136924 13.281967c-0.59168 0.0086-1.13714 0.446727-1.13692 1.157055 5.3e-4 1.36396 1.75861 4.090263 4.98127 7.724466 0.97759 1.10242 2.07658 2.724373 2.89386 4.270656 1.31647 2.49074 1.31741 2.493344 0.86857 3.047642-0.60537 0.7476-0.5654 1.566021 0.13504 2.761242 0.89494 1.52709 2.54125 2.162834 3.62878 1.401103 1.03298-0.723529 0.45323-2.584748-1.28064-4.110967-0.57008-0.501794-1.0366-0.983722-1.0366-1.071309 0-0.08759-0.38731-0.767588-0.86059-1.510802-0.47328-0.743215-0.65967-1.180898-0.4145-0.972719 0.24518 0.20818 1.18901 0.983728 2.09749 1.72326l1.65175 1.344517 0.78317 2.661263c0.77706 2.640898 0.77978 2.669933 0.38951 3.809986-0.49422 1.443689-0.33725 3.410696 0.45719 5.728345 0.73959 2.157628 1.39371 3.416082 2.13499 4.107841l0.59744 0.557526 0.16386-1.093873c0.0902-0.601548 0.12242-2.519065 0.0715-4.261284-0.09-3.079146-0.1165-3.216616-0.95362-4.914622-0.47366-0.960751-1.29507-2.685043-1.82533-3.831857l-0.96404-2.085338 1.35702 1.068532c2.5956 2.043062 2.89308 2.364448 3.22087 3.480887 0.2944 1.002701 0.28469 1.111846-0.12011 1.364652-0.24201 0.151135-0.43968 0.513917-0.43915 0.806085 1e-3 0.763628 0.84264 2.033949 1.56496 2.36306 0.53387 0.243248 0.66703 0.218116 0.96682-0.182602 0.51069-0.68264 0.24997-2.238012-0.47491-2.833102-0.60179-0.494047-1.49287-2.015561-1.18031-2.015561 0.0982 0 1.00737 0.823771 2.02042 1.830876 1.91043 1.899223 2.09478 2.31857 1.4865 3.382643-0.48643 0.850916-0.43412 1.440118 0.23953 2.707087 0.57463 1.08072 3.78611 5.11354 4.07209 5.11354 0.0773 0 0.0828-0.839498 0.0125-1.865593-0.15659-2.284545-0.76333-3.741913-2.19504-5.272534-0.58445-0.624821-1.05784-1.220694-1.05187-1.324036 6e-3 -0.103341 1.42444 1.2519 3.15179 3.011539 1.38582 1.411731 2.02941 2.054424 2.36792 2.386318-0.0687 0.07048-0.39105 0.474964-0.40721 0.482888-0.0795 0.03898-0.15945 0.145767-0.2864 0.31938-0.18374 0.251282-0.33239 0.782997-0.33049 1.181702 4e-3 0.788584 0.52601 3.179756 0.92203 4.221361 0.13617 0.35798 0.35445 0.650909 0.48497 0.650909 0.45522 0 0.99095-1.157389 1.12165-2.423811 0.14427-1.397856-0.34433-2.712642-1.34348-3.616276-0.22369-0.202312-0.275-0.306113-0.37603-0.333265-0.0198-0.0053 0.24677-0.336241 0.28739-0.411678 0.0818 0.0802 0.53151 0.541129 0.51113 0.516865-0.10403-0.123827-0.1892-0.331522-0.1892-0.461365 0-0.129844 0.35928 0.112076 0.79845 0.537737 0.71384 0.69188 0.78652 0.879778 0.68597 1.771861-0.24775 2.198012 0.76683 3.217917 4.12728 4.149502 0.88908 0.246467 1.65086 0.418284 1.69306 0.381518 0.23045-0.200794-0.8335-1.632241-2.38597-3.210108l-1.76457-1.793731 1.55767 0.431856c1.67635 0.464837 3.03149 0.548866 3.55101 0.219746 0.24231-0.153508-0.0861-0.545759-1.30321-1.555932-2.52227-2.093393-3.74809-2.600758-4.85387-2.008966-0.3368 0.18025-0.83903 0.16861-1.77394-0.04062-1.0807-0.241851-1.43401-0.457276-2.06208-1.258424-0.41686-0.531731-1.44339-1.757174-2.28113-2.723056-1.47426-1.699748-1.5001-1.751456-0.80366-1.612171 0.39575 0.07915 1.27817 0.218076 1.96071 0.308618 0.84929 0.112662 1.5892 0.415302 2.34397 0.958832 2.0112 1.448321 3.46397 2.214892 4.20122 2.217256 1.00578 0.0031 5.15361-0.714315 5.38363-0.93106 0.24531-0.231153-3.04691-1.725882-5.16423-2.344661-2.66945-0.78014-4.52653-1.026245-7.26726-0.962998l-2.57135 0.05936-2.1395-1.937799c-1.17674-1.06583-2.82842-2.489815-3.67008-3.164285-0.84167-0.674469-1.49512-1.261611-1.45214-1.304595 0.043-0.04298 1.05498 0.322391 2.24885 0.811641 1.67318 0.685668 2.17107 0.993873 2.17178 1.344864 5.3e-4 0.250444 0.47688 0.911556 1.05881 1.469145 1.80279 1.72738 3.97679 1.969224 4.49353 0.499898 0.26849-0.763447-0.25282-1.620783-1.50282-2.471718-0.90465-0.615844-2.68352-0.9351-3.40833-0.611681-0.38634 0.172387-0.81477 0.09549-1.73402-0.311048-0.67155-0.296987-1.95559-0.763142-2.85359-1.035899-1.29677-0.393882-2.09484-0.863778-3.87872-2.284257-2.6131-2.080781-2.8585-2.302609-2.36445-2.133939 0.19552 0.06675 1.52847 0.456854 2.96225 0.866837 2.36276 0.675622 2.72343 0.855555 3.85095 1.920441 1.51295 1.428912 2.8514 2.051085 4.83616 2.248153 0.82679 0.08209 1.78355 0.310001 2.12596 0.506494 0.56007 0.321403 0.67815 0.318335 1.17823-0.03194 0.30573-0.214143 0.80768-0.389504 1.1154-0.389504 0.85219 0 0.52461-0.498533-0.88732-1.350419-1.57835-0.952291-4.44767-1.998614-8.48681-3.094855-1.72706-0.468729-3.13999-0.924901-3.13999-1.013682 0-0.08878 1.25297-0.232396 2.7845-0.319032 2.07003-0.117097 3.26128-0.06488 4.64211 0.203431 2.33641 0.453991 2.28981 0.45649 2.28981-0.129141 0-0.355319 0.11408-0.456183 0.41485-0.367286 0.94325 0.27879 3.85095 0.436602 3.85095 0.208985 0-0.574583-1.06251-1.493272-2.23392-1.93155-1.61137-0.60289-5.09127-1.074656-6.5011-0.881417-0.59259 0.08122-1.5091 0.347566-2.03674 0.591893s-1.75432 0.568035-2.72618 0.719298c-1.46327 0.227744-2.89136 0.68969-4.90143 1.586134-0.39674 0.176937-5.27322-4.75951-6.43411-6.513254-1.09354-1.65202-1.29772-2.863615-0.61029-3.623219 0.31158-0.344284 0.33085-0.49818 0.0972-0.779702-0.28049-0.337965-0.65208-0.487373-1.00709-0.482193zm27.48259 29.659572c0.0923-0.01191 0.27308 0.05391 0.59814 0.190587 0.40207 0.169057 0.82015 0.547995 0.92898 0.842189 0.27947 0.755492 0.11817 0.793173-0.51414 0.120114-0.30022-0.319579-0.65104-0.559002-0.77935-0.532183-0.12831 0.02682-0.26331-0.128146-0.29994-0.344374-0.0296-0.174809-0.0259-0.264424 0.0663-0.276333z" fill="#f5f5f5" stroke-width=".236988"/>
</svg>
