<svg id="svg1215" width="64" height="64" version="1.1" viewBox="0 0 16.933 16.933" xmlns="http://www.w3.org/2000/svg" xmlns:xlink="http://www.w3.org/1999/xlink">
    <defs id="defs1203">
        <filter id="filter1057" x="-.026999999" y="-.026999999" width="1.054" height="1.054" color-interpolation-filters="sRGB">
            <feGaussianBlur id="feGaussianBlur1190" stdDeviation="0.61875"/>
        </filter>
    </defs>
    <rect id="rect1207" transform="matrix(.26458 0 0 .26458 .79772 .7977)" x="1.485" y="1.485" width="55" height="55" ry="15" fill="#141414" filter="url(#filter1057)" opacity=".3" stroke-linecap="round" stroke-width="2.7444"/>
    <path id="polygon4332" d="m6.224823 1.19036c-0.665332 0-1.234978 0.01867-1.738878 0.06098-1.604098 0.27254-2.874827 1.496923-3.208526 3.078821-3.5e-5 3.21e-4 3.2e-5 7.45e-4 0 1e-3 -0.06492 0.6219-0.08682 1.363148-0.08682 2.246847v3.77644c0 0.883659 0.02189 1.624947 0.08682 2.246847 3.2e-5 3.21e-4 -3.5e-5 7.47e-4 0 1e-3 0.333669 1.581898 1.604428 2.806738 3.208526 3.079338 0.50391 0.0423 1.073576 0.06098 1.738878 0.06098h4.483359c0.66532 0 1.234978-0.01867 1.738878-0.06098 1.604098-0.27254 2.874827-1.49744 3.208526-3.079338 5.9e-5 -3.3e-4 -5.9e-5 -7.39e-4 0-1e-3 0.06492-0.62187 0.08681-1.363118 0.08681-2.246817v-3.776439c0-0.883659-0.02189-1.624948-0.08681-2.246847-5.9e-5 -3.3e-4 5.9e-5 -7.39e-4 0-1e-3 -0.333669-1.581898-1.604428-2.806221-3.208526-3.078821-0.50391-0.04231-1.073579-0.06098-1.738878-0.06098z" fill="#233140" stroke-width=".0294365"/>
    <g id="text489" transform="scale(1.0266986 .97399567)" fill="#ecf0f1" stroke-width=".44437" aria-label="Plasma">
        <path id="path938" d="m4.7589254 7.520175v-0.6825498h0.2612885c0.2052982 0 0.3652708-0.050658 0.482584-0.1519739 0.1173133-0.09865 0.1759699-0.2452913 0.1759699-0.4399247 0-0.1733036-0.05599-0.3092803-0.165305-0.4025977-0.1119808-0.0933173-0.2772859-0.1386429-0.4932489-0.1386429h-0.5679027v1.815689h0.3066142zm0-1.5570666h0.2586223c0.1066484 0 0.1919671 0.023996 0.2559562 0.071988 0.061323 0.047992 0.093317 0.1253119 0.093317 0.2292941 0 0.101316-0.029328 0.1786361-0.087985 0.2319603-0.061323 0.05599-0.1466415 0.082653-0.2612886 0.082653h-0.2586223v-0.6158945z"/>
        <path id="path940" d="m6.3506534 7.5388384v-0.2719534h-0.074654c-0.039993 0-0.069321-8e-3 -0.082653-0.026662-0.013331-0.018663-0.02133-0.045325-0.018663-0.085319v-1.4504182h-0.2879507v1.4744141c0 0.1413091 0.031994 0.2346265 0.095983 0.2852845 0.061323 0.050658 0.151974 0.074654 0.2692872 0.074654h0.09865z"/>
        <path id="path942" d="m6.9585506 7.5575019c0.066655 0 0.1253119-0.013331 0.1813023-0.037327 0.05599-0.023996 0.101316-0.053324 0.1413091-0.093317v0.093317h0.2586224v-0.7278753c0-0.165305-0.042659-0.2986155-0.1253119-0.3999315-0.082653-0.101316-0.2132968-0.151974-0.3919328-0.151974-0.090651 0-0.1759699 0.010665-0.2586224 0.034661-0.082653 0.023996-0.1546402 0.05599-0.2186292 0.093317l0.095983 0.1972995c0.05599-0.029328 0.1093146-0.050658 0.1653051-0.063989 0.053324-0.013331 0.1066483-0.02133 0.1626388-0.02133 0.09865 0 0.1733036 0.026662 0.2239616 0.082653 0.047992 0.05599 0.071988 0.1466416 0.069321 0.2746196-0.037327-0.034661-0.082653-0.061323-0.1359767-0.079986-0.05599-0.018663-0.1173132-0.029328-0.1893009-0.029328-0.07732 0-0.1493077 0.015997-0.215963 0.045326-0.066655 0.029328-0.1173132 0.074654-0.1573064 0.1333105-0.039993 0.061323-0.061323 0.1333105-0.061323 0.2212954 0 0.1306443 0.039993 0.2346265 0.1226457 0.3119466 0.079986 0.07732 0.1919671 0.1173132 0.3332762 0.1173132zm0.0613228-0.2399589c-0.1546401 0-0.2319602-0.061323-0.2319602-0.1866347 0-0.1199794 0.07732-0.178636 0.2319602-0.178636 0.066655 0 0.1226457 0.013331 0.1733037 0.039993 0.050658 0.029328 0.074654 0.074654 0.074654 0.1386429 0 0.063989-0.023996 0.1119808-0.071988 0.1413092-0.050658 0.029328-0.1093146 0.045325-0.1759699 0.045325z"/>
        <path id="path944" d="m8.2463301 7.5601681c0.1466415 0 0.2612886-0.034661 0.3492735-0.1039822 0.087985-0.066655 0.1306443-0.1599726 0.1306443-0.279952 0-0.1039822-0.031995-0.1866347-0.09865-0.2452913-0.066655-0.05599-0.1573064-0.1066484-0.266621-0.1493078-0.0853185-0.0346607-0.1493075-0.0613228-0.1919669-0.0853187s-0.063989-0.0559904-0.063989-0.0959835c0-0.039993 0.015997-0.066655 0.047992-0.085319 0.029328-0.018663 0.071988-0.026662 0.1279781-0.026662 0.053324 0 0.1039822 8e-3 0.151974 0.023996 0.047992 0.015997 0.09865 0.039993 0.1493077 0.069322l0.095984-0.215963c-0.05599-0.039993-0.1199795-0.071988-0.1893009-0.093317-0.071988-0.018663-0.1413091-0.029328-0.2106306-0.029328-0.1333105 0-0.2426251 0.031994-0.3252776 0.093317-0.082653 0.063989-0.1226457 0.1519739-0.1199795 0.266621 0.00267 0.09865 0.037327 0.1759698 0.1039822 0.2319602 0.066655 0.05599 0.1573064 0.1066484 0.2772859 0.151974 0.07732 0.029328 0.1333105 0.058657 0.1733036 0.085319 0.039993 0.029328 0.058657 0.063989 0.058657 0.1066484 0 0.042659-0.018663 0.074654-0.053324 0.09865s-0.087985 0.034661-0.1573064 0.034661c-0.05599-0.00267-0.1119808-0.010665-0.1679712-0.029328-0.05599-0.018663-0.1173132-0.047992-0.1839685-0.090651l-0.09865 0.2239616c0.066655 0.045326 0.1359767 0.079986 0.2132968 0.1039822 0.07732 0.026662 0.1599726 0.039993 0.2479575 0.039993z"/>
        <path id="path946" d="m9.2968164 7.520175v-0.6905484c0-0.215963 0.07732-0.3226114 0.2292941-0.3226114 0.066655 0 0.1199794 0.02133 0.1599726 0.063989 0.039993 0.045326 0.058657 0.1146471 0.058657 0.2106306v0.7385402h0.2879503v-0.6905484c0-0.1039822 0.016-0.1839685 0.05066-0.2399589 0.03466-0.05599 0.09332-0.082653 0.181303-0.082653 0.06399 0 0.11198 0.013331 0.141309 0.039993 0.02933 0.029328 0.04799 0.063989 0.05599 0.1039821 8e-3 0.042659 0.01066 0.085319 0.01066 0.1306443v0.7385402h0.287951v-0.7678685c0-0.1626388-0.03999-0.2906169-0.11998-0.3786018-0.08265-0.087985-0.194633-0.1306443-0.341275-0.1306443-0.07732 0-0.146641 0.013331-0.207964 0.042659-0.06132 0.029328-0.114647 0.074654-0.1573064 0.1333105-0.069321-0.1173133-0.178636-0.1759699-0.33061-0.1759699-0.066655 0-0.1279781 0.013331-0.1893009 0.039993-0.061323 0.029328-0.1093146 0.069321-0.1439754 0.1199794v-0.1226456h-0.2612885v1.2397876h0.2879506z"/>
        <path id="path948" d="m11.459112 7.5575019c0.06666 0 0.125312-0.013331 0.181302-0.037327s0.101316-0.053324 0.141309-0.093317v0.093317h0.258623v-0.7278753c0-0.165305-0.04266-0.2986155-0.125312-0.3999315-0.08265-0.101316-0.213297-0.151974-0.391933-0.151974-0.09065 0-0.17597 0.010665-0.258622 0.034661-0.08265 0.023996-0.15464 0.05599-0.218629 0.093317l0.09598 0.1972995c0.05599-0.029328 0.109315-0.050658 0.165305-0.063989 0.05332-0.013331 0.106649-0.02133 0.162639-0.02133 0.09865 0 0.173304 0.026662 0.223962 0.082653 0.04799 0.05599 0.07199 0.1466416 0.06932 0.2746196-0.03733-0.034661-0.08265-0.061323-0.135977-0.079986-0.05599-0.018663-0.117313-0.029328-0.189301-0.029328-0.07732 0-0.149307 0.015997-0.215963 0.045326-0.06666 0.029328-0.117313 0.074654-0.157306 0.1333105-0.03999 0.061323-0.06132 0.1333105-0.06132 0.2212954 0 0.1306443 0.03999 0.2346265 0.122646 0.3119466 0.07999 0.07732 0.191967 0.1173132 0.333276 0.1173132zm0.06132-0.2399589c-0.15464 0-0.23196-0.061323-0.23196-0.1866347 0-0.1199794 0.07732-0.178636 0.23196-0.178636 0.06665 0 0.122646 0.013331 0.173304 0.039993 0.05066 0.029328 0.07465 0.074654 0.07465 0.1386429 0 0.063989-0.024 0.1119808-0.07199 0.1413092-0.05066 0.029328-0.109315 0.045325-0.17597 0.045325z"/>
    </g>
    <path id="path4334" d="m5.348408 1.203279c-0.308438 0.0099-0.595417 0.02564-0.862463 0.04806-1.604098 0.27254-2.874827 1.496923-3.208526 3.078821-3.4e-5 3.21e-4 3.3e-5 7.46e-4 0 1e-3 -0.06492 0.621899-0.08682 1.363148-0.08682 2.246847v3.447267c2.679863 0 4.157804-3.524257 4.157804-8.575019z" fill="#e74c3c" stroke-width=".0294365"/>
    <path id="path4336" d="m11.584597 1.203279v0.247008c0 5.050762 1.477941 8.575019 4.157804 8.575019v-3.447267c0-0.883659-0.02189-1.624948-0.08681-2.246847-7e-5 -3.29e-4 6.9e-5 -7.39e-4 0-1e-3 -0.333674-1.581898-1.604433-2.806221-3.208531-3.078821-0.267051-0.02242-0.554023-0.03818-0.862463-0.04806z" fill="#e74c3c" stroke-width=".0294365"/>
    <g fill="#c0392b" stroke-width=".0294365">
        <path id="path4340" d="m8.4665036 2.749512c-0.5740109 0-1.0394014-0.465391-1.0394014-1.039402v-0.51973h2.0788323v0.519701c-2.95e-5 0.574011-0.4654199 1.039431-1.0394309 1.039431"/>
        <path id="path4342" d="m6.3876714 2.749512c-0.574011 0-1.0394014-0.465391-1.0394014-1.039402v-0.51973h2.0788322v0.519701c-2.94e-5 0.574011-0.4654198 1.039431-1.0394308 1.039431"/>
        <path id="path4344" d="m3.269506 1.670425c-0.487163 0.262759-0.912284 0.623917-1.248995 1.057795 0.06766 0.01385 0.137534 0.02119 0.209286 0.02119 0.57401 0 1.039709-0.465182 1.039709-1.039192z"/>
        <path id="path4346" d="m13.663499 1.670425v0.03979c0 0.57401 0.465699 1.039192 1.039709 1.039192 0.07175 0 0.141626-0.0073 0.209286-0.02119-0.336712-0.433871-0.761829-0.795034-1.248995-1.057795z"/>
        <path id="path4348" d="m10.545306 2.749512c-0.5740105 0-1.039401-0.465391-1.039401-1.039402v-0.51973h2.078832v0.519701c0 0.574011-0.46539 1.039431-1.039431 1.039431"/>
    </g>
    <g stroke-width=".0294365">
        <path id="path4352" d="m5.608335 14.183626c-0.287123 0-0.519854 0.232732-0.519854 0.519855v1.014905c0.347614 0.01571 0.7216613 0.02377 1.1363421 0.02377h4.4833589c0.414795 0 0.78866-0.0081 1.136342-0.02377v-1.014905c0-0.287123-0.232731-0.519855-0.519854-0.519855z" fill-opacity=".40000001"/>
        <path id="path4354" d="m1.190604 10.025306v0.329172c0 0.883659 0.02189 1.624948 0.08682 2.246847 3.3e-5 3.22e-4 -3.4e-5 7.47e-4 0 1e-3 0.303501 1.438873 1.382445 2.582104 2.782204 2.982188-0.01438-1.613454-0.310381-5.559241-2.869019-5.559241z" fill="#e74c3c"/>
        <path id="path4356" d="m15.742401 10.025306c-2.558638 0-2.854642 3.945787-2.869019 5.559241 1.399755-0.400048 2.478676-1.543316 2.782204-2.982188 6.9e-5 -3.29e-4 -7e-5 -7.39e-4 0-1e-3 0.06492-0.621903 0.08681-1.363152 0.08681-2.246851z" fill="#e74c3c"/>
    </g>
    <g fill="#c0392b">
        <g stroke-width=".0294365">
            <path id="path4360" d="m3.009337 7.810022c-0.03559 0-0.07171-0.0075-0.10653-0.02314-0.130963-0.05899-0.189159-0.212826-0.129933-0.343789 0.332603-0.737471 0.588317-1.632399 0.760079-2.659348 0.02364-0.141619 0.157485-0.237258 0.299104-0.213591 0.141354 0.02364 0.236993 0.157485 0.213326 0.299103-0.178768 1.07137-0.447464 2.009186-0.799053 2.787692-0.04342 0.09617-0.137733 0.15307-0.236993 0.15307"/>
            <path id="path4362" d="m3.958398 3.788913c-0.0078 0-0.0161-2.65e-4 -0.02417-1e-3 -0.142914-0.01325-0.247914-0.139794-0.234903-0.282473 0.02443-0.265045 0.04027-0.540247 0.05484-0.817244 0.0075-0.143179 0.120572-0.254125 0.273376-0.245824 0.142914 0.0075 0.253095 0.129668 0.245824 0.273112-0.01507 0.283767-0.03144 0.565709-0.0564 0.837231-0.01248 0.134878-0.125782 0.236228-0.25857 0.236228"/>
            <path id="path4364" d="m13.92367 7.810022c-0.09926 0-0.193603-0.0569-0.236993-0.15304-0.351589-0.778507-0.620256-1.716323-0.799053-2.787692-0.02364-0.141619 0.07197-0.275437 0.213327-0.299104 0.141353-0.02364 0.275436 0.07197 0.299103 0.213591 0.171762 1.02695 0.427447 1.921877 0.760079 2.659349 0.05926 0.130962 1e-3 0.284797-0.129932 0.343788-0.03482 0.01557-0.07094 0.02311-0.106531 0.02311"/>
            <path id="path4366" d="m12.97458 3.788913c-0.133053 0-0.246089-0.10135-0.258541-0.236198-0.02493-0.271552-0.04133-0.553494-0.0564-0.837232-0.0073-0.143444 0.10291-0.265576 0.245824-0.273111 0.150185-0.0086 0.265841 0.10238 0.273376 0.245823 0.01454 0.276997 0.03041 0.552199 0.05484 0.817245 0.01298 0.142649-0.09199 0.269196-0.234902 0.282472-0.0081 7.36e-4 -0.0164 1e-3 -0.0242 1e-3"/>
            <path id="path4372" d="m5.348408 1.203279c-0.308438 0.0099-0.595417 0.02564-0.862463 0.04806-0.43397 0.07373-0.843214 0.217783-1.216439 0.419088v0.03979c0 0.57401 0.465182 1.039192 1.039193 1.039192 0.57404 0 1.039709-0.465182 1.039709-1.039192z"/>
            <path id="path4374" d="m11.584597 1.203279v0.506936c0 0.57401 0.465699 1.039192 1.039709 1.039192 0.574011 0 1.039164-0.465182 1.039193-1.039192v-0.03979c-0.373228-0.201308-0.782469-0.345339-1.216439-0.419088-0.267051-0.02242-0.554023-0.03818-0.862463-0.04806z"/>
            <path id="path4376" d="m1.318772 10.06406c-0.04053-0.02314-0.08445-0.02988-0.128108-0.02961v0.5683c0.585698 0.401484 1.019414 1.183876 1.28602 2.339463 0.02782 0.120306 0.134878 0.201374 0.253095 0.201374 0.01922 0 0.03897-0.0021 0.05846-0.0065 0.139794-0.03247 0.227102-0.171761 0.194899-0.31182-0.320151-1.387089-0.879856-2.316074-1.664367-2.761212"/>
            <path id="path4378" d="m2.906228 13.663255c-0.0088 2.22e-4 -0.01739 9.3e-4 -0.02635 0.0021-0.142413 0.01793-0.243466 0.147767-0.225304 0.290416 0.04302 0.340425 0.0694 0.668429 0.08526 0.96478 0.167911 0.128712 0.34707 0.243751 0.534841 0.344675-0.01166-0.391079-0.04082-0.86673-0.104901-1.374566-0.01656-0.133237-0.13112-0.230707-0.263545-0.227372z"/>
            <path id="path4380" d="m14.013858 13.663255c-0.126321 0.0034-0.234619 0.09855-0.250625 0.227372-0.06408 0.507935-0.09324 0.983482-0.104902 1.374566 0.18777-0.100923 0.366932-0.215962 0.534841-0.344675 0.01586-0.296351 0.04225-0.624355 0.08526-0.96478 0.01793-0.142384-0.08289-0.272224-0.225305-0.290416-0.01337-0.0017-0.02621-0.0024-0.03927-0.0021z"/>
            <path id="path4382" d="m15.742372 10.034329c-0.04365-2.65e-4 -0.08757 0.0068-0.128107 0.02961-0.784482 0.445138-1.344216 1.374094-1.664367 2.761199-0.03223 0.140058 0.05484 0.279587 0.194899 0.31182 0.01949 0.0044 0.03924 0.0065 0.05846 0.0065 0.118246 0 0.225042-0.08107 0.253095-0.201139 0.266605-1.155823 0.700293-1.938244 1.28602-2.339728z"/>
        </g>
        <path id="path14630" d="m8.4664947 8.2997143c-1.3029861 0-2.2682479 0.043285-2.9109335 0.08657-0.2072313 0.0432849-0.3939048 0.1298386-0.548463 0.259687-0.1545074 0.1298386-0.2602072 0.3029704-0.3093747 0.4760956-0.0913304 0.3895338-0.1265506 0.9521911-0.1265506 1.7312571 0 0.822346 0.035237 1.385005 0.1265506 1.774537 0.045657 0.216407 0.1548673 0.346252 0.3093747 0.519378 0.1580573 0.129838 0.3306705 0.216407 0.5343962 0.216407 0.6461913 0.08657 1.6220142 0.129838 2.9250003 0.129838 1.3027718 0 2.2787663-0.04329 2.9249573-0.129838 0.203857 0 0.393861-0.08657 0.548377-0.216407 0.154507-0.173126 0.246271-0.302971 0.295612-0.519378 0.09133-0.389532 0.126387-0.952191 0.126387-1.774537 0-0.779066-0.03506-1.3417233-0.126387-1.7312571-0.045886-0.1731252-0.137642-0.3462505-0.295612-0.4760956-0.154524-0.1298386-0.34452-0.216407-0.548377-0.2596871-0.646191-0.0432849-1.6221855-0.0865699-2.9249573-0.0865699z" stroke-width=".432814"/>
    </g>
    <path id="path14632" d="m8.4664947 7.8669004c-1.3029861 0-2.2682479 0.043285-2.9109335 0.086554-0.2072313 0.0432846-0.3939048 0.1298382-0.548463 0.2596883-0.1545074 0.1298386-0.2602072 0.3029703-0.3093747 0.4760956-0.0913304 0.3895338-0.1265506 0.9521912-0.1265506 1.7312567 0 0.822347 0.035237 1.385006 0.1265506 1.774538 0.045657 0.216407 0.1548673 0.346252 0.3093747 0.519377 0.1580573 0.129839 0.3306705 0.216407 0.5343962 0.216407 0.6461913 0.08655 1.6220142 0.129839 2.9250003 0.129839 1.3027718 0 2.2787663-0.04328 2.9249573-0.129839 0.203857 0 0.393861-0.08657 0.548377-0.216407 0.154507-0.173125 0.246271-0.30297 0.295612-0.519377 0.09133-0.389532 0.126387-0.952191 0.126387-1.774538 0-0.7790655-0.03506-1.3417229-0.126387-1.7312567-0.045886-0.1731253-0.137642-0.3462505-0.295612-0.4760956-0.154524-0.1298386-0.34452-0.216407-0.548377-0.2596887-0.646191-0.043285-1.6221855-0.0865536-2.9249573-0.0865536z" fill="#e74c3c" stroke-width=".432814"/>
    <g fill="#ecf0f1" stroke-width=".432814">
        <rect id="rect14636" x="5.2203894" y="8.7325392" width="1.7312565" height=".43281412"/>
        <rect id="rect14638" x="5.8696079" y="9.1653528" width=".43281412" height="3.0296986"/>
        <path id="path14640" d="m6.7352391 9.5981559v2.0342191c0 0.173127 0.015704 0.302971 0.040602 0.389534 0.040422 0.08657 0.1409298 0.173125 0.284014 0.173125 0.1555544 0 0.3761573-0.129838 0.5410165-0.30297v0.302977h0.4328141v-2.5968851h-0.4328139v1.9909441c-0.09331 0.129839-0.254148 0.216407-0.3381137 0.216407-0.056012 0-0.085343-0.04329-0.0947-0.129839-0.00311 0 0-0.08657 0-0.173125v-1.9043707z"/>
        <path id="path14642" d="m8.4664947 8.7325282v3.4625128h0.4328155v-0.297768c0.1649017 0.201257 0.3856372 0.297774 0.5410165 0.297774 0.1432691 0 0.2436752-0.05583 0.2839257-0.175721 0.025111-0.0779 0.040684-0.19996 0.040684-0.365295v-1.51485c0-0.1653356-0.015541-0.2873891-0.040684-0.3652955-0.040259-0.1198926-0.140668-0.1757214-0.2839257-0.1757214-0.1553744 0-0.3761148 0.096516-0.5410165 0.2977749v-1.1634043zm0.7708425 1.2577577c0.056257 0 0.085261 0.03679 0.094782 0.1082121 0.00311 0.0065 0 0.06882 0 0.175723v1.244773c0 0.106903 0.00311 0.16923 0 0.175723-0.00949 0.07142-0.038525 0.108212-0.094782 0.108212-0.083969 0-0.2445406-0.07705-0.338027-0.216407v-1.379806c0.09349-0.139359 0.2540613-0.2164081 0.338027-0.2164081z"/>
        <path id="path14644" d="m10.846973 9.5981576c-0.358371 0-0.649221 0.2908502-0.649221 0.6492204v1.298442c0 0.358371 0.29085 0.649221 0.649221 0.649221 0.35837 0 0.649221-0.29085 0.649221-0.649221v-0.216407h-0.432814v0.216407c0 0.119451-0.09694 0.216407-0.216407 0.216407-0.119451 0-0.216407-0.09694-0.216407-0.216407v-0.649221h0.865628v-0.649221c0-0.3583702-0.290851-0.6492204-0.649221-0.6492204zm0 0.4328134c0.119451 0 0.216407 0.09694 0.216407 0.216407v0.216407h-0.432814v-0.216407c0-0.11945 0.09696-0.216407 0.216407-0.216407z"/>
    </g>
</svg>
