<?xml version="1.0" encoding="utf-8"?>
<svg width="64" height="64" viewBox="0 0 64 64" xmlns="http://www.w3.org/2000/svg">
  <defs>
    <filter id="shadow" x="-0.03" y="-0.03" width="1.06" height="1.06">
      <feGaussianBlur stdDeviation="0.65"/>
    </filter>
    <linearGradient id="bgGradient" x1="0" y1="0" x2="1" y2="1">
      <stop offset="0" stop-color="#a3c78e"/>
      <stop offset="1" stop-color="#559338"/>
    </linearGradient>
    <radialGradient id="swirlGradient" cx="32" cy="32" r="32">
      <stop offset="0" stop-color="#487c31"/>
      <stop offset="0.5" stop-color="#486b22"/>
      <stop offset="1" stop-color="#22531c"/>
    </radialGradient>
  </defs>
  <rect x="4.5" y="4.5" width="55" height="55" ry="15" fill="#000" opacity="0.3" filter="url(#shadow)"/>
  <rect x="4" y="4" width="56" height="56" ry="15" fill="url(#bgGradient)"/>
  <path fill="url(#swirlGradient)" stroke="#1a4b00" stroke-width="0.25" d="M 54.623 37.084 C 53.746 33.831 51.793 31.329 48.767 29.579 C 45.73 27.828 42.584 27.382 39.316 28.245 C 38.942 28.343 38.581 28.452 38.242 28.576 C 37.923 28.499 37.593 28.459 37.277 28.461 L 32.945 28.461 C 31.334 28.461 29.951 27.886 28.823 26.732 C 27.693 25.581 27.122 24.192 27.122 22.568 C 27.122 20.945 27.693 19.565 28.823 18.429 C 29.951 17.291 31.334 16.723 32.945 16.723 C 33.362 16.723 33.79 16.768 34.206 16.856 L 30.72 20.317 C 30.006 21.023 29.646 21.779 29.646 22.58 C 29.646 23.48 29.973 24.266 30.642 24.941 C 31.311 25.615 32.091 25.953 33.001 25.953 C 33.811 25.953 34.568 25.625 35.28 24.972 L 41.498 18.885 C 42.441 18.17 42.901 17.276 42.901 16.205 C 42.901 15.394 42.584 14.648 41.938 13.964 C 39.481 11.432 36.477 10.165 32.945 10.165 C 29.448 10.165 26.508 11.358 24.14 13.741 C 21.748 16.121 20.566 19.067 20.566 22.568 C 20.566 26.07 21.748 29.021 24.14 31.421 C 24.425 31.71 24.721 31.981 25.018 32.234 C 25.105 32.524 25.237 32.804 25.379 33.065 L 27.539 36.808 C 28.349 38.212 28.548 39.69 28.11 41.248 C 27.683 42.807 26.76 43.992 25.357 44.804 C 23.954 45.616 22.474 45.816 20.917 45.403 C 19.369 44.99 18.187 44.084 17.375 42.68 C 17.166 42.315 16.99 41.927 16.86 41.523 L 21.607 42.811 C 22.571 43.079 23.405 43.011 24.097 42.61 C 24.886 42.159 25.39 41.478 25.652 40.567 C 25.905 39.654 25.807 38.806 25.347 38.021 C 24.941 37.32 24.282 36.825 23.362 36.534 L 14.974 34.194 C 13.888 33.739 12.88 33.777 11.946 34.314 C 11.244 34.72 10.764 35.375 10.5 36.275 C 9.534 39.673 9.939 42.901 11.694 45.957 C 13.449 48.987 15.949 50.934 19.204 51.805 C 22.462 52.674 25.599 52.234 28.636 50.483 C 31.662 48.732 33.624 46.227 34.513 42.966 C 34.623 42.584 34.699 42.207 34.775 41.831 C 34.974 41.609 35.16 41.364 35.302 41.102 L 37.463 37.359 C 38.275 35.958 39.458 35.053 41.026 34.647 C 42.595 34.242 44.074 34.444 45.489 35.258 C 46.893 36.07 47.804 37.25 48.218 38.8 C 48.635 40.348 48.439 41.824 47.627 43.225 C 47.42 43.592 47.166 43.936 46.882 44.252 L 45.631 39.502 C 45.379 38.527 44.897 37.841 44.205 37.439 C 43.428 36.99 42.584 36.885 41.662 37.121 C 40.753 37.359 40.071 37.87 39.613 38.656 C 39.207 39.357 39.108 40.179 39.316 41.125 L 41.487 49.552 C 41.63 50.722 42.178 51.575 43.1 52.112 C 43.801 52.516 44.612 52.609 45.533 52.39 C 48.954 51.525 51.542 49.564 53.307 46.507 C 55.062 43.479 55.489 40.337 54.623 37.084 Z" style=""/>
</svg>