<?xml version="1.0" encoding="utf-8"?>
<svg xmlns="http://www.w3.org/2000/svg" width="64" height="64" viewBox="0 0 64 64">
  <defs>
    <filter id="f-shadow" x="-0.03" y="-0.03" width="1.06" height="1.06">
      <feGaussianBlur stdDeviation="0.65"/>
    </filter>
    <mask id="m-rounded">
      <rect x="4.5" y="4.5" width="55" height="55" ry="15" fill="#fff"/>
    </mask>
    <linearGradient id="g-yellow">
      <stop offset="0" stop-color="#ff0"/>
      <stop offset="1" stop-color="#ff0" stop-opacity="0"/>
    </linearGradient>
    <linearGradient id="g-cyan">
      <stop offset="0" stop-color="#0ff"/>
      <stop offset="1" stop-color="#0ff" stop-opacity="0"/>
    </linearGradient>
    <linearGradient id="g-magenta">
      <stop offset="0" stop-color="#f0f"/>
      <stop offset="1" stop-color="#f0f" stop-opacity="0"/>
    </linearGradient>
    <linearGradient id="g-dark">
      <stop offset="0" stop-color="#343434"/>
      <stop offset="1" stop-color="#4d4d4d"/>
    </linearGradient>
    <linearGradient id="g-blue">
      <stop offset="0" stop-color="#5596ea"/>
      <stop offset="1" stop-color="#5596ea" stop-opacity="0"/>
    </linearGradient>
    <linearGradient id="g-dark-xform" href="#g-dark" gradientUnits="userSpaceOnUse" x1="1142.5884" y1="62.713318" x2="1280.8954" y2="200.87404" gradientTransform="matrix(0.230269 -0.023751 0.023751 0.230269 -267.98841 12.392682)"/>
    <linearGradient id="g-blue-xform" href="#g-blue" gradientUnits="userSpaceOnUse" x1="1327.5938" y1="230.86234" x2="1324.9103" y2="89.862335" gradientTransform="matrix(0.002575 0.231477 0.231477 -0.002575 -17.590054 -269.922666)"/>
    <linearGradient id="g-yellow-xform" href="#g-yellow" gradientUnits="userSpaceOnUse" x1="112" y1="512" x2="711.86438" y2="512" gradientTransform="matrix(0.092387 0 0 0.092387 -746.703749 -234.711119)"/>
    <linearGradient id="g-cyan-xform" href="#g-cyan" gradientUnits="userSpaceOnUse" x1="112" y1="512" x2="711.86438" y2="512" gradientTransform="matrix(0.092387 0 0 0.092387 140.104765 652.106465)"/>
    <linearGradient id="g-magenta-xform" href="#g-magenta" gradientUnits="userSpaceOnUse" x1="112" y1="512" x2="711.86438" y2="512" gradientTransform="matrix(0.092387, 0, 0, 0.092387, 464.698975, -559.300842)"/>
  </defs>
  <rect x="4.5" y="4.5" width="55" height="55" ry="15" fill="#000" opacity="0.3" filter="url(#f-shadow)"/>
  <g mask="url(#m-rounded)">
    <circle cx="-699.4" cy="-187.41" r="36.955" fill="url(#g-yellow-xform)" transform="matrix(-0.866025 -0.5 0.5 -0.866025 -478.939406 -478.953291)"/>
    <circle cx="187.405" cy="699.405" r="36.955" fill="url(#g-cyan-xform)" transform="matrix(0.866025 -0.5 0.5 0.866025 -478.945821 -478.951467)"/>
    <circle cx="512" cy="-512" r="36.955" fill="url(#g-magenta-xform)" transform="matrix(0 1 -1 0 -478.943924 545.050095)"/>
    <circle r="36.955" cy="-512" cx="512" fill="url(#g-magenta-xform)" transform="matrix(0, 1, -1, 0, -478.943924, -478.951467)"/>
    <path fill="#000" fill-opacity="0.47451" d="M 9.504 7.399 C 8.419 8.051 6.731 10.117 5.488 12.593 C 9.32 16.343 13.285 20.323 14.968 22.136 C 17.815 25.204 23.749 29.685 28.077 29.169 C 29.786 30.371 33.658 33.064 34.952 33.703 C 34.927 34.321 35.051 34.949 35.273 35.572 C 36.487 38.968 41.024 41.175 38.383 44.795 C 43.582 41.645 44.964 36.388 42.761 32.639 C 41.386 30.297 39.385 29.529 37.719 30.088 C 36.722 28.96 32.754 25.665 31.293 24.462 C 30.361 20.273 24.711 15.951 21.112 14.077 C 18.913 12.932 14.15 10.101 9.504 7.399 Z"/>
    <path fill="url(#g-dark-xform)" d="M 31.019 27.61 C 26.784 31.563 18.636 25.294 15.197 21.357 C 11.659 17.307 -1.549 3.65 -2.515 2.765 C -3.48 1.878 -4.249 0.785 -3.395 -0.304 C -2.507 -1.364 -1.278 -0.837 -0.213 -0.075 C 0.853 0.686 16.943 10.793 21.635 13.418 C 26.197 15.972 34.012 22.65 31.019 27.61 Z"/>
    <path fill="url(#g-blue-xform)" d="M 37.814 31.51 C 21.284 46.257 7.764 32.125 5.67 27.229 C 6.908 35.726 12.634 43.33 21.284 46.257 C 27.816 48.467 38.242 48.415 42.915 39.995 L 37.814 31.51 Z"/>
    <path fill="#bfbfbf" d="M 37.746 32.898 C 36.395 33.516 36.542 33.963 35.343 33.771 C 34.515 33.638 27.352 28.207 27.352 28.207 C 26.989 27.337 27.423 26.14 28.243 25.191 C 29.001 24.194 30.084 23.521 31.011 23.696 C 31.011 23.696 37.802 29.585 38.103 30.367 C 38.539 31.5 38.071 31.449 37.746 32.898 Z"/>
    <path fill="#282828" d="M 38.115 44.91 C 43.452 41.891 45.006 36.634 42.898 32.786 C 41.262 29.798 38.573 29.232 36.715 30.678 C 34.873 32.112 34.711 33.821 35.261 35.517 C 36.381 38.978 40.887 41.341 38.115 44.91 Z"/>
  </g>
</svg>