<svg id="svg5" version="1.1" viewBox="0 0 64 64" xmlns="http://www.w3.org/2000/svg" xmlns:xlink="http://www.w3.org/1999/xlink">
  <defs id="defs3">
    <style id="style1" type="text/css"/>
    <style id="style2" type="text/css"/>
    <filter id="filter1057" x="-.026999999" y="-.026999999" width="1.054" height="1.054" color-interpolation-filters="sRGB">
      <feGaussianBlur id="feGaussianBlur2" stdDeviation="0.61875"/>
    </filter>
    <linearGradient id="linearGradient1053" x1="-127" x2="-72" y1="60" y2="5" gradientTransform="translate(131.5 -.51)" gradientUnits="userSpaceOnUse">
      <stop id="stop2" stop-color="#208156" offset="0"/>
      <stop id="stop3" stop-color="#2cb56e" offset="1"/>
    </linearGradient>
    <linearGradient id="ab" x1="39.958542" x2="42.219227" y1="195.744" y2="190.93248" gradientTransform="matrix(.0641407 1.076083 -1.076083 .0641407 129.10027 5.171067)" xlink:href="#h"/>
    <linearGradient id="h" gradientUnits="userSpaceOnUse">
      <stop id="stop15" stop-color="#238d5d" offset="0"/>
      <stop id="stop16" stop-color="#33d17a" offset="1"/>
    </linearGradient>
    <linearGradient id="aa" x1="39.963024" x2="44.849743" y1="194.51285" y2="184.1398" gradientTransform="matrix(.682679 .498281 -.498281 .682679 -47.54208 -118.60489)" xlink:href="#h"/>
    <linearGradient id="Z" x1="39.963024" x2="44.849743" y1="194.51285" y2="184.1398" gradientTransform="matrix(-.317977 1.258666 -1.258666 -.317977 138.89511 78.917269)" xlink:href="#h"/>
    <linearGradient id="Y" x1="39.963024" x2="44.849743" y1="194.51285" y2="184.1398" gradientTransform="matrix(.399801 1.301514 -1.301514 .399801 131.13444 -65.548172)" xlink:href="#h"/>
    <linearGradient id="X" x1="39.963024" x2="44.849743" y1="194.51285" y2="184.1398" gradientTransform="matrix(.37436 .311061 -.311061 .37436 -42.57636 -67.102966)" xlink:href="#h"/>
    <linearGradient id="W" x1="39.963024" x2="44.849743" y1="194.51285" y2="184.1398" gradientTransform="matrix(-.518793 .552374 -.552374 -.518793 1.59629 121.4661)" xlink:href="#h"/>
    <linearGradient id="V" x1="39.963024" x2="44.849743" y1="194.51285" y2="184.1398" gradientTransform="matrix(.577471 .429861 -.429861 .577471 -29.82123 -88.523903)" xlink:href="#h"/>
    <linearGradient id="U" x1="39.963024" x2="44.849743" y1="194.51285" y2="184.1398" gradientTransform="matrix(-1.013344 -.343968 .343968 -1.013344 -186.6434 268.66153)" xlink:href="#h"/>
    <linearGradient id="T" x1="42.581951" x2="34.161064" y1="184.84708" y2="192.03258" gradientTransform="matrix(-.457581 1.006495 -1.006495 -.457581 81.48773 100.06711)" xlink:href="#h"/>
    <linearGradient id="S" x1="39.963024" x2="44.849743" y1="194.51285" y2="184.1398" gradientTransform="matrix(-.590055 .358053 -.358053 -.590055 -52.90832 161.86734)" xlink:href="#h"/>
    <linearGradient id="R" x1="39.963024" x2="44.849743" y1="194.51285" y2="184.1398" gradientTransform="matrix(.90137 .767108 -.767108 .90137 35.83025 -172.41147)" xlink:href="#h"/>
    <linearGradient id="Q" x1="39.963024" x2="44.849743" y1="194.51285" y2="184.1398" gradientTransform="matrix(-.0332829 .762181 -.762181 -.0332829 31.39089 25.574234)" xlink:href="#h"/>
    <linearGradient id="P" x1="39.963024" x2="44.849743" y1="194.51285" y2="184.1398" gradientTransform="matrix(.103158 .672179 -.672179 .103158 30.72956 -1.798645)" xlink:href="#h"/>
    <linearGradient id="O" x1="39.963024" x2="44.849743" y1="194.51285" y2="184.1398" gradientTransform="matrix(.0641407 1.076083 -1.076083 .0641407 123.5783 -7.506622)" xlink:href="#h"/>
    <linearGradient id="N" x1="39.963024" x2="44.849743" y1="194.51285" y2="184.1398" gradientTransform="matrix(-.17155 1.028755 -1.028755 -.17155 113.66083 45.627838)" xlink:href="#h"/>
    <linearGradient id="M" x1="39.963024" x2="44.849743" y1="194.51285" y2="184.1398" gradientTransform="matrix(.555802 .509544 -.509544 .555802 -3.27229 -87.470619)" xlink:href="#h"/>
    <linearGradient id="L" x1="42.581951" x2="35.336994" y1="184.84708" y2="195.86006" gradientTransform="matrix(-.358175 .517694 -.517694 -.358175 -17.84787 110.22336)" xlink:href="#h"/>
    <linearGradient id="K" x1="39.963024" x2="44.849743" y1="194.51285" y2="184.1398" gradientTransform="matrix(-.147988 .58906 -.58906 -.147988 1.61388 61.018589)" xlink:href="#h"/>
    <linearGradient id="J" x1="39.963024" x2="44.849743" y1="194.51285" y2="184.1398" gradientTransform="matrix(-.106012 .592837 -.592837 -.106012 15.662 41.317322)" xlink:href="#h"/>
    <linearGradient id="I" x1="39.963024" x2="44.849743" y1="194.51285" y2="184.1398" gradientTransform="matrix(.683121 .0427741 -.0427741 .683121 -138.58293 -157.082)" xlink:href="#h"/>
    <linearGradient id="H" x1="39.963024" x2="44.849743" y1="194.51285" y2="184.1398" gradientTransform="matrix(.668151 .543364 -.543364 .668151 -25.18192 -173.90228)" xlink:href="#h"/>
    <linearGradient id="G" x1="39.963024" x2="44.849743" y1="194.51285" y2="184.1398" gradientTransform="matrix(.888644 .409424 -.409424 .888644 -91.652907 -210.13528)" xlink:href="#h"/>
    <linearGradient id="F" x1="39.963024" x2="44.849743" y1="194.51285" y2="184.1398" gradientTransform="matrix(.63134 -.149493 .149493 .63134 -126.73778 -143.28103)" xlink:href="#h"/>
    <linearGradient id="E" x1="39.963024" x2="44.849743" y1="194.51285" y2="184.1398" gradientTransform="matrix(.539495 .490796 -.490796 .539495 -38.52111 -139.08485)" xlink:href="#h"/>
    <linearGradient id="D" x1="39.963024" x2="44.849743" y1="194.51285" y2="184.1398" gradientTransform="matrix(-.509469 -.486336 .486336 -.509469 -233.07138 137.04727)" xlink:href="#h"/>
    <linearGradient id="C" x1="39.963024" x2="44.849743" y1="194.51285" y2="184.1398" gradientTransform="matrix(-.298231 -.604511 .604511 -.298231 -271.00949 125.5813)" xlink:href="#h"/>
    <linearGradient id="B" x1="39.963024" x2="44.849743" y1="194.51285" y2="184.1398" gradientTransform="matrix(-.0964518 .692155 -.692155 -.0964518 33.06539 42.16156)" xlink:href="#h"/>
    <linearGradient id="A" x1="39.963024" x2="44.849743" y1="194.51285" y2="184.1398" gradientTransform="matrix(.74502 -.0895384 .0895384 .74502 -152.5804 -116.35736)" xlink:href="#h"/>
    <linearGradient id="z" x1="39.963024" x2="44.849743" y1="194.51285" y2="184.1398" gradientTransform="matrix(-.66388 -.479776 -.479776 .66388 -31.58542 -107.64571)" xlink:href="#h"/>
    <linearGradient id="y" x1="39.963024" x2="44.849743" y1="194.51285" y2="184.1398" gradientTransform="matrix(.65336 .162303 -.162303 .65336 -115.42543 -146.65639)" xlink:href="#h"/>
    <linearGradient id="x" x1="39.963024" x2="44.849743" y1="194.51285" y2="184.1398" gradientTransform="matrix(.849379 -.379774 .379774 .849379 -249.34649 -156.31037)" xlink:href="#h"/>
    <linearGradient id="w" x1="39.963024" x2="44.849743" y1="194.51285" y2="184.1398" gradientTransform="matrix(.046579 -.731812 .731812 .046579 -298.97784 23.387024)" xlink:href="#h"/>
    <linearGradient id="v" x1="31.24707" x2="26.991211" y1="194.72559" y2="183.70801" gradientTransform="matrix(-.540313 -.417928 .417928 -.540313 -201.61529 172.31903)" xlink:href="#c"/>
    <linearGradient id="c" gradientUnits="userSpaceOnUse">
      <stop id="stop65" stop-color="#28ae6f" offset="0"/>
      <stop id="stop66" stop-color="#33d88b" offset="1"/>
    </linearGradient>
    <linearGradient id="u" x1="31.24707" x2="26.991211" y1="194.72559" y2="183.70801" gradientTransform="matrix(.804501 -.36056 .36056 .804501 -247.72485 -154.83697)" xlink:href="#c"/>
    <linearGradient id="t" x1="31.24707" x2="26.991211" y1="194.72559" y2="183.70801" gradientTransform="matrix(-.11121 .756893 -.756893 -.11121 50.78 21.269776)" xlink:href="#c"/>
    <linearGradient id="s" x1="31.24707" x2="26.991211" y1="194.72559" y2="183.70801" gradientTransform="matrix(-.197041 .915637 -.915637 -.197041 87.3754 41.262589)" xlink:href="#c"/>
    <linearGradient id="r" x1="31.24707" x2="26.991211" y1="194.72559" y2="183.70801" gradientTransform="matrix(.13862 .612862 -.612862 .13862 9.75359 -14.134964)" xlink:href="#c"/>
    <linearGradient id="q" x1="31.24707" x2="26.991211" y1="194.72559" y2="183.70801" gradientTransform="matrix(-.351153 .780316 -.780316 -.351153 54.04762 81.223299)" xlink:href="#c"/>
    <linearGradient id="p" x1="19.625929" x2="11.971631" y1="200.07713" y2="191.45311" gradientTransform="matrix(-.551794 .72797 -.72797 -.551794 70.16089 116.49405)" xlink:href="#e"/>
    <linearGradient id="e" gradientUnits="userSpaceOnUse">
      <stop id="stop77" stop-color="#33d17a" offset="0"/>
      <stop id="stop78" stop-color="#8ff0a4" offset="1"/>
    </linearGradient>
    <linearGradient id="o" x1="19.625929" x2="11.971631" y1="200.07713" y2="191.45311" gradientTransform="matrix(-.315426 .830165 -.830165 -.315426 98.00895 25.504502)" xlink:href="#e"/>
    <linearGradient id="n" x1="19.625929" x2="11.971631" y1="200.07713" y2="191.45311" gradientTransform="matrix(-.0528683 .955347 -.955347 -.0528683 54.82775 -15.428055)" xlink:href="#e"/>
    <linearGradient id="m" x1="19.625929" x2="11.971631" y1="200.07713" y2="191.45311" gradientTransform="matrix(.695228 .383372 -.383372 .695228 -17.04926 -167.58272)" xlink:href="#e"/>
    <linearGradient id="l" x1="19.625929" x2="11.971631" y1="200.07713" y2="191.45311" gradientTransform="matrix(-.0605604 .692839 -.692839 -.0605604 2.42087 1.586991)" xlink:href="#e"/>
    <linearGradient id="k" x1="19.625929" x2="11.971631" y1="200.07713" y2="191.45311" gradientTransform="matrix(.353968 .533183 -.533183 .353968 -42.3193 -73.601303)" xlink:href="#e"/>
    <linearGradient id="j" x1="19.625929" x2="11.971631" y1="200.07713" y2="191.45311" gradientTransform="matrix(.628702 .00917735 -.00917735 .628702 -169.2321 -80.474685)" xlink:href="#e"/>
    <linearGradient id="i" x1="39.963024" x2="44.849743" y1="194.51285" y2="184.1398" gradientTransform="matrix(-.00857269 -.999963 -.999963 .00857269 69.25517 46.775208)" xlink:href="#h"/>
    <linearGradient id="g" x1="23.821821" x2="12.317045" y1="199.18237" y2="192.7469" gradientTransform="rotate(176.09317,-46.484999,115.98846)" gradientUnits="userSpaceOnUse">
      <stop id="stop93" stop-color="#28a467" offset="0"/>
      <stop id="stop94" stop-color="#33d88b" offset="1"/>
    </linearGradient>
    <linearGradient id="f" x1="20.184568" x2="12.530271" y1="23.971218" y2="15.347195" gradientTransform="translate(-182.36328,-41.613281)" xlink:href="#e"/>
    <linearGradient id="d" x1="31.24707" x2="26.991211" y1="20.338409" y2="9.3208323" gradientTransform="translate(-182.36328,-41.613281)" xlink:href="#c"/>
  </defs>
  <rect id="rect3" x="4.5" y="4.5" width="55" height="55" ry="15" fill="#141414" filter="url(#filter1057)" opacity=".3" stroke-linecap="round" stroke-width="2.7444"/>
  <rect id="rect4" x="4.5" y="4.5" width="55" height="55" ry="15" fill="url(#linearGradient1053)" stroke-linecap="round" stroke-width="2.7444"/>
  <circle id="circle4" cx="-1326.3" cy="-1241.6" r="0" fill="#5e4aa6"/>
  <circle id="circle5" cx="-226.72" cy="23.855" r="0" fill="#5e4aa6" fill-rule="evenodd"/>
  <g id="g1" transform="matrix(.48644513 0 0 .48644513 89.740658 21.512025)">
    <path id="path19" d="m-150.51172 57.261719 22.03907-21-22.03907-21" fill="none" stroke="#1b734b" stroke-linecap="round" stroke-width="8"/>
    <path id="path20" d="m-150.51172 53.652344 22.03907-21-22.03907-21" fill="none" stroke="#ffffff" stroke-linecap="round" stroke-width="8"/>
    <path id="path21" d="m-158.28515-34.859375c-0.22657 5.5625-0.8711 16.679688 7.70312 16.023438 4e-3 0.0039 4e-3 0.0078 8e-3 0.01172l0.34766 0.01172 0.11718-0.339843c-8e-3 -0.0078-0.0156-0.01172-0.0195-0.01953 2.77344-5.65625-1.1289-10.792968-8.15625-15.6875zm87.08593 0.273438c-4.08593 3.765625-6.14062 7.414062-3.85937 10.804687-4e-3 0.0039-8e-3 0.0078-0.0117 0.01172l0.10547 0.210938 0.22265-0.03906c4e-3 0 4e-3 -0.0039 8e-3 -0.0078 5.5664-0.335937 4.17187-7.425781 3.53515-10.980468zm-12.929685 3.777344c0.132813 4.417968 0.25 13.257812 7.000005 12.257812 4e-3 0.0039 8e-3 0.0039 0.0117 0.0078l0.27344-0.01172 0.0742-0.277344c-8e-3 -0.0039-0.0117-0.0078-0.0195-0.01172 1.88281-4.636719-1.5-8.484375-7.339845-11.964843zm-31.390625 0.445312c-5.27734 2.546875-8.47266 5.597656-7.20703 9.71875-8e-3 0.0039-0.0117 0.0078-0.0156 0.01172l0.043 0.242187 0.23437 0.03125c4e-3 0 4e-3 -0.0039 8e-3 -0.0039 5.72266 1.371094 6.49219-6.21875 6.9375-10zm-10.19141 0.640625c-8.35156 0.671875-14.18359 3.09375-14.625 9.242187-8e-3 0.0039-0.0195 0.0039-0.0273 0.0039l-0.0664 0.34375 0.29688 0.164062c4e-3 0 8e-3 -0.0039 0.0156-0.0039 6.92187 4.777344 11.85937-4.9375 14.40625-9.75zm27.132816 1.824219c-4.648436-0.04687-8.031246 1.367187-9.316406 5.203125h-0.0195l-0.13672 0.277343 0.21875 0.203126h0.0117c4.85937 5.589843 11.191405-1.613282 14.417968-5.160157-1.851563-0.320312-3.585938-0.507812-5.175782-0.523437zm35.906254 1.460937c-4.8711 0.839844-14.64453 2.359375-12.47266 9.679688-4e-3 0.0039-8e-3 0.0078-8e-3 0.01172l0.0547 0.300781 0.3164 0.03906c4e-3 -0.0078 8e-3 -0.01172 0.0117-0.01953 5.42969 1.351562 9.16016-2.996094 12.09766-10.011719zm-110.63672 0.308594c2.1914 3.703125 5.98047 10.332031 10.74609 10.738281 1.9961 4.738282 5.3711 11.078125 11.09766 7.96875 4e-3 0 8e-3 0 0.0117 0.0039l0.28515-0.117187-0.0312-0.316406c-8e-3 0-0.0156-0.0039-0.0195-0.0039 0.14844-4.308593-2.8164-6.914062-7.61718-8.519531 0.23437-0.148437 0.46875-0.3125 0.70703-0.496093 4e-3 0.0039 8e-3 0.0039 0.0156 0.0039l0.29687-0.179688-0.0859-0.347656c-0.0117 0-0.0195-0.0039-0.0273-0.0039-0.75-6.257813-6.82031-8.445313-15.3789-8.730469zm57.97265 6.179687c-5.55859 1.53125-9.1875 3.917969-8.69531 8.128907-4e-3 0.0039-0.0117 0.0039-0.0156 0.0078l-4e-3 0.242188 0.22266 0.07031c4e-3 0 8e-3 0 0.0117-0.0039 5.29297 2.335937 7.3789-4.863281 8.48047-8.445313zm6.98828 1.015626c-3.43359-0.02734-5.98046 1.089843-7.13671 4h-0.0195l-0.12891 0.230468 0.17578 0.179688h0.0117c3.84375 4.953125 9.53516-0.839844 12.42969-3.6875-1.9375-0.445313-3.73047-0.707032-5.33203-0.722656zm-33.96874 0.429687c-4.7461 6.398437-6.66797 12.085937-2.54297 16.253906-4e-3 0.0078-8e-3 0.01172-0.0117 0.01953l0.20312 0.265627 0.30469-0.113282c4e-3 -0.0039 4e-3 -0.0078 8e-3 -0.01172 7.75391-1.964844 3.89063-11.578126 2.03906-16.414063zm14.83203 2.191406c-4.72657 2.453125-14.26563 7.203125-9.64844 14.011719 0 0.0039-4e-3 0.0078-4e-3 0.01172l0.15625 0.292969 0.33984-0.0625c0-0.0078 0-0.01953 4e-3 -0.02734 6.01563-0.382813 8.42969-6.0625 9.15235-14.226563zm-44.2461 4.746094c2.83203 4.789063 8.33985 14.46875 15.17969 9.257813 4e-3 0 8e-3 0.0039 0.0117 0.0039l0.29687-0.183588-0.0859-0.347656c-8e-3 0-0.0156 0-0.0273-0.0039-0.7461-6.253907-6.81641-8.445313-15.375-8.726563zm23.51563 3.648437c-2.46485 3.839844-7.51953 11.433594-1.1875 14.515626 0 0.0039 0 0.0078 4e-3 0.01172l0.23828 0.152344 0.22656-0.191406c-4e-3 -0.0078-8e-3 -0.01563-8e-3 -0.02344 4.30078-2.847656 3.66797-8.097656 0.72657-14.464844zm18.2539 4.945313c-3.49218 1.671875-10.53125 4.902344-7.33593 9.957031v0.0078l0.10547 0.214843 0.24609-0.03516c0-0.0078 4e-3 -0.01172 4e-3 -0.01953 4.37891-0.136719 6.26562-4.210937 6.98047-10.125zm-10.84375 2.414063c-1.55468 3.207031-4.76562 9.570312 0.4375 11.371093v0.0078l0.20313 0.09375 0.15625-0.167969c-4e-3 -0.0039-8e-3 -0.01172-8e-3 -0.01563 3.07031-2.613281 2.08594-6.625-0.78906-11.289062zm-23.53125 0.597656c2.72266 5.660156 5.98438 9.082031 10.40235 7.734375 4e-3 0.0078 8e-3 0.01172 0.0117 0.01953l0.26172-0.04687 0.0312-0.253906s-4e-3 -0.0039-4e-3 -0.0078c1.47265-6.128906-6.65235-6.960937-10.70313-7.445312zm37 4.449218c-2.58984 1.585938-7.82421 4.675782-4.91796 8.359376 0 0.0039-4e-3 0.0039-4e-3 0.0078l0.10157 0.160156 0.1914-0.05078v-0.01563c3.40625-0.460938 4.54688-3.789062 4.62891-8.460938zm15.27735 0c-5.55469 0.355469-16.67578 0.875-15.12891 9.332032-4e-3 0.0039-8e-3 0.0078-0.0117 0.01172l0.0273 0.347657 0.35156 0.07813c4e-3 -0.0078 8e-3 -0.01172 0.0117-0.01953 5.91797 2.167969 10.61719-2.25 14.75-9.75zm-60.26953 1.9375c2.83593 4.792969 8.33984 14.46875 15.17968 9.257813 4e-3 0.0039 8e-3 0.0039 0.0117 0.0039l0.30079-0.179687-0.0898-0.347656c-8e-3 0-0.0156-0.0039-0.0234-0.0039-0.75-6.257812-6.82032-8.445312-15.37891-8.730469zm60.55468 8.367188c-5.5625 0.148438-16.69921 0.257812-15.46875 8.765625-4e-3 0.0039-8e-3 0.0078-8e-3 0.01172l0.0117 0.347655 0.34766 0.09375c4e-3 -0.0078 0.0117-0.01563 0.0156-0.02344 5.83202 2.390628 10.6914-1.85156 15.10155-9.19531zm26.554691 0.671875c-2.457031 0.01563-4.246093 0.820313-4.960937 2.886719h-0.01172l-0.07813 0.15625 0.121094 0.117187h0.0078c2.710938 3.1875 6.332032-0.847656 8.175782-2.832031-1.171876-0.214844-2.265626-0.332031-3.253907-0.328125zm-17.562501 0.148437c-5.1875 3.796876-8.02344 7.71875-5.83984 11.914063-8e-3 0.0039-0.0117 0.0078-0.0156 0.01172l0.0937 0.253906 0.25781-0.01563c4e-3 0 4e-3 -0.0039 8e-3 -0.0078 6.44141 0.34375 5.76562-7.988281 5.49609-12.15625zm23.91406 2.597657c-4.597652-0.04297-9.312496 1.035156-9.296871 6.40625-0.0039 0.0039-0.0078 0.0039-0.0078 0.0078l-0.03516 0.3125 0.304688 0.132813c0.0039-0.0078 0.01172-0.01172 0.01562-0.01953 4.96875 2.910157 9.910163-0.300781 14.839853-6.375-1.59766-0.183593-3.69532-0.445312-5.82032-0.464843zm-80.43359 0.65625c-3.10937 0.0039-6.54297 3.316406-8.57812 5.222656 5.84375 1.492187 10.3789 1.210937 12.11718-2.875 8e-3 0.0039 0.0156 0 0.0195 0.0039l0.12894-0.218744-0.16797-0.179687h-8e-3c-1.03906-1.410156-2.25-1.953125-3.51172-1.953125zm64.820312 0.882812c-3.28125 0-6.289062 0.988281-6.558592 4.855469-4e-3 0-4e-3 0.0039-8e-3 0.0039l-0.0469 0.261719 0.24609 0.128906c4e-3 -0.0039 8e-3 -0.0078 0.0156-0.01563 3.972659 2.730469 8.292972 0.347656 12.781253-4.425781-1.722656-0.324219-4.144531-0.808594-6.429688-0.808594zm24.175778 5.753907c-5.97265-0.03125-10.34765 1.871093-12.148434 6.878906-0.01172 0-0.02344 0-0.03125-0.0039l-0.191406 0.378906 0.292969 0.289062h0.01563c6.503901 7.824213 15.425781-1.878912 19.968741-6.65235-2.85156-0.554687-5.50781-0.878906-7.90625-0.890624zm-26.851559 1.164062c-3.441411 0.628906-10.343751 1.773438-8.753911 6.9375 0 0.0039-4e-3 0.0078-4e-3 0.0078l0.043 0.214844 0.22266 0.02734c4e-3 -0.0039 4e-3 -0.01172 8e-3 -0.01563 3.85156 0.917969 6.460939-2.1875 8.484376-7.171875zm6 0.695312c-3.5 0.02344-6.550781 1.246094-7.125 5.441407-0.0039 0.0039-0.0078 0.0039-0.01172 0.0078l-0.07812 0.316407 0.289062 0.171874c0.0078-0.0039 0.01172-0.0078 0.01953-0.01562 4.632813 3.660156 10.105469 1.097656 15.972657-4.375-2.394532-0.617188-5.914063-1.566407-9.066407-1.546876zm-19.695311 0.894532c-5.1836-0.03906-8.90625 1.445312-10.0586 5.59375h-0.0234l-0.11719 0.28125 0.22656 0.191406h0.0117c5.04688 5.226562 10.88672-2.160156 13.86328-5.800781-1.37109-0.164063-2.67578-0.257813-3.90234-0.265625zm-61.79688 1.035156c2.83204 4.789062 8.33985 14.46875 15.17579 9.257812 4e-3 0 8e-3 0.0039 0.0156 0.0039l0.29687-0.179688-0.0859-0.351562c-0.0117 0-0.0195 0-0.0273-0.0039-0.7461-6.253906-6.81641-8.445312-15.37501-8.726562zm67.87891 5.234375c-2.25391 0.01563-4.19922 0.976563-5.19922 3.738281-4e-3 0.0039-4e-3 0.0039-8e-3 0.0039l-0.13281 0.269532 0.22656 0.210937c4e-3 -0.0039 0.0117-0.0078 0.0195-0.01172 3.44141 4.152344 8.81641 2.910157 15.10547-0.855468-2.558605-1.277337-6.62892-3.378899-10.01173-3.355462zm19.355469 1.695313c-4.148438 0.02734-7.125 1.300781-8.097657 4.6875h-0.01562l-0.101563 0.238281 0.1875 0.164062h0.01172c4.257812 4.488281 9.289062-1.753906 11.855461-4.828125-1.363274-0.175781-2.64843-0.269531-3.839836-0.261718zm9.476561 0.207031c-3.55078-0.04297-6.1875 1.101562-7.39453 4.109375-0.0078 0-0.01563 0-0.01953-0.0039l-0.132813 0.238281 0.183594 0.1875h0.0078c3.957029 5.140625 9.863279-0.828125 12.867189-3.761719-2-0.46875-3.85547-0.75-5.51172-0.769531zm-41.79687 0.167969c-1.39454-0.01563-2.83985 0.503906-4.29688 1.78125h-0.0117l-0.28516 0.199218 0.10938 0.339844c8e-3 0 0.0156 0.0039 0.0273 0.0039 1.17188 6.191406 7.375 7.960938 15.9375 7.660156-2.44531-3.550781-6.6875-9.921874-11.48047-9.984374zm-7.34766 3.78125-0.19141 0.179687v0.01172c-5.21093 3.914062 0.71485 9.925781 3.625 12.976562 1.55469-6.300781 1.20703-11.175781-3.19922-13.011718 0-0.0039 0-0.01172 4e-3 -0.01953zm-40.52734 0.101562c1.73828 3.035156 5.10937 9.171875 9.45703 5.960938h0.0117l0.1875-0.109376-0.0508-0.222656h-0.0156c-0.41406-3.941406-4.21094-5.371094-9.58985-5.628906zm71.054684 2.070312c-0.875 0.01953-1.75 0.265626-2.632813 0.761719l-0.01172-0.01172-0.226562 0.09375 0.01953 0.234376c0.0039 0 0.0039 0.0039 0.0078 0.0078-0.117188 5.84375 7.40625 4.984375 11.175781 4.617188-2.742187-3.503907-5.511719-5.765626-8.332031-5.703126zm-8.382814 0.01172c-0.375-0.01172-0.76562 0.02344-1.17187 0.09766-4e-3 -0.0039-8e-3 -0.01172-8e-3 -0.01563l-0.21875 0.01172-0.0508 0.203125c0 0.0039 4e-3 0.0078 4e-3 0.0078-1.76954 4.867187 4.781246 6.296875 8.042965 7.070312-1.511719-4.339843-3.535157-7.277343-6.597655-7.375zm-64.375 0.808594c-2.58203-0.01563-5.64844 1.335937-7.60937 2.175781 4.76172 3.261719 8.93359 4.496094 11.83593 1.394532 4e-3 0.0039 0.0117 0.0078 0.0156 0.0078l0.1875-0.15625-0.0898-0.214844c-4e-3 0-8e-3 -0.0039-8e-3 -0.0039-0.70703-2.394531-2.3789-3.191406-4.33203-3.203125zm86.19922 0.03906c-1.20312 0-2.4375 0.269531-3.707031 0.835937-0.0039-0.0078-0.01172-0.01563-0.01953-0.02344l-0.371094 0.113281v0.375c0 0.0039 0.0039 0.0078 0.0078 0.01172-1.042968 9.207031 10.960935 8.953124 16.960935 8.925781-3.97264-6.175779-8.19139-10.230467-12.87108-10.238279zm-35.99609 3.390624c-0.60157 0.01953-1.22266 0.136719-1.86719 0.347657-4e-3 -0.0078-8e-3 -0.01172-0.0117-0.01953l-0.26953 0.05469-0.0273 0.261719c0 0.0039 4e-3 0.0078 8e-3 0.01172-1.40625 6.40625 7.05859 7.101563 11.28515 7.519532-2.53515-5.007813-5.44922-8.296875-9.11718-8.175782zm-15.01563 0.277344-0.18359 0.339844c0 0.0039 4e-3 0.0078 4e-3 0.01172-5.35938 7.851562 5.64843 13.375 11.10156 16.22656-0.80859-9.433591-3.57422-16.00781-10.52734-16.472654 0-0.01172-4e-3 -0.01953-4e-3 -0.03125zm27.66016 1.644532c-0.4375 0.0039-0.89063 0.05859-1.35547 0.164062-4e-3 -0.0039-8e-3 -0.01172-8e-3 -0.01563l-0.25 0.02344-0.0508 0.238282c0 0.0039 4e-3 0.0078 4e-3 0.0078-1.83594 5.722656 5.82422 7.089844 9.640624 7.839844-1.945312-4.964844-4.425784-8.277344-7.980464-8.257812zm-56.69531 0.441406c-3.66797-0.101563-7.78516 2.222656-12.15235 5.921875 5.31641 1.648437 15.89844 5.128911 17.46875-3.328125 4e-3 0 8e-3 -0.0039 0.0117-0.0039l0.0977-0.332032-0.29687-0.203125c-8e-3 0.0078-0.0156 0.01172-0.0234 0.01563-1.57813-1.371094-3.28516-2.023437-5.10547-2.070312zm69.386714 0.191406c-0.648438-0.01172-1.324219 0.05469-2.027344 0.191406-0.0039-0.0078-0.0078-0.01563-0.01172-0.02344l-0.375 0.02734-0.08594 0.351563c0.0039 0.0039 0.0039 0.0078 0.0078 0.01172-2.96875 8.460937 8.40625 10.808591 14.07031 12.078121-2.703106-7.484366-6.273419-12.527335-11.578106-12.63671zm-26.621094 4.609375c-0.16797 0.0078-0.33594 0.01953-0.50781 0.03906-4e-3 -0.0039-4e-3 -0.0078-8e-3 -0.01172l-0.21875-0.0039-0.0625 0.199219c0 0.0039 0 0.0078 4e-3 0.0078-2.125 4.773436 4.36719 6.671876 7.59765 7.675786-1.30469-4.792964-3.31641-8.003901-6.80469-7.906245zm-18.53125 0.171875-0.20312 0.132812c0 0.0078 0 0.01172 4e-3 0.01953-3.86719 1.894531-3.90235 6.300788-2.15235 11.882818 2.44922-2.91016 7.44141-8.644537 2.53906-11.875006 0-0.0039-4e-3 -0.0078-4e-3 -0.01172zm61.33203 1.953125c-1.20312-0.0039-2.4375 0.269531-3.70312 0.832031-8e-3 -0.0078-0.0117-0.01563-0.0195-0.02344l-0.37113 0.113284v0.375c0 0.0039 4e-3 0.0078 8e-3 0.01172-1.04296 9.21094 10.96094 8.95312 16.96094 8.92969-3.97656-6.17969-8.1914-10.230471-12.875-10.238284zm-26.84375 1.40625c-2.48047-0.07422-4.85547 0.675781-7.10547 2.417965-0.0117-8e-3 -0.0195-0.0156-0.0312-0.0234l-0.42187 0.25 0.10937 0.45703c4e-3 4e-3 0.0117 8e-3 0.0156 0.0117 1.46875 11.61328 16.121095 7.72265 23.48047 5.89843-5.644535-5.3711-11.054691-8.855475-16.04688-9.011725zm-56.52734 0.148437c-5.76953 0.06641-9.0586 8.628908-10.92188 13.257818 9.00782-1.6836 15.07813-4.98047 14.85547-11.71875 8e-3 -4e-3 0.0195-4e-3 0.0273-8e-3l0.0352-0.38672-0.34375-0.14062c-4e-3 4e-3 -8e-3 4e-3 -0.0117 8e-3 -1.3125-0.714842-2.52344-1.027342-3.64062-1.011718zm26.93359 1.781248-0.13672 0.17188v8e-3c-3.79687 3.85547 1.8125 8.0625 4.57813 10.21094 0.5039-5.36719-0.38282-9.32813-4.23047-10.29297v-0.0156zm-11.95312 0.49219-0.21094 0.10938c-4e-3 4e-3 -4e-3 4e-3 -4e-3 8e-3 -5.52734 2.16406-1.79297 8.88281 0.0156 12.27344 2.90234-5.14844 3.78906-9.51172 0.36719-12.19922 4e-3 -4e-3 4e-3 -0.0117 8e-3 -0.0156zm26.29687 2.28906c-0.35156 0.0117-0.71484 0.043-1.08594 0.082-4e-3 -0.0117-8e-3 -0.0195-0.0117-0.0312l-0.46875-8e-3 -0.13672 0.42969c0 8e-3 4e-3 0.0117 8e-3 0.0195-4.54688 10.19141 9.32031 14.26563 16.21875 16.42188-2.77344-10.2461-7.06641-17.10938-14.52344-16.91407z" fill-opacity=".239216"/>
    <path id="path22" d="m-158.36328-36c7.15625 4.984375 11.07813 10.21875 8 16-8.89062 0.9375-8.23047-10.375-8-16z" fill="url(#d)"/>
    <path id="path23" d="m-156.33984-31.953125c1.57422 4.121094 2.2539 8.582032 5.6875 11.988282l0.34765 0.01172 0.11719-0.339844c-3.47265-2.85547-4.33594-7.60547-6.15234-11.660158z" fill="#218959"/>
    <path id="path24" d="m-173.38672-27.269531c8.71875 0.289062 14.85547 2.550781 15.41797 9.074219-6.94922 5.625-12.55078-4.226563-15.41797-9.074219z" fill="url(#f)"/>
    <path id="path25" d="m-169.48828-24.972656c3.5625 2.597656 6.5625 5.976563 11.29297 6.964844l0.30078-0.179688-0.0898-0.347656c-4.46485-0.507813-7.77344-4.023437-11.50391-6.4375z" fill="#2ec27e"/>
    <path id="path26" d="m-173.39062 53.945313c6.65625-5.636719 12.72265-8.082032 17.51953-3.621094-1.375 8.83203-12.14063 5.289062-17.51953 3.621094z" fill="#33d17a"/>
    <path id="path27" d="m-168.95703 53.03125c4.38281-0.464843 8.87109 0.02734 13.04688-2.417969l0.0976-0.332031-0.29687-0.203125c-3.65234 2.625-8.46094 2.238282-12.84766 2.953125z" fill="#2ec27e"/>
    <path id="path28" d="m-172.72656 28.148438c8.71484 0.289062 14.85156 2.550781 15.41406 9.074219-6.94922 5.625-12.55078-4.226563-15.41406-9.074219z" fill="#33d17a"/>
    <path id="path29" d="m-168.83203 30.449219c3.56641 2.597656 6.5625 5.972656 11.29688 6.960938l0.29687-0.179688-0.0859-0.347656c-4.46875-0.507813-7.77343-4.019532-11.50781-6.433594z" fill="#2ec27e"/>
    <path id="path30" d="m-172.40625 5.285157c8.71875 0.289062 14.85547 2.550781 15.41797 9.074218-6.94922 5.625-12.55078-4.226562-15.41797-9.074218z" fill="#33d17a"/>
    <path id="path31" d="m-168.50781 7.582031c3.5625 2.601563 6.55859 5.976563 11.29297 6.964844l0.29687-0.179687-0.0859-0.347657c-4.46874-0.507812-7.77343-4.019531-11.5039-6.4375z" fill="#2ec27e"/>
    <path id="path32" d="m-171.80859-12.710937c8.71484 0.289062 14.85156 2.550781 15.41406 9.074218-6.94922 5.625-12.54687-4.226562-15.41406-9.074218z" fill="#33d17a"/>
    <path id="path33" d="m-167.91015-10.414062c3.5625 2.601562 6.55859 5.976562 11.29296 6.964843l0.29688-0.179687-0.0859-0.347656c-4.46875-0.507813-7.77344-4.019531-11.50391-6.4375z" fill="#2ec27e"/>
    <path id="path34" d="m-127.41797 3.34375c-0.0781 4.757813-1.25781 8.128907-4.8125 8.492188-3.1289-3.742188 2.19532-6.882813 4.8125-8.492188z" fill="#33d17a"/>
    <path id="path35" d="m-128.63672 5.492188c-1.38672 1.964843-3.19922 3.632812-3.69922 6.222656l0.10157 0.160156 0.1875-0.05078c0.23828-2.441406 2.125-4.277344 3.41015-6.332032z" fill="#2ec27e"/>
    <path id="path36" d="m-111.85156 13.652344c-4.48828 7.476563-9.44922 11.742187-15.42188 9.0625-1.53906-8.804687 9.79297-8.910156 15.42188-9.0625z" fill="#33d17a"/>
    <path id="path37" d="m-115.75391 15.945313c-4.0039 1.847656-8.41015 2.828125-11.57421 6.484375l0.0117 0.34375 0.34765 0.09766c2.61328-3.660156 7.29297-4.839844 11.21485-6.925781z" fill="#2ec27e"/>
    <path id="path38" d="m-106.33594 45.441407c-8.71484 0.304687-14.99218-1.53125-15.99609-8.003907 6.54687-6.082031 12.80859 3.363281 15.99609 8.003907z" fill="url(#g)"/>
    <path id="path39" d="m-110.37891 43.414063c-3.73437-2.351563-6.95312-5.511719-11.74218-6.179688l-0.28516 0.199219 0.10938 0.34375c4.49218 0.203125 8.03125 3.480469 11.91796 5.636719z" fill="#2ec27e"/>
    <path id="path40" d="m-112.13672 3.34375c-4.20703 7.640625-9.0039 12.085938-15.07422 9.632813-1.86328-8.742188 9.45703-9.273438 15.07422-9.632813z" fill="url(#i)"/>
    <path id="path41" d="m-115.94922 5.78125c-3.93359 1.996094-8.30078 3.136719-11.32812 6.910157l0.0273 0.347656 0.34766 0.07813c2.47656-3.75 7.10937-5.105469 10.95312-7.335938z" fill="#26a269"/>
    <path id="path42" d="m-165.6875 39.339844c5.47656 0.261719 9.31641 1.738281 9.60938 5.84375-4.41797 3.472656-7.85157-2.773437-9.60938-5.84375z" fill="url(#j)"/>
    <path id="path43" d="m-163.25781 40.820313c2.21484 1.664062 4.07031 3.816406 7.03906 4.480468l0.1875-0.109374-0.0508-0.222657c-2.80469-0.359375-4.85156-2.597656-7.17578-4.148437z" fill="#2ec27e"/>
    <path id="path44" d="m-140.88281-1.699219c2.92969 4.75 3.89844 8.824219 0.61719 11.429688-5.45703-1.710938-2.1875-8.1875-0.61719-11.429688z" fill="url(#k)"/>
    <path id="path45" d="m-140.73047 1.191407c-0.125 2.820312-0.86328 5.613281 0.28516 8.488281l0.20312 0.09375 0.15625-0.167969c-1.3125-2.5625-0.60937-5.570312-0.64453-8.414062z" fill="#2ec27e"/>
    <path id="path46" d="m-130.03906-4.113281c-0.73047 6.019531-2.66797 10.136719-7.22266 10.128906-3.47265-5.152344 3.69141-8.4375 7.22266-10.128906z" fill="url(#l)"/>
    <path id="path47" d="m-131.86719-1.550781c-2.01562 2.308594-4.53906 4.183594-5.51171 7.402344l0.10937 0.214844 0.24609-0.03906c0.6211-3.062503 3.25782-5.140628 5.15625-7.578128z" fill="#2ec27e"/>
    <path id="path48" d="m-84.210936-31.949219c5.949216 3.542969 9.351566 7.46875 7.242186 12.21875-6.98828 1.246094-7.105468-7.75-7.242186-12.21875z" fill="url(#m)"/>
    <path id="path49" d="m-82.378905-28.859375c1.480465 3.175782 2.269535 6.671875 5.179685 9.171875l0.27735-0.0078 0.0742-0.277344c-2.91407-2.066406-3.86329-5.777344-5.531255-8.886719z" fill="#2ec27e"/>
    <path id="path50" d="m-127.5625-17.453125c-0.73828 8.3125-3.22265 14.054688-9.48437 14.246094-5.00391-6.933594 4.70312-11.765625 9.48437-14.246094z" fill="url(#n)"/>
    <path id="path51" d="m-129.96484-13.851562c-2.67188 3.265625-6.05469 5.953125-7.25 10.421875l0.15625 0.292968 0.33984-0.0625c0.71875-4.242187 4.25-7.214843 6.75391-10.652343z" fill="#2ec27e"/>
    <path id="path52" d="m-62.75-27.578125c-2.99219 7.144532-6.80469 11.527344-12.39844 9.933594-2.47656-7.539062 7.46875-9.082031 12.39844-9.933594z" fill="url(#o)"/>
    <path id="path53" d="m-65.88672-25.066406c-3.28125 2.136719-7.03125 3.558594-9.34375 7.179687l0.0547 0.300782 0.31641 0.03906c1.83203-3.550781 5.78906-5.1875 8.97265-7.519531z" fill="#2ec27e"/>
    <path id="path54" d="m-73.125 17.535157c-5.02344 6.183593-10.054686 9.40625-15.11328 6.214843-0.261719-8.160156 10.00391-6.804687 15.11328-6.214843z" fill="url(#p)"/>
    <path id="path55" d="m-76.94922 19.105469c-3.85937 1.15625-7.968748 1.476562-11.300779 4.378906l-0.03516 0.3125 0.300781 0.132813c2.835938-2.976563 7.218758-3.441407 11.035158-4.824219z" fill="#2ec27e"/>
    <path id="path56" d="m-94.835936 36.742188c-6.402344 3.835937-11.867184 5.054687-15.296874 0.625 2.39062-7.265625 10.98828-2.78125 15.296874-0.625z" fill="url(#q)"/>
    <path id="path57" d="m-98.70703 36.898438c-3.76563-0.214844-7.48828-1.253907-11.35156 0.230469l-0.12891 0.265624 0.22266 0.210938c3.44922-1.707031 7.45703-0.710938 11.25781-0.707031z" fill="#218959"/>
    <path id="path58" d="m-97.234374 25.523438c-2.0625 5.078125-4.726566 8.207031-8.695316 7.121093-1.80859-5.316406 5.21485-6.480468 8.695316-7.121093z" fill="url(#r)"/>
    <path id="path59" d="m-99.433592 27.324219c-2.308598 1.539062-4.949218 2.574219-6.558598 5.148438l0.0391 0.214843 0.22657 0.02344c1.26953-2.523438 4.05859-3.710938 6.292966-5.386719z" fill="#218959"/>
    <path id="path60" d="m-82.16797 27.769531c-5.972654 5.570313-11.53906 8.128907-16.22656 4.171876 0.890625-8.324219 11.121094-5.492188 16.22656-4.171876z" fill="url(#s)"/>
    <path id="path61" d="m-86.273436 28.824219c-4.082032 0.628906-8.300782 0.375-12.097656 2.847656l-0.07813 0.316406 0.289063 0.171876c3.300785-2.617188 7.81641-2.472657 11.886723-3.335938z" fill="#218959"/>
    <path id="path62" d="m-88.128905 19.417969c-4.570313 4.863281-8.96875 7.246094-13.000005 4.273438 0.27735-6.832032 8.76563-5.074219 13.000005-4.273438z" fill="url(#t)"/>
    <path id="path63" d="m-91.417968 20.496094c-3.292968 0.734375-6.746093 0.753906-9.707032 2.972656l-0.0469 0.261719 0.24609 0.128906c2.54688-2.3125 6.23438-2.4375 9.507817-3.363281z" fill="#218959"/>
    <path id="path64" d="m-163.51562-18.679687c7.55468 1.429687 12.59765 4.226562 12.20312 9.988281-6.8125 3.960937-10.35937-5.378906-12.20312-9.988281z" fill="url(#u)"/>
    <path id="path65" d="m-160.42969-16.152343c2.75391 2.746093 4.90625 6.089843 8.89844 7.59375l0.28125-0.117188-0.0273-0.316406c-3.82422-1.046875-6.23047-4.550782-9.15234-7.160156z" fill="#218959"/>
    <path id="path66" d="m-139.35547 65.031249c-1.78515-5.68359-1.71484-10.148436 2.36328-11.98828 5.19532 3.207031 0.11329 9.04688-2.36328 11.98828z" fill="url(#v)"/>
    <path id="path67" d="m-138.75781 61.999999c0.87109-2.88281 2.37109-5.578124 1.9375-8.855468l-0.18359-0.148437-0.20313 0.132813c0.67969 2.996093-0.83594 5.921872-1.55078 8.871092z" fill="#218959"/>
    <path id="path68" d="m-164.41406-1.101562c2.76953 5.761719 6.10547 9.210937 10.64844 7.660156 1.71484-6.328125-6.55078-7.167969-10.64844-7.660156z" fill="url(#w)"/>
    <path id="path69" d="m-161.72265 0.835938c2.80078 1.621093 5.94921 2.632812 8.01562 5.515625l-0.0312 0.253906-0.26177 0.04297c-1.66015-2.847657-4.99609-4.023438-7.72265-5.812501z" fill="#26a269"/>
    <path id="path70" d="m-142.39453-19.644531c-4.83594 6.515625-6.74219 12.296875-2.3125 16.480469 8.11719-1.804688 4.18359-11.589844 2.3125-16.480469z" fill="url(#x)"/>
    <path id="path71" d="m-142.97656-15.476562c-0.17188 4.097656 0.55469 8.238281-1.46484 12.257812l-0.30469 0.113281-0.20313-0.265624c2.21875-3.546876 1.57032-7.988282 1.97266-12.105469z" fill="#26a269"/>
    <path id="path72" d="m-115.41406-21.089843c-5.66016 1.558593-9.32422 4.003906-8.66797 8.363281 5.43359 2.589843 7.55078-4.738281 8.66797-8.363281z" fill="url(#y)"/>
    <path id="path73" d="m-117.60547-18.972656c-1.92578 2.261719-3.35547 4.941406-6.30078 6.332031l-0.22266-0.07031 4e-3 -0.242188c2.84375-1.035156 4.45704-3.855468 6.51954-6.019531z" fill="#26a269"/>
    <path id="path74" d="m-148.29297-9.058593c2.9961 6.484374 3.60157 11.808593-0.96484 14.621093-6.67188-3.011719-1.52734-10.738281 0.96484-14.621093z" fill="url(#z)"/>
    <path id="path75" d="m-148.53906-5.359375c-0.58984 3.5625-1.95703 7-0.94141 10.828125l0.24219 0.152344 0.22266-0.191406c-1.27344-3.457031 0.082-7.171875 0.47656-10.789063z" fill="#26a269"/>
    <path id="path76" d="m-102.85937 14.472657c-5.28125 3.863281-8.13282 7.859374-5.72266 12.144531 6.6875 0.546875 5.99609-7.929688 5.72266-12.144531z" fill="url(#A)"/>
    <path id="path77" d="m-104.30469 17.542969c-1.10937 3.121094-1.54297 6.480469-4.05859 9.09375l-0.25781 0.01563-0.0937-0.253906c2.55468-2.203125 3.11718-5.777344 4.41015-8.855469z" fill="#26a269"/>
    <path id="path78" d="m-96.562499 55.839844c-2.222656-5.675781-5.144531-9.191406-9.574221-8.039063-2.08203 5.886719 5.71485 7.28125 9.574221 8.039063z" fill="url(#B)"/>
    <path id="path79" d="m-98.984374 53.804688c-2.542966-1.738281-5.464846-2.925781-7.222656-5.8125l0.0469-0.238281 0.25-0.02344c1.37891 2.824219 4.46484 4.183594 6.925781 6.074219z" fill="#26a269"/>
    <path id="path80" d="m-175 44.40625c4.84766 3.320313 9.08594 4.542969 11.9961 1.222657-1.53125-5.828126-8.50391-2.710938-11.9961-1.222657z" fill="url(#C)"/>
    <path id="path81" d="m-171.96484 44.714844c2.97265 0.0078 5.94531-0.628906 8.91406 0.722656l0.0898 0.214844-0.1875 0.15625c-2.62891-1.507813-5.82812-0.917969-8.81641-1.09375z" fill="#26a269"/>
    <path id="path82" d="m-167.95703 22.949219c5.95313 1.523438 10.54688 1.199219 12.21094-3.101562-3.58985-5.167969-9.31641 0.390624-12.21094 3.101562z" fill="url(#D)"/>
    <path id="path83" d="m-164.86719 22.164063c2.92188-1.054688 5.61329-2.75 9.00782-2.488282l0.16406 0.183594-0.125 0.21875c-3.12109-0.539062-6.05078 1.1875-9.04688 2.085938z" fill="#26a269"/>
    <path id="path84" d="m-103.09375-19.351562c-6.19922-1.425781-10.94922-0.980469-12.5625 3.515625 3.84375 5.261718 9.63672-0.636719 12.5625-3.515625z" fill="url(#E)"/>
    <path id="path85" d="m-106.26953-18.460937c-3 1.164062-5.74219 2.984375-9.26563 2.796875l-0.17578-0.183594 0.125-0.226563c3.2461 0.476563 6.23438-1.382812 9.31641-2.386718z" fill="#26a269"/>
    <path id="path86" d="m-71.27734-35.726562c-4.16016 3.835937-6.21875 7.546875-3.73438 10.992187 5.79688-0.179687 4.37891-7.394531 3.73438-10.992187z" fill="url(#F)"/>
    <path id="path87" d="m-72.21875-32.945312c-0.65234 2.785156-0.69531 5.714843-2.60156 8.207031l-0.22266 0.03906-0.10547-0.210937c1.98047-2.140625 2.11719-5.269531 2.92969-8.035156z" fill="#26a269"/>
    <path id="path88" d="m-125.78906-30.863281c-8.50781 0.683594-14.40234 3.179688-14.64844 9.582031 7.05078 5.171875 12.07031-4.710937 14.64844-9.582031z" fill="url(#G)"/>
    <path id="path89" d="m-129.49219-28.4375c-3.36328 2.703125-6.13671 6.140625-10.71875 7.328125l-0.29687-0.164062 0.0664-0.34375c4.34375-0.703125 7.41406-4.289063 10.94922-6.820313z" fill="#26a269"/>
    <path id="path90" d="m-93.480468-28.515625c-7.402342-1.277344-12.972652-0.441406-14.585942 4.964844 4.87891 5.953125 11.320318-1.378906 14.585942-4.964844z" fill="url(#H)"/>
    <path id="path91" d="m-97.171874-27.257812c-3.457036 1.570312-6.570316 3.894531-10.738286 3.902343l-0.21875-0.203124 0.13282-0.277344c3.85937 0.351562 7.25781-2.035156 10.824216-3.421875z" fill="#26a269"/>
    <path id="path92" d="m-115.59766-31.503906c-5.375 2.59375-8.58984 5.707031-7.13671 9.945313 5.90625 1.597656 6.68359-6.117188 7.13671-9.945313z" fill="url(#I)"/>
    <path id="path93" d="m-117.40234-28.988281c-1.50782 2.613281-2.45313 5.554688-5.14063 7.488281l-0.23437-0.03125-0.043-0.242187c2.65625-1.554688 3.7539-4.667969 5.41797-7.214844z" fill="#26a269"/>
    <path id="path94" d="m-96.417968 48.796875c-1.726562-4.960937-4.125002-8.085937-7.976562-7.242187-1.99219 5.003906 4.675781 6.460937 7.976562 7.242187z" fill="url(#J)"/>
    <path id="path95" d="m-98.437499 46.964844c-2.132811-1.582031-4.609371-2.703125-6.027341-5.246094l0.0508-0.203125 0.21875-0.01172c1.08984 2.476562 3.70312 3.75 5.75781 5.460937z" fill="#26a269"/>
    <path id="path96" d="m-111.67187 60.730469c-1.39063-5.113281-3.58594-8.421875-7.51954-7.839844-2.35156 4.894532 4.25391 6.824224 7.51954 7.839844z" fill="url(#K)"/>
    <path id="path97" d="m-113.57422 58.746099c-2.03515-1.742192-4.44922-3.039068-5.69922-5.699224l0.0664-0.199218h0.21875c0.92578 2.570312 3.46484 4.03125 5.41406 5.898442z" fill="#26a269"/>
    <path id="path98" d="m-127.66797 68.675779c0.51172-5.46484-0.41406-9.47656-4.44531-10.347654-4.0625 3.894534 1.64453 8.175784 4.44531 10.347654z" fill="url(#L)"/>
    <path id="path99" d="m-128.79297 66.058599c-1.33984-2.42969-3.21093-4.57032-3.45312-7.60547l0.13281-0.167972 0.21484 0.07812c-0.0391 2.832032 1.89063 5.175782 3.10547 7.695322z" fill="#26a269"/>
    <path id="path100" d="m-70.5039 36.058594c-6.40235-1.5-11.31641-1.058594-13.003911 3.582031 3.957031 5.457032 9.964841-0.617187 13.003911-3.582031z" fill="url(#M)"/>
    <path id="path101" d="m-73.79297 36.964844c-3.10156 1.195313-5.94922 3.0625-9.589841 2.855469l-0.179688-0.1875 0.132813-0.238282c3.351566 0.507813 6.445316-1.402343 9.636716-2.429687z" fill="#26a269"/>
    <path id="path102" d="m-80.27344 60.851559c-3.08984-8.554684-7.30859-13.914059-13.96484-12.374996-3.339844 8.703125 8.234375 11.089846 13.96484 12.374996z" fill="url(#N)"/>
    <path id="path103" d="m-83.804686 57.722657c-3.726563-2.695313-8.039063-4.585938-10.546875-8.960938l0.08203-0.355469 0.375-0.02344c1.941406 4.269531 6.492188 6.417968 10.089844 9.339844z" fill="#26a269"/>
    <path id="path104" d="m-68.32031 52.507813c-5.08594-7.90625-10.57031-12.335938-16.921876-9.25-1.359375 9.539062 10.851566 9.277344 16.921876 9.25z" fill="url(#O)"/>
    <path id="path105" d="m-72.60156 50.171875c-4.375-1.859375-9.15625-2.769531-12.687501-6.601562v-0.375l0.371093-0.113282c2.941408 3.855469 8.019528 4.972657 12.316408 7.089844z" fill="#26a269"/>
    <path id="path106" d="m-86.30078 47.109375c-3.660156-4.667968-7.363281-7.128906-11.171875-4.820312-0.296875 6.070312 7.359375 5.191406 11.171875 4.820312z" fill="url(#P)"/>
    <path id="path107" d="m-89.128905 45.890625c-2.855469-0.910156-5.910156-1.203125-8.355469-3.402344l-0.01953-0.238281 0.226563-0.08984c2.070312 2.25 5.328124 2.652343 8.148437 3.730468z" fill="#26a269"/>
    <path id="path108" d="m-108.07031 53.835938c-3.00391-5.9375-6.54297-9.457031-11.23828-7.746094-1.65235 6.613281 6.96484 7.320313 11.23828 7.746094z" fill="url(#Q)"/>
    <path id="path109" d="m-110.91406 51.878907c-2.94141-1.628907-6.24219-2.617188-8.44922-5.574219l0.0273-0.261719 0.26953-0.05469c1.78906 2.929688 5.28125 4.085938 8.15235 5.890626z" fill="#26a269"/>
    <path id="path110" d="m-62.48047 25.253907c-10.1289-1.980469-17.80859-1-20.187498 6.375 6.519528 8.332031 15.593748-1.546876 20.187498-6.375z" fill="url(#R)"/>
    <path id="path111" d="m-67.58594 26.867188c-4.79687 2.054687-9.15234 5.152343-14.874996 5.039062l-0.296875-0.289062 0.195312-0.378907c5.285159 0.601563 10.031249-2.574218 14.976559-4.371093z" fill="#26a269"/>
    <path id="path112" d="m-144.26172 71.167969c2.95313-5.24609 3.82422-9.67578 0.17578-12.34766-5.80468 2.08204-2.00781 8.91797-0.17578 12.34766z" fill="url(#S)"/>
    <path id="path113" d="m-144.21875 68.042969c-0.2539-3.03125-1.17187-6.01172-0.0547-9.15625l0.21094-0.10937 0.17578 0.17578c-1.30468 2.8164-0.41797 6.02343-0.33203 9.08984z" fill="#26a269"/>
    <path id="path114" d="m-121.28516 62.515629c-0.82031-9.609379-3.67187-16.25391-10.90624-16.500004-5.8086 7.996094 5.39062 13.613284 10.90624 16.500004z" fill="url(#T)"/>
    <path id="path115" d="m-124.04297 58.34375c-3.07812-3.785156-6.97656-6.898437-8.34375-12.070312l0.1836-0.335938 0.39062 0.07422c0.81641 4.902344 4.88672 8.351562 7.76953 12.33203z" fill="#26a269"/>
    <path id="path116" d="m-169.96484 69.761719c9.17578-1.71484 15.30078-5.09766 14.83984-12.09375-8.25781-4.824219-12.58984 6.50391-14.83984 12.09375z" fill="url(#U)"/>
    <path id="path117" d="m-166.21094 66.699219c3.34766-3.32422 5.97266-7.37891 10.82032-9.191406l0.34375 0.140625-0.0352 0.382812c-4.64453 1.261719-7.57422 5.511719-11.12891 8.667969z" fill="#26a269"/>
    <path id="path118" d="m-81.65625 35.34375c-6.226561-0.800781-10.847655 0.09766-11.999999 4.667969 4.289063 4.796875 9.40625-1.558594 11.999999-4.667969z" fill="url(#V)"/>
    <path id="path119" d="m-84.691405 36.523438c-2.828125 1.4375-5.347656 3.488281-8.828125 3.648437l-0.191406-0.164062 0.101562-0.238282c3.234375 0.15625 5.988282-1.960937 8.917969-3.246093z" fill="#26a269"/>
    <path id="path120" d="m-121.72656 52.40625c1.58203-6.417969 1.19922-11.359375-3.44531-13.113281-5.53125 3.910156 0.5 10.023438 3.44531 13.113281z" fill="url(#W)"/>
    <path id="path121" d="m-122.60156 49.089844c-1.16016-3.132813-3.00391-6.015625-2.75391-9.671875l0.19531-0.179688 0.23438 0.136719c-0.55078 3.363281 1.33203 6.496094 2.32422 9.714844z" fill="#26a269"/>
    <path id="path122" d="m-82.04297 14.652344c-4.175779-0.765625-7.328122-0.324219-8.269529 2.71875 2.722657 3.394531 6.40625-0.710937 8.269529-2.71875z" fill="url(#X)"/>
    <path id="path123" d="m-84.132811 15.34375c-1.964844 0.867188-3.738281 2.160157-6.09375 2.140625l-0.121094-0.117187 0.07422-0.15625c2.179687 0.222656 4.113281-1.105469 6.140624-1.867188z" fill="#26a269"/>
    <path id="path124" d="m-86.472655 65.367189c-8.597656-8.187501-16.652345-11.988282-23.523435-6.30469 1.17187 12.11328 16.082029 8.14844 23.523435 6.30469z" fill="url(#Y)"/>
    <path id="path125" d="m-92.421874 63.773439c-5.925781-0.97656-12.062496-0.66406-17.542966-4.31641l-0.10938-0.45703 0.42188-0.25c4.75781 3.85156 11.324216 3.70703 17.230466 5.02344z" fill="#26a269"/>
    <path id="path126" d="m-103.24219 77.976559c-2.96093-10.92578-7.64453-18.00781-16.05859-16.77734-5.03516 10.45703 9.08203 14.60156 16.05859 16.77734z" fill="url(#Z)"/>
    <path id="path127" d="m-107.30469 73.738279c-4.34765-3.73047-9.5039-6.51172-12.16406-12.19922l0.13672-0.42968 0.46875 8e-3c1.96875 5.49219 7.39453 8.625 11.55859 12.62109z" fill="#26a269"/>
    <path id="path128" d="m-107.02734 27.382813c-7.32032-0.871094-12.73828 0.234375-14.03907 5.613281 5.08594 5.585937 11.02344-1.929687 14.03907-5.613281z" fill="url(#aa)"/>
    <path id="path129" d="m-110.57812 28.804688c-3.3086 1.714843-6.24219 4.152343-10.32422 4.375l-0.22657-0.1875 0.11719-0.28125c3.79688 0.148437 7.00781-2.367188 10.4336-3.90625z" fill="#26a269"/>
    <path id="path130" d="m-62.79687 65.187499c-5.08594-7.906249-10.57422-12.339842-16.92188-9.249999-1.36328 9.535159 10.85156 9.273439 16.92188 9.249999z" fill="url(#ab)"/>
    <path id="path131" d="m-67.07812 62.847659c-4.375-1.85938-9.15625-2.76563-12.69141-6.601565l4e-3 -0.375 0.37109-0.113281c2.9375 3.855466 8.01953 4.972656 12.31641 7.089846z" fill="#238d5d"/>
  </g>
</svg>
