<svg id="svg290" version="1.1" viewBox="0 0 64 64" xmlns="http://www.w3.org/2000/svg">
  <defs id="defs278">
    <style id="style266" type="text/css"/>
    <style id="style268" type="text/css"/>
    <filter id="filter1057" x="-.026999999" y="-.026999999" width="1.054" height="1.054" color-interpolation-filters="sRGB">
      <feGaussianBlur id="feGaussianBlur270" stdDeviation="0.61875"/>
    </filter>
    <linearGradient id="linearGradient1053" x1="-127" x2="-72" y1="60" y2="5" gradientTransform="translate(131.5 -.51)" gradientUnits="userSpaceOnUse">
      <stop id="stop273" stop-color="#ff7f95" offset="0"/>
      <stop id="stop275" stop-color="#f8d069" offset="1"/>
    </linearGradient>
  </defs>
  <rect id="rect280" x="4.5" y="4.5" width="55" height="55" ry="15" fill="#141414" filter="url(#filter1057)" opacity=".3" stroke-linecap="round" stroke-width="2.7444"/>
  <rect id="rect282" x="4.5" y="4.5" width="55" height="55" ry="15" fill="url(#linearGradient1053)" stroke-linecap="round" stroke-width="2.744"/>
  <circle id="circle284" cx="-1326.3" cy="-1241.6" r="0" fill="#5e4aa6"/>
  <circle id="circle286" cx="-226.72" cy="23.855" r="0" fill="#5e4aa6" fill-rule="evenodd"/>
  <style id="style2" type="text/css">.st0{enable-background:new    ;}
	.st1{fill:#E2574C;}
	.st2{fill:#328E8B;}
	.st3{fill:#F9E9C7;}
	.st4{fill:#F9D780;}
	.st5{fill:#52CBCE;}
	.st6{fill:#3EADAD;}
	.st7{fill:#EE9A94;}
	.st8{fill:#687492;}
	.st9{fill:#FFA5B5;}
	.st10{fill:#FFD0A1;}
	.st11{fill:#7EE1E6;}
	.st12{fill:#C49AE9;}</style>
  <g id="g471" transform="matrix(.70678146 0 0 .70678146 9.3878248 8.8080768)" stroke-width="2.08102">
    <path id="path984" d="m31.992188 3c-2.530287 0-4.572266 2.041978-4.572266 4.5722656 0 1.6919396 1.208235 3.1702694 2.580078 3.9628904v3.191406c-6.066401 0.655841-11.248189 4.266059-14.076172 9.367188-4.997829-3.392182-12.9375-1.978516-12.9375-1.978516s-1.8908698 9.540729 2.8496094 14.357422c2.4220505 2.46099 6.0955645 3.206634 9.1191405 3.355469 2.712718 6.754149 9.309376 11.521484 17.039063 11.521484 7.718036 0 14.318854-4.767395 17.035156-11.521484 3.023963-0.148594 6.698493-0.893919 9.121094-3.355469 4.740479-4.816693 2.849609-14.357422 2.849609-14.357422s-7.93967-1.413666-12.9375 1.978516c-2.826142-5.097751-8.001253-8.705962-14.0625-9.365234v-3.19336c1.371842-0.792621 2.566406-2.2709508 2.566406-3.9628904 0-2.5302876-2.04393-4.5722656-4.574218-4.5722656z" fill="#f6e1b1" stroke="#ffffff"/>
    <path id="path78" class="st3" d="m36.565958 7.5728089c0-2.5302876-2.042521-4.5728089-4.572809-4.5728089-2.530287 0-4.572809 2.0425213-4.572809 4.5728089 0 1.6919396 1.207817 3.1704811 2.57966 3.9631021v3.658247h4v-3.658247c1.371842-0.792621 2.565958-2.2711625 2.565958-3.9631021z" fill="#f6e1b1"/>
    <path id="path94" class="st6" d="m5.8366816 36.472963c4.7404784 4.816692 14.312892 3.094267 14.312892 3.094267s1.890094-9.541928-2.850385-14.35862c-4.740478-4.816693-14.312892-3.094268-14.312892-3.094268s-1.8900946 9.541928 2.8503846 14.358621z" fill="#3eadad"/>
    <path id="path96" class="st2" d="m58.149615 36.472963c-4.740476 4.816692-14.31289 3.094267-14.31289 3.094267s-1.890095-9.541928 2.850384-14.35862c4.740479-4.816693 14.312891-3.094268 14.312891-3.094268s1.890094 9.541928-2.850385 14.358621z"/>
    <path id="path98" d="m31.993521 14.6142c-10.136394 0-18.367271 8.217458-18.367271 18.369093 0 10.151637 8.215634 18.36727 18.367271 18.36727 10.136392 0 18.367269-8.215633 18.367269-18.36727 0-10.151635-8.230877-18.369093-18.367269-18.369093z" fill="#52cbce"/>
    <path id="rect979" d="m32 3v12.193359h2v-3.658203c1.371842-0.792621 2.566406-2.2709508 2.566406-3.9628904 0-2.527639-2.039788-4.5679958-4.566406-4.5722656z" fill="#f8d069" fill-rule="evenodd"/>
    <path id="path974" d="m32 14.613281v36.736328c10.133677-0.003197 18.361328-8.217526 18.361328-18.367187 0-10.14966-8.22765-18.365943-18.361328-18.369141z" fill="#3eadad"/>
    <path id="path102" class="st8" d="m29.295192 42.387129-4.222228-2.652229c-1.493784-0.945048-2.042521-2.911356-1.158444-4.450868 0.929804-1.600483 3.002811-2.103492 4.572809-1.127959l2.14922 1.3566c0.884076 0.56398 2.012037 0.56398 2.896113 0l2.14922-1.3566c1.52427-0.96029 3.536305-0.503009 4.511838 1.021261 0.96029 1.524269 0.503009 3.536305-1.021261 4.511837l-4.283197 2.697958c-1.722426 1.066988-3.886888 1.066988-5.59407 0z" fill="#4b556a"/>
    <path id="path104" class="st9" d="m36.870812 41.121986c-0.609708-1.569998-2.530287-2.697958-4.786207-2.697958-2.255919 0-4.176498 1.143202-4.786206 2.7132l1.996793 1.249901c1.707182 1.066988 3.871644 1.066988 5.563584 0z" fill="#ff7f95"/>
    <path id="path106" class="st8" d="m44 31.999999c-0.555556 0-1-0.370968-1-0.82258v-1.35484c0-0.451612 0.444444-0.82258 1-0.82258s1 0.370968 1 0.82258v1.35484c0 0.451612-0.444444 0.82258-1 0.82258z" fill="#4b556a"/>
    <path id="path108" class="st8" d="m20 31.999999c-0.555556 0-1-0.370968-1-0.82258v-1.35484c0-0.451612 0.444444-0.82258 1-0.82258s1 0.370968 1 0.82258v1.35484c0 0.451612-0.444444 0.82258-1 0.82258z" fill="#4b556a"/>
    <g id="g889" transform="rotate(-10.517741,42.864461,54)">
      <path id="path870" d="m18 44-6 5 6 5v-3h20v2h4v-2c0-2.216-1.784-4-4-4h-20zm28 8v3h-20v-2h-4v2c0 2.216 1.784 4 4 4h20v3l6-5z" fill="#ff6600" stroke="#ffffff" stroke-width="2.08102"/>
      <path id="path993" d="m22 52v3c0 2.216 1.784 4 4 4h20v3l6-5-6-5v3h-20v-3z" fill="#ff7f95"/>
      <path id="path868" d="m42 54v-3c0-2.216-1.784-4-4-4h-20v-3l-6 5 6 5v-3h20v3z" fill="#f8d069"/>
    </g>
  </g>
</svg>
