<svg id="svg290" version="1.1" viewBox="0 0 64 64" xmlns="http://www.w3.org/2000/svg">
    <defs id="defs278">
        <style id="style266" type="text/css"/>
        <style id="style268" type="text/css"/>
        <filter id="filter1057" x="-.026999999" y="-.026999999" width="1.054" height="1.054" color-interpolation-filters="sRGB">
            <feGaussianBlur id="feGaussianBlur270" stdDeviation="0.61875"/>
        </filter>
    </defs>
    <rect id="rect280" x="4.5" y="4.5" width="55" height="55" ry="15" fill="#141414" filter="url(#filter1057)" opacity=".3" stroke-linecap="round" stroke-width="2.7444"/>
    <rect id="rect282" x="4.5" y="4.5" width="55" height="55" ry="15" fill="#f66151" stroke-linecap="round" stroke-width="2.7444"/>
    <circle id="circle284" cx="-1326.3" cy="-1241.6" r="0" fill="#5e4aa6"/>
    <circle id="circle286" cx="-226.72" cy="23.855" r="0" fill="#5e4aa6" fill-rule="evenodd"/>
    <path id="path1523" d="m19.701172 5.3007812c-8.064731 1e-7 -14.603479 6.3018858-14.982422 14.269531 0.0901129 2.362485 0.7371226 4.741937 2.0058594 6.939454l12.5 21.65039c4.154991 7.196657 13.293578 9.645226 20.490235 5.490235l19.785156-11.423829v-22.726562c0-1.018432-0.10329-2.012221-0.294922-2.972656-1.667389-6.468374-7.500555-11.226563-14.503906-11.226563h-25z" opacity=".2"/>
    <path id="rect1103" transform="rotate(-30)" d="m14.637495 13.647114c-6.9842684-4.0323691-15.797922-1.844152-20.109923 4.866566-1.1032035 2.09103-1.7326014 4.475196-1.7326014 7.012672l1.222e-4 24.999789c0 8.309991 6.6899547 14.999799 14.999946 14.999799l23.078199 4.3e-5 10.905274-18.888488c4.154995-7.196664 1.706282-16.335385-5.490382-20.490381l-21.650635-12.5z" fill="#0bbaf4"/>
    <path id="path1521" d="m20 5c-8.072595 2e-7 -14.615139 6.314305-14.982422 14.292969 0.0517553 5.12265 2.7204055 10.074787 7.4960939 12.832031l21.65039 12.5c7.196657 4.154992 16.335243 1.706422 20.490235-5.490234l4.845703-8.394532v-11.240234c0-4.027157-1.579236-7.666268-4.144531-10.355469-2.689202-2.5652962-6.328316-4.1445312-10.355469-4.1445312h-25z" opacity=".2"/>
    <path id="rect1156" transform="rotate(-60)" d="m5.8528857 19.137495c-4.0363016-6.991079-12.775911-9.4999327-19.869285-5.828673-4.410472 2.606149-7.364818 7.393328-7.364818 12.907823l-1.23e-4 24.999788c0 8.309992 6.689808 14.999947 14.9998 14.999947l10.692044-3.68e-4 8.5520012-4.9375c7.196664-4.154996 9.645377-13.293718 5.490381-20.490382l-12.5-21.650635z" fill="#57e389"/>
    <g id="g1174" transform="translate(-91.653598,24.044151)" stroke-dasharray="2.32154, 2.32154" stroke-linecap="square" stroke-width=".580385">
        <circle id="circle24583" cx="104.85537" cy="-8.6388254" r="3.9643042" fill="#deddda"/>
        <circle id="path24321" cx="104.85537" cy="-9.258049" r="3.9643042" fill="#f6f5f4"/>
    </g>
</svg>
