<svg id="svg290" version="1.1" viewBox="0 0 64 64" xmlns="http://www.w3.org/2000/svg">
  <defs id="defs278">
    <style id="style266" type="text/css"/>
    <style id="style268" type="text/css"/>
    <filter id="filter1057" x="-.026999999" y="-.026999999" width="1.054" height="1.054" color-interpolation-filters="sRGB">
      <feGaussianBlur id="feGaussianBlur270" stdDeviation="0.61875"/>
    </filter>
    <linearGradient id="linearGradient1053" x1="-127" x2="-72" y1="60" y2="5" gradientTransform="translate(131.5 -.51)" gradientUnits="userSpaceOnUse">
      <stop id="stop273" stop-color="#d8ac74" offset="0"/>
      <stop id="stop275" stop-color="#e2c39c" stop-opacity=".99607843" offset="1"/>
    </linearGradient>
    <filter id="filter8461" x="-.011312041" y="-.012777057" width="1.0226241" height="1.0255541" color-interpolation-filters="sRGB">
      <feGaussianBlur id="feGaussianBlur8463" stdDeviation="2.3340513"/>
    </filter>
    <filter id="filter15815" x="-.043073686" y="-.036798562" width="1.0861474" height="1.0735971" color-interpolation-filters="sRGB">
      <feFlood id="feFlood15805" flood-color="rgb(0,0,0)" flood-opacity=".501961" result="flood"/>
      <feComposite id="feComposite15807" in="flood" in2="SourceGraphic" operator="in" result="composite1"/>
      <feGaussianBlur id="feGaussianBlur15809" in="composite1" result="blur" stdDeviation="0.6"/>
      <feOffset id="feOffset15811" dx="0" dy="0" result="offset"/>
      <feComposite id="feComposite15813" in="offset" in2="SourceGraphic" operator="out" result="composite2"/>
    </filter>
  </defs>
  <rect id="rect280" x="4.5" y="4.5" width="55" height="55" ry="15" fill="#141414" filter="url(#filter1057)" opacity=".3" stroke-linecap="round" stroke-width="2.7444"/>
  <rect id="rect282" x="4.5" y="4.5" width="55" height="55" ry="15" fill="url(#linearGradient1053)" stroke-linecap="round" stroke-width="2.7444"/>
  <path id="polygon8426" transform="matrix(.03432956 0 0 .03432956 37.456298 24.934344)" d="m170.39588 28.400025-170.39569 98.425565 78.968023 45.23024-0.568934 0.34136 0.284467 0.17068-78.683556 45.45782 79.992104 46.19743v104.1718l168.00618 98.42556 168.00617-98.42556v-104.96831l79.1956-45.40092-79.30938-46.02675 79.30938-46.02675-169.59919-97.572165-77.4888 45.514711z" filter="url(#filter8461)" opacity=".2"/>
  <circle id="circle284" cx="-1326.3" cy="-1241.6" r="0" fill="#5e4aa6"/>
  <circle id="circle286" cx="-226.72" cy="23.855" r="0" fill="#5e4aa6" fill-rule="evenodd"/>
  <g id="g8402" opacity=".3" stroke-width=".0336426">
    <g id="g8339">
      <path id="polygon1641" d="m32.255858 11.009766-7.378906 4.160156v8.320313l7.378906-4.160157 7.376953 4.160157v-8.320313z" fill="#695030"/>
      <path id="polygon1643" d="m24.876952 15.169922v8.320313l7.376953 4.160156v-8.320313z" fill="#b38b5a"/>
      <path id="polygon1645" d="m37.511717 12.033203-7.378906 4.160156 2.123047 3.136719 7.376953-4.160156z" fill="#ab824f"/>
      <path id="polygon1647" d="m32.255858 11.007813-7.378906 4.162109 3.388672 0.06836 7.378906-4.160156z" fill="#b38b5a"/>
      <path id="polygon1649" d="m39.632811 15.169922-7.378906 4.160156v8.320313l7.378906-4.160156z" fill="#ab824f"/>
    </g>
    <g id="g8298">
      <path id="polygon2123" d="m59.48828 38.152344-7.376953 4.160156v8.320312l7.232422-4.078124c0.09161-0.672907 0.15625-1.355852 0.15625-2.054688v-6.341797z" fill="#695030"/>
      <path id="polygon2125" d="m52.111327 42.3125v8.320312l4.589844 2.589844c1.407381-1.969439 2.34804-4.291629 2.666015-6.818359z" fill="#b38b5a"/>
      <path id="polygon2127" d="m59.499999 42.132812-2.132813 1.203126 2.013672 2.976562c0.07112-0.594754 0.119141-1.197978 0.119141-1.8125z" fill="#ab824f"/>
      <path id="polygon2129" d="m59.48828 38.150391-7.376953 4.162109 3.388672 0.06836 4-2.255859v-1.974609z" fill="#b38b5a"/>
    </g>
    <g id="g8268">
      <path id="polygon2169" d="m19.499999 4.5c-3.103967 0-5.981429 0.9345631-8.369141 2.5371093v2.6914065l7.378906-4.1601566 7.378907 4.1601566v-5.2285158z" fill="#695030"/>
      <path id="polygon2171" d="m17.009764 4.7226563c-2.1492 0.3569327-4.145397 1.1509843-5.878906 2.314453v2.6914065l7.378906 4.1601562v-8.3203128z" fill="#b38b5a"/>
      <path id="polygon2173" d="m19.499999 4.5c-0.557494 0-1.107057 0.037015-1.648438 0.095703l0.658203 0.9726562 1.894532-1.0683592z" fill="#ab824f"/>
      <path id="polygon2177" d="m20.404296 4.5-1.894532 1.0683592v8.3203128l7.378907-4.1601562v-5.2285158z" fill="#ab824f"/>
    </g>
    <g id="g8325">
      <path id="polygon2215" d="m18.255858 25.009766-7.378906 4.160156v8.320313l7.378906-4.160157 7.376953 4.160157v-8.320313z" fill="#695030"/>
      <path id="polygon2217" d="m10.876952 29.169922v8.320313l7.376953 4.160156v-8.320313z" fill="#b38b5a"/>
      <path id="polygon2219" d="m23.511717 26.033203-7.378906 4.160156 2.123047 3.136719 7.376953-4.160156z" fill="#ab824f"/>
      <path id="polygon2221" d="m18.255858 25.007813-7.378906 4.162109 3.388672 0.06836 7.378906-4.160156z" fill="#b38b5a"/>
      <path id="polygon2223" d="m25.632811 29.169922-7.378906 4.160156v8.320313l7.378906-4.160156z" fill="#ab824f"/>
    </g>
    <g id="g8332">
      <path id="polygon2261" d="m31.917968 38.679687-7.378907 4.160157v8.322265l7.378907-4.160156 7.378906 4.160156v-8.322265z" fill="#695030"/>
      <path id="polygon2263" d="m24.539061 42.839844v8.322265l7.378907 4.160157v-8.322266z" fill="#b38b5a"/>
      <path id="polygon2265" d="m37.173827 39.705078-7.378906 4.160156 2.123047 3.134766 7.376953-4.160156z" fill="#ab824f"/>
      <path id="polygon2267" d="m31.917968 38.679687-7.378907 4.160157 3.388672 0.07031 7.378906-4.160154z" fill="#b38b5a"/>
      <path id="polygon2269" d="m39.294921 42.839844-7.376953 4.160156v8.322266l7.378906-4.160157v-8.322265z" fill="#ab824f"/>
    </g>
    <g id="g8305">
      <path id="polygon2307" d="m45.48828 52.152344-7.376953 4.160156v3.1875h6.388672c3.103975 0 5.979472-0.934555 8.367187-2.537109v-0.650391z" fill="#695030"/>
      <path id="polygon2309" d="m38.111327 56.3125v3.1875h5.652344z" fill="#b38b5a"/>
      <path id="polygon2311" d="m50.746092 53.175781-7.378906 4.160157 1.457031 2.15625c1.070806-0.02259 2.108134-0.164596 3.111329-0.398438l4.93164-2.78125z" fill="#ab824f"/>
      <path id="polygon2313" d="m45.48828 52.150391-7.376953 4.162109 3.388672 0.06836 7.378906-4.160156z" fill="#b38b5a"/>
      <path id="polygon2315" d="m52.867186 56.3125-4.93164 2.78125c1.788187-0.416822 3.455688-1.14025 4.93164-2.130859z" fill="#ab824f"/>
    </g>
    <g id="g8262">
      <path id="polygon2353" d="m6.3398425 12.28125c-1.1723012 2.139848-1.8398436 4.597335-1.8398436 7.21875v0.07422l0.00977-0.0059 7.3789071 4.160157v-8.320313z" fill="#695030"/>
      <path id="polygon2355" d="m4.4999989 19.5625v8.320312l0.00977 0.0059v-8.320313z" fill="#f2ca7f"/>
      <path id="polygon2357" d="m9.7656237 12.271484-4.5156248 2.546875c-0.4811882 1.47351-0.75 3.043355-0.75 4.681641v0.05469l0.00977 0.01367 7.3769541-4.160156z" fill="#ab824f"/>
      <path id="polygon2359" d="m6.9374989 11.296875c-0.181653 0.27829-0.354344 0.562708-0.5175783 0.853516l1.4785158-0.833985z" fill="#b38b5a"/>
      <path id="polygon2361" d="m11.886718 15.408203-7.3769537 4.160156v8.320313l7.3789067-4.160156v-8.320313z" fill="#ab824f"/>
    </g>
    <g id="g8318">
      <path id="polygon2421" d="m4.4999987 37.146484v7.353516c0 0.332077 0.014113 0.661702 0.035156 0.988281l7.0976563 4.001954v-8.320313z" fill="#695030"/>
      <path id="polygon2425" d="m9.5117175 38.033203-5.0117188 2.826172v3.640625c0 0.228946 0.00753 0.457213 0.017578 0.683594l7.1152343-4.013672z" fill="#ab824f"/>
      <path id="polygon2427" d="m4.4999987 37.013672v1.837891l3.1445314-1.773438z" fill="#b38b5a"/>
      <path id="polygon2429" d="m11.632811 41.169922-7.115234 4.011719c0.115075 2.599561 0.898293 5.012719 2.1640623 7.099609l4.9511717-2.791015z" fill="#ab824f"/>
    </g>
    <g id="g8312">
      <path id="polygon2467" d="m17.917968 50.679687-7.378907 4.160157v1.685547c1.95281 1.454934 4.269196 2.441694 6.798829 2.804687l0.580078-0.328125 0.851562 0.480469c0.241698 0.011466 0.485833 0.017578 0.730469 0.017578h5.796875v-4.660156z" fill="#695030"/>
      <path id="polygon2469" d="m10.539061 54.839844v1.685547c2.102537 1.566488 4.62204 2.606232 7.378907 2.892578v-0.417969z" fill="#b38b5a"/>
      <path id="polygon2471" d="m23.173827 51.705078-7.378906 4.160156 2.123047 3.134766 7.376953-4.160156z" fill="#ab824f"/>
      <path id="polygon2473" d="m17.917968 50.679687-7.378907 4.160157 3.388672 0.07031 7.378906-4.160154z" fill="#b38b5a"/>
      <path id="polygon2475" d="m25.294921 54.839844-7.376953 4.160156v0.417969c0.519554 0.053964 1.047735 0.082031 1.582031 0.082031h5.796875v-4.660156z" fill="#ab824f"/>
    </g>
    <g id="g8274">
      <path id="polygon2605" d="m38.876952 4.5v4.9902345l7.378906-4.1601565 7.376953 4.1601565v-1.8847659c-2.527882-1.9409062-5.685236-3.1054686-9.132812-3.1054686z" fill="#695030"/>
      <path id="polygon2607" d="m38.876952 4.5v4.9902345l7.376953 4.1601565v-8.320313l-1.458984-0.8222656c-0.098557-0.0018907-0.195897-0.0078124-0.294922-0.0078124z" fill="#b38b5a"/>
      <path id="polygon2609" d="m45.730468 4.5546876 0.52539 0.7753904 1.003906-0.5664062c-0.502157-0.0928241-1.010595-0.1671776-1.529296-0.2089842z" fill="#ab824f"/>
      <path id="polygon2613" d="m47.257811 4.7636718-1.003906 0.5664062v8.320313l7.378906-4.1601565v-1.8847659c-1.835513-1.409306-4.002315-2.4035186-6.375-2.8417968z" fill="#ab824f"/>
    </g>
    <g id="g8280">
      <path id="polygon2651" d="m57.509764 12.037109-4.970703 2.802735v8.322265l6.955078-3.919921c-0.04406-2.626597-0.765227-5.077597-1.984375-7.205079z" fill="#695030"/>
      <path id="polygon2653" d="m52.539061 14.839844v8.322265l6.960938 3.923829v-7.585938c0-0.250512-0.0075-0.498665-0.01953-0.746094z" fill="#b38b5a"/>
      <path id="polygon2655" d="m58.882811 15.251953-1.08789 0.613281 1.652343 2.441407c-0.08237-1.05412-0.277002-2.074127-0.564453-3.054688z" fill="#ab824f"/>
      <path id="polygon2657" d="m57.509764 12.037109-4.970703 2.802735 3.388672 0.07031 2.361328-1.332031c-0.227919-0.532573-0.493705-1.042639-0.779297-1.541014z" fill="#b38b5a"/>
    </g>
  </g>
  <g id="g8292">
    <polygon id="polygon1547" transform="matrix(.03432956 0 0 .03432956 37.255853 24.734024)" points="495.2 126 325.6 28.4 156.8 127.6 325.6 224.4" fill="#d5b790"/>
    <g id="g1553" transform="matrix(.03432956 0 0 .03432956 37.255853 24.734024)" fill="#d0b18b">
      <polygon id="polygon1549" points="338.4 126.8 170.4 28.4 0 126.8 170.4 224.4"/>
      <polygon id="polygon1551" points="248 466.8 80 368.4 80 172.4 248 74 416 172.4 416 368.4"/>
    </g>
    <polyline id="polyline1555" transform="matrix(.03432956 0 0 .03432956 37.255853 24.734024)" points="248 74 416 172.4 416 368.4 248 466.8" fill="#d5b790"/>
    <polygon id="polygon1557" transform="matrix(.03432956 0 0 .03432956 37.255853 24.734024)" points="495.2 218 325.6 119.6 156 218 326.4 314.8" fill="#d5b790"/>
    <polygon id="polygon1559" transform="matrix(.03432956 0 0 .03432956 37.255853 24.734024)" points="339.2 217.2 170.4 119.6 0 218 170.4 316.4" fill="#d0b18b"/>
    <polygon id="polygon1561" transform="matrix(.03432956 0 0 .03432956 37.255853 24.734024)" points="416 172.4 248.8 74 78.4 172.4 248.8 270.8" fill="#aa8b64"/>
    <polyline id="polyline1563" transform="matrix(.03432956 0 0 .03432956 37.255853 24.734024)" points="248.8 270.8 416 172.4 248.8 74" fill="#af916a"/>
    <polygon id="polygon1565" transform="matrix(.03432956 0 0 .03432956 37.255853 24.734024)" points="284.8 249.2 248.8 228.4 212.8 249.2 248.8 270.8" fill="#886f49"/>
  </g>
  <g id="g16191" stroke-width=".0879765">
    <g fill="#f2f2f2">
      <path id="path6538" d="m34.850439 31.964809 13.865103-13.865102c-3.519061-3.519062-8.445748-5.70088-13.865103-5.70088-10.768328 0-19.565982 8.727273-19.565982 19.565982 0 10.83871 8.797654 19.565983 19.565982 19.565983 5.419356 0 10.275661-2.181818 13.865103-5.70088z" opacity=".9"/>
      <path id="path6540" d="m15.284457 31.964809c0 10.83871 8.797654 19.565983 19.565982 19.565983 5.419356 0 10.275661-2.181818 13.865103-5.70088l-13.865103-13.865103 13.865103-13.865102" opacity=".7"/>
      <path id="path6542" d="m34.850439 31.964809-13.865102 13.865103c0.492668 0.492669 0.914956 0.914956 1.407624 1.337244 0.211144 0.140762 0.422288 0.281525 0.633432 0.492668 0.281524 0.211144 0.633431 0.492669 0.914956 0.703813 0.281524 0.140762 0.563049 0.351906 0.774193 0.492668 0.281525 0.140763 0.56305 0.351906 0.844575 0.492669 0.281525 0.140762 0.56305 0.281525 0.844575 0.422287 0.281525 0.140763 0.56305 0.281525 0.914956 0.422288 0.281525 0.140762 0.56305 0.211143 0.844574 0.281524 0.351907 0.140763 0.633432 0.211144 0.985338 0.351907 0.281525 0.07038 0.56305 0.140762 0.844574 0.211143 0.351907 0.07038 0.633432 0.211144 0.985338 0.211144 0.351906 0.07038 0.633431 0.07038 0.985337 0.140763 0.281525 0.07038 0.633432 0.07038 0.914956 0.140762 0.633431 0.07038 1.196481 0.07038 1.829912 0.07038h0.211145c0.633431 0 1.19648 0 1.829911-0.07038 0.281525 0 0.633431-0.07038 0.914956-0.140762 0.351906-0.07038 0.703812-0.07038 0.985337-0.140763 0.351906-0.07038 0.633431-0.140762 0.985337-0.211144 0.281525-0.07038 0.56305-0.140762 0.844575-0.211143 0.351906-0.07038 0.633431-0.211144 0.914956-0.351907 0.281525-0.07038 0.56305-0.211143 0.844575-0.351906 0.281525-0.140762 0.56305-0.281525 0.844575-0.422287 0.281525-0.140763 0.563049-0.281525 0.914956-0.422287 0.281525-0.140763 0.492668-0.281525 0.774193-0.492669 0.281525-0.140763 0.56305-0.351906 0.844575-0.492669 0.281525-0.211143 0.56305-0.422287 0.844575-0.633431 0.211143-0.140762 0.492668-0.351906 0.703812-0.492668 0.492669-0.422288 0.985337-0.844575 1.407625-1.266863z" opacity=".6"/>
    </g>
    <path id="path6544" d="m34.428153 18.521994c-0.422288 0-0.844575 0.140763-1.1261 0.422288 0.351906 0.07038 0.633431 0.351906 0.633431 0.703812s-0.281525 0.703812-0.703812 0.703812c-0.140762 0-0.281525-0.07038-0.422288-0.140762 0.07038 0.844575 0.703812 1.478006 1.618769 1.478006 0.914955 0 1.618767-0.703813 1.618767-1.618769-0.07038-0.774193-0.774192-1.548387-1.618767-1.548387z" fill="#2b2e2e"/>
    <path id="path6546" d="m33.231671 20.351906c-0.140761 0-0.281524-0.07038-0.422287-0.140762 0.07038 0.844575 0.703812 1.478006 1.618768 1.478006s1.618768-0.703813 1.618768-1.618769" fill="#121515"/>
  </g>
  <path id="path15032" d="m34.850438 32 13.865103-13.865102c-3.519061-3.519062-8.445748-5.70088-13.865103-5.70088-10.768328 0-19.565982 8.727273-19.565982 19.565982 0 10.83871 8.797654 19.565983 19.565982 19.565983 5.419356 0 10.275661-2.181818 13.865103-5.70088z" fill="#f2f2f2" filter="url(#filter15815)" opacity=".9" stroke-width=".0879765"/>
</svg>
