<svg id="svg25" version="1.1" viewBox="0 0 64 64" xmlns="http://www.w3.org/2000/svg">
    <defs id="defs15">
        <filter id="filter1057" x="-.026999999" y="-.026999999" width="1.054" height="1.054" color-interpolation-filters="sRGB">
            <feGaussianBlur id="feGaussianBlur7" stdDeviation="0.61875"/>
        </filter>
    </defs>
    <g>
        <g id="g21" transform="translate(-72.443 -8.1007)" fill="#006982" stroke-linecap="round" stroke-width="0">
            <rect id="rect17" x="76.943" y="12.601" width="55" height="55" ry="15" filter="url(#filter1057)" opacity=".3"/>
            <rect id="rect19" x="76.943" y="12.601" width="55" height="55" ry="15"/>
        </g>
        <path id="path202" d="m40.770758 47.763947v-9.044198h9.973975v9.044198zm-12.087105 0v-22.39918h-0.714238c-1.554418 0.02282-2.873857 0.39896-3.814622 1.086994-0.915409 0.670285-1.400583 1.594146-1.402274 2.670997 0 1.695576 0.676202 2.735236 1.250973 3.308318 0.727762 0.72945 1.505394 0.965277 1.768268 0.965277h0.714238v7.691795h-1.352404v-0.02958c-3.936339-0.09805-5.937896-1.183352-8.21585-3.135885-2.430945-2.102142-3.662477-4.986988-3.662477-8.573392 0-4.036079 1.19265-7.161821 3.646417-9.556421 2.929644-3.38777 8.785551-3.55682 9.930867-3.55682h11.909602v12.509728l10.481126-0.154682v6.325021h-10.396601l-0.05071 12.847833zm12.087105-22.39918v-9.044197h9.973975v9.044197z" fill="#f4fbfc"/>
        <path id="path204" d="m26.83424 16.489624h11.656028v12.509731l10.481127-0.153836v5.817025h-10.396603l-0.04987 12.847832h-9.586005v-22.39918h-0.967814c-3.281268 0.04818-5.466245 1.644015-5.470471 4.010721-0.0059 3.360722 2.545054 4.528015 3.272816 4.528015h0.460663v7.184643h-0.845251v-0.02451c-3.972684-0.05579-5.983539-1.091221-8.3046-3.080099-2.371777-2.053117-3.573726-4.877104-3.573726-8.382365 0-3.965923 1.169829-7.036724 3.57795-9.382298 2.541676-2.945704 7.55909-3.475677 9.745756-3.475677m23.658606 0.08452v8.537047h-9.466823v-8.537047zm0 22.399181v8.537046h-9.466823v-8.537043zm-23.658606-22.990854c-1.163912 0-7.10857 0.174967-10.11513 3.634584-2.500255 2.443624-3.719109 5.626843-3.719109 9.730542 0 3.664168 1.261116 6.612407 3.748693 8.764419 1.356629 1.161376 2.455455 1.864626 3.676846 2.352337 1.267878 0.507151 2.692973 0.775096 4.452788 0.83849v0.03719h1.859554v-8.198945h-0.964459c-0.186801 0-0.910336-0.211313-1.589074-0.890895-0.538426-0.539271-1.179127-1.521454-1.17659-3.127433 0-0.992326 0.451364-1.845185 1.299151-2.466446 0.895968-0.65676 2.164692-1.014302 3.66755-1.037969h0.45728v22.39918h10.59777v-0.507151l0.05241-12.34068h10.3966v-6.838935l-0.514758 0.0076-9.966367 0.146229v-12.502117zm24.16576 0.08452h-10.481128v9.551349h10.481128zm0 22.399181h-10.481128v9.551348h10.481128z" fill="#f4fbfc"/>
    </g>
</svg>
