<svg id="svg5" version="1.1" viewBox="0 0 64 64" xmlns="http://www.w3.org/2000/svg">
  <defs id="defs3">
    <style id="style1" type="text/css"/>
    <style id="style2" type="text/css"/>
    <filter id="filter1057" x="-.026999999" y="-.026999999" width="1.054" height="1.054" color-interpolation-filters="sRGB">
      <feGaussianBlur id="feGaussianBlur2" stdDeviation="0.61875"/>
    </filter>
    <filter id="filter20" x="-.019865423" y="-.042131252" width="1.0397308" height="1.0842625" color-interpolation-filters="sRGB">
      <feGaussianBlur id="feGaussianBlur20" stdDeviation="0.13166016"/>
    </filter>
  </defs>
  <path id="path20" d="m15.008203 55.75 7.953125 7.5 7.953125-7.5z" fill="#141414" filter="url(#filter20)" opacity=".3" stroke-width="1.13108"/>
  <rect id="rect3" x="4.5" y="4.5" width="55" height="55" ry="15" fill="#141414" filter="url(#filter1057)" opacity=".3" stroke-linecap="round" stroke-width="2.7444"/>
  <circle id="circle4" cx="-1326.3" cy="-1241.6" r="0" fill="#5e4aa6"/>
  <circle id="circle5" cx="-226.72" cy="23.855" r="0" fill="#5e4aa6" fill-rule="evenodd"/>
  <g stroke-width="1.1">
    <path id="path2" d="m19.5 4.5c-8.31 0-15 6.69-15 15v25c0 8.31 6.69 15 15 15h25c8.31 0 15-6.69 15-15v-25c0-8.31-6.69-15-15-15h-25z" fill="#e4e4e4"/>
    <path id="path3" d="m12.307422 14.39967c-0.653727 0-1.207422 0.553692-1.207422 1.207422v4.185156c0 0.65373 0.553695 1.207422 1.207422 1.207422h4.185156c0.653727 0 1.207422-0.553692 1.207422-1.207422v-4.185156c0-0.65373-0.553695-1.207422-1.207422-1.207422zm15.292578 0a3.30033 3.30033 0 1 0 0 6.6h22a3.30033 3.30033 0 1 0 0-6.6zm-15.292578 30.8c-0.653727 0-1.207422 0.553692-1.207422 1.207422v4.185156c0 0.653728 0.553695 1.207422 1.207422 1.207422h4.185156c0.653726 0 1.207422-0.553694 1.207422-1.207422v-4.185156c0-0.65373-0.553696-1.207422-1.207422-1.207422zm15.292578 0a3.30033 3.30033 0 1 0 0 6.6h22a3.30033 3.30033 0 1 0 0-6.6z" opacity=".1"/>
    <rect id="rect3-6" x="4.5" y="24.299999" width="55" height="15.4" fill="#00c7c5"/>
    <path id="path4" d="m12.307422 29.79967c-0.653727 0-1.207422 0.553692-1.207422 1.207422v4.185156c0 0.653733 0.553695 1.207422 1.207422 1.207422h4.185156c0.653726 0 1.207422-0.553689 1.207422-1.207422v-4.185156c0-0.65373-0.553696-1.207422-1.207422-1.207422zm15.292578 0a3.30033 3.30033 0 1 0 0 6.6h22a3.30033 3.30033 0 1 0 0-6.6z" opacity=".2"/>
    <path id="path5" d="m12.305273 28.700002c-0.653726 0-1.205273 0.554765-1.205273 1.208495v4.186229c0 0.653732 0.551547 1.205274 1.205273 1.205274h4.189453c0.653726 0 1.205274-0.551542 1.205274-1.205274v-4.186229c0-0.65373-0.551548-1.208495-1.205274-1.208495z" fill="#ffffff"/>
    <path id="path6" d="m12.305273 13.3c-0.653726 0-1.205273 0.554766-1.205273 1.208496v4.18623c0 0.65373 0.551547 1.205274 1.205273 1.205274h4.189453c0.653726 0 1.205273-0.551544 1.205273-1.205274v-4.18623c0-0.65373-0.551547-1.208496-1.205273-1.208496z" fill="#898989"/>
  </g>
  <path id="path7" d="m27.6 31.99967h22" fill="#ffffff" stroke="#ffffff" stroke-linecap="round" stroke-width="6.6"/>
  <path id="path8" d="m27.6 16.59967h22" fill="none" stroke="#898989" stroke-linecap="round" stroke-width="6.6"/>
  <path id="path9" d="m12.305273 44.1c-0.653726 0-1.205273 0.554765-1.205273 1.208495v4.186231c0 0.653727 0.551547 1.205274 1.205273 1.205274h4.189453c0.653726 0 1.205274-0.551547 1.205274-1.205274v-4.186231c0-0.65373-0.551548-1.208495-1.205274-1.208495z" fill="#898989" stroke-width="1.1"/>
  <path id="path10" d="m27.6 47.39967h22" fill="none" stroke="#898989" stroke-linecap="round" stroke-width="6.6"/>
  <path id="path11" d="m19.5 4.5c-1.998809 0-3.89982 0.3960638-5.640625 1.0996094h36.28125c-1.740805-0.7035456-3.641816-1.0996094-5.640625-1.0996094h-25z" fill="#ffffff" opacity=".2" stroke-width="1.1"/>
  <path id="rect2" d="m15.008203 55.75 7.953125 7.5 7.953125-7.5z" fill="#e4e4e4" stroke-width="1.13108"/>
</svg>
