<?xml version="1.0" encoding="UTF-8" standalone="no"?>
<svg
   width="64"
   height="64"
   version="1.1"
   viewBox="0 0 16.933 16.933"
   id="svg24"
   sodipodi:docname="parsec.svg"
   inkscape:version="1.2 (dc2aedaf03, 2022-05-15)"
   xml:space="preserve"
   xmlns:inkscape="http://www.inkscape.org/namespaces/inkscape"
   xmlns:sodipodi="http://sodipodi.sourceforge.net/DTD/sodipodi-0.dtd"
   xmlns:xlink="http://www.w3.org/1999/xlink"
   xmlns="http://www.w3.org/2000/svg"
   xmlns:svg="http://www.w3.org/2000/svg"
   xmlns:rdf="http://www.w3.org/1999/02/22-rdf-syntax-ns#"
   xmlns:cc="http://creativecommons.org/ns#"
   xmlns:dc="http://purl.org/dc/elements/1.1/"><sodipodi:namedview
     pagecolor="#ffffff"
     bordercolor="#666666"
     borderopacity="1"
     objecttolerance="10"
     gridtolerance="10"
     guidetolerance="10"
     inkscape:pageopacity="0"
     inkscape:pageshadow="2"
     inkscape:window-width="1920"
     inkscape:window-height="1015"
     id="namedview26"
     showgrid="false"
     inkscape:zoom="3.2460938"
     inkscape:cx="74.397111"
     inkscape:cy="53.140793"
     inkscape:window-x="0"
     inkscape:window-y="28"
     inkscape:window-maximized="1"
     inkscape:current-layer="svg24"
     inkscape:showpageshadow="2"
     inkscape:pagecheckerboard="0"
     inkscape:deskcolor="#d1d1d1" /><metadata
     id="metadata2"><rdf:RDF><cc:Work
         rdf:about=""><dc:format>image/svg+xml</dc:format><dc:type
           rdf:resource="http://purl.org/dc/dcmitype/StillImage" /></cc:Work></rdf:RDF></metadata><defs
     id="defs12"><filter
       id="filter2761-3"
       x="-.024"
       y="-.024"
       width="1.048"
       height="1.048"
       color-interpolation-filters="sRGB"><feGaussianBlur
         stdDeviation="0.14552168"
         id="feGaussianBlur4" /></filter><linearGradient
       id="linearGradient1024"
       x1="1.3315"
       x2="15.65"
       y1="15.576"
       y2="1.17"
       gradientTransform="translate(-.00084984 .14045)"
       gradientUnits="userSpaceOnUse"><stop
         stop-color="#dddfe1"
         offset="0"
         id="stop7" /><stop
         stop-color="#f3f4f6"
         stop-opacity=".99608"
         offset="1"
         id="stop9" /></linearGradient><filter
       color-interpolation-filters="sRGB"
       height="1.048"
       width="1.048"
       y="-.024"
       x="-.024"
       id="filter2761-3-3"><feGaussianBlur
         id="feGaussianBlur2"
         stdDeviation="0.14552168" /></filter><linearGradient
       gradientUnits="userSpaceOnUse"
       gradientTransform="matrix(3.7796 0 0 3.7796 -.0026448 .53066)"
       y2="1.17"
       y1="15.576"
       x2="15.65"
       x1="1.3315"
       id="linearGradient1024-6"><stop
         id="stop5"
         offset="0"
         stop-color="#dddfe1" /><stop
         id="stop7-7"
         offset="1"
         stop-opacity=".99608"
         stop-color="#f3f4f6" /></linearGradient><filter
       inkscape:collect="always"
       style="color-interpolation-filters:sRGB"
       id="filter1057"
       x="-0.026999999"
       width="1.054"
       y="-0.026999999"
       height="1.054"><feGaussianBlur
         inkscape:collect="always"
         stdDeviation="0.61875"
         id="feGaussianBlur1059" /></filter><linearGradient
       inkscape:collect="always"
       xlink:href="#linearGradient1051"
       id="linearGradient1053"
       x1="-127"
       y1="60"
       x2="-72"
       y2="5"
       gradientUnits="userSpaceOnUse"
       gradientTransform="matrix(0.26457812,0,0,0.26457812,34.792023,-0.13493401)" /><linearGradient
       inkscape:collect="always"
       id="linearGradient1051"><stop
         style="stop-color:#eef0f2;stop-opacity:1;"
         offset="0"
         id="stop1047" /><stop
         style="stop-color:#f1f3f5;stop-opacity:0.99607843"
         offset="1"
         id="stop1049" /></linearGradient></defs><rect
     ry="15"
     y="4.4999995"
     x="4.4999995"
     height="55"
     width="55"
     id="rect1055"
     style="opacity:0.3;fill:#141414;fill-opacity:1;stroke-width:2.74436;stroke-linecap:round;filter:url(#filter1057)"
     transform="scale(0.26457812)" /><rect
     style="fill:url(#linearGradient1053);fill-opacity:1;stroke-width:0.726098;stroke-linecap:round"
     id="rect1045"
     width="14.551796"
     height="14.551796"
     x="1.1906021"
     y="1.1906021"
     ry="3.9686716" /><g
     id="g2919"
     transform="matrix(0.2506466,0,0,0.2506466,-17.502921,0.19888036)"><path
       style="fill:#26abff;fill-opacity:1;stroke:none;stroke-width:0.264578"
       d="m 94.301159,8.899097 c -1.42208,0.355513 -2.24465,1.682267 -2.3812,3.086753 -0.39446,4.057411 0,8.355853 0,12.435172 v 11.112281 c 0,1.516826 -0.38253,3.644563 0.30868,5.026984 0.81623,1.632447 2.71315,2.361095 4.18915,3.263042 3.54349,2.165572 7.018201,4.441472 10.583121,6.570533 1.77109,1.057519 3.53212,2.143612 5.29157,3.218857 1.48269,0.90618 2.92782,2.078526 4.7624,1.543549 2.04942,-0.597682 2.3812,-2.410571 2.3812,-4.277434 V 39.766552 29.183428 c 0,-2.204201 0.17198,-4.451527 -1.14641,-6.349875 -1.04667,-1.507249 -2.88814,-2.333262 -4.40973,-3.263121 -3.00851,-1.838607 -5.96967,-3.748913 -8.99565,-5.556141 -2.13594,-1.275584 -4.21447,-2.6493 -6.349881,-3.924593 -1.36972,-0.818022 -2.55865,-1.609243 -4.23325,-1.190601 m 6.085301,12.346987 7.93734,4.674302 2.77807,1.940151 0.13229,3.968672 v 6.085297 4.762406 l -4.23325,-2.20473 -6.87903,-4.145145 0.26458,-10.847703 z"
       id="path2570" /><path
       style="fill:#f3044b;stroke:none;stroke-width:0.264578"
       d="m 90.332488,10.795196 c -1.42208,0.355513 -2.24465,1.682267 -2.3812,3.086753 -0.39446,4.057411 0,8.355853 0,12.435172 v 11.112281 c 0,1.516826 -0.38253,3.644563 0.30868,5.026984 0.81623,1.632447 2.71315,2.361095 4.18915,3.263042 3.54349,2.165572 7.0182,4.441472 10.583122,6.570533 1.77109,1.057519 3.53212,2.143612 5.29157,3.218857 1.48269,0.90618 2.92782,2.078526 4.7624,1.543549 2.04942,-0.597682 2.3812,-2.410571 2.3812,-4.277434 V 41.662651 31.079527 c 0,-2.204201 0.17198,-4.451527 -1.14641,-6.349875 -1.04667,-1.507249 -2.88814,-2.333262 -4.40973,-3.263121 -3.00851,-1.838607 -5.96967,-3.748913 -8.99565,-5.556141 -2.135942,-1.275584 -4.214472,-2.6493 -6.349882,-3.924593 -1.36972,-0.818022 -2.55865,-1.609243 -4.23325,-1.190601 m 6.0853,12.346987 7.937342,4.674302 2.77807,1.940151 0.13229,3.968672 v 6.085297 4.762406 l -4.23325,-2.20473 -6.879032,-4.145145 0.26458,-10.847703 z"
       id="path2568" /></g></svg>
