<svg id="svg290" version="1.1" viewBox="0 0 64 64" xmlns="http://www.w3.org/2000/svg">
    <defs id="defs278">
        <style id="style266" type="text/css"/>
        <style id="style268" type="text/css"/>
        <filter id="filter1057" x="-.026999999" y="-.026999999" width="1.054" height="1.054" color-interpolation-filters="sRGB">
            <feGaussianBlur id="feGaussianBlur270" stdDeviation="0.61875"/>
        </filter>
        <linearGradient id="linearGradient1053" x1="-127" x2="-72" y1="60" y2="5" gradientTransform="translate(131.5 -.51)" gradientUnits="userSpaceOnUse">
            <stop id="stop273" stop-color="#f12711" offset="0"/>
            <stop id="stop275" stop-color="#f5af19" offset="1"/>
        </linearGradient>
    </defs>
    <rect id="rect280" x="4.5" y="4.5" width="55" height="55" ry="15" fill="#141414" filter="url(#filter1057)" opacity=".3" stroke-linecap="round" stroke-width="2.7444"/>
    <rect id="rect282" x="4.5" y="4.5" width="55" height="55" ry="15" fill="url(#linearGradient1053)" stroke-linecap="round" stroke-width="2.7444"/>
    <circle id="circle284" cx="-1326.3" cy="-1241.6" r="0" fill="#5e4aa6"/>
    <circle id="circle286" cx="-226.72" cy="23.855" r="0" fill="#5e4aa6" fill-rule="evenodd"/>
    <g id="g1374" transform="matrix(1.0627807,0,0,1.0627807,-2.008665,-3.7390126)" stroke-width="1.01818">
        <path id="path434" d="m35.884766 14.714844c-0.219475 0.0132-0.441431 0.04842-0.66211 0.107422l-28.769531 7.68164c-1.7654281 0.471996-2.8117727 2.279804-2.3398438 4.039063l8.2226568 30.582031c2.243964 1.493987 4.93455 2.375 7.845703 2.375h20.328125l6.27539-1.675781c1.765426-0.471993 2.811771-2.279804 2.339844-4.039063l-9.849609-36.630859c-0.414444-1.539351-1.854306-2.531861-3.390625-2.439453z" opacity=".2"/>
        <path id="path436" d="m35.884766 13.697266c-0.219475 0.0132-0.441431 0.04842-0.66211 0.107422l-28.769531 7.68164c-1.7654281 0.471996-2.8117727 2.27785-2.3398438 4.03711l8.5566408 31.826171c2.174687 1.359925 4.7455 2.150391 7.511719 2.150391h16.513671l10.089844-2.693359c1.765426-0.471993 2.811771-2.279804 2.339844-4.039063l-9.849609-36.630859c-0.414444-1.539351-1.854306-2.531861-3.390625-2.439453z" fill="#3382e3"/>
        <path id="path438" d="m35.884766 13.697266c-0.219474 0.0132-0.441431 0.04843-0.66211 0.107422l-28.769531 7.679687c-1.6400532 0.438477-2.644066 2.031833-2.4023438 3.666016 0.207167-1.235635 1.1086327-2.300604 2.4023438-2.646485l28.769531-7.68164c1.765429-0.471997 3.579085 0.572773 4.052735 2.332031l9.851562 36.632812c0.03352 0.124937 0.04207 0.24812 0.06055 0.373047 0.07554-0.45054 0.06555-0.922509-0.06055-1.392578l-9.851562-36.632812c-0.414444-1.539352-1.854306-2.529908-3.390625-2.4375z" fill="#fff" opacity=".1"/>
        <path id="path440" d="m17.515625 16.746094c-1.840097 0-3.333984 1.485806-3.333984 3.318359v38.103516c1.820663 0.849834 3.849898 1.332031 6 1.332031h23.636718c2.560759 0 4.951112-0.682431 7.017579-1.861328v-37.574219c0-1.832553-1.491937-3.318359-3.332032-3.318359z" opacity=".2"/>
        <path id="path442" d="m23.507812 20.955078-16.61914 4.439453 0.5527343 2.054688 16.619141-4.439453zm14.404297 0.558594-29.921875 7.990234 2.4902346 9.244141 14.958984-3.994141-1.658203-6.164062 14.958984-3.994141zm-11.921875 15.294922-14.958984 3.99414 3.039062 11.300782 8.310547-2.21875-0.552734-2.054688 6.648437-1.773437z" opacity=".3"/>
        <path id="path444" d="m17.515625 15.728516c-1.840097 0-3.333984 1.483853-3.333984 3.316406v38.166016c0 0.359747 0.0596 0.704918 0.166015 1.029296 1.778386 0.802395 3.748381 1.259766 5.833985 1.259766h23.636718c2.546957 0 4.925521-0.674686 6.984375-1.841797 0.01999-0.146998 0.0332-0.294806 0.0332-0.447265v-38.166016c0-1.832553-1.491937-3.316406-3.332032-3.316406z" fill="#a145b8"/>
        <path id="path446" d="m17.515625 15.728516c-1.840098 0-3.333984 1.483853-3.333984 3.316406v1.017578c0-1.832552 1.493886-3.316406 3.333984-3.316406h29.990234c1.840096 0 3.330078 1.483853 3.330079 3.316406v-1.017578c0-1.832553-1.489983-3.316406-3.330079-3.316406z" fill="#fff" opacity=".1"/>
        <path id="path448" d="m17.236328 19.927734v2.09961h17.326172v-2.09961zm0 4.199219v10.5h15.59375v-7.496094h15.597656v-3.003906zm0 12.601563v10.738281h8.664063v-2.142578h6.929687v-8.595703zm0 12.878906v5.349609h27.72461v-2.138672h3.466796v-3.210937z" opacity=".3"/>
        <path id="path450" d="m28.425781 14.714844c-1.521759-0.09241-2.948945 0.900102-3.359375 2.439453l-9.753906 36.630859c-0.469062 1.759259 0.568082 3.56707 2.316406 4.039063l6.214844 1.675781h19.974609c2.95371 0 5.680835-0.90499 7.94336-2.439453l8.125-30.517578c0.469063-1.759259-0.570039-3.567067-2.31836-4.039063l-28.488281-7.68164c-0.21854-0.059-0.436903-0.09422-0.654297-0.107422zm22.69336 44.751953c-0.02121 0.01041-0.04123 0.02289-0.0625 0.0332h0.05469z" opacity=".2"/>
        <path id="path452" d="m28.425781 13.697266c-1.521759-0.09241-2.948945 0.900102-3.359375 2.439453l-9.753906 36.630859c-0.469062 1.759259 0.568082 3.56707 2.316406 4.039063l9.992188 2.693359h16.197265c2.81105 0 5.41723-0.819706 7.613282-2.220703l8.455078-31.755859c0.469063-1.75926-0.570039-3.565114-2.31836-4.03711l-28.488281-7.68164c-0.21854-0.059-0.436903-0.09422-0.654297-0.107422z" fill="#33cf78"/>
        <path id="path454" d="m27.511719 17.404297-0.548828 2.054687 16.460937 4.4375 0.546875-2.054687zm-1.095703 4.109375-2.460938 9.24414 14.814453 3.996094 1.640625-6.164062 14.816406 3.996094 0.81836-3.082032zm14.96289 9.478516-4.11914 15.466796 13.314453 3.591797 4.11914-15.470703zm-17.970703 1.824218-3.009765 11.298828 8.230468 2.220704 0.546875-2.058594 6.583985 1.779297 2.46289-9.248047zm17.861328 2.964844 1.97461 0.533203c0.967121 0.260886 1.718095 0.990252 2.009765 1.953125l1.148438 4.060547c0.146691 0.480579 0.663777 1.023857 1.146484 1.154297l0.582031 0.158203 0.279297-1.052734c0.03583-0.135601 0.147004-0.237936 0.285156-0.263672 0.136458-0.02403 0.275552 0.03539 0.357422 0.15039l1.623047 2.314453c0.06142 0.08753 0.08198 0.197804 0.05469 0.300782-0.0273 0.104703-0.100039 0.189745-0.197266 0.234375l-2.554687 1.191406c-0.07847 0.03603-0.16592 0.04379-0.246094 0.02148-0.04946-0.01371-0.09578-0.03989-0.136719-0.07422-0.107436-0.09097-0.153012-0.233781-0.117187-0.371094l0.279296-1.050781-0.583984-0.158204c-1.29462-0.348428-1.675371-0.931659-1.96875-1.894531l-1.33008-4.294916c-0.146687-0.480579-0.521199-0.848074-1.003906-0.978515l-1.97461-0.533203zm8.970703 0.933594c0.119308-0.0046 0.235005 0.05563 0.306641 0.15625l1.623047 2.310547c0.06142 0.08924 0.07808 0.199984 0.05078 0.304687-0.0273 0.102992-0.09612 0.189745-0.193359 0.234375l-2.554688 1.189453c-0.07847 0.03605-0.165934 0.04184-0.246094 0.01953-0.04946-0.01202-0.0997-0.03598-0.140624-0.07031-0.107437-0.09096-0.151039-0.235506-0.115235-0.371094l0.279298-1.052735-0.582031-0.15625c-0.482706-0.13044-0.910621-0.07375-1.277344 0.269531l-0.773437 0.720703-0.46875-1.542969 0.18164-0.167968c0.731738-0.68654 1.732815-0.995142 2.691406-0.705078l0.603516 0.18164 0.279297-1.050781c0.03584-0.137313 0.147003-0.241358 0.285156-0.263672 0.01704-0.0033 0.03372-0.0053 0.05078-0.0059zm-6.4375 4.21289 0.466797 1.542969-0.177734 0.169922c-0.731737 0.686547-1.828296 0.879965-2.798828 0.632813l-1.892578-0.486329 0.375-1.40039 1.855468 0.533203c0.481006 0.139024 1.109842 0.0035 1.476563-0.339844zm-23.951172 5.242188-1.367187 5.134766 26.337891 7.103515 0.546875-2.054687 3.291015 0.886718 0.820313-3.082031z" opacity=".3"/>
        <path id="path456" d="m28.425781 13.697266c-1.521758-0.09241-2.948945 0.898148-3.359375 2.4375l-9.753906 36.632812c-0.125339 0.470092-0.135119 0.942019-0.06055 1.392578 0.01841-0.124927 0.02724-0.24811 0.06055-0.373047l9.753906-36.632812c0.469063-1.759258 2.265352-2.804028 4.013672-2.332031l28.490234 7.68164c1.281153 0.345875 2.173909 1.410878 2.378907 2.646485 0.240541-1.634183-0.754746-3.227539-2.378907-3.666016l-28.490234-7.679687c-0.21854-0.059-0.436902-0.09422-0.654297-0.107422z" fill="#fff" opacity=".2"/>
    </g>
</svg>
