<svg id="svg290" version="1.1" viewBox="0 0 64 64" xmlns="http://www.w3.org/2000/svg">
  <defs id="defs278">
    <style id="style266" type="text/css"/>
    <style id="style268" type="text/css"/>
    <filter id="filter1057" x="-.026999999" y="-.026999999" width="1.054" height="1.054" color-interpolation-filters="sRGB">
      <feGaussianBlur id="feGaussianBlur270" stdDeviation="0.61875"/>
    </filter>
    <linearGradient id="linearGradient1053" x1="-127" x2="-72" y1="60" y2="5" gradientTransform="translate(131.5 -.51)" gradientUnits="userSpaceOnUse">
      <stop id="stop273" stop-color="#f21efa" offset="0"/>
      <stop id="stop275" stop-color="#1eedfa" stop-opacity=".99608004" offset="1"/>
    </linearGradient>
    <filter id="filter1919" x="-.027000063" y="-.026999935" width="1.0540001" height="1.0539999" color-interpolation-filters="sRGB">
      <feGaussianBlur id="feGaussianBlur1921" stdDeviation="4.8947541"/>
    </filter>
    <filter id="filter1951" x="-.039825011" y="-.020423075" width="1.07965" height="1.0408461" color-interpolation-filters="sRGB">
      <feGaussianBlur id="feGaussianBlur1953" stdDeviation="4.3569225"/>
    </filter>
  </defs>
  <rect id="rect280" x="4.5" y="4.5" width="55" height="55" ry="15" fill="#141414" filter="url(#filter1057)" opacity=".3" stroke-linecap="round" stroke-width="2.7444"/>
  <rect id="rect282" x="4.5" y="4.5" width="55" height="55" ry="15" fill="url(#linearGradient1053)" stroke-linecap="round" stroke-width="2.7444"/>
  <circle id="circle284" cx="-1326.3" cy="-1241.6" r="0" fill="#5e4aa6"/>
  <circle id="circle286" cx="-226.72" cy="23.855" r="0" fill="#5e4aa6" fill-rule="evenodd"/>
  <g id="g1997">
    <g id="g1917" transform="matrix(.08733819 0 0 .08733819 86.485783 31.999985)" filter="url(#filter1919)" opacity=".3">
      <g stroke-width="1.5625">
        <path id="path1905" d="m-786.15491 84.215625c21.56562-21.565625 56.52812-21.565625 78.09062 0 21.56563 21.565625 21.56563 56.528125 0 78.090625-21.56562 21.5625-133.325 55.23438-133.325 55.23438s33.67188-111.76094 55.23438-133.325z"/>
        <path id="path1907" d="m-708.5346 83.790625-132.46406 132.46406c-0.25625 0.84062-0.39375 1.29062-0.39375 1.29062s111.7625-33.67031 133.325-55.23437c21.5625-21.56563 21.56562-56.52813 0-78.090628-0.14531-0.15625-0.31563-0.279687-0.46719-0.429687z"/>
        <path id="path1909" d="m-692.90804 111.65469 257.21407-227.6875c30.62968-27.11094 38.73906-68.52031 17.56718-89.69219-21.16875-21.16875-62.58125-13.05781-89.69219 17.56719l-227.68281 257.21562z"/>
        <path id="path1911" d="m-418.12522-205.72187c-0.15157-0.15157-0.3125-0.28594-0.46407-0.43126l-296.06406 296.0625 21.74531 21.745315 257.21406-227.6875c30.62657-27.11094 38.73907-68.51875 17.56876-89.68906z"/>
      </g>
      <polygon id="polygon1913" transform="matrix(1.5625,0,0,1.5625,-1023.8471,-400)" points="271.257 274.828 237.17 240.743 184.541 300.201 211.801 327.459"/>
      <polygon id="polygon1915" transform="matrix(1.5625,0,0,1.5625,-1023.8471,-400)" points="253.926 257.5 197.884 313.542 211.801 327.459 271.257 274.828"/>
    </g>
    <g id="g525" transform="matrix(.08733819 0 0 .08733819 86.485783 31.999985)">
      <g stroke-width="1.5625">
        <path id="path438" d="m-786.15491 84.215625c21.56562-21.565625 56.52812-21.565625 78.09062 0 21.56563 21.565625 21.56563 56.528125 0 78.090625-21.56562 21.5625-133.325 55.23438-133.325 55.23438s33.67188-111.76094 55.23438-133.325z" fill="#222"/>
        <path id="path440" d="m-708.5346 83.790625-132.46406 132.46406c-0.25625 0.84062-0.39375 1.29062-0.39375 1.29062s111.7625-33.67031 133.325-55.23437c21.5625-21.56563 21.56562-56.52813 0-78.090628-0.14531-0.15625-0.31563-0.279687-0.46719-0.429687z" fill="#333"/>
        <path id="path442" d="m-692.90804 111.65469 257.21407-227.6875c30.62968-27.11094 38.73906-68.52031 17.56718-89.69219-21.16875-21.16875-62.58125-13.05781-89.69219 17.56719l-227.68281 257.21562z" fill="#e8ad4a"/>
        <path id="path444" d="m-418.12522-205.72187c-0.15157-0.15157-0.3125-0.28594-0.46407-0.43126l-296.06406 296.0625 21.74531 21.745315 257.21406-227.6875c30.62657-27.11094 38.73907-68.51875 17.56876-89.68906z" fill="#db961f"/>
      </g>
      <polygon id="polygon446" transform="matrix(1.5625,0,0,1.5625,-1023.8471,-400)" points="271.257 274.828 237.17 240.743 184.541 300.201 211.801 327.459" fill="#b2b2b2"/>
      <polygon id="polygon448" transform="matrix(1.5625,0,0,1.5625,-1023.8471,-400)" points="253.926 257.5 197.884 313.542 211.801 327.459 271.257 274.828" fill="#a6a6a6"/>
    </g>
    <g id="g1949" transform="matrix(.06184866 0 0 .06184866 25.761111 19.333077)" filter="url(#filter1951)" opacity=".3">
      <polygon id="polygon1923" points="229.744 0 218.883 119.464 293.117 119.464 282.256 0"/>
      <polygon id="polygon1925" points="387.282 512 124.718 512 124.718 459.487 256 446.359 387.282 459.487"/>
      <polygon id="polygon1927" points="256 512 124.718 512 124.718 459.487 256 446.359"/>
      <polygon id="polygon1929" points="177.231 144.41 124.718 183.795 124.718 223.179 256 236.308 387.282 223.179 387.282 183.795 334.769 144.41 256 131.282"/>
      <polygon id="polygon1931" points="124.718 223.179 256 236.308 256 131.282 177.231 144.41 124.718 183.795"/>
      <polygon id="polygon1933" points="256 223.179 124.718 223.179 124.718 459.487 256 459.487 387.282 459.487 387.282 223.179"/>
      <polygon id="polygon1935" points="256 459.487 256 223.179 164.103 223.179 124.718 223.179 124.718 459.487"/>
      <rect id="rect1937" x="177.231" y="275.69199" width="157.53799" height="52.513"/>
      <rect id="rect1939" x="177.231" y="275.69199" width="78.768997" height="52.513"/>
      <rect id="rect1941" x="177.231" y="354.46201" width="157.53799" height="52.513"/>
      <rect id="rect1943" x="177.231" y="354.46201" width="78.768997" height="52.513"/>
      <rect id="rect1945" x="177.231" y="91.897003" width="157.53799" height="52.513"/>
      <rect id="rect1947" x="177.231" y="91.897003" width="78.768997" height="52.513"/>
    </g>
    <g id="g509" transform="matrix(.06184866 0 0 .06184866 25.761111 19.333077)">
      <polygon id="polygon465" points="229.744 0 218.883 119.464 293.117 119.464 282.256 0" fill="#3a618d"/>
      <polygon id="polygon467" points="387.282 512 124.718 512 124.718 459.487 256 446.359 387.282 459.487" fill="#d9d9d9"/>
      <polygon id="polygon469" points="256 512 124.718 512 124.718 459.487 256 446.359" fill="#c6c6c7"/>
      <polygon id="polygon471" points="177.231 144.41 124.718 183.795 124.718 223.179 256 236.308 387.282 223.179 387.282 183.795 334.769 144.41 256 131.282" fill="#d9d9d9"/>
      <polygon id="polygon473" points="124.718 223.179 256 236.308 256 131.282 177.231 144.41 124.718 183.795" fill="#c6c6c7"/>
      <polygon id="polygon475" points="256 223.179 124.718 223.179 124.718 459.487 256 459.487 387.282 459.487 387.282 223.179" fill="#f2f2f3"/>
      <polygon id="polygon477" points="256 459.487 256 223.179 164.103 223.179 124.718 223.179 124.718 459.487" fill="#dedde0"/>
      <rect id="rect479" x="177.231" y="275.69199" width="157.53799" height="52.513" fill="#5289bd"/>
      <rect id="rect481" x="177.231" y="275.69199" width="78.768997" height="52.513" fill="#437bb0"/>
      <rect id="rect483" x="177.231" y="354.46201" width="157.53799" height="52.513" fill="#5289bd"/>
      <rect id="rect485" x="177.231" y="354.46201" width="78.768997" height="52.513" fill="#437bb0"/>
      <rect id="rect487" x="177.231" y="91.897003" width="157.53799" height="52.513" fill="#528abc"/>
      <rect id="rect489" x="177.231" y="91.897003" width="78.768997" height="52.513" fill="#437bb0"/>
    </g>
  </g>
</svg>
