<svg id="svg290" version="1.1" viewBox="0 0 64 64" xmlns="http://www.w3.org/2000/svg">
  <defs id="defs278">
    <style id="style266" type="text/css"/>
    <style id="style268" type="text/css"/>
    <filter id="filter1057" x="-.026999999" y="-.026999999" width="1.054" height="1.054" color-interpolation-filters="sRGB">
      <feGaussianBlur id="feGaussianBlur270" stdDeviation="0.61875"/>
    </filter>
  </defs>
  <rect id="rect280" x="4.5" y="4.5" width="55" height="55" ry="15" fill="#141414" filter="url(#filter1057)" opacity=".3" stroke-linecap="round" stroke-width="2.7444"/>
  <path id="rect1391" d="m32 31.999999v27.500001h-12.5c-8.31 0-15-6.690016-15-15v-12.500001z" fill="#80c7f3"/>
  <path id="path1453" d="m32 31.999999v27.500001h12.5c8.31 0 14.999999-6.690016 14.999999-15v-12.500001z" fill="#e17760"/>
  <path id="path1455" d="m32 31.999999v-27.5h-12.5c-8.31 0-15 6.690016-15 15v12.5z" fill="#80c778"/>
  <path id="path1457" d="m32 31.999999v-27.5h12.5c8.310001 0 15.000001 6.690016 15.000001 15v12.5z" fill="#ffc778"/>
  <path id="path87-3" d="m40.087543 12.564327c-4.061527-1.31073-7.161839 4.202801-8.137658 10.469146-1.300683-7.51592-5.648325-13.898345-10.851131-8.622744-1.932511 1.964121-2.438909 3.606553-2.227829 4.952863-1.351714-0.18814-2.990043 0.346618-4.924582 2.304826-4.5878854 4.649469 1.300787 9.025955 8.476713 10.476457-7.238135 1.423058-13.111641 5.667714-7.973938 10.715706 1.970864 1.931197 3.61743 2.440382 4.966006 2.231315-0.187178 1.348945 0.348557 2.98462 2.312364 4.917217 4.561046 4.484506 8.848504-1.038659 10.387384-7.98341 1.655567 6.921328 6.036222 12.380766 10.52127 7.830242 1.930991-1.961176 2.441096-3.603772 2.231268-4.949865 1.351995 0.189546 2.98914-0.34459 4.926557-2.304315 5.059466-5.130282-0.911644-9.29078-8.187126-10.601164 7.163786-1.550092 13.005732-6.009752 8.333243-10.597218-1.966714-1.93055-3.615205-2.440831-4.96352-2.232773 0.188245-1.349314-0.345463-2.983228-2.311853-4.919187-0.89123-0.875713-1.754499-1.421606-2.577168-1.687096zm-8.186022 19.372726c0.0046 0.0481 0.0038 0.09656 0.01511 0.144884-0.01318-0.0029-0.0274-0.0035-0.04052-0.0063 0.01045-0.04466 0.01537-0.09362 0.02546-0.138556z" fill="#fff" stroke-width="1.04376"/>
</svg>
