<svg id="svg433" version="1.1" viewBox="0 0 64 64" xmlns="http://www.w3.org/2000/svg">
  <defs id="defs421">
    <style id="style409" type="text/css"/>
    <style id="style411" type="text/css"/>
    <filter id="filter1057" x="-.026999999" y="-.026999999" width="1.054" height="1.054" color-interpolation-filters="sRGB">
      <feGaussianBlur id="feGaussianBlur413" stdDeviation="0.61875"/>
    </filter>
    <linearGradient id="linearGradient1053" x1="-127" x2="-72" y1="60" y2="5" gradientTransform="translate(131.5 -.51)" gradientUnits="userSpaceOnUse">
      <stop id="stop416" stop-color="#1a2632" offset="0"/>
      <stop id="stop418" stop-color="#1f3f5b" stop-opacity=".99607843" offset="1"/>
    </linearGradient>
    <linearGradient id="paint0_linear" x1="394.17801" x2="387.08499" y1="82.823502" y2="315.44699" gradientUnits="userSpaceOnUse">
      <stop id="stop587" stop-color="#A88CFF" offset="0"/>
      <stop id="stop589" stop-color="#6754D6" offset="1"/>
    </linearGradient>
    <linearGradient id="paint1_linear" x1="270.42801" x2="275.98499" y1="123.496" y2="271.17401" gradientUnits="userSpaceOnUse">
      <stop id="stop592" stop-color="#A88CFF" offset="0"/>
      <stop id="stop594" stop-color="#6754D6" offset="1"/>
    </linearGradient>
    <linearGradient id="paint2_linear" x1="135.61501" x2="141.013" y1="123.667" y2="271.34399" gradientUnits="userSpaceOnUse">
      <stop id="stop597" stop-color="#A88CFF" offset="0"/>
      <stop id="stop599" stop-color="#6754D6" offset="1"/>
    </linearGradient>
    <linearGradient id="paint3_linear" x1="85.539299" x2="93.226601" y1="83.2202" y2="315.82401" gradientUnits="userSpaceOnUse">
      <stop id="stop602" stop-color="#A88CFF" offset="0"/>
      <stop id="stop604" stop-color="#6754D6" offset="1"/>
    </linearGradient>
    <linearGradient id="paint4_linear" x1="160.601" x2="166.74699" y1="134.205" y2="259.806" gradientUnits="userSpaceOnUse">
      <stop id="stop607" stop-color="#9D7DFF" offset="0"/>
      <stop id="stop609" stop-color="#6754D6" offset="1"/>
    </linearGradient>
  </defs>
  <rect id="rect423" x="4.5" y="4.5" width="55" height="55" ry="15" fill="#141414" filter="url(#filter1057)" opacity=".3" stroke-linecap="round" stroke-width="2.7444"/>
  <rect id="rect425" x="4.5" y="4.5" width="55" height="55" ry="15" fill="url(#linearGradient1053)" stroke-linecap="round" stroke-width="2.7444"/>
  <circle id="circle427" cx="-1326.3" cy="-1241.6" r="0" fill="#5e4aa6"/>
  <circle id="circle429" cx="-226.72" cy="23.855" r="0" fill="#5e4aa6" fill-rule="evenodd"/>
  <g id="g792" transform="matrix(.08749982 0 0 .08749982 10.999999 15.025954)">
    <g clip-rule="evenodd" fill-rule="evenodd">
      <path id="path577" d="m221.558 197.022 30.767-0.352c-0.011-0.898-0.016-1.797-0.017-2.698-2e-3 -0.901 2e-3 -1.8 0.01-2.698l-30.768-0.273c-9e-3 1.002-0.013 2.005-0.012 3.01 1e-3 1.006 8e-3 2.009 0.02 3.011zm0.153-13.504 30.751 1.054c0.062-1.797 0.142-3.587 0.239-5.368l-30.723-1.686c-0.109 1.992-0.198 3.992-0.267 6zm0.775-13.478 30.669 2.482c0.144-1.782 0.306-3.555 0.486-5.318l-30.61-3.122c-0.202 1.976-0.383 3.962-0.545 5.958zm1.405-13.41 30.517 3.935c0.228-1.774 0.475-3.537 0.739-5.288l-30.425-4.591c-0.297 1.97-0.574 3.952-0.831 5.944zm2.049-13.335 30.289 5.419c0.313-1.752 0.644-3.49 0.992-5.215l-30.161-6.088c-0.393 1.948-0.767 3.91-1.12 5.884zm2.708-13.216 29.977 6.938c0.399-1.728 0.817-3.441 1.251-5.138l-29.809-7.626c-0.493 1.927-0.966 3.869-1.419 5.826zm3.381-13.054 29.572 8.498c0.487-1.694 0.991-3.372 1.512-5.032l-29.36-9.207c-0.595 1.897-1.169 3.811-1.724 5.741zm4.078-12.862 29.062 10.108c0.575-1.654 1.167-3.289 1.775-4.905l-28.795-10.8421c-0.701 1.8611-1.381 3.7411-2.042 5.6391zm4.794-12.6056 28.427 11.7756c0.664-1.602 1.343-3.182 2.038-4.7395l-28.1-12.5357c-0.808 1.8119-1.597 3.6454-2.365 5.4996zm5.539-12.295 27.646 13.5081c0.755-1.545 1.525-3.0654 2.31-4.5604l-27.243-14.3031c-0.924 1.7608-1.829 3.5458-2.713 5.3554zm6.32-11.9246 26.686 15.3177c0.842-1.4677 1.699-2.9073 2.569-4.3185l-26.192-16.1469c-1.041 1.6884-2.062 3.4046-3.063 5.1477zm7.123-11.4435 25.508 17.2069c0.93-1.3796 1.873-2.7273 2.828-4.0427l-24.901-18.0734c-1.165 1.605-2.31 3.2419-3.435 4.9092zm7.972-10.8754 24.059 19.1804c1.017-1.2758 2.045-2.5154 3.082-3.7192l-23.31-20.0839c-1.297 1.505-2.574 3.0462-3.831 4.6227zm8.862-10.1764 22.271 21.2307c1.094-1.1477 2.196-2.2558 3.305-3.3239l-21.347-22.1594c-1.43 1.3768-2.84 2.7947-4.229 4.2526zm9.767-9.2987 20.066 23.3267c1.161-0.9989 2.327-1.9547 3.498-2.8681l-18.928-24.2587c-1.564 1.2205-3.109 2.4876-4.636 3.8001zm10.685-8.2221 17.354 25.4084c1.215-0.8296 2.432-1.6139 3.65-2.3535l-15.967-26.3021c-1.697 1.0303-3.377 2.1131-5.037 3.2472zm11.575-6.9084 14.064 27.3664c1.251-0.6427 2.503-1.2396 3.753-1.7908l-12.408-28.15602c-1.82 0.80212-3.624 1.66273-5.409 2.58042zm12.376-5.33442 10.178 29.03722c1.27-0.4454 2.542-0.8455 3.814-1.2009l-8.276-29.63524c-1.921 0.53642-3.827 1.13654-5.716 1.79892zm13.008-3.51263 5.78 30.22155c1.28-0.2448 2.565-0.4458 3.855-0.6027l-3.715-30.544224c-1.986 0.241573-3.96 0.550534-5.92 0.925374zm13.387-1.5109279 1.093 30.749878c0.648-0.0231 1.299-0.0351 1.952-0.0359 0.654-9e-4 1.305 0.0095 1.953 0.0309l1.014-30.75257c-0.999-0.0329307-2.001-0.04884243-3.006-0.047557817-1.005 0.0012846174-2.007 0.019761617-3.006 0.055250117zm13.48 0.5587499-3.636 30.553628c1.29 0.1535 2.576 0.3513 3.857 0.5928l5.702-30.23621c-1.961-0.36982-3.935-0.673733-5.923-0.910218zm13.219 2.605278-8.2 29.65635c1.273 0.3521 2.546 0.749 3.818 1.1911l10.103-29.06315c-1.891-0.65754-3.799-1.25284-5.721-1.7843zm12.694 4.52046-12.335 28.18769c1.252 0.548 2.505 1.1418 3.757 1.7814l13.994-27.4026c-1.789-0.91307-3.593-1.76903-5.416-2.56649zm11.962 6.21099-15.897 26.3431c1.22 0.7362 2.439 1.5173 3.655 2.3439l17.288-25.4527c-1.662-1.1298-3.346-2.2084-5.046-3.2343zm11.108 7.6409-18.866 24.3072c1.173 0.91 2.342 1.8631 3.504 2.8589l20.008-23.378c-1.531-1.3086-3.081-2.5717-4.646-3.7881zm10.196 8.8201-21.289 22.2137c1.112 1.0657 2.216 2.1707 3.312 3.3153l22.219-21.2872c-1.396-1.4544-2.808-2.8687-4.242-4.2418zm9.284 9.7825-23.257 20.1435c1.038 1.2011 2.069 2.4384 3.092 3.7111l24.008-19.2415c-1.258-1.5735-2.543-3.1116-3.843-4.6131zm8.396 10.5673-24.853 18.1373c0.957 1.3131 1.903 2.6581 2.838 4.0354l25.462-17.2719c-1.127-1.6646-2.277-3.2985-3.447-4.9008zm7.524 11.1862-26.15 16.2134c0.873 1.4089 1.734 2.8466 2.58 4.312l26.646-15.3858c-1.007-1.7408-2.03-3.4542-3.076-5.1396zm6.7 11.6996-27.208 14.3731c0.792 1.4927 1.565 3.0107 2.323 4.5542l27.611-13.5792c-0.888-1.807-1.796-3.59-2.726-5.3481zm5.919 12.1358-28.069 12.6076c0.7 1.5558 1.384 3.1342 2.05 4.7342l28.396-11.8484c-0.773-1.8523-1.566-3.6838-2.377-5.4934zm5.15 12.453-28.769 10.9158c0.611 1.614 1.207 3.247 1.788 4.9l29.035-10.182c-0.666-1.897-1.35-3.775-2.054-5.6338zm4.427 12.7488-29.339 9.282c0.527 1.659 1.035 3.335 1.527 5.028l29.55-8.573c-0.558-1.929-1.138-3.842-1.738-5.737zm3.719 12.959-29.789 7.702c0.439 1.697 0.858 3.408 1.262 5.135l29.962-7.014c-0.458-1.956-0.939-3.897-1.435-5.823zm3.038 13.15-30.142 6.165c0.35 1.725 0.689 3.462 1.004 5.213l30.273-5.496c-0.358-1.973-0.735-3.934-1.135-5.882zm2.373 13.27-30.411 4.668c0.269 1.75 0.519 3.513 0.754 5.286l30.504-4.013c-0.262-1.991-0.543-3.972-0.847-5.941zm1.727 13.391-30.603 3.201c0.184 1.762 0.35 3.534 0.5 5.316l30.661-2.56c-0.165-1.996-0.35-3.982-0.558-5.957zm1.085 13.434-30.715 1.765c0.1 1.78 0.184 3.57 0.25 5.367l30.75-1.133c-0.073-2.008-0.17-4.008-0.285-5.999zm0.465 13.481c0.012 1.002 0.016 2.005 0.02 3.011 0 1.005-4e-3 2.008-0.012 3.01l-30.769-0.273c8e-3 -0.898 0.011-1.797 0.011-2.698-3e-3 -0.901-7e-3 -1.8-0.019-2.698zm-0.153 13.504-30.75-1.054c-0.062 1.797-0.143 3.587-0.243 5.368l30.723 1.686c0.112-1.992 0.2-3.992 0.27-6zm-0.777 13.478-30.67-2.482c-0.142 1.782-0.303 3.555-0.484 5.318l30.611 3.123c0.2-1.977 0.381-3.963 0.543-5.959zm-1.404 13.41-30.516-3.935c-0.23 1.775-0.477 3.537-0.742 5.288l30.427 4.591c0.296-1.97 0.573-3.952 0.831-5.944zm-2.05 13.335-30.289-5.418c-0.311 1.751-0.642 3.489-0.992 5.215l30.162 6.088c0.392-1.949 0.765-3.911 1.119-5.885zm-2.708 13.216-29.977-6.938c-0.4 1.728-0.815 3.441-1.25 5.139l29.808 7.625c0.496-1.927 0.969-3.869 1.419-5.826zm-3.381 13.054-29.573-8.498c-0.484 1.695-0.988 3.372-1.511 5.032l29.361 9.207c0.596-1.897 1.169-3.811 1.723-5.741zm-4.077 12.862-29.061-10.108c-0.577 1.654-1.169 3.289-1.777 4.905l28.796 10.842c0.7-1.861 1.381-3.741 2.042-5.639zm-4.796 12.606-28.427-11.776c-0.661 1.602-1.342 3.182-2.034 4.74l28.096 12.535c0.811-1.812 1.6-3.645 2.365-5.499zm-5.538 12.295-27.646-13.508c-0.754 1.545-1.523 3.065-2.308 4.56l27.242 14.303c0.923-1.76 1.827-3.546 2.712-5.355zm-6.319 11.924-26.685-15.317c-0.842 1.467-1.7 2.907-2.569 4.318l26.192 16.147c1.038-1.688 2.062-3.404 3.062-5.148zm-7.124 11.444-25.507-17.207c-0.931 1.379-1.873 2.727-2.827 4.043l24.9 18.073c1.165-1.605 2.311-3.242 3.434-4.909zm-7.973 10.875-24.057-19.18c-1.016 1.276-2.046 2.515-3.081 3.719l23.308 20.084c1.3-1.505 2.577-3.046 3.83-4.623zm-8.861 10.177-22.269-21.231c-1.097 1.148-2.197 2.256-3.304 3.324l21.346 22.159c1.427-1.377 2.838-2.795 4.227-4.252zm-9.766 9.299-20.065-23.327c-1.161 0.998-2.327 1.954-3.5 2.868l18.931 24.259c1.561-1.221 3.108-2.488 4.634-3.8zm-10.684 8.221-17.354-25.408c-1.215 0.83-2.431 1.614-3.651 2.353l15.966 26.303c1.697-1.031 3.377-2.113 5.039-3.248zm-11.577 6.909-14.064-27.367c-1.25 0.643-2.501 1.24-3.753 1.791l12.409 28.156c1.819-0.802 3.623-1.662 5.408-2.58zm-12.375 5.334-10.177-29.037c-1.271 0.446-2.543 0.846-3.815 1.201l8.276 29.636c1.921-0.538 3.827-1.138 5.716-1.8zm-13.008 3.512-5.779-30.221c-1.281 0.245-2.566 0.446-3.855 0.603l3.714 30.545c1.986-0.243 3.96-0.55 5.92-0.927zm-13.387 1.511-1.092-30.749c-0.649 0.023-1.3 0.035-1.953 0.036-0.654 1e-3 -1.305-9e-3 -1.954-0.031l-1.013 30.752c0.999 0.035 2.002 0.05 3.006 0.05 1.005-4e-3 2.007-0.023 3.006-0.058zm-13.48-0.557 3.636-30.555c-1.29-0.153-2.576-0.351-3.857-0.592l-5.702 30.235c1.961 0.369 3.936 0.673 5.923 0.912zm-13.219-2.604 8.2-29.658c-1.273-0.353-2.546-0.75-3.818-1.192l-10.103 29.065c1.891 0.658 3.799 1.25 5.721 1.785zm-12.695-4.523 12.337-28.187c-1.253-0.548-2.506-1.142-3.758-1.782l-13.995 27.403c1.788 0.913 3.593 1.769 5.416 2.566zm-11.963-6.211 15.9-26.343c-1.22-0.736-2.439-1.517-3.656-2.344l-17.289 25.453c1.663 1.13 3.345 2.208 5.045 3.234zm-11.105-7.641 18.865-24.306c-1.173-0.911-2.342-1.864-3.505-2.86l-20.005 23.378c1.529 1.309 3.077 2.572 4.645 3.788zm-10.198-8.82 21.291-22.213c-1.111-1.066-2.216-2.171-3.313-3.316l-22.217 21.288c1.393 1.454 2.807 2.868 4.239 4.241zm-9.284-9.782 23.259-20.144c-1.041-1.201-2.071-2.438-3.092-3.711l-24.01 19.242c1.261 1.573 2.542 3.111 3.843 4.613zm-8.396-10.568 24.856-18.137c-0.958-1.313-1.905-2.658-2.839-4.035l-25.464 17.272c1.129 1.665 2.278 3.298 3.447 4.9zm-7.523-11.186 26.151-16.213c-0.874-1.409-1.734-2.847-2.58-4.312l-26.647 15.386c1.005 1.74 2.031 3.454 3.076 5.139zm-6.7-11.699 27.206-14.373c-0.788-1.493-1.562-3.011-2.322-4.555l-27.61 13.58c0.889 1.807 1.797 3.59 2.726 5.348zm-5.917-12.136 28.067-12.608c-0.699-1.556-1.382-3.134-2.05-4.734l-28.396 11.848c0.772 1.853 1.565 3.684 2.379 5.494zm-5.15-12.453c-0.705-1.859-1.391-3.737-2.056-5.634l29.036-10.182c0.579 1.653 1.176 3.286 1.788 4.9zm-4.428-12.749 29.336-9.282c-0.525-1.658-1.033-3.335-1.525-5.028l-29.55 8.573c0.559 1.929 1.139 3.842 1.739 5.737zm-3.72-12.959 29.79-7.702c-0.439-1.697-0.86-3.408-1.264-5.135l-29.96 7.014c0.458 1.956 0.937 3.897 1.434 5.823zm-3.04-13.15 30.145-6.165c-0.352-1.725-0.688-3.462-1.006-5.213l-30.274 5.496c0.358 1.973 0.737 3.934 1.135 5.882zm-2.372-13.269 30.413-4.669c-0.268-1.75-0.52-3.513-0.753-5.286l-30.507 4.013c0.263 1.991 0.545 3.972 0.847 5.942zm-1.725-13.392 30.602-3.201c-0.185-1.762-0.351-3.534-0.5-5.316l-30.663 2.561c0.167 1.995 0.354 3.981 0.561 5.956zm-1.087-13.433 30.718-1.765c-0.102-1.781-0.186-3.57-0.253-5.368l-30.748 1.133c0.074 2.008 0.168 4.008 0.283 6z" fill="url(#paint0_linear)"/>
      <path id="path579" d="m249.894 110.602c-15.541 21.13-25.32 50.6-25.278 83.408s9.896 62.253 25.492 83.343c15.597 21.093 36.625 33.501 59.273 33.472 22.65-0.029 43.645-12.491 59.188-33.623 15.542-21.13 25.32-50.601 25.278-83.409-0.042-32.807-9.895-62.252-25.491-83.343-15.597-21.0925-36.625-33.5002-59.274-33.4714-22.649 0.0289-43.644 12.4904-59.188 33.6234zm-9.914-7.293c17.251-23.4546 41.605-38.6027 69.086-38.638 27.482-0.035 51.874 15.0507 69.186 38.461 17.314 23.413 27.856 55.48 27.902 90.645 0.047 35.166-10.419 67.26-27.67 90.717-17.251 23.455-41.605 38.603-69.087 38.638-27.481 0.035-51.874-15.05-69.185-38.461-17.313-23.412-27.858-55.48-27.903-90.645-0.045-35.166 10.417-67.26 27.671-90.717z" fill="url(#paint1_linear)"/>
      <path id="path581" d="m113.666 110.693c-15.0169 21.134-24.4772 50.634-24.4353 83.489 0.0423 32.856 9.5781 62.33 24.6493 83.427 15.081 21.108 35.333 33.42 57.039 33.392 21.705-0.028 41.926-12.392 56.953-33.539 15.018-21.134 24.478-50.633 24.436-83.488-0.042-32.856-9.578-62.331-24.65-83.427-15.08-21.108-35.333-33.4199-57.038-33.3918-21.706 0.0277-41.927 12.3911-56.954 33.5378zm-10.032-7.129c16.655-23.4384 40.244-38.6823 66.97-38.7165 26.726-0.0343 50.354 15.1492 67.069 38.5455 16.724 23.409 26.897 55.447 26.942 90.565s-10.046 67.182-26.71 90.634c-16.655 23.438-40.245 38.682-66.97 38.717-26.726 0.034-50.355-15.15-67.069-38.546-16.7242-23.409-26.898-55.447-26.943-90.565-0.0446-35.118 10.0469-67.182 26.711-90.634z" fill="url(#paint2_linear)"/>
      <path id="path583" d="m258.45 196.976-30.768-0.272c8e-3 -0.898 0.012-1.797 0.01-2.698-1e-3 -0.902-7e-3 -1.801-0.017-2.699l30.767-0.351c0.012 1.001 0.018 2.005 0.02 3.01 1e-3 1.005-3e-3 2.009-0.012 3.01zm-0.188-13.503-30.748 1.133c-0.067-1.797-0.151-3.587-0.253-5.367l30.718-1.765c0.115 1.991 0.209 3.991 0.283 5.999zm-0.809-13.476c-0.167-1.995-0.354-3.981-0.561-5.957l-30.602 3.201c0.185 1.763 0.351 3.535 0.5 5.316zm-1.439-13.406-30.507 4.013c-0.233-1.774-0.485-3.536-0.753-5.287l30.413-4.668c0.302 1.969 0.584 3.95 0.847 5.942zm-2.084-13.33-30.275 5.496c-0.317-1.75-0.653-3.488-1.005-5.212l30.145-6.165c0.398 1.947 0.777 3.908 1.135 5.881zm-2.741-13.209-29.96 7.014c-0.404-1.726-0.825-3.438-1.264-5.135l29.79-7.702c0.497 1.927 0.975 3.868 1.434 5.823zm-3.415-13.045-29.55 8.574c-0.492-1.694-1-3.37-1.525-5.029l29.336-9.281c0.6 1.895 1.18 3.807 1.739 5.736zm-4.111-12.852-29.036 10.183c-0.579-1.653-1.176-3.287-1.788-4.901l28.768-10.9153c0.705 1.8593 1.391 3.7373 2.056 5.6333zm-4.827-12.5929-28.396 11.8479c-0.668-1.6-1.351-3.178-2.05-4.7337l28.067-12.6077c0.813 1.8097 1.607 3.6412 2.379 5.4935zm-5.57-12.2811-27.611 13.5792c-0.759-1.5435-1.533-3.0616-2.321-4.5546l27.205-14.3727c0.93 1.7581 1.838 3.5411 2.727 5.3481zm-6.351-11.9081-26.646 15.3857c-0.846-1.4653-1.706-2.903-2.58-4.3119l26.151-16.2134c1.045 1.6853 2.07 3.3988 3.075 5.1396zm-7.151-11.4254-25.464 17.2723c-0.934-1.3773-1.881-2.7223-2.839-4.0358l24.856-18.1369c1.168 1.6023 2.318 3.2358 3.447 4.9004zm-8-10.855-24.01 19.2419c-1.021-1.2731-2.051-2.51-3.092-3.7111l23.259-20.1435c1.301 1.5015 2.582 3.0396 3.843 4.6127zm-8.888-10.1535-22.217 21.2873c-1.097-1.1446-2.202-2.2496-3.313-3.3154l21.291-22.2137c1.432 1.3731 2.846 2.7874 4.239 4.2418zm-9.792-9.2738-20.005 23.3781c-1.164-0.9958-2.332-1.9489-3.505-2.8593l18.865-24.3069c1.568 1.2164 3.116 2.4796 4.645 3.7881zm-10.705-8.1947-17.289 25.4528c-1.217-0.8266-2.436-1.6077-3.656-2.3439l15.9-26.3432c1.7 1.026 3.381 2.1045 5.045 3.2343zm-11.592-6.8787-13.995 27.4022c-1.252-0.6396-2.505-1.233-3.758-1.7811l12.337-28.18768c1.823 0.79746 3.628 1.65342 5.416 2.56658zm-12.39-5.30274-10.103 29.06314c-1.272-0.4421-2.545-0.839-3.818-1.1911l8.2-29.65634c1.922 0.53146 3.829 1.12677 5.721 1.7843zm-13.017-3.47936c-1.961-0.36982-3.936-0.67374-5.923-0.91022l-3.636 30.55362c1.29 0.1535 2.576 0.3513 3.857 0.5928zm-13.391-1.47667-1.014 30.75257c-0.648-0.0214-1.299-0.0318-1.953-0.0309-0.653 8e-4 -1.304 0.0128-1.953 0.0359l-1.092-30.749878c0.999-0.035484 2.001-0.053965 3.006-0.05525 1.004-0.001284 2.007 0.014631 3.006 0.047558zm-13.479 0.593242 3.715 30.544228c-1.29 0.1568-2.575 0.3579-3.856 0.6027l-5.779-30.22155c1.96-0.37484 3.934-0.6838 5.92-0.925378zm-13.212 2.639058 8.276 29.63527c-1.272 0.3553-2.544 0.7555-3.814 1.2009l-10.1784-29.0372c1.8904-0.66239 3.7954-1.26254 5.7164-1.79897zm-12.6837 4.55297 12.4097 28.156c-1.252 0.5513-2.503 1.1482-3.754 1.7909l-14.0646-27.3665c1.7858-0.91767 3.5889-1.77829 5.4089-2.5804zm-11.9462 6.2416 15.9666 26.3022c-1.2181 0.7396-2.435 1.5238-3.6496 2.3535l-17.3539-25.4085c1.6604-1.1341 3.3396-2.2169 5.0369-3.2472zm-11.0861 7.6692 18.9277 24.2588c-1.1704 0.913-2.337 1.8692-3.4981 2.8681l-20.065-23.3269c1.5258-1.3124 3.0711-2.5795 4.6354-3.8zm-10.1746 8.8462 21.3473 22.1591c-1.1089 1.0685-2.2108 2.1765-3.3046 3.3242l-22.2716-21.2307c1.39-1.4579 2.7996-2.8758 4.2289-4.2526zm-9.2597 9.806 23.3104 20.0843c-1.0373 1.2038-2.0646 2.4434-3.0815 3.7192l-24.0596-19.1804c1.2569-1.5765 2.5338-3.1177 3.8307-4.6231zm-8.3684 10.5893 24.9019 18.0734c-0.9546 1.3154-1.8981 2.6631-2.8284 4.0427l-25.5081-17.2069c1.1246-1.6677 2.27-3.3042 3.4346-4.9092zm-7.4949 11.205 26.1922 16.1469c-0.87 1.4108-1.7265 2.8508-2.5689 4.3185l-26.6855-15.3177c1.0005-1.7435 2.0215-3.4593 3.0622-5.1477zm-6.6693 11.7169 27.2427 14.3031c-0.785 1.495-1.555 3.015-2.31 4.5604l-27.6457-13.5085c0.8841-1.8092 1.7886-3.5946 2.713-5.355zm-5.8869 12.1508 28.0999 12.5357c-0.695 1.558-1.3746 3.137-2.0377 4.739l-28.4271-11.7751c0.7681-1.8543 1.5566-3.6877 2.3649-5.4996zm-5.1176 12.4661 28.7956 10.8416c-0.6081 1.616-1.2004 3.251-1.7758 4.906l-29.0613-10.109c0.6602-1.898 1.3409-3.778 2.0415-5.6386zm-4.3953 12.7596 29.3594 9.207c-0.5204 1.66-1.0246 3.338-1.5116 5.033l-29.5723-8.498c0.5546-1.93 1.1296-3.844 1.7245-5.742zm-3.68648 12.969 29.80928 7.626c-0.4343 1.698-0.8515 3.41-1.2514 5.138l-29.97688-6.938c0.45281-1.956 0.92593-3.898 1.419-5.826zm-3.00661 13.158 30.16089 6.088c-0.3482 1.725-0.6792 3.464-0.9924 5.215l-30.28845-5.418c0.35315-1.975 0.72661-3.936 1.11996-5.885zm-2.33803 13.275 30.42492 4.591c-0.2643 1.751-0.5109 3.514-0.7396 5.288l-30.51668-3.934c0.25687-1.993 0.53411-3.974 0.83136-5.945zm-1.69143 13.396 30.61035 3.123c-0.1799 1.762-0.342 3.535-0.4863 5.317l-30.668922-2.482c0.161502-1.996 0.343232-3.982 0.544872-5.958zm-1.052438 13.437 30.722988 1.686c-0.0977 1.781-0.1776 3.57-0.2392 5.368l-30.751172-1.054c0.068842-2.009 0.158073-4.009 0.267384-6zm-0.4286538 13.482c-0.00888387 1.002-0.01270118 2.006-0.011415028 3.011 0.001286158 1.005 0.007671168 2.009 0.019117728 3.01l30.767239-0.351c-0.0103-0.898-0.016-1.797-0.0172-2.699-0.0011-0.901 0.0023-1.8 0.0103-2.698zm0.1881158 13.503 30.748326-1.132c0.0663 1.797 0.1507 3.586 0.253 5.367l-30.718588 1.765c-0.114407-1.992-0.208753-3.992-0.282738-6zm0.809446 13.477 30.66248-2.56c0.1488 1.781 0.3155 3.553 0.4999 5.315l-30.60227 3.202c-0.2067-1.976-0.39351-3.962-0.56011-5.957zm1.43923 13.406 30.50645-4.013c0.2333 1.774 0.4844 3.536 0.7532 5.287l-30.41308 4.668c-0.30228-1.97-0.58459-3.95-0.84657-5.942zm2.08357 13.329 30.27448-5.495c0.3177 1.75 0.6531 3.488 1.0058 5.212l-30.14528 6.165c-0.39835-1.947-0.77681-3.908-1.135-5.882zm2.74134 13.21 29.95914-7.014c0.4042 1.726 0.8258 3.438 1.2645 5.134l-29.78968 7.703c-0.49803-1.927-0.97611-3.868-1.43396-5.823zm3.41434 13.045 29.5508-8.573c0.4912 1.693 0.9992 3.369 1.5242 5.028l-29.3358 9.281c-0.5997-1.895-1.1796-3.808-1.7392-5.736zm4.1112 12.851 29.0354-10.182c0.58 1.653 1.1761 3.287 1.7885 4.901l-28.768 10.915c-0.7053-1.858-1.3907-3.737-2.0559-5.634zm4.8265 12.594 28.3966-11.848c0.6677 1.6 1.3511 3.178 2.05 4.734l-28.0677 12.607c-0.8129-1.809-1.606-3.641-2.3789-5.493zm5.5703 12.281 27.6109-13.579c0.7588 1.543 1.5331 3.061 2.3215 4.554l-27.2058 14.373c-0.9289-1.758-1.8379-3.541-2.7266-5.348zm6.3505 11.908 26.6462-15.386c0.8461 1.466 1.7065 2.903 2.58 4.312l-26.1508 16.214c-1.045-1.686-2.0703-3.399-3.0754-5.14zm7.1516 11.425 25.4642-17.272c0.9342 1.377 1.8807 2.723 2.8388 4.036l-24.8554 18.137c-1.1692-1.602-2.3184-3.236-3.4476-4.901zm8.0003 10.855 24.0104-19.241c1.02 1.272 2.0508 2.51 3.0908 3.711l-23.2589 20.143c-1.3003-1.501-2.5815-3.039-3.8423-4.613zm8.8877 10.154 22.2169-21.287c1.0966 1.144 2.2016 2.249 3.3131 3.315l-21.2904 22.214c-1.4327-1.373-2.8461-2.788-4.2396-4.242zm9.7916 9.274 20.0054-23.378c1.1638 0.996 2.3326 1.949 3.5053 2.859l-18.8657 24.307c-1.5673-1.217-3.1158-2.48-4.645-3.788zm10.7057 8.194 17.2889-25.452c1.2165 0.826 2.4354 1.607 3.6554 2.344l-15.8993 26.343c-1.7-1.026-3.3819-2.105-5.045-3.235zm11.592 6.879 13.9949-27.402c1.252 0.639 2.505 1.233 3.757 1.781l-12.3366 28.188c-1.8219-0.798-3.6273-1.654-5.4153-2.567zm12.3899 5.304 10.103-29.064c1.272 0.442 2.545 0.839 3.818 1.191l-8.2 29.657c-1.922-0.534-3.83-1.126-5.721-1.784zm13.017 3.477 5.702-30.235c1.281 0.242 2.566 0.439 3.857 0.593l-3.636 30.553c-1.988-0.234-3.962-0.538-5.923-0.911zm13.391 1.477 1.014-30.752c0.648 0.022 1.299 0.032 1.953 0.031 0.653-1e-3 1.304-0.012 1.952-0.036l1.093 30.749c-1 0.038-2.001 0.054-3.006 0.058-1.005 0-2.007-0.016-3.006-0.05zm13.479-0.593-3.715-30.544c1.29-0.156 2.575-0.358 3.855-0.602l5.78 30.219c-1.96 0.377-3.934 0.685-5.92 0.927zm13.212-2.638-8.276-29.636c1.272-0.355 2.544-0.755 3.814-1.201l10.178 29.037c-1.89 0.661-3.795 1.261-5.716 1.8zm12.683-4.553-12.408-28.156c1.25-0.552 2.502-1.148 3.753-1.791l14.064 27.366c-1.785 0.918-3.589 1.779-5.409 2.581zm11.947-6.242-15.967-26.302c1.218-0.74 2.435-1.524 3.65-2.354l17.353 25.409c-1.66 1.134-3.339 2.217-5.036 3.247zm11.086-7.669-18.928-24.259c1.171-0.913 2.337-1.869 3.498-2.868l20.065 23.327c-1.525 1.312-3.071 2.579-4.635 3.8zm10.174-8.847-21.347-22.159c1.109-1.068 2.211-2.176 3.305-3.324l22.271 21.231c-1.389 1.458-2.799 2.876-4.229 4.252zm9.26-9.806-23.31-20.084c1.037-1.203 2.065-2.443 3.081-3.719l24.06 19.181c-1.257 1.576-2.534 3.117-3.831 4.622zm8.368-10.589-24.902-18.073c0.955-1.315 1.899-2.663 2.829-4.043l25.508 17.207c-1.125 1.668-2.27 3.304-3.435 4.909zm7.495-11.205-26.192-16.146c0.87-1.412 1.727-2.851 2.569-4.319l26.686 15.318c-1.001 1.743-2.022 3.459-3.063 5.147zm6.67-11.716-27.243-14.304c0.785-1.495 1.555-3.015 2.31-4.56l27.646 13.508c-0.885 1.809-1.789 3.595-2.713 5.356zm5.887-12.151-28.1-12.536c0.695-1.558 1.374-3.138 2.038-4.739l28.427 11.775c-0.769 1.854-1.557 3.688-2.365 5.5zm5.117-12.467-28.796-10.841c0.609-1.616 1.201-3.251 1.776-4.906l29.062 10.108c-0.661 1.899-1.341 3.779-2.042 5.639zm4.396-12.76-29.36-9.206c0.521-1.661 1.025-3.338 1.512-5.033l29.572 8.498c-0.555 1.931-1.13 3.844-1.724 5.741zm3.686-12.968-29.809-7.626c0.434-1.698 0.851-3.41 1.251-5.138l29.977 6.938c-0.453 1.956-0.926 3.898-1.419 5.826zm3.007-13.158-30.161-6.088c0.348-1.725 0.679-3.464 0.992-5.215l30.289 5.418c-0.354 1.974-0.727 3.936-1.12 5.885zm2.338-13.276-30.425-4.59c0.264-1.751 0.511-3.514 0.739-5.288l30.517 3.934c-0.257 1.993-0.534 3.974-0.831 5.944zm1.691-13.395-30.61-3.123c0.18-1.762 0.342-3.535 0.486-5.317l30.669 2.482c-0.162 1.996-0.343 3.982-0.545 5.958zm1.053-13.437-30.723-1.686c0.097-1.781 0.177-3.57 0.239-5.368l30.751 1.054c-0.069 2.008-0.158 4.009-0.267 6z" fill="url(#paint3_linear)"/>
    </g>
    <path id="path585" d="m240.134 298.606c57.777-0.074 104.555-46.972 104.481-104.749s-46.971-104.5555-104.749-104.4817c-57.777 0.0743-104.555 46.9717-104.481 104.7497 0.074 57.777 46.971 104.555 104.749 104.481z" fill="url(#paint4_linear)"/>
  </g>
</svg>
