<svg id="svg46" version="1.1" viewBox="0 0 64 64" xmlns="http://www.w3.org/2000/svg" xmlns:xlink="http://www.w3.org/1999/xlink">
    <defs id="defs7">
        <filter id="filter1057" x="-.027000001" y="-.027000001" width="1.054" height="1.054" color-interpolation-filters="sRGB">
            <feGaussianBlur id="feGaussianBlur1059" stdDeviation="0.61875"/>
        </filter>
        <linearGradient id="linearGradient1053" x1="-127" x2="-72" y1="60" y2="5" gradientTransform="translate(131.5 -.5099984)" gradientUnits="userSpaceOnUse">
            <stop id="stop1047" stop-color="#32d7ff" offset="0"/>
            <stop id="stop1049" stop-color="#329bff" offset="1"/>
        </linearGradient>
        <style id="style872" type="text/css"/>
        <style id="style4" type="text/css"/>
        <style id="style6" type="text/css"/>
        <style id="style8" type="text/css"/>
        <style id="style872-0" type="text/css"/>
        <style id="style874" type="text/css"/>
        <style id="style876" type="text/css"/>
        <style id="style1010" type="text/css"/>
        <linearGradient id="linearGradient1098" x1="15" x2="9" y1="9" y2="9" gradientTransform="matrix(2.6667,0,0,6,-9.2222721,-30.283674)" gradientUnits="userSpaceOnUse">
            <stop id="stop9" stop-color="#a1daff" offset="0"/>
            <stop id="stop11" stop-color="#abebf9" stop-opacity="0" offset="1"/>
        </linearGradient>
        <filter id="filter1102" x="-.049405022" y="-.046672683" width="1.09881" height="1.0933454" color-interpolation-filters="sRGB">
            <feGaussianBlur id="feGaussianBlur1104" stdDeviation="0.35004571"/>
        </filter>
    </defs>
    <rect id="rect1055" x="4.4999995" y="4.4999995" width="55" height="55" ry="15" fill="#141414" filter="url(#filter1057)" opacity=".3" stroke-linecap="round" stroke-width="2.74436"/>
    <rect id="rect1045" x="4.5000019" y="4.5000019" width="54.999996" height="54.999996" ry="14.999999" fill="url(#linearGradient1053)" stroke-linecap="round" stroke-width="2.74436"/>
    <g id="g1311" transform="translate(0,-1.1814583)">
        <rect id="rect1292" x="14.5" y="45.106567" width="35" height="10.691891" ry="3.1310358" fill="#fff" opacity=".35" style="paint-order:stroke fill markers"/>
        <g id="g1303" transform="translate(.15019178 -.09653139)" fill="#f9f9f9" stroke-width="2.14758">
            <rect id="rect936" x="17.269566" y="47.708008" width="5.6820726" height="5.6820726" rx="1.1364145" ry="1.1364145"/>
            <rect id="rect938" x="25.095701" y="47.708008" width="5.6820726" height="5.6820726" rx="1.1364145" ry="1.1364145"/>
            <rect id="rect940" x="32.921841" y="47.708008" width="5.6820726" height="5.6820726" rx="1.1364145" ry="1.1364145"/>
            <rect id="rect1297" x="40.747978" y="47.708008" width="5.6820726" height="5.6820726" rx="1.1364145" ry="1.1364145"/>
        </g>
    </g>
    <path id="path1094" d="m14.777827 17.716326h16v6h-16z" fill="url(#linearGradient1098)" fill-rule="evenodd"/>
    <path id="path1100" d="m31.876668 37.226096 8.2367-0.05272 0.93219-9.3232c0.19544-1.8901-2.1473-2.677-2.7966-0.93219 8e-3 -2.0958-2.1473-2.3581-2.7979-0.93348 0.0823-1.7307-2.1177-2.4006-2.7966-0.93219v-3.7288c0-2.7966-2.7966-2.7966-2.7966 0v8.391c-4.6622-4.6622-5.8053-1.3115-5.8053-1.3115 3.1682 2.1383 5.1045 8.841 7.824 8.823z" fill="#32a2ff" filter="url(#filter1102)" opacity=".49"/>
    <path id="path1096" d="m31.32184 35.716326 8.2367-0.05272 0.93219-9.3232c0.19544-1.8901-2.1473-2.677-2.7966-0.93219 8e-3 -2.0958-2.1473-2.3581-2.7979-0.93348 0.0823-1.7307-2.1177-2.4006-2.7966-0.93219v-3.7288c0-2.7966-2.7966-2.7966-2.7966 0v8.391c-4.6622-4.6622-5.8053-1.3115-5.8053-1.3115 3.1682 2.1383 5.1045 8.841 7.824 8.823z" fill="#fff"/>
</svg>
