<svg id="svg290" version="1.1" viewBox="0 0 64 64" xmlns="http://www.w3.org/2000/svg">
  <defs id="defs278">
    <style id="style266" type="text/css"/>
    <style id="style268" type="text/css"/>
    <filter id="filter1057" x="-.026999999" y="-.026999999" width="1.054" height="1.054" color-interpolation-filters="sRGB">
      <feGaussianBlur id="feGaussianBlur270" stdDeviation="0.61875"/>
    </filter>
    <linearGradient id="linearGradient1053" x1="-127" x2="-72" y1="60" y2="5" gradientTransform="translate(131.5 -.51)" gradientUnits="userSpaceOnUse">
      <stop id="stop275" stop-color="#232f3e" stop-opacity=".99607843" offset="0"/>
      <stop id="stop273" stop-color="#03285c" offset="1"/>
    </linearGradient>
  </defs>
  <rect id="rect280" x="4.5" y="4.5" width="55" height="55" ry="15" fill="#141414" filter="url(#filter1057)" opacity=".3" stroke-linecap="round" stroke-width="2.7444"/>
  <rect id="rect282" x="4.5" y="4.5" width="55" height="55" ry="15" fill="url(#linearGradient1053)" stroke-linecap="round" stroke-width="2.7444"/>
  <circle id="circle284" cx="-1326.3" cy="-1241.6" r="0" fill="#5e4aa6"/>
  <circle id="circle286" cx="-226.72" cy="23.855" r="0" fill="#5e4aa6" fill-rule="evenodd"/>
  <g id="g2573" transform="matrix(.95238098 0 0 .95238098 1.5238091 1.5238081)" stroke-width="1.05">
    <path id="path495" d="m49.755574 40.743345c-1.4445 0.0416-3.120479 0.402713-4.401348 1.370479-0.165301 0.124819-0.250077 0.267315-0.263571 0.388744v0.07908c0.01687 0.138313 0.146174 0.231252 0.375564 0.204264 1.491081-0.192289 4.805904-0.618718 5.396261 0.197653 0.593734 0.81301-0.652348 4.168736-1.212344 5.659814-0.168674 0.452048 0.195392 0.634007 0.573226 0.289918 2.482887-2.226502 3.121795-6.895884 2.615772-7.570582-0.242891-0.320481-1.383551-0.619352-2.793669-0.619352-0.09405 0-0.193604-0.0027-0.289918 0zm-38.399776 0.487577a0.35421618 0.35421618 0 0 0-0.355798 0.303074v0.131768a0.58361332 0.58361332 0 0 0 0.184496 0.329455c5.512272 5.367215 12.793799 8.591851 20.880042 8.591851 5.77203 0 12.479589-1.956363 17.104633-5.633461 0.762408-0.613975 0.110583-1.527029-0.672059-1.172813-5.181673 2.371558-10.817303 3.518443-15.945001 3.518443a39.732935 39.732935 0 0 1-20.893218-5.976083c-0.107952-0.0641-0.21199-0.09223-0.303075-0.09223z" fill="#00a8e1"/>
    <path id="path491" d="m23.065524 28.137704a1.3257805 1.3257805 0 0 0-0.770893 0.322842c-0.236144 0.215904-0.34921 0.511819-0.34921 0.882903a1.1402387 1.1402387 0 0 0 0.34921 0.876317 1.3257805 1.3257805 0 0 0 0.935613 0.329455 1.3257805 1.3257805 0 0 0 0.935617-0.329455c0.236144-0.215903 0.34921-0.511822 0.34921-0.882906 0-0.371083-0.113079-0.66041-0.34921-0.876314-0.236144-0.215903-0.547666-0.322842-0.935617-0.322842a1.3257805 1.3257805 0 0 0-0.164727 0zm8.532551 0.08565c-0.134939 0-0.235773 0.03171-0.296495 0.08565-0.05735 0.05735-0.08565 0.158048-0.08565 0.303074v3.617276a3.3060177 3.3060177 0 0 0-2.101841-0.691828 2.8877052 2.8877052 0 0 0-2.391749 1.14646c-0.600481 0.769155-0.902674 1.788474-0.902674 3.0704a5.3975798 5.3975798 0 0 0 0.388743 2.128194 3.2722828 3.2722828 0 0 0 1.126691 1.436371 2.9315606 2.9315606 0 0 0 1.732866 0.513927 3.2318009 3.2318009 0 0 0 2.253385-0.863137l0.09223 0.355798a0.46216777 0.46216777 0 0 0 0.144959 0.263571 0.4554208 0.4554208 0 0 0 0.283306 0.07907h1.225523c0.141687 0 0.239147-0.03475 0.296496-0.09884 0.05735-0.05735 0.08565-0.154978 0.08565-0.289918v-10.667332c0-0.14506-0.02834-0.245725-0.08565-0.303074-0.05735-0.05398-0.154809-0.08565-0.296496-0.08565zm15.160928 3.314188c-1.107704 0.04308-1.980345 0.41088-2.62236 1.100337-0.684818 0.738794-1.027861 1.761493-1.027861 3.0704 0 1.319033 0.343043 2.348159 1.027861 3.08358 0.684818 0.735413 1.631925 1.106925 2.84638 1.106925 1.214456 0 2.168151-0.371512 2.852969-1.106925 0.684818-0.735421 1.027861-1.76792 1.027861-3.08358 0-1.308907-0.343043-2.331606-1.027861-3.0704-0.684818-0.73542-1.638513-1.100337-2.852969-1.100337-0.0759 0-0.150187-0.0029-0.224033 0zm-7.847312 0.06588c-1.207708 0-2.158347 0.37778-2.839791 1.126694-0.681445 0.748908-1.014681 1.774512-1.014681 3.090165 0 1.281925 0.330332 2.270205 0.994916 2.95839 0.661196 0.688192 1.621487 1.03445 2.859556 1.03445a6.3927586 6.3927586 0 0 0 2.325861-0.428275 0.55662542 0.55662542 0 0 0 0.256959-0.171305c0.04386-0.0641 0.06588-0.180684 0.06588-0.342622v-0.698409c0-0.229397-0.08171-0.34921-0.25038-0.34921a0.4554208 0.4554208 0 0 0-0.07246 0.0067 10.110342 10.110342 0 0 1-1.192581 0.256958c-0.263132 0.03711-0.537016 0.05273-0.817015 0.05273-0.701685 0-1.220676-0.141383-1.568145-0.434863-0.344096-0.293493-0.552045-0.784653-0.612761-1.462724 0.421679 0.114699 0.918958 0.171306 1.489078 0.171306 1.096377 3e-6 1.930424-0.191884 2.49717-0.579815 0.563372-0.387951 0.84996-0.967243 0.84996-1.726277a2.2872245 2.2872245 0 0 0-0.790661-1.818523c-0.52289-0.455421-1.249823-0.685239-2.180906-0.685239zm-25.538355 0.164727c-0.157238 0.01687-0.23719 0.09186-0.23719 0.230612a0.54650496 0.54650496 0 0 0 0.03306 0.171306 6.284807 6.284807 0 0 0 0.07907 0.210843l2.62236 6.885341a0.92433555 0.92433555 0 0 0 0.12519 0.23719 0.401445 0.401445 0 0 0 0.171306 0.12519 0.70843235 0.70843235 0 0 0 0.25038 0.03954l1.330945-0.0067a0.69831189 0.69831189 0 0 0 0.263571-0.03306 0.41156546 0.41156546 0 0 0 0.158115-0.125191 0.92433555 0.92433555 0 0 0 0.131769-0.237189l2.62236-6.878754 0.07246-0.224033a0.53975798 0.53975798 0 0 0 0.03306-0.164728c0-0.15518-0.103904-0.230611-0.309687-0.230611h-1.482489c-0.165301 0-0.28479 0.03137-0.362386 0.09223a0.59036029 0.59036029 0 0 0-0.171306 0.309686l-1.614268 5.46874-1.574734-5.46874c-0.04048-0.14506-0.100293-0.248963-0.177884-0.309686-0.07759-0.06072-0.197079-0.09223-0.362386-0.09223h-1.528612c-0.02564 0-0.05003-0.0024-0.07246 0zm9.12555 0c-0.131566 0-0.229195 0.02496-0.289918 0.07907-0.06072 0.06072-0.09884 0.158014-0.09884 0.303074v7.129127c0 0.134939 0.03475 0.229195 0.09884 0.289917 0.06072 0.06072 0.154978 0.09884 0.289918 0.09884h1.46272c0.14506 0 0.245725-0.03475 0.303075-0.09884 0.05398-0.05735 0.08565-0.154978 0.08565-0.289917v-7.122539c0-0.148433-0.03171-0.245724-0.08565-0.303074-0.05735-0.05735-0.15481-0.08565-0.296496-0.08565zm16.248085 1.37048c0.748914 0 1.120102 0.314409 1.120102 0.955381 0 0.323855-0.113214 0.563005-0.342621 0.718185-0.232771 0.155181-0.600906 0.23719-1.106922 0.23719-0.49253 0-0.936093-0.03765-1.337538-0.118611 0.148434-1.194208 0.705535-1.792166 1.666979-1.792166zm-9.151904 0.09884c0.03272-0.0016 0.06511 0 0.09884 0a2.941681 2.941681 0 0 1 1.522023 0.382155v4.085081a2.5705974 2.5705974 0 0 1-1.410013 0.428274c-0.58024 0-1.014633-0.198125-1.298-0.599583-0.279999-0.404819-0.415097-1.011783-0.415097-1.838288 0-0.823131 0.12546-1.443272 0.395329-1.851464 0.246669-0.379517 0.616741-0.582456 1.106925-0.606175zm17.387956 0.02631c1.069396 0 1.607676 0.815072 1.607676 2.444459 3e-6 1.639515-0.534907 2.45764-1.607676 2.45764-1.069395 0-1.607676-0.818125-1.607676-2.45764 0-1.629387 0.534907-2.444459 1.607676-2.444459z" fill="#f1f1f1"/>
    <path id="path473" d="m28.418073 13.415687a1.3325275 1.3325275 0 0 0-0.770896 0.322842c-0.236144 0.21253-0.349207 0.505231-0.349207 0.876314a1.1402387 1.1402387 0 0 0 0.349207 0.889494 1.335901 1.335901 0 0 0 0.942205 0.322843 1.335901 1.335901 0 0 0 0.935616-0.322843 1.1469857 1.1469857 0 0 0 0.355799-0.889494c0-0.371083-0.119658-0.66041-0.355799-0.876314-0.236144-0.215903-0.544292-0.322842-0.935616-0.322842a1.3325275 1.3325275 0 0 0-0.171309 0zm-11.840152 3.399841a3.5084269 3.5084269 0 0 0-1.330945 0.26357c-0.431806 0.172048-0.806527 0.414733-1.113514 0.711594l-0.112-0.401918c-0.0506-0.226023-0.19212-0.342621-0.428274-0.342621h-1.106926c-0.131566 0-0.229194 0.02834-0.289917 0.08565-0.06072 0.05735-0.09223 0.158014-0.09223 0.303074v10.311536c0 0.14506 0.028 0.245725 0.09223 0.303074 0.06072 0.05398 0.154978 0.08565 0.289917 0.08565h1.475901c0.148433 0 0.245725-0.03171 0.303074-0.08565 0.05735-0.05735 0.08565-0.158014 0.08565-0.303074v-3.380073a2.8910787 2.8910787 0 0 0 0.968562 0.553465c0.377831 0.134939 0.777481 0.197653 1.199167 0.197653a2.8674643 2.8674643 0 0 0 1.693335-0.520519c0.492523-0.344096 0.876105-0.82835 1.166225-1.469313 0.286746-0.640962 0.428274-1.389931 0.428274-2.246796 0-1.248191-0.286274-2.232932-0.86314-2.964979-0.580233-0.732046-1.37359-1.100337-2.365395-1.100337zm19.898307 0c-0.462168 0-0.912161 0.07223-1.350714 0.224033-0.435177 0.148433-0.919593 0.403344-1.462721 0.764307l-0.12519-0.415097c-0.05398-0.226024-0.19212-0.342622-0.428274-0.342622h-1.113514c-0.131566 0-0.229195 0.02834-0.289918 0.08565-0.06072 0.05735-0.09223 0.158014-0.09223 0.303074v7.129127c0 0.13494 0.03137 0.229195 0.09223 0.289918 0.06072 0.0641 0.158352 0.09223 0.289918 0.09223h1.482489c0.14506 0 0.239146-0.028 0.296496-0.09223 0.05735-0.06072 0.08565-0.154978 0.08565-0.289918v-5.600515c0.556626-0.28 1.119843-0.415098 1.693333-0.415098 0.624095 0 0.935616 0.35253 0.935616 1.054215v4.961398c0 0.13494 0.03475 0.229195 0.09884 0.289918 0.06072 0.0641 0.154978 0.09223 0.289918 0.09223h1.469312c0.148433 0 0.245725-0.028 0.303074-0.09223 0.05735-0.06072 0.08565-0.154978 0.08565-0.289918v-5.613695c0.563372-0.266506 1.126903-0.401918 1.680155-0.401918 0.627469 0 0.935613 0.35253 0.935613 1.054215v4.961398c0 0.13494 0.03137 0.229195 0.09223 0.289918 0.06072 0.0641 0.154978 0.09223 0.289917 0.09223h1.482489c0.14506 0 0.239147-0.028 0.296496-0.09223 0.05735-0.06072 0.08565-0.154978 0.08565-0.289918v-5.462152c0-0.721923-0.198294-1.281925-0.592995-1.686743-0.398072-0.401445-0.948426-0.599584-1.666979-0.599584-0.492529 0-0.96761 0.07543-1.429778 0.230612-0.465541 0.151807-0.95301 0.406876-1.475901 0.757719-0.381204-0.661204-1.035924-0.988327-1.956886-0.988327zm12.136647 0c-1.131839 0.0447-2.020405 0.428537-2.675068 1.146459-0.694938 0.759035-1.047626 1.813408-1.047626 3.156056 0 1.308907 0.34304 2.312789 1.027858 3.011101 0.681444 0.705059 1.653643 1.047626 2.925447 1.047626a6.5884209 6.5884209 0 0 0 2.391749-0.428278 0.57011937 0.57011937 0 0 0 0.270149-0.177884c0.04386-0.06747 0.06588-0.183922 0.06588-0.349209v-0.711594c0-0.236144-0.08815-0.355798-0.263571-0.355798a0.4824087 0.4824087 0 0 0-0.07907 0.0067 10.390341 10.390341 0 0 1-1.218936 0.26357c-0.273252 0.03711-0.556625 0.05273-0.843371 0.05273-0.718553 0-1.246875-0.144588-1.601091-0.441451-0.354216-0.303614-0.565218-0.794298-0.625941-1.482489a6.1060122 6.1060122 0 0 0 1.522023 0.164727c1.130119 0 1.982822-0.198125 2.563061-0.599583 0.576867-0.394698 0.869729-0.976733 0.869726-1.752635a2.3277063 2.3277063 0 0 0-0.810426-1.858008c-0.539758-0.462168-1.285515-0.691828-2.240205-0.691828-0.07759 0-0.155147-3e-3 -0.230612 0zm-22.850105 0.151537a2.4727663 2.4727663 0 0 0-1.166224 0.289917c-0.364337 0.188916-0.751445 0.509926-1.159637 0.961974l-0.197652-0.836784c-0.05398-0.22265-0.19212-0.336033-0.428275-0.336033h-1.106925c-0.13494 0-0.235773 0.02834-0.296496 0.08565-0.06072 0.05735-0.09223 0.158014-0.09223 0.303074v7.129127c0 0.13494 0.03137 0.229195 0.09223 0.289918 0.06072 0.06072 0.161556 0.09884 0.296496 0.09884h1.469312c0.14506 0 0.249098-0.03812 0.303074-0.09884 0.05735-0.06072 0.08565-0.154978 0.08565-0.289918v-5.198598c0.236144-0.104578 0.525788-0.189489 0.863137-0.256959a4.6183043 4.6183043 0 0 1 1.291415-0.07907 3.1137289 3.1137289 0 0 0 0.276727 0.01316c0.14506 0 0.245725-0.03137 0.303074-0.09223 0.05735-0.0641 0.07907-0.161556 0.07907-0.296495v-1.298004c0-0.14506-0.03137-0.245724-0.09223-0.303074-0.0641-0.05398-0.164626-0.08565-0.309686-0.08565zm2.088661 0.07907c-0.131566 0-0.232399 0.02834-0.296495 0.08565-0.05735 0.05735-0.09223 0.158014-0.09223 0.303074v7.129127c0 0.13494 0.03137 0.229195 0.09223 0.289918 0.0641 0.06072 0.161556 0.09884 0.296495 0.09884h1.469313c0.148433 0 0.245724-0.03812 0.303074-0.09884s0.08565-0.154978 0.08565-0.289918v-7.129127c0-0.14506-0.02834-0.245725-0.08565-0.303074-0.05735-0.05735-0.151436-0.08565-0.296496-0.08565zm20.827335 1.330949c0.769148 0 1.153044 0.324057 1.153044 0.975147 0 0.330602-0.119657 0.572808-0.355795 0.731362-0.236144 0.158554-0.61698 0.243802-1.139871 0.243802-0.502649 0-0.952325-0.04085-1.363891-0.12519 0.155181-1.214449 0.721454-1.825107 1.706513-1.825107zm-32.825615 0.13838c0.583613 0 1.008356 0.195089 1.278235 0.586407 0.263132 0.391325 0.40192 1.020956 0.40192 1.877821 0 0.843372-0.135243 1.456767-0.408509 1.851465-0.269879 0.391324-0.698153 0.586406-1.271646 0.586406a2.8134885 2.8134885 0 0 1-1.502258-0.415093v-4.071904a2.9281871 2.9281871 0 0 1 1.502258-0.415098z" fill="#00a8e1"/>
  </g>
</svg>
