<?xml version="1.0" encoding="UTF-8" standalone="no"?>
<svg
   width="64"
   height="64"
   version="1.1"
   viewBox="0 0 16.933 16.933"
   id="svg2823"
   sodipodi:docname="qutebrowser.svg"
   inkscape:version="1.2 (dc2aedaf03, 2022-05-15)"
   xml:space="preserve"
   xmlns:inkscape="http://www.inkscape.org/namespaces/inkscape"
   xmlns:sodipodi="http://sodipodi.sourceforge.net/DTD/sodipodi-0.dtd"
   xmlns="http://www.w3.org/2000/svg"
   xmlns:svg="http://www.w3.org/2000/svg"
   xmlns:rdf="http://www.w3.org/1999/02/22-rdf-syntax-ns#"
   xmlns:cc="http://creativecommons.org/ns#"
   xmlns:dc="http://purl.org/dc/elements/1.1/"><sodipodi:namedview
     id="namedview2825"
     pagecolor="#ffffff"
     bordercolor="#666666"
     borderopacity="1.0"
     inkscape:showpageshadow="2"
     inkscape:pageopacity="0.0"
     inkscape:pagecheckerboard="0"
     inkscape:deskcolor="#d1d1d1"
     showgrid="false"
     inkscape:zoom="3.4140625"
     inkscape:cx="-37.199085"
     inkscape:cy="-15.524027"
     inkscape:window-width="1920"
     inkscape:window-height="1052"
     inkscape:window-x="0"
     inkscape:window-y="28"
     inkscape:window-maximized="1"
     inkscape:current-layer="svg2823" /><defs
     id="defs2807"><filter
       id="filter1057-75"
       x="-0.026999999"
       y="-0.026999999"
       width="1.054"
       height="1.054"
       color-interpolation-filters="sRGB"><feGaussianBlur
         stdDeviation="0.61875"
         id="feGaussianBlur2799" /></filter><linearGradient
       id="linearGradient1053-3"
       x1="-127"
       x2="-72"
       y1="60"
       y2="5"
       gradientTransform="matrix(0.26458,0,0,0.26458,34.7931,-0.1349)"
       gradientUnits="userSpaceOnUse"><stop
         stop-color="#32d7ff"
         offset="0"
         id="stop2802"
         style="stop-color:#02a8f3;stop-opacity:1;" /><stop
         stop-color="#329bff"
         offset="1"
         id="stop2804"
         style="stop-color:#7ebaff;stop-opacity:1;" /></linearGradient></defs><metadata
     id="metadata2809"><rdf:RDF><cc:Work
         rdf:about=""><dc:format>image/svg+xml</dc:format><dc:type
           rdf:resource="http://purl.org/dc/dcmitype/StillImage" /></cc:Work></rdf:RDF></metadata><rect
     transform="scale(0.26458)"
     x="4.5"
     y="4.5"
     width="55"
     height="55"
     ry="15"
     fill="#141414"
     filter="url(#filter1057-75)"
     opacity="0.3"
     stroke-linecap="round"
     stroke-width="2.7444"
     id="rect2811" /><rect
     x="1.1906"
     y="1.1906"
     width="14.552"
     height="14.552"
     ry="3.9686999"
     fill="url(#linearGradient1053-3)"
     stroke-linecap="round"
     stroke-width="0.72611"
     id="rect2813"
     style="fill:url(#linearGradient1053-3)" /><path
     d="m 5.1594,1.1906 c -0.47217,0 -0.92269,0.085667 -1.342,0.23564 C 4.23788,1.81441 4.19683,1.97201 4.09542,2.01535 4.082462,2.02056 3.55001,1.80002 3.24018,1.68307 c -1.2236,0.67455 -2.0495,1.9749 -2.0495,3.4763 v 0.041341 c 0.018827,-1.35e-4 0.038402,-8.731e-4 0.042375,-0.00103 0.086505,-0.00161 0.21095,0.02358 0.29404,0.041341 0.076665,0.015772 0.1388,0.066846 0.20516,0.07183 0.18831,0.014425 0.23344,-0.13191 0.38706,-0.21394 0.15876,0.022177 0.26388,-0.027408 0.40721,-0.011369 0.097711,0.011089 0.16829,0.11558 0.24443,0.12144 0.064048,0.00624 0.12045,-0.060122 0.18242,-0.050643 0.060221,0.00947 0.16435,0.14034 0.17415,0.21394 0.012703,0.091602 -0.067258,0.1743 -0.040824,0.27492 0.095967,0.097716 0.27013,0.11734 0.40721,0.17363 0.089298,-0.07358 0.012004,-0.20976 0,-0.31626 -0.00161,-0.047044 0.00624,-0.08908 0,-0.13229 C 3.486001,5.298929 3.454604,5.23197 3.45412,5.16919 3.4525059,4.87927 3.68754,4.74364 3.882,4.62917 3.966174,4.579273 4.03273,4.49154 4.10576,4.45502 4.20893,4.403347 4.28598,4.391385 4.37138,4.3434 4.52575,4.256702 4.65788,4.1874 4.77859,4.08915 4.834295,3.95768 4.78392,3.78138 4.788925,3.65145 c 0.055732,-0.03418 0.10359,0.014393 0.16278,0.00982 0.09312,-0.019217 0.10121,-0.15062 0.154,-0.20309 0.030627,-0.030197 0.11435,-0.051662 0.15245,-0.081649 0.092818,-0.072795 0.12303,-0.18255 0.20412,-0.21394 0.02912,-0.011949 0.09625,-0.00802 0.14211,-0.020672 0.060318,-0.016039 0.14618,-0.087244 0.24443,-0.12092 0.064027,-0.022177 0.21069,-0.026938 0.23513,-0.05116 0.030197,-0.030735 -4.763e-4,-0.11729 0.010335,-0.1633 0.049412,-0.22999 0.39621,-0.2786 0.601,-0.35605 C 6.83882,2.396366 6.98611,2.296399 7.14383,2.326979 7.112879,2.436289 6.96597,2.397832 6.99087,2.530589 7.02521,2.714789 7.27151,2.477834 7.33659,2.45049 7.46087,2.398225 7.67424,2.366006 7.83733,2.30683 7.98035,2.254565 8.2367,2.17481 8.10191,2.01124 7.98946,2.005 7.93533,2.14298 7.83733,2.18487 7.76965,2.196012 7.78258,2.128262 7.72468,2.122858 7.669964,2.116618 7.638971,2.173533 7.58257,2.163682 7.526527,2.1544254 7.4482,2.066458 7.43943,2.000902 7.417258,1.830822 7.58292,1.760872 7.65337,1.634002 7.606594,1.480182 7.39389,1.602185 7.26528,1.542018 7.277927,1.450416 7.37273,1.387438 7.47974,1.369938 7.567447,1.35519 7.76392,1.362978 7.81615,1.409212 7.846456,1.435318 7.81829,1.499298 7.86731,1.542022 7.9192,1.589066 7.98339,1.583793 8.05076,1.573028 8.07471,1.456928 7.89994,1.485986 7.91898,1.409218 8.05661,1.319188 8.28016,1.393154 8.44866,1.368394 8.54564,1.353969 8.64743,1.285493 8.7334,1.237134 8.75991,1.222036 8.79109,1.206411 8.82125,1.190625 Z m 3.8483,0 C 9.02506,1.269613 8.93154,1.29741 8.88626,1.33788 8.73039,1.47656 8.56972,1.63571 8.44856,1.79677 8.52288,1.869285 8.65813,1.832751 8.78394,1.84793 8.83314,1.85417 8.89472,1.868784 8.94672,1.878419 9.0076,1.889561 9.07229,1.885979 9.11984,1.898573 9.20545,1.91935 9.22836,2.010713 9.31311,2.010713 9.45251,2.0104654 9.45413,1.859953 9.37512,1.765763 9.40004,1.669608 9.43918,1.619693 9.40561,1.552343 9.34282,1.426763 9.11255,1.546273 9.10072,1.389563 9.09352,1.287973 9.18586,1.292428 9.22268,1.216443 9.221859,1.206853 9.223659,1.199363 9.22368,1.190605 Z M 4.3501,2.12698 h 0.00103 c 0.047529,0.00624 0.10482,0.057598 0.16226,0.062012 0.054122,0.00161 0.098812,-0.030036 0.13229,-0.020671 0.085196,0.02223 0.12114,0.1514 0.040824,0.21446 -0.066608,0.00802 -0.092423,-0.029304 -0.14263,-0.020154 -0.13837,0.0232 -0.19164,0.29423 -0.29507,0.28525 C 4.151287,2.640077 4.098944,2.401837 4.198161,2.331097 4.204401,2.26931 4.152858,2.259844 4.156303,2.198807 4.185746,2.161344 4.269043,2.120954 4.350093,2.127494 Z M 3.89121,2.159019 c 0.028366,0.00108 0.049513,0.00767 0.060462,0.020154 -0.013618,0.1086 -0.098535,0.10132 -0.18242,0.15193 -0.14487,0.087424 -0.22831,0.22046 -0.2744,0.40721 C 3.481395,2.79243 3.338492,2.936693 3.269542,2.922283 3.107972,2.888265 3.31461,2.590313 3.351191,2.545043 3.392153,2.494877 3.446817,2.451047 3.494851,2.393113 3.541411,2.337037 3.571911,2.261453 3.616811,2.230333 3.666008,2.196315 3.806101,2.155725 3.89121,2.159019 Z m 1.2061,0.36639 c 0.051673,0.00108 0.098138,0.0095 0.11937,0.030489 C 5.183469,2.690448 4.89377,2.654721 4.78777,2.606024 4.79401,2.55532 4.873525,2.541326 4.94022,2.53471 4.987264,2.5331 5.04566,2.523686 5.09732,2.52541 Z M 4.4374,2.773459 C 4.471741,2.772379 4.507149,2.779519 4.54334,2.789479 4.44958,2.867909 4.34779,2.912669 4.18677,2.963629 4.109346,2.987796 3.97563,3.01811 3.96249,2.931589 3.946448,2.825619 4.07577,2.850117 4.14646,2.840639 4.235473,2.828151 4.33311,2.776835 4.4374,2.773459 Z m 10.119,0.6041 c -0.01216,0.029101 -0.02093,0.057527 -0.01964,0.085266 0.0062,0.049197 0.06034,0.096273 0.07235,0.16278 0.0062,0.03531 -0.01654,0.1115 0,0.14366 0.04909,0.095122 0.17739,0.027195 0.26923,0.032039 -0.10432,-0.14366 -0.20841,-0.28765 -0.32194,-0.42375 z m 0.5209,0.70073 c -0.01478,0.07015 -0.0628,0.16163 -0.10128,0.22014 -0.08881,0.13507 -0.20908,0.1414 -0.33641,0.21342 -0.10619,0.06021 -0.15219,0.1604 -0.21446,0.2651 -0.06747,0.11312 -0.10945,0.18182 -0.08165,0.34572 -0.09105,0.18059 -0.22845,0.29082 -0.41703,0.37672 -0.0557,0.025191 -0.13227,0.035024 -0.18345,0.07183 -0.04059,0.029443 -0.06403,0.10755 -0.12196,0.1726 -0.07144,0.079523 -0.14589,0.1134 -0.18345,0.17415 -0.02912,0.047044 -0.03937,0.1401 -0.07183,0.20309 -0.04371,0.085573 -0.13614,0.12776 -0.19327,0.21446 -0.02606,0.039939 -0.04333,0.12113 -0.07183,0.17363 -0.06458,0.11729 -0.17514,0.20172 -0.1633,0.30489 0.01196,0.099719 0.1251,0.1172 0.13281,0.20412 0.0016,0.049143 -0.03248,0.079278 -0.03049,0.13281 0.0016,0.078188 0.05431,0.1331 0.06046,0.19327 0.01524,0.15126 -0.05101,0.2113 -0.07958,0.31471 -0.01363,0.049413 -0.0075,0.10508 -0.02067,0.14366 -0.02545,0.075701 -0.13069,0.14406 -0.13281,0.23358 -0.0011,0.06364 0.06546,0.11481 0.0708,0.20412 0.0016,0.06165 -0.03084,0.12735 -0.01964,0.18397 0.02148,0.11084 0.21974,0.23997 0.30592,0.32608 0.11525,0.11528 0.26606,0.20461 0.31574,0.32608 0.04166,0.10314 0.0414,0.23695 0.12196,0.31471 0.05942,0.05738 0.15797,0.09328 0.23409,0.15296 0.07102,0.05563 0.14839,0.10368 0.22428,0.16278 0.12401,0.09704 0.31198,0.29034 0.50953,0.27544 0.10317,-0.0071 0.20853,-0.09133 0.32556,-0.11214 0.12039,-0.02137 0.27698,-0.03291 0.39843,-0.02015 0.09303,0.0093 0.18854,0.06491 0.28525,0.06046 0.03298,-0.002 0.06779,-0.0125 0.10335,-0.02584 v -4.5687 c -0.18723,-0.43321 -0.40738,-0.84862 -0.66508,-1.2377 z m -13.142,2.6686 -5.159e-4,0.00156 c -0.16926,0.00941 -0.2805,0.016878 -0.37672,0.060451 -0.20889,0.095061 -0.18396,0.36544 -0.36794,0.45372 v 0.95136 c 0.010463,0.0018 0.020526,0.0029 0.031006,0.0052 0.052534,0.01195 0.092902,0.03445 0.14366,0.05168 0.10779,0.03644 0.23987,0.03182 0.32608,0.07028 0.12986,0.05764 0.22473,0.30209 0.33641,0.36742 0.00624,0.06584 -0.012561,0.15404 0.010852,0.20309 0.052588,0.0716 0.12702,0.05558 0.21394,0.10232 0.10401,0.05608 0.13555,0.2012 0.23409,0.24546 0.033964,0.01518 0.11935,0.01293 0.17312,0.02945 0.13504,0.04069 0.1793,0.19745 0.29507,0.1633 0.075911,-0.02218 0.06985,-0.10054 0.082166,-0.17312 0.050166,-0.05413 0.10524,-0.14057 0.18345,-0.14211 0.12659,-0.0062 0.13742,0.1308 0.18345,0.25373 0.026159,0.0695 0.094381,0.1298 0.11214,0.20309 0.031596,0.1266 0.01565,0.5057 -0.011369,0.58136 -0.031919,0.09284 -0.15763,0.1322 -0.23513,0.23513 -0.03644,0.04834 -0.053939,0.11905 -0.081649,0.15296 -0.049897,0.0608 -0.1239,0.07675 -0.16123,0.13281 -0.020939,0.0316 -0.041439,0.09944 -0.062012,0.14211 -0.061179,0.12966 -0.14293,0.22108 -0.091467,0.37672 0.021368,0.06404 0.12118,0.10704 0.12144,0.18242 2.91e-4,0.08871 -0.18846,0.16837 -0.20309,0.26562 -0.011142,0.07238 0.058633,0.20143 0.081649,0.29559 0.016849,0.07115 0.15131,0.11546 0.19327,0.16278 0.071503,0.0803 0.12846,0.19422 0.19379,0.29507 0.12918,0.19836 0.23027,0.44034 0.35605,0.63252 0.066448,0.10066 0.15984,0.1911 0.20412,0.29559 0.022445,0.05259 0.019585,0.1154 0.040308,0.16278 0.072789,0.16434 0.39424,0.33597 0.56017,0.41755 0.077666,0.03762 0.16385,0.05131 0.23513,0.09095 0.10798,0.06022 0.32168,0.22208 0.3762,0.31678 0.048659,0.08509 0.078706,0.29205 0.10232,0.42736 0.03165,0.17884 8.467e-4,0.31637 0.010853,0.51005 0.00624,0.10475 0.039532,0.2097 0.040824,0.31471 3.969e-4,0.03665 -0.019219,0.06427 -0.020669,0.1018 -5.9e-5,0.0058 0.00206,0.01309 0.00206,0.01912 0.028903,0.01308 0.058767,0.02445 0.08785,0.03721 H 9.195776 c 0.0016,-0.01742 -7.41e-4,-0.03409 0.0041,-0.05219 0.04871,-0.18293 0.30175,-0.29469 0.47904,-0.37724 0.06092,-0.02837 0.12297,-0.07421 0.1726,-0.09147 0.12269,-0.04274 0.27595,-0.01927 0.38809,-0.06046 0.1909,-0.06986 0.21076,-0.27462 0.30489,-0.44855 0.04462,-0.08231 0.10343,-0.16512 0.11214,-0.22376 0.0074,-0.05259 -0.01955,-0.10214 -0.01137,-0.16433 0.009,-0.06152 0.06459,-0.11479 0.08165,-0.18242 0.02217,-0.08824 0.03204,-0.21746 0.03204,-0.31574 0,-0.0807 -0.03786,-0.15148 -0.04082,-0.22428 -0.01333,-0.26427 0.09548,-0.29386 0.19327,-0.4377 0.04909,-0.07143 0.06756,-0.15291 0.1018,-0.20412 0.16415,-0.24488 0.44899,-0.36309 0.4284,-0.73329 -0.0062,-0.1225 -0.08402,-0.39965 -0.17415,-0.43873 -0.05151,-0.02223 -0.16983,-0.0016 -0.24443,-0.03049 -0.24081,-0.0898 -0.38195,-0.38812 -0.63149,-0.40721 -0.05313,-0.0062 -0.10229,0.02164 -0.16226,0.02067 -0.09876,-0.0062 -0.24777,-0.06932 -0.35708,-0.08165 -0.06949,-0.0071 -0.16241,0.02051 -0.20412,0 -0.06356,-0.031 -0.06968,-0.14797 -0.12144,-0.18294 -0.04075,-0.02853 -0.12119,-0.03765 -0.18345,-0.06201 -0.10033,-0.03816 -0.17984,-0.08341 -0.29559,-0.09147 -0.03563,-0.0016 -0.08036,0.01667 -0.12196,0.01085 -0.06404,-0.01114 -0.11455,-0.0865 -0.17363,-0.12247 -0.07406,-0.04527 -0.14252,-0.067 -0.17312,-0.13126 0.06689,-0.21943 -0.11779,-0.28041 -0.16278,-0.40721 C 8.414726,10.24387 8.424276,10.17231 8.405616,10.11932 8.378756,10.04338 8.303946,9.99972 8.221646,9.93639 8.074226,9.82292 7.943476,9.7164 7.7327861,9.69041 7.6401631,9.67846 7.5480861,9.71835 7.4361661,9.71108 7.3175861,9.70398 7.1688061,9.59956 7.0801161,9.49817 6.9938701,9.39918 6.9521661,9.31035 6.8770261,9.26304 6.8058691,9.21723 6.7111461,9.21866 6.6625661,9.17261 6.6409761,9.15248 6.6450561,9.11757 6.6217421,9.06977 6.5860551,8.99569 6.5257991,8.95442 6.5705821,8.86565 6.4893841,8.82388 6.4868161,8.94309 6.3979821,8.92766 6.3187661,8.81528 6.2522521,8.76243 6.0724221,8.79537 5.9900841,8.8106 5.9440821,8.91422 5.8481421,8.91681 5.7694431,8.92301 5.7076321,8.82926 5.6037121,8.81449 5.5252551,8.80335 5.4357921,8.83541 5.3799521,8.82534 5.2930061,8.80801 5.2661321,8.736 5.1866821,8.68375 5.1284371,8.64564 5.0152221,8.57986 4.9825621,8.58091 c -0.10241,0.0062 -0.17505,0.21795 -0.31626,0.14314 -0.06865,-0.08701 0.11181,-0.13307 0.030489,-0.21446 -0.061706,-0.06171 -0.11393,0.02815 -0.1633,0.06201 -0.056588,0.03886 -0.10955,0.07814 -0.17208,0.10129 -0.13995,0.05227 -0.22757,0.02473 -0.33693,0.08113 -0.10127,0.05232 -0.10541,0.14022 -0.16278,0.24443 -0.047044,0.08539 -0.15377,0.20982 -0.22428,0.21497 -0.085379,0.0062 -0.16699,-0.11948 -0.24443,-0.15296 -0.23332,-0.10108 -0.34629,0.08991 -0.54002,0.0925 -0.17981,0.0062 -0.43691,-0.29035 -0.42788,-0.4594 0.00161,-0.10313 0.059773,-0.25943 0.07183,-0.38706 0.011142,-0.10148 0.079948,-0.16262 0.081132,-0.25528 0.00165,-0.12376 -0.16407,-0.2189 -0.2444,-0.2336 -0.19034,-0.034933 -0.45467,0.076368 -0.67283,-0.011369 -0.041554,-0.069038 0.049072,-0.11682 0.072347,-0.18397 0.013405,-0.038007 0.00518,-0.089252 0.019121,-0.13126 0.023953,-0.064893 0.092589,-0.11472 0.12299,-0.18345 0.022392,-0.052319 0.02809,-0.12819 0.050643,-0.19327 0.027075,-0.074103 0.075884,-0.12218 0.081649,-0.17415 0.00705,-0.068628 -0.018509,-0.14803 -0.072347,-0.19327 z m 2.7233,2.1585 c 0.068358,0.0072 0.077221,0.14875 0.00672,0.1602 -0.076191,0.012 -0.11499,-0.11979 -0.040824,-0.154 0.012597,-0.0062 0.02431,-0.0061 0.034106,-0.0057 z"
     fill="#ffffff"
     opacity="0.4"
     stroke-width="0.53826"
     id="path2815"
     style="fill:#cee5fd;fill-opacity:1;opacity:0.4" /><path
     inkscape:label="qutebrowser-letterform-classical"
     sodipodi:nodetypes="cccccssccsccccssccsccccsccccc"
     inkscape:connector-curvature="0"
     id="qutebrowser-letterform-classical-clone"
     d="M 10.292338,3.7040937 8.6324648,4.6940941 V 7.2261516 L 10.292338,6.2361523 Z M 7.4068666,3.9255823 C 5.884894,3.9171861 3.0017185,4.3567758 2.9889469,7.6205647 2.973454,11.579822 5.9405074,10.675897 6.6129749,10.276339 7.9059632,9.5128052 9.238084,8.7050062 10.458341,7.9900524 c 0.664528,-0.3887175 1.90882,-0.6417819 1.90882,1.1840664 0,1.8258492 -1.35104,2.3919792 -2.074823,2.3528552 V 8.4434282 l -1.6598732,0.979639 v 3.5189178 c 0.089403,0.01835 0.4277568,0.06287 0.8936662,0.06543 1.521973,0.0084 4.40515,-0.431194 4.417922,-3.694982 C 13.959546,5.3531793 10.992494,6.2571039 10.320024,6.6566618 9.0270356,7.4201992 7.6949159,8.2279977 6.4746591,8.9429492 5.8101314,9.3316667 4.5658393,9.5847312 4.5658393,7.7588828 c 0,-1.8258495 1.35104,-2.3919796 2.0748215,-2.3528563 V 8.4895734 L 8.3005351,7.5099349 V 3.991016 C 8.2111318,3.9726821 7.8727771,3.9281473 7.4068666,3.9255823 Z M 8.3005351,9.7068482 6.6406608,10.696847 v 2.532059 l 1.6598743,-0.99 z"
     style="fill:#015479;fill-opacity:1;fill-rule:evenodd;stroke-width:0.0193651"><title
       id="title4559">qutebrowser-letterform-classical</title></path></svg>
