<svg id="svg356" version="1.1" viewBox="0 0 64 64" xmlns="http://www.w3.org/2000/svg">
    <defs id="defs344">
        <style id="style332" type="text/css"/>
        <style id="style334" type="text/css"/>
        <filter id="filter1057" x="-.026999999" y="-.026999999" width="1.054" height="1.054" color-interpolation-filters="sRGB">
            <feGaussianBlur id="feGaussianBlur336" stdDeviation="0.61875"/>
        </filter>
        <linearGradient id="linearGradient1053" x1="-127" x2="-72" y1="60" y2="5" gradientTransform="translate(131.5 -.51)" gradientUnits="userSpaceOnUse">
            <stop id="stop339" stop-color="#ffd53f" offset="0"/>
            <stop id="stop1224" stop-color="#eed64e" offset=".06"/>
            <stop id="stop1226" stop-color="#a6db8c" offset=".31999999"/>
            <stop id="stop1228" stop-color="#6ddebe" offset=".55000001"/>
            <stop id="stop1230" stop-color="#44e1e1" offset=".75"/>
            <stop id="stop1232" stop-color="#2be2f7" offset=".91000003"/>
            <stop id="stop341" stop-color="#22e3ff" offset="1"/>
        </linearGradient>
        <linearGradient id="linearGradient1415" x1="65.93" x2="70.75" y1="21.5" y2="128.94" gradientTransform="matrix(.37853695 0 0 .37853695 -86.64571 0)" gradientUnits="userSpaceOnUse">
            <stop id="stop515" stop-color="#566690" offset=".06"/>
            <stop id="stop517" stop-color="#00293e" offset=".54"/>
            <stop id="stop519" stop-color="#001723" offset=".7"/>
            <stop id="stop521" stop-color="#000609" offset=".89"/>
            <stop id="stop523" offset="1"/>
        </linearGradient>
        <filter id="filter913" x="-.026952677" y="-.027047488" width="1.0539054" height="1.054095" color-interpolation-filters="sRGB">
            <feGaussianBlur id="feGaussianBlur915" stdDeviation="0.51659299"/>
        </filter>
    </defs>
    <rect id="rect346" x="4.5" y="4.5" width="55" height="55" ry="15" fill="#141414" filter="url(#filter1057)" opacity=".3" stroke-linecap="round" stroke-width="2.7444"/>
    <rect id="rect348" x="4.5" y="4.5" width="55" height="55" ry="15" fill="url(#linearGradient1053)" stroke-linecap="round" stroke-width="2.7444"/>
    <circle id="circle350" cx="-1326.3" cy="-1241.6" r="0" fill="#5e4aa6"/>
    <circle id="circle352" cx="-226.72" cy="23.855" r="0" fill="#5e4aa6" fill-rule="evenodd"/>
    <g id="g274" transform="translate(-4)">
        <path id="path321" d="m53.443994 32.18261c-8.788017-15.322922-15.73728-16.583286-20.808952-14.192047-2.477575 1.169722-1.441658 2.244484-4.972401 1.471864-3.14228-0.686294-4.60551-0.919376-7.367957 0.366886-2.762435 1.286262-3.884681 2.948045-3.884681 3.686135s0.738092-1.104978 2.762446-1.294895c2.024354-0.189918 4.791111 0 7.001065 1.657465 2.209955 1.657466 2.391234 2.209954 2.391234 2.948044s-2.883291-0.32804-5.706171 0.366887c-2.494827 0.612917-4.419899 1.471864-4.605511 2.209954-0.1856 0.73809 5.019882 0.189918 7.182356 0.185602 1.027286 0.03453 1.873281-0.289194 2.589788 1.104976 0.742414 1.467548 0.919382 2.58979 1.843064 2.943727 0.923692 0.353939 1.104983-0.733774 2.209954 1.476181 1.104983 2.209954 1.471863 3.496216 0.181291 6.811147-1.290584 3.31493-2.020033 5.542149-1.467553 4.985344 0.431635-0.431631 1.428704-0.535222 1.925083-1.178353-0.13812 1.18267 0 3.358093 1.575456 5.783863 2.762435 4.234305 6.802511 3.884684 12.517314 5.347916 8.895932 2.240167 13.324473 2.369656 15.189111 5.408344 0.366891 0.599967 0.599972 1.126558 0.207185-0.310775-1.83011-6.694607-3.371038-20.381645-8.762121-29.778265z" filter="url(#filter913)" opacity=".3" stroke-width=".431632"/>
        <g id="g1413" transform="matrix(1.1402628,0,0,1.1402628,108.58334,7.6314046)" stroke-width=".378537">
            <path id="path1409" d="m-48.3567 21.531182c-7.70701-13.438062-13.80145-14.54339-18.24926-12.446295-2.17281 1.025835-1.26432 1.968392-4.36075 1.290811-2.75575-0.601874-4.03899-0.806284-6.46163 0.321756-2.42263 1.12804-3.40683 2.585408-3.40683 3.232706s0.6473-0.969055 2.42264-1.135611 4.20176 0 6.13987 1.453582 2.09709 1.938109 2.09709 2.585407-2.52862-0.287688-5.00426 0.321757c-2.18794 0.537522-3.87621 1.290811-4.03899 1.938109-0.16277 0.647298 4.40239 0.166556 6.29886 0.162771 0.90092 0.03028 1.64285-0.25362 2.27122 0.969054 0.65109 1.287026 0.80629 2.271222 1.61635 2.581622 0.81007 0.310401 0.96906-0.643513 1.93811 1.294597 0.96906 1.938109 1.29081 3.066149 0.15899 5.973313-1.13183 2.907163-1.77155 4.860414-1.28703 4.372101 0.37854-0.378536 1.25296-0.469385 1.68828-1.033405-0.12113 1.037191 0 2.945017 1.38166 5.072395 2.42263 3.713447 5.96574 3.406832 10.97757 4.690073 7.80165 1.964606 11.68544 2.078167 13.32071 4.743068 0.32176 0.526166 0.52617 0.987981 0.1817-0.272547-1.60499-5.871108-2.95637-17.874515-7.6843-26.115264z" fill="url(#linearGradient1415)"/>
            <circle id="circle1411" cx="-65.686127" cy="11.85578" r=".91984481" fill="#fff"/>
        </g>
    </g>
</svg>
