<svg id="svg376" version="1.1" viewBox="0 0 64 64" xmlns="http://www.w3.org/2000/svg">
  <defs id="defs364">
    <style id="style352" type="text/css"/>
    <style id="style354" type="text/css"/>
    <filter id="filter1057" x="-.026999999" y="-.026999999" width="1.054" height="1.054" color-interpolation-filters="sRGB">
      <feGaussianBlur id="feGaussianBlur356" stdDeviation="0.61875"/>
    </filter>
    <linearGradient id="linearGradient1053" x1="-127" x2="-72" y1="60" y2="5" gradientTransform="translate(131.5 -.51)" gradientUnits="userSpaceOnUse">
      <stop id="stop359" stop-color="#ff8b1a" offset="0"/>
      <stop id="stop361" stop-color="#ffa348" offset="1"/>
    </linearGradient>
  </defs>
  <rect id="rect366" x="4.5" y="4.5" width="55" height="55" ry="15" fill="#141414" filter="url(#filter1057)" opacity=".3" stroke-linecap="round" stroke-width="2.7444"/>
  <rect id="rect368" x="4.5" y="4.5" width="55" height="55" ry="15" fill="url(#linearGradient1053)" stroke-linecap="round" stroke-width="2.7444"/>
  <circle id="circle370" cx="-1326.3" cy="-1241.6" r="0" fill="#5e4aa6"/>
  <circle id="circle372" cx="-226.72" cy="23.855" r="0" fill="#5e4aa6" fill-rule="evenodd"/>
  <g id="g1714" transform="matrix(.93051338 0 0 .93051338 -10.769433 -12.660821)" fill="#ffffff">
    <path id="path1482" d="m39.305 29.99924a3.903 3.5139099 0 0 0-3.578 2.171548 3.905 3.5157106 0 0 0 2.113 4.594282l3.058 6.647889-7.382-2.753148a3.905 3.5157106 0 0 0-5.102-1.902355 3.904 3.5148102 0 1 0 2.984 6.495736l7.387 2.754049-7.387 2.749546a3.9061704 3.5167643 0 1 0-2.984 6.500239 3.907 3.5175112 0 0 0 5.102-1.905957l7.382-2.754948-3.058 6.653291a3.898 3.5094084 0 0 0-2.113 4.58978 3.898 3.5094084 0 0 0 5.101 1.902355 3.905 3.5157106 0 0 0 2.113-4.594282l3.059-6.644288 3.059 6.644288a3.905 3.5157106 0 0 0 2.113 4.594282 3.898 3.5094084 0 0 0 5.101-1.902355 3.902 3.5130096 0 0 0-2.113-4.58978l-3.058-6.653291 7.386 2.754948a3.903 3.5139099 0 0 0 5.102 1.905957 3.908 3.5184115 0 0 0-2.992-6.500239l-7.383-2.749546 7.383-2.754949a3.905 3.5157106 0 1 0-2.11-4.593382l-7.386 2.754949 3.058-6.648789a3.908 3.5184115 0 0 0 2.113-4.594282 3.9050072 3.515717 0 0 0-7.215 2.691927l-3.058 6.647889-3.059-6.647889a3.905 3.5157106 0 0 0-2.113-4.594282 3.85 3.4661935 0 0 0-1.523-0.269193z" stroke="#c64600" stroke-width="7.99973"/>
    <path id="path1484" d="m39.305 30c-1.52 0.012-2.961 0.824-3.578 2.172-0.829 1.793 0.12 3.848 2.113 4.594l3.058 6.648-7.382-2.754c-0.828-1.793-3.114-2.648-5.102-1.902-1.996 0.742-2.941 2.797-2.117 4.594 0.828 1.793 3.11 2.644 5.101 1.902l7.387 2.754-7.387 2.75c-1.992-0.742-4.273 0.11-5.101 1.906-0.824 1.793 0.121 3.848 2.117 4.594 1.988 0.742 4.273-0.11 5.102-1.906l7.382-2.754-3.058 6.652c-1.992 0.742-2.942 2.797-2.113 4.59 0.824 1.797 3.109 2.648 5.101 1.902 1.992-0.742 2.938-2.797 2.113-4.594l3.059-6.644 3.059 6.644c-0.825 1.797 0.12 3.852 2.113 4.594 1.992 0.746 4.277-0.105 5.101-1.902 0.825-1.793-0.12-3.848-2.113-4.59l-3.058-6.652 7.386 2.754c0.825 1.796 3.106 2.648 5.102 1.906 1.992-0.746 2.937-2.801 2.113-4.594-0.824-1.797-3.11-2.648-5.105-1.906l-7.383-2.75 7.383-2.754c1.996 0.742 4.28-0.11 5.105-1.902 0.824-1.797-0.121-3.852-2.113-4.594-1.996-0.746-4.278 0.11-5.102 1.902l-7.386 2.754 3.058-6.648c1.992-0.746 2.938-2.801 2.113-4.594-0.824-1.797-3.109-2.645-5.101-1.902-1.992 0.742-2.938 2.796-2.113 4.593l-3.059 6.649-3.059-6.649c0.825-1.797-0.12-3.851-2.113-4.593a4.223 4.223 0 0 0-1.523-0.27z"/>
  </g>
</svg>
