<svg id="svg290" version="1.1" viewBox="0 0 64 64" xmlns="http://www.w3.org/2000/svg">
    <defs id="defs278">
        <style id="style266" type="text/css"/>
        <style id="style268" type="text/css"/>
        <filter id="filter1057" x="-.026999999" y="-.026999999" width="1.054" height="1.054" color-interpolation-filters="sRGB">
            <feGaussianBlur id="feGaussianBlur270" stdDeviation="0.61875"/>
        </filter>
        <style id="style266-7" type="text/css"/>
        <style id="style268-5" type="text/css"/>
        <style id="style266-6" type="text/css"/>
        <style id="style268-1" type="text/css"/>
    </defs>
    <rect id="rect280" x="4.4999995" y="4.4999995" width="55" height="55" ry="15" fill="#141414" filter="url(#filter1057)" opacity=".3" stroke-linecap="round" stroke-width="2.7444"/>
    <rect id="rect282" x="4.5" y="4.5" width="55" height="55" ry="15" fill="#241f31" stroke-linecap="round" stroke-width="2.7444"/>
    <g id="g17" fill="#5e4aa6">
        <circle id="circle284" cx="-1326.3" cy="-1241.6" r="0"/>
        <circle id="circle286" cx="-226.72" cy="23.855" r="0" fill-rule="evenodd"/>
        <circle id="circle284-9" cx="-1432.0586" cy="-1259.9023" r="0"/>
        <circle id="circle286-1" cx="-332.47855" cy="5.5526013" r="0" fill-rule="evenodd"/>
    </g>
    <g id="g1247" transform="matrix(.92727273 0 0 .92727273 2.3272726 2.3272726)">
        <path id="rect282-2" d="m19.5 4.5c-4.450154 0-8.423658 1.9297973-11.166016 4.9882812l20.775391 20.775391 23.427734-23.427734c-2.322011-1.4726341-5.072571-2.3359375-8.037109-2.3359375z" fill="#f76a8c" stroke-width="1.05455"/>
        <g id="g26" stroke-width=".613853">
            <path id="path939" d="m53.578125 7.5625-8.474609 8.476562 14.396484 14.396485v-10.935547c0-4.887783-2.32464-9.20229-5.921875-11.9375z" fill="#d0f08f"/>
            <path id="path941" d="M 45.103516,16.039062 29.144531,32 45.103516,47.960938 59.5,33.564453 v -3.128906 z" fill="#fbfafa"/>
            <path id="path943" d="M 59.5,33.564453 33.566406,59.5 H 44.5 c 8.309992,0 15,-6.690008 15,-15 z" fill="#7ff0c1"/>
            <path id="path945" d="m29.144531 32-15.958984 15.960938h31.917969z" fill="#f8c258"/>
            <path id="path947" d="m 13.185547,47.960938 -5.6210939,5.61914 C 10.299754,57.17607 14.613202,59.5 19.5,59.5 H 33.5625 L 45.103516,47.960938 Z" fill="#f7fa96"/>
            <path id="path949" d="M 7.5644531,10.419922 C 5.6483793,12.938908 4.5,16.076806 4.5,19.5 v 25 c 0,3.422773 1.1468541,6.561247 3.0625,9.080078 L 29.144531,32 Z" fill="#6562eb"/>
        </g>
        <path id="path951" d="m52.517578 6.8242188-23.4375 23.439453-20.761719-20.759766c-0.9009204 0.2493127-1.4526403 0.8545212-1.4941406 1.9785162l20.519531 20.517578-20.519531 20.519531c0.1191002 1.096515 0.8259808 1.503784 1.4941406 1.976563l5.308594-5.308594h28.449219l-10.3125 10.3125c1.157552 0.295032 2.315104 0.675181 3.472656 0l24.263672-24.263672c0.580848-2.132489 0.497462-4.293639 0-6.472656l-12.724609-12.72461 7.720703-7.720703c0.186296-1.5326118-1.269928-1.0582132-1.978516-1.4941402zm-7.478516 10.951172 14.22461 14.224609-14.22461 14.224609-14.222656-14.224609zm-15.958984 15.960937 12.996094 12.996094h-25.994141z" fill="#241f31"/>
    </g>
</svg>
