<svg id="svg290" version="1.1" viewBox="0 0 64 64" xmlns="http://www.w3.org/2000/svg" xmlns:xlink="http://www.w3.org/1999/xlink">
    <defs id="defs278">
        <style id="style266" type="text/css"/>
        <style id="style268" type="text/css"/>
        <filter id="filter1057" x="-.026999999" y="-.026999999" width="1.054" height="1.054" color-interpolation-filters="sRGB">
            <feGaussianBlur id="feGaussianBlur270" stdDeviation="0.61875"/>
        </filter>
        <linearGradient id="linearGradient1053" x1="-127" x2="-72" y1="60" y2="5" gradientTransform="translate(131.5 -.51)" gradientUnits="userSpaceOnUse">
            <stop id="stop273" stop-color="#f0bc0a" offset="0"/>
            <stop id="stop275" stop-color="#f5c419" offset="1"/>
        </linearGradient>
        <linearGradient id="linearGradient1408" x1="-127" x2="-72" y1="60" y2="5" gradientTransform="matrix(.87245152 0 0 .87245152 118.80893 3.636602)" gradientUnits="userSpaceOnUse">
            <stop id="stop1410" stop-color="#f0bc0a" offset="0"/>
            <stop id="stop1412" stop-color="#f5c419" offset="1"/>
        </linearGradient>
    </defs>
    <rect id="rect280" x="4.5" y="4.5" width="55" height="55" ry="15" fill="#141414" filter="url(#filter1057)" opacity=".3" stroke-linecap="round" stroke-width="2.7444"/>
    <rect id="rect282" x="4.5" y="4.5" width="55" height="55" ry="15" fill="url(#linearGradient1053)" stroke-linecap="round" stroke-width="2.7444"/>
    <circle id="circle284" cx="-1326.3" cy="-1241.6" r="0" fill="#5e4aa6"/>
    <circle id="circle286" cx="-226.72" cy="23.855" r="0" fill="#5e4aa6" fill-rule="evenodd"/>
    <rect id="rect1406" x="8.0075836" y="8.0075836" width="47.984833" height="47.984833" ry="13.086773" fill="url(#linearGradient1408)" stroke="#3d3846" stroke-linecap="round" stroke-width="2.01517"/>
    <g id="g1935" transform="translate(-6.5394735)" fill="#3d3846" stroke-width=".736842">
        <path id="path456" d="m36.328947 20.578947h4.421053v32.421053h-4.421053z"/>
        <path id="path460" d="m38.539473 11-6.815789 11.052631h13.631579z"/>
    </g>
    <g id="g1931" transform="translate(-6.5394715 -.01785003)">
        <path id="path458" d="m38.539473 47.28946c0-6.104849-4.94778-11.052626-11.052631-11.052626" fill="none" stroke="#3d3846" stroke-linejoin="round" stroke-width="4.42105"/>
        <path id="path462" d="m18.644736 36.236842 11.052632 6.81579v-13.63158z" fill="#3d3846" stroke-width=".736842"/>
    </g>
    <g id="g1941" transform="matrix(-1 0 0 1 70.539475 -.01785003)">
        <path id="path1937" d="m38.539473 47.28946c0-6.104849-4.94778-11.052626-11.052631-11.052626" fill="none" stroke="#3d3846" stroke-linejoin="round" stroke-width="4.42105"/>
        <path id="path1939" d="m18.644736 36.236842 11.052632 6.81579v-13.63158z" fill="#3d3846" stroke-width=".736842"/>
    </g>
</svg>
