<?xml version="1.0" encoding="UTF-8" standalone="no"?>
<svg
   width="64"
   height="64"
   version="1.1"
   viewBox="0 0 16.933 16.933"
   id="svg24"
   sodipodi:docname="re.sonny.Commit.svg"
   inkscape:version="1.2 (dc2aedaf03, 2022-05-15)"
   xmlns:inkscape="http://www.inkscape.org/namespaces/inkscape"
   xmlns:sodipodi="http://sodipodi.sourceforge.net/DTD/sodipodi-0.dtd"
   xmlns:xlink="http://www.w3.org/1999/xlink"
   xmlns="http://www.w3.org/2000/svg"
   xmlns:svg="http://www.w3.org/2000/svg"
   xmlns:rdf="http://www.w3.org/1999/02/22-rdf-syntax-ns#"
   xmlns:cc="http://creativecommons.org/ns#"
   xmlns:dc="http://purl.org/dc/elements/1.1/">
  <sodipodi:namedview
     pagecolor="#ffffff"
     bordercolor="#666666"
     borderopacity="1"
     objecttolerance="10"
     gridtolerance="10"
     guidetolerance="10"
     inkscape:pageopacity="0"
     inkscape:pageshadow="2"
     inkscape:window-width="1920"
     inkscape:window-height="1015"
     id="namedview26"
     showgrid="false"
     inkscape:zoom="4.5906698"
     inkscape:cx="-19.278233"
     inkscape:cy="26.248893"
     inkscape:window-x="0"
     inkscape:window-y="0"
     inkscape:window-maximized="1"
     inkscape:current-layer="svg24"
     inkscape:showpageshadow="2"
     inkscape:pagecheckerboard="0"
     inkscape:deskcolor="#d1d1d1" />
  <metadata
     id="metadata2">
    <rdf:RDF>
      <cc:Work
         rdf:about="">
        <dc:format>image/svg+xml</dc:format>
        <dc:type
           rdf:resource="http://purl.org/dc/dcmitype/StillImage" />
        <dc:title />
      </cc:Work>
    </rdf:RDF>
  </metadata>
  <defs
     id="defs12">
    <filter
       id="filter2761-3"
       x="-.024"
       y="-.024"
       width="1.048"
       height="1.048"
       color-interpolation-filters="sRGB">
      <feGaussianBlur
         stdDeviation="0.14552168"
         id="feGaussianBlur4" />
    </filter>
    <linearGradient
       id="linearGradient1024"
       x1="1.3315"
       x2="15.65"
       y1="15.576"
       y2="1.17"
       gradientTransform="translate(-.00084984 .14045)"
       gradientUnits="userSpaceOnUse">
      <stop
         stop-color="#dddfe1"
         offset="0"
         id="stop7" />
      <stop
         stop-color="#f3f4f6"
         stop-opacity=".99608"
         offset="1"
         id="stop9" />
    </linearGradient>
    <filter
       color-interpolation-filters="sRGB"
       height="1.048"
       width="1.048"
       y="-.024"
       x="-.024"
       id="filter2761-3-3">
      <feGaussianBlur
         id="feGaussianBlur2"
         stdDeviation="0.14552168" />
    </filter>
    <linearGradient
       gradientUnits="userSpaceOnUse"
       gradientTransform="matrix(3.7796 0 0 3.7796 -.0026448 .53066)"
       y2="1.17"
       y1="15.576"
       x2="15.65"
       x1="1.3315"
       id="linearGradient1024-6">
      <stop
         id="stop5"
         offset="0"
         stop-color="#dddfe1" />
      <stop
         id="stop7-7"
         offset="1"
         stop-opacity=".99608"
         stop-color="#f3f4f6" />
    </linearGradient>
    <filter
       inkscape:collect="always"
       style="color-interpolation-filters:sRGB"
       id="filter1057"
       x="-0.026999999"
       width="1.054"
       y="-0.026999999"
       height="1.054">
      <feGaussianBlur
         inkscape:collect="always"
         stdDeviation="0.61875"
         id="feGaussianBlur1059" />
    </filter>
    <linearGradient
       inkscape:collect="always"
       xlink:href="#linearGradient1051"
       id="linearGradient1053"
       x1="-127"
       y1="60"
       x2="-72"
       y2="5"
       gradientUnits="userSpaceOnUse"
       gradientTransform="matrix(0.26457812,0,0,0.26457812,34.792023,-0.13493401)" />
    <linearGradient
       inkscape:collect="always"
       id="linearGradient1051">
      <stop
         style="stop-color:#f6f5f4;stop-opacity:1;"
         offset="0"
         id="stop1047" />
      <stop
         style="stop-color:#f1f3f5;stop-opacity:0.99607843"
         offset="1"
         id="stop1049" />
    </linearGradient>
    <linearGradient
       id="b"
       gradientTransform="matrix(0.11725568,-0.11725568,0.11399861,0.11399861,-20.853279,-3.2222445)"
       gradientUnits="userSpaceOnUse"
       x1="115"
       x2="115"
       y1="183"
       y2="174">
      <stop
         offset="0"
         stop-color="#e01b24"
         id="stop13" />
      <stop
         offset="1"
         stop-color="#f66151"
         id="stop15" />
    </linearGradient>
    <linearGradient
       id="c"
       gradientTransform="matrix(0.00670714,-0.03187701,0.03187701,-0.00670714,9.8724357,13.582423)"
       gradientUnits="userSpaceOnUse"
       x1="128.81717"
       x2="158.51802"
       y1="-97.698288"
       y2="-127.39915">
      <stop
         offset="0"
         stop-color="#d0bb8e"
         id="stop18" />
      <stop
         offset="1"
         stop-color="#ffffff"
         id="stop20" />
    </linearGradient>
    <linearGradient
       id="d"
       gradientTransform="matrix(0.09771311,-0.09771311,0.11399861,0.11399861,-18.742676,-5.3328477)"
       gradientUnits="userSpaceOnUse"
       x1="110"
       x2="110"
       y1="182"
       y2="174">
      <stop
         offset="0"
         stop-color="#9a9996"
         id="stop23" />
      <stop
         offset="0.533151"
         stop-color="#deddda"
         id="stop25" />
      <stop
         offset="1"
         stop-color="#f6f5f4"
         id="stop27" />
    </linearGradient>
  </defs>
  <rect
     ry="15"
     y="4.4999995"
     x="4.4999995"
     height="55"
     width="55"
     id="rect1055"
     style="opacity:0.3;fill:#141414;fill-opacity:1;stroke-width:2.74436;stroke-linecap:round;filter:url(#filter1057)"
     transform="scale(0.26457812)" />
  <rect
     style="fill:url(#linearGradient1053);fill-opacity:1;stroke-width:0.726098;stroke-linecap:round"
     id="rect1045"
     width="14.551796"
     height="14.551796"
     x="1.1906021"
     y="1.1906021"
     ry="3.9686716" />
  <g
     id="g842">
    <path
       d="m 4.9492096,3.6665824 h 0.618995 V 15.736986 h -0.618995 z m 0,0"
       fill="#9a9996"
       id="path32"
       style="stroke-width:0.154749" />
    <path
       d="m 5.2587071,12.991488 h 1.5474876 c 0.8547452,0 1.5474876,-0.692742 1.5474876,-1.547487 V 5.873046"
       fill="none"
       stroke="#9a9996"
       stroke-linecap="round"
       stroke-width="0.618995"
       id="path34" />
    <path
       d="m 6.4966972,4.3255584 c 0,0.6836752 -0.5543149,1.2379901 -1.2379901,1.2379901 -0.6836752,0 -1.2379901,-0.5543149 -1.2379901,-1.2379901 0,-0.6836752 0.5543149,-1.2379901 1.2379901,-1.2379901 0.6836752,0 1.2379901,0.5543149 1.2379901,1.2379901 z m 0,0"
       fill="#a51d2d"
       id="path36"
       style="stroke-width:0.154749" />
    <path
       d="m 9.2821748,6.4920411 c 0,0.5126052 -0.4158873,0.9284925 -0.9284925,0.9284925 -0.5126053,0 -0.9284926,-0.4158873 -0.9284926,-0.9284925 0,-0.5126053 0.4158873,-0.9284926 0.9284926,-0.9284926 0.5126052,0 0.9284925,0.4158873 0.9284925,0.9284926 z m 0,0"
       fill="#26a269"
       id="path38"
       style="stroke-width:0.154749" />
    <path
       d="m 6.1871996,8.8132725 c 0,0.5126052 -0.4158873,0.9284926 -0.9284925,0.9284926 -0.5126053,0 -0.9284926,-0.4158873 -0.9284926,-0.9284924 0,-0.5126054 0.4158873,-0.9284927 0.9284926,-0.9284927 0.5126052,0 0.9284925,0.4158873 0.9284925,0.9284925 z m 0,0"
       fill="#1c71d8"
       id="path40"
       style="stroke-width:0.154749" />
    <path
       d="m 6.1871996,12.991488 c 0,0.512606 -0.4158873,0.928493 -0.9284925,0.928493 -0.5126053,0 -0.9284926,-0.415887 -0.9284926,-0.928493 0,-0.512605 0.4158873,-0.928492 0.9284926,-0.928492 0.5126052,0 0.9284925,0.415887 0.9284925,0.928492 z m 0,0"
       fill="#813d9c"
       id="path42"
       style="stroke-width:0.154749" />
    <path
       d="m 6.1871996,12.681991 c 0,0.512605 -0.4158873,0.928492 -0.9284925,0.928492 -0.5126053,0 -0.9284926,-0.415887 -0.9284926,-0.928492 0,-0.512605 0.4158873,-0.928493 0.9284926,-0.928493 0.5126052,0 0.9284925,0.415888 0.9284925,0.928493 z m 0,0"
       fill="#c061cb"
       id="path46"
       style="stroke-width:0.154749" />
    <path
       d="m 6.4966972,4.0160609 c 0,0.6836752 -0.5543149,1.2379901 -1.2379901,1.2379901 -0.6836752,0 -1.2379901,-0.5543149 -1.2379901,-1.2379901 0,-0.6836752 0.5543149,-1.2379901 1.2379901,-1.2379901 0.6836752,0 1.2379901,0.5543149 1.2379901,1.2379901 z m 0,0"
       fill="#ed333b"
       id="path48"
       style="stroke-width:0.154749" />
    <path
       d="m 9.2821748,6.1825435 c 0,0.5126053 -0.4158873,0.9284926 -0.9284925,0.9284926 -0.5126053,0 -0.9284926,-0.4158873 -0.9284926,-0.9284926 0,-0.5126052 0.4158873,-0.9284925 0.9284926,-0.9284925 0.5126052,0 0.9284925,0.4158873 0.9284925,0.9284925 z m 0,0"
       fill="#57e389"
       id="path50"
       style="stroke-width:0.154749" />
    <path
       d="m 6.1871996,8.5037749 c 0,0.5126053 -0.4158873,0.9284926 -0.9284925,0.9284926 -0.5126053,0 -0.9284926,-0.4158873 -0.9284926,-0.9284926 0,-0.5126052 0.4158873,-0.9284925 0.9284926,-0.9284925 0.5126052,0 0.9284925,0.4158873 0.9284925,0.9284925 z m 0,0"
       fill="#62a0ea"
       id="path52"
       style="stroke-width:0.154749" />
    <path
       d="m 11.808782,3.3308195 0.390811,-0.3908106 c 0.215918,-0.2159174 0.566243,-0.2159174 0.782161,0 l 0.586216,0.5862159 c 0.215917,0.2159175 0.215917,0.5662435 0,0.782161 l -0.39081,0.3908106 c -0.215918,0.2159174 -0.566244,0.2159174 -0.782162,0 L 11.808782,4.1129805 c -0.215917,-0.2159176 -0.215917,-0.5662435 0,-0.782161 z m 0,0"
       fill="url(#b)"
       id="path54"
       style="fill:url(#b);stroke-width:0.138187" />
    <path
       d="M 6.8685911,10.323306 6.1846725,9.6393876 6.3368944,8.8032473 7.7047314,10.171084 Z m 0,0"
       fill="url(#c)"
       id="path56"
       style="fill:url(#c);stroke-width:0.138187" />
    <path
       d="M 6.0324509,10.475528 6.1846725,9.6393876 6.8685911,10.323306 Z m 0,0"
       fill="#424048"
       id="path58"
       style="stroke-width:0.138187" />
    <path
       d="M 7.5487311,10.014544 6.6888399,9.1546529 11.766678,4.0768142 12.626569,4.9367055 Z m 0,0"
       fill="#5e5c64"
       id="path60"
       style="stroke-width:0.138187" />
    <path
       d="M 6.7277051,9.1940577 6.3368944,8.8027074 11.417973,3.7216301 11.806084,4.1156794 Z m 0,0"
       fill="#77767b"
       id="path62"
       style="stroke-width:0.138187" />
    <path
       d="M 7.313921,9.7802737 7.7047314,10.171084 12.785808,5.0900069 12.3923,4.7018953 Z m 0,0"
       fill="#3d3846"
       id="path64"
       style="stroke-width:0.138187" />
    <path
       d="m 11.417973,3.7216301 0.390809,-0.3908106 1.368378,1.3683769 -0.391352,0.3908105 z m 0,0"
       fill="url(#d)"
       id="path66"
       style="fill:url(#d);stroke-width:0.138187" />
  </g>
</svg>
