<svg id="svg44" version="1.1" viewBox="0 0 64 64" xmlns="http://www.w3.org/2000/svg">
  <defs id="defs22">
    <filter id="filter1057" x="-.026999999" y="-.026999999" width="1.054" height="1.054" color-interpolation-filters="sRGB">
      <feGaussianBlur id="feGaussianBlur1059" stdDeviation="0.61875"/>
    </filter>
  </defs>
  <g id="g1" fill="#5e4aa6">
    <g id="g30">
      <circle id="circle24" cx="-1248.7" cy="-1241.6" r="0"/>
      <circle id="circle26" cx="-1140.3" cy="-1301.8" r="0"/>
      <circle id="circle28" cx="-1158.1" cy="-1246" r="0"/>
    </g>
    <circle id="circle36" cx="-1157.3" cy="-1267.7" r="0"/>
    <circle id="circle38" cx="-57.756" cy="-2.1829" r="0" fill-rule="evenodd"/>
  </g>
  <rect id="rect1055" x="4.5" y="4.5" width="55" height="55" ry="15" fill="#141414" filter="url(#filter1057)" opacity=".3" stroke-linecap="round" stroke-width="2.74436"/>
  <rect id="rect1045" x="4.5000019" y="4.5000019" width="54.999996" height="54.999996" ry="14.999999" fill="#693524" stroke-linecap="round" stroke-width="2.74436"/>
  <g id="g3" transform="translate(0 .6)">
    <g id="g2" stroke-width=".68858">
      <path id="path98" d="m21.622988 10.365809c-6.907615 0.0052-12.466797 5.567697-12.466797 12.476562v20.794922c0 5.517388 3.545904 10.176593 8.492188 11.832031h9.640671c0.01092 3.5e-5 0.02232-4e-6 0.0332 0 1.166237 7.12e-4 2.120494-0.169499 2.86914-0.173828 0.09355-5.43e-4 0.182421 0.0025 0.269532 0.0078 6.26e-4 3.7e-5 0.0013-3.8e-5 2e-3 0 0.08639 0.0053 0.169925 0.01308 0.25 0.02539 6.19e-4 9.4e-5 0.0013-9.6e-5 2e-3 0 0.01691 0.0026 0.0322 0.0068 0.04883 0.0098 0.06277 0.01111 0.124821 0.02455 0.183594 0.04102 0.111491 0.03124 0.215349 0.0711 0.3125 0.125 0.03237 0.01797 0.06297 0.03777 0.09375 0.05859 4.57e-4 3.09e-4 0.0015-3.08e-4 2e-3 0 0.03033 0.02057 0.05911 0.04291 0.08789 0.06641 4.11e-4 3.34e-4 0.0015-3.35e-4 2e-3 0 0.0288 0.02357 0.05672 0.04951 0.08398 0.07617 0.110449 0.108013 0.207756 0.242869 0.292969 0.408203h2e-3c0.06714 0.130146 0.126161 0.279684 0.177734 0.451172v-15.65625a9.875 9.875 0 0 0-2e-3 0v-27.621094c-0.874597-1.903716-2.2498-2.823022-4.041016-2.921875h-0.671875z" fill="#b69943"/>
      <path id="path99" d="m36.040957 10.365809c-1.791217 0.09885-3.166418 1.018159-4.041016 2.921875v42.826172h2e-3v0.451172c0.06624-0.220266 0.146383-0.399473 0.238281-0.552735 0.01808-0.03014 0.03561-0.06204 0.05469-0.08984 0.0148-0.02158 0.02952-0.04424 0.04492-0.06445 0.0048-0.0063 0.01077-0.01141 0.01563-0.01758 0.02062-0.02618 0.04083-0.05228 0.0625-0.07617 0.0071-0.0079 0.01423-0.01581 0.02148-0.02344 0.02651-0.02787 0.054-0.05339 0.08203-0.07813 0.09436-0.08326 0.196861-0.149563 0.308594-0.201172 0.01835-0.0085 0.03782-0.01572 0.05664-0.02344 0.05004-0.02043 0.100935-0.03927 0.154297-0.05469 0.0085-0.0025 0.01677-0.0055 0.02539-0.0078 0.0094-0.0026 0.01985-0.0034 0.0293-0.0059 0.07174-0.01838 0.145118-0.03206 0.222656-0.04297 0.01205-0.0017 0.02492-0.0024 0.03711-0.0039 0.07769-0.0098 0.156834-0.01973 0.240234-0.02344 0.0034-1.5e-4 0.0064 1.4e-4 0.0098 0 0.0032-1.33e-4 0.0066 1.24e-4 0.0098 0 0.781873-0.03102 1.810786 0.174258 3.097657 0.169921h9.699218c4.946283-1.655438 8.492188-6.314643 8.492188-11.832031v-20.794922c0-6.908865-5.559182-12.471403-12.466797-12.476562h-0.0098z" fill="#b69943"/>
      <path id="path100" d="m27.624941 8.8970591c-0.110853 7.4e-5 -0.22408 0.0019-0.337891 0.0078h-6.134765c-6.687815 0.250644-11.996094 5.7174729-11.996094 12.46875v20.794922c0 5.527394 3.557242 10.192323 8.517578 11.839844h9.615281c0.341603 0.0012 0.665009 0.01265 0.970704 0.03711 6.14e-4 4.9e-5 0.0013-4.9e-5 2e-3 0 0.305549 0.02451 0.593377 0.06242 0.863281 0.113282 6.01e-4 1.13e-4 0.0014-1.13e-4 2e-3 0 0.404975 0.07644 0.770329 0.183542 1.095703 0.328125 5.44e-4 2.41e-4 0.0014-2.42e-4 2e-3 0 0.108049 0.04807 0.211222 0.101838 0.310547 0.158203 4.97e-4 2.82e-4 0.0015-2.82e-4 2e-3 0 0.706501 0.401279 1.193561 1.017875 1.464844 1.919922v-15.65625a9.875 9.875 0 0 0-2e-3 0v-29.082032c-0.926999-2.0177778-2.416128-2.9283808-4.367188-2.9296868z" fill="#f1df83"/>
      <path id="path101" d="m36.367129 8.8970591c-1.951061 0.0013-3.440188 0.911909-4.367188 2.9296869v42.81836h2e-3v1.919922c0.281974-0.937594 0.794946-1.567231 1.546875-1.966797 0.197326-0.104857 0.412307-0.192927 0.642578-0.267578 0.460665-0.149263 0.986418-0.241485 1.580078-0.28711 0.296886-0.02278 0.610852-0.03404 0.941407-0.03516h9.671875c4.960336-1.647521 8.519531-6.31245 8.519531-11.839844v-20.794922c0-6.751277-5.310232-12.218106-11.998047-12.46875h-6.193359c-0.113811-0.0059-0.227038-0.0077-0.337891-0.0078z" fill="#f1df83"/>
      <path id="path6-5" d="m44.421028 48.947468h-3.087056v14.121831l3.087056-2.921757 3.087056 2.921757v-14.121831z" fill="#ba6128"/>
      <path id="path103" d="m18.73041 7.4439341c-5.53369 1.279789-9.634766 6.2206059-9.634766 12.154297v20.794922c0 5.933688 4.101078 10.874505 9.634766 12.154297h8.55864c0.184708 6.72e-4 0.364951 0.0073 0.539063 0.02148 6.3e-4 5.1e-5 0.0013-5.1e-5 2e-3 0 0.17404 0.01421 0.342318 0.03537 0.50586 0.0625 6.22e-4 1.03e-4 0.0013-1.03e-4 2e-3 0 0.163478 0.02717 0.321534 0.06203 0.474609 0.101562 6.03e-4 1.56e-4 0.0014-1.55e-4 2e-3 0 0.15302 0.03958 0.300649 0.08534 0.443359 0.136719 5.75e-4 2.07e-4 0.0014-2.06e-4 2e-3 0 1.422449 0.51185 2.330187 1.594382 2.742187 2.964844v-14.925781a9.875 9.875 0 0 0-2e-3 0v-30.542969c-0.980964-2.1359658-2.591728-3.0318568-4.712891-2.9218748z" fill="#fff3b4"/>
      <path id="path104" d="m36.712832 7.4439341c-2.121164-0.109982-3.731926 0.785909-4.712891 2.9218749v42.503906h2e-3v2.964844c0.41946-1.395275 1.35368-2.490251 2.820313-2.990235 0.07258-0.02474 0.147483-0.04658 0.222656-0.06836 0.225706-0.06541 0.461521-0.118807 0.710937-0.15625 0.03444-0.0052 0.07057-0.0071 0.105469-0.01172 0.271254-0.03588 0.552794-0.05954 0.851563-0.06055h8.496093c5.533688-1.279791 9.634766-6.220609 9.634766-12.154297v-20.794922c0-5.933691-4.101075-10.874508-9.634766-12.154297z" fill="#fff3b4"/>
    </g>
    <g id="g97" transform="translate(65.441348,53.147618)" fill="#c37730" stroke-linecap="round" stroke-miterlimit="10">
      <path id="path15-3" d="m-51.054687-23.236328a0.66069502 0.66069502 0 0 0-0.66211 0.660156 0.66069502 0.66069502 0 0 0 0.66211 0.66211h13.228515a0.66069502 0.66069502 0 0 0 0.660156-0.66211 0.66069502 0.66069502 0 0 0-0.660156-0.660156z" stop-color="#000000"/>
      <path id="path16-6" d="m-51.054687-19.037109a0.66069502 0.66069502 0 0 0-0.66211 0.660156 0.66069502 0.66069502 0 0 0 0.66211 0.662109h13.228515a0.66069502 0.66069502 0 0 0 0.660156-0.662109 0.66069502 0.66069502 0 0 0-0.660156-0.660156z" stop-color="#000000"/>
      <path id="path17-0" d="m-51.054687-14.835938a0.66069502 0.66069502 0 0 0-0.66211 0.660157 0.66069502 0.66069502 0 0 0 0.66211 0.660156h13.228515a0.66069502 0.66069502 0 0 0 0.660156-0.660156 0.66069502 0.66069502 0 0 0-0.660156-0.660157z" stop-color="#000000"/>
      <path id="path18-6" d="m-51.054687-10.636719a0.66069502 0.66069502 0 0 0-0.66211 0.6601565 0.66069502 0.66069502 0 0 0 0.66211 0.6601562h13.228515a0.66069502 0.66069502 0 0 0 0.660156-0.6601562 0.66069502 0.66069502 0 0 0-0.660156-0.6601565z" stop-color="#000000"/>
      <path id="path19-2" d="m-51.054687-6.4375a0.66069502 0.66069502 0 0 0-0.66211 0.6621094 0.66069502 0.66069502 0 0 0 0.66211 0.6601562h13.228515a0.66069502 0.66069502 0 0 0 0.660156-0.6601562 0.66069502 0.66069502 0 0 0-0.660156-0.6621094z" stop-color="#000000"/>
      <path id="path20-6" d="m-51.056641-39.945312a0.66069502 0.66069502 0 0 0-0.660156 0.662109 0.66069502 0.66069502 0 0 0 0.660156 0.660156h13.230469a0.66069502 0.66069502 0 0 0 0.660156-0.660156 0.66069502 0.66069502 0 0 0-0.660156-0.662109z" stop-color="#000000"/>
      <path id="path21-1" d="m-51.056641-35.744141a0.66069502 0.66069502 0 0 0-0.660156 0.660157 0.66069502 0.66069502 0 0 0 0.660156 0.660156h13.230469a0.66069502 0.66069502 0 0 0 0.660156-0.660156 0.66069502 0.66069502 0 0 0-0.660156-0.660157z" stop-color="#000000"/>
      <path id="path22-8" d="m-51.056641-31.544922a0.66069502 0.66069502 0 0 0-0.660156 0.660156 0.66069502 0.66069502 0 0 0 0.660156 0.66211h13.230469a0.66069502 0.66069502 0 0 0 0.660156-0.66211 0.66069502 0.66069502 0 0 0-0.660156-0.660156z" stop-color="#000000"/>
      <path id="path23-7" d="m-51.056641-27.34375a0.66069502 0.66069502 0 0 0-0.660156 0.660156 0.66069502 0.66069502 0 0 0 0.660156 0.660157h13.230469a0.66069502 0.66069502 0 0 0 0.660156-0.660157 0.66069502 0.66069502 0 0 0-0.660156-0.660156z" stop-color="#000000"/>
      <path id="path88" d="m-29.054687-23.236328a0.66069502 0.66069502 0 0 0-0.66211 0.660156 0.66069502 0.66069502 0 0 0 0.66211 0.66211h13.228515a0.66069502 0.66069502 0 0 0 0.660156-0.66211 0.66069502 0.66069502 0 0 0-0.660156-0.660156z" stop-color="#000000"/>
      <path id="path89" d="m-29.054687-19.037109a0.66069502 0.66069502 0 0 0-0.66211 0.660156 0.66069502 0.66069502 0 0 0 0.66211 0.662109h13.228515a0.66069502 0.66069502 0 0 0 0.660156-0.662109 0.66069502 0.66069502 0 0 0-0.660156-0.660156z" stop-color="#000000"/>
      <path id="path90" d="m-29.054687-14.835938a0.66069502 0.66069502 0 0 0-0.66211 0.660157 0.66069502 0.66069502 0 0 0 0.66211 0.660156h13.228515a0.66069502 0.66069502 0 0 0 0.660156-0.660156 0.66069502 0.66069502 0 0 0-0.660156-0.660157z" stop-color="#000000"/>
      <path id="path91" d="m-29.054687-10.636719a0.66069502 0.66069502 0 0 0-0.66211 0.6601565 0.66069502 0.66069502 0 0 0 0.66211 0.6601562h13.228515a0.66069502 0.66069502 0 0 0 0.660156-0.6601562 0.66069502 0.66069502 0 0 0-0.660156-0.6601565z" stop-color="#000000"/>
      <path id="path92" d="m-29.054687-6.4375a0.66069502 0.66069502 0 0 0-0.66211 0.6621094 0.66069502 0.66069502 0 0 0 0.66211 0.6601562h13.228515a0.66069502 0.66069502 0 0 0 0.660156-0.6601562 0.66069502 0.66069502 0 0 0-0.660156-0.6621094z" stop-color="#000000"/>
      <path id="path93" d="m-29.056641-39.945312a0.66069502 0.66069502 0 0 0-0.660156 0.662109 0.66069502 0.66069502 0 0 0 0.660156 0.660156h13.230469a0.66069502 0.66069502 0 0 0 0.660156-0.660156 0.66069502 0.66069502 0 0 0-0.660156-0.662109z" stop-color="#000000"/>
      <path id="path94" d="m-29.056641-35.744141a0.66069502 0.66069502 0 0 0-0.660156 0.660157 0.66069502 0.66069502 0 0 0 0.660156 0.660156h13.230469a0.66069502 0.66069502 0 0 0 0.660156-0.660156 0.66069502 0.66069502 0 0 0-0.660156-0.660157z" stop-color="#000000"/>
      <path id="path95" d="m-29.056641-31.544922a0.66069502 0.66069502 0 0 0-0.660156 0.660156 0.66069502 0.66069502 0 0 0 0.660156 0.66211h13.230469a0.66069502 0.66069502 0 0 0 0.660156-0.66211 0.66069502 0.66069502 0 0 0-0.660156-0.660156z" stop-color="#000000"/>
      <path id="path96" d="m-29.056641-27.34375a0.66069502 0.66069502 0 0 0-0.660156 0.660156 0.66069502 0.66069502 0 0 0 0.660156 0.660157h13.230469a0.66069502 0.66069502 0 0 0 0.660156-0.660157 0.66069502 0.66069502 0 0 0-0.660156-0.660156z" stop-color="#000000"/>
    </g>
  </g>
</svg>
