<svg id="svg5" version="1.1" viewBox="0 0 64 64" xmlns="http://www.w3.org/2000/svg">
  <defs id="defs3">
    <style id="style1" type="text/css"/>
    <style id="style2" type="text/css"/>
    <filter id="filter1057" x="-.026999999" y="-.026999999" width="1.054" height="1.054" color-interpolation-filters="sRGB">
      <feGaussianBlur id="feGaussianBlur2" stdDeviation="0.61875"/>
    </filter>
    <linearGradient id="linearGradient1053" x1="-127" x2="-72" y1="60" y2="5" gradientTransform="translate(131.5 -.51)" gradientUnits="userSpaceOnUse">
      <stop id="stop2" stop-color="#f4f4f4" offset="0"/>
      <stop id="stop3" stop-color="#fcfcfc" stop-opacity=".99607998" offset="1"/>
    </linearGradient>
    <linearGradient id="paint0_linear_5_14" x1="79.5" x2="176.5" y1="67.5" y2="172" gradientTransform="matrix(.26415094 0 0 .26415094 -.8867962 -1.0188674)" gradientUnits="userSpaceOnUse">
      <stop id="stop1" stop-color="#4B73FF" offset="0"/>
      <stop id="stop2-3" stop-color="#523BE4" offset="1"/>
    </linearGradient>
    <filter id="filter2" x="-.024367925" y="-.030269533" width="1.0487359" height="1.0605391" color-interpolation-filters="sRGB">
      <feGaussianBlur id="feGaussianBlur3" stdDeviation="0.42643868"/>
    </filter>
  </defs>
  <rect id="rect3" x="4.5" y="4.5" width="55" height="55" ry="15" fill="#141414" filter="url(#filter1057)" opacity=".3" stroke-linecap="round" stroke-width="2.7444"/>
  <rect id="rect4" x="4.5" y="4.5" width="55" height="55" ry="15" fill="url(#linearGradient1053)" stroke-linecap="round" stroke-width="2.7444"/>
  <circle id="circle4" cx="-1326.3" cy="-1241.6" r="0" fill="#5e4aa6"/>
  <g fill-rule="evenodd">
    <circle id="circle5" cx="-226.72" cy="23.855" r="0" fill="#5e4aa6"/>
    <path id="path2" d="m33.752905 34.465057c-0.594869-0.791925-0.892299-1.187887-1.256561-1.329471-0.319366-0.124152-0.673593-0.124152-0.992688 0-0.364525 0.141584-0.661955 0.537546-1.256823 1.329471l-8.210948 10.931358c-0.848295 1.129245-1.272469 1.694-1.262879 2.166567 0.0088 0.411546 0.201093 0.797471 0.525026 1.051056 0.372217 0.291622 1.078447 0.291622 2.490915 0.291622h16.421922c1.412416 0 2.118751 0 2.490941-0.291622 0.323846-0.253585 0.516679-0.63951 0.524869-1.051056 0.0098-0.472567-0.414453-1.037322-1.262643-2.166567zm-5.952905-17.178185c0-0.767463 0-1.151195 0.149249-1.444324 0.131547-0.257837 0.341013-0.467468 0.599095-0.598856 0.292941-0.149352 0.676751-0.149352 1.444109-0.149352h4.015095c0.767357 0 1.151167 0 1.444108 0.149352 0.258082 0.131388 0.467548 0.341019 0.599095 0.598856 0.149249 0.293129 0.149249 0.676861 0.149249 1.444324v8.651394l6.130154-6.120906c0.542299-0.541536 0.813583-0.812291 1.126072-0.913752 0.274978-0.08926 0.571095-0.08926 0.846073 0 0.31276 0.10146 0.583773 0.372216 1.126081 0.913752l2.836715 2.832332c0.543882 0.543015 0.815701 0.814509 0.917656 1.127687 0.08955 0.275456 0.08955 0.57223 0 0.847687-0.101955 0.313177-0.373774 0.584671-0.917656 1.127765l-6.125394 6.116152h8.667846c0.767358 0 1.151168 0 1.444109 0.149245 0.258081 0.131283 0.467548 0.341019 0.599095 0.59883 0.149249 0.293208 0.149249 0.676754 0.149249 1.444377v4.002151c0 0.767358 0 1.151169-0.149249 1.444378-0.131547 0.25781-0.341014 0.467283-0.599095 0.598829-0.292941 0.149246-0.676751 0.149246-1.444109 0.149246h-37.615016c-0.767462 0-1.151193 0-1.444327-0.149246-0.257836-0.131546-0.46746-0.341019-0.59885-0.598829-0.149354-0.293209-0.149354-0.67702-0.149354-1.444378v-4.002151c0-0.767623 0-1.151169 0.149354-1.444377 0.13139-0.257812 0.341014-0.467547 0.59885-0.59883 0.293134-0.149245 0.676865-0.149245 1.444327-0.149245h8.667636l-6.125367-6.116152c-0.54383-0.542962-0.815754-0.814456-0.91763-1.127633-0.08957-0.275457-0.0896-0.572231 0-0.847687 0.10185-0.313177 0.373774-0.5847 0.917604-1.127688l2.836662-2.832358c0.542334-0.541509 0.813505-0.812263 1.126108-0.913724 0.274977-0.08926 0.571138-0.08926 0.846098 0 0.31262 0.101459 0.583774 0.372215 1.126125 0.913724l6.130233 6.120801z" clip-rule="evenodd" fill="#222222" filter="url(#filter2)" opacity=".3" stroke-width=".264151"/>
    <path id="path1" d="m33.752905 34.465057c-0.594869-0.791925-0.892299-1.187887-1.256561-1.329471-0.319366-0.124152-0.673593-0.124152-0.992688 0-0.364525 0.141584-0.661955 0.537546-1.256823 1.329471l-8.210948 10.931358c-0.848295 1.129245-1.272469 1.694-1.262879 2.166567 0.0088 0.411546 0.201093 0.797471 0.525026 1.051056 0.372217 0.291622 1.078447 0.291622 2.490915 0.291622h16.421922c1.412416 0 2.118751 0 2.490941-0.291622 0.323846-0.253585 0.516679-0.63951 0.524869-1.051056 0.0098-0.472567-0.414453-1.037322-1.262643-2.166567zm-5.952905-17.178185c0-0.767463 0-1.151195 0.149249-1.444324 0.131547-0.257837 0.341013-0.467468 0.599095-0.598856 0.292941-0.149352 0.676751-0.149352 1.444109-0.149352h4.015095c0.767357 0 1.151167 0 1.444108 0.149352 0.258082 0.131388 0.467548 0.341019 0.599095 0.598856 0.149249 0.293129 0.149249 0.676861 0.149249 1.444324v8.651394l6.130154-6.120906c0.542299-0.541536 0.813583-0.812291 1.126072-0.913752 0.274978-0.08926 0.571095-0.08926 0.846073 0 0.31276 0.10146 0.583773 0.372216 1.126081 0.913752l2.836715 2.832332c0.543882 0.543015 0.815701 0.814509 0.917656 1.127687 0.08955 0.275456 0.08955 0.57223 0 0.847687-0.101955 0.313177-0.373774 0.584671-0.917656 1.127765l-6.125394 6.116152h8.667846c0.767358 0 1.151168 0 1.444109 0.149245 0.258081 0.131283 0.467548 0.341019 0.599095 0.59883 0.149249 0.293208 0.149249 0.676754 0.149249 1.444377v4.002151c0 0.767358 0 1.151169-0.149249 1.444378-0.131547 0.25781-0.341014 0.467283-0.599095 0.598829-0.292941 0.149246-0.676751 0.149246-1.444109 0.149246h-37.615016c-0.767462 0-1.151193 0-1.444327-0.149246-0.257836-0.131546-0.46746-0.341019-0.59885-0.598829-0.149354-0.293209-0.149354-0.67702-0.149354-1.444378v-4.002151c0-0.767623 0-1.151169 0.149354-1.444377 0.13139-0.257812 0.341014-0.467547 0.59885-0.59883 0.293134-0.149245 0.676865-0.149245 1.444327-0.149245h8.667636l-6.125367-6.116152c-0.54383-0.542962-0.815754-0.814456-0.91763-1.127633-0.08957-0.275457-0.0896-0.572231 0-0.847687 0.10185-0.313177 0.373774-0.5847 0.917604-1.127688l2.836662-2.832358c0.542334-0.541509 0.813505-0.812263 1.126108-0.913724 0.274977-0.08926 0.571138-0.08926 0.846098 0 0.31262 0.101459 0.583774 0.372215 1.126125 0.913724l6.130233 6.120801z" clip-rule="evenodd" fill="url(#paint0_linear_5_14)" stroke-width=".264151"/>
  </g>
</svg>
