<svg id="svg290" version="1.1" viewBox="0 0 64 64" xmlns="http://www.w3.org/2000/svg">
    <defs id="defs278">
        <style id="style266" type="text/css"/>
        <style id="style268" type="text/css"/>
        <filter id="filter1057" x="-.026999999" y="-.026999999" width="1.054" height="1.054" color-interpolation-filters="sRGB">
            <feGaussianBlur id="feGaussianBlur270" stdDeviation="0.61875"/>
        </filter>
    </defs>
    <rect id="rect280" x="4.5" y="4.5" width="55" height="55" ry="15" fill="#141414" filter="url(#filter1057)" opacity=".3" stroke-linecap="round" stroke-width="2.7444"/>
    <circle id="circle284" cx="-1326.3" cy="-1241.6" r="0" fill="#5e4aa6"/>
    <circle id="circle286" cx="-226.72" cy="23.855" r="0" fill="#5e4aa6" fill-rule="evenodd"/>
    <g stroke="#3a3c3e" stroke-linecap="round" stroke-opacity=".98823529">
        <rect id="rect282" x="4.9910717" y="4.9910717" width="54.017857" height="54.017857" ry="14.732142" fill="#ccc" stroke-width=".982143"/>
        <rect id="rect3769" x="9.9017849" y="9.9017849" width="44.19643" height="44.19643" ry="12.053571" fill="#e5e5e5" stroke-width=".803572"/>
        <rect id="rect3758" x="14.812501" y="14.812501" width="34.375" height="34.375" ry="9.375" fill="#f7f7f7" stroke-width=".625"/>
    </g>
    <g id="g3762" transform="matrix(.63636364 0 0 .63636364 28.046626 10.575539)" fill="#3a3c3e" fill-opacity=".98823529" aria-label="R">
        <path id="path3760" d="m1.1440878 41.235363q0 1.171875 0 2.109375 0.019531 0.9375 0.039063 1.699219 0.019531 0.605469 0.5078125 0.761719l2.1679687 0.644531 0.058594 0.839844q-2.3242188-0.05859-4.6484375-0.05859-2.3632813 0-4.84375 0.05859l-0.078125-0.839844 2.4023437-0.722656q0.4882813-0.136719 0.5273438-0.605469 0.019531-0.78125 0.019531-1.738281 0.019531-0.976563 0.019531-2.148438v-15.839844q0-0.996093-0.019531-1.796875 0-0.800781-0.019531-1.445312-0.019531-0.507813-0.46875-0.664063l-2.421875-0.761718-0.039063-0.839844q2.5195312 0.07813 4.9023437 0.07813 0.46875 0 1.1914062-0.01953 0.72265621-0.03906 1.7578125-0.07813 1.0546875-0.03906 1.7578125-0.05859t1.1132812-0.01953q4.453125 0 6.6796878 1.679687 2.226562 1.679688 2.226562 4.902344 0 2.910156-1.523437 4.726562-1.523438 1.796875-4.6484378 2.773438 1.2304688 1.875 2.2656248 3.632812 1.035156 1.738282 1.914063 3.203125 0.898437 1.445313 1.640625 2.558594 0.742187 1.113281 1.386718 1.757813 0.332032 0.332031 0.664063 0.585937 0.332031 0.234375 0.683594 0.390625 0.371093 0.15625 0.761718 0.273438 0.410157 0.117187 0.898438 0.234375l0.05859 0.859375q-1.40625 0.175781-2.363282 0.175781-0.800781 0-1.40625-0.03906-0.605468-0.03906-1.074218-0.15625-0.46875-0.117187-0.859375-0.292968-0.37109-0.195322-0.742184-0.488291-0.800781-0.605468-1.582031-1.738281-0.761719-1.152344-1.6015627-2.597656-0.8203125-1.445313-1.71875-3.066406-0.8984375-1.640625-1.8945313-3.203125-0.2929687-0.46875-0.5078125-0.742188-0.1953125-0.273437-0.4492187-0.429687-0.234375-0.15625-0.5664063-0.214844-0.3125-0.05859-0.8203125-0.07813l-1.3476562-0.03906zm0-8.242187q1.1914062 0.05859 2.2070312 0.05859 3.3789063 0 4.9414063-1.425781 1.5820312-1.445312 1.5820312-4.511719 0-2.96875-1.5039062-4.335937-1.5039063-1.367188-4.7070313-1.367188-0.546875 0-1.171875 0.03906t-1.3476562 0.117187z" fill="#3a3c3e" fill-opacity=".98823529"/>
    </g>
</svg>
