<svg id="svg72" version="1.1" viewBox="0 0 64 64" xmlns="http://www.w3.org/2000/svg" xmlns:xlink="http://www.w3.org/1999/xlink">
    <defs id="defs18">
        <style id="style4" type="text/css"/>
        <style id="style6" type="text/css"/>
        <style id="style8" type="text/css"/>
        <filter id="filter1057" x="-.026999999" y="-.026999999" width="1.054" height="1.054" color-interpolation-filters="sRGB">
            <feGaussianBlur id="feGaussianBlur1059" stdDeviation="0.61875"/>
        </filter>
        <linearGradient id="linearGradient1053" x1="-127" x2="-72" y1="60" y2="5" gradientTransform="translate(131.5 -.50999901)" gradientUnits="userSpaceOnUse">
            <stop id="stop1047" stop-color="#4f35c8" offset="0"/>
            <stop id="stop1049" stop-color="#7b67c6" offset="1"/>
        </linearGradient>
        <style id="style872" type="text/css"/>
        <style id="style874" type="text/css"/>
        <style id="style876" type="text/css"/>
    </defs>
    <g id="g64" fill="#5e4aa6">
        <circle id="circle20" cx="-1248.7" cy="-1241.6" r="0"/>
        <circle id="circle22" cx="-149.15" cy="23.855" r="0" fill-rule="evenodd"/>
        <circle id="circle24" cx="-1248.7" cy="-1241.6" r="0"/>
        <circle id="circle26" cx="-149.15" cy="23.855" r="0" fill-rule="evenodd"/>
        <circle id="circle28" cx="-1150.9" cy="-1256.6" r="0"/>
        <circle id="circle30" cx="-51.327" cy="8.8744" r="0" fill-rule="evenodd"/>
        <g id="g62" transform="matrix(3.7796,0,0,3.7796,167.86,4.61)" stroke-width=".26458">
            <g id="g40" transform="translate(-.0272 .0065001)">
                <circle id="circle32" cx="-330.35" cy="-328.38" r="0"/>
                <circle id="circle34" cx="-312.11" cy="-326.25" r="0"/>
                <circle id="circle36" cx="-306.02" cy="-333.07" r="0"/>
                <circle id="circle38" cx="-308.84" cy="-326.01" r="0"/>
            </g>
            <g id="g50" transform="translate(-.0272 .0065001)">
                <circle id="circle42" cx="-330.35" cy="-328.38" r="0"/>
                <circle id="circle44" cx="-312.11" cy="-326.25" r="0"/>
                <circle id="circle46" cx="-306.02" cy="-333.07" r="0"/>
                <circle id="circle48" cx="-308.84" cy="-326.01" r="0"/>
            </g>
            <g id="g60" transform="translate(-.02705 .0064503)">
                <circle id="circle52" cx="-330.35" cy="-328.38" r="0"/>
                <circle id="circle54" cx="-312.11" cy="-326.25" r="0"/>
                <circle id="circle56" cx="-306.02" cy="-333.07" r="0"/>
                <circle id="circle58" cx="-308.84" cy="-326.01" r="0"/>
            </g>
        </g>
    </g>
    <g>
        <rect id="rect1055" x="4.5" y="4.5" width="55" height="55" ry="15" fill="#141414" filter="url(#filter1057)" opacity=".3" stroke-linecap="round" stroke-width="2.74436"/>
        <rect id="rect1045" x="4.5000019" y="4.5000019" width="54.999996" height="54.999996" ry="14.999999" fill="url(#linearGradient1053)" stroke-linecap="round" stroke-width="2.74436"/>
        <path id="path1999" d="m41.704638 19.103875c1.47226 0.01647 1.571101 0.02098 2.411321 0.143781 1.165222 0.169242 2.033899 0.408878 2.89658 0.802778 0.795289 0.362444 1.430321 0.787799 1.976988 1.322486 0.53768 0.525694 0.891137 1.006462 1.222133 1.662461 0.366941 0.726391 0.581115 1.455783 0.718901 2.441273 0.09286 0.670985 0.09286 1.939546-0.0017 2.628496-0.187215 1.380893-0.603576 2.456253-1.314997 3.4043-0.06887 0.09286-0.190206 0.23814-0.269587 0.325011-0.07938 0.08685-0.14378 0.160248-0.14378 0.164745 0 0.0048 0.06587 0.07791 0.14378 0.164745 0.244135 0.268101 0.498742 0.623054 0.717406 1.003478 0.497245 0.862683 0.819255 1.979973 0.913614 3.178148 0.02993 0.37443 0.02993 1.34794 0 1.726861-0.109345 1.394376-0.498742 2.592551-1.16523 3.579543-0.381913 0.566136-0.882151 1.087339-1.455776 1.512696-0.921098 0.685957-2.180672 1.207153-3.542095 1.466258-0.721903 0.137794-1.425824 0.224665-2.044381 0.251615-0.241134 0.01045-5.077258 0.01798-14.745004 0.02248l-14.384059 0.0063-0.09135-0.03293c-0.131757-0.0464-0.250075-0.122816-0.332456-0.214175-0.08387-0.09136-0.172235-0.263595-0.197698-0.380424-0.01196-0.05542-0.01647-0.606569-0.01647-1.864655 0-1.966498-0.0032-1.878131 0.09436-2.075829 0.09735-0.200699 0.328002-0.369941 0.549659-0.404382 0.06588-0.01057 4.536587-0.01798 13.823917-0.02399 7.549981-0.0032 13.952716-0.01347 14.22829-0.02098 0.449314-0.01196 0.521204-0.01647 0.690447-0.05242 0.563142-0.11533 0.942062-0.292059 1.220636-0.569137 0.325003-0.326498 0.512218-0.763833 0.623053-1.461769 0.02699-0.170739 0.02699-1.036422 0-1.205657-0.08088-0.510721-0.20818-0.891145-0.392403-1.175706-0.325002-0.497245-0.787799-0.74886-1.639998-0.889647l-0.224656-0.03745-14.160898-0.0047-14.160899-0.0063-0.110829-0.04046c-0.27258-0.09586-0.473279-0.328003-0.524204-0.602081-0.01195-0.05993-0.01647-0.64402-0.01647-1.863159 0-1.873641-0.0017-1.822716 0.06587-2.005443 0.05242-0.142284 0.23065-0.329499 0.378919-0.399893 0.04197-0.02098 0.119823-0.0464 0.172244-0.05842 0.08088-0.01797 2.134243-0.02248 14.165387-0.02992 8.96982-0.0048 14.136932-0.01347 14.253754-0.02248 0.687446-0.05543 1.295518-0.308527 1.623521-0.675468 0.302542-0.336989 0.474777-0.763841 0.569136-1.40037 0.02843-0.185711 0.02843-1.028923 0.0017-1.213146-0.10184-0.676963-0.290561-1.117299-0.617059-1.445293-0.313024-0.31452-0.729385-0.501735-1.362921-0.608074-0.1288-0.02248-0.700929-0.02549-5.84109-0.03595-3.134712-0.0063-9.520975-0.01195-14.193843-0.01347-6.098701-0.0017-8.517505-0.0063-8.574423-0.01797-0.301036-0.06295-0.560141-0.322002-0.624542-0.624542-0.02248-0.109333-0.02399-3.584034 0-3.709841 0.0494-0.271086 0.253112-0.506233 0.51521-0.599089l0.104844-0.03744 13.389577 0.0017c7.36426 0 13.969184 0.0063 14.677602 0.01347z" fill="#fff" stroke-width=".00149772"/>
    </g>
</svg>
