<svg id="svg290" version="1.1" viewBox="0 0 64 64" xmlns="http://www.w3.org/2000/svg">
    <defs id="defs278">
        <style id="style266" type="text/css"/>
        <style id="style268" type="text/css"/>
        <filter id="filter1057" x="-.026999999" y="-.026999999" width="1.054" height="1.054" color-interpolation-filters="sRGB">
            <feGaussianBlur id="feGaussianBlur270" stdDeviation="0.61875"/>
        </filter>
        <linearGradient id="linearGradient1053" x1="-127" x2="-72" y1="60" y2="5" gradientTransform="translate(131.5 -.51)" gradientUnits="userSpaceOnUse">
            <stop id="stop275" stop-color="#ed5125" offset="0"/>
            <stop id="stop273" stop-color="#bc3410" offset="1"/>
        </linearGradient>
        <filter id="filter3836" x="-.026517824" y="-.027500035" width="1.0530356" height="1.0550001" color-interpolation-filters="sRGB">
            <feGaussianBlur id="feGaussianBlur3838" stdDeviation="0.46406325"/>
        </filter>
    </defs>
    <rect id="rect280" x="4.5" y="4.5" width="55" height="55" ry="15" fill="#141414" filter="url(#filter1057)" opacity=".3" stroke-linecap="round" stroke-width="2.7444"/>
    <rect id="rect282" x="4.5" y="4.5" width="55" height="55" ry="15" fill="url(#linearGradient1053)" stroke-linecap="round" stroke-width="2.7444" style="mix-blend-mode:normal"/>
    <circle id="circle284" cx="-1326.3" cy="-1241.6" r="0" fill="#5e4aa6"/>
    <circle id="circle286" cx="-226.72" cy="23.855" r="0" fill="#5e4aa6" fill-rule="evenodd"/>
    <g id="g3849" transform="matrix(.94963277 0 0 .94963277 1.6117545 3.6117443)" stroke-width=".749997">
        <path id="path3829" d="m32 11.75c-0.517411 0.0021-0.774572 0.15125-1.681641 0.96875-1.525131 1.374534-3.424459 2.446124-5.65039 3.179688-0.635978 0.209535-1.297997 0.391616-1.986328 0.544921-0.344168 0.07668-0.69393 0.146688-1.050782 0.208985-0.713699 0.124542-1.453978 0.219438-2.216797 0.285156-1.14423 0.09864-2.341164 0.130418-3.589843 0.0918-0.416226-0.01288-0.838333-0.03394-1.265625-0.0625-1.05201-0.07031-1.794951-0.103677-2.31836-0.0332-1.151502 0.154643-1.243121 0.814327-1.240234 2.703125 8.8e-5 0.05504 0.0066 0.182996 0.0078 0.253906 5.7e-5 0.0033-3.5e-5 0.0087 0 0.01172-0.0024 0.160117-0.0081 0.302-0.0078 0.484375 0.0013 0.818187 0.07582 2.763375 0.166016 4.322265 0.665422 11.49578 3.03809 16.961421 9.113281 21.410157 2.669101 1.95454 6.337742 3.975122 9.996094 5.507812 0.812147 0.340248 1.573503 0.619909 1.691406 0.623047 0.0074 1.67e-4 0.02443-0.0033 0.0332-0.0039 0.0088 5.24e-4 0.0257 0.0041 0.0332 0.0039 0.117903-0.0032 0.879258-0.282799 1.691406-0.623047 3.658351-1.53269 7.326994-3.553272 9.996094-5.507812 6.075191-4.448736 8.44786-9.914377 9.113281-21.410157 0.0902-1.55889 0.164756-3.504078 0.166016-4.322265 2.79e-4 -0.182375-0.0055-0.324258-0.0078-0.484375 3.6e-5 -3e-3 -5.7e-5 -0.0084 0-0.01172 0.0012-0.07091 0.0076-0.198863 0.0078-0.253906 0.0029-1.888798-0.08873-2.548482-1.240234-2.703125-0.523409-0.07047-1.26635-0.03711-2.31836 0.0332-0.427292 0.02856-0.849399 0.04962-1.265625 0.0625-1.248686 0.03862-2.445608 0.0068-3.589843-0.0918-0.762819-0.06572-1.503098-0.160614-2.216797-0.285156-0.356853-0.0623-0.706613-0.132305-1.050782-0.208985-0.688331-0.153305-1.35035-0.335386-1.986328-0.544921-2.22593-0.733564-4.125253-1.805154-5.650384-3.179688-0.226768-0.204375-0.412517-0.36716-0.572266-0.496094-0.159749-0.128948-0.292889-0.225093-0.414063-0.294922-0.242348-0.139619-0.436606-0.176704-0.695312-0.177734z" filter="url(#filter3836)" opacity=".3"/>
        <path id="path434" d="m31.999987 12.50007c-0.517412 0.0021-0.774559 0.150911-1.681629 0.968412-3.486019 3.141796-8.923467 4.705562-15.76015 4.248624-3.366435-0.225002-3.562282-0.07706-3.558082 2.670283 0.0013 0.818188 0.07592 2.762188 0.166112 4.32108 0.665423 11.495791 3.038415 16.961474 9.113612 21.410214 2.669104 1.954542 6.337087 3.975408 9.995442 5.5081 0.812148 0.340248 1.57398 0.619996 1.691883 0.623134 0.0074 1.67e-4 0.02404-0.0035 0.03281-0.0041 0.0088 5.24e-4 0.02531 0.0043 0.03281 0.0041 0.117903-0.0032 0.879734-0.282886 1.691883-0.623134 3.658354-1.532692 7.326338-3.553558 9.995441-5.5081 6.075197-4.44874 8.44819-9.914423 9.113612-21.410214 0.0902-1.558892 0.164852-3.502892 0.166112-4.32108 0.0042-2.747345-0.191646-2.895285-3.558082-2.670283-6.836683 0.456938-12.274131-1.106828-15.76015-4.248624-0.90707-0.817501-1.164216-0.966351-1.681629-0.968412z" opacity=".2"/>
        <path id="path436" d="m31.999987 11.750074c-0.517412 0.0021-0.774559 0.150912-1.681629 0.968413-3.486019 3.141796-8.923467 4.705562-15.76015 4.248623-3.366435-0.225002-3.562282-0.07706-3.558082 2.670283 0.0013 0.818188 0.07592 2.762188 0.166112 4.321081 0.665423 11.49579 3.038415 16.961473 9.113612 21.410213 2.669104 1.954542 6.337087 3.975408 9.995442 5.5081 0.812148 0.340248 1.57398 0.619996 1.691883 0.623134 0.0074 1.67e-4 0.02404-0.0035 0.03281-4e-3 0.0088 5.24e-4 0.02531 0.0043 0.03281 4e-3 0.117903-0.0031 0.879734-0.282886 1.691883-0.623134 3.658354-1.532692 7.326338-3.553558 9.995441-5.5081 6.075197-4.44874 8.44819-9.914423 9.113612-21.410213 0.0902-1.558893 0.164852-3.502893 0.166112-4.321081 0.0042-2.747345-0.191646-2.895285-3.558082-2.670283-6.836683 0.456939-12.274131-1.106827-15.76015-4.248623-0.90707-0.817501-1.164216-0.966352-1.681629-0.968413z" fill="#f0f0f0"/>
        <path id="path438" d="m31.999987 23.495146v3.1787c1.563291 0.575865 3.013231 1.321702 4.281723 2.232414 3.335534 2.394742 5.468242 5.808019 5.468242 10.593711h2.999989c0-5.714259-2.742282-10.175969-6.719214-13.031203-1.80387-1.295086-3.852039-2.280381-6.03074-2.973622zm0 5.525371v3.304676c0.411579 0.213284 0.79965 0.442101 1.155758 0.688473 2.20695 1.52688 3.391206 3.544473 3.344226 6.462868l2.999989 0.04687c0.06168-3.831574-1.754987-6.982139-4.637679-8.97653-0.869006-0.601224-1.828723-1.107988-2.862294-1.526362z" opacity=".2"/>
        <path id="path440" d="m31.999987 15.923396c-4.263288 3.662892-10.41517 5.270141-17.642514 4.787093-0.174201-0.01161-0.194166-0.0048-0.345702-0.01319 0.01069 0.774755 0.06864 2.441869 0.149414 3.837876 0.322407 5.569884 1.064905 9.470516 2.292471 12.342729 1.227569 2.872215 2.883293 4.831915 5.598613 6.820288 2.407352 1.762865 5.931606 3.716404 9.382291 5.162091 0.211687 0.08869 0.37718 0.150365 0.565427 0.22412v-10.709428a4.1249851 4.1249851 0 0 1-4.124985 4.124986 4.1249851 4.1249851 0 0 1-4.124985-4.124986 4.1249851 4.1249851 0 0 1 4.124985-4.124985 4.1249851 4.1249851 0 0 1 4.124985 4.124985v-6.049782c-2.139152-1.108531-4.995792-1.759578-8.279266-1.825189l0.05859-2.999989c3.028006 0.06051 5.825663 0.551036 8.220677 1.520502v-2.346671c-2.547425-0.938389-5.395772-1.423823-8.24997-1.423823v-2.999989c2.81088 0 5.625363 0.409988 8.24997 1.245112z" opacity=".2"/>
        <path id="path442" d="m31.999987 15.173401c-4.263288 3.662891-10.41517 5.27014-17.642514 4.787092-0.174201-0.01161-0.194166-0.0048-0.345702-0.01318 0.01069 0.774755 0.06864 2.441869 0.149414 3.837876 0.322407 5.569884 1.064905 9.470516 2.292471 12.342729 1.227569 2.872215 2.883293 4.831915 5.598613 6.820287 2.407352 1.762865 5.931606 3.716404 9.382291 5.162092 0.211687 0.08868 0.37718 0.150365 0.565427 0.22412v-10.709437a4.1249851 4.1249851 0 0 1-4.124985 4.124985 4.1249851 4.1249851 0 0 1-4.124985-4.124985 4.1249851 4.1249851 0 0 1 4.124985-4.124985 4.1249851 4.1249851 0 0 1 4.124985 4.124985v-6.049783c-2.139152-1.108531-4.995792-1.759578-8.279266-1.825189l0.05859-2.999989c3.028006 0.06051 5.825663 0.551036 8.220677 1.520502v-2.346671c-2.547425-0.938389-5.395772-1.423823-8.24997-1.423823v-2.999989c2.81088 0 5.625363 0.409988 8.24997 1.245112z" fill="#ed5125"/>
        <path id="path444" d="m31.999987 22.74515v3.1787c1.563291 0.575866 3.013231 1.321702 4.281723 2.232414 3.335534 2.394742 5.468242 5.808019 5.468242 10.593712h2.999989c0-5.71426-2.742282-10.17597-6.719214-13.031203-1.80387-1.295087-3.852039-2.280381-6.03074-2.973623zm0 5.525371v3.304676c0.411579 0.213284 0.79965 0.442101 1.155758 0.688474 2.20695 1.526879 3.391206 3.544472 3.344226 6.462867l2.999989 0.04687c0.06168-3.831573-1.754987-6.982139-4.637679-8.97653-0.869006-0.601223-1.828723-1.107988-2.862294-1.526362z" fill="#ed5125"/>
        <path id="path446" d="m31.999987 11.750073c-0.517412 0.0021-0.774565 0.150757-1.681635 0.968258-3.486019 3.141796-8.923513 4.706435-15.760196 4.249497-3.366435-0.225002-3.562293-0.07841-3.558093 2.668935 9.2e-5 0.05758 0.0065 0.196931 0.0073 0.265136 0.03312-2.251714 0.407908-2.394133 3.550768-2.184074 6.83668 0.456939 12.274174-1.1077 15.760193-4.249496 0.90707-0.817501 1.164223-0.966198 1.681635-0.968259 0.517413 0.0021 0.774565 0.150758 1.681635 0.968259 3.486018 3.141796 8.923514 4.706435 15.760197 4.249496 3.142859-0.210059 3.51765-0.06764 3.550768 2.184074 8.25e-4 -0.0682 0.0072-0.207555 0.0074-0.265136 0.0042-2.747345-0.191657-2.893937-3.558093-2.668935-6.83673 0.456938-12.274226-1.107701-15.760244-4.249497-0.90707-0.817501-1.164222-0.966197-1.681635-0.968258z" fill="#fff"/>
        <path id="path448" d="m31.999987 15.173401c-4.263288 3.662891-10.41517 5.27014-17.642514 4.787092-0.174201-0.01161-0.194166-0.0048-0.345702-0.01318 0.0024 0.172656 0.01517 0.503046 0.02197 0.751462 0.127299 0.0061 0.160612 8.25e-4 0.323729 0.01172 7.227344 0.483044 13.379226-1.124205 17.642514-4.787096zm-8.24997 9.326626v0.749997c2.854198 0 5.702545 0.485434 8.24997 1.423824v-0.749998c-2.547425-0.938389-5.395772-1.423823-8.24997-1.423823zm-0.01465 5.249981-0.01465 0.749997c3.283473 0.06561 6.140113 0.716658 8.279265 1.825189v-0.749997c-2.135925-1.106859-4.987385-1.757913-8.264618-1.825189zm8.230926 8.131318a4.1249851 4.1249851 0 0 1-4.091294 3.868639 4.1249851 4.1249851 0 0 1-4.075181-3.749987 4.1249851 4.1249851 0 0 0-0.0498 0.374999 4.1249851 4.1249851 0 0 0 4.124985 4.124985 4.1249851 4.1249851 0 0 0 4.124985-4.124985 4.1249851 4.1249851 0 0 0-0.03369-0.493651z" fill="#fff" opacity=".2"/>
    </g>
</svg>
