<svg id="svg290" version="1.1" viewBox="0 0 64 64" xmlns="http://www.w3.org/2000/svg">
  <defs id="defs278">
    <style id="style266" type="text/css"/>
    <style id="style268" type="text/css"/>
    <filter id="filter1057" x="-.026999999" y="-.026999999" width="1.054" height="1.054" color-interpolation-filters="sRGB">
      <feGaussianBlur id="feGaussianBlur270" stdDeviation="0.61875"/>
    </filter>
    <linearGradient id="linearGradient1053" x1="-127" x2="-72" y1="60" y2="5" gradientTransform="translate(131.5 -.51)" gradientUnits="userSpaceOnUse">
      <stop id="stop273" stop-color="#bddc93" offset="0"/>
      <stop id="stop275" stop-color="#fee98b" offset="1"/>
    </linearGradient>
    <filter id="filter2036" x="-.00017941547" y="-.00014380193" width="1.0003588" height="1.0002876" color-interpolation-filters="sRGB">
      <feFlood id="feFlood2026" flood-color="rgb(0,0,0)" flood-opacity=".501961" result="flood"/>
      <feComposite id="feComposite2028" in="flood" in2="SourceGraphic" operator="out" result="composite1"/>
      <feGaussianBlur id="feGaussianBlur2030" in="composite1" result="blur" stdDeviation="0.0011175516"/>
      <feOffset id="feOffset2032" dx="0" dy="0" result="offset"/>
      <feComposite id="feComposite2034" in="offset" in2="SourceGraphic" operator="atop" result="composite2"/>
    </filter>
    <filter id="filter2965-4" x="-.00011027773" y="-.00013160226" width="1.0002206" height="1.0002632" color-interpolation-filters="sRGB">
      <feFlood id="feFlood2955-7" flood-color="rgb(0,0,0)" flood-opacity=".8" result="flood"/>
      <feComposite id="feComposite2957-6" in="flood" in2="SourceGraphic" operator="out" result="composite1"/>
      <feGaussianBlur id="feGaussianBlur2959-56" in="composite1" result="blur" stdDeviation="0.0040612649"/>
      <feOffset id="feOffset2961-9" dx="0" dy="0" result="offset"/>
      <feComposite id="feComposite2963-3" in="offset" in2="SourceGraphic" operator="atop" result="composite2"/>
    </filter>
    <filter id="filter2953-7" x="-4.9206763e-5" y="-3.8500215e-5" width="1.0000984" height="1.000077" color-interpolation-filters="sRGB">
      <feFlood id="feFlood2943-4" flood-color="rgb(0,0,0)" flood-opacity=".8" result="flood"/>
      <feComposite id="feComposite2945-5" in="flood" in2="SourceGraphic" operator="out" result="composite1"/>
      <feGaussianBlur id="feGaussianBlur2947-2" in="composite1" result="blur" stdDeviation="0.0012183777"/>
      <feOffset id="feOffset2949-5" dx="0" dy="0" result="offset"/>
      <feComposite id="feComposite2951-4" in="offset" in2="SourceGraphic" operator="atop" result="composite2"/>
    </filter>
    <filter id="filter2989-7" x="-9.0058904e-7" y="-1.7976474e-6" width="1.0000018" height="1.0000036" color-interpolation-filters="sRGB">
      <feFlood id="feFlood2979-4" flood-color="rgb(0,0,0)" flood-opacity=".8" result="flood"/>
      <feComposite id="feComposite2981-4" in="flood" in2="SourceGraphic" operator="out" result="composite1"/>
      <feGaussianBlur id="feGaussianBlur2983-3" in="composite1" result="blur" stdDeviation="3.0984988e-05"/>
      <feOffset id="feOffset2985-07" dx="0" dy="0" result="offset"/>
      <feComposite id="feComposite2987-8" in="offset" in2="SourceGraphic" operator="atop" result="composite2"/>
    </filter>
    <filter id="filter2977-6" x="-.00018302206" y="-.00014299519" width="1.000366" height="1.000286" color-interpolation-filters="sRGB">
      <feFlood id="feFlood2967-8" flood-color="rgb(0,0,0)" flood-opacity=".8" result="flood"/>
      <feComposite id="feComposite2969-84" in="flood" in2="SourceGraphic" operator="out" result="composite1"/>
      <feGaussianBlur id="feGaussianBlur2971-31" in="composite1" result="blur" stdDeviation="0.0045255357"/>
      <feOffset id="feOffset2973-4" dx="0" dy="0" result="offset"/>
      <feComposite id="feComposite2975-9" in="offset" in2="SourceGraphic" operator="atop" result="composite2"/>
    </filter>
    <filter id="filter1778-20" x="-3.1106598e-9" y="-1.6823119e-8" width="1" height="1" color-interpolation-filters="sRGB">
      <feFlood id="feFlood1768-6" flood-color="rgb(0,0,0)" flood-opacity=".501961" result="flood"/>
      <feComposite id="feComposite1770-8" in="flood" in2="SourceGraphic" operator="out" result="composite1"/>
      <feGaussianBlur id="feGaussianBlur1772-9" in="composite1" result="blur" stdDeviation="2.1904948e-07"/>
      <feOffset id="feOffset1774-2" dx="0" dy="0" result="offset"/>
      <feComposite id="feComposite1776-6" in="offset" in2="SourceGraphic" operator="atop" result="composite2"/>
    </filter>
    <filter id="filter3196" x="-.027020088" y="-.027056434" width="1.0540402" height="1.0540364" color-interpolation-filters="sRGB">
      <feGaussianBlur id="feGaussianBlur3198" stdDeviation="0.39418418"/>
    </filter>
  </defs>
  <rect id="rect280" x="4.5" y="4.5" width="55" height="55" ry="15" fill="#141414" filter="url(#filter1057)" opacity=".3" stroke-linecap="round" stroke-width="2.7444"/>
  <rect id="rect282" x="4.5" y="4.5" width="55" height="55" ry="15" fill="url(#linearGradient1053)" stroke-linecap="round" stroke-width="2.7444"/>
  <circle id="circle284" cx="-1326.3" cy="-1241.6" r="0" fill="#5e4aa6"/>
  <circle id="circle286" cx="-226.72" cy="23.855" r="0" fill="#5e4aa6" fill-rule="evenodd"/>
  <g id="g3663">
    <g id="g3194" transform="translate(-2.2338863,-2.5506481)" filter="url(#filter3196)" opacity=".3">
      <path id="path3166" transform="matrix(.20716804 0 0 .20716832 14.35342 19.181437)" d="m81.873967 145.80636c-1.441926-0.46449-3.955138-1.87851-9.498577-5.34426-4.001524-2.50174-4.906304-3.00234-7.502059-4.15076-2.909857-1.28739-5.079164-2.06534-11.214173-4.02162l-1.834058-0.58482 1.14e-4 -0.50553c4.84e-4 -2.1356 3.354221-10.91186 8.839965-23.13295 6.964546-15.515553 14.657559-30.591908 16.753528-32.832668 0.343288-0.367004 0.516569-0.465574 1.300299-0.739673 5.294258-1.851594 9.951344-2.533518 17.300267-2.53323 6.957737 2.74e-4 11.341597 0.603599 16.455807 2.264721 1.6877 0.548174 1.74955 0.5767 2.09072 0.964295 3.06329 3.480075 15.43554 28.824645 21.9819 45.029955 2.31806 5.73828 3.48753 9.21985 3.63791 10.83024 0.0508 0.54377 0.0467 0.55755-0.20324 0.68653-0.14028 0.0724-1.53847 0.53444-3.10708 1.02677-5.85713 1.83835-9.66343 3.34061-12.96949 5.11877-0.58337 0.31376-2.5721 1.51303-4.41942 2.66505-1.84732 1.15201-3.9156 2.42694-4.59619 2.83316-1.44412 0.86195-4.02937 2.1884-4.72878 2.42626-1.06018 0.36056-5.00379 0.257-9.16323-0.24061-2.16595-0.25912-2.597402-0.28375-4.978907-0.28426-2.380465-5.3e-4 -2.815211 0.0241-4.993941 0.28259-2.673685 0.31722-4.969271 0.46678-7.071068 0.4607-1.24853-4e-3 -1.49225-0.0292-2.080297-0.21866z" filter="url(#filter2965-4)"/>
      <path id="path3168" transform="matrix(.20716804 0 0 .20716832 14.35342 19.181437)" d="m33.824913 131.80229-4.609351-1.22041-5.458672-3.19544-1.733211 0.25583c-1.727604 0.25499-1.736426 0.25743-2.726661 0.75405l-0.99345 0.49824 0.06314-0.24941c0.03473-0.13718 0.515089-2.13871 1.067475-4.44786l1.004338-4.19845 4.238563-13.43502 4.238563-13.435033 4.543566-9.553647 4.543565-9.553646 3.182325-5.030431 3.182326-5.030431 5.114544-3.440196 5.114545-3.440196 0.625127 0.321855c0.880939 0.453565 4.957691 2.786229 6.591341 3.77148 4.837608 2.917551 7.136502 4.806819 13.547905 11.133892l2.367569 2.336427-0.391868 0.403612c-1.242193 1.279425-4.049797 6.308511-8.317876 14.8993-8.895958 17.905784-17.081158 37.206494-17.346568 40.903224-0.04351 0.60607-0.0711 0.6912-0.23543 0.7265-0.20331 0.0437-12.886325 1.4668-12.958256 1.45402-0.02431-4e-3 -2.118402-0.55704-4.653546-1.22826z" filter="url(#filter2953-7)"/>
      <path id="path3170" d="m39.927685 35.671184s-4.894592-3.181891-5.740931-4.115764c-0.929232-1.025341-1.369366-1.763033-1.780033-2.785559-0.913167-2.273714-0.646865-5.585806-1.425648-7.211127-0.891554-1.860676-4.208293-4.539065-4.208293-4.539065l14.601215 0.0102s-3.401699 2.63686-4.214583 4.533226c-0.672478 1.568816-0.879692 3.197465-0.311821 5.111111 0.453249 1.527384 6.217559 7.022796 4.583632 5.386016" filter="url(#filter2036)" style="mix-blend-mode:normal"/>
      <path id="path3172" transform="matrix(.20716804 0 0 .20716832 14.35342 19.181437)" d="m112.69503 74.101649c-2.59624-0.87281-5.53273-1.546385-8.18044-1.876442-2.29092-0.285579-3.5232-0.35736-7.081103-0.412471-7.810717-0.120989-12.369576 0.440113-17.830734 2.194597l-1.699861 0.546107-2.410198-2.380204c-5.145981-5.081942-7.783474-7.394542-10.498948-9.205665-2.059078-1.373328-6.544834-4.037099-9.478433-5.628563l-0.773398-0.419566 0.0047-0.854628c0.0026-0.470045 0.05698-2.226857 0.12091-3.904026l0.116232-3.049398 1.81524-6.010408 10.171954-4.314545 10.171956-4.314545 2.124059-0.211465c2.540585-0.252933 7.726825-0.685129 10.786118-0.898862 2.686207-0.187668 8.71432-0.211915 11.225316-0.04515 3.79128 0.25179 9.52416 0.730395 12.41856 1.036754l1.19325 0.1263 10.15863 4.311565 10.15864 4.311565 0.90478 3.01769 0.90478 3.017688 0.0943 2.682552c0.0519 1.475404 0.11885 3.220939 0.14877 3.878969l0.0544 1.196416-0.473 0.253852c-3.9428 2.116049-9.6381 5.566173-11.42613 6.921776-1.99969 1.516063-4.56622 3.842717-8.31425 7.537163l-3.00648 2.963488z" filter="url(#filter2989-7)"/>
      <path id="path3174" d="m23.628502 32.301673c0.0943-0.177166 2.368502-3.978482 2.372684-3.965932 0.0033 0.0099-0.0614 0.23926-0.143734 0.509805l-0.149702 0.491905-0.05662 1.631244-0.995445 0.667591c-0.547494 0.367174-1.004514 0.670719-1.015598 0.674543-0.01109 0.0038-0.01629-2.9e-4 -0.01158-0.0092z"/>
      <path id="path3176" d="m43.851663 31.652128c-0.552889-0.371323-1.007646-0.677529-1.010576-0.680457-0.0029-0.0029-0.01852-0.367706-0.03465-0.810617l-0.02932-0.805293-0.155757-0.519503c-0.08567-0.285726-0.15262-0.522639-0.148787-0.526472 0.0038-0.0038 0.544382 0.896257 1.201217 2.000201 0.656837 1.103944 1.191741 2.009444 1.188682 2.012222-0.0031 0.0027-0.457929-0.298759-1.010814-0.670081z"/>
      <path id="path3178" transform="matrix(.20716804 0 0 .20716832 14.35342 19.181437)" d="m146.79838 132.28255c-3.50018-0.4039-6.37391-0.73766-6.38606-0.7417-0.0121-4e-3 -0.0225-0.15648-0.0229-0.33878-1e-3 -0.5882-0.42012-2.20274-1.09122-4.20777-4.29059-12.81901-20.96711-48.00222-24.64263-51.989691l-0.34053-0.369431 2.94185-2.906593c5.30754-5.243927 7.63693-7.218754 11.11252-9.421033 2.17487-1.378088 5.78591-3.485038 8.46207-4.937397l0.55131-0.2992 10.21504 6.844436 3.20488 5.060757 3.20489 5.060756 4.5533 9.582719 4.5533 9.582718 4.23623 13.442449 4.23622 13.44244 1.04832 4.37523c0.57658 2.40637 1.03734 4.38949 1.02392 4.40693-0.0134 0.0174-0.44059-0.19152-0.94925-0.46437l-0.92484-0.49608-3.53274-0.52792-2.7277 1.59847-2.72769 1.59847-4.66441 1.22909c-2.56542 0.67599-4.73315 1.22475-4.81716 1.21947-0.084-5e-3 -3.01654-0.34007-6.51672-0.74397z" filter="url(#filter2977-6)"/>
      <path id="path3180" transform="matrix(.20716804 0 0 .20716832 14.35342 19.181437)" d="m23.472545 157.1602-3.45603-1.67959-3.077105 0.40079c-1.692408 0.22043-3.160397 0.41398-3.262198 0.43012-0.157929 0.025-0.334187-0.23897-1.201039-1.79898l-1.015947-1.82832 1.279595-2.1929 1.279595-2.19289 1.216285-4.76048c0.668957-2.61827 1.283902-4.86368 1.366546-4.98981 0.08264-0.12613 1.04949-1.46765 2.148548-2.98116 1.951535-2.68744 1.997841-2.76113 1.979251-3.14957-0.01047-0.21876-0.08146-1.17885-0.157747-2.13354-0.07629-0.95468-0.125697-1.84804-0.10979-1.98524l0.02892-0.24945 1.590991-0.23852 1.59099-0.23851 5.442274 3.17052 9.384728 2.47638 6.551858-0.73425c6.306324-0.70673 6.563451-0.72877 6.861217-0.58823 0.170148 0.0803 1.597298 0.55099 3.171447 1.04595 5.59835 1.76031 9.031877 3.10024 12.399798 4.839 0.745318 0.38479 2.985889 1.71466 4.979046 2.95526 1.993157 1.24061 4.24873 2.62192 5.012385 3.06959 1.714783 1.00521 3.916239 2.08469 4.618418 2.26463 1.10362 0.2828 5.01317 0.13986 8.93075-0.32652 2.16587-0.25784 2.623443-0.28424 4.949747-0.28565 2.332079-1e-3 2.778502 0.0239 4.949752 0.28094 2.7889 0.33011 4.82506 0.46622 6.97469 0.46622 1.41339 0 1.60703-0.0194 2.26281-0.22655 1.48433-0.4689 3.70959-1.71517 9.55626-5.35203 3.71226-2.30917 4.69609-2.86626 6.66208-3.77236 2.87051-1.32298 5.86352-2.43204 10.68033-3.95759 1.46647-0.46446 2.81243-0.91508 2.99103-1.00139 0.32042-0.15485 0.4116-0.14713 6.88301 0.58258l6.55829 0.73951 4.56328-1.19577c2.50981-0.65768 4.69173-1.25445 4.84872-1.32616 0.15699-0.0717 1.43338-0.80306 2.83643-1.62524l2.551-1.49486 1.59785 0.23303c0.87881 0.12816 1.62327 0.25851 1.65434 0.28965 0.0311 0.0312-0.0285 1.09238-0.13248 2.35828l-0.18898 2.30165 2.16146 2.98922 2.16146 2.98921 2.42194 9.52862 1.28691 2.21139c0.98436 1.69148 1.26686 2.2442 1.2016 2.35095-0.0469 0.0768-0.49391 0.88534-0.99331 1.79685-0.78309 1.42929-0.93682 1.65728-1.11751 1.65728-0.11524 0-1.59323-0.18044-3.28444-0.40097l-3.07493-0.40098-6.8919 3.34162-14.37914-0.90285-14.37915-0.90286-4.38734-2.82408-5.3033-1.52844c-2.91682-0.84064-6.79486-1.95777-8.61787-2.48251l-3.31456-0.95407-5.03814-0.84337c-5.77059-0.96597-9.891626-1.57634-12.113599-1.79413-1.45301-0.14242-1.630762-0.14249-3.067098-1e-3 -2.685998 0.26445-8.424495 1.12944-14.454773 2.17884l-2.979828 0.51855-8.529476 2.46536-8.529475 2.46537-2.158434 1.3943-2.158433 1.39431-1.15613 0.0801c-0.635871 0.0441-6.883694 0.43658-13.884051 0.87224s-12.950104 0.81237-13.221661 0.83713c-0.493349 0.045-0.49646 0.0437-3.949768-1.63457z" filter="url(#filter1778-20)" style="mix-blend-mode:normal"/>
      <g stroke="#000" stroke-width="1.03584">
        <path id="path3182" d="m25.064136 46.453451-2.729298 0.307679-1.938554-0.510326-1.126743-0.65907-0.710446 0.104031-0.441198 0.229271 0.446831-1.873337 1.75563-5.569908 1.888939-3.975695 1.328459-2.096825 2.12966-1.42807"/>
        <path id="path3184" d="m30.484702 34.654557c-0.60257 0.219908-5.704714 11.101702-5.408384 11.812272 0.03634 0.08715 2.274787 0.591732 3.753117 1.513029 1.173613 0.731397 2.291868 1.466904 2.688875 1.471158 1.527437 0.01622 1.813783-0.169466 2.723309-0.169466 0.909523 0 1.195861 0.185691 2.723299 0.169465 0.397007-0.0043 1.515263-0.73976 2.688875-1.471157 1.478328-0.921296 3.716774-1.425879 3.753118-1.513029 0.296331-0.710569-4.805808-11.592364-5.408376-11.812271-1.427542-0.520979-2.489653-0.582363-3.756915-0.582363-1.267263 0-2.329375 0.06139-3.756918 0.582362z"/>
        <path id="path3186" d="m43.419093 46.453451 2.729299 0.307682 1.938553-0.510328 1.126744-0.65907 0.710445 0.104033 0.441198 0.229271-0.446831-1.873339-1.755631-5.569909-1.888938-3.975693-1.32846-2.096825-2.129659-1.428071"/>
        <path id="path3188" d="m37.998535 34.654557s1.479802-1.527238 2.324842-2.165643c0.774754-0.585305 2.492437-1.507718 2.492437-1.507718l-0.05638-1.621057-0.379978-1.263121-4.225566-1.792885s-2.604954-0.275573-3.912278-0.275573c-1.307328 0-3.912288 0.275573-3.912288 0.275573l-4.225566 1.792885-0.379977 1.263121-0.05637 1.621057s1.717681 0.922414 2.492435 1.507718c0.845043 0.638405 2.324851 2.165643 2.324851 2.165643"/>
        <path id="path3190" d="m26.103762 28.097018-2.566006 4.312254"/>
        <path id="path3192" d="m42.37946 28.097018 2.566012 4.312255"/>
      </g>
    </g>
    <g id="g2619" transform="translate(-2.2338863,-2.5506481)">
      <path id="path2929" transform="matrix(.20716804 0 0 .20716832 14.35342 19.181437)" d="m81.873967 145.80636c-1.441926-0.46449-3.955138-1.87851-9.498577-5.34426-4.001524-2.50174-4.906304-3.00234-7.502059-4.15076-2.909857-1.28739-5.079164-2.06534-11.214173-4.02162l-1.834058-0.58482 1.14e-4 -0.50553c4.84e-4 -2.1356 3.354221-10.91186 8.839965-23.13295 6.964546-15.515553 14.657559-30.591908 16.753528-32.832668 0.343288-0.367004 0.516569-0.465574 1.300299-0.739673 5.294258-1.851594 9.951344-2.533518 17.300267-2.53323 6.957737 2.74e-4 11.341597 0.603599 16.455807 2.264721 1.6877 0.548174 1.74955 0.5767 2.09072 0.964295 3.06329 3.480075 15.43554 28.824645 21.9819 45.029955 2.31806 5.73828 3.48753 9.21985 3.63791 10.83024 0.0508 0.54377 0.0467 0.55755-0.20324 0.68653-0.14028 0.0724-1.53847 0.53444-3.10708 1.02677-5.85713 1.83835-9.66343 3.34061-12.96949 5.11877-0.58337 0.31376-2.5721 1.51303-4.41942 2.66505-1.84732 1.15201-3.9156 2.42694-4.59619 2.83316-1.44412 0.86195-4.02937 2.1884-4.72878 2.42626-1.06018 0.36056-5.00379 0.257-9.16323-0.24061-2.16595-0.25912-2.597402-0.28375-4.978907-0.28426-2.380465-5.3e-4 -2.815211 0.0241-4.993941 0.28259-2.673685 0.31722-4.969271 0.46678-7.071068 0.4607-1.24853-4e-3 -1.49225-0.0292-2.080297-0.21866z" fill="#8bc34a" filter="url(#filter2965-4)"/>
      <path id="path2931" transform="matrix(.20716804 0 0 .20716832 14.35342 19.181437)" d="m33.824913 131.80229-4.609351-1.22041-5.458672-3.19544-1.733211 0.25583c-1.727604 0.25499-1.736426 0.25743-2.726661 0.75405l-0.99345 0.49824 0.06314-0.24941c0.03473-0.13718 0.515089-2.13871 1.067475-4.44786l1.004338-4.19845 4.238563-13.43502 4.238563-13.435033 4.543566-9.553647 4.543565-9.553646 3.182325-5.030431 3.182326-5.030431 5.114544-3.440196 5.114545-3.440196 0.625127 0.321855c0.880939 0.453565 4.957691 2.786229 6.591341 3.77148 4.837608 2.917551 7.136502 4.806819 13.547905 11.133892l2.367569 2.336427-0.391868 0.403612c-1.242193 1.279425-4.049797 6.308511-8.317876 14.8993-8.895958 17.905784-17.081158 37.206494-17.346568 40.903224-0.04351 0.60607-0.0711 0.6912-0.23543 0.7265-0.20331 0.0437-12.886325 1.4668-12.958256 1.45402-0.02431-4e-3 -2.118402-0.55704-4.653546-1.22826z" fill="#8bc34a" filter="url(#filter2953-7)"/>
      <path id="path2585" d="m39.927685 35.671184s-4.894592-3.181891-5.740931-4.115764c-0.929232-1.025341-1.369366-1.763033-1.780033-2.785559-0.913167-2.273714-0.646865-5.585806-1.425648-7.211127-0.891554-1.860676-4.208293-4.539065-4.208293-4.539065l14.601215 0.0102s-3.401699 2.63686-4.214583 4.533226c-0.672478 1.568816-0.879692 3.197465-0.311821 5.111111 0.453249 1.527384 6.217559 7.022796 4.583632 5.386016" fill="#fdd835" filter="url(#filter2036)" style="mix-blend-mode:normal"/>
      <path id="path2933" transform="matrix(.20716804 0 0 .20716832 14.35342 19.181437)" d="m112.69503 74.101649c-2.59624-0.87281-5.53273-1.546385-8.18044-1.876442-2.29092-0.285579-3.5232-0.35736-7.081103-0.412471-7.810717-0.120989-12.369576 0.440113-17.830734 2.194597l-1.699861 0.546107-2.410198-2.380204c-5.145981-5.081942-7.783474-7.394542-10.498948-9.205665-2.059078-1.373328-6.544834-4.037099-9.478433-5.628563l-0.773398-0.419566 0.0047-0.854628c0.0026-0.470045 0.05698-2.226857 0.12091-3.904026l0.116232-3.049398 1.81524-6.010408 10.171954-4.314545 10.171956-4.314545 2.124059-0.211465c2.540585-0.252933 7.726825-0.685129 10.786118-0.898862 2.686207-0.187668 8.71432-0.211915 11.225316-0.04515 3.79128 0.25179 9.52416 0.730395 12.41856 1.036754l1.19325 0.1263 10.15863 4.311565 10.15864 4.311565 0.90478 3.01769 0.90478 3.017688 0.0943 2.682552c0.0519 1.475404 0.11885 3.220939 0.14877 3.878969l0.0544 1.196416-0.473 0.253852c-3.9428 2.116049-9.6381 5.566173-11.42613 6.921776-1.99969 1.516063-4.56622 3.842717-8.31425 7.537163l-3.00648 2.963488z" fill="#8bc34a" filter="url(#filter2989-7)"/>
      <path id="path2935" d="m23.628502 32.301673c0.0943-0.177166 2.368502-3.978482 2.372684-3.965932 0.0033 0.0099-0.0614 0.23926-0.143734 0.509805l-0.149702 0.491905-0.05662 1.631244-0.995445 0.667591c-0.547494 0.367174-1.004514 0.670719-1.015598 0.674543-0.01109 0.0038-0.01629-2.9e-4 -0.01158-0.0092z" fill="#43a047"/>
      <path id="path2937" d="m43.851663 31.652128c-0.552889-0.371323-1.007646-0.677529-1.010576-0.680457-0.0029-0.0029-0.01852-0.367706-0.03465-0.810617l-0.02932-0.805293-0.155757-0.519503c-0.08567-0.285726-0.15262-0.522639-0.148787-0.526472 0.0038-0.0038 0.544382 0.896257 1.201217 2.000201 0.656837 1.103944 1.191741 2.009444 1.188682 2.012222-0.0031 0.0027-0.457929-0.298759-1.010814-0.670081z" fill="#43a047"/>
      <path id="path2939" transform="matrix(.20716804 0 0 .20716832 14.35342 19.181437)" d="m146.79838 132.28255c-3.50018-0.4039-6.37391-0.73766-6.38606-0.7417-0.0121-4e-3 -0.0225-0.15648-0.0229-0.33878-1e-3 -0.5882-0.42012-2.20274-1.09122-4.20777-4.29059-12.81901-20.96711-48.00222-24.64263-51.989691l-0.34053-0.369431 2.94185-2.906593c5.30754-5.243927 7.63693-7.218754 11.11252-9.421033 2.17487-1.378088 5.78591-3.485038 8.46207-4.937397l0.55131-0.2992 10.21504 6.844436 3.20488 5.060757 3.20489 5.060756 4.5533 9.582719 4.5533 9.582718 4.23623 13.442449 4.23622 13.44244 1.04832 4.37523c0.57658 2.40637 1.03734 4.38949 1.02392 4.40693-0.0134 0.0174-0.44059-0.19152-0.94925-0.46437l-0.92484-0.49608-3.53274-0.52792-2.7277 1.59847-2.72769 1.59847-4.66441 1.22909c-2.56542 0.67599-4.73315 1.22475-4.81716 1.21947-0.084-5e-3 -3.01654-0.34007-6.51672-0.74397z" fill="#8bc34a" filter="url(#filter2977-6)"/>
      <path id="path2941" transform="matrix(.20716804 0 0 .20716832 14.35342 19.181437)" d="m23.472545 157.1602-3.45603-1.67959-3.077105 0.40079c-1.692408 0.22043-3.160397 0.41398-3.262198 0.43012-0.157929 0.025-0.334187-0.23897-1.201039-1.79898l-1.015947-1.82832 1.279595-2.1929 1.279595-2.19289 1.216285-4.76048c0.668957-2.61827 1.283902-4.86368 1.366546-4.98981 0.08264-0.12613 1.04949-1.46765 2.148548-2.98116 1.951535-2.68744 1.997841-2.76113 1.979251-3.14957-0.01047-0.21876-0.08146-1.17885-0.157747-2.13354-0.07629-0.95468-0.125697-1.84804-0.10979-1.98524l0.02892-0.24945 1.590991-0.23852 1.59099-0.23851 5.442274 3.17052 9.384728 2.47638 6.551858-0.73425c6.306324-0.70673 6.563451-0.72877 6.861217-0.58823 0.170148 0.0803 1.597298 0.55099 3.171447 1.04595 5.59835 1.76031 9.031877 3.10024 12.399798 4.839 0.745318 0.38479 2.985889 1.71466 4.979046 2.95526 1.993157 1.24061 4.24873 2.62192 5.012385 3.06959 1.714783 1.00521 3.916239 2.08469 4.618418 2.26463 1.10362 0.2828 5.01317 0.13986 8.93075-0.32652 2.16587-0.25784 2.623443-0.28424 4.949747-0.28565 2.332079-1e-3 2.778502 0.0239 4.949752 0.28094 2.7889 0.33011 4.82506 0.46622 6.97469 0.46622 1.41339 0 1.60703-0.0194 2.26281-0.22655 1.48433-0.4689 3.70959-1.71517 9.55626-5.35203 3.71226-2.30917 4.69609-2.86626 6.66208-3.77236 2.87051-1.32298 5.86352-2.43204 10.68033-3.95759 1.46647-0.46446 2.81243-0.91508 2.99103-1.00139 0.32042-0.15485 0.4116-0.14713 6.88301 0.58258l6.55829 0.73951 4.56328-1.19577c2.50981-0.65768 4.69173-1.25445 4.84872-1.32616 0.15699-0.0717 1.43338-0.80306 2.83643-1.62524l2.551-1.49486 1.59785 0.23303c0.87881 0.12816 1.62327 0.25851 1.65434 0.28965 0.0311 0.0312-0.0285 1.09238-0.13248 2.35828l-0.18898 2.30165 2.16146 2.98922 2.16146 2.98921 2.42194 9.52862 1.28691 2.21139c0.98436 1.69148 1.26686 2.2442 1.2016 2.35095-0.0469 0.0768-0.49391 0.88534-0.99331 1.79685-0.78309 1.42929-0.93682 1.65728-1.11751 1.65728-0.11524 0-1.59323-0.18044-3.28444-0.40097l-3.07493-0.40098-6.8919 3.34162-14.37914-0.90285-14.37915-0.90286-4.38734-2.82408-5.3033-1.52844c-2.91682-0.84064-6.79486-1.95777-8.61787-2.48251l-3.31456-0.95407-5.03814-0.84337c-5.77059-0.96597-9.891626-1.57634-12.113599-1.79413-1.45301-0.14242-1.630762-0.14249-3.067098-1e-3 -2.685998 0.26445-8.424495 1.12944-14.454773 2.17884l-2.979828 0.51855-8.529476 2.46536-8.529475 2.46537-2.158434 1.3943-2.158433 1.39431-1.15613 0.0801c-0.635871 0.0441-6.883694 0.43658-13.884051 0.87224s-12.950104 0.81237-13.221661 0.83713c-0.493349 0.045-0.49646 0.0437-3.949768-1.63457z" fill="#e4bf15" filter="url(#filter1778-20)" style="mix-blend-mode:normal"/>
      <g fill="none" stroke="#33691e" stroke-width="1.03584">
        <path id="path1420" d="m25.064136 46.453451-2.729298 0.307679-1.938554-0.510326-1.126743-0.65907-0.710446 0.104031-0.441198 0.229271 0.446831-1.873337 1.75563-5.569908 1.888939-3.975695 1.328459-2.096825 2.12966-1.42807"/>
        <path id="path1416" d="m30.484702 34.654557c-0.60257 0.219908-5.704714 11.101702-5.408384 11.812272 0.03634 0.08715 2.274787 0.591732 3.753117 1.513029 1.173613 0.731397 2.291868 1.466904 2.688875 1.471158 1.527437 0.01622 1.813783-0.169466 2.723309-0.169466 0.909523 0 1.195861 0.185691 2.723299 0.169465 0.397007-0.0043 1.515263-0.73976 2.688875-1.471157 1.478328-0.921296 3.716774-1.425879 3.753118-1.513029 0.296331-0.710569-4.805808-11.592364-5.408376-11.812271-1.427542-0.520979-2.489653-0.582363-3.756915-0.582363-1.267263 0-2.329375 0.06139-3.756918 0.582362z"/>
        <path id="path1420-1" d="m43.419093 46.453451 2.729299 0.307682 1.938553-0.510328 1.126744-0.65907 0.710445 0.104033 0.441198 0.229271-0.446831-1.873339-1.755631-5.569909-1.888938-3.975693-1.32846-2.096825-2.129659-1.428071"/>
        <path id="path1418-9" d="m37.998535 34.654557s1.479802-1.527238 2.324842-2.165643c0.774754-0.585305 2.492437-1.507718 2.492437-1.507718l-0.05638-1.621057-0.379978-1.263121-4.225566-1.792885s-2.604954-0.275573-3.912278-0.275573c-1.307328 0-3.912288 0.275573-3.912288 0.275573l-4.225566 1.792885-0.379977 1.263121-0.05637 1.621057s1.717681 0.922414 2.492435 1.507718c0.845043 0.638405 2.324851 2.165643 2.324851 2.165643"/>
        <path id="path2898" d="m26.103762 28.097018-2.566006 4.312254"/>
        <path id="path2898-7" d="m42.37946 28.097018 2.566012 4.312255"/>
      </g>
    </g>
  </g>
</svg>
