<svg id="svg290" version="1.1" viewBox="0 0 64 64" xmlns="http://www.w3.org/2000/svg">
  <defs id="defs278">
    <style id="style266" type="text/css"/>
    <style id="style268" type="text/css"/>
    <filter id="filter1057" x="-.026999999" y="-.026999999" width="1.054" height="1.054" color-interpolation-filters="sRGB">
      <feGaussianBlur id="feGaussianBlur270" stdDeviation="0.61875"/>
    </filter>
  </defs>
  <rect id="rect280" x="4.5" y="4.5" width="55" height="55" ry="15" fill="#141414" filter="url(#filter1057)" opacity=".3" stroke-linecap="round" stroke-width="2.7444"/>
  <circle id="circle284" cx="-1326.3" cy="-1241.6" r="0" fill="#5e4aa6"/>
  <circle id="circle286" cx="-226.72" cy="23.855" r="0" fill="#5e4aa6" fill-rule="evenodd"/>
  <g id="g1465" transform="translate(-56.091442,8.107422)" stroke-width=".909091">
    <path id="path434" d="m88.652344 46.115234a14.583244 9.4630499 0 0 0-8.751953 1.900391l-2.392579 4.748047c-0.362128 0.693053-0.429455 1.116012-0.164062 1.71875 0.253338 0.57536 0.907312 0.910156 1.587891 0.910156h18.318359c0.680578 0 1.336507-0.334796 1.589844-0.910156 0.265392-0.602738 0.196114-1.025697-0.166016-1.71875l-2.705078-5.369141a14.583244 9.4630499 0 0 0-7.316406-1.279297z" fill="#a5a5a5"/>
    <path id="path436" d="m88.652344 46.115234a14.583244 9.4630499 0 0 0-9.382813 2.242188l-1.761719 3.498047c-0.362128 0.693052-0.429455 1.116011-0.164062 1.71875 0.253338 0.575359 0.907312 0.908203 1.587891 0.908203h18.318359c0.680578 0 1.336507-0.332844 1.589844-0.908203 0.265392-0.602739 0.196114-1.025698-0.166016-1.71875l-2.132812-4.234375a14.583244 9.4630499 0 0 0-7.888672-1.50586z" fill="#ccc"/>
  </g>
  <g stroke-width="1.66667">
    <path id="rect438" d="m12.626953 6.1660156c-4.8314852 2.4856982-8.126953 7.5064604-8.126953 13.333984v25c0 2.400471 0.5721394 4.658106 1.5664062 6.666016 0.0012964 0.002618 0.0026085 0.005195 0.0039063 0.007812 0.1726908 0.348234 0.3583499 0.687439 0.5566406 1.019531 0.0097354 0.01632 0.0195018 0.03255 0.0292969 0.048829 0.8154146 1.353883 1.8337326 2.566706 3.0214844 3.595703 0.2717857 0.235458 0.5533186 0.458183 0.8417966 0.673828 0.049981 0.03739 0.099923 0.074551 0.150391 0.111328 0.272855 0.198699 0.551432 0.388094 0.83789 0.568359 0.072953 0.045929 0.146893 0.090067 0.220704 0.134766 0.293379 0.177611 0.590271 0.348251 0.896484 0.505859 7.92e-4 4.08e-4 0.001161 0.001546 0.001953 0.001953 2.05816 1.058881 4.390588 1.666016 6.873047 1.666016h25c2.482459 0 4.814887-0.607135 6.873047-1.666016 7.71e-4 -3.96e-4 0.001182-0.001556 0.001953-0.001953 0.306213-0.157608 0.603105-0.328248 0.896484-0.505859 0.073811-0.044699 0.147751-0.088837 0.220704-0.134766 0.286458-0.180265 0.565035-0.36966 0.83789-0.568359 0.050468-0.036777 0.10041-0.073938 0.150391-0.111328 0.288478-0.215645 0.570011-0.43837 0.841797-0.673828 1.187751-1.028997 2.206069-2.24182 3.021484-3.595703 0.009798-0.016269 0.019559-0.03252 0.029297-0.048829 0.198291-0.332092 0.38395-0.671297 0.556641-1.019531 0.001292-0.002606 0.002615-0.005205 0.003906-0.007812 0.994267-2.00791 1.566406-4.265545 1.566406-6.666016v-25c0-5.827524-3.295468-10.848286-8.126953-13.333984h-38.746094z" fill="#e4e4e4"/>
    <path id="path444" d="m19.5 4.5c-8.309992 0-15 6.690008-15 15v25c0 2.400473 0.5721402 4.658106 1.5664062 6.666016h51.867188c0.994266-2.00791 1.566406-4.265543 1.566406-6.666016v-25c0-8.309992-6.690008-15-15-15h-25z" fill="#077063"/>
    <path id="path446" d="m19.5 4.5c-2.482461 0-4.814887 0.6071356-6.873047 1.6660156h38.746094c-2.05816-1.05888-4.390586-1.6660156-6.873047-1.6660156h-25z" fill="#fff" opacity=".1"/>
  </g>
  <g id="g506" transform="matrix(1.5391899,0,0,1.5391899,73.989281,-81.753835)">
    <path id="path442" d="m-39.786194 68.357019a1.5 1.5 0 0 0-0.832032 0.255859 1.5 1.5 0 0 0-0.40625 2.082032l3.13086 4.654297c-2.981774 2.614004-4.985482 6.306971-5.384766 10.46875-0.07349 1.539941 1.552735 1.539062 1.552735 1.539062h28.851562s1.672856-3.38e-4 1.591797-1.617188c-0.416529-4.131451-2.415618-7.796833-5.380859-10.394531l3.126953-4.65039a1.5 1.5 0 0 0-0.40625-2.082032 1.5 1.5 0 0 0-1.125-0.228515 1.5 1.5 0 0 0-0.957032 0.634765l-3.072265 4.566407c-2.397104-1.413629-5.19357-2.228516-8.181641-2.228516-2.989385 0-5.786177 0.815488-8.183594 2.230469l-3.074218-4.56836a1.5 1.5 0 0 0-0.957032-0.634765 1.5 1.5 0 0 0-0.292968-0.02734z" opacity=".1"/>
    <path id="path448" d="m-36.080535 74.357045-3.6998-5.500026" fill="none" stroke="#30dd81" stroke-linecap="round" stroke-width="3"/>
    <path id="path450" d="m-18.480571 74.357045 3.700236-5.500026" fill="none" stroke="#30dd81" stroke-linecap="round" stroke-width="3"/>
    <path id="path452" d="m-27.277949 70.357053c-8.355868 0-15.221498 6.346843-15.999967 14.460906-0.07349 1.539942 1.552081 1.53906 1.552081 1.53906h28.851503s1.672201-3.35e-4 1.591142-1.617185c-0.814338-8.077219-7.665309-14.382781-15.994759-14.382781z" fill="#30dd81"/>
    <path id="path454" d="m-35.280335 78.357019a1.9999959 1.9999959 0 0 0-2 2 1.9999959 1.9999959 0 0 0 2 2 1.9999959 1.9999959 0 0 0 2-2 1.9999959 1.9999959 0 0 0-2-2zm16 0a1.9999959 1.9999959 0 0 0-2 2 1.9999959 1.9999959 0 0 0 2 2 1.9999959 1.9999959 0 0 0 2-2 1.9999959 1.9999959 0 0 0-2-2z" opacity=".2"/>
    <g fill="#fff">
      <path id="path456" d="m-35.280339 77.357027a1.9999959 1.9999959 0 0 1 1.999996 1.999996 1.9999959 1.9999959 0 0 1-1.999996 1.999996 1.9999959 1.9999959 0 0 1-1.999996-1.999996 1.9999959 1.9999959 0 0 1 1.999996-1.999996z"/>
      <path id="path458" d="m-19.280339 77.357027a1.9999959 1.9999959 0 0 1 1.999995 1.999996 1.9999959 1.9999959 0 0 1-1.999995 1.999996 1.9999959 1.9999959 0 0 1-1.999996-1.999996 1.9999959 1.9999959 0 0 1 1.999996-1.999996z"/>
      <path id="path460" d="m-39.786194 67.357019a1.5 1.5 0 0 0-0.832032 0.255859 1.5 1.5 0 0 0-0.546875 1.746094 1.5 1.5 0 0 1 0.546875-0.746094 1.5 1.5 0 0 1 0.832032-0.255859 1.5 1.5 0 0 1 0.292968 0.02734 1.5 1.5 0 0 1 0.957032 0.634765l3.074218 4.56836c2.397417-1.414977 5.194209-2.230465 8.183594-2.230465 2.988071 0 5.784537 0.814887 8.181641 2.228516l3.072265-4.566407a1.5 1.5 0 0 1 0.957032-0.634765 1.5 1.5 0 0 1 1.125 0.228515 1.5 1.5 0 0 1 0.572265 0.746094 1.5 1.5 0 0 0-0.572265-1.746094 1.5 1.5 0 0 0-1.125-0.228515 1.5 1.5 0 0 0-0.957032 0.634765l-3.072265 4.566407c-2.397104-1.413629-5.19357-2.228516-8.181641-2.228516-2.989385 0-5.786177 0.815488-8.183594 2.230469l-3.074218-4.56836a1.5 1.5 0 0 0-0.957032-0.634765 1.5 1.5 0 0 0-0.292968-0.02734zm23.539062 7.369141-0.416015 0.61914c2.859868 2.505387 4.816717 6.005075 5.326171 9.957031 0.04351-0.162029 0.06551-0.346737 0.05469-0.5625-0.396675-3.934521-2.229992-7.444164-4.964844-10.013671zm-22.0625 0.0039c-2.750345 2.586174-4.588427 6.123755-4.96875 10.087897-0.0099 0.207176 0.0131 0.383908 0.05664 0.539062 0.498429-3.972757 2.457161-7.490951 5.328125-10.007812z" opacity=".2"/>
    </g>
  </g>
</svg>
