<svg id="svg26" width="64" height="64" version="1.1" viewBox="0 0 16.933 16.933" xmlns="http://www.w3.org/2000/svg">
    <defs id="defs14">
        <filter id="filter1057" x="-.026999999" y="-.026999999" width="1.054" height="1.054" color-interpolation-filters="sRGB">
            <feGaussianBlur id="feGaussianBlur1059" stdDeviation="0.61875"/>
        </filter>
        <filter id="filter1636" x="-.033431584" y="-.023205219" width="1.0977551" height="1.0647907" color-interpolation-filters="sRGB">
            <feFlood id="feFlood1626" flood-color="rgb(0,0,0)" flood-opacity=".588235" result="flood"/>
            <feComposite id="feComposite1628" in="flood" in2="SourceGraphic" operator="in" result="composite1"/>
            <feGaussianBlur id="feGaussianBlur1630" in="composite1" result="blur" stdDeviation="3"/>
            <feOffset id="feOffset1632" dx="7" dy="6" result="offset"/>
            <feComposite id="feComposite1634" in="SourceGraphic" in2="offset" result="composite2"/>
        </filter>
        <linearGradient id="linearGradient20167" x1="-50.505249" x2="-42.866772" y1="54.22916" y2="61.867638" gradientTransform="translate(51.559132,-49.01448)" gradientUnits="userSpaceOnUse">
            <stop id="stop20161" stop-color="#97302c" offset="0"/>
            <stop id="stop20163" stop-color="#802926" offset="1"/>
        </linearGradient>
    </defs>
    <g id="g20" fill="#5e4aa6">
        <g id="g30" transform="scale(.26457812)">
            <circle id="circle24" cx="-1248.7" cy="-1241.6" r="0"/>
            <circle id="circle26" cx="-1140.3" cy="-1301.8" r="0"/>
            <circle id="circle28" cx="-1158.1" cy="-1246" r="0"/>
        </g>
        <circle id="circle36" cx="-306.19626" cy="-335.40567" r="0" stroke-width=".264578"/>
        <circle id="circle38" cx="-15.280974" cy="-.57754755" r="0" fill-rule="evenodd" stroke-width=".264578"/>
    </g>
    <style id="style906" type="text/css">.st0{fill:#EABF3B;}
	.st1{fill:#A8A8A8;}
	.st2{opacity:0.1;}</style>
    <g id="g26" stroke-linecap="round">
        <rect id="rect1055" transform="scale(.26457812)" x="4.5" y="4.5" width="55" height="55" ry="15" fill="#141414" filter="url(#filter1057)" opacity=".3" stroke-width="2.74436"/>
        <rect id="rect5179" x="1.2775882" y="1.1906019" width="14.551796" height="14.551796" ry="3.9686716" fill="#97302c" stroke-width=".726098"/>
        <path id="rect5192" d="m5.24626 1.190602c-2.198641 0-3.968671 1.77003-3.968671 3.968672v6.614453c0 2.198642 1.77003 3.968672 3.968671 3.968672h0.05478v-14.551797z" fill="#404345" stroke-width=".726098"/>
    </g>
    <path id="rect9225" d="m12.223474 1.207656v0c1.679574 0.309909 2.944465 2.480474 2.944465 4.25237v6.013468c0 1.771898-1.264891 3.942037-2.944465 4.251854v0c2.027146-0.18228 3.60591-1.875453 3.60591-3.951619v-6.614454c0-2.076166-1.578764-3.76934-3.60591-3.951619z" fill-opacity=".127365" stroke-linecap="round" stroke-width=".726098"/>
    <path id="path9289" d="m7.789282 3.721419h8.270794c0.3716 0 0.675793 0.304085 0.675793 0.675577v3.237562c0 0.371384-0.304193 0.675469-0.675793 0.675469h-8.270794c-0.371599 0-0.675792-0.304085-0.675792-0.675469v-3.237562c0-0.371492 0.304193-0.675577 0.675792-0.675577z" fill="#eceff1" fill-rule="evenodd" stroke-width="0"/>
    <path id="path9291" d="m15.847702 4.396996v3.237562c0 0.371384-0.303437 0.675469-0.675793 0.675469h0.888167c0.3716 0 0.675793-0.304085 0.675793-0.675469v-3.237562c0-0.371492-0.304193-0.675577-0.675793-0.675577h-0.888167c0.372356 0 0.675793 0.304085 0.675793 0.675577z" fill="#c4cccf" fill-rule="evenodd"/>
    <g id="text9145" fill="#97302c" stroke-width=".0637465" aria-label="SIGIL">
        <path id="path348" d="m8.7640666 6.9336717c0.3850289 0 0.655314-0.1988891 0.655314-0.5533196v-0.0051c0-0.3110829-0.2039888-0.4411257-0.5660689-0.5354706-0.308533-0.0790454-0.3850288-0.1172933-0.3850288-0.2345869v-0.0051c0-0.086695 0.079046-0.1555415 0.2294874-0.1555415 0.1223932 0 0.2447865 0.043348 0.3748294 0.1198435 0.030598 0.017849 0.061197 0.028048 0.099445 0.028048 0.1019944 0 0.1835899-0.079046 0.1835899-0.18104 0-0.076496-0.043348-0.1300429-0.086695-0.1555415-0.1606419-0.1019937-0.3493315-0.1580906-0.5660696-0.1580906-0.36463 0-0.6247157 0.2141882-0.6247157 0.5380204v0.0051c0 0.3544305 0.2320372 0.453875 0.5915675 0.54567 0.2983336 0.076496 0.3595303 0.127493 0.3595303 0.2269375v0.0051c0 0.1045442-0.096895 0.1682907-0.2575359 0.1682907-0.1733905 0-0.3212824-0.061197-0.4564249-0.1606412-0.025499-0.017849-0.061197-0.035698-0.1121939-0.035698-0.1019944 0-0.1835899 0.079046-0.1835899 0.1810401 0 0.061197 0.030598 0.1172935 0.073946 0.1478918 0.1988891 0.1427922 0.4360261 0.2141883 0.6706132 0.2141883z"/>
        <path id="path350" d="m9.7789094 6.727133c0 0.109644 0.086695 0.1963392 0.1963392 0.1963392 0.1096444 0 0.1963394-0.086695 0.1963394-0.1963392v-1.4228219c0-0.1096439-0.0867-0.1963392-0.1963394-0.1963392-0.109644 0-0.1963392 0.086695-0.1963392 0.1963392z"/>
        <path id="path352" d="m11.477117 6.9387714c0.267736 0 0.479374-0.089245 0.624716-0.1784902 0.09435-0.056097 0.137692-0.1351426 0.137692-0.2498863v-0.4334762c0-0.109644-0.0867-0.1963392-0.196339-0.1963392h-0.448775c-0.09434 0-0.170841 0.076496-0.170841 0.1708406 0 0.094345 0.0765 0.1682908 0.170841 0.1682908h0.265185v0.254986c-0.09944 0.071396-0.226937 0.1070941-0.369729 0.1070941-0.316183 0-0.540571-0.2396868-0.540571-0.5660689v-0.0051c0-0.3034334 0.226938-0.5558695 0.512522-0.5558695 0.168291 0 0.283035 0.045897 0.390129 0.1223933 0.02805 0.020399 0.06375 0.040798 0.119843 0.040798 0.107094 0 0.193789-0.086695 0.193789-0.1937893 0-0.076496-0.04335-0.1300429-0.0816-0.1580914-0.160641-0.1121938-0.339131-0.1733904-0.609417-0.1733904-0.54057 0-0.935798 0.4156271-0.935798 0.9230493v0.0051c0 0.527821 0.382479 0.9179496 0.938348 0.9179496z"/>
        <path id="path354" d="m12.634755 6.727133c0 0.109644 0.0867 0.1963392 0.196339 0.1963392 0.109644 0 0.196339-0.086695 0.196339-0.1963392v-1.4228219c0-0.1096439-0.0867-0.1963392-0.196339-0.1963392-0.109644 0-0.196339 0.086695-0.196339 0.1963392z"/>
        <path id="path356" d="m13.47366 6.7118339c0 0.1096439 0.08669 0.1963392 0.196339 0.1963392h0.923049c0.09945 0 0.17849-0.079046 0.17849-0.1784902 0-0.099445-0.07904-0.1784902-0.17849-0.1784902h-0.72671v-1.2468816c0-0.1096439-0.0867-0.1963392-0.196339-0.1963392-0.109644 0-0.196339 0.086695-0.196339 0.1963392z"/>
    </g>
    <polygon id="polygon18864" transform="matrix(-.01659221 0 0 .01659221 8.692356 4.357943)" points="79.808 480.736 150.837 459.24 52.76 361.164 31.266 432.193" fill="#e6e6e6"/>
    <polygon id="polygon18866" transform="matrix(-.01659221 0 0 .01659221 8.692356 4.357943)" points="79.808 480.736 31.266 432.193 10.199 501.801" fill="#b3b3b3"/>
    <rect id="rect18868" transform="matrix(-.70710678 .70710678 .70710678 .70710678 0 0)" x="1.7914698" y="6.5284786" width="2.3012838" height="6.3176384" fill="#ffba57" stroke-width=".016592"/>
    <rect id="rect18870" transform="matrix(.70710678 .70710678 .70710678 -.70710678 0 0)" x="5.7250319" y="-4.0926399" width=".80330402" height="2.3012838" fill="#e6e6e6" stroke-width=".016592"/>
    <g id="g41" stroke-width=".0165922">
        <path id="path18872" d="m0.540172 6.328285c-0.231744-0.231744-0.231744-0.607491 0-0.839234l0.788063-0.788064c0.231744-0.23176 0.607491-0.23176 0.839234 0l0.614078 0.614078-1.627297 1.627297z" fill="#e8655a"/>
        <path id="path18874" d="m7.936614 10.230806s6.6e-5 1.82e-4 1.99e-4 5.47e-4c0.01921 0.01933 0.03395 0.04316 0.04211 0.07012l0.706181 2.333462c0.01807 0.05971 0.0018 0.124557-0.04231 0.168693-0.03221 0.03217-0.07546 0.04953-0.11968 0.04953-0.01636 0-0.03287-0.0024-0.04901-0.0073l-2.333479-0.706181c-0.02706-0.0082-0.05099-0.023-0.07035-0.04233-4.9e-5 0-2.98e-4 1.7e-5 -2.98e-4 1.7e-5l-5.649465-5.649465c-0.144054-0.144054-0.223381-0.335577-0.223381-0.53928 0-0.203719 0.07933-0.395226 0.223381-0.539297l0.788063-0.788047c0.144037-0.14402 0.335578-0.223364 0.539297-0.223364s0.395226 0.07933 0.53928 0.223381zm-5.155067-4.676415-1.387971 1.387971 0.328691 0.328692 1.387972-1.387972zm3.40809 6.184032 1.387971-1.387971-4.228043-4.228044-1.387972 1.387972zm1.547174-1.068521-1.227708 1.227707 0.811077 0.245465 0.662079-0.662095zm0.356666 1.178544-0.405846 0.405846 0.581955 0.17611zm-7.433642-5.639824 0.494415 0.494414 1.387971-1.387971-0.494415-0.494415c-0.08011-0.08012-0.186645-0.124243-0.299937-0.124243-0.113308 0-0.219847 0.04412-0.299954 0.124243l-0.788064 0.788064c-0.08012 0.08012-0.124242 0.186645-0.124242 0.299954 0 0.113308 0.0441 0.21983 0.124226 0.299954z" fill="url(#linearGradient20167)"/>
        <path id="path18876" d="m3.597403 8.621278c0.06609-0.06609 0.173239-0.06609 0.239342 0l0.0677 0.0677c0.06609 0.06609 0.06609 0.17324 0 0.239343-0.03305 0.03305-0.07636 0.04956-0.119664 0.04956-0.0433 0-0.08663-0.01651-0.119663-0.04956l-0.0677-0.0677c-0.0661-0.0661-0.0661-0.173256-1.6e-5 -0.239343z" fill="#603813"/>
        <path id="path18878" d="m4.395189 9.179722 1.912269 1.912269c0.06609 0.06609 0.06609 0.173239 0 0.239343-0.03305 0.03305-0.07636 0.04956-0.119663 0.04956-0.04331 0-0.08663-0.01651-0.119663-0.04956l-1.912269-1.912269c-0.06609-0.06609-0.06609-0.173239 0-0.239343 0.06609-0.06609 0.17324-0.06609 0.239326 0z" fill="#603813"/>
    </g>
    <path id="path22677" transform="matrix(.015044 0 0 .015044 9.633714 7.047862)" d="m175.38363 199.78307c9.13033 0.40752 16.66691-4.10118 25.70141-4.13518 5.402 1.09394 6.96591 4.10949 3.95127 10.57489-2.62574 10.91724 4.26992 22.15429 4.7154 33.00154 1.98239 15.2-0.67181 32.53831-13.74422 42.41294-5.6724 4.06396-12.59476 8.88541-18.03976 9.77886-6.70984-1.06883-0.0189-11.83969 0.49448-17.93471 2.23333-14.61946 2.61005-26.47309-5.36018-39.55681-10.47937-17.04267-29.70367-28.37084-48.73957-32.95978-23.00475-4.89126-51.304324 0.44158-66.407334 19.73901-8.04492 10.08798-9.794747 24.53242-7.867777 36.9003 4.39481 15.88815 19.744131 23.84779 32.654211 32.14013 26.03762 15.04329 57.02577 23.35574 84.08204 36.25002 18.4758 7.61855 35.8242 19.2403 46.06118 36.77799 12.37891 21.30632 16.14634 47.35919 12.79751 71.55702-3.6281 23.91303-18.62969 45.65978-39.31595 57.99427-24.52173 15.61556-54.78111 20.14103-83.41669 19.17824-19.051606-0.1532-37.43382-4.76766-55.47671-10.36113-10.56121-0.87471-20.475253 1.00629-30.858285 3.69382-7.2827145 0.43939-6.475088-11.09589-5.933968-17.91016 0.424326-15.28909-9.0380684-27.35761-9.7310084-41.89957-2.4163-19.33199 2.8226451-39.70148 15.105585-55.09837 12.55033-15.62639 31.97469-27.18215 52.55766-25.44551 22.113831 1.30753 42.432436 13.00277 53.726346 33.38596 7.21104 19.06524-1.23034 42.41616-18.63092 52.82396-14.125556 8.12661-34.342656-1.88961-36.426226-17.99857-1.236032-9.80991 8.139339-19.14522 18.130599-20.18046 10.069291 0.24136 19.510037 6.94346 22.606647 16.1164 8.34523-8.03127 9.14243-21.37596 2.22104-30.61726-8.50149-13.06924-25.133119-17.50729-39.846959-18.88829-16.94876-0.40503-36.118183 8.09424-41.503753 25.29686-4.55815 15.52602-0.275074 32.26521 5.542346 46.79113 16.094996 27.34902 42.508739 44.90749 67.284256 46.43431 23.85051 2.67737 45.65917-1.93973 64.86792-13.53229 16.24417-10.91041 27.34003-29.59642 31.48017-48.29668 2.34588-24.64674-14.22893-47.6751-34.54109-61.84645-15.84054-11.41686-47.95091-21.95124-64.699579-29.52062-21.622115-10.4024-33.125067-11.69557-52.523987-25.9356-18.762635-13.13557-30.789919-37.20276-29.592635-57.62295 1.15542-23.57908 13.04367-44.38236 30.70704-57.88203 17.89846-13.10352 41.065328-18.6045 63.050211-17.73182 17.93747 0.15468 36.27473 3.22705 52.60117 10.95645 3.62407 1.96115 8.07779 3.63839 12.31811 3.55014zm-76.635339 298.13659c2.280019-0.0377 3.424279 5e-3 6.870269 0.45431 1.34385 0.64026 2.7632 1.2405 4.28825 1.16518 4.2656-8e-3 8.53876-0.14312 12.81191 0.0753 0.0604 1.58183 0.1208 3.16365 0.18119 4.76054-6.34178 0.55741-12.72131 0.27117-19.07064 0.23351 0.21139-2.07897 0.43033-4.15794 0.64927-6.23691-0.49828 0.0979-1.48729 0.28623-1.97803 0.37662-0.42278 1.63456-0.84557 3.27664-1.25325 4.91873-0.91352 0.17324-1.834592 0.34649-2.75566 0.50467l-0.754974-0.0753c0.354838-2.06391 0.717225-4.11275 1.011665-6.17665zm3.752219 0.82857c0.49074-0.0904 1.47975-0.2787 1.97803-0.37662-0.21894 2.07897-0.43788 4.15794-0.64927 6.23691-1.78929-0.0753-3.56348-0.23351-5.33767-0.43689 0.921068-0.15818 1.84214-0.33143 2.75566-0.50467 0.40768-1.64209 0.83047-3.28417 1.25325-4.91873zm-20.829734-5.66444c4.039112 1.31066 8.040475 2.77196 12.147534 3.86417 1.291006 0.45195 2.040793 0.70053 3.331799 0.42936 0.249142 0.2787 1.349041 0.26363 1.598182 0.54234-0.29444 2.0639-0.656827 4.11274-1.011665 6.17665-6.606024-0.82858-13.129-2.16936-19.56893-3.84911 1.207959-2.36521 2.378169-4.75301 3.50308-7.16341zm-11.528455-5.40834c3.737122 2.01118 7.519543 3.99223 11.528455 5.40834-1.124911 2.4104-2.295121 4.7982-3.50308 7.16341-4.431698-1.17507-8.780349-2.66651-12.978005-4.5195 1.215508-2.93014 2.989697-5.57405 4.95263-8.05225zm-3.563478-2.19949c0.853121 0.55741 1.721341 1.09975 2.597111 1.63456-1.766639 2.69663-3.20109 5.58911-4.877133 8.34601-0.958817-0.40676-1.910084-0.80598-2.853802-1.2052 1.540147-3.02053 3.253939-5.95068 5.133824-8.77537zm-16.62453 3.04314c2.589561-3.19379 5.54906-6.05614 8.229218-9.17459 2.725456 2.14676 5.511311 4.21067 8.395312 6.13145-1.879885 2.82469-3.593677 5.75484-5.133824 8.77537-3.940965-1.67975-7.617689-3.90937-11.490706-5.73223zm-39.990981-10.45512c5.065877-1.2052 10.290298-0.41429 15.431672-0.8813-0.03775 0.79845-0.06795 1.59689-0.09815 2.39534-3.971164 0.11298-7.980076-0.33143-11.913492 0.34649-1.094712 0.24104-2.657509 0.6252-2.446116 2.07144 0.158545 0.12805 0.483183 0.39169 0.641728 0.51974 4.816735-0.10545 9.63347-0.23351 14.450205-0.21091 0.113246 1.46131 0.226492 2.92261 0.354838 4.38392-3.631426 3.23144-6.13039 7.50237-9.603271 10.88446-1.706242 1.2052-3.737122 1.86053-5.511311 2.96028-1.268357-7.42705-0.0302-15.02735-1.3061056-22.46946zm172.44365-8.23302c2.94439 1.65715 5.6774 3.68339 7.91212 6.22938-5.86614 5.41587-11.95124 10.73381-18.9725 14.62058-14.69934 8.51926-31.65606 12.22525-48.44669 13.69409-0.0604-1.59689-0.12079-3.17871-0.18119-4.76054-4.27315-0.21844-8.54631-0.0829-12.81191-0.0753-1.52505 0.0753-2.9444-0.48962-4.28825-1.12988-2.45508-0.27259-4.59025-0.52728-6.870267-0.48961-0.249141-0.27871-1.34904-0.26364-1.598182-0.54234-1.291006 0.27117-2.040793 0.0226-3.331799-0.42936-4.107059-1.09221-8.108422-2.55351-12.147534-3.86417-4.008912-1.41611-7.791333-3.39716-11.528455-5.40834-0.241592-0.14311-0.724775-0.42182-0.966367-0.56493-0.87577-0.53481-1.74399-1.07715-2.597111-1.63456-2.884001-1.92078-5.669856-3.98469-8.395312-6.13145-0.921069-0.76832-1.796839-1.56676-2.702808-2.34261 0.452985 0.0829 1.401889 1.04043 1.854874 1.12328 0.679476 0.72312 1.139074 0.81822 1.8563 1.51121 9.497574 8.4816 21.663507 13.71857 33.984685 16.69391 2.174326 0.56494 3.213359 0.77114 5.417883 0.95804 2.061073 0.0871 3.619153 0.37474 4.819563 0.47264 2.51407 0.10545 4.72614 0.90437 7.2402 0.71606 12.87986 0.20338 25.82767-1.61949 38.07335-5.64938 13.1139-4.29352 25.01984-12.22525 33.6794-22.99672zm-148.87336 7.68315c3.593677-3.93197 7.270401-7.86393 11.551104-11.06525 3.238839 3.72106 6.522977 7.45718 10.395994 10.55304 0.905969 0.77585 1.781739 1.57429 2.702808 2.34261-2.680158 3.11845-5.639657 5.9808-8.229218 9.17459-2.997248-1.46884-6.017144-3.0356-9.339031-3.63067-2.415917-2.40287-4.839384-4.80574-7.081657-7.37432zm-24.272419-3.65326c4.68839-2.35768 9.406978-4.64002 14.087818-7.00523 2.355519 6.16912 3.170891 12.84292 3.540829 19.40372l-0.505833 0.42936c-0.128346-1.46131-0.241592-2.92261-0.354838-4.38392-4.816735-0.0226-9.63347 0.10546-14.450205 0.21091-0.158545-0.12805-0.483183-0.39169-0.641728-0.51974-0.211393-1.44624 1.351404-1.8304 2.446116-2.07144 3.933416-0.67792 7.942328-0.23351 11.913492-0.34649 0.0302-0.79845 0.0604-1.59689 0.09815-2.39534-5.141374 0.46701-10.365795-0.3239-15.431672 0.8813-0.1736441-1.41611-0.4076861-2.81715-0.702126-4.20313zm-5.8133008-19.79542c4.3335515-2.6891 9.8146638-1.28806 14.654048-1.65715 1.14756 2.93014 2.212074 5.89795 3.284137 8.85822-1.540147 0.12052-3.125593 0.20338-4.529845 0.91897-3.435132 1.67975-6.8778139 3.38209-10.063805 5.50626-1.1777597-3.02807-2.1516763-6.13146-3.095394-9.24238 1.313655-1.12988 2.831153-1.98105 4.3939495-2.7117-1.6684928-0.11299-3.3369857-0.21091-5.0054785-0.27871 0.090597-0.34649 0.2717907-1.04701 0.362388-1.39351zm191.06885-6.08626c3.78242 1.67975 7.36855 3.81145 11.29441 5.17483-1.64584 3.72859-3.62387 7.29899-5.6925 10.81667-3.02745 4.21067-6.13039 8.40627-9.79957 12.08967-2.23472-2.54599-4.96773-4.57223-7.91212-6.22938 5.18667-6.56081 9.27863-13.98786 12.10978-21.85179zm16.74533-4.89613c3.61632 1.8304 7.63279 3.00547 10.75838 5.68704-5.89635 17.01592-17.97594 31.48586-32.91687 41.4137-22.65678 15.38137-50.55307 21.29438-77.63399 21.24919-19.576482 0.38415-39.168061-2.61378-57.815922-8.5042-2.310221-0.83611-4.590243-1.92079-7.081658-2.01118-6.98351-0.38415-13.967021 0.47455-20.784438 1.94339-3.095394 0.46701-6.12284 1.27299-9.172935 1.97351-1.155111-0.3013-2.310221-0.61013-3.465332-0.89636-0.634178-1.12988-1.275906-2.26729-1.879885-3.40469 1.774189-1.09975 3.805069-1.75508 5.511311-2.96028 3.472881-3.38209 5.971845-7.65302 9.603271-10.88446l0.505833-0.42936c4.552494-0.61013 9.120087-1.31065 13.725429-1.37091 3.321887 0.59507 6.341783 2.16183 9.339031 3.63067 3.873017 1.82286 7.549741 4.05248 11.490706 5.73223 0.943718 0.39922 1.894985 0.79844 2.853802 1.2052 1.676043-2.7569 3.110494-5.64938 4.877133-8.34601 0.241592 0.14311 0.724775 0.42182 0.966367 0.56493-1.962933 2.4782-3.737122 5.12211-4.95263 8.05225 4.197656 1.85299 8.546307 3.34443 12.978005 4.5195 6.43993 1.67975 12.962906 3.02053 19.56893 3.84911l0.754974 0.0753c1.774188 0.20338 3.548378 0.36156 5.337668 0.43689 6.34933 0.0377 12.72886 0.3239 19.07064-0.23351 16.79063-1.46884 33.74735-5.17483 48.44669-13.69409 7.02126-3.88677 13.10636-9.20471 18.9725-14.62058 3.66918-3.6834 6.77212-7.879 9.79957-12.08967 1.15511-0.97922 2.40837-1.91325 3.13314-3.27664 2.27247-3.94703 4.10706-8.12757 5.9643-12.27797 0.29444-1.16001 1.5024-1.37845 2.45366-1.76261-0.37748-0.54987-0.75497-1.09975-1.12491-1.64209 0.23404-0.64779 0.47564-1.28805 0.71723-1.92832zm-16.61698 4.51951c1.31365-3.30677 2.46121-6.68133 3.32943-10.13122 4.06176 0.58754 8.16882 0.47455 12.26078 0.38416 0.0906 0.95663 0.1661 1.90572 0.23404 2.86988-1.291 4.22573-2.7481 8.42887-4.65819 12.42863-3.92586-1.36338-7.51199-3.49508-11.29441-5.17483zm-95.338136-10.11615c1.940286-2.62885 4.318446-4.8886 6.938206-6.83952-0.95126 2.11664-1.63074 4.33872-2.11392 6.61354-1.60055 0.18078-3.21619 0.19585-4.824286 0.22598zm6.938206-6.83952c0.47564-0.52727 0.94372-1.06208 1.41936-1.58935 0.10569 2.25221 0.35483 4.4969 0.60398 6.74158-1.34386 0.56494-2.74056 1.02443-4.13726 1.46131 0.48318-2.27482 1.16266-4.4969 2.11392-6.61354zm-105.032-3.99222c4.2958029 0.2787 8.584056 1.01689 12.902508 0.5574 0.279341 5.83016 1.434451 11.57746 1.706242 17.40761-4.031562 0.25611-8.0857731-0.15818-12.102236 0.27117-1.3740529-0.0301-1.6760425 1.44624-2.189425 2.41041 4.8695832-1.39352 10.010957-0.3013 14.850342-1.63456 0.249141 1.22027 0.490733 2.44807 0.739874 3.66833-4.733688-0.0226-9.5202235-0.53481-14.193514 0.42182-0.098147 0.52728-0.3019897 1.57429-0.4001363 2.09404 4.2656039-0.99429 8.6671031-1.07715 13.023304-0.93403 1.15511-0.16572 2.121477 0.41428 2.551813 1.49143-4.839385 0.36909-10.320497-1.03195-14.654048 1.65715-0.090597 0.3465-0.2717907 1.04702-0.3623876 1.39351 1.6684928 0.0678 3.3369857 0.16572 5.0054785 0.27871-1.5627965 0.73065-3.0802945 1.58182-4.3939495 2.7117-2.7632053-10.32706-3.5936769-21.16633-2.4838651-31.79469zm66.686866 0.58753c4.469447 1.28053 8.984192 2.50079 13.597084 3.14106 0.671927 0.0979 1.351404 0.19584 2.030881 0.29376-0.128346 0.48208-0.392587 1.44624-0.528482 1.92832-4.884683 1.88313-10.169502 1.90573-15.159881 3.27664-0.528482-2.85482-0.460534-5.78496 0.0604-8.63978zm130.14244-1.90572c4.5072-1.16754 9.18804-0.63273 13.78583-0.61767-0.0151 2.64391 0.0151 5.29535 0 7.93926-0.45299 2.6891-0.68703 5.41587-1.35896 8.06731-0.0679-0.96416-0.14344-1.91325-0.23404-2.86988-4.09196 0.0904-8.19902 0.20338-12.26078-0.38416 0.76253-4.00729 0.60398-8.1125 0.0679-12.13486zm-196.24798-2.433c3.940965 0.95663 8.0253751 0.53481 12.041838 0.58754 0.0906 1.23533 0.181194 2.47819 0.27934 3.72105-4.3184517 0.45949-8.6067048-0.2787-12.902508-0.5574 0.1660943-1.25793 0.3774871-2.50833 0.58133-3.75119zm66.785013 1.12234c0.301989-0.5348 0.626628-1.06208 0.966367-1.56676 4.899782 0.89637 8.100872 5.13717 11.95124 7.9242-4.612892-0.64027-9.127637-1.86053-13.597084-3.14106 0.196293-1.07714 0.422785-2.15429 0.679477-3.21638zm129.78006-1.40857c4.3864-1.12235 8.93889-0.91897 13.41589-0.76832 0.0302 0.95663 0.0453 1.90572 0.0528 2.86988-4.59779-0.0151-9.27863-0.54987-13.78583 0.61767l-0.0453-0.43689c0.0906-0.56493 0.27179-1.70987 0.36239-2.28234zm-1.01922-1.62702c4.71859-1.03949 9.56553-0.51221 14.34451-0.70806 0.0226 0.39169 0.068 1.17507 0.0906 1.56676-4.477-0.15065-9.02949-0.35403-13.41589 0.76832-0.0906 0.57247-0.27179 1.71741-0.36239 2.28234-0.18874-1.31065-0.42278-2.61377-0.65683-3.90936zm-83.33404-1.08468c-0.1359 2.01117-0.83047 3.90936-1.72134 5.7021 1.06451 0.91897 2.12902 1.83793 3.18599 2.7569-1.82704 2.9452-3.99381 5.88288-7.20245 7.43457-0.24915-2.24468-0.49829-4.48937-0.60398-6.74158l0.35483-0.42936c2.45367-2.56858 4.4619-5.52132 5.98695-8.72263zm-24.627257 9.67173c3.540829-4.02236 7.61014-7.66056 10.056256-12.51902 1.721341 1.32572 3.269041 2.87742 4.590241 4.60236-4.756336 2.49326-8.901144 5.88288-12.525019 9.81485-0.709676-0.64026-1.411802-1.28053-2.121478-1.89819zm-0.641728-0.55741c2.649959-4.56469 4.326002-9.80731 8.146171-13.61123 0.860671 0.51975 1.721341 1.06209 2.551813 1.64962-2.446116 4.85846-6.515427 8.49666-10.056256 12.51902-0.158544-0.14312-0.483183-0.41429-0.641728-0.55741zm0.58888-16.09695c2.612211 0.48961 5.171573 1.29559 7.557291 2.48572-3.820169 3.80392-5.496212 9.04654-8.146171 13.61123-0.460534-0.18078-1.389152-0.5574-1.849686-0.74571 0.460534-5.13717-0.800273-10.8694 2.438566-15.35124zm-6.402181-0.19585c2.136577-0.11299 4.273154-0.0301 6.402181 0.19585-3.238839 4.48184-1.978032 10.21407-2.438566 15.35124-1.117362 0.80597-2.242274 1.59689-3.359635 2.40286-0.679477-0.0979-1.358954-0.19584-2.030881-0.29376-3.850368-2.78703-7.051458-7.02783-11.95124-7.9242 3.148242-4.70028 8.131071-7.84133 13.378141-9.73199zm31.391826 5.10704c1.24571 0.42935 2.49141 0.8587 3.73712 1.28052 0.0679 0.50468 0.20384 1.51404 0.27179 2.01871-0.70213 2.50079-1.72889 4.89613-2.8538 7.23121-1.05697-0.91897-2.12148-1.83793-3.18599-2.7569 0.89087-1.79274 1.58544-3.69093 1.72134-5.7021 0.10569-0.69299 0.21139-1.38598 0.30954-2.07144zm0.58888-5.97328c0.083 0.41429 0.24914 1.23533 0.33219 1.64962 1.16266 0.17325 2.33287 0.36909 3.49553 0.55741 0.0453 0.73818 0.0906 1.47637 0.14344 2.22209-1.4118-0.25611-2.8236-0.51975-4.22785-0.76832 0.12834-1.22027 0.20384-2.44053 0.25669-3.6608zm-110.62636-0.04519c3.5936769 1.54416 7.0212598 3.46495 10.660235 4.91872-0.309539 2.1091-0.520932 4.2408-0.747424 6.36497-4.10706 0.15065-8.3047158 0.30883-12.28343-0.91897 0.4756337-3.52521 1.2608068-6.99016 2.370619-10.36472zm207.57259 0.28623c4.71104-0.0904 9.47492-8e-3 14.06517-1.23533 0.32463 0.66286 0.64172 1.33326 0.95126 2.01871 0.49074 12.10473-0.83802 24.39778-4.84693 35.88484-3.12559-2.68157-7.14206-3.85664-10.75838-5.68704-0.24159 0.64027-0.48319 1.28053-0.71723 1.92832 0.36994 0.54234 0.74743 1.09222 1.12491 1.64209-0.95126 0.38416-2.15922 0.6026-2.45366 1.76261-1.85724 4.1504-3.69183 8.33094-5.9643 12.27797-0.72477 1.36339-1.97803 2.29742-3.13314 3.27664 2.06863-3.51768 4.04666-7.08808 5.6925-10.81667 1.91009-3.99976 3.36719-8.2029 4.65819-12.42863 0.67193-2.65144 0.90597-5.37821 1.35896-8.06731 1.77419-6.72652 0.58888-13.74681 0.0226-20.5562zm-90.99704-2.9452c0.84558-0.3239 1.6987-0.6478 2.54427-0.9717l1.56279 1.51404c0.0604 8.75276-1.88743 17.55073-6.08509 25.27154-3.31433 5.40834-7.52709 10.28186-12.60052 14.11591-5.17157 4.23326-12.358922 5.17483-18.791302 4.11274-8.999292-1.60442-17.205861-8.40627-19.644427-17.31722 4.990379-1.37091 10.275198-1.39351 15.159881-3.27664 0.135895-0.48208 0.400136-1.44624 0.528482-1.92832 1.117361-0.80597 2.242273-1.59689 3.359635-2.40286 0.460534 0.18831 1.389152 0.56493 1.849686 0.74571 0.158545 0.14312 0.483184 0.41429 0.641728 0.55741 0.709676 0.61766 1.411802 1.25793 2.121478 1.89819 3.623875-3.93197 7.768683-7.32159 12.525019-9.81485 1.57035 2.17689 2.7934 4.57223 3.99381 6.96756l-0.35483 0.42936c-0.47564 0.52727-0.94372 1.06208-1.41936 1.58935-2.61976 1.95092-4.99792 4.21067-6.938207 6.83952 1.608097-0.0301 3.223737-0.0452 4.824287-0.22598 1.3967-0.43688 2.7934-0.89637 4.13726-1.46131 3.20864-1.55169 5.37541-4.48937 7.20245-7.43457 1.12491-2.33508 2.15167-4.73042 2.8538-7.23121 0.61153-2.17689 1.09471-4.39144 1.5175-6.61353 0.36994-1.77767 0.70967-3.57041 1.01166-5.36314zm74.28946 3.63066c4.63554-2.29741 9.25598-4.62495 13.88397-6.94496 2.26493 4.4743 2.06108 9.58887 2.65751 14.4398-4.77898 0.19585-9.62592-0.33143-14.34451 0.70806-0.55868-2.7795-1.31365-5.51379-2.19697-8.2029zm-80.73694-8.53432c1.34386-0.58001 2.68016-1.16001 4.02402-1.74001-1.30611 1.22026-3.96362 1.90572-3.89567 3.94703 1.4722-8e-3 2.8538-0.64026 4.2656-1.00935 0.23405 0.88883 0.46809 1.7852 0.70968 2.68157-1.35895 0.40675-2.71036 0.81351-4.06931 1.22026-0.0831 0.42182-0.24914 1.25793-0.32464 1.67975 1.47975-0.33896 2.96705-0.67039 4.45435-1.00936 0.10569 1.49897 0.21894 2.99794 0.27179 4.49691-0.42279 2.22209-0.90597 4.43664-1.5175 6.61353-0.0679-0.50467-0.20384-1.51403-0.27179-2.01871-1.24571-0.42182-2.49141-0.85117-3.73712-1.28052 0.0831-0.58 0.24914-1.73248 0.33219-2.31248 1.40425 0.24857 2.81605 0.51221 4.22785 0.76832-0.0529-0.74572-0.0981-1.48391-0.14344-2.22209-1.16266-0.18832-2.33287-0.38416-3.49553-0.55741-0.0831-0.41429-0.24915-1.23533-0.33219-1.64962-0.38504-2.6891-0.93617-5.34807-1.58545-7.98445 0.27179 0.0904 0.81537 0.28624 1.08716 0.37663zm-103.12946-5.81509c0.830472 0.58753 1.653394 1.17507 2.483865 1.7626-0.188743 0.29377-0.558681 0.87377-0.747424 1.16754 1.781739 0.80598 3.608776 1.51403 5.488662 2.0639-1.804388 4.24834-2.967048 8.73017-3.563478 13.3024-3.638975-1.45377-7.0665578-3.37456-10.660235-4.91872 0.5964296-1.88313 1.3061053-3.73612 2.159226-5.52132 2.4687655-2.01872 3.4955303-5.09198 4.8393838-7.8564zm90.347749-16.18735c0.73988 0.29377 1.47975 0.59507 2.21963 0.91143 2.64241 2.69664 5.37541 5.29535 8.21412 7.78108 1.3212-0.82105 2.64995-1.62702 3.97871-2.433 5.09607 5.89795 8.95399 13.2346 8.92379 21.18893l-1.56279-1.51404c-0.84557 0.3239-1.69869 0.6478-2.54427 0.9717-0.30199 1.79273-0.64172 3.58547-1.01166 5.36314-0.0528-1.49897-0.1661-2.99794-0.27179-4.49691-1.4873 0.33897-2.9746 0.6704-4.45435 1.00936 0.0755-0.42182 0.24159-1.25793 0.32464-1.67975 1.35895-0.40675 2.71036-0.81351 4.06931-1.22026-0.24159-0.89637-0.47563-1.79274-0.70968-2.68157-1.4118 0.36909-2.7934 1.00182-4.2656 1.00935-0.068-2.04131 2.58956-2.72677 3.89567-3.94703-1.34386 0.58-2.68016 1.16-4.02402 1.74001-0.27179-0.0904-0.81537-0.28624-1.08716-0.37663-2.06863-6.48548-7.03636-11.58499-12.47217-15.46422 1.01921-1.89066 2.8085-4.18807 0.77762-6.16159zm3.7922-3.96802c4.01646 2.57612 7.57771 6.6044 10.62026 10.22753-1.32876 0.80598-2.65751 1.61195-3.97871 2.433-2.83871-2.48573-7.79134-5.99587-10.43375-8.69251 0.59643-1.49144 3.12027-2.50671 3.7922-3.96802zm-13.840899-2.75097c0.596429-1.5291 1.192859-3.0582 1.796838-4.57976 3.540829 1.77767 8.986411 4.77722 12.044061 7.33073 0.30199 1.00936-1.43313 0.94465-1.41803 1.98413-1.17021 0.3465-1.23416 1.56207-2.37417 1.98389-3.540822-1.87559-8.28206-4.866-12.094679-6.16912 0.513382-0.13558 1.532598-0.41429 2.04598-0.54987zm-61.296351 10.48524c9.188036-9.09173 22.045245-13.9276 34.857157-14.47747 3.042545 0.14312 6.085091 0.35403 9.112537 0.70806l1.109812 0.14311c4.831835 0.75325 9.625921 1.8756 14.170865 3.69093 3.812619 1.30312 7.2855 3.3369 10.826329 5.21249 0.40768 0.33143 0.83047 0.6478 1.26835 0.95663 2.03088 1.97352 0.24159 4.27093-0.77762 6.16159-9.686315-5.98081-21.033576-9.23485-32.395937-9.64914-11.951241 0.54234-24.415864 4.4969-32.750778 13.42292-6.364432 6.65873-9.014391 16.07436-9.006842 25.11336 0 11.70551 3.284138 23.16998 7.738485 33.91132 2.861352 5.50626 6.71927 10.44758 10.652685 15.23825-4.280703 3.20132-7.957427 7.13328-11.551104 11.06525 2.242273 2.56858 4.66574 4.97145 7.081657 7.37432-4.605342 0.0603-9.172935 0.76078-13.725429 1.37091-0.369938-6.5608-1.18531-13.2346-3.540829-19.40372-4.68084 2.36521-9.399428 4.64755-14.087818 7.00523-0.7247751-2.09404-1.6533933-4.11275-2.4687654-6.16912 3.1859909-2.12417 6.6286732-3.82651 10.063805-5.50626 1.404252-0.71559 2.989698-0.79845 4.529845-0.91897-1.072063-2.96027-2.136577-5.92808-3.284137-8.85822-0.430336-1.07715-1.396703-1.65715-2.551813-1.49143-4.356201-0.14312-8.7577002-0.0603-13.023304 0.93403 0.098147-0.51975 0.3019897-1.56676 0.4001363-2.09404 4.6732899-0.95663 9.4598259-0.44442 14.193514-0.42182-0.249141-1.22026-0.490733-2.44806-0.739874-3.66833-4.839385 1.33326-9.9807585 0.24104-14.850342 1.63456 0.5133825-0.96417 0.8153721-2.44054 2.189425-2.41041 4.0164625-0.42935 8.0706739-0.0151 12.102236-0.27117-0.271791-5.83015-1.426901-11.57745-1.706242-17.40761-0.09815-1.24286-0.188743-2.48572-0.27934-3.72105-4.0164626-0.0527-8.1008727 0.36909-12.041838-0.58754 0.022649-0.18078 0.083047-0.54234 0.1132461-0.72312 3.9787137 1.2278 8.1763698 1.06962 12.28343 0.91897 0.226492-2.12417 0.437885-4.25587 0.747424-6.36497 0.59643-4.57223 1.75909-9.05406 3.563478-13.3024 2.566912-6.57587 6.455029-12.72239 11.777596-17.41514zm47.842712-19.9536c5.231971 1.09975 10.403543 2.62131 15.250477 4.8886-0.603979 1.52156-1.200409 3.05066-1.796838 4.57976-0.513382 0.13558-1.532598 0.41429-2.04598 0.54987-4.544944-1.81533-9.33903-2.93768-14.170865-3.69093 1.660943-1.70234 1.879886-4.2182 2.763206-6.3273zm-2.884001-0.52727c0.966366 0.15818 1.925184 0.33143 2.884001 0.52727-0.88332 2.1091-1.102263 4.62496-2.763206 6.3273l-1.109812-0.14311c0.279341-2.24469 0.60398-4.48184 0.989017-6.71146zm-6.998611-0.79845c2.008231 0.18078 4.016463 0.42936 6.017144 0.67793-1.638294 1.54416-2.03843 3.81144-2.521613 5.90548-1.215509-0.0753-2.476316 0.0226-3.631426-0.41429-0.58133-2.01871-0.05285-4.12781 0.135895-6.16912zm-3.102943 6.80185c-0.03775-2.4104-0.150995-5.06937 1.789288-6.86211 0.332189 0.0151 0.989016 0.0452 1.313655 0.0603-0.188743 2.04131-0.717225 4.15041-0.135895 6.16912 1.15511 0.43689 2.415917 0.33896 3.631426 0.41429 0.483183-2.09404 0.883319-4.36132 2.521613-5.90548 0.249142 0.0301 0.739875 0.0904 0.981467 0.12052-0.385037 2.22962-0.709676 4.46677-0.989017 6.71146-3.027446-0.35403-6.069992-0.56494-9.112537-0.70806zm-33.211313 3.27664c10.161952-7.05042 22.641675-10.59823 35.000601-10.13875-1.940283 1.79274-1.827037 4.45171-1.789288 6.86211-12.811912 0.54987-25.669121 5.38574-34.857157 14.47747-5.322567 4.69275-9.210684 10.83927-11.777596 17.41514-1.879886-0.54987-3.706923-1.25792-5.488662-2.0639 0.188743-0.29377 0.558681-0.87377 0.747424-1.16754-0.830471-0.58753-1.653393-1.17507-2.483865-1.7626-1.3438534 2.76442-2.3706182 5.83768-4.8393837 7.8564 5.1866717-12.65461 14.238812-23.69726 25.487927-31.47833zm160.91519-26.10012c1.10981-1.73247 2.28757-3.41975 3.63897-4.97145 3.29924 2.95274 6.48523 6.06366 9.33903 9.45329-4.67329 2.53092-8.99929 5.63431-12.81946 9.3177-2.46876-2.0639-4.66574-4.42157-6.90046-6.72652 2.34797-2.25222 4.95263-4.31612 6.74192-7.07302zm-3.83527-10.77901c2.60466 1.7852 5.09608 3.73612 7.47424 5.80756-1.3514 1.5517-2.52916 3.23898-3.63897 4.97145-1.78929 2.7569-4.39395 4.8208-6.74192 7.07302-1.75154-1.69481-3.66918-3.22391-5.66231-4.60989 1.93274-4.98652 5.79065-8.76783 8.56896-13.24214zm-12.94026 2.99794c1.43445-2.79456 3.41249-5.25769 5.56416-7.54004 2.52162 1.41611 4.99038 2.91508 7.3761 4.5421-2.77831 4.47431-6.63622 8.25562-8.56896 13.24214-2.72545-1.82287-5.55661-3.48755-8.44061-5.03924 1.80439-1.34832 3.07275-3.21638 4.06931-5.20496zm-109.68264-25.13596c2.280022-0.25611 4.582693 0.12052 6.840066 0.43688 6.500327 2.70417 12.917607 5.57406 19.380186 8.35355 17.643744 7.18601 34.940194 15.20059 52.742494 21.97984 1.60054-1.23533 3.09539-3.08079 5.32256-2.96781 5.14893-0.19584 10.32805 0.28624 15.44677-0.45195 1.96294 0.99429 3.93342 1.96599 5.88125 2.99041 2.884 1.55169 5.71516 3.21637 8.44061 5.03924 1.99313 1.38598 3.91077 2.91508 5.66231 4.60989 2.23472 2.30495 4.4317 4.66262 6.90046 6.72652 3.82017-3.68339 8.14617-6.78678 12.81946-9.3177 14.04252 16.52631 20.38431 38.30277 21.04868 59.68754-0.30954-0.68545-0.62663-1.35585-0.95126-2.01871-4.59025 1.2278-9.35413 1.14494-14.06517 1.23533 0.56623 6.80939 1.75154 13.82968-0.0226 20.5562 0.0151-2.64391-0.0151-5.29535 0-7.93926-8e-3 -0.96416-0.0226-1.91325-0.0528-2.86988-0.0226-0.39169-0.068-1.17507-0.0906-1.56676-0.59643-4.85093-0.39258-9.9655-2.65751-14.4398-4.62799 2.32001-9.24843 4.64755-13.88397 6.94496-3.62388-10.57563-10.094-20.03645-18.08163-27.81753-10.09401-9.53614-21.9622-17.29462-34.90246-22.41672-22.93611-9.76966-45.857121-19.56944-68.800785-29.32403-4.786536-2.11664-9.761816-3.85664-14.269011-6.55328 2.687708-3.44988 4.929981-7.2086 7.29305-10.87693zm-32.924422-9.37797c4.590242-2.04884 8.501008-5.22755 12.759063-7.84133 4.091959 3.20885 8.15372 6.46289 12.389125 9.47589 4.560044 3.26157 9.731617 5.48366 14.6163 8.18029-2.257373-0.31636-4.560044-0.69299-6.840066-0.43688-2.363069 3.66833-4.605342 7.42705-7.29305 10.87693-9.505125-5.4008-18.368521-12.05953-25.631372-20.2549zm51.164597-15.27591c12.706215 6.99016 26.091901 12.64707 39.726731 17.55826 19.38774 7.50237 38.91892 14.88423 57.27989 24.69154-2.15167 2.28235-4.12971 4.74548-5.56416 7.54004-0.99656 1.98858-2.26492 3.85664-4.06931 5.20496-1.94783-1.02442-3.91831-1.99612-5.88125-2.99041-17.02466-8.19536-34.71371-14.92188-52.3801-21.59568-12.59297-4.51197-24.725401-10.16888-36.495448-16.48865 2.129027-4.80573 4.620442-9.44575 7.383647-13.92006zm-28.658818-0.0301c2.468765-4.7982 7.383647-7.66809 10.343145-12.14239 5.760453 4.53456 11.913492 8.57952 18.315673 12.17252-2.763205 4.47431-5.25462 9.11433-7.383647 13.92006-7.557291-3.93949-14.31431-9.10679-21.275171-13.95019zm-3.435133-2.83975c5.26217-2.1091 7.360998-7.71328 11.075471-11.54733 0.89087 0.75325 1.789289 1.5065 2.702807 2.24469-2.959498 4.4743-7.87438 7.34419-10.343145 12.14239-1.192859-0.88883-2.302671-1.87559-3.435133-2.83975zm-24.378115-11.2159c2.121478-0.50468 4.333552-0.36156 6.492778-0.53481 0.551131 1.73248 1.094713 3.45742 1.509948 5.22756-5.171573 1.08468-9.724067 3.98469-14.208613 6.6512-0.951267-2.24469-1.75909-4.54963-2.453666-6.87717 2.748106-1.73248 5.579259-3.38963 8.659553-4.46678zm147.93718 5.15977c1.14756-2.33508 1.90254-4.82834 2.28757-7.40445 2.99725 0.43688 6.0247 0.70805 9.0144 1.21273-3.36719 4.82833-6.74192 10.47771-12.61562 12.50395 0.12079-2.16183 0.62663-4.27093 1.31365-6.31223zm-114.65037-7.40448c0.709676 0.64779 1.434451 1.28052 2.166776 1.91325-3.714473 3.83405-5.813301 9.43823-11.075471 11.54733-0.460534-0.39169-1.396702-1.16754-1.857236-1.55923 3.110493-4.39898 7.829082-7.35172 10.765931-11.90135zm117.36073-2.92261c3.44268 0.75325 6.96841 1.11481 10.50169 0.98675-0.61908 1.06209-1.26081 2.1091-1.91008 3.14859-2.9897-0.50468-6.01715-0.77585-9.0144-1.21273 0.15855-0.9717 0.29444-1.95092 0.42279-2.92261zm-122.22276-1.55923 0.249141-0.2787c1.487299 1.63455 2.982148 3.26157 4.612892 4.76054-2.936849 4.54963-7.655438 7.50237-10.765931 11.90135-2.000681-1.61196-3.850368-3.40469-5.586809-5.29535 3.563478-3.95456 7.330799-7.75094 11.490707-11.08784zm-39.13786 0.66286c1.064514-0.70806 2.030881-1.80027 3.404934-1.84546 4.031562-0.30884 8.078223-0.0377 12.117335-0.0603-0.0076 1.14494-0.0151 2.28988-0.0151 3.44235-5.043227 0.17325-10.411093-0.85117-15.107032 1.5065-0.158545-1.01689-0.286891-2.03378-0.400137-3.04313zm161.70036-2.84729c2.95195 3.38963 8.13107 0.0527 11.19626 2.71924-0.25669 0.50467-0.77762 1.5065-1.03431 2.01117-3.53328 0.12806-7.05901-0.2335-10.50169-0.98675 0.14344-1.2504 0.24159-2.49326 0.33974-3.74366zm-147.09161-2.16936c0.226492-2.12416 0.558681-4.23326 0.943718-6.33483 0.0604 5.64937 0.430335 11.35148 1.653393 16.88033-2.159226 0.17325-4.3713 0.0301-6.492778 0.53481-3.080294 1.07715-5.911447 2.7343-8.659553 4.46678-0.679477-2.47067-1.230608-4.97146-1.653393-7.48731 4.695939-2.35767 10.063805-1.33325 15.107032-1.5065 0-1.15247 0.0076-2.29741 0.0151-3.44235-4.039112 0.0226-8.085773-0.24858-12.117335 0.0603-1.374053 0.0452-2.34042 1.1374-3.404934 1.84546-0.09815-1.00182-0.181193-2.00365-0.256691-2.99794 4.560044-2.60624 9.890161-1.54416 14.865441-2.01871zm-14.691797-9.76965c4.416599 0.54234 8.863397 0.19584 13.287545 0.42182 1.426901 0.0151 2.529163 1.09221 1.46465 2.40287-4.96773 0.79844-10.048706 0.21844-14.948488-0.75325 0.05285-0.51975 0.150995-1.5517 0.196293-2.07144zm161.80606-4.18807c4.80163-0.94157 9.70896-0.63273 14.56345-0.42936 0.12834 2.10157 0.26424 4.20314 0.30954 6.31224-1.11736 4.34625-1.81194 8.85069-3.69938 12.96344-3.06519-2.66651-8.24431 0.67039-11.19626-2.71924 0.42278-5.36314 0.52848-10.76394 0.0227-16.12708zm-147.72579-0.28624c1.034314 0.0527 1.525048-1.00182 2.196975-1.58182-0.0302 3.17118-0.120796 6.34989-0.641728 9.49095-0.385037 2.10157-0.717226 4.21067-0.943718 6.33483-4.97528 0.47455-10.305397-0.58753-14.865441 2.01871-0.249141-3.23897-0.309539-6.48548-0.02265-9.71692 4.899782 0.97169 9.980758 1.55169 14.948488 0.75325 1.064513-1.31066-0.03775-2.38781-1.46465-2.40287-4.424148-0.22598-8.870946 0.12052-13.287545-0.42182l0.0604-0.57247c0.28689-1.5743 0.611529-3.13352 0.905969-4.70028 4.333552 0.67792 8.735051 1.27299 13.113901 0.79844zm163.4066-3.63066c4.15991-0.3691 8.35756-0.3691 12.53257-0.21845 1.14001-0.0753 2.15923 0.38416 2.71791 1.41611-0.1812 9.95797-2.77831 20.2549-9.36168 27.98325-5.21687 6.35743-12.63827 10.41745-20.24841 13.2346-0.83802 0.3013-1.67604 0.6026-2.51406 0.89637-1.36651-0.58-2.44612-1.61949-3.19354-2.88495 5.8737-2.02624 9.24843-7.67562 12.61562-12.50395 0.64927-1.03949 1.291-2.0865 1.91008-3.14859 0.25669-0.50467 0.77762-1.5065 1.03431-2.01117 1.88744-4.11275 2.58202-8.61719 3.69938-12.96344 0.15099-0.42182 0.45298-1.27299 0.60398-1.69481 1.22305-2.57612 0.48318-5.41587 0.20384-8.10497zm-176.45256-0.73819c5.028128 1.10728 10.20725 0.63273 15.295776 1.14494-0.0151 0.40676-0.03775 1.2278-0.05285 1.64209-0.671927 0.58-1.162661 1.63455-2.196975 1.58182-4.37885 0.47455-8.780349-0.12052-13.113901-0.79844-0.29444 1.56676-0.619079 3.12598-0.905969 4.70028 0.120796-2.7795 0.407686-5.54392 0.973917-8.27069zm1.74399-7.34419c4.439248 1.88313 8.682203 4.1956 13.015754 6.29717 0.196293-0.70052 0.385037-1.39351 0.58133-2.0865-0.792723-0.80598-1.585445-1.61196-2.370618-2.4104 0.807822 0.15818 1.623194 0.3239 2.431016 0.48961 0.520932-0.70052 1.041865-1.39351 1.547697-2.1091-0.56623 2.65144-1.026765 5.32548-1.509948 7.98445-5.126274-0.0829-10.365795 0.0452-15.310876-1.5065 0.362388-2.25222 0.830472-4.50443 1.615645-6.65873zm156.13621 0.20338c4.72613-2.13923 9.04459-5.06184 13.81602-7.09562 3.76732 7.11822 4.04666 15.23072 4.5525 23.07959-0.151 0.42182-0.45299 1.27299-0.60398 1.69481-0.0453-2.1091-0.1812-4.21067-0.30954-6.31224-4.85449-0.20337-9.76182-0.51221-14.56345 0.42936-0.40014-4.04496-1.49485-7.98446-2.89155-11.7959zm-156.13621-0.20338c2.936849-7.66055 6.757019-15.03487 11.717199-21.58062 3.352085 1.95092 6.590924 4.08262 9.724067 6.36497-2.665059 4.87353-4.68839 10.07095-6.236087 15.39643-0.505832 0.71559-1.026765 1.40858-1.547697 2.1091-0.807822-0.16571-1.623194-0.33143-2.431016-0.48961 0.785173 0.79844 1.577895 1.60442 2.370618 2.4104-0.196293 0.69299-0.385037 1.38598-0.58133 2.0865-4.333551-2.10157-8.576506-4.41404-13.015754-6.29717zm21.441266-15.21565c2.091278-3.89431 4.748787-7.48731 7.87438-10.62083-0.89087 3.36703-3.737122 5.61925-5.367866 8.58705-2.325321 4.10522-4.68084 8.27069-5.979395 12.83538 3.291687 0.21091 6.598474-0.0527 9.882611 0.24858 1.238158-8e-3 1.615645 1.37091 2.295121 2.14676-0.785173 6.83198-1.592995 13.94266 0.445435 20.64659 1.18531 4.22573 3.080295 8.26315 5.85105 11.68291-4.159908 3.3369-7.927229 7.13328-11.490707 11.08784 1.736441 1.89066 3.586128 3.68339 5.586809 5.29535 0.460534 0.39169 1.396702 1.16754 1.857236 1.55923 1.132462 0.96416 2.242274 1.95092 3.435133 2.83975 6.960861 4.8434 13.71788 10.0107 21.275171 13.95019 11.770047 6.31977 23.90248 11.97668 36.49545 16.48865 17.66639 6.6738 35.35544 13.40032 52.3801 21.59568-5.11872 0.73819-10.29784 0.25611-15.44677 0.45195-2.22717-0.11298-3.72202 1.73248-5.32256 2.96781-17.8023-6.77925-35.09875-14.79383-52.742496-21.97984-6.462579-2.77949-12.879859-5.64938-19.380186-8.35355-4.884683-2.69663-10.056256-4.91872-14.6163-8.18029-4.235405-3.013-8.297166-6.26704-12.389125-9.47589-4.258055 2.61378-8.168821 5.79249-12.759063 7.84133-4.4015-4.94132-7.972527-10.5681-10.833879-16.51877-0.173644-0.37663-0.513383-1.12988-0.679477-1.49897 4.484546-2.66651 9.03704-5.56652 14.208613-6.6512-0.415235-1.77014-0.958817-3.49508-1.509948-5.22756-1.223058-5.52885-1.592995-11.23096-1.653393-16.88033 0.520932-3.14106 0.611529-6.31977 0.641728-9.49095 0.0151-0.41429 0.03775-1.23533 0.05285-1.64209-5.088526-0.51221-10.267648-0.0377-15.295776-1.14494 0.0302-0.17325 0.0906-0.51221 0.128345-0.68546 4.945081 1.5517 10.184602 1.42365 15.310876 1.5065 0.483183-2.65897 0.943718-5.33301 1.509948-7.98445 1.547697-5.32548 3.571028-10.5229 6.236087-15.39643zm159.51094-29.15832c1.291 0.43689 2.55936 0.9491 3.78997 1.53663-1.38916 1.51404-2.8991 2.90002-4.52985 4.15041-0.0982-1.92832 0.0906-3.85664 0.73988-5.68704zm-23.11731 4.15794c7.60259-1.47637 15.23538-2.76442 22.83797-4.23326l0.27934 0.0753c-0.64928 1.8304-0.83803 3.75872-0.73988 5.68704-4.48455 3.67586-8.16882 8.17277-12.12488 12.36837-4.03157 1.35585-8.85585 2.32001-12.87231 0.3239-0.73988-4.42158-0.56623-8.91095-0.24159-13.35513 0.95126-0.3013 1.90253-0.6026 2.86135-0.86624zm-65.93189-7.49484c3.26903 0.22598 6.56072 0.12052 9.81466 0.59507 1.01167 0.15065 2.02333 0.3239 3.035 0.48961 1.07206 0.17325 2.14412 0.3465 3.22374 0.53481 6.89291 1.5517 13.87642 3.09586 20.3692 5.95821 6.24363 2.56858 11.87574 6.30471 17.83249 9.43069 3.01234 1.5743 5.96429 3.24651 9.03704 4.70782 4.01646 1.99611 8.84074 1.03195 12.87231-0.3239 3.95606-4.1956 7.64033-8.69251 12.12488-12.36837 1.63075-1.25039 3.14069-2.63637 4.52985-4.15041 0.74742 1.19014 1.3816 2.4556 1.88743 3.76625-1.87988 3.76625-2.44611 8.03718-2.49141 12.19512-0.0302 3.43483 1.291 6.64367 2.15167 9.91278 2.28002 8.54939 3.77487 17.36995 3.66918 26.24323-0.55868-1.03195-1.5779-1.49143-2.71791-1.41611-4.17501-0.15065-8.37266-0.15065-12.53257 0.21845 0.27934 2.6891 1.01921 5.52885-0.20384 8.10497-0.50584-7.84887-0.78518-15.96137-4.5525-23.07959-4.77143 2.03378-9.08989 4.95639-13.81602 7.09562-5.20933-13.49071-16.68493-23.47128-29.05896-30.39365-6.39463-3.65326-13.2196-6.56834-20.36165-8.3912 0.78517-2.08651 1.60054-4.15794 2.46121-6.21432-3.40493-0.75325-6.84006-1.49143-10.33559-1.57429-2.35552-0.17325-4.99038 0.31636-6.93821-1.34079zm41.84821-0.13558c5.86615 1.77767 11.03017 5.27275 16.91897 6.94497-1.22305 3.51767-2.9444 6.82444-4.49209 10.199-5.95675-3.12598-11.58886-6.86211-17.83249-9.43069 3.48798-0.77585 3.86547-5.06184 5.40561-7.71328zm-87.282556 9.28004c10.80368-5.77743 23.019162-8.459 35.151596-9.40056 3.42003-0.36156 6.90801-0.48208 10.28275 0.2561 1.94783 1.65715 4.58269 1.16754 6.93821 1.34079 3.49553 0.0829 6.93066 0.82104 10.33559 1.57429-0.86067 2.05638-1.67604 4.12781-2.46121 6.21432-14.88054-3.57794-30.93129-3.08833-45.328647 2.26728-8.976642 3.51015-17.387054 8.97121-23.457046 16.51878-4.08441 5.11456-6.832516 11.29875-7.783784 17.7767-0.679476-0.77585-1.056963-2.1543-2.295121-2.14676-3.284137-0.3013-6.590924-0.0377-9.882611-0.24858 1.298555-4.56469 3.654074-8.73016 5.979395-12.83538 1.630744-2.9678 4.476996-5.22002 5.367866-8.58705 5.133824-4.94132 10.758381-9.51355 17.153012-12.72993zm104.20153-2.33507c2.37062 0.36909 4.77144 0.58753 7.16471 0.68545-0.95882 0.26364-1.91009 0.56494-2.86135 0.86624-0.32464 4.44418-0.49829 8.93355 0.24159 13.35513-3.07275-1.46131-6.0247-3.13352-9.03704-4.70782 1.54769-3.37456 3.26904-6.68133 4.49209-10.199zm-42.69378-5.1899c0.40768-2.44053 0.98146-4.87353 2.21207-7.04289 7.98763 1.07715 15.9375 2.64391 23.56274 5.28782-1.54014 2.65144-1.91763 6.93743-5.40561 7.71328-6.49278-2.86235-13.47629-4.40651-20.3692-5.95821zm-6.25874-1.02442c0.12835-2.34261 0.27934-4.79067 1.74399-6.74159 0.33974 0.0301 1.02677 0.0904 1.3665 0.12052-0.0528 2.36521-0.0755 4.73795-0.0755 7.11068-1.01167-0.16571-2.02333-0.33896-3.035-0.48961zm-65.539301 4.37639c12.290979-6.74159 26.144754-10.13875 40.00608-11.61512 1.094712 0.23351 2.227173 0.41429 3.246388 0.91896 1.087163 1.64962 1.555243 3.6156 2.189423 5.4686-12.132432 0.94156-24.347914 3.62313-35.151594 9.40056-6.394631 3.21638-12.019188 7.78861-17.153012 12.72993-3.125593 3.13352-5.783102 6.72652-7.87438 10.62083-3.133143-2.28235-6.371982-4.41405-9.724067-6.36497 6.500327-8.7151 14.903189-15.9689 24.461162-21.15879zm68.649791-10.99746c1.78929 0.18078 3.57103 0.38416 5.36032 0.6026-1.23061 2.16936-1.80439 4.60236-2.21207 7.04289-1.07962-0.18831-2.15168-0.36156-3.22374-0.53481 0-2.37273 0.0227-4.74547 0.0755-7.11068zm-28.643711-0.61766c9.074781-1.03196 18.209971-0.0753 27.277211 0.49714-1.46465 1.95092-1.61564 4.39898-1.74399 6.74159-3.25394-0.47455-6.54563-0.36909-9.81466-0.59507-3.37474-0.73818-6.86272-0.61766-10.28275-0.2561-0.63418-1.853-1.10226-3.81898-2.189423-5.4686-1.019215-0.50467-2.151676-0.68545-3.246388-0.91896z" fill="#873030" filter="url(#filter1636)" stroke="#000" stroke-linecap="round" stroke-linejoin="round" stroke-width=".75"/>
</svg>
