<svg id="svg5" version="1.1" viewBox="0 0 64 64" xmlns="http://www.w3.org/2000/svg" xmlns:xlink="http://www.w3.org/1999/xlink">
  <defs id="defs3">
    <style id="style1" type="text/css"/>
    <style id="style2" type="text/css"/>
    <filter id="filter1057" x="-.026999999" y="-.026999999" width="1.054" height="1.054" color-interpolation-filters="sRGB">
      <feGaussianBlur id="feGaussianBlur2" stdDeviation="0.61875"/>
    </filter>
    <linearGradient id="linearGradient1053" x1="-127" x2="-72" y1="60" y2="5" gradientTransform="translate(131.5 -.51)" gradientUnits="userSpaceOnUse">
      <stop id="stop2" stop-color="#a085e9" offset="0"/>
      <stop id="stop3" stop-color="#c2e1f5" stop-opacity=".99607843" offset="1"/>
    </linearGradient>
    <linearGradient id="k" x1="22.221363" x2="83.446823" y1="14.907595" y2="78.167587" gradientTransform="rotate(10.103803,574.69387,369.37345)" gradientUnits="userSpaceOnUse" xlink:href="#l"/>
    <linearGradient id="l">
      <stop id="stop12" offset="0"/>
      <stop id="stop13" stop-opacity="0" offset="1"/>
    </linearGradient>
    <radialGradient id="m" cx="63.937504" cy="95.865532" r="20.6875" gradientTransform="matrix(.1433207 -.1433132 .8374475 .8374024 38.231607 -15.647539)" gradientUnits="userSpaceOnUse">
      <stop id="stop14" stop-color="#d0d0d0" offset="0"/>
      <stop id="stop15" stop-color="#a1a1a1" offset="1"/>
    </radialGradient>
    <linearGradient id="n" x1="40.113346" x2="40.113346" y1="2.60251" y2="75.039833" gradientUnits="userSpaceOnUse">
      <stop id="stop16" stop-color="#5496b4" stop-opacity=".198473" offset="0"/>
      <stop id="stop17" stop-color="#dfecf2" stop-opacity="0" offset="1"/>
    </linearGradient>
    <linearGradient id="o" x1="12.75" x2="63.25" y1="11.75" y2="64" gradientUnits="userSpaceOnUse">
      <stop id="stop18" stop-color="#404040" offset="0"/>
      <stop id="stop19" stop-color="#b7b7b7" offset=".5"/>
      <stop id="stop20" stop-color="#404040" offset="1"/>
    </linearGradient>
    <filter id="p" x="-.093733867" y="-.086552214" width="1.1874677" height="1.1731044" color-interpolation-filters="sRGB">
      <feGaussianBlur id="feGaussianBlur20" stdDeviation="1.9857422"/>
    </filter>
    <linearGradient id="q" x1="31.916746" x2="25.221453" y1="-3.9123456" y2="48.498211" gradientUnits="userSpaceOnUse" xlink:href="#b"/>
    <linearGradient id="b">
      <stop id="stop4" stop-color="#fefefe" offset="0"/>
      <stop id="stop5" stop-color="#fefefe" stop-opacity="0" offset="1"/>
    </linearGradient>
    <linearGradient id="r" x1="124.34372" x2="10.007462" y1="42.893944" y2="21.098124" gradientUnits="userSpaceOnUse" xlink:href="#b"/>
    <radialGradient id="s" cx="31.357048" cy="22.817865" r="7.357049" gradientTransform="matrix(1.0000002 5e-8 -3e-8 .7208464 -7.0000001e-6 6.369689)" gradientUnits="userSpaceOnUse" xlink:href="#b"/>
    <linearGradient id="t" x1="53.797203" x2="61.486988" y1="73.685364" y2="81.817085" gradientTransform="matrix(.6875241 -.6874876 .6875241 .6874876 23.861388 39.569248)" gradientUnits="userSpaceOnUse" xlink:href="#l"/>
    <linearGradient id="u" x1="58.89584" x2="43.282017" y1="170.39819" y2="170.39819" gradientUnits="userSpaceOnUse">
      <stop id="stop21" offset="0"/>
      <stop id="stop22" stop-color="#646464" offset=".2"/>
      <stop id="stop23" stop-color="#c8c8c8" offset=".30000001"/>
      <stop id="stop24" stop-color="#646464" offset=".40000001"/>
      <stop id="stop25" offset="1"/>
    </linearGradient>
    <linearGradient id="v" x1="64.414215" x2="64.414215" y1="87.40625" y2="75.81768" gradientTransform="matrix(.6875241 -.6874876 .6875241 .6874876 23.861388 39.569248)" gradientUnits="userSpaceOnUse" xlink:href="#b"/>
    <filter id="w" x="-.093729717" y="-.16673078" width="1.1874594" height="1.3334616" color-interpolation-filters="sRGB">
      <feGaussianBlur id="feGaussianBlur25" stdDeviation=".31930287"/>
    </filter>
    <filter id="filter19" x="-.075836806" y="-.074181465" width="1.1516736" height="1.1483629" color-interpolation-filters="sRGB">
      <feGaussianBlur id="feGaussianBlur19" stdDeviation="1.3909012"/>
    </filter>
  </defs>
  <rect id="rect3" x="4.5" y="4.5" width="55" height="55" ry="15" fill="#141414" filter="url(#filter1057)" opacity=".3" stroke-linecap="round" stroke-width="2.7444"/>
  <rect id="rect4" x="4.5" y="4.5" width="55" height="55" ry="15" fill="url(#linearGradient1053)" stroke-linecap="round" stroke-width="2.7444"/>
  <circle id="circle4" cx="-1326.3" cy="-1241.6" r="0" fill="#5e4aa6"/>
  <circle id="circle5" cx="-226.72" cy="23.855" r="0" fill="#5e4aa6" fill-rule="evenodd"/>
  <path id="path13" transform="matrix(.85145443 0 0 .85145443 4.7534581 4.7534583)" d="m32.000909 9.5000215c-12.154902 0-22.009765 4.9265535-22.009765 11.003906 0 0.164673 0.0091 0.329274 0.023437 0.492188 1.78e-4 -2e-3 0.0018-0.0038 2e-3 -0.0059-0.01461 0.164536-0.02539 0.329757-0.02539 0.496094 0 1.805372 0.8748561 3.508385 2.4160151 5.011719-1.541159 1.503333-2.4160151 3.204394-2.4160151 5.009765 0 0.164378 0.011122 0.327615 0.02539 0.490235-0.01438 0.163258-0.02539 0.327157-0.02539 0.492187 0 1.805372 0.8748561 3.508386 2.4160151 5.011719-1.541159 1.503334-2.4160151 3.206347-2.4160151 5.011719 0 0.16503 0.011009 0.328929 0.02539 0.492187-0.01427 0.16262-0.02539 0.325857-0.02539 0.490235 0 6.077353 9.8548631 11.003906 22.009765 11.003906 12.154901 0 22.007813-4.926553 22.007813-11.003906 0-0.164378-0.01112-0.327615-0.02539-0.490235 0.01438-0.163258 0.02539-0.327157 0.02539-0.492187 0-1.805372-0.874857-3.508385-2.416016-5.011719 1.541159-1.503333 2.416016-3.206347 2.416016-5.011719 0-0.16503-0.01101-0.328929-0.02539-0.492187 0.01427-0.16262 0.02539-0.325857 0.02539-0.490235 0-1.805371-0.874857-3.506432-2.416016-5.009765 1.541159-1.503334 2.416016-3.206347 2.416016-5.011719 0-0.162418-0.01146-0.323673-0.02539-0.484375 8.1e-4 -0.0091 0.0012-0.01826 2e-3 -0.02734 6.58e-4 0.0072 0.0013 0.01433 2e-3 0.02148 0.01432-0.162914 0.02148-0.327515 0.02148-0.492188 0-2.468924-1.626908-4.747978-4.373047-6.583984-0.211242-0.141231-0.42808-0.280143-0.652344-0.416016-0.672792-0.407617-1.40385-0.78929-2.185547-1.144531-0.26003-0.11817-0.525712-0.235741-0.796875-0.347656h-2e-3c-0.271834-0.112092-0.547706-0.220509-0.830168-0.326131-1.412308-0.528109-2.955889-0.972272-4.601563-1.320312-2.633077-0.5568654-5.527681-0.8652345-8.566406-0.8652345z" fill="#171717" filter="url(#filter19)" opacity=".15"/>
  <g stroke-width=".111541">
    <path id="path4" d="m31.999798 32.41829c-10.349355 0-18.739434 4.195124-18.739434 9.369718 0 5.174593 8.390079 9.369717 18.739434 9.369717s18.739435-4.195124 18.739435-9.369717c0-5.174594-8.39008-9.369718-18.739435-9.369718z" opacity=".3"/>
    <path id="path5" d="m31.999798 31.581709c-10.349355 0-18.739434 4.195123-18.739434 9.369717 0 5.174593 8.390079 9.369717 18.739434 9.369717s18.739435-4.195124 18.739435-9.369717c0-5.174594-8.39008-9.369717-18.739435-9.369717z" fill="#808080"/>
    <path id="path6" d="m31.999798 23.048573c-10.349355 0-18.739434 4.195124-18.739434 9.369717 0 5.174594 8.390079 9.369718 18.739434 9.369718s18.739435-4.195124 18.739435-9.369718c0-5.174593-8.39008-9.369717-18.739435-9.369717z" opacity=".3"/>
    <path id="path7" d="m31.999798 22.211991c-10.349355 0-18.739434 4.195124-18.739434 9.369718 0 5.174593 8.390079 9.369717 18.739434 9.369717s18.739435-4.195124 18.739435-9.369717c0-5.174594-8.39008-9.369718-18.739435-9.369718z" fill="#cccccc"/>
    <path id="path8" d="m31.999798 13.678856c-10.349355 0-18.739434 4.195123-18.739434 9.369717s8.390079 9.369717 18.739434 9.369717 18.739435-4.195123 18.739435-9.369717-8.39008-9.369717-18.739435-9.369717z" opacity=".3"/>
    <path id="path9" d="m31.999798 12.842274c-10.349355 0-18.739434 4.195124-18.739434 9.369717 0 5.174594 8.390079 9.369718 18.739434 9.369718s18.739435-4.195124 18.739435-9.369718c0-5.174593-8.39008-9.369717-18.739435-9.369717z" fill="#e5e5e5"/>
  </g>
  <path id="path10" d="m31.999798 12.842274c-10.349355 0-18.739434 4.195124-18.739434 9.369717 0 0.140211 0.0073 0.279578 0.01944 0.418291 0.437775-4.980423 8.651094-8.951426 18.720194-8.951426 10.069099 0 18.281824 3.971003 18.720193 8.951426 0.01219-0.138713 0.01944-0.27808 0.01944-0.418291 0-5.174593-8.39008-9.369717-18.739435-9.369717z" fill="#ffffff" opacity=".2" stroke-width=".0836582"/>
  <g id="g19" transform="matrix(.37410241 0 0 .37410241 2.9848047 61.938979)">
    <path id="path40" d="m119.73115-45.407589c-2.64757 3.098191-6.01706 5.239289-9.63217 6.391807 1.82793 0.34134 3.76789 1.156513 5.26239 2.920263-0.52614 0.677453-0.71291 1.591985-0.20015 2.32366l19.45351 27.741595c0.62896 0.897377 1.91299 1.116346 2.8143 0.490789l4.52169-3.137417c0.90137-0.625667 1.11986-1.916881 0.49079-2.814295l-19.40948-27.745363c-0.53089-0.757452-1.52079-0.903486-2.35761-0.596448-1.06163-1.892944-1.18947-3.838318-0.94327-5.574591z" fill="url(#k)" opacity=".6"/>
    <g id="g51" transform="matrix(.52465708 0 0 .52465708 56.476154 -69.093122)">
      <path id="path41" d="m101.03596 56.584567s14.86816-7.132238 24.66538 2.664461l5.84395-5.671773c-9.8966-9.896076-2.75054-24.750002-2.75054-24.75-2.1751 6.421196-2.96877 10.530978-10.05504 17.61687-7.12919 7.12881-17.70375 10.140442-17.70375 10.140442z" fill="url(#m)" fill-rule="evenodd" stroke="#404141" stroke-width="1.90601"/>
      <path id="path42" transform="matrix(.9911353 0 0 .9910827 55.641208 -16.409904)" d="m74.25 37.75a36.25 36.25 0 1 1-72.5 0 36.25 36.25 0 1 1 72.5 0z" fill="url(#n)" stroke="url(#o)" stroke-width="3.84621"/>
      <path id="path43" transform="matrix(.9980182 0 0 .9979653 55.503044 -16.792511)" d="m56.375449 13.756925c5.137338 5.453482 8.3125 12.861855 8.3125 21.03125-2e-6 16.735097-13.280226 30.34375-29.625 30.34375-6.317804 0-12.159384-2.043738-16.96875-5.5 5.380898 5.665106 12.897015 9.1875 21.21875 9.1875 16.344774 0 29.625001-13.577403 29.625-30.3125 0-10.231102-4.973959-19.25883-12.5625-24.75z" fill="#b0cedd" filter="url(#p)" opacity=".4"/>
      <g id="g45" transform="rotate(-15,94.200219,21.964462)" opacity=".692623">
        <path id="path44" transform="matrix(.9980182 0 0 .9979653 54.750298 -17.441387)" d="m38.25 3.46875c-16.614748 0-30.388067 11.786531-33.6875 27.40625a0.44506709 0.44506709 0 0 0 0.21875 0.5c8.190652 4.350104 19.485294 7.15625 32.09375 7.15625 13.927809 0 26.283255-3.442975 34.5625-8.59375a0.44506709 0.44506709 0 0 0 0.1875-0.5c-3.819215-14.900649-17.268662-25.96875-33.375-25.96875z" fill="url(#q)" stroke="url(#r)" stroke-width="1.90984"/>
        <path id="path45" transform="matrix(1.4329562,0,0,1.4328803,36.223175,-31.240403)" d="m38.714097 22.817865a7.3570485 5.3033009 0 1 1-14.714097 0 7.3570485 5.3033009 0 1 1 14.714097 0z" fill="url(#s)" opacity=".6"/>
      </g>
      <path id="path46" d="m122.72062 43.549949c-9.33464 9.461891 0.48615 13.368497 0.48615 13.368497-4.25384-3.281359-15.31381-3.038294-15.31381-3.038294s3.64614-0.972255 14.82766-10.330203z" fill="url(#t)" fill-rule="evenodd" opacity=".6"/>
      <rect id="rect46" transform="matrix(.70712558 -.70708798 .70712558 .70708798 0 0)" x="43.8255" y="130.89931" width="14.584202" height="69.031891" rx="1.9445601" fill="url(#u)" stroke="#000000" stroke-width="1.90601"/>
      <g id="g49" fill-rule="evenodd">
        <path id="path47" d="m127.24782 56.326758-5.38119-5.259368s-1.39963-3.833156 2.45921-7.631024c0.3507 6.973953 5.09198 10.763478 5.09198 10.763478z" fill="url(#v)"/>
        <path id="path48" transform="matrix(.6875241 -.6874876 .6875241 .6874876 23.861388 39.569248)" d="m62.35798 89.064933 8.175922 0.04419s-2.902651 0.516443-3.402951 4.551999c-0.353553-4.065864-4.772971-4.596193-4.772971-4.596193z" fill="#fefefe" filter="url(#w)" opacity=".4"/>
        <path id="path49" transform="matrix(.6875241 -.6874876 -.6875241 -.6874876 194.52843 210.22725)" d="m62.35798 89.064933 8.175922 0.04419s-2.902651 0.516443-3.402951 4.551999c-0.353553-4.065864-4.772971-4.596193-4.772971-4.596193z" fill="#fefefe" filter="url(#w)" opacity=".4"/>
      </g>
    </g>
  </g>
</svg>
