<svg id="svg8" width="64" height="64" version="1.1" viewBox="0 0 16.933333 16.933334" xmlns="http://www.w3.org/2000/svg" xmlns:xlink="http://www.w3.org/1999/xlink">
    <defs id="defs2">
        <filter id="filter1057" x="-.026999999" y="-.026999999" width="1.054" height="1.054" color-interpolation-filters="sRGB">
            <feGaussianBlur id="feGaussianBlur1059" stdDeviation="0.61875"/>
        </filter>
        <linearGradient id="linearGradient4420" x1="-127" x2="-72" y1="60" y2="5" gradientTransform="matrix(.25496214 0 0 .25496214 33.835399 .17784807)" gradientUnits="userSpaceOnUse">
            <stop id="stop1047" stop-color="#940000" offset="0"/>
            <stop id="stop1049" stop-color="#b80000" offset="1"/>
        </linearGradient>
    </defs>
    <g id="layer1">
        <g stroke-linecap="round">
            <rect id="rect1055" transform="scale(.26458333)" x="4.5" y="4.5" width="55" height="55" ry="15" fill="#141414" filter="url(#filter1057)" opacity=".3" stroke-width="2.74436"/>
            <rect id="rect1045" x="1.1906254" y="1.1906255" width="14.552082" height="14.552082" ry="3.9687498" stroke-width=".726112"/>
            <rect id="rect4418" x="1.4552083" y="1.4552083" width="14.022917" height="14.022917" ry="3.8244319" fill="url(#linearGradient4420)" stroke-width=".699708"/>
        </g>
        <path id="path421" d="m8.4070754 14.117262c-0.071732-0.01909-0.2722569-0.424467-0.2722569-0.55041 0-0.03198-0.054976-0.09416-0.1221755-0.138186-0.1130382-0.07406-0.3184726-0.24475-0.4615543-0.38348-0.032937-0.03193-0.082276-0.05806-0.1096429-0.05806-0.027367 0-0.049759-0.02687-0.049759-0.05972 0-0.06999-0.00309-0.07038-0.6966895-0.0927-0.293771-0.0094-0.5654797-0.0018-0.6037983 0.01718-0.1963491 0.09683-0.6944536 0.218036-0.8503973 0.206928-0.2443444-0.01741-0.2927729-0.07616-0.2303649-0.279504 0.027621-0.09001 0.033169-0.174204 0.012324-0.187089-0.020845-0.01289-0.027897-0.160732-0.015651-0.328546 0.018834-0.258141 0.00873-0.317114-0.065454-0.383021-0.048245-0.04284-0.102116-0.109256-0.1197251-0.147569-0.017607-0.03832-0.075203-0.141163-0.1279859-0.228543-0.052788-0.08738-0.099209-0.202336-0.103166-0.255454-0.00851-0.115014-0.3880472-0.511796-0.5336998-0.558024-0.056313-0.01787-0.1023922-0.05322-0.1023922-0.07855s-0.02005-0.03367-0.044554-0.01852c-0.024504 0.01514-0.081989 0.0085-0.1277261-0.01467-0.3335198-0.169246-0.4956431-0.23962-0.5520197-0.23962-0.035899 0-0.065277-0.0209-0.065277-0.04644s0.022139-0.04644 0.049185-0.04644c0.027057 0 0.034308-0.02406 0.016137-0.05348-0.023421-0.03789-0.048886-0.03182-0.087383 0.02081-0.049284 0.0674-0.06111 0.06636-0.1275426-0.01122-0.1434531-0.167541-0.1406358-0.2625205 0.012324-0.4154765 0.079436-0.07944 0.1764056-0.144426 0.2154913-0.144426 0.045924 0 0.061022-0.02617 0.042686-0.07397-0.018933-0.04934 0.00265-0.08207 0.064703-0.0983 0.051196-0.013385 0.093086-0.053915 0.093086-0.090057s0.026946-0.076054 0.059872-0.088687c0.032937-0.012633 0.063332-0.069455 0.067565-0.1262696 0.0042-0.056811 0.052025-0.139284 0.1062275-0.1832737 0.054202-0.04399 0.085261-0.1014639 0.069035-0.1277273-0.016225-0.026261-0.00741-0.047748 0.019685-0.047748 0.027057 0 0.049184-0.052246 0.049184-0.1161153 0-0.084233-0.024913-0.1161142-0.090732-0.1161142-0.080663 0-0.089173-0.028173-0.076651-0.2538994 0.00774-0.1396443 0.043183-0.288963 0.078762-0.331821 0.057563-0.069367 0.054191-0.074595-0.030771-0.047637-0.0818228 0.0259538-0.1114087-0.0078564-0.2073605-0.2371503-0.0615525-0.1470883-0.1063602-0.2935587-0.0995517-0.3254911 0.00685-0.031931-0.00984-0.05806-0.036872-0.05806-0.047549 0-0.1169332-0.1336813-0.2363068-0.4552708-0.036142-0.097363-0.079944-0.1445385-0.1199616-0.1291841-0.042719 0.016391-0.063034-0.01323-0.063034-0.091925 0-0.068449 0.033368-0.1281517 0.081282-0.1454381 0.044708-0.016126 0.1339831-0.065753 0.1983971-0.1102618 0.064415-0.04452 0.1898181-0.088145 0.2786752-0.096943 0.088853-0.00884 0.17201-0.026449 0.1847825-0.039226 0.074075-0.074064 0.4297899-0.2247944 0.4826539-0.2045094 0.034496 0.01323 0.075203-0.00851 0.090466-0.048278 0.015264-0.03979 0.05512-0.07234 0.088565-0.07234 0.066161 0 0.2207867-0.1606898 0.2207867-0.2294431 0-0.023432 0.035081-0.077679 0.077944-0.1205464 0.042874-0.042874 0.082387-0.1227431 0.087803-0.1774904 0.0256977-0.2595695 0.115218-0.6528292 0.1540682-0.6768401 0.023841-0.014733 0.044122-0.078983 0.045073-0.14276 9.362e-4 -0.063785 0.01039-0.1995721 0.020923-0.3017533 0.010611-0.1021822 0.022117-0.2328097 0.025698-0.2902871 0.00376-0.061166 0.036684-0.1045033 0.079292-0.1045033 0.05166 0 0.064238-0.026969 0.043315-0.092887-0.024029-0.075711-0.0084-0.092887 0.084796-0.092887 0.062857 0 0.1269447 0.033014 0.1424295 0.073368 0.020381 0.053108 0.06384 0.065531 0.1574392 0.044973 0.07895-0.017342 0.1879899 9.074e-4 0.2800756 0.04683 0.086985 0.043393 0.3025236 0.081945 0.5093849 0.091107 0.1972267 0.00873 0.4474223 0.04777 0.5559897 0.086753 0.1085708 0.038972 0.1973958 0.051837 0.1973958 0.028582s0.07413-0.056192 0.1647262-0.07318c0.090599-0.016999 0.1532557-0.042376 0.1392365-0.056391-0.033534-0.033534 0.1139047-0.1952748 0.1793069-0.1966862 0.027974-6.145e-4 0.1117097-0.08336 0.1860834-0.1839082 0.089836-0.1214548 0.1670693-0.1795423 0.2301095-0.1730743 0.063619 0.00652 0.1162933-0.03391 0.1598465-0.1226861 0.098049-0.1998539 0.4270909-0.5010954 0.5148925-0.4713813 0.04105 0.013893 0.2087811 0.1502029 0.3727436 0.302917 0.1639636 0.1527142 0.3259432 0.2776628 0.3599568 0.2776628 0.034009 0 0.06184 0.031356 0.06184 0.069665 0 0.043349 0.043868 0.069665 0.1161152 0.069665 0.06386 0 0.116114 0.020901 0.116114 0.046443 0 0.025543 0.02816 0.046443 0.06257 0.046443 0.03442 0 0.08525 0.047029 0.112972 0.1045034 0.04013 0.083205 0.05104 0.087935 0.05354 0.023222 0.0039-0.099695 0.06523-0.1046912 0.142482-0.011605 0.0318 0.03832 0.10951 0.069665 0.172688 0.069665 0.06318 0 0.174105 0.042177 0.246505 0.093738 0.08125 0.05785 0.142822 0.075634 0.16086 0.046443 0.04818-0.077966 0.116041-0.053329 0.08389 0.03045-0.02392 0.062315-0.0121 0.070417 0.05952 0.04084 0.04914-0.020293 0.235648-0.055695 0.414465-0.078684 0.491759-0.06321 0.511348-0.06678 0.571725-0.1040943 0.0972-0.060072 0.239774 0.018955 0.268074 0.148576 0.01497 0.068549 0.03924 0.1559813 0.05393 0.1942988 0.0147 0.03832 0.02333 0.085548 0.01919 0.1049675-0.03211 0.15055 0.109344 0.9727851 0.197679 1.1490791 0.0576 0.1149536 0.113437 0.2299073 0.124084 0.2554523 0.01061 0.025543 0.0358 0.040961 0.05589 0.034274 0.02009-0.00674 0.08519 0.040331 0.144664 0.1045034 0.05947 0.064172 0.129305 0.1166789 0.15518 0.1166789 0.02587 0 0.07141 0.029367 0.101198 0.065255 0.02979 0.035888 0.178652 0.102547 0.330809 0.1481273 0.152157 0.045581 0.276649 0.096943 0.276649 0.1141379 0 0.017198 0.05225 0.025532 0.116115 0.018524 0.06386-0.00696 0.116115 0.0063 0.116115 0.02961 0 0.023299 0.03136 0.042354 0.06967 0.042354 0.03832 0 0.06966 0.020901 0.06966 0.046444s0.02879 0.046443 0.06398 0.046443 0.09038 0.03181 0.12265 0.070693c0.04812 0.057982 0.03755 0.122664-0.05889 0.3599556-0.06466 0.1590971-0.143282 0.3571947-0.17473 0.440216-0.03144 0.083017-0.07359 0.1509501-0.09364 0.1509501-0.02006 0-0.02642 0.038408-0.01415 0.085349 0.01228 0.046941-0.02025 0.1611429-0.07229 0.2537823-0.05204 0.092644-0.07528 0.1803768-0.05166 0.194973 0.02447 0.015131 0.02645 0.070771 0.0045 0.1293974-0.0211 0.056568-0.03104 0.1488324-0.02209 0.2050221 9e-3 0.056192-0.0027 0.1138528-0.02578 0.1281407-0.02327 0.014379-0.01061 0.088908 0.02827 0.1669113 0.03867 0.077513 0.07411 0.1668638 0.07876 0.1985563 0.0046 0.031688 0.06268 0.1718663 0.128949 0.3114995 0.169323 0.3567615 0.194558 0.4285475 0.183125 0.5209435-0.0055 0.04471 0.0105 0.08128 0.03562 0.08128 0.0614 0 0.113808 0.25332 0.07664 0.3704155-0.01638 0.05161-0.08119 0.106725-0.144024 0.122501-0.06283 0.01577-0.13533 0.06807-0.161099 0.116223-0.02576 0.04816-0.07491 0.08755-0.109201 0.08755-0.03429 0-0.08725 0.03001-0.11769 0.06668s-0.121825 0.08023-0.203082 0.0968c-0.224025 0.04567-0.570155 0.298503-0.66265 0.484033-0.04532 0.09091-0.07821 0.182238-0.07309 0.202961 0.0051 0.02072-0.01956 0.09387-0.05487 0.162561-0.03529 0.06868-0.0902 0.198036-0.122017 0.287445-0.03181 0.08941-0.08605 0.235713-0.120517 0.325122-0.03447 0.0894-0.06359 0.290631-0.06471 0.447162-0.0019 0.270133-0.06377 0.408256-0.171321 0.382677-0.02185-0.0052-0.118936 7e-3 -0.215751 0.02711-0.11443 0.02376-0.252579 0.0145-0.39479-0.02646-0.362023-0.104283-1.254105-0.04059-1.380011 0.09853-0.04306 0.04758-0.104935 0.0763-0.137499 0.0638-0.03332-0.01279-0.0708 0.02166-0.08576 0.07884-0.01786 0.06829-0.05028 0.09244-0.099 0.07375-0.04536-0.01741-0.07244-0.0023-0.07244 0.04041 0 0.03751-0.01983 0.06822-0.04406 0.06822s-0.100436 0.05225-0.1693427 0.116116c-0.068914 0.06386-0.1513536 0.116115-0.1832075 0.116115-0.031854 0-0.069952 0.03136-0.084653 0.06966-0.0147 0.03832-0.063962 0.07033-0.1094771 0.07115-0.096037 0.0018-0.2452993 0.104625-0.2452993 0.169125 0 0.04627-0.2452518 0.297839-0.2812173 0.288469-0.011373-3e-3 -0.054921-0.01449-0.096766-0.02563zm0.3105357-0.974355c0.062647-0.0676 0.113897-0.140746 0.113897-0.162561 0-0.02182 0.031356-0.03967 0.069665-0.03967 0.03832 0 0.069665-0.02006 0.069665-0.04456 0-0.06177 0.2420642-0.280557 0.3104031-0.280557 0.030749 0 0.083205-0.03786 0.1165894-0.08412 0.094876-0.131504 0.1665394-0.156869 0.2766724-0.09793 0.08375 0.04482 0.111939 0.04059 0.159062-0.02385 0.03655-0.04999 0.06828-0.06051 0.0877-0.0291 0.05064 0.08194 0.23496 0.05551 0.401653-0.05762 0.129495-0.08788 0.209998-0.104945 0.453464-0.09615 0.162809 0.0059 0.350908 0.03137 0.417998 0.05662s0.177166 0.05789 0.244613 0.07253c0.111328 0.02415 0.125981 0.01061 0.15896-0.147174 0.01998-0.09558 0.03794-0.190216 0.03993-0.210307 2e-3 -0.02009 0.03241-0.05434 0.06761-0.07609 0.0352-0.02176 0.04908-0.06371 0.03084-0.09323-0.01825-0.02952-0.01333-0.07888 0.01094-0.109698 0.02426-0.03081 0.04-0.103044 0.03498-0.160526-5e-3 -0.05747 0.0056-0.104504 0.02376-0.104504 0.03383 0 0.109521-0.270706 0.09552-0.341621-0.0043-0.02185 0.01635-0.06888 0.04592-0.104503 0.02957-0.03563 0.0382-0.06478 0.01917-0.06478s-0.0088-0.03108 0.02274-0.06908c0.03153-0.03799 0.04529-0.100447 0.03058-0.13878-0.01536-0.04004-0.0032-0.065 0.02854-0.05865 0.03041 0.0061 0.06246-0.03598 0.07122-0.09345 0.0087-0.05747 0.03539-0.104503 0.05917-0.104503 0.02376 0 0.04322-0.03136 0.04322-0.06967 0-0.03832 0.02811-0.06967 0.06247-0.06967s0.100591-0.04212 0.147173-0.09359c0.04659-0.05147 0.164386-0.106338 0.261776-0.121911 0.09739-0.01557 0.200925-0.05705 0.230081-0.09219 0.02916-0.03512 0.118378-0.064189 0.198271-0.06458 0.0799-3.8e-4 0.172097-0.01774 0.204894-0.03855 0.06006-0.03811 0.0312-0.19297-0.03597-0.19297-0.01983 0-0.04834-0.03657-0.06335-0.08128s-0.04527-0.112631-0.06726-0.15095c-0.150686-0.262675-0.195622-0.3888991-0.14876-0.4178616 0.03602-0.02226 0.03656-0.093517 0.0019-0.2481509-0.03678-0.1641526-0.03443-0.2398106 0.0097-0.3110011 0.03792-0.061188 0.04207-0.1057633 0.01186-0.127494-0.02554-0.018381-0.04484-0.085669-0.04287-0.1495332 2e-3 -0.063862-0.01355-0.1510042-0.03446-0.1936478-0.02312-0.04714-0.01818-0.084155 0.01261-0.094412 0.02785-0.00928 0.06143-0.1207 0.07461-0.2475883 0.01318-0.1268895 0.08758-0.3622149 0.165329-0.5229466 0.08155-0.168577 0.123521-0.307819 0.0992-0.3290567-0.02319-0.020241-0.142689-0.073813-0.26554-0.1190454-0.122852-0.045228-0.262761-0.1245219-0.310911-0.1762044-0.04814-0.051682-0.117666-0.082409-0.154481-0.068284-0.07172 0.027521-0.309831-0.1902403-0.309831-0.2833582 0-0.030539-0.03136-0.055518-0.06967-0.055518-0.0443 0-0.06967-0.044564-0.06967-0.1224009 0-0.068151-0.04746-0.1663886-0.107079-0.221641-0.117761-0.1091344-0.191386-0.2510888-0.176882-0.3410368 0.0052-0.031931-0.01246-0.05806-0.03913-0.05806-0.02666 0-0.04848-0.040309-0.04848-0.089571s-0.02907-0.1186441-0.0646-0.154173c-0.04551-0.045515-0.0513-0.088366-0.01955-0.1450867 0.03044-0.05439 0.02755-0.1015633-9e-3 -0.1454978-0.02968-0.035755-0.04106-0.1056086-0.02532-0.1552352 0.01681-0.052976-7.9e-4 -0.1196412-0.04261-0.1614723-0.03918-0.039182-0.07125-0.095904-0.07125-0.126044 0-0.033246-0.04109-0.044995-0.104503-0.029875-0.368524 0.087891-0.887184 0.1226319-1.04339 0.069875-0.05911-0.019961-0.115398-0.014446-0.132337 0.012954-0.01889 0.030561-0.05703 0.023056-0.106151-0.020867-0.0421-0.0377121-0.17342-0.0828731-0.291749-0.1003695-0.14183-0.020967-0.265464-0.0777668-0.362822-0.1666881-0.0812259-0.0741857-0.1742587-0.1348861-0.2067426-0.1348861-0.032484 0-0.1960153-0.1369529-0.363403-0.3043406l-0.3043418-0.3043418-0.1078191 0.1766145c-0.059309 0.097142-0.1243894 0.1835821-0.1446368 0.1920982-0.020249 0.00851-0.03727 0.039867-0.037822 0.069665-0.00133 0.073733-0.4052762 0.4627956-0.5892529 0.5676128-0.1280776 0.07297-0.1650246 0.076341-0.2628433 0.023995-0.096214-0.051494-0.1296747-0.049803-0.2163312 0.010942-0.079933 0.055993-0.1268984 0.06069-0.2132266 0.021354-0.080519-0.036684-0.142381-0.036021-0.2268303 0.00243-0.063862 0.029102-0.1161142 0.035181-0.1161142 0.013517 0-0.021663-0.1059401-0.041768-0.2354292-0.044686-0.1294858-0.00287-0.255806-0.017894-0.28071-0.033291-0.024902-0.015396-0.073887-0.0042-0.1088581 0.02478-0.048057 0.039878-0.1064486 0.034849-0.239185-0.020613-0.1515657-0.063332-0.1807216-0.064238-0.2129557-0.00663-0.021719 0.038806-0.076275 0.056557-0.1303479 0.04242-0.1069791-0.027974-0.1267237 0.069455-0.034949 0.1723802 0.048621 0.054523 0.046035 0.056093-0.015883 0.00973-0.1047465-0.078496-0.1477172-0.012777-0.069599 0.1064375 0.040044 0.06111 0.050389 0.1253222 0.026438 0.1640819-0.021641 0.035026-0.028173 0.1196035-0.014501 0.1879578 0.013672 0.06835 0.00188 0.1384993-0.026272 0.1558786-0.028118 0.017375-0.05113 0.079557-0.05113 0.1381886 0 0.058624-0.053827 0.1646676-0.1196068 0.2356492-0.098435 0.1062165-0.1948714 0.2741005-0.2271287 0.3954128-0.036739 0.1381731-0.085205 0.2322295-0.1196599 0.2322295-0.023167 0-0.072075 0.057474-0.1086812 0.1277261-0.051207 0.098281-0.1344584 0.1481836-0.3611494 0.2164772-0.1620271 0.048809-0.3416225 0.1172217-0.3990999 0.15202-0.1138086 0.068903-0.1389646 0.2202495-0.046443 0.2794378 0.1015302 0.064957 0.1652778 0.2252928 0.1406965 0.3538866-0.017386 0.090953-0.00475 0.1244933 0.046941 0.1244933 0.046123 0 0.062868 0.030097 0.048112 0.086499-0.015021 0.057441 0.00652 0.094125 0.064183 0.1092007 0.074606 0.019508 0.085172 0.062846 0.075169 0.3082953-0.00652 0.1600067 0.00807 0.2855942 0.033048 0.2855942 0.024581 0 0.044686 0.031346 0.044686 0.069665 0 0.03832-0.019585 0.069665-0.043526 0.069665-0.02394 0-0.031589 0.073567-0.016988 0.1634938 0.021276 0.1311083 0.013064 0.1583267-0.041448 0.1374095-0.0638174-0.0244951-0.2056745 0.2092519-0.2413637 0.397716-0.0215859 0.1140054-0.1338228 0.3231904-0.1733992 0.3231904-0.020547 0-0.060447 0.04314-0.088665 0.09586-0.038861 0.07262-0.036441 0.113762 0.00995 0.169699 0.0337 0.04061 0.050831 0.07918 0.038055 0.08571-0.030218 0.01545 0.2115963 0.2058275 0.262778 0.2068775 0.02152 4.69e-4 0.087283 0.05161 0.1461588 0.113684 0.066117 0.06973 0.1356178 0.101917 0.1817927 0.0842 0.045316-0.01739 0.063034-0.0097 0.045007 0.01945-0.035822 0.05796 0.1307137 0.219663 0.1890808 0.183591 0.022603-0.01397 0.076728 0.01623 0.1202789 0.06709 0.043559 0.05086 0.09953 0.07991 0.1243993 0.06455 0.024869-0.01536 0.045206-0.0059 0.045206 0.02101 0 0.02692 0.1045033 0.155677 0.2322295 0.286121 0.1449263 0.148008 0.2322306 0.278021 0.2322306 0.345838 0 0.05976 0.017916 0.11974 0.039812 0.133272 0.021895 0.01353 0.052478 0.134943 0.067963 0.269805s0.041812 0.292229 0.058502 0.349707c0.02184 0.07522 0.010942 0.104503-0.038939 0.104503-0.04294 0-0.069278 0.04416-0.069278 0.116115 0 0.06386 0.00265 0.117177 0.00586 0.118475 0.098535 0.04006 0.4196215 0.03967 0.4681009-5.56e-4 0.035546-0.0295 0.1968829-0.06211 0.358521-0.07245 0.1616381-0.01039 0.2938881-0.02227 0.2938881-0.02652 0-0.03185 0.2903977-0.01853 0.334393 0.01532 0.030649 0.02359 0.1142485 0.03898 0.1857849 0.03422 0.2558503-0.01706 0.3081903-0.0039 0.2522692 0.06351-0.069389 0.0836-0.01407 0.130991 0.088709 0.07599 0.056557-0.03027 0.1350707-0.02227 0.2491247 0.02539 0.091594 0.03828 0.1823154 0.07243 0.2015969 0.07591 0.1012207 0.01827 0.2268988 0.139591 0.4373909 0.422236 0.1284136 0.17243 0.2429484 0.31351 0.2545228 0.31351 0.011572 0 0.072296-0.05531 0.1349414-0.122897zm0.9034779-1.91142c0-0.0393-0.02797-0.05495-0.06966-0.03895-0.04244 0.01628-0.06967 1.04e-4 -0.06967-0.04148 0-0.09229-0.3683981-0.09231-0.4904166-2e-5 -0.1444512 0.109256-0.2113112 0.09044-0.1598266-0.04497 0.030019-0.07897 0.028262-0.116115-0.00553-0.116115-0.027311 0-0.060204 0.04035-0.073103 0.08968-0.038574 0.147492-0.1415465 0.06035-0.1281528-0.108449 0.010832-0.136886 2.785e-4 -0.151972-0.098933-0.141082-0.1406092 0.01543-0.437455-0.07385-0.437455-0.131589 0-0.024-0.028991-0.0325-0.064415-0.01891-0.043923 0.01686-0.05754-0.0015-0.042818-0.05786 0.024393-0.09327-0.2409865-0.413766-0.2965816-0.358171-0.01911 0.01911-0.00398 0.05609 0.033589 0.08219 0.059707 0.04147 0.059541 0.04512-0.00133 0.02888-0.03832-0.01017-0.096932-0.07451-0.1302605-0.142874-0.033324-0.06836-0.087272-0.124297-0.1198755-0.124297-0.032605 0-0.088941-0.05747-0.1251928-0.1277255-0.036253-0.07025-0.09124-0.154558-0.122212-0.187351-0.0604064-0.063979-0.1520079-0.3544441-0.1524334-0.4833806-1.448e-4 -0.0431939-0.021166-0.0914611-0.0467088-0.1072444-0.0255428-0.0157943-0.0464434-0.0692783-0.0464434-0.1188563 0-0.049582 0.020901-0.090146 0.046443-0.090146 0.025543 0 0.046123-0.036573 0.045736-0.081282-5.261e-4 -0.062238-0.00995-0.066769-0.039978-0.019342-0.043548 0.068692-0.048754 0.012876-0.050986-0.5472228-7.605e-4 -0.1902679 0.019552-0.366879 0.04515-0.3924683 0.025587-0.025587 0.046532-0.086145 0.046532-0.1345755 0-0.048422 0.02971-0.1435238 0.066029-0.2113288 0.2104598-0.392961 0.200278-0.4558774-0.1314357-0.8122288-0.2114692-0.2271762-0.2887475-0.3429599-0.271901-0.4073806 0.017629-0.067422 0.038552-0.077535 0.083393-0.04032 0.067001 0.055606 0.088411 0.031323 0.1314863-0.1491297 0.017474-0.073224 0.072815-0.1377532 0.1341478-0.1564433 0.057419-0.017496 0.1397759-0.062846 0.1830185-0.1007786 0.073622-0.064581 0.072882-0.075136-0.011616-0.1658259-0.049627-0.053274-0.090234-0.15685-0.090234-0.230177 0-0.1600498 0.059209-0.1354984 0.139253 0.057739 0.048256 0.1165077 0.079701 0.1376018 0.1802199 0.120931 0.066968-0.011108 0.1478896-0.021907 0.179822-0.024018 0.031931-0.0021 0.05806-0.044885 0.05806-0.095075s0.047029-0.1157285 0.1045033-0.1456371c0.057474-0.029909 0.1418946-0.09334 0.1875942-0.1409717 0.045703-0.047626 0.097949-0.085879 0.1161153-0.085006 0.01816 8.776e-4 0.1584284 0.1660769 0.3116996 0.3671167 0.3007054 0.3944236 0.3827419 0.4473693 0.5316119 0.343097 0.097573-0.068339 0.281193-0.045836 0.281193 0.034462 0 0.02383 0.020901 0.043316 0.046443 0.043316 0.025543 0 0.046444-0.028914 0.046444-0.064249 0-0.035336 0.047029-0.076849 0.1045033-0.092257 0.1577316-0.042277 0.1738386-0.036352 0.1416156 0.052003-0.02656 0.072826-0.01912 0.072052 0.07141-0.00741 0.114283-0.1003586 0.191794-0.067731 0.10048 0.042288-0.08521 0.1026575-0.01712 0.1460084 0.08465 0.053904 0.109941-0.099496 0.152001-0.097982 0.116061 0.0042-0.02309 0.06562-0.01677 0.070306 0.03286 0.024327 0.03461-0.032064 0.08326-0.040088 0.11134-0.018347 0.08253 0.063874 0.351772 0.1428706 0.351772 0.1032101 0-0.020315-0.04703-0.059607-0.104503-0.087327-0.10184-0.049118-0.102017-0.050478-0.0072-0.053539 0.138355-0.00442 0.390316 0.1306209 0.390316 0.2092653 0 0.036452 0.02742 0.066272 0.06093 0.066272 0.06228 0 0.195401 0.1639017 0.301783 0.3715677 0.03272 0.063862 0.102039 0.1683669 0.15406 0.2322295 0.05201 0.063862 0.01973-0.02688-0.07177-0.2016677-0.09148-0.1747808-0.166339-0.336105-0.166339-0.3584989 0-0.07675 0.160136 0.020768 0.333692 0.2032117 0.108382 0.1139324 0.199898 0.1724056 0.24359 0.1556387 0.0385-0.014766 0.08234-0.00685 0.09744 0.017563 0.0151 0.024426 6e-3 0.044421-0.02028 0.044421-0.02625 0-0.03503 0.033103-0.0195 0.073567 0.01696 0.044189 0.04004 0.054446 0.05783 0.025675 0.01882-0.030461 0.0545-0.032141 0.09804-0.00464 0.04627 0.029257 0.04963 0.043515 0.01039 0.04399-0.03193 4.09e-4 -0.05806 0.033468-0.05806 0.073512 0 0.05166 0.02697 0.064238 0.0929 0.043315 0.08594-0.027278 0.0932-0.00752 0.09702 0.2639342 0.0023 0.1613805 4.67e-4 0.3979206-4e-3 0.5256479-0.0044 0.1277261 0.0063 0.2178433 0.02397 0.2002617 0.01765-0.017585 0.03513-0.1220859 0.03883-0.2322295 0.0055-0.1629832 0.02187-0.1977218 0.08802-0.186615 0.04471 0.00752 0.0816-0.013396 0.08199-0.046443 5.26e-4 -0.043371 0.01276-0.041039 0.04399 0.0084 0.02795 0.0442 0.02531 0.079557-0.0075 0.099817-0.02792 0.017253-0.03741 0.066161-0.0211 0.1086702 0.01631 0.04252 0.05071 0.064294 0.07644 0.048389 0.02723-0.016833 0.04678 0.02656 0.04678 0.1038843 0 0.073036 0.02508 0.1578713 0.05574 0.1885249 0.04335 0.043349 0.03961 0.055739-0.01683 0.055739-0.05147 0-0.06853 0.036861-0.05866 0.1267524 0.0076 0.06971 0.0309 0.1324015 0.05167 0.1393072 0.05897 0.019607 0.03496 0.3428538-0.02836 0.3819915-0.03115 0.019243-0.06444 0.1059954-0.074 0.1927658-0.03321 0.3015123-0.08958 0.4346211-0.164453 0.3883467-0.02349-0.014512-0.02945 0.00818-0.01324 0.050378 0.0162 0.042221 0.0072 0.090544-0.02007 0.107377-0.02725 0.01683-0.06423 0.08916-0.08219 0.160717-0.02694 0.107311-0.01584 0.134502 0.0633 0.155198 0.09309 0.02434 0.09236 0.02842-0.02425 0.136493-0.06612 0.061269-0.139796 0.1114015-0.163739 0.1114015-0.02394 0-0.03545 0.02425-0.02557 0.0539 0.0098 0.02964-0.02888 0.104459-0.08615 0.166245-0.06093 0.06574-0.0924 0.142874-0.07588 0.185948 0.01817 0.04736 0.0096 0.06211-0.02396 0.04134-0.09178-0.05672-0.288704 0.02069-0.288704 0.113493 0 0.05378-0.02386 0.07725-0.0632 0.06215-0.03946-0.01514-0.09261 0.03774-0.141516 0.140794-0.05031 0.106029-0.110758 0.165047-0.169033 0.165047-0.139201 0-0.156088 0.0043-0.218439 0.05608-0.04163 0.03455-0.05825 0.03015-0.05875-0.01556-3.8e-4 -0.03506-0.0265-0.01283-0.05806 0.04938-0.04046 0.07979-0.125813 0.130855-0.289603 0.173276-0.293248 0.07595-0.410575 0.07861-0.367133 0.0083 0.02124-0.03437 0.01266-0.04096-0.02392-0.01836-0.106824 0.06602-0.328859 0.05818-0.328859-0.0116zm-0.3483448-0.473764c0.015794-0.02554 0.00652-0.04644-0.020481-0.04644-0.027057 0-0.049185 0.0209-0.049185 0.04644s0.00917 0.04644 0.020481 0.04644c0.011263 0 0.033401-0.0209 0.049185-0.04644zm-0.7810758-0.101597c-0.014833-0.03705-0.02583-0.02605-0.028063 0.02806-0.00199 0.04896 0.00895 0.0764 0.024393 0.06096 0.015429-0.01543 0.017087-0.0555 0.00365-0.08902zm1.0703016-0.08418c0.07949-0.06254 0.09495-0.0929 0.04731-0.0929-0.08925 0-0.3143423 0.182092-0.2277411 0.184238 0.034286 8.49e-4 0.1154851-0.04025 0.1804361-0.09135zm0.291825-0.209579c0.04434-0.05343 0.0735-0.05763 0.121802-0.01754 0.03874 0.03215 0.06351 0.03445 0.06351 0.0059 0-0.02573-0.05152-0.08054-0.114482-0.121802-0.13392-0.08775-0.206889-0.09913-0.127672-0.01991 0.04251 0.0425 0.03768 0.07436-0.02113 0.139338-0.04192 0.04633-0.05466 0.08423-0.02827 0.08423 0.02638 0 0.07419-0.03161 0.10625-0.07024zm0.674511-0.3734885c0.08743 7e-3 0.189626 0.038059 0.227111 0.06918 0.03749 0.03111 0.116331 0.04974 0.175214 0.04138 0.103652-0.01469 0.106703-0.0284 0.09589-0.4304275-0.0062-0.2283871-0.0316-0.4356785-0.05657-0.4606455-0.02957-0.029566-0.108538-0.026482-0.226447 0.00884-0.248364 0.074407-0.28155 0.068991-0.252715-0.041271 0.01587-0.06069 0.05005-0.085902 0.09372-0.069146 0.04695 0.018016 0.06036 0.00453 0.04229-0.042553-0.01506-0.039248 0.01356-0.096943 0.06645-0.1339952 0.0511-0.035789 0.08732-0.083393 0.08048-0.1057744-0.0069-0.022382 0.04454-0.1012317 0.114158-0.1752108 0.06962-0.073976 0.126579-0.1819994 0.126579-0.2400438 0-0.058038 0.01061-0.1333686 0.02348-0.1673899 0.01291-0.03402-0.02844-0.1220583-0.09189-0.1956395-0.06345-0.073578-0.104128-0.1519592-0.0904-0.1741729 0.01373-0.022216 0.01061-0.06352-0.0069-0.091793-0.02304-0.037292-0.04076-0.036861-0.06451 0.00155-0.0457 0.073954-0.18767 0.01039-0.156752-0.070129 0.01574-0.041028-0.0048-0.06583-0.05435-0.06583-0.05168 0-0.07023 0.024437-0.05288 0.069665 0.01833 0.047748-0.0028 0.069665-0.06701 0.069665-0.153916 0-0.361491 0.1317438-0.436685 0.2771554-0.09089 0.1757425-0.08902 0.2125137 0.02237 0.4426211 0.06562 0.1355592 0.140484 0.2104523 0.255453 0.2555628 0.08945 0.035092 0.162627 0.079104 0.162627 0.097783 0 0.01869 0.01242 0.072263 0.0276 0.1190575 0.02341 0.072163 0.01943 0.074506-0.02627 0.015407-0.0438-0.056645-0.04804-0.049052-0.02262 0.040652 0.02325 0.082111 0.01625 0.1010549-0.02736 0.074108-0.03824-0.023631-0.047-0.017441-0.0252 0.017828 0.01837 0.029721 0.01971 0.097164 3e-3 0.1498868-0.02627 0.082785-0.05675 0.092246-0.223616 0.069411-0.123645-0.016922-0.160221-0.012434-0.101597 0.012467 0.08145 0.034595 0.0763 0.041834-0.04644 0.06541-0.13948 0.026781-0.233678-0.00685-0.126428-0.045183 0.03193-0.011406 0.05806-0.043139 0.05806-0.070505 0-0.027378-0.04134-0.012357-0.09187 0.033368-0.05053 0.0457245-0.149807 0.0920465-0.220618 0.1029334-0.2402291 0.036938-0.4998593 0.065819-0.6280409 0.069854-0.070251 0.0022-0.1277261 0.02193-0.1277261 0.0438 0 0.02188-0.1463058 0.03978-0.325122 0.03978-0.2580342 0-0.3251219 0.01438-0.3251219 0.06967 0 0.03832 0.036573 0.07186 0.081282 0.07455 0.044708 0.0027 0.2066845 0.0094 0.3599557 0.01483 0.4138376 0.01478 0.4715438 0.04425 0.4790795 0.244681 0.00354 0.0935 0.028859 0.192437 0.056325 0.219868 0.035601 0.03557 0.040884-0.0067 0.018392-0.14752l-0.031533-0.197396 0.1568855-0.0055c0.086288-3e-3 0.1777872-5.56e-4 0.2033322 0.0055 0.02554 0.0061 0.1823 0.01959 0.348345 0.03005 0.403492 0.02545 0.41681 0.03281 0.425821 0.235534l0.0078 0.17563 0.01797-0.170114c0.01714-0.162214 0.02536-0.169528 0.176934-0.157501zm-0.02475 0.2579455c0-0.02554-0.0209-0.04644-0.04644-0.04644s-0.04644 0.0209-0.04644 0.04644 0.0209 0.04644 0.04644 0.04644 0.04644-0.0209 0.04644-0.04644zm-1.7184999-0.04644c0-0.02554-0.00917-0.04644-0.020481-0.04644-0.011263 0-0.033401 0.0209-0.049184 0.04644-0.015794 0.02554-0.00652 0.04644 0.020481 0.04644 0.027057 0 0.049184-0.0209 0.049184-0.04644zm0.2116681-0.112317c0.049549-0.03623 0.079358-0.0766 0.066239-0.08971-0.01312-0.01311-0.075788 0.01606-0.1392652 0.06484-0.1322113 0.101585-0.063763 0.124899 0.073025 0.02488zm2.2964138-0.05521c0-0.01006-0.04304-0.01826-0.09564-0.01826s-0.08328 0.01998-0.06818 0.04442c0.02478 0.0401 0.163814 0.01789 0.163814-0.02616zm-3.6818107 1.45e-4c-0.01543-0.01543-0.055496-0.01709-0.089018-0.0036-0.037049 0.01483-0.026051 0.02583 0.028063 0.02806 0.048963 2e-3 0.076396-9e-3 0.060956-0.02439zm-0.033866-0.08533c0-0.01126-0.020901-0.0334-0.046443-0.04918-0.025543-0.0158-0.046444-0.0065-0.046444 0.02048 0 0.02706 0.020901 0.04918 0.046444 0.04918s0.046443-0.0092 0.046443-0.02048zm4.1801367-0.0011c0-0.01187-0.04133-0.0437-0.09185-0.07075-0.07494-0.0401-0.08685-0.03613-0.0647 0.02159 0.02406 0.06269 0.156546 0.1042925 0.156546 0.04915zm-4.2455453-0.2915365c-0.015109-0.01511-0.027941 0.0021-0.028516 0.03832-6.443e-4 0.04087-0.036894 0.02181-0.095683-0.05031l-0.094655-0.116115 0.077778 0.158911c0.067908 0.138752 0.083536 0.148621 0.123168 0.0778 0.024968-0.04461 0.033026-0.09348 0.017917-0.108593zm4.1062103 0.106858c0-0.01126-0.0209-0.0334-0.04644-0.04918s-0.04644-0.0065-0.04644 0.02048c0 0.02706 0.0209 0.04918 0.04644 0.04918s0.04644-0.0092 0.04644-0.02048zm0.371569-0.5580394c0 0.02016 0.0105 0.026151 0.02333 0.013319s-0.0411-0.1364976-0.11988-0.2748056c-0.07877-0.1383081-0.133029-0.204443-0.120577-0.1469656 0.01246 0.057474 0.0041 0.1045033-0.01846 0.1045033-0.0226 0-0.01692 0.053064 0.01262 0.1179091 0.03066 0.067289 0.08008 0.1077971 0.115118 0.094346 0.03377-0.012954 0.0614-0.00332 0.0614 0.021431 0 0.024747-0.0209 0.044984-0.04644 0.044984s-0.04644 0.023465-0.04644 0.052136c0 0.036021 0.02153 0.034263 0.06967-0.00564 0.03832-0.031799 0.06967-0.041326 0.06967-0.021166zm-0.154821-0.1491309c-0.01703-0.017032-0.03033-0.064061-0.02956-0.1045033 0.0012-0.060392 0.01028-0.058391 0.0507 0.011219 0.05001 0.086001 0.03551 0.1499443-0.02116 0.093285zm-4.607477-0.1022154c-0.00951-0.00951-0.048566 0.014136-0.086885 0.052456-0.03832 0.03832-0.057054 0.082287-0.041636 0.097695 0.015419 0.015419 0.054512-0.00818 0.086885-0.052456 0.032373-0.044266 0.051108-0.088234 0.041636-0.097695zm4.762899-0.1206889c-0.02395-0.062989-0.08613-0.1980136-0.138189-0.3000478-0.115009-0.2254376-0.115512-0.2344732-0.01336-0.2402924 0.05201-0.00298 0.03948-0.016668-0.03484-0.038077-0.114182-0.032893-0.223486 0.037148-0.139237 0.089217 0.0229 0.014159 0.07986 0.1087586 0.126558 0.2102324 0.111618 0.2425107 0.196866 0.3935028 0.22217 0.3935028 0.01124 0 8.49e-4 -0.051539-0.0231-0.1145337zm-4.5290835 0.021641c0.015794-0.025543 0.00652-0.046443-0.020481-0.046443-0.027057 0-0.049185 0.020901-0.049185 0.046443 0 0.025543 0.00917 0.046444 0.020481 0.046444 0.011263 0 0.033401-0.020901 0.049185-0.046444zm1.495903-0.092611c0.063299-1.735e-4 0.1521504-0.065432 0.2322295-0.1705631 0.071334-0.09365 0.1715081-0.2147806 0.2225982-0.2691754 0.051086-0.05439 0.1007788-0.1188486 0.1104168-0.1432331 0.0096-0.024382 0.02751-0.070339 0.0397-0.102127 0.0122-0.031788 0.04088-0.046222 0.06375-0.032097 0.02287 0.014136 0.04158-0.00685 0.04158-0.046709 0-0.039823 0.02214-0.072406 0.04918-0.072406 0.02706 0 0.03618-0.021044 0.02028-0.046775-0.02937-0.047516 0.06169-0.098933 0.201685-0.1138783 0.04245-0.00453 0.136031-0.032937 0.207943-0.063133 0.07191-0.030196 0.146349-0.054888 0.165415-0.054888 0.01907 0 0.07648-0.038961 0.127589-0.086576 0.05111-0.047615 0.170726-0.1234919 0.265816-0.1686156 0.23297-0.1105514 0.287445-0.2188127 0.165588-0.3290899-0.07949-0.071942-0.108626-0.075932-0.188813-0.025852-0.05215 0.032572-0.105453 0.048577-0.11846 0.035568-0.01301-0.013009-0.06845 0.018955-0.123204 0.071014-0.05476 0.052058-0.211435 0.1668705-0.348171 0.2551307-0.195471 0.1261711-0.243408 0.1803647-0.224272 0.2535414 0.01544 0.059032 0.0044 0.085902-0.03006 0.073467-0.02992-0.010832-0.08576-0.00354-0.124071 0.015982-0.03832 0.019563-0.17675 0.049162-0.3076276 0.065775-0.1912825 0.024272-0.2433805 0.016071-0.2656064-0.041857-0.015208-0.039624-0.00917-0.072053 0.013473-0.072053 0.022614 0 0.048488 0.022094 0.057485 0.049107 0.029643 0.088941 0.177156-0.010279 0.177156-0.1191979 0-0.073147-0.040088-0.122381-0.1277261-0.1568732-0.0702446-0.027653-0.2740245-0.1437583-0.4528418-0.2580223-0.1788173-0.1142629-0.3512472-0.2086397-0.3831785-0.2097251-0.031931-0.00108-0.05838-0.028096-0.058767-0.060027-4.963e-4 -0.040453-0.013462-0.037911-0.042763 0.0084-0.031113 0.049151-0.050434 0.021818-0.074219-0.1050117-0.017695-0.094313-0.052931-0.1843061-0.07832-0.1999921-0.029389-0.01816-0.034109 0.026283-0.012998 0.1223822 0.018226 0.082995 0.037413 0.1744393 0.042641 0.2032062 0.00519 0.02877 0.026129 0.1019391 0.046466 0.1626052 0.025344 0.075623 0.017154 0.1228552-0.026062 0.1502372-0.047449 0.030063-0.040077 0.040287 0.029864 0.041359 0.077048 0.00122 0.081016 0.00906 0.023222 0.046443-0.046444 0.030019-0.050312 0.045261-0.011605 0.045736 0.031931 3.802e-4 0.05806 0.032351 0.05806 0.071014 0 0.038662 0.026129 0.1130902 0.05806 0.1653894 0.04882 0.079955 0.045117 0.1047022-0.023222 0.1554397-0.044708 0.033191-0.081281 0.084166-0.081281 0.1132858 0 0.029113-0.026129 0.047714-0.05806 0.041326-0.031931-0.00641-0.051837 0.017519-0.044222 0.053108 0.00763 0.035601-0.00785 0.1267557-0.03423 0.2025762-0.041746 0.1197439-0.038983 0.1303258 0.021 0.080541 0.042089-0.034927 0.069057-0.03843 0.069057-0.00895 0 0.026582 0.014004 0.084818 0.031113 0.1294205 0.019674 0.051285 0.013075 0.069941-0.017961 0.050754-0.026991-0.016679-0.073357-0.00108-0.1030444 0.034695-0.062989 0.075899-0.036905 0.096545 0.1812522 0.1434066 0.2127701 0.045703 0.3227976 0.1181037 0.2939036 0.1933969-0.018182 0.047372 0.00641 0.04557 0.1091344-0.00796 0.072937-0.038043 0.1787477-0.069289 0.2351352-0.069444zm0.3338602-0.6173505c-0.0409834-0.0312128-0.090179-0.1089244-0.1093112-0.1726952-0.033766-0.1125497-0.03265-0.1132228 0.038209-0.023045 0.040862 0.051992 0.073644 0.067333 0.074473 0.034838 0.00166-0.062757 0.2801533-0.083547 0.2801533-0.020901 0 0.069577-0.1040063 0.1414459-0.1687476 0.1166027-0.044377-0.017032-0.055562-0.00133-0.035822 0.05008 0.033976 0.088543 0.020746 0.091074-0.07896 0.015131zm-0.421213-0.3463696c-0.0427409-0.0095054-0.1123442-0.0702068-0.1546605-0.1347955-0.0423209-0.064581-0.088698-0.1056639-0.1030665-0.0912954-0.014368 0.014369-0.00122 0.056126 0.02919 0.092788 0.030428 0.036662 0.037634 0.07759 0.016015 0.090953-0.064625 0.039945-0.1346341-0.03087-0.1689196-0.1708638-0.024736-0.1010106-0.018303-0.1230099 0.027654-0.0946 0.032937 0.020359 0.11312 0.031434 0.1781785 0.024603 0.072097-0.00752 0.1516154 0.024426 0.2036295 0.081901 0.046941 0.05187 0.1034533 0.083116 0.125583 0.069433 0.022127-0.013672 0.040243 0.00553 0.040243 0.042575 0 0.077303-0.080862 0.1145613-0.1938357 0.089306zm-1.3388816 0.8445781c0-0.036805-0.020901-0.066924-0.046444-0.066924s-0.046443 0.043039-0.046443 0.095639 0.020901 0.082718 0.046443 0.066924c0.025543-0.015794 0.046444-0.058822 0.046444-0.095639zm0.023222-0.1598199c0.015783-0.025543 0.00652-0.046444-0.020481-0.046444-0.027057 0-0.049185 0.020901-0.049185 0.046444s0.00917 0.046443 0.020481 0.046443c0.011263 0 0.033401-0.020901 0.049185-0.046443zm-0.1625613-0.1857828c0-0.025543-0.00917-0.046443-0.020481-0.046443-0.011263 0-0.033401 0.020901-0.049184 0.046443-0.015794 0.025543-0.00652 0.046443 0.020481 0.046443 0.027057 0 0.049184-0.020901 0.049184-0.046443zm0.2322295 0c0-0.025543-0.020901-0.046443-0.046444-0.046443s-0.046443 0.020901-0.046443 0.046443c0 0.025543 0.020901 0.046443 0.046443 0.046443 0.025543 0 0.046444-0.020901 0.046444-0.046443zm4.3891437-0.046443c0.0158-0.025543 0.0065-0.046443-0.02048-0.046443-0.02706 0-0.04919 0.020901-0.04919 0.046443 0 0.025543 0.0092 0.046443 0.02048 0.046443 0.01126 0 0.0334-0.020901 0.04918-0.046443zm-0.348345-0.1393386c0-0.025543-0.0209-0.046443-0.04644-0.046443s-0.04644 0.020901-0.04644 0.046443c0 0.025543 0.0209 0.046444 0.04644 0.046444s0.04644-0.020901 0.04644-0.046444zm-0.09502-0.1897617c-0.02852-0.053274-0.06109-0.087626-0.0724-0.076319-0.03251 0.032506 0.03339 0.1731871 0.08113 0.1731871 0.02373 0 0.01981-0.043559-0.0087-0.096866zm-4.1780071-0.1640641c0-0.03832-0.020901-0.056756-0.046444-0.040961-0.025543 0.015794-0.046443 0.06006-0.046443 0.09838s0.020901 0.056756 0.046443 0.040961c0.025543-0.015794 0.046444-0.06006 0.046444-0.098369zm4.0872451-0.01774c0-0.025543-0.02214-0.046444-0.04918-0.046444-0.02706 0-0.03627 0.020901-0.02048 0.046444s0.03792 0.046444 0.04918 0.046444 0.02048-0.020901 0.02048-0.046444zm-0.743135-0.1857834c0.06004-0.038806 0.05881-0.045117-0.0088-0.045736-0.04319-3.802e-4 -0.09146 0.020193-0.107244 0.045736-0.03633 0.058778 0.02516 0.058778 0.116114 0zm0.763894-0.2951802c-0.01695-0.067554-0.04946-0.1228331-0.07224-0.1228331s-0.04141-0.031357-0.04141-0.069665c0-0.03832-0.0226-0.069665-0.05024-0.069665-0.02763 0-0.0046 0.073677 0.05096 0.1637403 0.05968 0.096567 0.08869 0.1965989 0.07071 0.2438403-0.02236 0.058723-0.01668 0.066394 0.02128 0.028759 0.02964-0.0294 0.0386-0.1038402 0.02093-0.1741719zm-4.5260174-0.773077c0-0.025543-0.022139-0.046444-0.049184-0.046444-0.027057 0-0.036264 0.020901-0.020481 0.046444 0.015794 0.025543 0.037922 0.046443 0.049184 0.046443 0.011263 0 0.020481-0.020901 0.020481-0.046443zm1.5712559-0.4472809c0.0084-0.00497-0.059497-0.088433-0.150949-0.1853804-0.09145-0.096954-0.1669224-0.1980446-0.1677259-0.224654-0.0021-0.07098-0.2238648-0.2206915-0.277634-0.1874605-0.082531 0.051008-0.049638 0.1227624 0.1938047 0.4228069 0.2030217 0.2502277 0.2511429 0.28702 0.3135111 0.2396978 0.040519-0.030749 0.080574-0.060005 0.088996-0.065012zm0.6581499-0.037657c0-0.011263-0.020901-0.033401-0.046443-0.049184-0.025543-0.015794-0.046443-0.00652-0.046443 0.020481 0 0.027057 0.020901 0.049185 0.046443 0.049185 0.025543 0 0.046443-0.00917 0.046443-0.020482zm-3.7914227 4.1337017c-0.1075981-0.04683-0.1779232-0.1339165-0.2704266-0.3349135-0.0687589-0.1494-0.1698977-0.3593483-0.224759-0.4665529-0.1009885-0.1973439-0.0875816-0.3104341 0.0229786-0.1937905 0.078883 0.083227 0.269276 0.4886654 0.269276 0.5734274 0 0.03636 0.026471 0.08283 0.058834 0.103255 0.032362 0.02042 0.1159628 0.106669 0.1857838 0.1916555 0.06982 0.08498 0.1269459 0.132008 0.1269459 0.104503 0-0.02751 0.048311-0.05001 0.1073549-0.05001 0.059044 0 0.1502671-0.03998 0.2027122-0.08884 0.1064486-0.09916 0.2967728-0.392394 0.3120841-0.480808 0.00542-0.03156 0.047339-0.1280667 0.093053-0.214468 0.046421-0.087748 0.074484-0.2158936 0.063564-0.2902883-0.010721-0.073257-0.00696-0.1331928 0.00851-0.1331928 0.064415 0-0.058778-1.160607-0.1355714-1.277265-0.0168222-0.0255473-0.0363855-0.1285143-0.0434814-0.2288154-0.0070737-0.1003033-0.0332465-0.2358482-0.058093-0.3012161-0.0614751-0.1616999-0.0545893-0.8101179 0.0118927-1.1201375 0.0605689-0.2824077 0.1330094-0.4114237 0.3568797-0.6355648 0.153196-0.1533828 0.3882451-0.2082628 0.4517683-0.105476 0.016049 0.025963 0.044443 0.037767 0.063111 0.026228s0.059198 0.019475 0.09008 0.068914c0.033899 0.05428 0.037579 0.089892 0.00928 0.089892-0.025764 0-0.046841-0.024382-0.046841-0.054191 0-0.029798-0.011859-0.042332-0.02635-0.027831-0.014497 0.0145-0.097393 0.00674-0.1842172-0.017232-0.1393116-0.0384633-0.1751953-0.0283722-0.3053244 0.0858907-0.2051956 0.1801756-0.3665817 0.5627617-0.3742291 0.8871663-0.0084 0.3567117 0.049616 0.9059041 0.1281329 1.2128123 0.035457 0.1385987 0.05439 0.2620806 0.042067 0.2744022-0.012324 0.012324 4.974e-4 0.050002 0.028505 0.083746 0.027997 0.033733 0.061586 0.3178195 0.07465 0.6312941 0.020702 0.4970291 0.011241 0.6066896-0.073954 0.8570534-0.1208337 0.3551124-0.3437955 0.6922654-0.5348404 0.8087609-0.1697829 0.10353-0.2336752 0.106747-0.4293391 0.0216zm5.4634773-3.9738814c-0.04186-0.027057-0.04759-0.045305-0.01436-0.045736 0.03043-4.1e-4 0.06823 0.020193 0.08402 0.045736 0.03563 0.057662 0.01955 0.057662-0.06966 0zm-5.9218607-1.0218104c0.015794-0.025543 0.00652-0.046444-0.020481-0.046444-0.027057 0-0.049185 0.020901-0.049185 0.046444s0.00917 0.046443 0.020481 0.046443c0.011263 0 0.033401-0.020901 0.049185-0.046443z"/>
    </g>
</svg>
