<svg id="svg326" version="1.1" viewBox="0 0 64 64" xmlns="http://www.w3.org/2000/svg">
  <defs id="defs296">
    <style id="style284" type="text/css"/>
    <style id="style286" type="text/css"/>
    <filter id="filter1057" x="-.026999999" y="-.026999999" width="1.054" height="1.054" color-interpolation-filters="sRGB">
      <feGaussianBlur id="feGaussianBlur288" stdDeviation="0.61875"/>
    </filter>
    <linearGradient id="linearGradient1053" x1="-127" x2="-72" y1="60" y2="5" gradientTransform="translate(131.5 -.51)" gradientUnits="userSpaceOnUse">
      <stop id="stop293" stop-color="#1b9ab1" offset="0"/>
      <stop id="stop291" stop-color="#17889c" offset="1"/>
    </linearGradient>
  </defs>
  <circle id="circle298" cx="-1248.7" cy="-1241.6" r="0" fill="#5e4aa6"/>
  <circle id="circle300" cx="-149.15" cy="23.855" r="0" fill="#5e4aa6" fill-rule="evenodd"/>
  <rect id="rect302" x="4.5" y="4.5" width="55" height="55" ry="15" fill="#141414" filter="url(#filter1057)" opacity=".3" stroke-linecap="round" stroke-width="2.7444"/>
  <rect id="rect304" x="4.5" y="4.5" width="55" height="55" ry="15" fill="url(#linearGradient1053)" stroke-linecap="round" stroke-width="2.7444"/>
  <path id="path471" d="m46.925961 20.445064v-0.0223c-0.0223-0.319179-0.04451-0.690319-0.06681-1.083723-0.04451-0.74228-0.0965-1.543937-0.141033-2.152607-0.07424-0.423093-0.178146-0.801657-0.296907-1.1431-0.757119-1.677544-2.234255-2.486624-3.793032-2.872612-0.712583-0.126185-1.581049-0.148458-2.508899-0.170722h-8.951855c-5.767486 0.311755-8.187311 3.651999-8.84051 5.426042-2.523739 7.548952-4.097364 17.332161-5.233048 24.391204-0.0223 0.141034-0.04451 0.274643-0.06681 0.408252l-0.37114 3.355092c-0.0223 0.527014 0.02973 1.105996 0.17073 1.662698 0.70516 2.048686 2.842918 3.770768 7.548953 2.05611 4.446231-1.929917 9.694127-4.334894 15.120169-7.029363 3.087873-1.781459 7.615761-5.878831 7.853284-11.052494-0.03708-3.830145-0.163298-7.853284-0.423093-11.77251zm-7.148124 2.835502c0 0.445365-0.363716 0.809081-0.809081 0.809081-2.694469 0-4.86934 2.182287-4.86934 4.869332v2.983951c0 5.010366-4.060251 9.063193-9.063192 9.063193-0.437941 0-0.786817-0.356292-0.786817-0.786808v-2.471779c0-0.445372 0.363716-0.809088 0.809081-0.809088 2.694469 0 4.86934-2.182288 4.86934-4.869332v-2.983952c0-5.002941 4.060251-9.063193 9.063192-9.063193 0.437949 0 0.786817 0.356292 0.786817 0.786809z" fill="#fff" stroke-width=".999999"/>
</svg>
