<svg id="svg290" version="1.1" viewBox="0 0 64 64" xmlns="http://www.w3.org/2000/svg">
    <defs id="defs278">
        <style id="style266" type="text/css"/>
        <style id="style268" type="text/css"/>
        <filter id="filter1057" x="-.026999999" y="-.026999999" width="1.054" height="1.054" color-interpolation-filters="sRGB">
            <feGaussianBlur id="feGaussianBlur270" stdDeviation="0.61875"/>
        </filter>
    </defs>
    <rect id="rect280" x="4.5" y="4.5" width="55" height="55" ry="15" fill="#141414" filter="url(#filter1057)" opacity=".3" stroke-linecap="round" stroke-width="2.7444"/>
    <circle id="circle284" cx="-1326.3" cy="-1241.6" r="0" fill="#5e4aa6"/>
    <circle id="circle286" cx="-226.72" cy="23.855" r="0" fill="#5e4aa6" fill-rule="evenodd"/>
    <g id="g1674" stroke-width="6.87585">
        <path id="path437" d="m19.5 4.5c-8.309992 0-15 6.690008-15 15v25c0 0.179684 0.00747 0.357038 0.013672 0.535156h54.972656c0.006205-0.178118 0.013672-0.355472 0.013672-0.535156v-25c0-8.309992-6.690008-15-15-15z" fill="#f64942"/>
        <path id="path439" d="m58.867188 15.181641c-4.243883 4.282097-6.874855 10.726464-30.228516 14.541015-10.414517 2.546593-14.266707 12.024174-10.273438 19.851563l4.962891 0.951172 5.970703 3.015625c6.972846 2.248867 7.365154 2.862278 14.082031 0.08984 7.366861-3.04092 11.264697-3.038792 14.59375-2.552734 0.967514-1.986246 1.525391-4.212259 1.525391-6.578122v-25c0-1.503156-0.225032-2.951221-0.632812-4.318359z" fill="#f4ce45"/>
        <path id="path441" d="m19.5 4.5c-8.309992 0-15 6.690008-15 15v11.181641c0.6110135-1.14552 1.3060063-2.387264 2.1523438-3.857422 5.9274552-10.296734 19.048073-10.124183 23.61914-10.347657 8.614653-0.421124 17.864188-2.714599 24.330078-8.0624995-2.663049-2.4266048-6.198257-3.9140625-10.101562-3.9140625z" fill="#5b95bf"/>
        <path id="path443" d="m59.5 38.896484c-1.295711 0.526708-2.700885 1.116497-4.394531 1.751954-11.112176 4.169454-23.223056-0.851147-29.648438-0.832032-6.90676 0.020535-14.115828 1.787897-20.957031 4.101563v0.582031c0 8.309992 6.690008 15 15 15h25c8.309992 0 15-6.690008 15-15z" fill="#ef90a4"/>
    </g>
    <g id="g491" transform="matrix(.18789458 0 0 .18789458 28.563694 80.893815)" clip-rule="evenodd" fill-rule="evenodd" stroke-width="37.1767">
        <path id="path445" d="m19.49428-361.69305c5.142 0 9.553 3.0988 11.489 7.5282 0.193 0.442 0.623 0.6844 1.054 0.6844 0.308 0 0.617-0.125 0.84-0.3902 2.358-2.8168 5.877-4.5026 9.613-4.5026 1.072 0 2.164 0.1402 3.249 0.4298 4.976 1.3338 8.437 5.4796 9.154 10.2704 0.085 0.573 0.596 0.945 1.124 0.945 0.215 0 0.435-0.0624 0.63-0.1982 2.12-1.486 4.65-2.2802 7.224-2.2802 2.123 0 4.275 0.541 6.248 1.6798 4.462 2.5758 6.732 7.4764 6.184 12.2884-0.078 0.6798 0.49 1.2422 1.126 1.2422 0.124 0 0.25-0.0212 0.376-0.067 1.39-0.506 2.852-0.7606 4.312-0.7606 3.206 0 6.41 1.221 8.856 3.6688 3.642 3.643 4.568 8.9642 2.794 13.4698-0.288 0.7302 0.282 1.5288 1.046 1.5288 0.034 0 0.066-1e-3 0.098-5e-3 0.368-0.032 0.734-0.0488 1.1-0.0488 4.334 0 8.546 2.2422 10.868 6.2666 2.576 4.461 2.092 9.84-0.788 13.733-0.486 0.657-0.092 1.628 0.712 1.77 4.656 0.818 8.646 4.236 9.952 9.103 1.334 4.976-0.526 10.047-4.316 13.062-0.64 0.508-0.512 1.548 0.23 1.894 4.284 1.995 7.256 6.33 7.256 11.367 0 5.145-3.098 9.554-7.526 11.49-0.76 0.332-0.93 1.363-0.296 1.895 3.626 3.036 5.376 7.994 4.072 12.863-1.334 4.977-5.478 8.438-10.27 9.155-0.806 0.12-1.214 1.085-0.746 1.754 2.712 3.87 3.12 9.11 0.6 13.475-2.322 4.022-6.534 6.264-10.866 6.264-0.472 0-0.948-0.028-1.42-0.08-0.042-6e-3 -0.084-8e-3 -0.124-8e-3 -0.752 0-1.318 0.78-1.052 1.508 1.618 4.442 0.656 9.608-2.908 13.17-2.446 2.448-5.65 3.67-8.854 3.67-1.568 0-3.134-0.294-4.614-0.876-0.132-0.052-0.266-0.076-0.396-0.076-0.626 0-1.188 0.548-1.128 1.222 0.414 4.708-1.854 9.45-6.217 11.97-1.972 1.138-4.124 1.678-6.247 1.678-2.68 0-5.314-0.86-7.485-2.468-0.199-0.146-0.424-0.212-0.647-0.212-0.518 0-1.024 0.362-1.123 0.924-0.818 4.656-4.235 8.65-9.102 9.952-1.086 0.292-2.176 0.43-3.249 0.43-3.842 0-7.455-1.782-9.812-4.746-0.221-0.278-0.543-0.41-0.865-0.41-0.417 0-0.833 0.222-1.027 0.64-1.996 4.284-6.331 7.258-11.368 7.258-5.144 0-9.553-3.098-11.489-7.528-0.193-0.442-0.623-0.684-1.054-0.684-0.308 0-0.618 0.124-0.84 0.388-2.358 2.818-5.877 4.504-9.613 4.504-1.073 0-2.164-0.14-3.249-0.43-4.976-1.334-8.438-5.48-9.154-10.27-0.085-0.574-0.596-0.946-1.125-0.946-0.215 0-0.434 0.062-0.629 0.2-2.12 1.486-4.65 2.28-7.224 2.28-2.123 0-4.275-0.542-6.2492-1.682-4.461-2.576-6.7304-7.476-6.1832-12.288 0.0778-0.68-0.4892-1.24-1.1264-1.24-0.1234 0-0.2498 0.02-0.3748 0.066-1.39 0.506-2.8516 0.76-4.3118 0.76-3.2066 0-6.4104-1.222-8.8566-3.668-3.6426-3.644-4.5676-8.966-2.7936-13.472 0.288-0.728-0.282-1.528-1.047-1.528-0.0336 0-0.0656 2e-3 -0.0976 4e-3 -0.3672 0.032-0.733 0.05-1.1004 0.05-4.333 0-8.5456-2.242-10.8684-6.267-2.5756-4.462-2.091-9.841 0.7896-13.734 0.4846-0.657 0.0914-1.627-0.7134-1.769-4.6546-0.819-8.6462-4.236-9.9508-9.103-1.3336-4.977 0.5258-10.048 4.3162-13.061 0.6386-0.509 0.5106-1.549-0.23-1.893-4.2844-1.996-7.2564-6.331-7.2564-11.37 0-5.143 3.097-9.554 7.5276-11.49 0.7574-0.332 0.9282-1.362 0.2942-1.893-3.6258-3.036-5.377-7.996-4.0724-12.864 1.3336-4.977 5.479-8.439 10.2694-9.155 0.8078-0.12 1.2146-1.085 0.7468-1.754-2.713-3.87-3.1198-9.111-0.6006-13.4732 2.3228-4.024 6.5338-6.2646 10.867-6.2646 0.4724 0 0.9464 0.0258 1.4204 0.0808 0.0412 5e-3 0.0838 6e-3 0.125 6e-3 0.7498 0 1.3152-0.7804 1.05-1.5074-1.6186-4.4416-0.6554-9.6088 2.9066-13.171 2.4476-2.448 5.6512-3.6674 8.8564-3.6674 1.5668 0 3.1336 0.2912 4.6136 0.875 0.131 0.0518 0.2652 0.0746 0.3962 0.0746 0.6248 0 1.1872-0.5488 1.1278-1.221-0.4146-4.7084 1.8534-9.4502 6.2168-11.9698 1.972-1.1386 4.124-1.6798 6.247-1.6798 2.68 0 5.315 0.8612 7.485 2.4694 0.198 0.1448 0.424 0.2118 0.646 0.2118 0.519 0 1.025-0.3612 1.124-0.9252 0.818-4.655 4.235-8.647 9.102-9.9518 1.086-0.2912 2.176-0.4298 3.249-0.4298 3.842 0 7.454 1.7834 9.812 4.7464 0.221 0.279 0.543 0.4116 0.864 0.4116 0.418 0 0.834-0.224 1.029-0.6418 1.995-4.2846 6.33-7.2568 11.367-7.2568z" fill="#fff"/>
        <path id="path447" d="m64.98028-210.98905c-11.299 0-10.413-15.953 0-15.953 10.412 0 11.3 15.953 0 15.953zm-93.372 0c-11.2994 0-10.4128-15.953 0-15.953 10.413 0 11.299 15.953 0 15.953zm127.51-58.936h-3.828c-6.864 0-12.76-4.103-15.398-9.984-2.64 5.881-8.536 9.984-15.399 9.984-6.865 0-12.76-4.103-15.398-9.984-2.639 5.881-8.535 9.984-15.4 9.984-6.864 0-12.76-4.103-15.398-9.984-2.639 5.881-8.535 9.984-15.399 9.984-6.865 0-12.759-4.103-15.399-9.984-2.639 5.881-8.534 9.984-15.399 9.984-6.8646 0-12.7592-4.103-15.398-9.984-2.6388 5.881-8.5348 9.984-15.3998 9.984h-3.7844c-5.7418 6.178-2.0996 11.397 12.0796 11.397v31.723c0 29.814 34.3306 44.722 68.6616 44.722s68.661-14.908 68.661-44.722v-31.723c14.192 0 17.896-5.219 12.198-11.397z"/>
        <path id="path449" d="m19.38828-371.98375c-5.027 0-9.839 1.5754-13.835 4.346-2.775-1.0814-5.761-1.6534-8.835-1.6534-2.12 0-4.237 0.28-6.295 0.8312-4.863 1.3028-9.108 4.0764-12.253 7.795-0.89-0.1004-1.785-0.1514-2.682-0.1514-4.246 0-8.4408 1.1262-12.1294 3.2558-4.358 2.516-7.7396 6.2914-9.8152 10.6944-5.0948 0.7668-9.7958 3.1284-13.5068 6.8394-3.5642 3.5628-5.8542 8.0916-6.7168 12.8884-4.6634 2.0532-8.6546 5.5486-11.2724 10.0848-2.5174 4.3594-3.5582 9.3215-3.1524 14.1735-3.9596 3.17-6.9098 7.566-8.2786 12.671-1.303 4.864-1.0244 9.926 0.623 14.509-3.0028 4.087-4.716 9.098-4.716 14.381 0 5.035 1.5784 9.851 4.3566 13.851-1.8436 4.725-2.2016 10.007-0.8342 15.114 1.3044 4.863 4.0764 9.105 7.7934 12.25-0.557 5.041 0.4642 10.237 3.1076 14.815 2.51 4.348 6.2824 7.742 10.6988 9.822 0.7682 5.012 3.0984 9.764 6.835 13.502 3.5598 3.558 8.0286 5.876 12.8852 6.736 2.0398 4.634 5.5172 8.612 10.0864 11.25 3.69 2.132 7.8848 3.258 12.1308 3.258 0.69 0 1.376-0.03 2.057-0.086 3.169 3.95 7.56 6.894 12.658 8.26 2.058 0.55 4.175 0.83 6.294 0.83 2.846 0 5.628-0.494 8.239-1.436 4.082 2.992 9.084 4.698 14.357 4.698 5.028 0 9.839-1.574 13.835-4.346 2.775 1.084 5.763 1.654 8.836 1.654 2.119 0 4.236-0.278 6.294-0.832 4.863-1.302 9.108-4.076 12.252-7.794 0.891 0.1 1.787 0.152 2.684 0.152 4.245 0 8.44-1.128 12.128-3.256 4.36-2.516 7.74-6.292 9.816-10.694 5.096-0.768 9.796-3.13 13.506-6.84 3.564-3.564 5.854-8.092 6.718-12.888 4.662-2.052 8.654-5.548 11.272-10.084 2.518-4.36 3.558-9.321 3.152-14.173 3.96-3.171 6.91-7.566 8.278-12.673 1.304-4.864 1.026-9.926-0.622-14.507 3.002-4.089 4.716-9.098 4.716-14.383 0-5.033-1.58-9.851-4.356-13.85 1.842-4.725 2.2-10.008 0.832-15.115-1.302-4.863-4.074-9.105-7.792-12.25 0.558-5.041-0.464-10.2365-3.108-14.8147-2.51-4.349-6.282-7.741-10.698-9.8226-0.768-5.011-3.098-9.7628-6.836-13.4994-3.56-3.5598-8.028-5.878-12.884-6.7376-2.038-4.6336-5.516-8.6126-10.086-11.2514-3.69-2.1296-7.884-3.2558-12.13-3.2558-0.69 0-1.378 0.0284-2.059 0.0854-3.169-3.9492-7.56-6.895-12.658-8.2608-2.057-0.551-4.175-0.8312-6.293-0.8312-2.847 0-5.629 0.4958-8.239 1.4378-4.083-2.9922-9.085-4.6994-14.358-4.6994zm4e-3 11.9794c5.053 0 9.387 3.0446 11.289 7.3968 0.19 0.4342 0.612 0.6724 1.036 0.6724 0.303 0 0.607-0.1228 0.825-0.3834 2.317-2.7676 5.775-4.424 9.446-4.424 1.054 0 2.126 0.1378 3.192 0.4224 4.89 1.3104 8.291 5.3838 8.995 10.0908 0.084 0.563 0.585 0.9284 1.105 0.9284 0.211 0 0.427-0.0614 0.619-0.1946 2.083-1.4602 4.569-2.2404 7.098-2.2404 2.086 0 4.201 0.5316 6.14 1.6504 4.384 2.5308 6.616 7.3456 6.076 12.0736-0.076 0.6678 0.48 1.2204 1.106 1.2204 0.122 0 0.246-0.0208 0.37-0.0658 1.366-0.4972 2.802-0.7474 4.236-0.7474 3.15 0 6.298 1.1996 8.702 3.6048 3.58 3.5792 4.488 8.8074 2.746 13.2342-0.284 0.7174 0.276 1.5022 1.028 1.5022 0.034 0 0.064-2e-3 0.096-5e-3 0.362-0.0314 0.72-0.048 1.082-0.048 4.258 0 8.396 2.203 10.678 6.1571 2.532 4.383 2.056 9.668-0.774 13.493-0.478 0.645-0.09 1.599 0.7 1.739 4.574 0.804 8.496 4.162 9.778 8.943 1.31 4.89-0.516 9.873-4.242 12.835-0.626 0.498-0.502 1.52 0.226 1.86 4.21 1.96 7.13 6.219 7.13 11.169 0 5.054-3.042 9.387-7.394 11.289-0.746 0.326-0.914 1.339-0.29 1.861 3.562 2.983 5.282 7.855 4 12.638-1.31 4.89-5.384 8.291-10.09 8.995-0.794 0.118-1.194 1.066-0.734 1.724 2.666 3.802 3.066 8.951 0.59 13.238-2.282 3.952-6.42 6.156-10.678 6.156-0.464 0-0.932-0.028-1.396-0.08-0.04-4e-3 -0.082-8e-3 -0.12-8e-3 -0.74 0-1.294 0.768-1.034 1.484 1.59 4.362 0.644 9.438-2.858 12.938-2.404 2.406-5.552 3.606-8.7 3.606-1.54 0-3.08-0.288-4.534-0.86-0.128-0.052-0.26-0.076-0.39-0.076-0.614 0-1.166 0.54-1.108 1.202 0.408 4.624-1.82 9.284-6.108 11.758-1.938 1.12-4.053 1.652-6.139 1.652-2.632 0-5.22-0.846-7.354-2.426-0.195-0.144-0.417-0.21-0.635-0.21-0.51 0-1.007 0.358-1.104 0.91-0.804 4.574-4.162 8.498-8.944 9.778-1.067 0.286-2.138 0.422-3.193 0.422-3.775 0-7.324-1.752-9.641-4.664-0.217-0.272-0.533-0.402-0.849-0.402-0.411 0-0.819 0.218-1.01 0.628-1.961 4.21-6.221 7.13-11.17 7.13-5.055 0-9.387-3.042-11.289-7.394-0.19-0.434-0.613-0.672-1.036-0.672-0.303 0-0.607 0.12-0.826 0.382-2.316 2.766-5.774 4.424-9.445 4.424-1.054 0-2.126-0.138-3.193-0.424-4.889-1.31-8.29-5.384-8.994-10.088-0.084-0.566-0.586-0.93-1.105-0.93-0.212 0-0.427 0.06-0.619 0.196-2.083 1.46-4.569 2.24-7.099 2.24-2.086 0-4.2-0.532-6.1398-1.652-4.3834-2.53-6.6134-7.346-6.0756-12.074 0.0764-0.668-0.4808-1.218-1.1068-1.218-0.1212 0-0.2456 0.018-0.3684 0.064-1.3658 0.498-2.802 0.748-4.2366 0.748-3.151 0-6.299-1.2-8.7026-3.604-3.5792-3.58-4.4884-8.808-2.7452-13.236 0.2832-0.716-0.277-1.502-1.0288-1.502-0.0328 0-0.0644 2e-3 -0.0958 4e-3 -0.361 0.032-0.7204 0.048-1.0812 0.048-4.2578 0-8.397-2.202-10.6794-6.156-2.531-4.383-2.0548-9.669 0.7758-13.493 0.4762-0.646 0.0898-1.6-0.701-1.739-4.5736-0.804-8.4958-4.162-9.7778-8.944-1.3104-4.889 0.5168-9.872 4.2412-12.833 0.6276-0.5 0.5018-1.521-0.226-1.86-4.2098-1.96-7.1302-6.219-7.1302-11.17 0-5.053 3.0432-9.387 7.3968-11.289 0.7442-0.326 0.912-1.339 0.289-1.86-3.5628-2.983-5.2836-7.856-4.0016-12.64 1.3104-4.889 5.3838-8.29 10.0908-8.994 0.7936-0.119 1.1936-1.067 0.7338-1.724-2.6658-3.802-3.0656-8.951-0.59-13.2373 2.2822-3.9536 6.4202-6.1552 10.6778-6.1552 0.4642 0 0.93 0.0256 1.3958 0.0794 0.0404 5e-3 0.0822 6e-3 0.1228 6e-3 0.7368 0 1.2924-0.7668 1.0318-1.4812-1.5904-4.3638-0.644-9.4408 2.8558-12.9406 2.4052-2.4052 5.5532-3.6032 8.7026-3.6032 1.5396 0 3.079 0.286 4.5332 0.8596 0.1288 0.051 0.2606 0.0734 0.3894 0.0734 0.614 0 1.1666-0.5392 1.1082-1.1996-0.4074-4.626 1.821-9.285 6.109-11.7606 1.938-1.1188 4.052-1.6504 6.138-1.6504 2.633 0 5.222 0.8462 7.355 2.4262 0.195 0.1422 0.416 0.2082 0.635 0.2082 0.509 0 1.006-0.355 1.104-0.9092 0.804-4.5736 4.162-8.4958 8.943-9.7778 1.068-0.286 2.139-0.4222 3.193-0.4222 3.776 0 7.325 1.7522 9.642 4.6634 0.217 0.2742 0.533 0.4044 0.849 0.4044 0.41 0 0.819-0.2202 1.011-0.6304 1.96-4.2098 6.219-7.1302 11.169-7.1302z"/>
    </g>
</svg>
