<svg id="svg290" version="1.1" viewBox="0 0 64 64" xmlns="http://www.w3.org/2000/svg">
    <defs id="defs278">
        <style id="style266" type="text/css"/>
        <style id="style268" type="text/css"/>
        <filter id="filter1057" x="-.026999999" y="-.026999999" width="1.054" height="1.054" color-interpolation-filters="sRGB">
            <feGaussianBlur id="feGaussianBlur270" stdDeviation="0.61875"/>
        </filter>
        <linearGradient id="linearGradient1053" x1="-127" x2="-72" y1="60" y2="5" gradientTransform="translate(131.5 -.51)" gradientUnits="userSpaceOnUse">
            <stop id="stop273" stop-color="#b72615" offset="0"/>
            <stop id="stop275" stop-color="#e44332" offset="1"/>
        </linearGradient>
    </defs>
    <rect id="rect280" x="4.5" y="4.5" width="55" height="55" ry="15" fill="#141414" filter="url(#filter1057)" opacity=".3" stroke-linecap="round" stroke-width="2.7444"/>
    <rect id="rect282" x="4.5" y="4.5" width="55" height="55" ry="15" fill="url(#linearGradient1053)" stroke-linecap="round" stroke-width="2.7444"/>
    <circle id="circle284" cx="-1326.3" cy="-1241.6" r="0" fill="#5e4aa6"/>
    <circle id="circle286" cx="-226.72" cy="23.855" r="0" fill="#5e4aa6" fill-rule="evenodd"/>
    <g id="g3550" transform="matrix(.05371094 0 0 .05371094 -.49511742 -.43454607)" fill="#fff" fill-rule="evenodd">
        <path id="path3544" d="m311.757 572.83c18.088-10.425 405.501-233.36 414.392-238.495 8.872-5.121 9.316-20.835-0.609-26.5-9.937-5.664-28.8-16.38-35.82-20.487-7.144-4.168-19.995-6.486-31.914 0.379-4.948 2.855-336.042 193.231-347.109 199.522-13.246 7.529-29.638 7.626-42.84-0.013-10.423-6.034-174.857-101.584-174.857-101.584v86.356c42.564 24.786 148.391 86.421 174.038 100.9 15.308 8.643 29.96 8.429 44.719-0.078"/>
        <path id="path3546" d="m311.757 745.367c18.088-10.425 405.501-233.359 414.392-238.495 8.872-5.12 9.316-20.834-0.609-26.499-9.937-5.665-28.8-16.381-35.82-20.488-7.144-4.168-19.995-6.485-31.914 0.38-4.948 2.855-336.042 193.231-347.109 199.521-13.246 7.529-29.638 7.627-42.84-0.012-10.423-6.035-174.857-101.585-174.857-101.585v86.356c42.564 24.786 148.391 86.421 174.038 100.9 15.308 8.643 29.96 8.429 44.719-0.078"/>
        <path id="path3548" d="m311.757 917.905c18.088-10.425 405.501-233.359 414.392-238.495 8.872-5.121 9.316-20.834-0.609-26.499-9.937-5.665-28.8-16.381-35.82-20.488-7.144-4.168-19.995-6.486-31.914 0.379-4.948 2.855-336.042 193.232-347.109 199.522-13.246 7.529-29.638 7.627-42.84-0.013-10.423-6.034-174.857-101.584-174.857-101.584v86.356c42.564 24.786 148.391 86.421 174.038 100.9 15.308 8.643 29.96 8.429 44.719-0.078"/>
    </g>
</svg>
