<svg id="svg5" version="1.1" viewBox="0 0 64 64" xmlns="http://www.w3.org/2000/svg">
  <defs id="defs3">
    <style id="style1" type="text/css"/>
    <style id="style2" type="text/css"/>
    <filter id="filter1057" x="-.026999999" y="-.026999999" width="1.054" height="1.054" color-interpolation-filters="sRGB">
      <feGaussianBlur id="feGaussianBlur2" stdDeviation="0.61875"/>
    </filter>
    <linearGradient id="linearGradient1053" x1="-127" x2="-72" y1="60" y2="5" gradientTransform="translate(131.5 -.51)" gradientUnits="userSpaceOnUse">
      <stop id="stop2" stop-color="#fafafa" offset="0"/>
      <stop id="stop3" stop-color="#ffffff" stop-opacity=".99607843" offset="1"/>
    </linearGradient>
    <filter id="filter2" x="-.040151018" y="-.026335847" width="1.080302" height="1.0526717" color-interpolation-filters="sRGB">
      <feGaussianBlur id="feGaussianBlur3" stdDeviation="0.35096983"/>
    </filter>
  </defs>
  <rect id="rect3" x="4.5" y="4.5" width="55" height="55" ry="15" fill="#141414" filter="url(#filter1057)" opacity=".3" stroke-linecap="round" stroke-width="2.7444"/>
  <rect id="rect4" x="4.5" y="4.5" width="55" height="55" ry="15" fill="url(#linearGradient1053)" stroke-linecap="round" stroke-width="2.7444"/>
  <circle id="circle4" cx="-1326.3" cy="-1241.6" r="0" fill="#5e4aa6"/>
  <circle id="circle5" cx="-226.72" cy="23.855" r="0" fill="#5e4aa6" fill-rule="evenodd"/>
  <path id="path29" d="m30.492188 13.160156c-1.073161-1e-4 -1.82853 0.476184-2.351563 1.484375-0.267495 0.515617-0.283697 0.59367-0.275391 1.369141 0.0048 0.4519 0.109588 1.847876 0.232422 3.103516 0.122832 1.255641 0.22985 2.634928 0.238282 3.064453l0.015624 0.78125-0.636718 0.222656c-0.994823 0.349185-1.400067 0.697623-1.822266 1.558594-0.195502 0.398678-0.392893 0.760811-0.4375 0.80664-0.05203 0.05346-0.276975 0.032237-0.628906-0.058593-1.029836-0.265772-1.714757-0.157941-2.501953 0.392578-0.871518 0.609489-1.110371 1.239129-1.240235 3.277343-0.07983 1.253002-0.081956 1.268396-0.513672 2.28711-0.823792 1.943916-0.930854 2.851494-0.927734 7.953125 0.0027 4.338331 0.08198 5.909326 0.337891 6.699218 0.876154 2.704375 3.021165 4.429332 5.804687 4.669922 1.034959 0.08946 6.345445 0.091587 8.751953 0.003907 1.756101-0.06399 2.148649-0.103516 2.650391-0.265625 1.829735-0.591177 3.026057-1.703303 3.53125-3.283204 0.293944-0.91926 1.685533-5.946427 1.955078-7.0625 0.479076-1.983651 0.225866-3.708038-0.77539-5.257812-0.169179-0.26186-0.639235-0.770638-1.044922-1.130859l-0.738282-0.654297 0.832032-3.414063 0.986328-3.982422c0.442024 0.399274 0.9336 0.714259 1.398437 0.882813 0.540898 0.196135 0.78711 0.188306 0.78711-0.027344 0-0.197402-0.185232-0.368507-0.814453-0.751953-0.443444-0.270233-0.843913-0.58546-1.171876-0.910156l0.363282-1.462891c0.012013-0.024298 0.02374-0.050052 0.035156-0.078125 0.063081-0.15511 0.189672-0.259762 0.560547-0.464844 0.890417-0.492374 1.265625-0.940109 1.265625-1.509765 0-0.374135-0.143333-0.625971-0.523438-0.923828-0.17612-0.138011-0.327272-0.222948-0.53125-0.277344l0.232422-0.941406c0.157361-0.606949 0.173384-0.699 0.197266-1.064454 0.02321-0.355095 1.34e-4 -0.823171-0.054688-1.095703-0.110258-0.54841-0.598041-1.133876-1.195312-1.433593-0.368198-0.184765-0.769914-0.265924-1.306641-0.265625-0.525899 3e-4 -0.914122 0.08008-1.285156 0.265625-0.522016 0.261053-1.029316 0.783993-1.322266 1.363281-0.053098 0.04483-0.174196 0.359579-0.33789 0.845703-0.731266 0.086178-1.117536 0.953181-0.958985 2.201172 0.062145 0.489195 0.063784 0.626595-0.005859 0.914062-0.225394 0.758922-0.452488 1.535507-0.65625 2.236328-0.345851 0.083308-0.701591 0.116055-1.119141 0.107422-0.582621-0.012045-0.866354-0.018407-1.021484-0.003906l-0.099609-0.636719c0-0.115359-0.522484-3.498574-0.894532-5.679687-0.191065-1.120101-0.364715-1.876791-0.496093-2.16211-0.456988-0.992452-1.483002-1.691306-2.486328-1.691406zm0.234374 1.140625c0.709719 0.040802 1.152533 0.430013 1.375 1.201172 0.111498 0.386501 0.584829 3.309619 1.427735 8.8125 0.375144 2.449109 0.754505 4.840851 0.84375 5.316406 0.219461 1.169428 0.527685 1.572529 0.90625 1.183594 0.218779-0.224771 0.390509-0.713314 1.337891-3.818359 0.158824-0.520546 0.583692-1.874265 1.076171-3.414063 0.40339-0.193114 0.774042-0.400911 1.050782-0.595703 0.363619-0.255948 0.43752-0.284744 0.714843-0.277344 0.355183 0.009442 0.732422 0.15016 0.732422 0.273438 0 0.130865 0.508514 1.171427 0.792969 1.623047 0.018863 0.029948 0.038926 0.060134 0.058594 0.089843-0.352346 1.463468-0.679412 2.820811-0.820313 3.402344-0.365834 1.509887-0.777143 3.162607-0.914062 3.673828l-0.248047 0.929688h-0.388672c-0.413997-3.99e-4 -2.209518-0.206872-4.892578-0.5625-2.065602-0.273785-2.513122-0.347077-2.589844-0.425781-0.03377-0.03463-0.072751-1.507034-0.087891-3.271485l-0.027343-3.208984-0.060547-0.527344c-0.203611-0.690381-0.30671-0.763889-0.554688-1.041016-0.247979-0.277125-0.744825-0.362974-0.796875-0.46289-0.149499-0.286994-0.679978-5.944323-0.679687-7.251953 1.95e-4 -1.150833 0.359635-1.566302 1.423828-1.644531 0.112474-0.008268 0.218924-0.009736 0.320312-0.003907zm10.470704 2.291016c0.637577 1e-3 0.894491 0.073513 1.132812 0.318359 0.212306 0.218121 0.276588 0.461895 0.257813 0.994141-0.01458 0.413399-0.068094 0.731904-0.298829 1.677734-0.013238 0.040958-0.060046 0.227993-0.132812 0.521485-0.233044 0.005643-0.392403 0.037857-0.626953 0.111328-0.864323 0.270739-0.951155 0.290332-1.021485 0.232422-0.038278-0.031518-0.128148-0.254171-0.199218-0.496094-0.195393-0.665119-0.517872-1.220493-0.900391-1.589844 0.21882-0.632856 0.376136-1.061391 0.433594-1.15039 0.510118-0.560749 0.769442-0.620039 1.355469-0.619141zm-3.306641 2.337891c-0.051739 0.165774-0.105516 0.339306-0.160156 0.517578 0.01822-0.200165 0.071864-0.373286 0.160156-0.517578zm1.322266 0.001953c0.065619 0.063109 0.132039 0.134183 0.199218 0.21289 0.323649 0.379189 0.43743 0.717065 0.46875 1.38086 0.032376 0.686137-0.03534 0.960876-0.292968 1.183593-0.223786 0.193462-0.591492 0.209081-0.869141 0.035157-0.09265-0.058038-0.210228-0.179529-0.328125-0.326172 0.293961-0.904411 0.581397-1.773881 0.822266-2.486328zm2.820312 1.667968c-0.134356 0.548676-0.310181 1.27302-0.5 2.058594-0.568347-0.00743-0.746855-0.091854-1.007812-0.443359-0.186314-0.250967-0.195027-0.398803-0.039063-0.712891 0.252725-0.50895 0.891538-0.830809 1.546875-0.902344zm1.130859 0.158203c0.137487 0.06432 0.262594 0.147777 0.367188 0.25 0.22893 0.223743 0.244884 0.260121 0.214844 0.490235-0.056504 0.432807-0.435208 0.803738-1.015625 1.007812l0.433593-1.748047zm-4.992187 1.339844c0.101435 0.148804 0.048823 0.307443-0.15625 0.480469 0.051616-0.160294 0.104333-0.319819 0.15625-0.480469zm3.210937 1.185547c-0.030599 0.12683-0.060941 0.25483-0.091796 0.382813-0.007525-0.026636-0.013919-0.052089-0.019532-0.078125-0.046048-0.213603-0.036432-0.308339 0.111328-0.304688zm-6.810546 0.701172c0.255519 0.069503 0.626831 0.103891 1.125 0.103516 0.314049-2.27e-4 0.512157-0.003829 0.669922-0.021485-0.234519 0.809302-0.412988 1.424856-0.480469 1.644532-0.609699 1.98478-0.744018 1.98981-1.039063 0.029296l-0.27539-1.755859zm-6.238282 0.169922c0.422014-0.01474 0.817525 0.153249 1.185547 0.505859l0.347657 0.332032 0.054687 0.849609c0.03008 0.467121 0.05787 1.944375 0.0625 3.28125l0.007813 2.429687-0.550782 0.058594c-0.734559 0.07732-1.357308 0.327568-1.972656 0.792969-0.270304 0.204437-0.526225 0.372489-0.580078 0.382812h-0.001953c-0.002204 0-0.007606-0.001263-0.009766-0.001953-0.133652-0.064667-0.183455-1.479725-0.154297-4.453125 0.03483-3.552131 0.034453-3.542142 0.824219-3.953125 0.271459-0.141263 0.533901-0.215763 0.787109-0.224609zm-4.21875 2.335937c0.266574 0.0066 0.405625 0.052791 0.615235 0.177735 0.61334 0.365602 0.691571 0.581488 0.757812 2.076172 0.03216 0.725648 0.04694 2.237995 0.03125 3.359375l-0.029297 2.039062-0.236328 0.31836c-0.130373 0.175485-0.334843 0.383266-0.453125 0.46289-0.237001 0.159543-0.82192 0.25616-1.30664 0.214844-0.229275-0.01954-0.416373-0.1231-0.697266-0.388672-0.534394-0.505244-0.562959-0.739945-0.53125-4.279297 0.02913-3.251005 0.02724-3.237498 0.628906-3.708984 0.258521-0.202584 0.403039-0.245806 0.904297-0.267578 0.124818-0.0054 0.227547-0.006107 0.316406-0.003907zm5.417969 6.314454c0.63468 0.0086 1.600944 0.115509 3.195313 0.324218 6.851485 0.896883 7.021714 0.93721 7.90625 1.851563 1.043322 1.078491 1.404768 2.910048 0.972656 4.927734-0.222711 1.039912-1.385921 5.273773-1.863281 6.78125-0.337909 1.067098-0.364347 1.114566-0.865235 1.619141-0.339465 0.341966-0.745331 0.636894-1.183594 0.859375-0.647772 0.328838-0.700837 0.341126-1.849609 0.404297-1.506758 0.08286-9.910107 0.073671-10.697265-0.011719-1.053745-0.114308-2.362408-0.878898-3.134766-1.830078-0.496513-0.61147-0.713317-1.019776-1.025391-1.929688l-0.267578-0.779297 0.03125-5.144531c0.03162-5.27958 0.048694-5.533203 0.359375-5.533203h0.001953c0.067393 0.006813 0.261269 0.228059 0.435547 0.496094 0.177045 0.27229 0.51075 0.641325 0.742188 0.820312 1.005587 0.777688 2.110984 0.787883 3.199218 0.029297 0.643904-0.448854 0.715695-0.437199 1.013672 0.171875 0.730704 1.493576 1.284529 1.830978 4.330078 2.63086 1.308479 0.343657 1.59961 0.452349 1.59961 0.605468 0 0.03534-0.287222 0.390341-0.636719 0.789063-1.24935 1.425315-1.929404 2.678568-2.314453 4.255859-0.20745 0.849784-0.164357 1.105695 0.214844 1.283203 0.329957 0.154456 0.51479-0.094747 0.8125-1.089843 0.619981-2.072281 1.552229-3.523729 2.894531-4.507813 0.997358-0.731194 1.198522-0.484356 0.623047 0.759766-0.394282 0.852403-0.386316 1.039157 0.046875 1.277343 0.224974 0.123701 0.240603 0.119102 0.511719-0.203125 0.343268-0.407979 1.296874-2.318881 1.296874-2.597656 0-0.111563-0.047962-0.244226-0.107421-0.294922-0.05946-0.0507-1.468724-0.468054-3.132813-0.925781-3.185815-0.876296-3.82972-1.074421-4.339844-1.341797-0.619369-0.324633-0.874707-0.917225-0.820312-1.90625 0.03764-0.684356 0.297412-1.155138 0.841797-1.525391 0.269787-0.18349 0.574305-0.274212 1.208984-0.265624z" fill="#222222" filter="url(#filter2)" opacity=".3" stroke="#000000" stroke-width=".3"/>
  <g id="g2" transform="matrix(.09714486 0 0 .09980575 -14.916904 -45.286296)" stroke-width="3.0467271">
    <path id="path1" d="m577.62424 619.98261c6.56316 0.0101 9.22644 0.7362 11.67969 3.18945 2.18546 2.18546 2.83388 4.63593 2.64062 9.96875-0.15011 4.14203-0.69511 7.33189-3.07031 16.8086-0.90607 2.72837-17.49977 70.18227-21.26563 85.31052-3.76586 15.12826-8.00072 31.6962-9.41015 36.81836l-2.5625 9.31445-4.00391-4e-3c-4.26165-4e-3 -22.73434-2.07157-50.35351-5.63477-21.26311-2.74318-25.86649-3.48096-26.65626-4.26953-0.34757-0.34702-0.76019-15.09459-0.91601-32.77344l-0.2832-32.14453-0.60916-5.29468c-2.09595-6.91725-3.15657-7.64343-5.70923-10.42009-2.55267-2.77665-7.68293-3.64741-8.21872-4.64851-1.53893-2.87553-6.98933-59.55841-6.98633-72.66016 2e-3 -11.53073 3.7035-15.68884 14.6582-16.47265 9.26234-0.66271 14.82616 3.16178 17.44336 11.99218 1.14775 3.87254 6.02438 33.15902 14.70117 88.29493 3.8617 24.53875 7.77273 48.51449 8.69141 53.27929 2.25911 11.71704 5.42926 15.74458 9.32617 11.84766 2.25209-2.25209 4.01336-7.14889 13.76563-38.25977 4.55744-14.53873 30.42102-93.84502 33.20215-98.03796 5.25111-5.6184 7.90401-6.2131 13.93652-6.2041zm24.0664 26.72461c1.61986-6.0813 1.79323-6.98874 2.03907-10.65039 0.23888-3.55787-4e-3 -8.25767-0.56836-10.98829-1.13498-5.49478-6.15253-11.34856-12.30078-14.35156-3.7902-1.85125-7.92811-2.67097-13.45313-2.66797-5.41355 3e-3 -9.40717 0.80692-13.22656 2.66602-5.37358 2.61561-10.58792 7.85014-13.60352 13.6543-2.84408 2.33722-24.76653 77.9762-27.61132 86.99011-6.27618 19.88644-7.66596 19.92264-10.70313 0.2793l-4.91992-30.51911c0-1.15583-5.3733-35.057-9.20313-56.91058-1.9668-11.22281-3.75503-18.80924-5.10742-21.66797-4.7042-9.94385-15.27536-16.93845-25.60351-16.93945v1.2e-4c-11.04701-1e-3 -18.82103 4.77933-24.20508 14.88086-2.75357 5.1662-2.91363 5.93527-2.82813 13.70507 0.0498 4.52779 1.12619 18.5266 2.39063 31.10743 1.26442 12.58084 2.37023 26.39561 2.45703 30.69922l0.15625 7.82421-6.54492 2.23633c-10.24062 3.49865-14.42541 6.97705-18.77149 15.60352-2.01248 3.99454-4.03496 7.63847-4.49414 8.09765-0.53561 0.5356-2.85968 0.32602-6.48242-0.58398-10.60104-2.66289-17.64862-1.58818-25.75195 3.92773-8.97132 6.10675-11.42296 12.41999-12.75977 32.8418-0.82181 12.55441-0.85484 12.69342-5.29883 22.90039-8.48004 19.47699-9.56923 28.5758-9.53711 79.69141 0.0273 43.46774 0.84424 59.2068 3.47852 67.12109 9.01905 27.09637 31.08692 44.38044 59.74023 46.79102 10.65377 0.89631 65.32529 0.92357 90.09766 0.0449 18.07713-0.64117 22.12417-1.03395 27.28906-2.6582 18.83512-5.92327 31.14725-17.06673 36.34766-32.89649 3.02584-9.2105 17.35619-59.591 20.13086-70.77344 4.93156-19.87513 2.31073-37.14397-7.9961-52.67187-1.74152-2.6237-6.58366-7.72281-10.75976-11.33203l-7.59375-6.5625 8.55859-34.20117 26.63867-104.68748m-156.47851 49.04492c4.34417-0.14773 8.42256 1.54711 12.21094 5.08008l3.57226 3.33007 0.5625 8.50977c0.30961 4.6803 0.60074 19.47046 0.64844 32.86523l0.0879 24.35352-5.67578 0.58203c-7.56148 0.7747-13.96059 3.27834-20.29492 7.94141-2.87225 2.11443-5.57545 3.84375-6.00782 3.84375-1.45193 0-1.98314-14.1279-1.67578-44.63477 0.35857-35.59044 0.33894-35.4974 8.46875-39.61523 2.79438-1.41538 5.49702-2.16723 8.10352-2.25586zm-43.41211 23.40234c2.74409 0.0664 4.16457 0.53915 6.32227 1.79102 6.31367 3.66313 7.12671 5.82875 7.80859 20.80468 0.33105 7.2706 0.47015 22.41086 0.30859 33.64649l-0.29492 20.42969-2.43945 3.19726c-1.34205 1.75827-3.43671 3.8487-4.6543 4.64649-2.43966 1.59853-8.46346 2.5585-13.45312 2.14453-2.36014-0.19581-4.27454-1.23755-7.16602-3.89844-5.501-5.06227-5.80102-7.41454-5.47461-42.87695 0.29982-32.57332 0.27328-32.42832 6.4668-37.15235 2.66119-2.02979 4.15454-2.45958 9.31445-2.67773 1.28486-0.0543 2.34702-0.0768 3.26172-0.0547zm55.76172 63.27735c6.53333 0.086 16.47638 1.15494 32.88867 3.24609 70.52853 8.98629 72.29311 9.38946 81.39844 18.55078 10.73985 10.8059 14.45984 29.15106 10.01172 49.36719-2.29256 10.41936-14.26971 52.83925-19.1836 67.94336-3.47841 10.69175-3.7482 11.18466-8.90429 16.24023-3.49443 3.42631-7.67217 6.37828-12.1836 8.60742-6.66811 3.29478-7.2137 3.41003-19.03906 4.04297-15.51042 0.83017-102.01816 0.73642-110.12109-0.11914-10.84715-1.14531-24.317-8.7939-32.26758-18.32422-5.11106-6.1266-7.35004-10.22887-10.5625-19.3457l-2.74805-7.79687 0.31836-51.54688c0.32546-52.89856 0.49521-55.44531 3.69336-55.44531 0.66228 0 2.6951 2.23274 4.51758 4.96093 1.82248 2.7282 5.26213 6.42736 7.64453 8.22071 10.35142 7.79202 21.71774 7.8936 32.91992 0.29297 6.62829-4.49727 7.36234-4.37604 10.42969 1.72656 7.5218 14.96482 13.23144 18.33913 44.58203 26.35352 13.46936 3.44326 16.46094 4.54981 16.46094 6.08398 0 0.35412-2.94333 3.91127-6.54102 7.90625-12.86069 14.28089-19.87618 26.82725-23.83984 42.63086-2.13547 8.51438-1.69448 11.0867 2.20898 12.86523 3.39654 1.54757 5.3104-0.94764 8.375-10.91797 6.38202-20.76315 15.97544-35.30602 29.79297-45.16601 10.26671-7.32617 12.34771-4.86192 6.42383 7.60351-4.05871 8.54062-3.98849 10.42211 0.4707 12.8086 2.31587 1.23942 2.47478 1.17776 5.26563-2.05078 3.53357-4.08773 13.36328-23.23027 13.36328-26.02344 0-1.1178-0.50123-2.44908-1.11328-2.95703-0.61205-0.50796-15.12784-4.67554-32.25782-9.26172-32.79447-8.78001-39.4207-10.77612-44.67187-13.45508-6.37573-3.25265-8.99744-9.18816-8.4375-19.09766 0.38745-6.85688 3.06607-11.58322 8.66992-15.29296 2.77716-1.83848 5.90222-2.73642 12.43555-2.65039z" fill="#000000" stroke="#000000"/>
    <path id="path2" d="m599.59953 720.33812c-8.71849-3.07711-18.33708-11.06233-24.15521-20.05334-2.92815-4.52499-8.16725-14.96724-8.16725-16.27844 0-1.23518-3.87699-2.64526-7.53321-2.73986-2.85474-0.0739-3.62278 0.21606-7.36584 2.78048-4.61737 3.16343-11.76009 6.70815-18.79321 9.32652-4.15592 1.54721-5.35444 1.71099-12.55803 1.71606-9.54749 7e-3 -14.62774-1.16772-15.75524-3.64232-0.59202-1.29932-0.50437-1.72756 0.57432-2.80625 1.35887-1.35887 1.21869-1.34694 13.03687-1.10913 7.93171 0.15961 13.73794-1.06588 20.62524-4.35324 9.76729-4.66201 9.98238-8.45797 0.66214-11.68573-2.37393-0.82214-4.13496-1.78656-4.13496-2.2645 0-0.45787 0.44406-2.52627 0.98679-4.59644 0.86168-3.28672 0.888-4.5208 0.20762-9.73346-1.73262-13.27421 2.84757-22.24442 11.29566-22.1223 8.12595 0.11746 16.28127 8.63589 19.97067 20.85985 0.73158 2.42394 1.65254 4.66555 2.04657 4.98134 0.72396 0.58021 1.62055 0.38149 10.51781-2.33121 3.53016-1.07631 5.37088-1.25963 10.41397-1.03711 7.28993 0.32166 9.81631 1.02031 13.30129 3.6784 3.91276 2.98436 5.3826 5.51362 5.3826 9.26225 0 5.70765-3.86401 10.1935-13.02988 15.12682-3.81775 2.05481-5.1037 3.09372-5.75305 4.64784-0.45996 1.10083-1.02292 2.0015-1.25102 2.0015-0.22811 0-2.66687-0.73343-5.41946-1.62985-6.28778-2.0477-7.10555-1.82212-6.31608 1.74229 1.52444 6.88269 9.98013 15.94642 20.94315 22.44914 6.47714 3.84193 8.37599 5.54807 8.37599 7.52593 0 2.1607-2.5403 2.24992-8.10825 0.28476zm-8.19859-40.48659c7.10255-1.84998 11.81853-5.90138 12.46306-10.70676 0.30925-2.30561 0.14608-2.66801-2.21051-4.90978-7.87613-7.49238-26.48614-4.55947-31.33126 4.93777-1.60548 3.14699-1.52292 4.64282 0.39502 7.15737 2.82048 3.69784 4.71029 4.44206 11.28634 4.44463 3.24487 1e-3 7.42437-0.40934 9.39735-0.92323zm-30.33763-8.58962c2.652-2.23151 3.35401-4.98845 3.02074-11.86318-0.32242-6.65087-1.50371-10.02923-4.83533-13.8285-5.49532-6.26669-10.53379-7.61221-14.32146-3.82454-3.61805 3.61805-4.01284 9.76835-1.17824 18.35563 1.20454 3.64909 5.76156 9.90533 8.37624 11.49955 2.85809 1.74263 6.63442 1.59943 8.93805-0.33896z" fill="#ec1f23" stroke="#ed1f24"/>
  </g>
</svg>
