<svg id="svg290" version="1.1" viewBox="0 0 64 64" xmlns="http://www.w3.org/2000/svg">
    <defs id="defs278">
        <style id="style266" type="text/css"/>
        <style id="style268" type="text/css"/>
        <filter id="filter1057" x="-.026999999" y="-.026999999" width="1.054" height="1.054" color-interpolation-filters="sRGB">
            <feGaussianBlur id="feGaussianBlur270" stdDeviation="0.61875"/>
        </filter>
        <linearGradient id="linearGradient1053" x1="-127" x2="-72" y1="60" y2="5" gradientTransform="translate(131.5 -.51)" gradientUnits="userSpaceOnUse">
            <stop id="stop273" stop-color="#0d4a8a" offset="0"/>
            <stop id="stop275" stop-color="#77bae4" offset="1"/>
        </linearGradient>
        <filter id="filter6876" x="-.027001596" y="-.026998402" width="1.0540032" height="1.0539968" color-interpolation-filters="sRGB">
            <feGaussianBlur id="feGaussianBlur6878" stdDeviation="0.37122802"/>
        </filter>
    </defs>
    <rect id="rect280" x="4.5" y="4.5" width="55" height="55" ry="15" fill="#141414" filter="url(#filter1057)" opacity=".3" stroke-linecap="round" stroke-width="2.7444"/>
    <rect id="rect282" x="4.5" y="4.5" width="55" height="55" ry="15" fill="url(#linearGradient1053)" stroke-linecap="round" stroke-width="2.7444"/>
    <circle id="circle284" cx="-1326.3" cy="-1241.6" r="0" fill="#5e4aa6"/>
    <circle id="circle286" cx="-226.72" cy="23.855" r="0" fill="#5e4aa6" fill-rule="evenodd"/>
    <path id="path6861" d="m39.005859 15.5c-0.220332 0-0.437082 0.04424-0.636718 0.126953-0.09982 0.04135-0.194854 0.09212-0.285157 0.152344-0.0903 0.06022-0.176013 0.129139-0.253906 0.207031l-5.089844 5.089844-0.390625-0.390625c-0.07787-0.07788-0.163628-0.148734-0.253906-0.208985-0.08115-0.05407-0.166847-0.09766-0.255859-0.136718-0.02637-0.01156-0.05315-0.02107-0.08008-0.03125-0.03397-0.01284-0.0668-0.0285-0.101563-0.03906-0.05169-0.01573-0.104965-0.02842-0.158203-0.03906-0.106407-0.02131-0.216038-0.0332-0.326172-0.0332-0.110166 0-0.217801 0.0119-0.324219 0.0332-0.05324 0.01063-0.106383 0.02334-0.158203 0.03906-0.03476 0.01056-0.0676 0.02622-0.101562 0.03906-0.02693 0.01018-0.05371 0.01969-0.08008 0.03125-0.08849 0.03883-0.175133 0.08304-0.25586 0.136718-4.73e-4 3.15e-4 -0.0015-3.15e-4 -2e-3 0-0.0898 0.06006-0.174451 0.13145-0.251953 0.208985l-11.74409 11.744141c-0.4588 0.458791-0.860989 0.954824-1.205078 1.476562-0.172044 0.260869-0.329289 0.527548-0.472656 0.800781-0.143367 0.273234-0.272028 0.552588-0.386719 0.835938s-0.216718 0.570109-0.302734 0.861328c-0.08602 0.291219-0.157503 0.585973-0.214844 0.882812-0.05734 0.29684-0.10024 0.596273-0.128906 0.896485-0.02867 0.300211-0.04298 0.601007-0.04297 0.902344 7e-6 0.301336 0.01429 0.604084 0.04297 0.904296 0.02868 0.300213 0.07155 0.59769 0.128906 0.894532 0.05735 0.296841 0.12882 0.59159 0.214844 0.882812 0.08602 0.291222 0.18804 0.579927 0.302734 0.863281 0.114695 0.283355 0.243354 0.562699 0.386719 0.835938s0.300622 0.539906 0.472656 0.800781c0.344069 0.52175 0.746335 1.017755 1.205078 1.476563 0.222186 0.222185 0.453701 0.430071 0.69336 0.626953s0.486758 0.38186 0.742187 0.552734c0.25543 0.170875 0.517612 0.328494 0.78711 0.472656 0.269497 0.144162 0.546263 0.27388 0.828125 0.390625 0.281861 0.116746 0.568805 0.21997 0.861328 0.308594 0.292523 0.08862 0.591096 0.162859 0.892578 0.222656 0.301481 0.0598 0.607279 0.106452 0.916015 0.136719 0.308737 0.03027 0.619305 0.04489 0.933594 0.04492 0.314297 0 0.626822-0.01468 0.935547-0.04492s0.614558-0.07695 0.916016-0.136719c0.301457-0.05977 0.598129-0.134048 0.890625-0.222656 0.292496-0.08861 0.581441-0.189901 0.863281-0.306641 0.28184-0.116739 0.556683-0.248409 0.826172-0.392578 0.269488-0.144168 0.53362-0.301761 0.789062-0.472656 0.255443-0.170895 0.502486-0.353861 0.742188-0.550781s0.471093-0.406664 0.693359-0.628906l11.746094-11.748047c0.311497-0.311501 0.486328-0.733421 0.486328-1.173828 0-0.44086-0.174831-0.862199-0.486328-1.173828l-0.390625-0.392579 5.087891-5.089843c0.311569-0.311823 0.488153-0.733421 0.488281-1.173828-1.28e-4 -0.440665-0.176712-0.862392-0.488281-1.173829l-3.914063-3.916015-3.916015-3.916016c-0.07783-0.07789-0.161667-0.146816-0.251954-0.207031-0.08541-0.05696-0.177467-0.104425-0.271484-0.144531-0.0086-0.0037-0.01673-0.0082-0.02539-0.01172-0.09684-0.03939-0.195843-0.06925-0.298828-0.08984-0.106441-0.02128-0.216037-0.03317-0.326172-0.0332zm-4.707031 13.867188c0.03923 0.0032 0.0755 0.01431 0.111328 0.0293 0.0058 0.0025 0.01187 5e-3 0.01758 0.0078 0.03511 0.01702 0.06915 0.03789 0.09766 0.06641 0.04116 0.04115 0.07234 0.09238 0.08984 0.146485 0.0175 0.0541 0.02084 0.110462 0.01172 0.167968l-0.376956 2.386724c-0.0214 0.135104-0.117981 0.246783-0.248047 0.289063-0.130103 0.04224-0.270482 0.0088-0.367187-0.08789l-0.611328-0.611328-3.955079 3.957031 2.214844 0.800781 1.125-1.123047-0.292969-0.292968c-0.142027-0.142032-0.142064-0.371604 0-0.513672l1.304688-1.302735c0.06751-0.06751 0.153919-0.10017 0.242187-0.103515 0.0013-4.9e-5 0.0026 3.5e-5 0.0039 0 0.0064-1.88e-4 0.0132-1.3e-4 0.01953 0 0.08958 0.0025 0.179576 0.03504 0.248047 0.103515l1.371094 1.371094c0.142027 0.142033 0.142063 0.373559 0 0.515625l-1.302735 1.302734c-0.03552 0.03552-0.07737 0.06232-0.121094 0.08008-0.0406 0.01649-0.08382 0.02421-0.126953 0.02539-0.0033 9.1e-5 -0.0064 2e-3 -0.0098 2e-3 -0.0033 0-0.0064-0.0019-0.0098-2e-3 -0.08958-0.0025-0.177617-0.03699-0.246094-0.105469l-0.292969-0.291015-1.373046 1.373047c-0.152906 0.152908-0.380577 0.204311-0.583985 0.130859l-3.042969-1.099609-2.34375 2.34375c0.361524 0.660665 0.322335 1.484098-0.121093 2.107422-0.06335 0.08905-0.13502 0.174081-0.214844 0.253906-0.09694 0.09694-0.200278 0.181204-0.310547 0.253906-0.220539 0.145403-0.465782 0.242548-0.716797 0.291016-0.50203 0.09694-1.033535-2.09e-4 -1.474609-0.291016-0.110269-0.0727-0.215565-0.156971-0.3125-0.253906-0.0879-0.0879-0.162496-0.184232-0.230469-0.283203-0.01994-0.02909-0.03646-0.05998-0.05469-0.08984-0.111188-0.182113-0.190995-0.375854-0.238282-0.578125-6.1e-4 -0.0026-0.0014-0.0052-2e-3 -0.0078-0.0083-0.0363-0.01715-0.07274-0.02344-0.109376-0.03815-0.223232-0.03815-0.452548 0-0.675781 0.0063-0.03664 0.0151-0.07307 0.02344-0.109375 6e-4 -0.0026 0.0013-0.0052 2e-3 -0.0078 0.04729-0.202271 0.127094-0.396012 0.238282-0.578125 0.01823-0.02987 0.03475-0.06076 0.05469-0.08984 0.06797-0.09897 0.142569-0.195304 0.230469-0.283203 0.07982-0.07982 0.164846-0.151466 0.253906-0.214844 0.0884-0.0629 0.18388-0.117357 0.279297-0.164062v-2e-3c0.09618-0.04694 0.195698-0.08474 0.296875-0.115234 0.101178-0.03049 0.204538-0.0543 0.308594-0.06836 0.104057-0.01406 0.209637-0.01995 0.314453-0.01758 0.104816 0.0024 0.209043 0.0144 0.3125 0.0332 0.103456 0.0188 0.206665 0.04487 0.306641 0.08008 0.09998 0.03521 0.196635 0.07922 0.291015 0.130859l1.542969-1.542969-1.097656-3.042968c-0.01837-0.05084-0.02806-0.103934-0.03125-0.15625-0.0032-0.05167 9.49e-4 -0.104283 0.01172-0.154297v-2e-3c0.01108-0.0506 0.02957-0.09853 0.05469-0.144532 0.02511-0.04601 0.05552-0.08873 0.09375-0.126953l1.574219-1.574218c-0.173887-0.473178-0.07063-1.025078 0.308593-1.404297 0.06499-0.06499 0.135074-0.121176 0.208985-0.169922 0.07391-0.04874 0.150188-0.09055 0.230469-0.123047 0.08028-0.0325 0.163944-0.05602 0.248046-0.07227 0.06881-0.01329 0.138912-0.0189 0.208985-0.02148 0.0072-2.43e-4 0.01427-0.0018 0.02148-2e-3 0.0072-1.27e-4 0.01427-0.0019 0.02148-2e-3h4e-3c0.01433 2e-5 0.02865 0.0034 0.04297 0.0039 0.07076 0.0024 0.141055 8e-3 0.210938 0.02148 0.0841 0.01625 0.165812 0.03977 0.246094 0.07227 0.07982 0.03231 0.158891 0.07467 0.232422 0.123047 0.07391 0.04875 0.143986 0.104923 0.208984 0.169922 0.194993 0.194994 0.316413 0.435081 0.365234 0.6875 0.0325 0.1683 0.0325 0.341467 0 0.509765-0.01642 0.08417-0.04143 0.167452-0.07422 0.248047-0.0325 0.07987-0.07245 0.158473-0.121094 0.232422-0.04865 0.07395-0.10522 0.144283-0.169922 0.208984-0.09441 0.09441-0.2026 0.172301-0.314453 0.232422-0.07532 0.04018-0.153916 0.06894-0.234375 0.09375-0.0176 0.0054-0.03497 0.01094-0.05273 0.01563-0.08247 0.02173-0.165586 0.03926-0.25 0.04492-0.124119 0.0083-0.248911-0.0011-0.371094-0.02734-0.06113-0.01311-0.122498-0.03099-0.181641-0.05273l-1.322265 1.322266 0.800781 2.216797 4.753906-4.75586-0.609391-0.609223c-0.04893-0.04881-0.08054-0.107182-0.0957-0.171875-0.0076-0.03152-0.01065-0.06719-0.0098-0.09961 0.0011-0.03306 0.0051-0.06513 0.01563-0.09766 0.01057-0.03251 0.0264-0.06227 0.04492-0.08984 0.01862-0.02741 0.04124-0.05303 0.06641-0.07422 0.05008-0.04277 0.112134-0.07134 0.179688-0.08203l2.386719-0.378906c0.02875-0.0046 0.05753-0.0042 0.08594-2e-3z" filter="url(#filter6876)" opacity=".3" stroke-width=".0644531"/>
    <g id="g6717" transform="matrix(.91654492 0 0 .91654492 -57.38878 40.973068)" stroke-width=".0703218">
        <path id="path6064" d="m105.1722-27.791617c-0.48079 0-0.94327 0.189361-1.2832 0.529296l-5.552736 5.554688-0.427735-0.427734c-0.08495-0.08495-0.1768-0.160813-0.275391-0.226563-0.147745-0.09845-0.309109-0.175088-0.478515-0.226563-0.0564-0.01716-0.113789-0.03136-0.171875-0.04297-0.116101-0.02321-0.23543-0.03516-0.355469-0.03516-0.12025 0-0.239367 0.01196-0.355469 0.03516-0.05809 0.0116-0.115337 0.02581-0.171875 0.04297-0.169405 0.05147-0.330769 0.128112-0.478515 0.226563-0.09845 0.06575-0.190443 0.141614-0.275391 0.226563l-12.814453 12.814453c-4.004613 4.004542-4.00412 10.520707 0 14.52539 1.939333 1.939333 4.518467 3.007532 7.261719 3.007813 2.743321 0 5.321682-1.067987 7.261719-3.007813l12.814456-12.816406c0.33986-0.339865 0.53125-0.800741 0.53125-1.28125 0-0.480791-0.19132-0.941314-0.53125-1.2812498l-0.42578-0.427734 5.55273-5.552735c0.33994-0.340216 0.53111-0.800741 0.53125-1.28125-1.4e-4 -0.480789-0.19131-0.941455-0.53125-1.28125l-4.27148-4.271484-4.27149-4.273438c-0.33965-0.339935-0.8006-0.529156-1.28125-0.529296zm-5.13672 15.128906c0.093 0.0075 0.1807 0.04591 0.24805 0.113281 0.0898 0.08979 0.13123 0.218266 0.11133 0.34375l-0.412112 2.6035158c-0.02335 0.147406-0.127622 0.268323-0.269531 0.314453-0.14195 0.04609-0.296834 0.0098-0.402344-0.0957l-0.666016-0.6660158-4.316406 4.3164058 2.417969 0.873047 1.226562-1.224609-0.318359-0.31836c-0.15496-0.154964-0.155-0.405544 0-0.560547l1.421875-1.421874c0.155-0.155002 0.405587-0.154965 0.560547 0l1.496095 1.496093c0.15496 0.154965 0.155 0.407498 0 0.5625l-1.421876 1.421875c-0.155 0.155002-0.405588 0.154965-0.560547 0l-0.31836-0.318359-1.498047 1.498047c-0.166829 0.16683-0.414789 0.222718-0.636718 0.142578l-3.320313-1.199219-2.556641 2.556641c0.45079 0.823797 0.329556 1.879429-0.367187 2.576172-0.846099 0.84609595-2.224224 0.84609595-3.070313 0-0.846062-0.846059-0.846062-2.222302 0-3.06836 0.696739-0.696743 1.754346-0.819817 2.578126-0.36914l1.683593-1.683594-1.197265-3.320313c-0.08018-0.221896-0.02621-0.469894 0.140625-0.636718l1.716797-1.7167968c-0.18972-0.516263-0.07781-1.119453 0.335937-1.533203 0.567299-0.567295 1.489311-0.567332 2.056641 0 0.567329 0.56733 0.567299 1.4913 0 2.0585928-0.41375 0.413753-1.015021 0.525697-1.53125 0.335938l-1.44336 1.441406 0.873047 2.419922 5.1875-5.1894528-0.664062-0.664063c-0.1058-0.105542-0.143757-0.262352-0.09766-0.404296 0.0461-0.141871 0.168997-0.244239 0.316407-0.267579l2.603515-0.414062c0.03137-5e-3 0.06276-0.0044 0.09375-2e-3z" fill="#b2b2b2"/>
        <path id="path6066" d="m96.627279-22.666617c-0.480789 0-0.941455 0.191314-1.28125 0.53125l-12.814453 12.814453c-4.004613 4.004542-4.00412 10.520707 0 14.52539 1.939333 1.939333 4.518467 3.007532 7.261719 3.007813 2.743321 0 5.321682-1.067987 7.261719-3.007813l12.814456-12.816406c0.33986-0.339865 0.53125-0.800741 0.53125-1.28125 0-0.481002-0.19139-0.941244-0.53125-1.2812498l-0.42578-0.427734-1.28125-1.28125-1.28321-1.28125-2.99023-2.990235-2.99024-2.990234-1.281246-1.28125-1.28125-1.28125-0.427735-0.427734c-0.339865-0.339866-0.8006-0.531251-1.28125-0.53125zm3.408201 10.003906c0.093 0.0075 0.1807 0.04591 0.24805 0.113281 0.0898 0.08979 0.13123 0.218266 0.11133 0.34375l-0.412112 2.6035158c-0.02335 0.147406-0.127622 0.268323-0.269531 0.314453-0.14195 0.04609-0.296834 0.0098-0.402344-0.0957l-0.666016-0.6660158-4.316406 4.3164058 2.417969 0.873047 1.226562-1.224609-0.318359-0.31836c-0.15496-0.154964-0.155-0.405544 0-0.560547l1.421875-1.421874c0.155-0.155002 0.405587-0.154965 0.560547 0l1.496095 1.496093c0.15496 0.154965 0.155 0.407498 0 0.5625l-1.421876 1.421875c-0.155 0.155002-0.405588 0.154965-0.560547 0l-0.31836-0.318359-1.498047 1.498047c-0.166829 0.16683-0.414789 0.222718-0.636718 0.142578l-3.320313-1.199219-2.556641 2.556641c0.45079 0.823797 0.329556 1.879429-0.367187 2.576172-0.846099 0.84609595-2.224224 0.84609595-3.070313 0-0.846062-0.846059-0.846062-2.222302 0-3.06836 0.696739-0.696743 1.754346-0.819817 2.578126-0.36914l1.683593-1.683594-1.197265-3.320313c-0.08018-0.221896-0.02621-0.469894 0.140625-0.636718l1.716797-1.7167968c-0.18972-0.516263-0.07781-1.119453 0.335937-1.533203 0.567299-0.567295 1.489311-0.567332 2.056641 0 0.567329 0.56733 0.567299 1.4913 0 2.0585928-0.41375 0.413753-1.015021 0.525697-1.53125 0.335938l-1.44336 1.441406 0.873047 2.419922 5.1875-5.1894528-0.664062-0.664063c-0.1058-0.105542-0.143757-0.262352-0.09766-0.404296 0.0461-0.141871 0.168997-0.244239 0.316407-0.267579l2.603515-0.414062c0.03137-5e-3 0.06276-0.0044 0.09375-2e-3z" fill="#e5e5e5"/>
        <path id="path6068" d="m96.627279-22.666617c-0.480788 0-0.941455 0.191314-1.28125 0.53125l-12.814453 12.814453c-4.004609 4.004538-4.004116 10.520711 0 14.52539l4.851562-4.853515c-0.158636-0.158636-0.28757-0.336443-0.386718-0.525391-0.0661-0.12595-0.118544-0.256391-0.158203-0.390625-0.118978-0.402702-0.118978-0.83362705 0-1.236328 0.03966-0.134234 0.0921-0.264675 0.158203-0.390625 0.09915-0.188948 0.228082-0.366755 0.386718-0.525391 0.08709-0.08709 0.180174-0.165227 0.277344-0.234375 0.09645-0.06863 0.19863-0.128729 0.302735-0.179687 7.63e-4 -3.73e-4 0.0012-0.0016 2e-3 -2e-3 0.104936-0.05121 0.211875-0.09173 0.322265-0.125s0.22436-0.05888 0.337891-0.07422 0.227437-0.02212 0.341797-0.01953c0.11436 0.0026 0.22892 0.01465 0.341797 0.03516 0.112876 0.02051 0.224904 0.04947 0.333984 0.08789 0.109081 0.03842 0.215387 0.08624 0.31836 0.142578l1.683593-1.683594-1.197265-3.320313c-0.02004-0.05547-0.03168-0.112842-0.03516-0.169921-7e-3 -0.114159 0.01747-0.227735 0.07227-0.328126 0.0274-0.0502 0.06181-0.09696 0.103516-0.138671l1.716797-1.7167968c-0.18972-0.516263-0.07781-1.119453 0.335937-1.533203 0.07091-0.07091 0.147875-0.132362 0.228516-0.185547 0.08064-0.05318 0.164362-0.09735 0.251953-0.132813 0.08759-0.03546 0.177771-0.06235 0.269531-0.08008 0.09049-0.01748 0.18353-0.0271 0.275391-0.02734 0.0013-1e-6 0.0026-1e-6 0.0039 0 0.09315-1e-6 0.185583 0.0096 0.277344 0.02734 0.09176 0.01773 0.181939 0.04462 0.269531 0.08008 0.08709 0.03525 0.171727 0.08003 0.251953 0.132813 4.15e-4 2.74e-4 0.0015-2.75e-4 2e-3 0 0.08064 0.05319 0.155646 0.11463 0.226563 0.185547 0.283664 0.283665 0.425785 0.656695 0.425781 1.029297-2e-6 0.187137-0.03587 0.372961-0.107422 0.548828-0.07091 0.174292-0.177172 0.339283-0.318359 0.4804678-0.103438 0.103439-0.219179 0.188193-0.341797 0.253907-0.183721 0.098-0.385064 0.154361-0.587891 0.167968-0.13542 0.0091-0.270989-7.14e-4 -0.404297-0.0293-0.0667-0.0143-0.132737-0.03292-0.197265-0.05664l-1.44336 1.441406 0.873047 2.419922 5.1875-5.1894528-0.664062-0.664063c-0.05338-0.05325-0.08893-0.11887-0.105469-0.189453-0.01695-0.07014-0.01524-0.143872 0.0078-0.214843 0.01153-0.03547 0.02862-0.06758 0.04883-0.09766 0.02031-0.02991 0.04481-0.05696 0.07227-0.08008 0.05464-0.04667 0.121608-0.07817 0.195313-0.08984l2.603515-0.414062c0.125485-0.0199 0.251995 0.0215 0.341795 0.111328l3.60547-3.605469-2.99023-2.990234-1.281253-1.28125-1.28125-1.28125-0.427735-0.427734c-0.339865-0.339866-0.8006-0.531251-1.28125-0.53125zm3.355469 13.064453c-0.01168 0.0737-0.04318 0.140675-0.08984 0.195312 0.04673-0.05442 0.07817-0.121609 0.08984-0.195312zm-0.583984 0.285156c0.06315 0.03504 0.134769 0.05169 0.207031 0.04883-0.07159 0.0026-0.144251-0.0144-0.207031-0.04883zm-0.04102 0.814453c-0.0053 0-0.01031 0.0037-0.01563 0.0039 0.01122-3.96e-4 0.02199-5.5e-4 0.0332 0-6e-3 -2.74e-4 -0.01155-0.0039-0.01758-0.0039zm-0.08789 3.677734c0.01102 0.0049 0.02187 0.0078 0.0332 0.01172-0.01114-0.0038-0.02237-0.0069-0.0332-0.01172zm0.322266 0c-0.01083 0.0048-0.02206 0.0079-0.0332 0.01172 0.01125-0.0039 0.02227-0.0068 0.0332-0.01172zm-0.185547 0.0332c0.01453 8.73e-4 0.02843 7.22e-4 0.04297 0-0.01445 6.52e-4 -0.02853 9.17e-4 -0.04297 0z" fill="#d9d9d9"/>
        <path id="path6070" d="m106.45299-27.261563c-0.33965-0.339936-0.80082-0.530789-1.28147-0.53093-0.48079 0-0.94168 0.190994-1.28162 0.53093l-5.553383 5.553384 1.281615 1.281334 1.281478 1.281615 2.99015 2.990295 6.83584-6.834226z" fill="#a6a6a6"/>
    </g>
</svg>
