<svg id="svg290" version="1.1" viewBox="0 0 64 64" xmlns="http://www.w3.org/2000/svg">
    <defs id="defs278">
        <style id="style266" type="text/css"/>
        <style id="style268" type="text/css"/>
        <filter id="filter1057" x="-.026999999" y="-.026999999" width="1.054" height="1.054" color-interpolation-filters="sRGB">
            <feGaussianBlur id="feGaussianBlur270" stdDeviation="0.61875"/>
        </filter>
        <linearGradient id="linearGradient1053" x1="-127" x2="-72" y1="60" y2="5" gradientTransform="translate(131.5 -.51)" gradientUnits="userSpaceOnUse">
            <stop id="stop273" offset="0"/>
            <stop id="stop275" stop-color="#262626" stop-opacity=".99608004" offset="1"/>
        </linearGradient>
    </defs>
    <rect id="rect280" x="4.5" y="4.5" width="55" height="55" ry="15" fill="#141414" filter="url(#filter1057)" opacity=".3" stroke-linecap="round" stroke-width="2.7444"/>
    <rect id="rect282" x="4.5" y="4.5" width="55" height="55" ry="15" fill="url(#linearGradient1053)" stroke-linecap="round" stroke-width="2.7444"/>
    <circle id="circle284" cx="-1326.3" cy="-1241.6" r="0" fill="#5e4aa6"/>
    <circle id="circle286" cx="-226.72" cy="23.855" r="0" fill="#5e4aa6" fill-rule="evenodd"/>
    <path id="path436" d="m48.614653 21.357027c-0.583622-1.410068-1.155488-2.824067-1.746146-4.230229-4.954082-2.048531-9.915214-4.078268-14.868507-6.126798-4.953293 2.04853-9.914425 4.078267-14.867718 6.126798-0.590671 1.406162-1.162537 2.820161-1.746146 4.230229q-2.187196 5.320711-4.380652 10.642184 3.063787 7.442085 6.128363 14.884183 7.434247 3.05516 14.866153 6.116606 7.435825-3.055173 14.866153-6.116606 3.068495-7.442098 6.128363-14.884183-2.188761-5.321473-4.379863-10.642184zm-16.614653 28.725677q-6.413507-2.617266-12.823883-5.242369-2.630587-6.423686-5.248629-12.842689 2.625091-6.41586 5.248629-12.831721 6.392359-2.608651 12.781576-5.225128a0.08773827 0.08773827 0 0 1 0.09403 0q6.391583 2.610993 12.781588 5.225128 2.626669 6.415084 5.248629 12.831721-2.623525 6.423698-5.248629 12.842689c-4.283504 1.74537-12.833286 5.242369-12.833286 5.242369m0.0089-14.595108a0.01801768 0.01801768 0 0 1-0.0173 0q-2.048531 2.061853-4.096272 4.123705c-0.806889 0.796685-1.958445 1.144506-3.074755 1.160958h-3.337973v-17.513179h4.117432v12.812915q2.02111-2.036787 4.046929-4.0673 1.168796-1.175057 2.343077-2.350126l0.0076-0.0076 0.0076 0.0076q1.175057 1.175069 2.343077 2.350126 2.02816 2.031302 4.048494 4.068088 0.0076-6.40647 0-12.812927h4.117432v17.513192h-3.337976c-1.113956-0.01641-2.267878-0.364274-3.074755-1.160971q-2.05166-2.057933-4.096272-4.123692m15.726292-3.513451 0.0038 0.01018h-0.264786c-0.31334 0.0076-0.6314 0-0.947094 0h-3.390462v-9.33943h-4.989327l-0.179395 0.180184-0.951803 0.952591c-0.453583 0.453571-0.922817 0.922029-1.383449 1.385002l-0.183301 0.177054v6.028085h-0.861717c-0.721499-0.72697-1.442985-1.450033-2.142548-2.151937l-0.434764-0.429294-0.0089-0.0089-0.0076 0.0076-0.433988 0.435553c-0.69955 0.705047-1.421049 1.424968-2.142535 2.151938h-0.86094v-6.03278l-0.179383-0.180184c-0.460632-0.462198-0.929879-0.931431-1.383449-1.385015l-0.951803-0.951802-0.179394-0.180171h-4.990893v9.339417h-3.390462c-0.313353 0-0.632189 0.0076-0.947107 0h-0.267127l0.0038-0.01018h-0.0038q2.336028-5.523594 4.657958-11.055025 5.497751-2.320365 11.000185-4.632892a0.14414145 0.14414145 0 0 1 0.156683 0q5.500092 2.3188 11.003315 4.634457 2.328202 5.528301 4.657958 11.055025z" fill="#fff" stroke-width=".0783378" data-name="Windscribe logo (monochrome version by krisu)"/>
</svg>
