<svg id="svg36" version="1.1" viewBox="0 0 64 64" xmlns="http://www.w3.org/2000/svg" xmlns:xlink="http://www.w3.org/1999/xlink">
    <defs id="defs16">
        <style id="style4" type="text/css"/>
        <style id="style6" type="text/css"/>
        <filter id="filter1057" x="-.026999999" y="-.026999999" width="1.054" height="1.054" color-interpolation-filters="sRGB">
            <feGaussianBlur id="feGaussianBlur1059" stdDeviation="0.61875"/>
        </filter>
        <radialGradient id="radialGradient7028" cx="132.29167" cy="164.70831" r="132.29167" gradientTransform="matrix(.26456692 0 0 .26456692 -3.000481 -11.576375)" gradientUnits="userSpaceOnUse">
            <stop id="stop7022" stop-color="#fff" offset="0"/>
            <stop id="stop7024" stop-color="#fff" stop-opacity="0" offset="1"/>
        </radialGradient>
        <style id="style4-6" type="text/css"/>
        <style id="style6-7" type="text/css"/>
        <style id="style8" type="text/css"/>
        <style id="style4-7" type="text/css"/>
        <style id="style6-5" type="text/css"/>
        <style id="style8-3" type="text/css"/>
        <style id="style872" type="text/css"/>
        <style id="style874" type="text/css"/>
        <style id="style876" type="text/css"/>
    </defs>
    <rect id="rect1055" x="4.4999995" y="4.4999995" width="55" height="55" ry="15" fill="#141414" filter="url(#filter1057)" opacity=".3" stroke-linecap="round" stroke-width="2.74436"/>
    <rect id="rect1045" x="4.5000019" y="4.5000019" width="54.999996" height="54.999996" ry="14.999999" fill="#fdfdfd" stroke-linecap="round" stroke-width="2.74436"/>
    <circle id="circle18" cx="-1248.7" cy="-1241.6" r="0" fill="#5e4aa6" image-rendering="optimizeSpeed"/>
    <g id="g24" transform="translate(96.721 -4.4322)">
        <g id="g22" transform="translate(1,1)"/>
    </g>
    <g fill="#5e4aa6">
        <g id="g30" transform="translate(-59.967815)">
            <circle id="circle24" cx="-1248.7" cy="-1241.6" r="0"/>
            <circle id="circle26" cx="-1140.3" cy="-1301.8" r="0"/>
            <circle id="circle28" cx="-1158.1" cy="-1246" r="0"/>
        </g>
        <circle id="circle36" cx="-1217.2678" cy="-1267.7" r="0"/>
        <circle id="circle38" cx="-117.72382" cy="-2.1829" r="0" fill-rule="evenodd"/>
    </g>
    <g id="g3016" transform="matrix(.92727121 0 0 .92727121 2.3273259 2.3273213)">
        <g id="g2650" transform="translate(168.33593,35)">
            <g>
                <path id="path4181" d="m-136.57617-30.5 0.24023 27.5 0.28906-27.5z" fill="#f00"/>
                <path id="path4178" d="m-136.0957-30.5-0.24024 27.5 0.76953-27.5z" fill="#ff0400"/>
                <path id="path4175" d="m-135.61523-30.5-0.72071 27.5 1.24805-27.5z" fill="#ff0900"/>
                <path id="path4172" d="m-135.13477-30.5-1.20117 27.5 1.73047-27.5z" fill="#ff0d00"/>
                <path id="path4169" d="m-134.6543-30.5-1.68164 27.5 2.21289-27.5z" fill="#f10"/>
                <path id="path4166" d="m-134.17188-30.5-2.16406 27.5 2.69727-27.5z" fill="#ff1500"/>
                <path id="path4163" d="m-133.6875-30.5-2.64844 27.5 3.18164-27.5z" fill="#ff1a00"/>
                <path id="path4160" d="m-133.20117-30.5-3.13477 27.5 3.66992-27.5z" fill="#ff1e00"/>
                <path id="path4157" d="m-132.71484-30.5-3.6211 27.5 4.16016-27.5z" fill="#f20"/>
                <path id="path4154" d="m-132.22656-30.5-4.10938 27.5 4.65235-27.5z" fill="#ff2600"/>
                <path id="path4151" d="m-131.73438-30.5-4.60156 27.5 5.14844-27.5z" fill="#ff2b00"/>
                <path id="path4148" d="m-131.23828-30.5-5.09766 27.5 5.64649-27.5z" fill="#ff2f00"/>
                <path id="path4145" d="m-130.74023-30.5-5.59571 27.5 6.14649-27.5z" fill="#f30"/>
                <path id="path4142" d="m-130.23828-30.5-6.09766 27.5 6.65235-27.5z" fill="#ff3700"/>
                <path id="path4139" d="m-129.73242-30.5-6.60352 27.5 7.16406-27.5z" fill="#ff3c00"/>
                <path id="path4136" d="m-129.22266-30.5-7.11328 27.5 7.67774-27.5z" fill="#ff4000"/>
            </g>
            <path id="path4133" d="m-128.70898-30.5-7.62696 27.5 8.19922-27.5z" fill-opacity="0"/>
            <g>
                <path id="path4130" d="m-128.70898-30.5-7.62696 27.5 8.19922-27.5z" fill="#f40"/>
                <path id="path4127" d="m-128.18945-30.5-8.14649 27.5 8.72461-27.5z" fill="#ff4800"/>
                <path id="path4124" d="m-127.66406-30.5-8.67188 27.5 9.25586-27.5z" fill="#ff4d00"/>
                <path id="path4121" d="m-127.13477-30.5-9.20117 27.5 9.79102-27.5z" fill="#ff5100"/>
                <path id="path4118" d="m-126.59766-30.5-9.73828 27.5 10.33594-27.5z" fill="#f50"/>
                <path id="path4115" d="m-126.05273-30.5-10.28321 27.5 10.88867-27.5z" fill="#ff5900"/>
                <path id="path4112" d="m-125.50195-30.5-10.83399 27.5 11.44727-27.5z" fill="#ff5e00"/>
                <path id="path4109" d="m-124.94531-30.5-11.39063 27.5 12.01367-27.5z" fill="#ff6200"/>
                <path id="path4106" d="m-124.37891-30.5-11.95703 27.5 12.58985-27.498047c-0.0301-1.75e-4 -0.0598-2e-3 -0.0898-2e-3z" fill="#f60"/>
                <path id="path4103" d="m-123.80273-30.5-12.53321 27.5 13.16797-27.482422c-0.21028-0.0091-0.42227-0.01712-0.63476-0.01758z" fill="#ff6a00"/>
                <path id="path4100" d="m-123.22656-30.484375-13.10938 27.484375 13.74414-27.445312c-0.21041-0.01712-0.42192-0.03064-0.63476-0.03906z" fill="#ff6f00"/>
                <path id="path4097" d="m-122.65039-30.449219-13.68555 27.449219 14.31446-27.380859c-0.2091-0.02503-0.41721-0.05195-0.62891-0.06836z" fill="#ff7300"/>
                <path id="path4094" d="m-122.07812-30.388672-14.25782 27.388672 14.88282-27.294922c-0.20796-0.033-0.41424-0.06933-0.625-0.09375z" fill="#f70"/>
                <path id="path4091" d="m-121.50977-30.302734-14.82617 27.302734 15.45703-27.208984c-0.20709-0.04109-0.42073-0.06123-0.63086-0.09375z" fill="#ff7b00"/>
                <path id="path4088" d="m-120.9375-30.216797-15.39844 27.216797 16.01172-27.074219c-0.20421-0.04871-0.40587-0.102267-0.61328-0.142578z" fill="#ff8000"/>
                <path id="path4085" d="m-120.37891-30.087891-15.95703 27.087891 16.56836-26.931641c-0.20202-0.05648-0.4059-0.10807-0.61133-0.15625z" fill="#ff8400"/>
                <path id="path4082" d="m-119.82422-29.945312-16.51172 26.945312 17.1211-26.773438c-0.20023-0.06439-0.40553-0.115734-0.60938-0.171874z" fill="#f80"/>
                <path id="path4079" d="m-119.26758-29.792969-17.06836 26.792969 17.65821-26.576172c-0.19688-0.07179-0.38916-0.153094-0.58985-0.216797z" fill="#ff8c00"/>
                <path id="path4076" d="m-118.73047-29.595703-17.60547 26.595703 18.19727-26.378906c-0.1938-0.07924-0.39399-0.145516-0.5918-0.216797z" fill="#ff9100"/>
                <path id="path4073" d="m-118.19141-29.398438-18.14453 26.398438 18.71875-26.146484c-0.1903-0.08648-0.37971-0.17328-0.57422-0.251954z" fill="#ff9500"/>
                <path id="path4070" d="m-117.66797-29.171875-18.66797 26.171875 19.23633-25.898438c-0.1877-0.09418-0.37621-0.187-0.56836-0.273437z" fill="#f90"/>
                <path id="path4067" d="m-117.15234-28.925781-19.1836 25.925781 19.74805-25.642578c-0.18403-0.101345-0.37576-0.189464-0.56445-0.283203z" fill="#ff9d00"/>
                <path id="path4064" d="m-116.63672-28.671875-19.69922 25.671875 20.23438-25.347656c-0.17884-0.107566-0.35152-0.224007-0.53516-0.324219z" fill="#ffa200"/>
                <path id="path4061" d="m-116.14844-28.376953-20.1875 25.376953 20.72461-25.050781c-0.175-0.114615-0.35707-0.21879-0.53711-0.326172z" fill="#ffa600"/>
                <path id="path4058" d="m-115.66016-28.080078-20.67578 25.080078 21.19336-24.726562c-0.1704-0.121126-0.34195-0.23945-0.51758-0.353516z" fill="#fa0"/>
                <path id="path4055" d="m-115.18945-27.759766-21.14649 24.759766 21.65039-24.384766c-0.16592-0.127729-0.33255-0.254182-0.5039-0.375z" fill="#ffae00"/>
                <path id="path4052" d="m-114.73242-27.417969-21.60352 24.417969 22.10352-24.037109c-0.16102-0.134023-0.33335-0.253581-0.5-0.38086z" fill="#ffb300"/>
                <path id="path4049" d="m-114.27344-27.076172-22.0625 24.076172 22.52539-23.654297c-0.1553-0.139583-0.30179-0.288813-0.46289-0.421875z" fill="#ffb700"/>
                <path id="path4046" d="m-113.85156-26.691406-22.48438 23.691406 22.94727-23.271484c-0.14954-0.145033-0.3074-0.281198-0.46289-0.419922z" fill="#fb0"/>
                <path id="path4043" d="m-113.85156-26.691406-22.48438 23.691406 22.94727-23.271484c-0.14954-0.145033-0.3074-0.281198-0.46289-0.419922z" fill="#fb0"/>
                <path id="path4040" d="m-113.42969-26.308594-22.90625 23.308594 23.34766-22.863281c-0.14454-0.151297-0.29067-0.300193-0.44141-0.445313z" fill="#ffbf00"/>
                <path id="path4037" d="m-113.02539-25.904297-23.31055 22.904297 23.73047-22.441406c-0.13813-0.156035-0.27547-0.312793-0.41992-0.462891z" fill="#ffc400"/>
                <path id="path4034" d="m-112.64258-25.482422-23.69336 22.482422 24.11133-22.015625c-0.13253-0.161736-0.27888-0.310845-0.41797-0.466797z" fill="#ffc800"/>
                <path id="path4031" d="m-112.25977-25.0625-24.07617 22.0625 24.45313-21.558594c-0.12672-0.167236-0.24347-0.342295-0.37696-0.503906z" fill="#fc0"/>
                <path id="path4028" d="m-111.91797-24.603516-24.41797 21.603516 24.79492-21.101562c-0.1201-0.171731-0.24992-0.335634-0.37695-0.501954z" fill="#ffd000"/>
                <path id="path4025" d="m-111.57617-24.146484-24.75977 21.146484 25.11133-20.625c-0.11374-0.176658-0.2307-0.350062-0.35156-0.521484z" fill="#ffd500"/>
                <path id="path4022" d="m-111.25586-23.675781-25.08008 20.675781 25.40625-20.136719c-0.10698-0.180973-0.2119-0.363125-0.32617-0.539062z" fill="#ffd900"/>
                <path id="path4019" d="m-110.95703-23.185547-25.37891 20.185547 25.70117-19.650391c-0.0994-0.183749-0.21555-0.356174-0.32226-0.535156z" fill="#fd0"/>
                <path id="path4016" d="m-110.66406-22.699219-25.67188 19.699219 25.95117-19.130859c-0.0931-0.189375-0.17849-0.38364-0.27929-0.56836z" fill="#ffe100"/>
                <path id="path4013" d="m-110.41016-22.183594-25.92578 19.183594 26.19727-18.617188c-0.0853-0.191632-0.17846-0.379163-0.27149-0.566406z" fill="#ffe600"/>
                <path id="path4010" d="m-110.16211-21.667969-26.17383 18.667969 26.41992-18.089844c-0.078-0.195104-0.16021-0.387215-0.24609-0.578125z" fill="#ffea00"/>
                <path id="path4007" d="m-109.93555-21.144531-26.40039 18.144531 26.61719-17.550781c-0.0708-0.198833-0.138-0.398936-0.2168-0.59375z" fill="#fe0"/>
                <path id="path4004" d="m-109.73828-20.605469-26.59766 17.605469 26.8125-17.015625c-0.0629-0.200897-0.14382-0.392734-0.21484-0.589844z" fill="#fff200"/>
                <path id="path4001" d="m-109.54297-20.068359-26.79297 17.068359 26.96094-16.455078c-0.0555-0.20478-0.10412-0.412132-0.16797-0.613281z" fill="#fff700"/>
                <path id="path3998" d="m-109.39062-19.511719-26.94532 16.511719 27.10156-15.900391c-0.0474-0.205727-0.10052-0.408985-0.15624-0.611328z" fill="#fffb00"/>
                <path id="path3995" d="m-109.24805-18.955078-27.08789 15.955078 27.22656-15.341797c-0.0394-0.207047-0.0909-0.409398-0.13867-0.613281z" fill="#ff0"/>
                <path id="path3992" d="m-109.11914-18.398438-27.2168 15.398438 27.3125-14.767578c-0.0317-0.210179-0.0554-0.423688-0.0957-0.63086z" fill="#fbff00"/>
                <path id="path3989" d="m-109.03125-17.824219-27.30469 14.824219 27.39844-14.203125c-0.0235-0.209394-0.0618-0.41445-0.0937-0.621094z" fill="#f7ff00"/>
                <path id="path3986" d="m-108.94531-17.259766-27.39063 14.259766 27.45508-13.628906c-0.0157-0.212066-0.0401-0.421391-0.0645-0.63086z" fill="#f2ff00"/>
                <path id="path3983" d="m-108.88672-16.685547-27.44922 13.685547 27.48633-13.052734c-8e-3 -0.21233-0.0208-0.422875-0.0371-0.632813z" fill="#ef0"/>
                <path id="path3980" d="m-108.85156-16.109375-27.48438 13.109375 27.5-12.474609v-0.025391c0-0.204604-8e-3 -0.406811-0.0156-0.609375z" fill="#eaff00"/>
                <path id="path3977" d="m-108.83594-15.53125-27.5 12.53125 27.5-11.900391v-0.599609c0-0.01049 2e-5 -0.02077 0-0.03125z" fill="#e6ff00"/>
                <path id="path3974" d="m-108.83594-14.957031-27.5 11.957031 27.5-11.333984z" fill="#e1ff00"/>
                <path id="path3971" d="m-108.83594-14.390625-27.5 11.390625 27.5-10.777344z" fill="#df0"/>
                <path id="path3968" d="m-108.83594-13.833984-27.5 10.833984 27.5-10.226562z" fill="#d9ff00"/>
                <path id="path3965" d="m-108.83594-13.283203-27.5 10.283203 27.5-9.683594z" fill="#d5ff00"/>
                <path id="path3962" d="m-108.83594-12.738281-27.5 9.738281 27.5-9.146484z" fill="#d0ff00"/>
                <path id="path3959" d="m-108.83594-12.201172-27.5 9.201172 27.5-8.619141z" fill="#cf0"/>
                <path id="path3956" d="m-108.83594-11.671875-27.5 8.671875 27.5-8.09375z" fill="#c8ff00"/>
                <path id="path3953" d="m-108.83594-11.146484-27.5 8.146484 27.5-7.574219z" fill="#c4ff00"/>
                <path id="path3950" d="m-108.83594-10.626953-27.5 7.626953 27.5-7.0625z" fill="#bfff00"/>
                <path id="path3947" d="m-108.83594-10.113281-27.5 7.113281 27.5-6.5507812z" fill="#bf0"/>
                <path id="path3944" d="m-108.83594-9.6015625-27.5 6.6015625 27.5-6.046875z" fill="#b7ff00"/>
                <path id="path3941" d="m-108.83594-9.0976562-27.5 6.0976562 27.5-5.5449219z" fill="#b3ff00"/>
                <path id="path3938" d="m-108.83594-8.5957031-27.5 5.5957031 27.5-5.046875z" fill="#aeff00"/>
                <path id="path3935" d="m-108.83594-8.0976562-27.5 5.0976562 27.5-4.5527344z" fill="#af0"/>
                <path id="path3932" d="m-108.83594-7.6015625-27.5 4.6015625 27.5-4.0605469z" fill="#a6ff00"/>
                <path id="path3929" d="m-108.83594-7.109375-27.5 4.109375 27.5-3.5722656z" fill="#a2ff00"/>
                <path id="path3926" d="m-108.83594-6.6210938-27.5 3.6210938 27.5-3.0859375z" fill="#9eff00"/>
                <path id="path3923" d="m-108.83594-6.1347656-27.5 3.1347656 27.5-2.5996094z" fill="#9f0"/>
                <path id="path3920" d="m-108.83594-5.6484375-27.5 2.6484375 27.5-2.1171875z" fill="#95ff00"/>
                <path id="path3917" d="m-108.83594-5.1640625-27.5 2.1640625 27.5-1.6347656z" fill="#91ff00"/>
                <path id="path3914" d="m-108.83594-4.6816406-27.5 1.6816406 27.5-1.1523438z" fill="#8cff00"/>
                <path id="path3911" d="m-108.83594-4.2011719-27.5 1.2011719 27.5-0.671875z" fill="#8f0"/>
                <path id="path3908" d="m-108.83594-3.7207031-27.5 0.7207031 27.5-0.1914062z" fill="#84ff00"/>
                <path id="path3905" d="m-108.83594-3.2402344-27.5 0.2402344 27.5 0.2890625z" fill="#80ff00"/>
                <path id="path3902" d="m-136.33594-3 27.5 0.7675781v-0.5273437z" fill="#7bff00"/>
                <path id="path3899" d="m-136.33594-3 27.5 1.2480469v-0.5273438z" fill="#7f0"/>
                <path id="path3896" d="m-136.33594-3 27.5 1.7304688v-0.5292969z" fill="#73ff00"/>
                <path id="path3893" d="m-136.33594-3 27.5 2.2128906v-0.53125002z" fill="#6fff00"/>
                <path id="path3890" d="m-136.33594-3 27.5 2.6972656v-0.53320312z" fill="#6aff00"/>
                <path id="path3887" d="m-136.33594-3 27.5 3.1816406v-0.53320312z" fill="#6f0"/>
                <path id="path3884" d="m-136.33594-3 27.5 3.6699219v-0.53515626z" fill="#62ff00"/>
                <path id="path3881" d="m-136.33594-3 27.5 4.1601562v-0.53906245z" fill="#5eff00"/>
                <path id="path3878" d="m-136.33594-3 27.5 4.6503906v-0.5410156z" fill="#59ff00"/>
                <path id="path3875" d="m-136.33594-3 27.5 5.1464844v-0.5449219z" fill="#5f0"/>
                <path id="path3872" d="m-136.33594-3 27.5 5.6445312v-0.546875z" fill="#51ff00"/>
                <path id="path3869" d="m-136.33594-3 27.5 6.1464844v-0.5507813z" fill="#4dff00"/>
                <path id="path3866" d="m-136.33594-3 27.5 6.6523438v-0.5546876z" fill="#48ff00"/>
                <path id="path3863" d="m-136.33594-3 27.5 7.1621094v-0.5605469z" fill="#4f0"/>
                <path id="path3860" d="m-136.33594-3 27.5 7.6777344v-0.5644532z" fill="#40ff00"/>
                <path id="path3857" d="m-136.33594-3 27.5 8.1992188v-0.5722657z" fill="#3cff00"/>
                <path id="path3854" d="m-136.33594-3 27.5 8.7226562v-0.5761718z" fill="#37ff00"/>
                <path id="path3851" d="m-136.33594-3 27.5 9.2558594v-0.5839844z" fill="#3f0"/>
                <path id="path3848" d="m-136.33594-3 27.5 9.7910156v-0.5898437z" fill="#2fff00"/>
                <path id="path3845" d="m-136.33594-3 27.5 10.335938v-0.5976563z" fill="#2bff00"/>
                <path id="path3842" d="m-136.33594-3 27.5 10.888672v-0.6054688z" fill="#26ff00"/>
                <path id="path3839" d="m-136.33594-3 27.5 11.447266v-0.6132812z" fill="#2f0"/>
                <path id="path3836" d="m-136.33594-3 27.5 12.013672v-0.6230469z" fill="#1eff00"/>
                <path id="path3833" d="m-136.33594-3 27.49805 12.589844c1.8e-4 -0.03012 2e-3 -0.059681 2e-3 -0.089844v-0.5429686z" fill="#1aff00"/>
                <path id="path3830" d="m-136.33594-3 27.48242 13.167969c9e-3 -0.2114511 0.0172-0.4230288 0.0176-0.636719z" fill="#15ff00"/>
                <path id="path3827" d="m-136.33594-3 27.44532 13.744141c0.0172-0.21058 0.0306-0.421759 0.0391-0.634766z" fill="#1f0"/>
                <path id="path3824" d="m-136.33594-3 27.38086 14.314453c0.025-0.209021 0.0519-0.417277 0.0684-0.628906z" fill="#0dff00"/>
                <path id="path3821" d="m-136.33594-3 27.29492 14.880859c0.0328-0.206479 0.0714-0.411844 0.0957-0.621093z" fill="#09ff00"/>
                <path id="path3818" d="m-136.33594-3 27.20899 15.455078c0.041-0.206893 0.0632-0.420943 0.0957-0.630859z" fill="#04ff00"/>
                <path id="path3815" d="m-136.33594-3 27.07422 16.011719c0.0487-0.20415 0.10228-0.405933 0.14258-0.613281z" fill="#0f0"/>
                <path id="path3812" d="m-136.33594-3 26.93164 16.568359c0.0567-0.202627 0.10795-0.407233 0.15625-0.613281z" fill="#00ff04"/>
                <path id="path3809" d="m-136.33594-3 26.77344 17.123047c0.0646-0.200823 0.11556-0.406856 0.17188-0.611328z" fill="#00ff09"/>
                <path id="path3806" d="m-136.33594-3 26.57813 17.658203c0.0717-0.196761 0.15118-0.389278 0.21484-0.589844z" fill="#00ff0d"/>
                <path id="path3803" d="m-136.33594-3 26.38086 18.199219c0.0795-0.194436 0.14528-0.395278 0.2168-0.59375z" fill="#0f1"/>
                <path id="path3800" d="m-136.33594-3 26.14844 18.720703c0.0867-0.190782 0.17308-0.381165 0.25195-0.576172z" fill="#00ff15"/>
                <path id="path3797" d="m-136.33594-3 25.90039 19.234375c0.0938-0.187088 0.1873-0.374899 0.27344-0.566406z" fill="#00ff1a"/>
                <path id="path3794" d="m-136.33594-3 25.64258 19.748047c0.1013-0.183944 0.18951-0.375853 0.2832-0.564453z" fill="#00ff1e"/>
                <path id="path3791" d="m-136.33594-3 25.34766 20.234375c0.10756-0.178834 0.22401-0.351521 0.32422-0.535156z" fill="#0f2"/>
                <path id="path3788" d="m-136.33594-3 25.05078 20.724609c0.11511-0.175754 0.22032-0.358238 0.32813-0.539062z" fill="#00ff26"/>
                <path id="path3785" d="m-136.33594-3 24.72656 21.193359c0.12113-0.1704 0.23945-0.341956 0.35352-0.517578z" fill="#00ff2b"/>
                <path id="path3782" d="m-136.33594-3 24.38477 21.650391c0.12773-0.16592 0.25418-0.332551 0.375-0.503907z" fill="#00ff2f"/>
                <path id="path3779" d="m-136.33594-3 24.03711 22.103516c0.13402-0.161014 0.25358-0.333349 0.38086-0.5z" fill="#0f3"/>
                <path id="path3776" d="m-136.33594-3 23.6543 22.525391c0.13958-0.155299 0.28881-0.301798 0.42187-0.462891z" fill="#00ff37"/>
                <path id="path3773" d="m-136.33594-3 23.27149 22.947266c0.14567-0.150197 0.28256-0.30864 0.42187-0.464844z" fill="#00ff3c"/>
                <path id="path3770" d="m-136.33594-3 22.86328 23.347656c0.15197-0.145173 0.30154-0.291936 0.44727-0.443359z" fill="#00ff40"/>
                <path id="path3767" d="m-136.33594-3 22.44141 23.730469c0.15672-0.138738 0.31411-0.276755 0.46484-0.421875z" fill="#0f4"/>
                <path id="path3764" d="m-136.33594-3 22.01758 24.111328c0.16203-0.132804 0.31057-0.280545 0.4668-0.419922z" fill="#00ff48"/>
                <path id="path3761" d="m-136.33594-3 21.5586 24.453125c0.16723-0.126721 0.34229-0.243463 0.5039-0.376953z" fill="#00ff4d"/>
                <path id="path3758" d="m-136.33594-3 21.10156 24.792969c0.17141-0.119893 0.33595-0.248211 0.50196-0.375z" fill="#00ff51"/>
                <path id="path3755" d="m-136.33594-3 20.62696 25.109375c0.17588-0.113288 0.34883-0.229259 0.51953-0.349609z" fill="#0f5"/>
                <path id="path3752" d="m-136.33594-3 20.13672 25.40625c0.18097-0.106981 0.36313-0.211901 0.53906-0.326172z" fill="#00ff59"/>
                <path id="path3749" d="m-136.33594-3 19.65039 25.701172c0.18454-0.09979 0.35738-0.217017 0.53711-0.324219z" fill="#00ff5e"/>
                <path id="path3746" d="m-136.33594-3 19.13086 25.949219c0.18922-0.09309 0.38379-0.176621 0.56836-0.277344z" fill="#00ff62"/>
                <path id="path3743" d="m-136.33594-3 18.61719 26.195312c0.19149-0.08527 0.3793-0.176582 0.56641-0.269531z" fill="#0f6"/>
                <path id="path3740" d="m-136.33594-3 18.08985 26.419922c0.19534-0.07812 0.38699-0.162068 0.57812-0.248047z" fill="#00ff6a"/>
                <path id="path3737" d="m-136.33594-3 17.55078 26.615234c0.19874-0.07074 0.39903-0.138033 0.59375-0.216796z" fill="#00ff6f"/>
                <path id="path3734" d="m-136.33594-3 17.01563 26.8125c0.20102-0.06297 0.39261-0.145723 0.58984-0.216797z" fill="#00ff73"/>
                <path id="path3731" d="m-136.33594-3 16.45703 26.958984c0.20399-0.05535 0.41095-0.102409 0.61133-0.166015z" fill="#0f7"/>
                <path id="path3728" d="m-136.33594-3 15.90039 27.101562c0.20573-0.0474 0.40899-0.100525 0.61133-0.15625z" fill="#00ff7b"/>
                <path id="path3725" d="m-136.33594-3 15.3418 27.226562c0.20776-0.03956 0.41065-0.09069 0.61523-0.138671z" fill="#00ff80"/>
                <path id="path3722" d="m-136.33594-3 14.76758 27.3125c0.21049-0.03173 0.42338-0.05538 0.63086-0.0957z" fill="#00ff84"/>
                <path id="path3719" d="m-136.33594-3 14.20117 27.396484c0.21101-0.02363 0.41679-0.06152 0.625-0.09375z" fill="#0f8"/>
                <path id="path3716" d="m-136.33594-3 13.62891 27.453125c0.2115-0.0156 0.41998-0.04025 0.62891-0.06445z" fill="#00ff8c"/>
                <path id="path3713" d="m-136.33594-3 13.05274 27.486328c0.21211-0.0076 0.42308-0.02086 0.63281-0.03711z" fill="#00ff91"/>
                <path id="path3710" d="m-136.33594-3 12.47461 27.5h0.0254c0.20409 0 0.40732-0.0076 0.60938-0.01563z" fill="#00ff95"/>
                <path id="path3707" d="m-136.33594-3 11.90039 27.5h0.59961c0.0111 0 0.0221 2.4e-5 0.0332 0z" fill="#0f9"/>
                <path id="path3704" d="m-136.33594-3 11.33399 27.5h0.62304z" fill="#00ff9d"/>
                <path id="path3701" d="m-136.33594-3 10.77735 27.5h0.61328z" fill="#00ffa2"/>
                <path id="path3698" d="m-136.33594-3 10.22852 27.5h0.60547z" fill="#00ffa6"/>
                <path id="path3695" d="m-136.33594-3 9.68555 27.5h0.59766z" fill="#0fa"/>
                <path id="path3692" d="m-136.33594-3 9.14844 27.5h0.58984z" fill="#00ffae"/>
                <path id="path3689" d="m-136.33594-3 8.61914 27.5h0.58203z" fill="#00ffb3"/>
                <path id="path3686" d="m-136.33594-3 8.09375 27.5h0.57813z" fill="#00ffb7"/>
                <path id="path3683" d="m-136.33594-3 7.57422 27.5h0.57227z" fill="#0fb"/>
                <path id="path3680" d="m-136.33594-3 7.0625 27.5h0.56446z" fill="#00ffbf"/>
                <path id="path3677" d="m-136.33594-3 6.55078 27.5h0.5625z" fill="#00ffc4"/>
                <path id="path3674" d="m-136.33594-3 6.04688 27.5h0.55664z" fill="#00ffc8"/>
                <path id="path3671" d="m-136.33594-3 5.54492 27.5h0.55274z" fill="#0fc"/>
                <path id="path3668" d="m-136.33594-3 5.04688 27.5h0.54883z" fill="#00ffd0"/>
                <path id="path3665" d="m-136.33594-3 4.55274 27.5h0.54492z" fill="#00ffd5"/>
                <path id="path3662" d="m-136.33594-3 4.06055 27.5h0.54101z" fill="#00ffd9"/>
                <path id="path3659" d="m-136.33594-3 3.57227 27.5h0.53711z" fill="#0fd"/>
                <path id="path3656" d="m-136.33594-3 3.08594 27.5h0.53516z" fill="#00ffe1"/>
                <path id="path3653" d="m-136.33594-3 2.59961 27.5h0.53516z" fill="#00ffe6"/>
                <path id="path3650" d="m-136.33594-3 2.11719 27.5h0.53125z" fill="#00ffea"/>
                <path id="path3647" d="m-136.33594-3 1.63477 27.5h0.52929z" fill="#0fe"/>
                <path id="path3644" d="m-136.33594-3 1.1543 27.5h0.52734z" fill="#00fff2"/>
                <path id="path3641" d="m-136.33594-3 0.67188 27.5h0.52929z" fill="#00fff7"/>
                <path id="path3638" d="m-136.33594-3 0.19141 27.5h0.5293z" fill="#00fffb"/>
                <path id="path3635" d="m-136.33594-3-0.28711 27.5h0.52735z" fill="#0ff"/>
                <path id="path3632" d="m-136.33594-3-0.76758 27.5h0.52735z" fill="#00fbff"/>
                <path id="path3629" d="m-136.33594-3-1.24804 27.5h0.52734z" fill="#00f7ff"/>
                <path id="path3626" d="m-136.33594-3-1.73047 27.5h0.53125z" fill="#00f2ff"/>
                <path id="path3623" d="m-136.33594-3-2.21289 27.5h0.53125z" fill="#0ef"/>
                <path id="path3620" d="m-136.33594-3-2.69531 27.5h0.53125z" fill="#00eaff"/>
                <path id="path3617" d="m-136.33594-3-3.18164 27.5h0.53516z" fill="#00e6ff"/>
                <path id="path3614" d="m-136.33594-3-3.66992 27.5h0.53711z" fill="#00e1ff"/>
                <path id="path3611" d="m-136.33594-3-4.1582 27.5h0.53711z" fill="#0df"/>
                <path id="path3608" d="m-136.33594-3-4.65039 27.5h0.54102z" fill="#00d9ff"/>
                <path id="path3605" d="m-136.33594-3-5.14648 27.5h0.54492z" fill="#00d5ff"/>
                <path id="path3602" d="m-136.33594-3-5.64453 27.5h0.54883z" fill="#00d0ff"/>
                <path id="path3599" d="m-136.33594-3-6.14648 27.5h0.55273z" fill="#0cf"/>
                <path id="path3596" d="m-136.33594-3-6.65234 27.5h0.55664z" fill="#00c8ff"/>
                <path id="path3593" d="m-136.33594-3-7.16406 27.5h0.5625z" fill="#00c4ff"/>
                <path id="path3590" d="m-136.33594-3-7.67773 27.5h0.56445z" fill="#00bfff"/>
                <path id="path3587" d="m-136.33594-3-8.19726 27.5h0.57031z" fill="#0bf"/>
                <path id="path3584" d="m-136.33594-3-8.72265 27.5h0.57812z" fill="#00b7ff"/>
                <path id="path3581" d="m-136.33594-3-9.25586 27.5h0.58594z" fill="#00b3ff"/>
                <path id="path3578" d="m-136.33594-3-9.79101 27.5h0.58984z" fill="#00aeff"/>
                <path id="path3575" d="m-136.33594-3-10.33594 27.5h0.59766z" fill="#0af"/>
                <path id="path3572" d="m-136.33594-3-10.88867 27.5h0.60547z" fill="#00a6ff"/>
                <path id="path3569" d="m-136.33594-3-11.44531 27.5h0.61328z" fill="#00a2ff"/>
                <path id="path3566" d="m-136.33594-3-12.01367 27.5h0.62305z" fill="#009dff"/>
                <path id="path3563" d="m-136.33594-3-12.58984 27.498047c0.0301 1.76e-4 0.0597 2e-3 0.0898 2e-3h0.54297z" fill="#09f"/>
                <path id="path3560" d="m-136.33594-3-13.16797 27.482422c0.21145 0.0092 0.42303 0.01714 0.63672 0.01758z" fill="#0095ff"/>
                <path id="path3557" d="m-136.33594-3-13.74414 27.445312c0.21055 0.01716 0.42179 0.03061 0.63477 0.03906z" fill="#0091ff"/>
                <path id="path3554" d="m-136.33594-3-14.3125 27.380859c0.20845 0.02495 0.41591 0.05198 0.62696 0.06836z" fill="#008cff"/>
                <path id="path3551" d="m-136.33594-3-14.88086 27.294922c0.20732 0.0329 0.41294 0.06938 0.62305 0.09375z" fill="#08f"/>
                <path id="path3548" d="m-136.33594-3-15.45508 27.208984c0.2071 0.04109 0.42074 0.06123 0.63086 0.09375z" fill="#0084ff"/>
                <path id="path3545" d="m-136.33594-3-16.01172 27.074219c0.2042 0.04874 0.40588 0.102242 0.61328 0.142578z" fill="#0080ff"/>
                <path id="path3542" d="m-136.33594-3-16.56836 26.931641c0.20201 0.05651 0.40592 0.108045 0.61133 0.15625z" fill="#007bff"/>
                <path id="path3539" d="m-136.33594-3-17.12109 26.771484c0.20035 0.06447 0.40539 0.117625 0.60937 0.173828z" fill="#07f"/>
                <path id="path3536" d="m-136.33594-3-17.6582 26.576172c0.1972 0.07192 0.39077 0.152989 0.5918 0.216797z" fill="#0072ff"/>
                <path id="path3533" d="m-136.33594-3-18.19726 26.378906c0.19411 0.07937 0.39561 0.145408 0.59375 0.216797z" fill="#006fff"/>
                <path id="path3530" d="m-136.33594-3-18.71875 26.146484c0.19037 0.08652 0.37965 0.173248 0.57422 0.251954z" fill="#006aff"/>
                <path id="path3527" d="m-136.33594-3-19.23437 25.900391c0.18716 0.09389 0.37482 0.185294 0.5664 0.271484z" fill="#06f"/>
                <path id="path3524" d="m-136.33594-3-19.74804 25.642578c0.1839 0.101299 0.37589 0.187546 0.56445 0.28125z" fill="#0062ff"/>
                <path id="path3521" d="m-136.33594-3-20.23437 25.347656c0.17862 0.107452 0.35174 0.224104 0.53515 0.324219z" fill="#005eff"/>
                <path id="path3518" d="m-136.33594-3-20.72265 25.050781c0.17481 0.114467 0.35727 0.218922 0.53711 0.326172z" fill="#0059ff"/>
                <path id="path3515" d="m-136.33594-3-21.19336 24.724609c0.17146 0.121905 0.34279 0.242666 0.51953 0.357422z" fill="#05f"/>
                <path id="path3512" d="m-136.33594-3-21.64844 24.384766c0.1657 0.127543 0.33085 0.254349 0.50196 0.375z" fill="#0051ff"/>
                <path id="path3509" d="m-136.33594-3-22.10156 24.037109c0.16077 0.133819 0.33166 0.253764 0.49805 0.38086z" fill="#004dff"/>
                <path id="path3506" d="m-136.33594-3-22.52539 23.652344c0.15596 0.140226 0.30304 0.290179 0.46485 0.423828z" fill="#0048ff"/>
                <path id="path3503" d="m-136.33594-3-22.94531 23.271484c0.14954 0.145033 0.3074 0.281198 0.46289 0.419922z" fill="#04f"/>
                <path id="path3500" d="m-136.33594-3-23.3457 22.863281c0.14454 0.151297 0.29067 0.300193 0.44141 0.445313z" fill="#0040ff"/>
                <path id="path3497" d="m-136.33594-3-23.72851 22.441406c0.13812 0.156035 0.27546 0.312793 0.41992 0.462891z" fill="#003cff"/>
                <path id="path3494" d="m-136.33594-3-24.10937 22.015625c0.13252 0.161725 0.27889 0.310854 0.41797 0.466797z" fill="#0037ff"/>
                <path id="path3491" d="m-136.33594-3-24.45117 21.558594c0.12633 0.166714 0.24389 0.340829 0.37695 0.501953z" fill="#03f"/>
                <path id="path3488" d="m-136.33594-3-24.79492 21.099609c0.12029 0.172035 0.24972 0.337301 0.37695 0.503907z" fill="#002fff"/>
                <path id="path3485" d="m-136.33594-3-25.11133 20.626953c0.11342 0.176106 0.23107 0.348629 0.35157 0.519531z" fill="#002bff"/>
                <path id="path3482" d="m-136.33594-3-25.40625 20.136719c0.10698 0.180973 0.2119 0.363125 0.32617 0.539062z" fill="#0026ff"/>
                <path id="path3479" d="m-136.33594-3-25.70117 19.650391c0.0995 0.184049 0.21732 0.355889 0.32422 0.535156z" fill="#02f"/>
                <path id="path3476" d="m-136.33594-3-25.94922 19.132812c0.0929 0.188682 0.1769 0.382347 0.27735 0.566407z" fill="#001eff"/>
                <path id="path3473" d="m-136.33594-3-26.19531 18.617188c0.0853 0.191485 0.17658 0.379304 0.26953 0.566406z" fill="#001aff"/>
                <path id="path3470" d="m-136.33594-3-26.41992 18.089844c0.0781 0.195339 0.16207 0.38699 0.24805 0.578125z" fill="#0015ff"/>
                <path id="path3467" d="m-136.33594-3-26.61523 17.550781c0.0707 0.19874 0.13803 0.399025 0.21679 0.59375z" fill="#01f"/>
                <path id="path3464" d="m-136.33594-3-26.8125 17.015625c0.063 0.20102 0.14573 0.392616 0.2168 0.589844z" fill="#000dff"/>
                <path id="path3461" d="m-136.33594-3-26.95898 16.455078c0.0555 0.204663 0.1022 0.412245 0.16601 0.613281z" fill="#0009ff"/>
                <path id="path3458" d="m-136.33594-3-27.10156 15.900391c0.0474 0.205796 0.10051 0.408918 0.15625 0.611328z" fill="#0004ff"/>
                <path id="path3455" d="m-136.33594-3-27.22461 15.339844c0.0395 0.207571 0.0888 0.410842 0.13672 0.615234z" fill="#00f"/>
                <path id="path3452" d="m-136.33594-3-27.31054 14.767578c0.0316 0.209542 0.0556 0.422352 0.0957 0.628906z" fill="#0400ff"/>
                <path id="path3449" d="m-136.33594-3-27.39648 14.201172c0.0236 0.210046 0.0617 0.415768 0.0937 0.623047z" fill="#0900ff"/>
                <path id="path3446" d="m-136.33594-3-27.45312 13.628906c0.0156 0.211389 0.0402 0.420098 0.0644 0.628906z" fill="#0d00ff"/>
                <path id="path3443" d="m-136.33594-3-27.48633 13.052734c8e-3 0.212303 0.0208 0.422901 0.0371 0.632813z" fill="#10f"/>
                <path id="path3440" d="m-136.33594-3-27.5 12.474609v0.0253906c0 0.2046041 8e-3 0.4068108 0.0156 0.609375z" fill="#1500ff"/>
                <path id="path3437" d="m-136.33594-3-27.5 11.900391v0.5996094c0 0.010486-2e-5 0.020769 0 0.03125z" fill="#1a00ff"/>
                <path id="path3434" d="m-136.33594-3-27.5 11.333984v0.6230468z" fill="#1e00ff"/>
                <path id="path3431" d="m-136.33594-3-27.5 10.777344v0.6132812z" fill="#20f"/>
                <path id="path3428" d="m-136.33594-3-27.5 10.226562v0.6074219z" fill="#2600ff"/>
                <path id="path3425" d="m-136.33594-3-27.5 9.6835938v0.5996093z" fill="#2b00ff"/>
                <path id="path3422" d="m-136.33594-3-27.5 9.1464844v0.5917968z" fill="#2f00ff"/>
                <path id="path3419" d="m-136.33594-3-27.5 8.6191406v0.5820313z" fill="#30f"/>
                <path id="path3416" d="m-136.33594-3-27.5 8.09375v0.578125z" fill="#3700ff"/>
                <path id="path3413" d="m-136.33594-3-27.5 7.5761719v0.5703125z" fill="#3c00ff"/>
                <path id="path3410" d="m-136.33594-3-27.5 7.0625v0.5644531z" fill="#4000ff"/>
                <path id="path3407" d="m-136.33594-3-27.5 6.5507812v0.5625z" fill="#40f"/>
                <path id="path3404" d="m-136.33594-3-27.5 6.046875v0.5546875z" fill="#4800ff"/>
                <path id="path3401" d="m-136.33594-3-27.5 5.5449219v0.5527343z" fill="#4d00ff"/>
                <path id="path3398" d="m-136.33594-3-27.5 5.046875v0.5488281z" fill="#5100ff"/>
                <path id="path3395" d="m-136.33594-3-27.5 4.5527344v0.5449218z" fill="#50f"/>
                <path id="path3392" d="m-136.33594-3-27.5 4.0605469v0.5410156z" fill="#5900ff"/>
                <path id="path3389" d="m-136.33594-3-27.5 3.5722656v0.53710938z" fill="#5e00ff"/>
                <path id="path3386" d="m-136.33594-3-27.5 3.0859375v0.53515625z" fill="#6200ff"/>
                <path id="path3383" d="m-136.33594-3-27.5 2.5996094v0.53515624z" fill="#60f"/>
                <path id="path3380" d="m-136.33594-3-27.5 2.1171875v0.53125z" fill="#6a00ff"/>
                <path id="path3377" d="m-136.33594-3-27.5 1.6347656v0.5292969z" fill="#6f00ff"/>
                <path id="path3374" d="m-136.33594-3-27.5 1.1523438v0.5292968z" fill="#7300ff"/>
                <path id="path3371" d="m-136.33594-3-27.5 0.671875v0.5292969z" fill="#70f"/>
                <path id="path3368" d="m-136.33594-3-27.5 0.1914062v0.5292969z" fill="#7b00ff"/>
                <path id="path3365" d="m-163.83594-3.2890625v0.5292969l27.5-0.2402344z" fill="#8000ff"/>
                <path id="path3362" d="m-163.83594-3.7675781v0.5273437l27.5 0.2402344z" fill="#8400ff"/>
                <path id="path3359" d="m-163.83594-4.2480469v0.5273438l27.5 0.7207031z" fill="#80f"/>
                <path id="path3356" d="m-163.83594-4.7304688v0.5292969l27.5 1.2011719z" fill="#8c00ff"/>
                <path id="path3353" d="m-163.83594-5.2128906v0.53125l27.5 1.6816406z" fill="#9100ff"/>
                <path id="path3350" d="m-163.83594-5.6972656v0.5332031l27.5 2.1640625z" fill="#9500ff"/>
                <path id="path3347" d="m-163.83594-6.1816406v0.5332031l27.5 2.6484375z" fill="#90f"/>
                <path id="path3344" d="m-163.83594-6.6699219v0.5351563l27.5 3.1347656z" fill="#9d00ff"/>
                <path id="path3341" d="m-163.83594-7.1601562v0.5390624l27.5 3.6210938z" fill="#a200ff"/>
                <path id="path3338" d="m-163.83594-7.6503906v0.5410156l27.5 4.109375z" fill="#a600ff"/>
                <path id="path3335" d="m-163.83594-8.1464844v0.5449219l27.5 4.6015625z" fill="#a0f"/>
                <path id="path3332" d="m-163.83594-8.6445312v0.546875l27.5 5.0976562z" fill="#ae00ff"/>
                <path id="path3329" d="m-163.83594-9.1464844v0.5507813l27.5 5.5957031z" fill="#b300ff"/>
                <path id="path3326" d="m-163.83594-9.6542969v0.5566407l27.5 6.0976562z" fill="#b700ff"/>
                <path id="path3323" d="m-163.83594-10.164062v0.5624995l27.5 6.6015625z" fill="#b0f"/>
                <path id="path3320" d="m-163.83594-10.677734v0.564453l27.5 7.113281z" fill="#bf00ff"/>
                <path id="path3317" d="m-163.83594-11.199219v0.572266l27.5 7.626953z" fill="#c400ff"/>
                <path id="path3314" d="m-163.83594-11.722656v0.576172l27.5 8.146484z" fill="#c800ff"/>
                <path id="path3311" d="m-163.83594-12.255859v0.583984l27.5 8.671875z" fill="#c0f"/>
                <path id="path3308" d="m-163.83594-12.792969v0.591797l27.5 9.201172z" fill="#d000ff"/>
                <path id="path3305" d="m-163.83594-13.335938v0.597657l27.5 9.738281z" fill="#d500ff"/>
                <path id="path3302" d="m-163.83594-13.888672v0.605469l27.5 10.283203z" fill="#d900ff"/>
                <path id="path3299" d="m-163.83594-14.447266v0.613282l27.5 10.833984z" fill="#d0f"/>
                <path id="path3296" d="m-163.83594-15.013672v0.623047l27.5 11.390625z" fill="#e100ff"/>
                <path id="path3293" d="m-163.83398-15.589844c-1.8e-4 0.03012-2e-3 0.05968-2e-3 0.08984v0.542969l27.50004 11.957035z" fill="#e600ff"/>
                <path id="path3290" d="m-163.81836-16.167969c-9e-3 0.211451-0.0171 0.423029-0.0176 0.636719l27.5 12.53125z" fill="#ea00ff"/>
                <path id="path3287" d="m-163.78125-16.744141c-0.0172 0.21055-0.0306 0.421789-0.0391 0.634766l27.48441 13.109375z" fill="#e0f"/>
                <path id="path3284" d="m-163.7168-17.3125c-0.0249 0.208317-0.052 0.416047-0.0684 0.626953l27.44926 13.685547z" fill="#f200ff"/>
                <path id="path3281" d="m-163.62891-17.880859c-0.0328 0.207114-0.0714 0.413146-0.0957 0.623047l27.38867 14.257812z" fill="#f700ff"/>
                <path id="path3278" d="m-163.54297-18.455078c-0.041 0.206893-0.0632 0.420943-0.0957 0.630859l27.30273 14.824219z" fill="#fb00ff"/>
                <path id="path3275" d="m-163.4082-19.011719c-0.0489 0.204819-0.10217 0.407197-0.14258 0.615235l27.21484 15.396484z" fill="#f0f"/>
                <path id="path3272" d="m-163.26758-19.568359c-0.0567 0.202694-0.10794 0.407163-0.15625 0.613281l27.08789 15.955078z" fill="#ff00fb"/>
                <path id="path3269" d="m-163.10938-20.121094c-0.0644 0.200274-0.11572 0.405472-0.17187 0.609375l26.94531 16.511719z" fill="#ff00f7"/>
                <path id="path3266" d="m-162.91211-20.658203c-0.0718 0.196879-0.15309 0.389155-0.2168 0.589844l26.79297 17.068359z" fill="#ff00f2"/>
                <path id="path3263" d="m-162.71484-21.199219c-0.0795 0.194347-0.14531 0.395371-0.2168 0.59375l26.5957 17.605469z" fill="#f0e"/>
                <path id="path3260" d="m-162.48242-21.71875c-0.0865 0.1903-0.17328 0.379716-0.25196 0.574219l26.39844 18.144531z" fill="#ff00ea"/>
                <path id="path3257" d="m-162.23633-22.234375c-0.0938 0.186947-0.1854 0.375047-0.27148 0.566406l26.17187 18.667969z" fill="#ff00e6"/>
                <path id="path3254" d="m-161.97852-22.748047c-0.10134 0.184034-0.18946 0.375759-0.2832 0.564453l25.92578 19.183594z" fill="#ff00e1"/>
                <path id="path3251" d="m-161.68359-23.234375c-0.10757 0.178834-0.22401 0.351521-0.32422 0.535156l25.67187 19.699219z" fill="#f0d"/>
                <path id="path3248" d="m-161.38672-23.724609c-0.11492 0.175472-0.21852 0.358536-0.32617 0.539062l25.37695 20.185547z" fill="#ff00d9"/>
                <path id="path3245" d="m-161.06055-24.193359c-0.1213 0.170629-0.24124 0.341712-0.35547 0.517578l25.08008 20.675781z" fill="#ff00d5"/>
                <path id="path3242" d="m-160.71875-24.650391c-0.12787 0.16609-0.25601 0.332369-0.37695 0.503907l24.75976 21.146484z" fill="#ff00d0"/>
                <path id="path3239" d="m-160.37305-25.103516c-0.13388 0.160872-0.25371 0.333502-0.38086 0.5l24.41797 21.603516z" fill="#f0c"/>
                <path id="path3236" d="m-159.98828-25.525391c-0.13991 0.155657-0.28852 0.303366-0.42188 0.464844l24.07422 22.060547z" fill="#ff00c8"/>
                <path id="path3233" d="m-159.60547-25.947266c-0.14567 0.150197-0.28257 0.30864-0.42187 0.464844l23.6914 22.482422z" fill="#ff00c4"/>
                <path id="path3230" d="m-159.19922-26.345703c-0.15127 0.144566-0.30022 0.290645-0.44531 0.441406l23.30859 22.904297z" fill="#ff00bf"/>
                <path id="path3227" d="m-158.77539-26.730469c-0.15672 0.138738-0.31411 0.276755-0.46484 0.421875l22.90429 23.308594z" fill="#f0b"/>
                <path id="path3224" d="m-158.35156-27.111328c-0.16205 0.132814-0.31056 0.280534-0.4668 0.419922l22.48242 23.691406z" fill="#ff00b7"/>
                <path id="path3221" d="m-157.89453-27.453125c-0.16699 0.12655-0.34057 0.243653-0.50195 0.376953l22.06054 24.076172z" fill="#ff00b3"/>
                <path id="path3218" d="m-157.4375-27.794922c-0.17192 0.120238-0.33546 0.249779-0.50195 0.376953l21.60351 24.417969z" fill="#ff00ae"/>
                <path id="path3215" d="m-156.96094-28.111328c-0.17664 0.11374-0.35007 0.2307-0.52148 0.351562l21.14648 24.759766z" fill="#f0a"/>
                <path id="path3212" d="m-156.47266-28.40625c-0.17998 0.106415-0.3621 0.210593-0.53711 0.324219l20.67383 25.082031z" fill="#ff00a6"/>
                <path id="path3209" d="m-155.98438-28.701172c-0.18433 0.09968-0.35757 0.217143-0.5371 0.324219l20.18554 25.376953z" fill="#ff00a2"/>
                <path id="path3206" d="m-155.4668-28.949219c-0.18938 0.09319-0.38363 0.176509-0.56836 0.277344l19.69922 25.671875z" fill="#ff009d"/>
                <path id="path3203" d="m-154.95312-29.195312c-0.19198 0.08549-0.37884 0.178274-0.56641 0.271484l19.18359 25.923828z" fill="#f09"/>
                <path id="path3200" d="m-154.42578-29.419922c-0.19536 0.07813-0.38697 0.162051-0.57813 0.248047l18.66797 26.171875z" fill="#ff0095"/>
                <path id="path3197" d="m-153.88477-29.615234c-0.19907 0.07085-0.40065 0.137899-0.5957 0.216796l18.14453 26.398438z" fill="#ff0091"/>
                <path id="path3194" d="m-153.35156-29.810547c-0.19996 0.06267-0.39169 0.144152-0.58789 0.214844l17.60351 26.595703z" fill="#ff008c"/>
                <path id="path3191" d="m-152.79102-29.958984c-0.20394 0.05534-0.41098 0.102424-0.61132 0.166015l17.0664 26.792969z" fill="#f08"/>
                <path id="path3188" d="m-152.23633-30.101562c-0.20572 0.04743-0.40899 0.1005-0.61133 0.15625l16.51172 26.945312z" fill="#ff0084"/>
                <path id="path3185" d="m-151.67773-30.226562c-0.20776 0.03958-0.41067 0.09067-0.61524 0.138671l15.95703 27.087891z" fill="#ff0080"/>
                <path id="path3182" d="m-151.10352-30.3125c-0.21048 0.03176-0.42339 0.05535-0.63086 0.0957l15.39844 27.2168z" fill="#ff007b"/>
                <path id="path3179" d="m-150.53711-30.396484c-0.21035 0.02359-0.41547 0.06162-0.62305 0.09375l14.82422 27.302734z" fill="#f07"/>
                <path id="path3176" d="m-149.96484-30.453125c-0.2115 0.01562-0.41999 0.04022-0.62891 0.06445l14.25781 27.388675z" fill="#ff0073"/>
                <path id="path3173" d="m-149.38672-30.486328c-0.21296 0.0076-0.42421 0.02077-0.63476 0.03711l13.68554 27.449218z" fill="#ff006f"/>
                <path id="path3170" d="m-148.83594-30.5c-0.2046 0-0.40681 0.0076-0.60937 0.01563l13.10937 27.48437-12.47461-27.5z" fill="#ff006a"/>
                <path id="path3167" d="m-148.86719-30.5 12.53125 27.5-11.90039-27.5h-0.59961c-0.0105 0-0.0208-2.1e-5 -0.0312 0z" fill="#f06"/>
                <path id="path3164" d="m-148.29297-30.5 11.95703 27.5-11.33398-27.5z" fill="#ff0062"/>
                <path id="path3161" d="m-147.72656-30.5 11.39062 27.5-10.77539-27.5z" fill="#ff005e"/>
                <path id="path3158" d="m-147.16797-30.5 10.83203 27.5-10.22656-27.5z" fill="#ff0059"/>
                <path id="path3155" d="m-146.61914-30.5 10.2832 27.5-9.68359-27.5z" fill="#f05"/>
                <path id="path3152" d="m-146.07422-30.5 9.73828 27.5-9.14648-27.5z" fill="#ff0051"/>
                <path id="path3149" d="m-145.53711-30.5 9.20117 27.5-8.61914-27.5z" fill="#ff004d"/>
                <path id="path3146" d="m-145.00586-30.5 8.66992 27.5-8.09179-27.5z" fill="#ff0048"/>
                <path id="path3143" d="m-144.48047-30.5 8.14453 27.5-7.57422-27.5z" fill="#f04"/>
                <path id="path3140" d="m-143.96289-30.5 7.62695 27.5-7.06054-27.5z" fill="#ff0040"/>
                <path id="path3137" d="m-143.44922-30.5 7.11328 27.5-6.55078-27.5z" fill="#ff003c"/>
                <path id="path3134" d="m-142.9375-30.5 6.60156 27.5-6.04687-27.5z" fill="#ff0037"/>
                <path id="path3131" d="m-142.43164-30.5 6.0957 27.5-5.54492-27.5z" fill="#f03"/>
                <path id="path3128" d="m-141.92969-30.5 5.59375 27.5-5.04687-27.5z" fill="#ff002f"/>
                <path id="path3125" d="m-141.43164-30.5 5.0957 27.5-4.55273-27.5z" fill="#ff002b"/>
                <path id="path3122" d="m-140.9375-30.5 4.60156 27.5-4.06054-27.5z" fill="#ff0026"/>
                <path id="path3119" d="m-140.44531-30.5 4.10937 27.5-3.57226-27.5z" fill="#f02"/>
                <path id="path3116" d="m-139.95703-30.5 3.62109 27.5-3.08398-27.5z" fill="#ff001e"/>
                <path id="path3113" d="m-139.46875-30.5 3.13281 27.5-2.59961-27.5z" fill="#ff001a"/>
                <path id="path3110" d="m-138.98242-30.5 2.64648 27.5-2.11718-27.5z" fill="#ff0015"/>
                <path id="path3107" d="m-138.5-30.5 2.16406 27.5-1.63476-27.5z" fill="#f01"/>
                <path id="path3104" d="m-138.01758-30.5 1.68164 27.5-1.15234-27.5z" fill="#ff000d"/>
                <path id="path3101" d="m-137.53516-30.5 1.19922 27.5-0.67187-27.5z" fill="#ff0009"/>
                <path id="path3098" d="m-137.05664-30.5 0.7207 27.5-0.1914-27.5z" fill="#ff0004"/>
            </g>
        </g>
        <path id="path7020" d="m19.5 4.5c-8.309991 0-15 6.690009-15 15v25c0 8.309991 6.690009 15 15 15h25c8.309991 0 15-6.690009 15-15v-25c0-8.309991-6.690009-15-15-15z" fill="url(#radialGradient7028)"/>
    </g>
    <g fill="#5e4aa6">
        <circle id="circle20" cx="-1344.4585" cy="-1259.7534" r="0"/>
        <circle id="circle22" cx="-244.90849" cy="5.7015395" r="0" fill-rule="evenodd"/>
        <circle id="circle24-1" cx="-1246.6586" cy="-1274.7534" r="0"/>
        <circle id="circle26-2" cx="-147.08549" cy="-9.2790594" r="0" fill-rule="evenodd"/>
        <g stroke-width="1.00001">
            <circle id="circle28-7" cx="-1176.5922" cy="-1254.6639" r="0"/>
            <circle id="circle30" cx="-1107.6522" cy="-1246.6134" r="0"/>
            <circle id="circle32" cx="-1084.6344" cy="-1272.3903" r="0"/>
            <circle id="circle34" cx="-1095.293" cy="-1245.7063" r="0"/>
            <circle id="circle38-0" cx="-1176.5922" cy="-1254.6639" r="0"/>
            <circle id="circle40" cx="-1107.6522" cy="-1246.6134" r="0"/>
            <circle id="circle42" cx="-1084.6344" cy="-1272.3903" r="0"/>
            <circle id="circle44" cx="-1095.293" cy="-1245.7063" r="0"/>
            <circle id="circle48" cx="-1176.5916" cy="-1254.6642" r="0"/>
            <circle id="circle50" cx="-1107.6516" cy="-1246.6135" r="0"/>
            <circle id="circle52" cx="-1084.6339" cy="-1272.3905" r="0"/>
            <circle id="circle54" cx="-1095.2924" cy="-1245.7065" r="0"/>
        </g>
        <circle id="circle20-2" cx="-1344.4585" cy="-1259.7534" r="0"/>
        <circle id="circle22-7" cx="-244.90849" cy="5.7015395" r="0" fill-rule="evenodd"/>
        <circle id="circle24-0" cx="-1344.4585" cy="-1259.7534" r="0"/>
        <circle id="circle26-9" cx="-244.90849" cy="5.7015395" r="0" fill-rule="evenodd"/>
        <circle id="circle28-3" cx="-1246.6586" cy="-1274.7534" r="0"/>
        <circle id="circle30-6" cx="-147.08549" cy="-9.2790594" r="0" fill-rule="evenodd"/>
        <g stroke-width="1.00001">
            <circle id="circle32-0" cx="-1176.5922" cy="-1254.6639" r="0"/>
            <circle id="circle34-6" cx="-1107.6522" cy="-1246.6134" r="0"/>
            <circle id="circle36-9" cx="-1084.6344" cy="-1272.3903" r="0"/>
            <circle id="circle38-2" cx="-1095.293" cy="-1245.7063" r="0"/>
            <circle id="circle42-6" cx="-1176.5922" cy="-1254.6639" r="0"/>
            <circle id="circle44-1" cx="-1107.6522" cy="-1246.6134" r="0"/>
            <circle id="circle46" cx="-1084.6344" cy="-1272.3903" r="0"/>
            <circle id="circle48-8" cx="-1095.293" cy="-1245.7063" r="0"/>
            <circle id="circle52-9" cx="-1176.5916" cy="-1254.6642" r="0"/>
            <circle id="circle54-2" cx="-1107.6516" cy="-1246.6135" r="0"/>
            <circle id="circle56" cx="-1084.6339" cy="-1272.3905" r="0"/>
            <circle id="circle58" cx="-1095.2924" cy="-1245.7065" r="0"/>
        </g>
    </g>
    <path id="path6668" d="m19.5 4.5c-1.607501 0.1367969-4.792492 0.1411421-5.294924 1.3912816 4.821616 8.5505624 9.643231 17.101125 14.464846 25.651687-5.052083 8.905599-10.104167 17.811198-15.15625 26.716797 2.028567 0.888451 4.253911 1.293819 6.464844 1.240234 4.015625-7.760417 8.03125-15.520833 12.046875-23.28125 4.015625 7.760417 8.03125 15.520833 12.046875 23.28125 2.194416 0.0491 4.40107-0.361076 6.414062-1.242188-5.035156-8.904948-10.070313-17.809895-15.105469-26.714843 4.869792-8.666016 9.739583-17.332031 14.609375-25.998047-2.081831-0.8489032-4.344572-1.1134253-6.578125-1.0449219l-11.488281 22.365234c-3.795573-7.455078-7.591146-14.910156-11.386719-22.365234h-1.037109z" fill="#fdfdfd" style="white-space:pre"/>
</svg>
