<svg id="svg993" width="64" height="64" version="1.1" viewBox="0 0 16.933 16.933" xmlns="http://www.w3.org/2000/svg">
    <defs id="defs939">
        <filter id="filter1057-1" x="-.026999999" y="-.026999999" width="1.054" height="1.054" color-interpolation-filters="sRGB">
            <feGaussianBlur id="feGaussianBlur895" stdDeviation="0.61875"/>
        </filter>
        <linearGradient id="linearGradient1053-2" x1="-127" x2="-80.659" y1="60" y2="13.659" gradientTransform="matrix(.26458 0 0 .26458 34.792 -.13493)" gradientUnits="userSpaceOnUse">
            <stop id="stop898" stop-color="#0f3612" offset="0"/>
            <stop id="stop900" stop-color="#1b641e" offset="1"/>
        </linearGradient>
    </defs>
    <rect id="rect941" transform="scale(.26458)" x="4.5" y="4.5" width="55" height="55" ry="15" fill="#141414" filter="url(#filter1057-1)" opacity=".3" stroke-linecap="round" stroke-width="2.7444"/>
    <rect id="rect943" x="1.1906" y="1.1906" width="14.552" height="14.552" ry="3.9687" fill="url(#linearGradient1053-2)" stroke-linecap="round" stroke-width=".72611"/>
    <path id="rect1682" d="m5.3997989 1.7197584c-2.0387556 0-3.6800412 1.6412859-3.6800412 3.680041v6.1334016c0 2.038755 1.6412856 3.680041 3.6800412 3.680041h6.1334011c2.038754 0 3.680042-1.641286 3.680042-3.680041v-6.1334016c0-2.0387552-1.641288-3.6800411-3.680042-3.6800411zm0.1672308 0.3680041h5.7989393c1.927523 0 3.479267 1.5517445 3.479267 3.4792679v5.7989396c0 1.927524-1.551744 3.479268-3.479267 3.479268h-5.7989393c-1.9275236 0-3.4792681-1.551744-3.4792681-3.479268v-5.7989396c0-1.9275235 1.5517445-3.4792679 3.4792681-3.4792679z" fill="#62ca13" stroke-width=".927273"/>
    <g id="g1719" transform="matrix(.40103606 0 0 .40103606 5.4955093 -.96433838)" fill="#62ca13">
        <path id="path1469" d="m1.1436201 26.35248q-0.1222542-0.244508-0.3056352-0.537918-0.17115572-0.29341-0.37898738-0.599044-0.20783199-0.317861-0.44011461-0.623496-0.22005698-0.305635-0.44011428-0.574594-0.22005731 0.281184-0.46456524 0.586819-0.24450789 0.305635-0.47679059 0.623496-0.2200573 0.305635-0.4156636 0.599045-0.1956067 0.293409-0.3300858 0.525692h-1.0391593q0.4034383-0.733524 0.9780321-1.503724 0.5868193-0.782426 1.1491877-1.479274l-2.0416419-2.689588h1.1369624l1.5281749 1.980515 1.4059213-1.980515h1.0758352l-1.8704862 2.628461q0.5501431 0.721299 1.1002859 1.503724 0.5623687 0.782426 0.9535814 1.540401z"/>
        <path id="path1471" d="m4.7187109 20.545414q1.1491877 0 1.7726831 0.721299 0.6234956 0.709073 0.6234956 2.163896v0.354537h-4.0588333q0.061127 0.880229 0.574594 1.344794 0.5256922 0.45234 1.4670479 0.45234 0.5379178 0 0.9169052-0.08558t0.5745937-0.183381l0.1344795 0.855778q-0.1833811 0.0978-0.6601715 0.207832-0.4767906 0.110028-1.0758352 0.110028-0.7335241 0-1.2958925-0.220057-0.5501433-0.232281-0.9169052-0.623493-0.3667622-0.391213-0.5501432-0.929131-0.183381-0.550143-0.183381-1.185864 0-0.757975 0.2322825-1.320343 0.2322827-0.562368 0.6112704-0.929131 0.3789873-0.366762 0.8557779-0.550143t0.9780321-0.183381zm1.369245 2.42063q0-0.721299-0.3789877-1.136962-0.3789873-0.42789-1.0024826-0.42789-0.3545365 0-0.647946 0.13448-0.2811842 0.134479-0.4890162 0.354536-0.2078317 0.220058-0.3300858 0.501242-0.1222538 0.281184-0.1589301 0.574594z"/>
        <path id="path1473" d="m7.6370945 20.838824q0.7335242-0.281184 1.3814708-0.281184 0.354536 0 0.6601724 0.110028 0.31786 0.0978 0.5379173 0.317861 0.525692-0.427889 1.124737-0.427889 0.29341 0 0.550143 0.110028 0.268959 0.110029 0.464565 0.330086 0.207832 0.220057 0.330086 0.550143t0.122254 0.7702v4.034383h-0.916905v-4.058833q0-0.440115-0.195606-0.672397-0.195607-0.232283-0.489016-0.232283-0.146705 0-0.305635 0.07335-0.158931 0.07335-0.29341 0.232283 0.07335 0.281184 0.07335 0.623495v1.846036h-0.9169063v-1.858261q0-0.427889-0.134479-0.672397-0.13448-0.244508-0.5256924-0.244508-0.2445082 0-0.5501433 0.110029v4.853486h-0.9169025z"/>
        <path id="path1475" d="m17.964072 26.19355q-0.330086 0.08558-0.880229 0.183381-0.537918 0.0978-1.271442 0.0978-0.647946 0-1.075835-0.183381-0.427889-0.195606-0.696848-0.537918-0.268959-0.354536-0.378987-0.831327-0.110029-0.476791-0.110029-1.051384v-3.19083h1.002483v2.970772q0 1.051385 0.305635 1.491499 0.317861 0.440115 1.051384 0.440115 0.158931 0 0.317861-0.01223 0.171156-0.01223 0.31786-0.02445 0.146705-0.02445 0.256734-0.03668 0.110028-0.02445 0.146705-0.03668v-4.792358h1.014708z"/>
    </g>
</svg>
