<svg id="svg27" width="64" height="64" version="1.1" viewBox="0 0 16.933 16.933" xmlns="http://www.w3.org/2000/svg" xmlns:xlink="http://www.w3.org/1999/xlink">
    <defs id="defs5">
        <filter id="filter2076-6" x="-.048000001" y="-.048000001" width="1.096" height="1.096" color-interpolation-filters="sRGB">
            <feGaussianBlur id="feGaussianBlur1129" stdDeviation="1.1"/>
        </filter>
        <linearGradient id="linearGradient2149" x1="-12.341808" x2="-12.341808" y1="16.277155" y2="4.1245341" gradientTransform="translate(-.07505434 .0749374)" gradientUnits="userSpaceOnUse">
            <stop id="stop13841" stop-color="#feca35" offset=".46230432"/>
            <stop id="stop13843" stop-color="#43d2e5" offset="1"/>
        </linearGradient>
        <linearGradient id="linearGradient2204" x1="-19.616978" x2="-5.0652771" y1="16.277048" y2="1.7253492" gradientUnits="userSpaceOnUse">
            <stop id="stop18256" stop-color="#cc9701" offset=".46230432"/>
            <stop id="stop18258" stop-color="#1794a4" offset="1"/>
        </linearGradient>
        <linearGradient id="linearGradient2606" x1="-11.634439" x2="-19.618717" y1="6.2974844" y2="16.277155" gradientUnits="userSpaceOnUse">
            <stop id="stop2600" stop-color="#6ebb94" offset="0"/>
            <stop id="stop2602" stop-color="#6ebb94" stop-opacity="0" offset="1"/>
        </linearGradient>
    </defs>
    <g id="g2617" transform="translate(20.807917 -.53480887)">
        <rect id="rect1136" transform="matrix(.26458 0 0 .26458 -20.807977 .5347492)" x="4.5" y="4.5" width="55" height="55" rx="13.002" ry="13.002" filter="url(#filter2076-6)" opacity=".3"/>
        <path id="path1138" d="m-16.176977 1.7253492c-1.9058 0-3.44 1.5342-3.44 3.44v7.6716998c0 1.9058 1.5342 3.44 3.44 3.44h7.6717c1.9058 0 3.44-1.5342 3.44-3.44v-7.6716998c0-1.9058-1.5342-3.44-3.44-3.44z" fill="url(#linearGradient2204)" stroke-linecap="round" stroke-width=".079373" style="paint-order:stroke fill markers"/>
        <path id="path1140" d="m-15.955977 3.3128092c-1.1488 0-2.0737 0.92498-2.0737 2.0737v7.2293998c0 1.1488 0.92498 2.0737 2.0737 2.0737h7.2294c1.1488 0 2.0737-0.92498 2.0737-2.0737v-7.2293998c0-1.1488-0.92498-2.0737-2.0737-2.0737z" fill="#fafafa" stroke-linecap="round" stroke-width=".079373" style="paint-order:stroke fill markers"/>
        <path id="path1142" d="m-16.687977 7.4048092c-0.0057 0.039649-0.0092 0.081-0.01463 0.12163h8.7213c-0.0051-0.040625-0.0089-0.082011-0.0152-0.12163z" fill="#f08705" opacity=".6" stroke-width=".68981" style="paint-order:normal"/>
        <path id="path1144" d="m-16.543977 4.7624092c0.0051 0.040625 0.0099 0.081176 0.01548 0.12163h8.376c0.0052-0.043705 0.0097-0.078492 0.01437-0.12163z" fill="#6ebb94" opacity=".6" stroke-width=".67718" style="paint-order:normal"/>
        <path id="path1146" d="m-16.687977 10.047109c-0.0057 0.03965-0.0092 0.081-0.01463 0.12163h8.7213c-0.0051-0.04063-0.0089-0.08201-0.0152-0.12163z" fill="#f08705" opacity=".6" stroke-width=".68981" style="paint-order:normal"/>
        <path id="path1148" d="m-16.687977 12.689609c-0.0057 0.03965-0.0092 0.081-0.01463 0.12163h8.7213c-0.0051-0.04063-0.0089-0.08201-0.0152-0.12163z" fill="#f08705" opacity=".6" stroke-width=".68981" style="paint-order:normal"/>
        <path id="path1152" d="m-19.055977 4.1246092c-0.31183 0-0.56274 0.25092-0.56274 0.56275v1.8278c0 0.022682 0.0041 0.044178 0.0067 0.066145-0.0055 0.54053-0.0052 1.1567-0.0052 1.9652v0.22427h-5.16e-4v4.0662998c0 0.03645 0.0041 0.07184 0.0052 0.108 2e-3 0.05118 0.0031 0.10258 0.0078 0.15296 0.12639 1.6956 1.4693 3.0388 3.1646 3.1662 0.08518 0.0081 0.17144 0.0128 0.25941 0.01292 0.0012 3e-6 0.0024 0 0.0036 0h7.671717c0.08936 0 0.17707-0.0047 0.26354-0.01292 1.691-0.12755 3.0311-1.4649 3.1625-3.1548 0.0087-0.08956 0.01395-0.18019 0.01395-0.27233v-4.1438998c1.6e-5 -0.00177 5.17e-4 -0.0034 5.17e-4 -0.00517v-1.8278c0-0.31183-0.25092-0.56275-0.56274-0.56275h-6.0068c-0.27152 0-0.48409-0.01833-0.66041-0.065111-0.17632-0.04678-0.31607-0.12227-0.44079-0.23564-0.12474-0.11337-0.23466-0.2648-0.3514-0.46456-0.11674-0.19977-0.24036-0.44746-0.39273-0.75343-0.07349-0.18081-0.17612-0.31227-0.28835-0.4072-0.11223-0.094932-0.23385-0.15348-0.34674-0.18965-0.22578-0.072339-0.41495-0.054259-0.41495-0.054259h-2.5533c-0.01048-5.76e-4 -0.02036-0.0031-0.03101-0.0031h-0.91517z" fill="url(#linearGradient2149)" stroke-width=".26458"/>
        <path id="path4912" d="m-17.443036 9.5873398c-0.194389 2.959e-4 -0.389348 0.018842-0.583933 0.058393-0.565842 0.1755042-1.259763 0.5966332-1.590569 1.2924022v1.899072c0 0.03645 0.0041 0.07184 0.0052 0.108001 2e-3 0.05118 0.0031 0.10258 0.0078 0.152959 0.12639 1.695599 1.469304 3.038753 3.164602 3.166153 0.08518 0.0081 0.171441 0.0128 0.259411 0.01292 0.0012 3e-6 0.0024 0 0.0036 0h7.6717324c0.08936 0 0.1770747-0.0047 0.2635447-0.01292 1.6909983-0.12755 3.0311355-1.464886 3.1625354-3.154784 0.00816-0.08398 0.012829-0.169048 0.013436-0.255277v-1.160629c-0.6757474 0.265426-1.3424611 1.255209-2.1243763 1.425724-1.7427733 0.809073-3.7169092 0.690739-5.3690762-0.432006-0.709403-0.448675-1.227165-1.297396-1.925943-1.782802-0.87472-0.776697-1.908199-1.3188041-2.9579-1.3172062z" fill="url(#linearGradient2606)"/>
    </g>
</svg>
