<svg id="svg290" version="1.1" viewBox="0 0 64 64" xmlns="http://www.w3.org/2000/svg">
  <defs id="defs278">
    <style id="style266" type="text/css"/>
    <style id="style268" type="text/css"/>
    <filter id="filter1057" x="-.026999999" y="-.026999999" width="1.054" height="1.054" color-interpolation-filters="sRGB">
      <feGaussianBlur id="feGaussianBlur270" stdDeviation="0.61875"/>
    </filter>
    <linearGradient id="linearGradient1053" x1="-127" x2="-72" y1="60" y2="5" gradientTransform="translate(131.5 -.51)" gradientUnits="userSpaceOnUse">
      <stop id="stop273" stop-color="#272727" offset="0"/>
      <stop id="stop275" stop-color="#333333" offset="1"/>
    </linearGradient>
  </defs>
  <rect id="rect280" x="4.5" y="4.5" width="55" height="55" ry="15" fill="#141414" filter="url(#filter1057)" opacity=".3" stroke-linecap="round" stroke-width="2.7444"/>
  <rect id="rect282" x="4.5" y="4.5" width="55" height="55" ry="15" fill="url(#linearGradient1053)" stroke-linecap="round" stroke-width="2.7444"/>
  <circle id="circle284" cx="-1326.3" cy="-1241.6" r="0" fill="#5e4aa6"/>
  <circle id="circle286" cx="-226.72" cy="23.855" r="0" fill="#5e4aa6" fill-rule="evenodd"/>
  <g id="g1712" transform="translate(57.107998,-2)">
    <rect id="rect1479" x="-45.471962" y="14" width="18" height="18" ry="4.909091" fill="#37474f" stroke-linecap="round" stroke-width=".898167"/>
    <path id="path444" d="m-32.478069 18.976076-2.930844 4.011891 2.930844 4.035958h-2.10207l-1.945901-2.774716-1.897849 2.774716h-2.041964l2.918831-3.999919-2.918831-4.04793h2.102029l1.945901 2.858807 1.837784-2.858807z" fill="#ffffff" stroke-width=".41"/>
    <rect id="rect1702" x="-22.744034" y="36" width="18" height="18" ry="4.909091" fill="#37474f" stroke-linecap="round" stroke-width=".898167"/>
    <path id="path446" d="m-13.810023 40.976075c0.37638 0 0.744724 0.05203 1.105114 0.156169 0.360349 0.104099 0.684659 0.264245 0.97293 0.480438 0.296102 0.216234 0.528572 0.488474 0.696672 0.816802 0.1763 0.320333 0.26445 0.704708 0.26445 1.153125 0 0.472484-0.12013 0.880885-0.36039 1.225203-0.23247 0.336323-0.54079 0.600568-0.925042 0.792776-0.384375 0.184172-0.800771 0.292289-1.249229 0.32431l2.894641 3.099026h-2.197969l-2.798701-3.291193v3.291193h-1.669643v-8.047849zm-1.597524 1.561526v2.029992c0.192167 0.06404 0.404383 0.116112 0.636607 0.156128 0.240219 0.03202 0.480479 0.04805 0.720698 0.04805 0.480479 0 0.860836-0.0961 1.141112-0.288271 0.288271-0.200203 0.432427-0.480479 0.432427-0.840828 0-0.39237-0.152151-0.672646-0.456453-0.840828-0.296266-0.176177-0.660633-0.264245-1.09306-0.264245z" fill="#ffffff" stroke-width=".41"/>
    <rect id="rect1698" x="-22.744034" y="14" width="18" height="18" ry="4.909091" fill="#37474f" stroke-linecap="round" stroke-width=".898167"/>
    <path id="path448" d="m-13.600001 18.976075c0.37638 0 0.744724 0.06404 1.105114 0.192168 0.360349 0.128125 0.684659 0.316314 0.97293 0.56457 0.296102 0.248255 0.528572 0.548539 0.696672 0.900893 0.1763 0.344318 0.26445 0.740705 0.26445 1.189164 0 0.544521-0.14022 1.028977-0.42066 1.453409-0.27224 0.416396-0.636566 0.744724-1.093019 0.984943-0.456412 0.24026-0.952922 0.360349-1.489448 0.360349-0.360349 0-0.684659-0.03604-0.97293-0.108076-0.288271-0.07208-0.528531-0.156169-0.720698-0.252273v2.762702h-1.669643v-8.047849zm-1.657589 1.561526v2.378328c0.176177 0.07204 0.388352 0.13612 0.636607 0.192168 0.25625 0.04805 0.516518 0.07208 0.780763 0.07208 0.480479 0 0.860836-0.132143 1.141112-0.396389 0.288271-0.272281 0.432427-0.592573 0.432427-0.960916 0-0.424432-0.160146-0.744766-0.480479-0.960959-0.320292-0.216193-0.696672-0.32431-1.129099-0.32431z" fill="#ffffff" stroke-width=".41"/>
    <rect id="rect1700" x="-45.471962" y="36" width="18" height="18" ry="4.909091" fill="#37474f" stroke-linecap="round" stroke-width=".898167"/>
    <path id="path450" d="m-37.649092 40.976075v6.546388h4.023904v1.501462h-5.693547v-8.047849z" fill="#ffffff" stroke-width=".41"/>
  </g>
</svg>
