<svg id="svg5" version="1.1" viewBox="0 0 64 64" xmlns="http://www.w3.org/2000/svg">
  <defs id="defs3">
    <style id="style1" type="text/css"/>
    <style id="style2" type="text/css"/>
    <filter id="filter1057" x="-.026999999" y="-.026999999" width="1.054" height="1.054" color-interpolation-filters="sRGB">
      <feGaussianBlur id="feGaussianBlur2" stdDeviation="0.61875"/>
    </filter>
    <linearGradient id="_Linear1" x2="1" gradientTransform="matrix(44.683409,48.952265,-48.952265,44.683409,9.9487549,7.2908342)" gradientUnits="userSpaceOnUse">
      <stop id="stop3-3" stop-color="rgb(76,196,140)" offset="0"/>
      <stop id="stop4" stop-color="rgb(71,108,201)" offset=".5"/>
      <stop id="stop5" stop-color="rgb(186,26,183)" offset="1"/>
    </linearGradient>
  </defs>
  <rect id="rect3" x="4.5" y="4.5" width="55" height="55" ry="15" fill="#141414" filter="url(#filter1057)" opacity=".3" stroke-linecap="round" stroke-width="2.7444"/>
  <circle id="circle4" cx="-1326.3" cy="-1241.6" r="0" fill="#5e4aa6"/>
  <circle id="circle5" cx="-226.72" cy="23.855" r="0" fill="#5e4aa6" fill-rule="evenodd"/>
  <g clip-rule="evenodd" stroke-linejoin="round" stroke-miterlimit="2">
    <rect id="rect1" x="4.4999986" y="4.4999986" width="55.000004" height="55.000004" fill="none" stroke-width=".0537109"/>
    <path id="rect2" d="m19.5 4.5c-8.31 0-15 6.69-15 15v25c0 8.307438 6.685748 14.995877 14.992188 15h25.015624c8.304221-0.004122 14.988618-6.689786 14.992188-14.994141v-25.011718c-0.003571-8.306917-6.692219-14.994141-15-14.994141h-25z" fill="url(#_Linear1)" fill-rule="evenodd" stroke-width=".06875"/>
    <path id="path2" d="m43.245214 14.043709c5.97056 3.749636 9.942297 10.392812 9.942297 17.956304 0 8.578485-5.109256 15.973106-12.448219 19.304139-1.114567-4.905471-3.424341-6.986435-7.565126-8.403875-0.07693 1.39621 0.307155 4.238241-0.718342 4.310097-1.958658 0.13718-8.86154-3.27692-9.338537-6.465124-0.454928-3.041004-0.362548-7.693257-0.718342-10.056879-9.158632 0.03668-2.155027-7.901852-2.155027-7.901852l0.718342 2.873413h1.436685s0.159734-3.192353 0.718342-3.591756c0.695655-0.497344 2.458783-1.429578 7.18351-1.436684 2.030514-2.816078 9.651253-5.331225 12.944417-6.587783zm-7.197635 10.89788c-0.22625 0.274493 0.465212 1.443526 0.86894 2.189234 0.731672 1.351366 2.160544 2.544013 6.039857 2.430093 0.907693-0.02666 2.137063 1.76e-4 3.148082-0.371773 3.890039-3.492401-7.327178-8.270314-7.901852-7.839309-1.031544 0.773691 1.099251 3.079713 1.436728 3.591755-0.948256-0.05579-2.408068 0.0017-3.591755 0zm-3.879092 7.271257c-1.094219 0-1.982624 0.88836-1.982624 1.982624 0 1.09422 0.888405 1.982625 1.982624 1.982625 1.094264 0 1.982625-0.888405 1.982625-1.982625 0-1.094264-0.888361-1.982624-1.982625-1.982624zm6.214201 19.994762c-2.013962 0.636467-4.158528 0.979903-6.382675 0.979903-11.693728 0-21.187498-9.493769-21.187498-21.187498 0-11.693728 9.49377-21.187498 21.187498-21.187498 3.074284 0 5.996514 0.656152 8.634849 1.836352-1.459195 0.588754-3.549118 1.386456-3.86797 1.302373-12.200871-3.21676-23.011667 7.964529-23.011667 18.048464 0 11.027778 12.252821 21.055923 23.35731 17.567142 0.413968-0.130074 0.790596 1.180817 1.270153 2.640762z" fill="#ffffff" fill-rule="evenodd" stroke-width=".0441378"/>
  </g>
</svg>
