<svg id="svg290" version="1.1" viewBox="0 0 64 64" xmlns="http://www.w3.org/2000/svg">
  <defs id="defs278">
    <style id="style266" type="text/css"/>
    <style id="style268" type="text/css"/>
    <filter id="filter1057" x="-.026999999" y="-.026999999" width="1.054" height="1.054" color-interpolation-filters="sRGB">
      <feGaussianBlur id="feGaussianBlur270" stdDeviation="0.61875"/>
    </filter>
    <linearGradient id="linearGradient1053" x1="-127" x2="-72" y1="60" y2="5" gradientTransform="translate(131.5 -.51)" gradientUnits="userSpaceOnUse">
      <stop id="stop273" stop-color="#111111" offset="0"/>
      <stop id="stop275" stop-color="#2d2d2d" stop-opacity=".99608004" offset="1"/>
    </linearGradient>
  </defs>
  <rect id="rect280" x="4.5" y="4.5" width="55" height="55" ry="15" fill="#141414" filter="url(#filter1057)" opacity=".3" stroke-linecap="round" stroke-width="2.7444"/>
  <rect id="rect282" x="4.5" y="4.5" width="55" height="55" ry="15" fill="url(#linearGradient1053)" stroke-linecap="round" stroke-width="2.7444"/>
  <circle id="circle284" cx="-1326.3" cy="-1241.6" r="0" fill="#5e4aa6"/>
  <circle id="circle286" cx="-226.72" cy="23.855" r="0" fill="#5e4aa6" fill-rule="evenodd"/>
  <path id="path364" d="m37.677962 14.673286c-0.79848 1.134685-0.966575 1.975191-0.966575 4.580762 0 1.765065-0.168105 3.698229-0.420253 4.328609-0.420253 1.050634-0.462279 1.09266-3.866337 0.966584l-3.488101-0.126076-0.210131-2.521521c-0.3362-4.244558-2.521517-6.051648-4.580764-3.824306-0.756444 0.798483-0.924549 1.386836-0.840496 3.404053 0.126069 2.563545-0.504305 3.572154-2.185317 3.572154-1.00861 0-3.614179 1.554937-3.908363 2.353418-0.294174 0.798482 0.420253 2.689622 1.092663 2.731647 0.294174 0.04203 1.47088 0.04203 2.563543-0.04203 1.302785-0.04203 2.395448 0.168101 3.067848 0.63038 0.966585 0.588355 1.050637 0.924557 0.924558 3.067849l-0.126078 2.395445-4.622781 0.210126c-6.093679 0.294178-7.774691 1.17671-6.892159 3.740254 0.252157 0.714432 0.504305 1.344813 0.504305 1.344813 0.04207 0.04203 2.521517 0.210127 5.547348 0.336203l5.463287 0.252152 0.336209 3.530128c0.336201 3.698229 1.008602 5.085065 2.395439 5.085065 1.050636 0 1.260758-0.840508 1.260758-4.748864 0-5.547344 0.04198-5.589369 4.244563-6.051649 3.404049-0.3362 3.740259 0 3.740259 4.07646 0 2.647596 0.168095 3.446076 0.882531 4.370633 1.13468 1.428864 1.891142 1.386836 2.689622-0.210125 0.588348-1.134683 0.630375-1.681015 0.168096-4.202535-0.672401-3.782281-0.378227-4.160509 3.277979-4.160509 3.1519 0 6.009618-1.176708 6.009618-2.52152 0-0.966581-1.344811-1.807088-2.26936-1.42886-0.378236 0.168101-1.723047 0.126075-2.941779 0-3.109874-0.420253-4.454685-1.638988-4.454685-4.160509 0-2.563545 0.714427-4.454685 1.80709-4.706837 0.504305-0.126076 2.521526-0.378228 4.454685-0.630381 3.740258-0.420252 4.664816-0.882531 4.664816-2.143292 0-0.756456-0.378227-0.798481-4.832912-0.798481-4.580763 0-4.832921-0.04203-5.463295-1.008608-0.546332-0.798482-0.588358-1.470886-0.252157-3.78228 0.67241-4.790889-0.79848-6.85013-2.773674-3.908357zm-1.218733 14.414691c0.336201 0.840507 0.336201 5.379243 0 6.219749-0.210121 0.504304-0.882531 0.672406-3.067848 0.672406-3.572153 0-4.28658-0.504305-4.538737-3.235951-0.210122-1.933165-0.126079-2.143292 1.134689-3.193926 1.092653-0.966582 1.723037-1.134684 3.782275-1.134684 1.849116 0 2.4795 0.168102 2.689621 0.672406z" fill="#e5e5e5" stroke-width=".999997"/>
</svg>
